<!DOCTYPE svg PUBLIC "-//W3C//DTD SVG 1.1//EN" "http://www.w3.org/Graphics/SVG/1.1/DTD/svg11.dtd">
<svg xmlns="http://www.w3.org/2000/svg" xmlns:xlink="http://www.w3.org/1999/xlink" xmlns:jfreesvg="http://www.jfree.org/jfreesvg/svg" width="600" height="400" text-rendering="auto" shape-rendering="auto">
<defs><clipPath id="94008612489346clip-0"><path d="M 0 0 L 600 0 L 600 400 L 0 400 L 0 0 M 0 0"/></clipPath>
<clipPath id="94008612489346clip-1"><path d="M 194.43 156.57 L 194.43 756.57 L -205.57 756.57 L -205.57 156.57 L 194.43 156.57 M 194.43 156.57"/></clipPath>
<clipPath id="94008612489346clip-2"><path d="M 64 23 L 64 328 L 592 328 L 592 23 M 64 23"/></clipPath>
</defs>
<rect x="0" y="0" width="600" height="400" style="fill: rgb(238,238,238); fill-opacity: 1.0" transform="matrix(1,0,0,1,0,0)" clip-path="url(#94008612489346clip-0)"/><g style="fill: rgb(0,0,0); fill-opacity: 1.0; stroke: none" transform="matrix(1,0,0,1,0,0)" clip-path="url(#94008612489346clip-0)"><path d="M 273.16 14.54 L 277.09 4.42 L 279.2 4.42 L 283.14 14.54 L 280.98 14.54 L 279.92 11.83 L 275.74 11.83 L 274.69 14.54 M 273.16 14.54 M 276.26 10.49 L 279.41 10.49 L 277.83 6.46 M 276.26 10.49 M 297.41 14.13 Q 295.94 14.79 293.9 14.79 Q 291.41 14.79 290.02 13.39 Q 288.64 11.99 288.64 9.48 Q 288.64 6.92 290.03 5.54 Q 291.43 4.17 294.02 4.17 Q 295.68 4.17 297.31 4.55 L 297.31 6.2 Q 295.46 5.55 294.21 5.55 Q 292.61 5.55 291.74 6.57 Q 290.87 7.58 290.87 9.45 Q 290.87 11.28 291.8 12.31 Q 292.74 13.33 294.4 13.33 Q 295.89 13.33 297.41 12.58 M 297.41 14.13 M 299.26 14.54 L 299.26 3.74 L 301.29 3.74 L 301.29 8.44 Q 302.28 6.86 303.84 6.86 Q 304.85 6.86 305.43 7.49 Q 306.01 8.13 306.01 9.23 L 306.01 14.54 L 303.99 14.54 L 303.99 9.73 Q 303.99 8.45 303.14 8.45 Q 302.18 8.45 301.29 9.81 L 301.29 14.54 M 299.26 14.54 M 311.94 13.73 Q 310.93 14.71 309.78 14.71 Q 308.79 14.71 308.18 14.1 Q 307.56 13.5 307.56 12.55 Q 307.56 11.3 308.56 10.63 Q 309.55 9.96 311.4 9.96 L 311.94 9.96 L 311.94 9.27 Q 311.94 8.1 310.61 8.1 Q 309.43 8.1 308.22 8.77 L 308.22 7.38 Q 309.59 6.86 310.94 6.86 Q 313.88 6.86 313.88 9.2 L 313.88 12.53 Q 313.88 13.41 314.45 13.41 Q 314.55 13.41 314.72 13.38 L 314.77 14.51 Q 314.12 14.71 313.63 14.71 Q 312.39 14.71 312.03 13.73 M 311.94 13.73 M 311.94 12.64 L 311.94 11.12 L 311.46 11.12 Q 309.5 11.12 309.5 12.35 Q 309.5 12.76 309.79 13.05 Q 310.07 13.33 310.49 13.33 Q 311.2 13.33 311.94 12.64 M 311.94 12.64 M 316.26 14.54 L 316.26 7.03 L 318.29 7.03 L 318.29 8.44 Q 319.07 6.86 320.68 6.86 Q 320.87 6.86 321.06 6.9 L 321.06 8.7 Q 320.63 8.55 320.26 8.55 Q 319.05 8.55 318.29 9.77 L 318.29 14.54 M 316.26 14.54 M 326.13 14.49 Q 325.41 14.71 324.99 14.71 Q 322.36 14.71 322.36 12.25 L 322.36 8.29 L 321.52 8.29 L 321.52 7.03 L 322.36 7.03 L 322.36 5.76 L 324.38 5.53 L 324.38 7.03 L 325.99 7.03 L 325.99 8.29 L 324.38 8.29 L 324.38 11.98 Q 324.38 13.36 325.51 13.36 Q 325.77 13.36 326.13 13.26 M 326.13 14.49"/></g><rect x="262" y="373.33" width="76" height="25.67" style="fill: rgb(255,255,255); fill-opacity: 1.0" transform="matrix(1,0,0,1,0,0)" clip-path="url(#94008612489346clip-0)"/><line x1="262.5" y1="373.83" x2="337.5" y2="373.83" style="stroke-width: 1.0;stroke: rgb(0,0,0);stroke-opacity: 1.0;" transform="matrix(1,0,0,1,0,0)" clip-path="url(#94008612489346clip-0)"/><line x1="262.5" y1="398.5" x2="337.5" y2="398.5" style="stroke-width: 1.0;stroke: rgb(0,0,0);stroke-opacity: 1.0;" transform="matrix(1,0,0,1,0,0)" clip-path="url(#94008612489346clip-0)"/><line x1="262.5" y1="398.5" x2="262.5" y2="373.83" style="stroke-width: 1.0;stroke: rgb(0,0,0);stroke-opacity: 1.0;" transform="matrix(1,0,0,1,0,0)" clip-path="url(#94008612489346clip-0)"/><line x1="337.5" y1="398.5" x2="337.5" y2="373.83" style="stroke-width: 1.0;stroke: rgb(0,0,0);stroke-opacity: 1.0;" transform="matrix(1,0,0,1,0,0)" clip-path="url(#94008612489346clip-0)"/><g style="fill: rgb(192,192,192); fill-opacity: 1.0; stroke: none" transform="matrix(1,0,0,1,0,0)" clip-path="url(#94008612489346clip-0)"><path d="M 266 382.17 L 274 382.17 L 274 390.17 L 266 390.17 L 266 382.17 M 266 382.17"/></g><g style="stroke-width: 1.0;stroke: rgb(0,0,0);stroke-opacity: 1.0;; fill: none" transform="matrix(1,0,0,1,0,0)" clip-path="url(#94008612489346clip-0)"><path d="M 266 382.17 L 274 382.17 L 274 390.17 L 266 390.17 L 266 382.17 M 266 382.17"/></g><g style="fill: rgb(0,0,0); fill-opacity: 1.0; stroke: none" transform="matrix(1,0,0,1,0,0)" clip-path="url(#94008612489346clip-0)"><path d="M 281.52 392.11 Q 280.43 392.11 278.73 391.63 L 278.73 390.11 Q 280.56 390.96 281.74 390.96 Q 282.65 390.96 283.2 390.48 Q 283.76 390 283.76 389.23 Q 283.76 388.59 283.39 388.14 Q 283.03 387.7 282.06 387.15 L 281.31 386.72 Q 279.93 385.93 279.36 385.23 Q 278.79 384.53 278.79 383.6 Q 278.79 382.34 279.7 381.53 Q 280.61 380.73 282.01 380.73 Q 283.27 380.73 284.66 381.14 L 284.66 382.55 Q 282.94 381.88 282.1 381.88 Q 281.3 381.88 280.78 382.3 Q 280.26 382.72 280.26 383.37 Q 280.26 383.91 280.64 384.33 Q 281.02 384.75 282.04 385.32 L 282.81 385.76 Q 284.22 386.56 284.77 387.27 Q 285.33 387.98 285.33 388.98 Q 285.33 390.39 284.29 391.25 Q 283.24 392.11 281.52 392.11 M 281.52 392.11 M 294.27 391.58 Q 292.82 392.02 291.79 392.02 Q 290.03 392.02 288.92 390.85 Q 287.81 389.68 287.81 387.82 Q 287.81 386.01 288.79 384.86 Q 289.77 383.7 291.29 383.7 Q 292.73 383.7 293.52 384.72 Q 294.31 385.75 294.31 387.64 L 294.3 388.09 L 289.29 388.09 Q 289.6 390.92 292.06 390.92 Q 292.96 390.92 294.27 390.44 M 294.27 391.58 M 289.35 387 L 292.86 387 Q 292.86 384.78 291.2 384.78 Q 289.54 384.78 289.35 387 M 289.35 387 M 297.44 391.84 L 297.44 383.88 L 298.89 383.88 L 298.89 385.38 Q 299.74 383.71 301.38 383.71 Q 301.6 383.71 301.84 383.74 L 301.84 385.09 Q 301.46 384.97 301.18 384.97 Q 299.81 384.97 298.89 386.59 L 298.89 391.84 M 297.44 391.84 M 304.44 391.84 L 304.44 383.88 L 305.89 383.88 L 305.89 391.84 M 304.44 391.84 M 304.44 382.44 L 304.44 381 L 305.89 381 L 305.89 382.44 M 304.44 382.44 M 315.27 391.58 Q 313.82 392.02 312.79 392.02 Q 311.03 392.02 309.92 390.85 Q 308.81 389.68 308.81 387.82 Q 308.81 386.01 309.79 384.86 Q 310.77 383.7 312.29 383.7 Q 313.73 383.7 314.52 384.72 Q 315.31 385.75 315.31 387.64 L 315.3 388.09 L 310.29 388.09 Q 310.6 390.92 313.06 390.92 Q 313.96 390.92 315.27 390.44 M 315.27 391.58 M 310.35 387 L 313.86 387 Q 313.86 384.78 312.2 384.78 Q 310.54 384.78 310.35 387 M 310.35 387 M 320.55 392.02 Q 319.56 392.02 318.15 391.56 L 318.15 390.23 Q 319.56 390.94 320.61 390.94 Q 321.23 390.94 321.64 390.6 Q 322.05 390.26 322.05 389.76 Q 322.05 389.02 320.9 388.53 L 320.06 388.17 Q 318.19 387.4 318.19 385.94 Q 318.19 384.9 318.93 384.3 Q 319.67 383.71 320.95 383.71 Q 321.61 383.71 322.6 383.89 L 322.9 383.95 L 322.9 385.15 Q 321.69 384.79 320.98 384.79 Q 319.59 384.79 319.59 385.8 Q 319.59 386.45 320.64 386.9 L 321.34 387.19 Q 322.52 387.69 323.01 388.24 Q 323.5 388.8 323.5 389.62 Q 323.5 390.67 322.67 391.35 Q 321.84 392.02 320.55 392.02 M 320.55 392.02 M 332.26 391.84 L 332.26 390.75 L 334.42 390.75 L 334.42 382.2 L 332.26 382.74 L 332.26 381.63 L 335.87 380.73 L 335.87 390.75 L 338.04 390.75 L 338.04 391.84 M 332.26 391.84"/></g><rect x="64" y="23" width="528" height="305" style="fill: rgb(255,255,255); fill-opacity: 1.0" transform="matrix(1,0,0,1,0,0)" clip-path="url(#94008612489346clip-0)"/><line x1="64" y1="328" x2="592" y2="328" style="stroke-width: 1.0;stroke: rgb(128,128,128);stroke-opacity: 1.0;" transform="matrix(1,0,0,1,0,0)" clip-path="url(#94008612489346clip-0)"/><line x1="99.64" y1="328" x2="99.64" y2="328" style="stroke-width: 1.0;stroke: rgb(128,128,128);stroke-opacity: 1.0;" transform="matrix(1,0,0,1,0,0)" clip-path="url(#94008612489346clip-0)"/><line x1="99.64" y1="328" x2="99.64" y2="330" style="stroke-width: 1.0;stroke: rgb(128,128,128);stroke-opacity: 1.0;" transform="matrix(1,0,0,1,0,0)" clip-path="url(#94008612489346clip-0)"/><line x1="123.68" y1="328" x2="123.68" y2="328" style="stroke-width: 1.0;stroke: rgb(128,128,128);stroke-opacity: 1.0;" transform="matrix(1,0,0,1,0,0)" clip-path="url(#94008612489346clip-0)"/><line x1="123.68" y1="328" x2="123.68" y2="330" style="stroke-width: 1.0;stroke: rgb(128,128,128);stroke-opacity: 1.0;" transform="matrix(1,0,0,1,0,0)" clip-path="url(#94008612489346clip-0)"/><line x1="147.72" y1="328" x2="147.72" y2="328" style="stroke-width: 1.0;stroke: rgb(128,128,128);stroke-opacity: 1.0;" transform="matrix(1,0,0,1,0,0)" clip-path="url(#94008612489346clip-0)"/><line x1="147.72" y1="328" x2="147.72" y2="330" style="stroke-width: 1.0;stroke: rgb(128,128,128);stroke-opacity: 1.0;" transform="matrix(1,0,0,1,0,0)" clip-path="url(#94008612489346clip-0)"/><line x1="171.75" y1="328" x2="171.75" y2="328" style="stroke-width: 1.0;stroke: rgb(128,128,128);stroke-opacity: 1.0;" transform="matrix(1,0,0,1,0,0)" clip-path="url(#94008612489346clip-0)"/><line x1="171.75" y1="328" x2="171.75" y2="330" style="stroke-width: 1.0;stroke: rgb(128,128,128);stroke-opacity: 1.0;" transform="matrix(1,0,0,1,0,0)" clip-path="url(#94008612489346clip-0)"/><line x1="195.79" y1="328" x2="195.79" y2="328" style="stroke-width: 1.0;stroke: rgb(128,128,128);stroke-opacity: 1.0;" transform="matrix(1,0,0,1,0,0)" clip-path="url(#94008612489346clip-0)"/><line x1="195.79" y1="328" x2="195.79" y2="330" style="stroke-width: 1.0;stroke: rgb(128,128,128);stroke-opacity: 1.0;" transform="matrix(1,0,0,1,0,0)" clip-path="url(#94008612489346clip-0)"/><line x1="219.83" y1="328" x2="219.83" y2="328" style="stroke-width: 1.0;stroke: rgb(128,128,128);stroke-opacity: 1.0;" transform="matrix(1,0,0,1,0,0)" clip-path="url(#94008612489346clip-0)"/><line x1="219.83" y1="328" x2="219.83" y2="330" style="stroke-width: 1.0;stroke: rgb(128,128,128);stroke-opacity: 1.0;" transform="matrix(1,0,0,1,0,0)" clip-path="url(#94008612489346clip-0)"/><line x1="243.87" y1="328" x2="243.87" y2="328" style="stroke-width: 1.0;stroke: rgb(128,128,128);stroke-opacity: 1.0;" transform="matrix(1,0,0,1,0,0)" clip-path="url(#94008612489346clip-0)"/><line x1="243.87" y1="328" x2="243.87" y2="330" style="stroke-width: 1.0;stroke: rgb(128,128,128);stroke-opacity: 1.0;" transform="matrix(1,0,0,1,0,0)" clip-path="url(#94008612489346clip-0)"/><line x1="267.91" y1="328" x2="267.91" y2="328" style="stroke-width: 1.0;stroke: rgb(128,128,128);stroke-opacity: 1.0;" transform="matrix(1,0,0,1,0,0)" clip-path="url(#94008612489346clip-0)"/><line x1="267.91" y1="328" x2="267.91" y2="330" style="stroke-width: 1.0;stroke: rgb(128,128,128);stroke-opacity: 1.0;" transform="matrix(1,0,0,1,0,0)" clip-path="url(#94008612489346clip-0)"/><line x1="291.94" y1="328" x2="291.94" y2="328" style="stroke-width: 1.0;stroke: rgb(128,128,128);stroke-opacity: 1.0;" transform="matrix(1,0,0,1,0,0)" clip-path="url(#94008612489346clip-0)"/><line x1="291.94" y1="328" x2="291.94" y2="330" style="stroke-width: 1.0;stroke: rgb(128,128,128);stroke-opacity: 1.0;" transform="matrix(1,0,0,1,0,0)" clip-path="url(#94008612489346clip-0)"/><line x1="315.98" y1="328" x2="315.98" y2="328" style="stroke-width: 1.0;stroke: rgb(128,128,128);stroke-opacity: 1.0;" transform="matrix(1,0,0,1,0,0)" clip-path="url(#94008612489346clip-0)"/><line x1="315.98" y1="328" x2="315.98" y2="330" style="stroke-width: 1.0;stroke: rgb(128,128,128);stroke-opacity: 1.0;" transform="matrix(1,0,0,1,0,0)" clip-path="url(#94008612489346clip-0)"/><line x1="340.02" y1="328" x2="340.02" y2="328" style="stroke-width: 1.0;stroke: rgb(128,128,128);stroke-opacity: 1.0;" transform="matrix(1,0,0,1,0,0)" clip-path="url(#94008612489346clip-0)"/><line x1="340.02" y1="328" x2="340.02" y2="330" style="stroke-width: 1.0;stroke: rgb(128,128,128);stroke-opacity: 1.0;" transform="matrix(1,0,0,1,0,0)" clip-path="url(#94008612489346clip-0)"/><line x1="364.06" y1="328" x2="364.06" y2="328" style="stroke-width: 1.0;stroke: rgb(128,128,128);stroke-opacity: 1.0;" transform="matrix(1,0,0,1,0,0)" clip-path="url(#94008612489346clip-0)"/><line x1="364.06" y1="328" x2="364.06" y2="330" style="stroke-width: 1.0;stroke: rgb(128,128,128);stroke-opacity: 1.0;" transform="matrix(1,0,0,1,0,0)" clip-path="url(#94008612489346clip-0)"/><line x1="388.09" y1="328" x2="388.09" y2="328" style="stroke-width: 1.0;stroke: rgb(128,128,128);stroke-opacity: 1.0;" transform="matrix(1,0,0,1,0,0)" clip-path="url(#94008612489346clip-0)"/><line x1="388.09" y1="328" x2="388.09" y2="330" style="stroke-width: 1.0;stroke: rgb(128,128,128);stroke-opacity: 1.0;" transform="matrix(1,0,0,1,0,0)" clip-path="url(#94008612489346clip-0)"/><line x1="412.13" y1="328" x2="412.13" y2="328" style="stroke-width: 1.0;stroke: rgb(128,128,128);stroke-opacity: 1.0;" transform="matrix(1,0,0,1,0,0)" clip-path="url(#94008612489346clip-0)"/><line x1="412.13" y1="328" x2="412.13" y2="330" style="stroke-width: 1.0;stroke: rgb(128,128,128);stroke-opacity: 1.0;" transform="matrix(1,0,0,1,0,0)" clip-path="url(#94008612489346clip-0)"/><line x1="436.17" y1="328" x2="436.17" y2="328" style="stroke-width: 1.0;stroke: rgb(128,128,128);stroke-opacity: 1.0;" transform="matrix(1,0,0,1,0,0)" clip-path="url(#94008612489346clip-0)"/><line x1="436.17" y1="328" x2="436.17" y2="330" style="stroke-width: 1.0;stroke: rgb(128,128,128);stroke-opacity: 1.0;" transform="matrix(1,0,0,1,0,0)" clip-path="url(#94008612489346clip-0)"/><line x1="460.21" y1="328" x2="460.21" y2="328" style="stroke-width: 1.0;stroke: rgb(128,128,128);stroke-opacity: 1.0;" transform="matrix(1,0,0,1,0,0)" clip-path="url(#94008612489346clip-0)"/><line x1="460.21" y1="328" x2="460.21" y2="330" style="stroke-width: 1.0;stroke: rgb(128,128,128);stroke-opacity: 1.0;" transform="matrix(1,0,0,1,0,0)" clip-path="url(#94008612489346clip-0)"/><line x1="484.25" y1="328" x2="484.25" y2="328" style="stroke-width: 1.0;stroke: rgb(128,128,128);stroke-opacity: 1.0;" transform="matrix(1,0,0,1,0,0)" clip-path="url(#94008612489346clip-0)"/><line x1="484.25" y1="328" x2="484.25" y2="330" style="stroke-width: 1.0;stroke: rgb(128,128,128);stroke-opacity: 1.0;" transform="matrix(1,0,0,1,0,0)" clip-path="url(#94008612489346clip-0)"/><line x1="508.28" y1="328" x2="508.28" y2="328" style="stroke-width: 1.0;stroke: rgb(128,128,128);stroke-opacity: 1.0;" transform="matrix(1,0,0,1,0,0)" clip-path="url(#94008612489346clip-0)"/><line x1="508.28" y1="328" x2="508.28" y2="330" style="stroke-width: 1.0;stroke: rgb(128,128,128);stroke-opacity: 1.0;" transform="matrix(1,0,0,1,0,0)" clip-path="url(#94008612489346clip-0)"/><line x1="532.32" y1="328" x2="532.32" y2="328" style="stroke-width: 1.0;stroke: rgb(128,128,128);stroke-opacity: 1.0;" transform="matrix(1,0,0,1,0,0)" clip-path="url(#94008612489346clip-0)"/><line x1="532.32" y1="328" x2="532.32" y2="330" style="stroke-width: 1.0;stroke: rgb(128,128,128);stroke-opacity: 1.0;" transform="matrix(1,0,0,1,0,0)" clip-path="url(#94008612489346clip-0)"/><line x1="556.36" y1="328" x2="556.36" y2="328" style="stroke-width: 1.0;stroke: rgb(128,128,128);stroke-opacity: 1.0;" transform="matrix(1,0,0,1,0,0)" clip-path="url(#94008612489346clip-0)"/><line x1="556.36" y1="328" x2="556.36" y2="330" style="stroke-width: 1.0;stroke: rgb(128,128,128);stroke-opacity: 1.0;" transform="matrix(1,0,0,1,0,0)" clip-path="url(#94008612489346clip-0)"/><g style="fill: rgb(0,0,0); fill-opacity: 1.0; stroke: none" transform="matrix(1,0,0,1,0,0)" clip-path="url(#94008612489346clip-0)"><path d="M 98.14 343.67 L 98.14 342.95 L 99.59 342.95 L 99.59 337.24 L 98.14 337.6 L 98.14 336.86 L 100.56 336.26 L 100.56 342.95 L 102 342.95 L 102 343.67 M 98.14 343.67"/></g><g style="fill: rgb(0,0,0); fill-opacity: 1.0; stroke: none" transform="matrix(1,0,0,1,0,0)" clip-path="url(#94008612489346clip-0)"><path d="M 121.51 343.67 L 121.51 342.82 Q 121.93 341.84 123.21 340.68 L 123.76 340.19 Q 124.82 339.23 124.82 338.28 Q 124.82 337.68 124.46 337.33 Q 124.1 336.98 123.46 336.98 Q 122.71 336.98 121.69 337.56 L 121.69 336.71 Q 122.65 336.26 123.6 336.26 Q 124.61 336.26 125.23 336.81 Q 125.84 337.35 125.84 338.26 Q 125.84 338.91 125.53 339.41 Q 125.22 339.91 124.38 340.63 L 124.01 340.95 Q 122.85 341.93 122.67 342.82 L 125.81 342.82 L 125.81 343.67 M 121.51 343.67"/></g><g style="fill: rgb(0,0,0); fill-opacity: 1.0; stroke: none" transform="matrix(1,0,0,1,0,0)" clip-path="url(#94008612489346clip-0)"><path d="M 145.73 343.61 L 145.73 342.72 Q 146.77 343.13 147.36 343.13 Q 148.05 343.13 148.48 342.72 Q 148.92 342.32 148.92 341.68 Q 148.92 340.16 146.78 340.16 L 146.4 340.16 L 146.4 339.51 L 146.74 339.5 Q 148.74 339.5 148.74 338.09 Q 148.74 336.98 147.42 336.98 Q 146.7 336.98 145.83 337.39 L 145.83 336.55 Q 146.68 336.26 147.49 336.26 Q 149.71 336.26 149.71 337.94 Q 149.71 339.21 148.2 339.75 Q 149.95 340.16 149.95 341.67 Q 149.95 342.69 149.27 343.27 Q 148.6 343.85 147.42 343.85 Q 146.75 343.85 145.73 343.61 M 145.73 343.61"/></g><g style="fill: rgb(0,0,0); fill-opacity: 1.0; stroke: none" transform="matrix(1,0,0,1,0,0)" clip-path="url(#94008612489346clip-0)"><path d="M 172.52 343.67 L 172.52 341.62 L 169.27 341.62 L 169.27 340.89 L 172.52 336.44 L 173.42 336.44 L 173.42 340.84 L 174.39 340.84 L 174.39 341.62 L 173.42 341.62 L 173.42 343.67 M 172.52 343.67 M 170.21 340.84 L 172.58 340.84 L 172.58 337.62 M 170.21 340.84"/></g><g style="fill: rgb(0,0,0); fill-opacity: 1.0; stroke: none" transform="matrix(1,0,0,1,0,0)" clip-path="url(#94008612489346clip-0)"><path d="M 194.01 343.7 L 194.01 342.84 Q 194.73 343.13 195.37 343.13 Q 196.09 343.13 196.5 342.71 Q 196.9 342.29 196.9 341.55 Q 196.9 339.92 194.66 339.92 Q 194.41 339.92 194.13 339.96 L 194.13 336.44 L 197.79 336.44 L 197.79 337.28 L 194.97 337.28 L 194.97 339.19 Q 196.37 339.19 197.15 339.83 Q 197.93 340.46 197.93 341.6 Q 197.93 342.65 197.22 343.25 Q 196.51 343.85 195.25 343.85 Q 194.7 343.85 194.01 343.7 M 194.01 343.7"/></g><g style="fill: rgb(0,0,0); fill-opacity: 1.0; stroke: none" transform="matrix(1,0,0,1,0,0)" clip-path="url(#94008612489346clip-0)"><path d="M 218.55 339.92 Q 219.24 339.03 220.28 339.03 Q 221.23 339.03 221.83 339.66 Q 222.43 340.28 222.43 341.27 Q 222.43 342.39 221.76 343.12 Q 221.08 343.85 220.04 343.85 Q 218.85 343.85 218.17 342.89 Q 217.5 341.92 217.5 340.22 Q 217.5 338.34 218.27 337.3 Q 219.05 336.26 220.45 336.26 Q 221.1 336.26 222.06 336.53 L 222.06 337.37 Q 221.04 336.98 220.39 336.98 Q 218.55 336.98 218.55 339.92 M 218.55 339.92 M 221.47 341.48 Q 221.47 340.66 221.1 340.19 Q 220.73 339.72 220.08 339.72 Q 219.47 339.72 219.03 340.13 Q 218.59 340.54 218.59 341.12 Q 218.59 342.03 219 342.58 Q 219.42 343.13 220.11 343.13 Q 220.73 343.13 221.1 342.68 Q 221.47 342.23 221.47 341.48 M 221.47 341.48"/></g><g style="fill: rgb(0,0,0); fill-opacity: 1.0; stroke: none" transform="matrix(1,0,0,1,0,0)" clip-path="url(#94008612489346clip-0)"><path d="M 242.37 343.67 Q 242.51 342.82 242.77 342.21 Q 243.04 341.59 243.7 340.52 L 245.67 337.34 L 241.95 337.34 L 241.95 336.44 L 246.59 336.44 L 246.59 337.34 Q 243.81 341.44 243.48 343.67 M 242.37 343.67"/></g><g style="fill: rgb(0,0,0); fill-opacity: 1.0; stroke: none" transform="matrix(1,0,0,1,0,0)" clip-path="url(#94008612489346clip-0)"><path d="M 267.21 339.73 Q 266.15 339 266.15 338.1 Q 266.15 337.28 266.75 336.77 Q 267.35 336.26 268.31 336.26 Q 269.21 336.26 269.76 336.69 Q 270.32 337.12 270.32 337.82 Q 270.32 338.87 268.97 339.73 Q 270.6 340.53 270.6 341.8 Q 270.6 342.71 269.92 343.28 Q 269.23 343.85 268.15 343.85 Q 267.08 343.85 266.43 343.31 Q 265.77 342.77 265.77 341.89 Q 265.77 340.59 267.21 339.73 M 267.21 339.73 M 268.43 339.43 Q 269.44 338.77 269.44 337.95 Q 269.44 337.52 269.1 337.25 Q 268.77 336.98 268.22 336.98 Q 267.68 336.98 267.35 337.24 Q 267.02 337.51 267.02 337.92 Q 267.02 338.33 267.32 338.65 Q 267.62 338.97 268.43 339.43 M 268.43 339.43 M 267.73 340.12 Q 267.15 340.57 266.94 340.91 Q 266.73 341.24 266.73 341.74 Q 266.73 342.36 267.13 342.74 Q 267.53 343.13 268.19 343.13 Q 268.82 343.13 269.21 342.8 Q 269.61 342.47 269.61 341.95 Q 269.61 341.53 269.37 341.24 Q 269.12 340.95 268.41 340.53 M 267.73 340.12"/></g><g style="fill: rgb(0,0,0); fill-opacity: 1.0; stroke: none" transform="matrix(1,0,0,1,0,0)" clip-path="url(#94008612489346clip-0)"><path d="M 290.08 343.62 L 290.08 342.81 Q 291 343.13 291.64 343.13 Q 292.54 343.13 293.05 342.36 Q 293.55 341.6 293.55 340.24 Q 292.82 341.14 291.89 341.14 Q 290.97 341.14 290.34 340.47 Q 289.7 339.8 289.7 338.83 Q 289.7 337.72 290.38 336.99 Q 291.06 336.26 292.08 336.26 Q 293.26 336.26 293.94 337.21 Q 294.62 338.15 294.62 339.79 Q 294.62 341.66 293.79 342.75 Q 292.96 343.85 291.55 343.85 Q 290.98 343.85 290.08 343.62 M 290.08 343.62 M 290.67 338.64 Q 290.67 339.48 291.04 339.96 Q 291.41 340.45 292.06 340.45 Q 292.67 340.45 293.11 340.03 Q 293.54 339.62 293.54 339.03 Q 293.54 338.11 293.12 337.54 Q 292.7 336.98 292.02 336.98 Q 291.39 336.98 291.03 337.43 Q 290.67 337.87 290.67 338.64 M 290.67 338.64"/></g><g style="fill: rgb(0,0,0); fill-opacity: 1.0; stroke: none" transform="matrix(1,0,0,1,0,0)" clip-path="url(#94008612489346clip-0)"><path d="M 311.48 343.67 L 311.48 342.95 L 312.93 342.95 L 312.93 337.24 L 311.48 337.6 L 311.48 336.86 L 313.9 336.26 L 313.9 342.95 L 315.34 342.95 L 315.34 343.67 M 311.48 343.67 M 319.12 343.85 Q 318 343.85 317.31 342.8 Q 316.62 341.74 316.62 340.05 Q 316.62 338.34 317.31 337.3 Q 318.01 336.26 319.15 336.26 Q 320.28 336.26 320.98 337.3 Q 321.67 338.34 321.67 340.04 Q 321.67 341.77 320.98 342.81 Q 320.28 343.85 319.12 343.85 M 319.12 343.85 M 319.13 343.13 Q 320.65 343.13 320.65 340.02 Q 320.65 336.98 319.15 336.98 Q 317.64 336.98 317.64 340.05 Q 317.64 343.13 319.13 343.13 M 319.13 343.13"/></g><g style="fill: rgb(0,0,0); fill-opacity: 1.0; stroke: none" transform="matrix(1,0,0,1,0,0)" clip-path="url(#94008612489346clip-0)"><path d="M 335.52 343.67 L 335.52 342.95 L 336.97 342.95 L 336.97 337.24 L 335.52 337.6 L 335.52 336.86 L 337.93 336.26 L 337.93 342.95 L 339.38 342.95 L 339.38 343.67 M 335.52 343.67 M 341.52 343.67 L 341.52 342.95 L 342.97 342.95 L 342.97 337.24 L 341.52 337.6 L 341.52 336.86 L 343.93 336.26 L 343.93 342.95 L 345.38 342.95 L 345.38 343.67 M 341.52 343.67"/></g><g style="fill: rgb(0,0,0); fill-opacity: 1.0; stroke: none" transform="matrix(1,0,0,1,0,0)" clip-path="url(#94008612489346clip-0)"><path d="M 359.56 343.67 L 359.56 342.95 L 361.01 342.95 L 361.01 337.24 L 359.56 337.6 L 359.56 336.86 L 361.97 336.26 L 361.97 342.95 L 363.42 342.95 L 363.42 343.67 M 359.56 343.67 M 364.89 343.67 L 364.89 342.82 Q 365.31 341.84 366.59 340.68 L 367.14 340.19 Q 368.2 339.23 368.2 338.28 Q 368.2 337.68 367.84 337.33 Q 367.47 336.98 366.84 336.98 Q 366.09 336.98 365.07 337.56 L 365.07 336.71 Q 366.03 336.26 366.98 336.26 Q 367.99 336.26 368.61 336.81 Q 369.22 337.35 369.22 338.26 Q 369.22 338.91 368.91 339.41 Q 368.6 339.91 367.76 340.63 L 367.39 340.95 Q 366.23 341.93 366.05 342.82 L 369.19 342.82 L 369.19 343.67 M 364.89 343.67"/></g><g style="fill: rgb(0,0,0); fill-opacity: 1.0; stroke: none" transform="matrix(1,0,0,1,0,0)" clip-path="url(#94008612489346clip-0)"><path d="M 383.6 343.67 L 383.6 342.95 L 385.04 342.95 L 385.04 337.24 L 383.6 337.6 L 383.6 336.86 L 386.01 336.26 L 386.01 342.95 L 387.46 342.95 L 387.46 343.67 M 383.6 343.67 M 389.11 343.61 L 389.11 342.72 Q 390.15 343.13 390.74 343.13 Q 391.43 343.13 391.86 342.72 Q 392.29 342.32 392.29 341.68 Q 392.29 340.16 390.16 340.16 L 389.78 340.16 L 389.78 339.51 L 390.12 339.5 Q 392.12 339.5 392.12 338.09 Q 392.12 336.98 390.8 336.98 Q 390.08 336.98 389.21 337.39 L 389.21 336.55 Q 390.06 336.26 390.87 336.26 Q 393.08 336.26 393.08 337.94 Q 393.08 339.21 391.58 339.75 Q 393.32 340.16 393.32 341.67 Q 393.32 342.69 392.65 343.27 Q 391.98 343.85 390.8 343.85 Q 390.13 343.85 389.11 343.61 M 389.11 343.61"/></g><g style="fill: rgb(0,0,0); fill-opacity: 1.0; stroke: none" transform="matrix(1,0,0,1,0,0)" clip-path="url(#94008612489346clip-0)"><path d="M 407.64 343.67 L 407.64 342.95 L 409.08 342.95 L 409.08 337.24 L 407.64 337.6 L 407.64 336.86 L 410.05 336.26 L 410.05 342.95 L 411.49 342.95 L 411.49 343.67 M 407.64 343.67 M 415.9 343.67 L 415.9 341.62 L 412.65 341.62 L 412.65 340.89 L 415.9 336.44 L 416.8 336.44 L 416.8 340.84 L 417.77 340.84 L 417.77 341.62 L 416.8 341.62 L 416.8 343.67 M 415.9 343.67 M 413.59 340.84 L 415.96 340.84 L 415.96 337.62 M 413.59 340.84"/></g><g style="fill: rgb(0,0,0); fill-opacity: 1.0; stroke: none" transform="matrix(1,0,0,1,0,0)" clip-path="url(#94008612489346clip-0)"><path d="M 431.67 343.67 L 431.67 342.95 L 433.12 342.95 L 433.12 337.24 L 431.67 337.6 L 431.67 336.86 L 434.09 336.26 L 434.09 342.95 L 435.53 342.95 L 435.53 343.67 M 431.67 343.67 M 437.39 343.7 L 437.39 342.84 Q 438.1 343.13 438.75 343.13 Q 439.47 343.13 439.87 342.71 Q 440.28 342.29 440.28 341.55 Q 440.28 339.92 438.04 339.92 Q 437.79 339.92 437.51 339.96 L 437.51 336.44 L 441.17 336.44 L 441.17 337.28 L 438.35 337.28 L 438.35 339.19 Q 439.74 339.19 440.53 339.83 Q 441.31 340.46 441.31 341.6 Q 441.31 342.65 440.6 343.25 Q 439.89 343.85 438.63 343.85 Q 438.08 343.85 437.39 343.7 M 437.39 343.7"/></g><g style="fill: rgb(0,0,0); fill-opacity: 1.0; stroke: none" transform="matrix(1,0,0,1,0,0)" clip-path="url(#94008612489346clip-0)"><path d="M 455.71 343.67 L 455.71 342.95 L 457.16 342.95 L 457.16 337.24 L 455.71 337.6 L 455.71 336.86 L 458.12 336.26 L 458.12 342.95 L 459.57 342.95 L 459.57 343.67 M 455.71 343.67 M 461.93 339.92 Q 462.62 339.03 463.66 339.03 Q 464.61 339.03 465.21 339.66 Q 465.81 340.28 465.81 341.27 Q 465.81 342.39 465.14 343.12 Q 464.46 343.85 463.42 343.85 Q 462.23 343.85 461.55 342.89 Q 460.88 341.92 460.88 340.22 Q 460.88 338.34 461.65 337.3 Q 462.43 336.26 463.83 336.26 Q 464.48 336.26 465.44 336.53 L 465.44 337.37 Q 464.42 336.98 463.77 336.98 Q 461.93 336.98 461.93 339.92 M 461.93 339.92 M 464.85 341.48 Q 464.85 340.66 464.48 340.19 Q 464.11 339.72 463.46 339.72 Q 462.85 339.72 462.41 340.13 Q 461.97 340.54 461.97 341.12 Q 461.97 342.03 462.38 342.58 Q 462.8 343.13 463.49 343.13 Q 464.11 343.13 464.48 342.68 Q 464.85 342.23 464.85 341.48 M 464.85 341.48"/></g><g style="fill: rgb(0,0,0); fill-opacity: 1.0; stroke: none" transform="matrix(1,0,0,1,0,0)" clip-path="url(#94008612489346clip-0)"><path d="M 479.75 343.67 L 479.75 342.95 L 481.2 342.95 L 481.2 337.24 L 479.75 337.6 L 479.75 336.86 L 482.16 336.26 L 482.16 342.95 L 483.61 342.95 L 483.61 343.67 M 479.75 343.67 M 485.75 343.67 Q 485.89 342.82 486.15 342.21 Q 486.41 341.59 487.08 340.52 L 489.05 337.34 L 485.33 337.34 L 485.33 336.44 L 489.97 336.44 L 489.97 337.34 Q 487.19 341.44 486.86 343.67 M 485.75 343.67"/></g><g style="fill: rgb(0,0,0); fill-opacity: 1.0; stroke: none" transform="matrix(1,0,0,1,0,0)" clip-path="url(#94008612489346clip-0)"><path d="M 503.79 343.67 L 503.79 342.95 L 505.23 342.95 L 505.23 337.24 L 503.79 337.6 L 503.79 336.86 L 506.2 336.26 L 506.2 342.95 L 507.65 342.95 L 507.65 343.67 M 503.79 343.67 M 510.58 339.73 Q 509.52 339 509.52 338.1 Q 509.52 337.28 510.13 336.77 Q 510.73 336.26 511.69 336.26 Q 512.59 336.26 513.14 336.69 Q 513.69 337.12 513.69 337.82 Q 513.69 338.87 512.35 339.73 Q 513.98 340.53 513.98 341.8 Q 513.98 342.71 513.3 343.28 Q 512.61 343.85 511.53 343.85 Q 510.46 343.85 509.81 343.31 Q 509.15 342.77 509.15 341.89 Q 509.15 340.59 510.58 339.73 M 510.58 339.73 M 511.81 339.43 Q 512.82 338.77 512.82 337.95 Q 512.82 337.52 512.48 337.25 Q 512.15 336.98 511.59 336.98 Q 511.06 336.98 510.73 337.24 Q 510.4 337.51 510.4 337.92 Q 510.4 338.33 510.7 338.65 Q 511 338.97 511.81 339.43 M 511.81 339.43 M 511.11 340.12 Q 510.53 340.57 510.32 340.91 Q 510.11 341.24 510.11 341.74 Q 510.11 342.36 510.51 342.74 Q 510.91 343.13 511.57 343.13 Q 512.2 343.13 512.59 342.8 Q 512.99 342.47 512.99 341.95 Q 512.99 341.53 512.74 341.24 Q 512.5 340.95 511.79 340.53 M 511.11 340.12"/></g><g style="fill: rgb(0,0,0); fill-opacity: 1.0; stroke: none" transform="matrix(1,0,0,1,0,0)" clip-path="url(#94008612489346clip-0)"><path d="M 527.83 343.67 L 527.83 342.95 L 529.27 342.95 L 529.27 337.24 L 527.83 337.6 L 527.83 336.86 L 530.24 336.26 L 530.24 342.95 L 531.68 342.95 L 531.68 343.67 M 527.83 343.67 M 533.46 343.62 L 533.46 342.81 Q 534.38 343.13 535.02 343.13 Q 535.92 343.13 536.43 342.36 Q 536.93 341.6 536.93 340.24 Q 536.2 341.14 535.27 341.14 Q 534.35 341.14 533.72 340.47 Q 533.08 339.8 533.08 338.83 Q 533.08 337.72 533.76 336.99 Q 534.44 336.26 535.46 336.26 Q 536.64 336.26 537.32 337.21 Q 538 338.15 538 339.79 Q 538 341.66 537.17 342.75 Q 536.34 343.85 534.93 343.85 Q 534.36 343.85 533.46 343.62 M 533.46 343.62 M 534.05 338.64 Q 534.05 339.48 534.42 339.96 Q 534.79 340.45 535.44 340.45 Q 536.05 340.45 536.48 340.03 Q 536.92 339.62 536.92 339.03 Q 536.92 338.11 536.5 337.54 Q 536.08 336.98 535.4 336.98 Q 534.77 336.98 534.41 337.43 Q 534.05 337.87 534.05 338.64 M 534.05 338.64"/></g><g style="fill: rgb(0,0,0); fill-opacity: 1.0; stroke: none" transform="matrix(1,0,0,1,0,0)" clip-path="url(#94008612489346clip-0)"><path d="M 551.19 343.67 L 551.19 342.82 Q 551.61 341.84 552.89 340.68 L 553.44 340.19 Q 554.51 339.23 554.51 338.28 Q 554.51 337.68 554.14 337.33 Q 553.78 336.98 553.14 336.98 Q 552.39 336.98 551.37 337.56 L 551.37 336.71 Q 552.33 336.26 553.28 336.26 Q 554.3 336.26 554.91 336.81 Q 555.53 337.35 555.53 338.26 Q 555.53 338.91 555.22 339.41 Q 554.91 339.91 554.06 340.63 L 553.69 340.95 Q 552.53 341.93 552.35 342.82 L 555.49 342.82 L 555.49 343.67 M 551.19 343.67 M 559.49 343.85 Q 558.38 343.85 557.69 342.8 Q 556.99 341.74 556.99 340.05 Q 556.99 338.34 557.69 337.3 Q 558.39 336.26 559.52 336.26 Q 560.66 336.26 561.36 337.3 Q 562.05 338.34 562.05 340.04 Q 562.05 341.77 561.36 342.81 Q 560.66 343.85 559.49 343.85 M 559.49 343.85 M 559.5 343.13 Q 561.03 343.13 561.03 340.02 Q 561.03 336.98 559.52 336.98 Q 558.02 336.98 558.02 340.05 Q 558.02 343.13 559.5 343.13 M 559.5 343.13"/></g><g style="fill: rgb(0,0,0); fill-opacity: 1.0; stroke: none" transform="matrix(1,0,0,1,0,0)" clip-path="url(#94008612489346clip-0)"><path d="M 314.68 364.38 L 314.68 356.63 L 311.61 356.63 L 311.61 355.71 L 318.99 355.71 L 318.99 356.63 L 315.91 356.63 L 315.91 364.38 M 314.68 364.38 M 324.63 364.38 L 324.63 363.18 Q 323.71 364.53 322.4 364.53 Q 321.57 364.53 321.08 364 Q 320.58 363.48 320.58 362.59 L 320.58 358.02 L 321.74 358.02 L 321.74 362.21 Q 321.74 362.93 321.95 363.23 Q 322.15 363.53 322.64 363.53 Q 323.7 363.53 324.63 362.14 L 324.63 358.02 L 325.79 358.02 L 325.79 364.38 M 324.63 364.38 M 328.65 366.69 L 328.65 358.02 L 329.81 358.02 L 329.81 359.21 Q 330.52 357.88 331.94 357.88 Q 333.08 357.88 333.74 358.71 Q 334.4 359.55 334.4 361 Q 334.4 362.59 333.66 363.56 Q 332.91 364.53 331.69 364.53 Q 330.56 364.53 329.81 363.66 L 329.81 366.69 M 328.65 366.69 M 329.81 362.86 Q 330.7 363.66 331.51 363.66 Q 333.17 363.66 333.17 361.12 Q 333.17 358.88 331.7 358.88 Q 330.73 358.88 329.81 359.93 M 329.81 362.86 M 341.32 364.17 Q 340.16 364.53 339.33 364.53 Q 337.93 364.53 337.04 363.59 Q 336.15 362.66 336.15 361.17 Q 336.15 359.72 336.93 358.79 Q 337.71 357.87 338.93 357.87 Q 340.09 357.87 340.72 358.69 Q 341.35 359.51 341.35 361.02 L 341.34 361.38 L 337.33 361.38 Q 337.58 363.65 339.55 363.65 Q 340.27 363.65 341.32 363.26 M 341.32 364.17 M 337.38 360.51 L 340.19 360.51 Q 340.19 358.74 338.86 358.74 Q 337.53 358.74 337.38 360.51 M 337.38 360.51 M 343.65 364.38 L 343.65 355.13 L 344.81 355.13 L 344.81 364.38 M 343.65 364.38"/></g><line x1="64" y1="23" x2="64" y2="328" style="stroke-width: 1.0;stroke: rgb(128,128,128);stroke-opacity: 1.0;" transform="matrix(1,0,0,1,0,0)" clip-path="url(#94008612489346clip-0)"/><g style="fill: rgb(0,0,0); fill-opacity: 1.0; stroke: none" transform="matrix(1,0,0,1,0,0)" clip-path="url(#94008612489346clip-0)"><path d="M 34.13 331.96 Q 33.02 331.96 32.33 330.91 Q 31.63 329.86 31.63 328.16 Q 31.63 326.45 32.33 325.41 Q 33.03 324.37 34.16 324.37 Q 35.3 324.37 36 325.41 Q 36.69 326.45 36.69 328.15 Q 36.69 329.88 36 330.92 Q 35.3 331.96 34.13 331.96 M 34.13 331.96 M 34.14 331.24 Q 35.67 331.24 35.67 328.13 Q 35.67 325.09 34.16 325.09 Q 32.66 325.09 32.66 328.16 Q 32.66 331.24 34.14 331.24 M 34.14 331.24 M 37.98 331.78 L 37.98 330.57 L 39.18 330.57 L 39.18 331.78 M 37.98 331.78 M 43.13 331.96 Q 42.02 331.96 41.33 330.91 Q 40.63 329.86 40.63 328.16 Q 40.63 326.45 41.33 325.41 Q 42.03 324.37 43.16 324.37 Q 44.3 324.37 45 325.41 Q 45.69 326.45 45.69 328.15 Q 45.69 329.88 45 330.92 Q 44.3 331.96 43.13 331.96 M 43.13 331.96 M 43.14 331.24 Q 44.67 331.24 44.67 328.13 Q 44.67 325.09 43.16 325.09 Q 41.66 325.09 41.66 328.16 Q 41.66 331.24 43.14 331.24 M 43.14 331.24 M 49.13 331.96 Q 48.02 331.96 47.33 330.91 Q 46.63 329.86 46.63 328.16 Q 46.63 326.45 47.33 325.41 Q 48.03 324.37 49.16 324.37 Q 50.3 324.37 51 325.41 Q 51.69 326.45 51.69 328.15 Q 51.69 329.88 51 330.92 Q 50.3 331.96 49.13 331.96 M 49.13 331.96 M 49.14 331.24 Q 50.67 331.24 50.67 328.13 Q 50.67 325.09 49.16 325.09 Q 47.66 325.09 47.66 328.16 Q 47.66 331.24 49.14 331.24 M 49.14 331.24 M 55.13 331.96 Q 54.02 331.96 53.33 330.91 Q 52.63 329.86 52.63 328.16 Q 52.63 326.45 53.33 325.41 Q 54.03 324.37 55.16 324.37 Q 56.3 324.37 57 325.41 Q 57.69 326.45 57.69 328.15 Q 57.69 329.88 57 330.92 Q 56.3 331.96 55.13 331.96 M 55.13 331.96 M 55.14 331.24 Q 56.67 331.24 56.67 328.13 Q 56.67 325.09 55.16 325.09 Q 53.66 325.09 53.66 328.16 Q 53.66 331.24 55.14 331.24 M 55.14 331.24"/></g><line x1="62" y1="328" x2="64" y2="328" style="stroke-width: 1.0;stroke: rgb(128,128,128);stroke-opacity: 1.0;" transform="matrix(1,0,0,1,0,0)" clip-path="url(#94008612489346clip-0)"/><g style="fill: rgb(0,0,0); fill-opacity: 1.0; stroke: none" transform="matrix(1,0,0,1,0,0)" clip-path="url(#94008612489346clip-0)"><path d="M 34.13 307.92 Q 33.02 307.92 32.33 306.86 Q 31.63 305.81 31.63 304.12 Q 31.63 302.41 32.33 301.37 Q 33.03 300.33 34.16 300.33 Q 35.3 300.33 36 301.37 Q 36.69 302.41 36.69 304.1 Q 36.69 305.84 36 306.88 Q 35.3 307.92 34.13 307.92 M 34.13 307.92 M 34.14 307.19 Q 35.67 307.19 35.67 304.09 Q 35.67 301.05 34.16 301.05 Q 32.66 301.05 32.66 304.12 Q 32.66 307.19 34.14 307.19 M 34.14 307.19 M 37.98 307.74 L 37.98 306.53 L 39.18 306.53 L 39.18 307.74 M 37.98 307.74 M 43.13 307.92 Q 42.02 307.92 41.33 306.86 Q 40.63 305.81 40.63 304.12 Q 40.63 302.41 41.33 301.37 Q 42.03 300.33 43.16 300.33 Q 44.3 300.33 45 301.37 Q 45.69 302.41 45.69 304.1 Q 45.69 305.84 45 306.88 Q 44.3 307.92 43.13 307.92 M 43.13 307.92 M 43.14 307.19 Q 44.67 307.19 44.67 304.09 Q 44.67 301.05 43.16 301.05 Q 41.66 301.05 41.66 304.12 Q 41.66 307.19 43.14 307.19 M 43.14 307.19 M 46.83 307.74 L 46.83 306.89 Q 47.25 305.91 48.53 304.75 L 49.08 304.26 Q 50.15 303.3 50.15 302.35 Q 50.15 301.74 49.78 301.4 Q 49.42 301.05 48.78 301.05 Q 48.03 301.05 47.01 301.63 L 47.01 300.78 Q 47.97 300.33 48.92 300.33 Q 49.94 300.33 50.55 300.87 Q 51.17 301.42 51.17 302.32 Q 51.17 302.97 50.86 303.48 Q 50.55 303.98 49.7 304.7 L 49.33 305.02 Q 48.17 306 47.99 306.89 L 51.13 306.89 L 51.13 307.74 M 46.83 307.74 M 53.22 307.76 L 53.22 306.91 Q 53.93 307.19 54.58 307.19 Q 55.3 307.19 55.7 306.77 Q 56.11 306.35 56.11 305.62 Q 56.11 303.99 53.87 303.99 Q 53.62 303.99 53.34 304.02 L 53.34 300.51 L 57 300.51 L 57 301.35 L 54.18 301.35 L 54.18 303.25 Q 55.57 303.25 56.36 303.89 Q 57.14 304.53 57.14 305.66 Q 57.14 306.72 56.43 307.32 Q 55.72 307.92 54.46 307.92 Q 53.91 307.92 53.22 307.76 M 53.22 307.76"/></g><line x1="62" y1="303.96" x2="64" y2="303.96" style="stroke-width: 1.0;stroke: rgb(128,128,128);stroke-opacity: 1.0;" transform="matrix(1,0,0,1,0,0)" clip-path="url(#94008612489346clip-0)"/><g style="fill: rgb(0,0,0); fill-opacity: 1.0; stroke: none" transform="matrix(1,0,0,1,0,0)" clip-path="url(#94008612489346clip-0)"><path d="M 34.13 283.87 Q 33.02 283.87 32.33 282.82 Q 31.63 281.77 31.63 280.07 Q 31.63 278.36 32.33 277.32 Q 33.03 276.28 34.16 276.28 Q 35.3 276.28 36 277.32 Q 36.69 278.36 36.69 280.06 Q 36.69 281.8 36 282.83 Q 35.3 283.87 34.13 283.87 M 34.13 283.87 M 34.14 283.15 Q 35.67 283.15 35.67 280.04 Q 35.67 277.01 34.16 277.01 Q 32.66 277.01 32.66 280.07 Q 32.66 283.15 34.14 283.15 M 34.14 283.15 M 37.98 283.69 L 37.98 282.48 L 39.18 282.48 L 39.18 283.69 M 37.98 283.69 M 43.13 283.87 Q 42.02 283.87 41.33 282.82 Q 40.63 281.77 40.63 280.07 Q 40.63 278.36 41.33 277.32 Q 42.03 276.28 43.16 276.28 Q 44.3 276.28 45 277.32 Q 45.69 278.36 45.69 280.06 Q 45.69 281.8 45 282.83 Q 44.3 283.87 43.13 283.87 M 43.13 283.87 M 43.14 283.15 Q 44.67 283.15 44.67 280.04 Q 44.67 277.01 43.16 277.01 Q 41.66 277.01 41.66 280.07 Q 41.66 283.15 43.14 283.15 M 43.14 283.15 M 47.22 283.72 L 47.22 282.86 Q 47.93 283.15 48.58 283.15 Q 49.3 283.15 49.7 282.73 Q 50.11 282.31 50.11 281.57 Q 50.11 279.95 47.87 279.95 Q 47.62 279.95 47.34 279.98 L 47.34 276.46 L 51 276.46 L 51 277.3 L 48.18 277.3 L 48.18 279.21 Q 49.57 279.21 50.36 279.85 Q 51.14 280.49 51.14 281.62 Q 51.14 282.68 50.43 283.27 Q 49.72 283.87 48.46 283.87 Q 47.91 283.87 47.22 283.72 M 47.22 283.72 M 55.13 283.87 Q 54.02 283.87 53.33 282.82 Q 52.63 281.77 52.63 280.07 Q 52.63 278.36 53.33 277.32 Q 54.03 276.28 55.16 276.28 Q 56.3 276.28 57 277.32 Q 57.69 278.36 57.69 280.06 Q 57.69 281.8 57 282.83 Q 56.3 283.87 55.13 283.87 M 55.13 283.87 M 55.14 283.15 Q 56.67 283.15 56.67 280.04 Q 56.67 277.01 55.16 277.01 Q 53.66 277.01 53.66 280.07 Q 53.66 283.15 55.14 283.15 M 55.14 283.15"/></g><line x1="62" y1="279.91" x2="64" y2="279.91" style="stroke-width: 1.0;stroke: rgb(128,128,128);stroke-opacity: 1.0;" transform="matrix(1,0,0,1,0,0)" clip-path="url(#94008612489346clip-0)"/><g style="fill: rgb(0,0,0); fill-opacity: 1.0; stroke: none" transform="matrix(1,0,0,1,0,0)" clip-path="url(#94008612489346clip-0)"><path d="M 34.13 259.83 Q 33.02 259.83 32.33 258.78 Q 31.63 257.72 31.63 256.03 Q 31.63 254.32 32.33 253.28 Q 33.03 252.24 34.16 252.24 Q 35.3 252.24 36 253.28 Q 36.69 254.32 36.69 256.01 Q 36.69 257.75 36 258.79 Q 35.3 259.83 34.13 259.83 M 34.13 259.83 M 34.14 259.1 Q 35.67 259.1 35.67 256 Q 35.67 252.96 34.16 252.96 Q 32.66 252.96 32.66 256.03 Q 32.66 259.1 34.14 259.1 M 34.14 259.1 M 37.98 259.65 L 37.98 258.44 L 39.18 258.44 L 39.18 259.65 M 37.98 259.65 M 43.13 259.83 Q 42.02 259.83 41.33 258.78 Q 40.63 257.72 40.63 256.03 Q 40.63 254.32 41.33 253.28 Q 42.03 252.24 43.16 252.24 Q 44.3 252.24 45 253.28 Q 45.69 254.32 45.69 256.01 Q 45.69 257.75 45 258.79 Q 44.3 259.83 43.13 259.83 M 43.13 259.83 M 43.14 259.1 Q 44.67 259.1 44.67 256 Q 44.67 252.96 43.16 252.96 Q 41.66 252.96 41.66 256.03 Q 41.66 259.1 43.14 259.1 M 43.14 259.1 M 47.5 259.65 Q 47.65 258.8 47.91 258.19 Q 48.17 257.57 48.83 256.5 L 50.8 253.32 L 47.08 253.32 L 47.08 252.42 L 51.72 252.42 L 51.72 253.32 Q 48.94 257.42 48.61 259.65 M 47.5 259.65 M 53.22 259.68 L 53.22 258.82 Q 53.93 259.1 54.58 259.1 Q 55.3 259.1 55.7 258.68 Q 56.11 258.26 56.11 257.53 Q 56.11 255.9 53.87 255.9 Q 53.62 255.9 53.34 255.94 L 53.34 252.42 L 57 252.42 L 57 253.26 L 54.18 253.26 L 54.18 255.16 Q 55.57 255.16 56.36 255.8 Q 57.14 256.44 57.14 257.58 Q 57.14 258.63 56.43 259.23 Q 55.72 259.83 54.46 259.83 Q 53.91 259.83 53.22 259.68 M 53.22 259.68"/></g><line x1="62" y1="255.87" x2="64" y2="255.87" style="stroke-width: 1.0;stroke: rgb(128,128,128);stroke-opacity: 1.0;" transform="matrix(1,0,0,1,0,0)" clip-path="url(#94008612489346clip-0)"/><g style="fill: rgb(0,0,0); fill-opacity: 1.0; stroke: none" transform="matrix(1,0,0,1,0,0)" clip-path="url(#94008612489346clip-0)"><path d="M 34.13 235.78 Q 33.02 235.78 32.33 234.73 Q 31.63 233.68 31.63 231.98 Q 31.63 230.28 32.33 229.24 Q 33.03 228.2 34.16 228.2 Q 35.3 228.2 36 229.24 Q 36.69 230.28 36.69 231.97 Q 36.69 233.71 36 234.75 Q 35.3 235.78 34.13 235.78 M 34.13 235.78 M 34.14 235.06 Q 35.67 235.06 35.67 231.96 Q 35.67 228.92 34.16 228.92 Q 32.66 228.92 32.66 231.98 Q 32.66 235.06 34.14 235.06 M 34.14 235.06 M 37.98 235.6 L 37.98 234.4 L 39.18 234.4 L 39.18 235.6 M 37.98 235.6 M 41.5 235.6 L 41.5 234.88 L 42.95 234.88 L 42.95 229.18 L 41.5 229.54 L 41.5 228.8 L 43.92 228.2 L 43.92 234.88 L 45.36 234.88 L 45.36 235.6 M 41.5 235.6 M 49.13 235.78 Q 48.02 235.78 47.33 234.73 Q 46.63 233.68 46.63 231.98 Q 46.63 230.28 47.33 229.24 Q 48.03 228.2 49.16 228.2 Q 50.3 228.2 51 229.24 Q 51.69 230.28 51.69 231.97 Q 51.69 233.71 51 234.75 Q 50.3 235.78 49.13 235.78 M 49.13 235.78 M 49.14 235.06 Q 50.67 235.06 50.67 231.96 Q 50.67 228.92 49.16 228.92 Q 47.66 228.92 47.66 231.98 Q 47.66 235.06 49.14 235.06 M 49.14 235.06 M 55.13 235.78 Q 54.02 235.78 53.33 234.73 Q 52.63 233.68 52.63 231.98 Q 52.63 230.28 53.33 229.24 Q 54.03 228.2 55.16 228.2 Q 56.3 228.2 57 229.24 Q 57.69 230.28 57.69 231.97 Q 57.69 233.71 57 234.75 Q 56.3 235.78 55.13 235.78 M 55.13 235.78 M 55.14 235.06 Q 56.67 235.06 56.67 231.96 Q 56.67 228.92 55.16 228.92 Q 53.66 228.92 53.66 231.98 Q 53.66 235.06 55.14 235.06 M 55.14 235.06"/></g><line x1="62" y1="231.82" x2="64" y2="231.82" style="stroke-width: 1.0;stroke: rgb(128,128,128);stroke-opacity: 1.0;" transform="matrix(1,0,0,1,0,0)" clip-path="url(#94008612489346clip-0)"/><g style="fill: rgb(0,0,0); fill-opacity: 1.0; stroke: none" transform="matrix(1,0,0,1,0,0)" clip-path="url(#94008612489346clip-0)"><path d="M 34.13 211.74 Q 33.02 211.74 32.33 210.69 Q 31.63 209.63 31.63 207.94 Q 31.63 206.23 32.33 205.19 Q 33.03 204.15 34.16 204.15 Q 35.3 204.15 36 205.19 Q 36.69 206.23 36.69 207.93 Q 36.69 209.66 36 210.7 Q 35.3 211.74 34.13 211.74 M 34.13 211.74 M 34.14 211.02 Q 35.67 211.02 35.67 207.91 Q 35.67 204.87 34.16 204.87 Q 32.66 204.87 32.66 207.94 Q 32.66 211.02 34.14 211.02 M 34.14 211.02 M 37.98 211.56 L 37.98 210.35 L 39.18 210.35 L 39.18 211.56 M 37.98 211.56 M 41.5 211.56 L 41.5 210.84 L 42.95 210.84 L 42.95 205.13 L 41.5 205.49 L 41.5 204.75 L 43.92 204.15 L 43.92 210.84 L 45.36 210.84 L 45.36 211.56 M 41.5 211.56 M 46.83 211.56 L 46.83 210.71 Q 47.25 209.73 48.53 208.57 L 49.08 208.08 Q 50.15 207.12 50.15 206.17 Q 50.15 205.57 49.78 205.22 Q 49.42 204.87 48.78 204.87 Q 48.03 204.87 47.01 205.45 L 47.01 204.61 Q 47.97 204.15 48.92 204.15 Q 49.94 204.15 50.55 204.7 Q 51.17 205.24 51.17 206.15 Q 51.17 206.8 50.86 207.3 Q 50.55 207.8 49.7 208.52 L 49.33 208.84 Q 48.17 209.82 47.99 210.71 L 51.13 210.71 L 51.13 211.56 M 46.83 211.56 M 53.22 211.59 L 53.22 210.73 Q 53.93 211.02 54.58 211.02 Q 55.3 211.02 55.7 210.6 Q 56.11 210.18 56.11 209.44 Q 56.11 207.81 53.87 207.81 Q 53.62 207.81 53.34 207.85 L 53.34 204.33 L 57 204.33 L 57 205.17 L 54.18 205.17 L 54.18 207.08 Q 55.57 207.08 56.36 207.72 Q 57.14 208.36 57.14 209.49 Q 57.14 210.54 56.43 211.14 Q 55.72 211.74 54.46 211.74 Q 53.91 211.74 53.22 211.59 M 53.22 211.59"/></g><line x1="62" y1="207.78" x2="64" y2="207.78" style="stroke-width: 1.0;stroke: rgb(128,128,128);stroke-opacity: 1.0;" transform="matrix(1,0,0,1,0,0)" clip-path="url(#94008612489346clip-0)"/><g style="fill: rgb(0,0,0); fill-opacity: 1.0; stroke: none" transform="matrix(1,0,0,1,0,0)" clip-path="url(#94008612489346clip-0)"><path d="M 34.13 187.69 Q 33.02 187.69 32.33 186.64 Q 31.63 185.59 31.63 183.9 Q 31.63 182.19 32.33 181.15 Q 33.03 180.11 34.16 180.11 Q 35.3 180.11 36 181.15 Q 36.69 182.19 36.69 183.88 Q 36.69 185.62 36 186.66 Q 35.3 187.69 34.13 187.69 M 34.13 187.69 M 34.14 186.97 Q 35.67 186.97 35.67 183.87 Q 35.67 180.83 34.16 180.83 Q 32.66 180.83 32.66 183.9 Q 32.66 186.97 34.14 186.97 M 34.14 186.97 M 37.98 187.51 L 37.98 186.31 L 39.18 186.31 L 39.18 187.51 M 37.98 187.51 M 41.5 187.51 L 41.5 186.79 L 42.95 186.79 L 42.95 181.09 L 41.5 181.45 L 41.5 180.71 L 43.92 180.11 L 43.92 186.79 L 45.36 186.79 L 45.36 187.51 M 41.5 187.51 M 47.22 187.54 L 47.22 186.68 Q 47.93 186.97 48.58 186.97 Q 49.3 186.97 49.7 186.55 Q 50.11 186.13 50.11 185.4 Q 50.11 183.77 47.87 183.77 Q 47.62 183.77 47.34 183.8 L 47.34 180.29 L 51 180.29 L 51 181.13 L 48.18 181.13 L 48.18 183.03 Q 49.57 183.03 50.36 183.67 Q 51.14 184.31 51.14 185.44 Q 51.14 186.5 50.43 187.1 Q 49.72 187.69 48.46 187.69 Q 47.91 187.69 47.22 187.54 M 47.22 187.54 M 55.13 187.69 Q 54.02 187.69 53.33 186.64 Q 52.63 185.59 52.63 183.9 Q 52.63 182.19 53.33 181.15 Q 54.03 180.11 55.16 180.11 Q 56.3 180.11 57 181.15 Q 57.69 182.19 57.69 183.88 Q 57.69 185.62 57 186.66 Q 56.3 187.69 55.13 187.69 M 55.13 187.69 M 55.14 186.97 Q 56.67 186.97 56.67 183.87 Q 56.67 180.83 55.16 180.83 Q 53.66 180.83 53.66 183.9 Q 53.66 186.97 55.14 186.97 M 55.14 186.97"/></g><line x1="62" y1="183.73" x2="64" y2="183.73" style="stroke-width: 1.0;stroke: rgb(128,128,128);stroke-opacity: 1.0;" transform="matrix(1,0,0,1,0,0)" clip-path="url(#94008612489346clip-0)"/><g style="fill: rgb(0,0,0); fill-opacity: 1.0; stroke: none" transform="matrix(1,0,0,1,0,0)" clip-path="url(#94008612489346clip-0)"><path d="M 34.13 163.65 Q 33.02 163.65 32.33 162.6 Q 31.63 161.55 31.63 159.85 Q 31.63 158.14 32.33 157.1 Q 33.03 156.06 34.16 156.06 Q 35.3 156.06 36 157.1 Q 36.69 158.14 36.69 159.84 Q 36.69 161.58 36 162.61 Q 35.3 163.65 34.13 163.65 M 34.13 163.65 M 34.14 162.93 Q 35.67 162.93 35.67 159.82 Q 35.67 156.79 34.16 156.79 Q 32.66 156.79 32.66 159.85 Q 32.66 162.93 34.14 162.93 M 34.14 162.93 M 37.98 163.47 L 37.98 162.26 L 39.18 162.26 L 39.18 163.47 M 37.98 163.47 M 41.5 163.47 L 41.5 162.75 L 42.95 162.75 L 42.95 157.04 L 41.5 157.41 L 41.5 156.66 L 43.92 156.06 L 43.92 162.75 L 45.36 162.75 L 45.36 163.47 M 41.5 163.47 M 47.5 163.47 Q 47.65 162.63 47.91 162.01 Q 48.17 161.39 48.83 160.32 L 50.8 157.15 L 47.08 157.15 L 47.08 156.24 L 51.72 156.24 L 51.72 157.15 Q 48.94 161.24 48.61 163.47 M 47.5 163.47 M 53.22 163.5 L 53.22 162.64 Q 53.93 162.93 54.58 162.93 Q 55.3 162.93 55.7 162.51 Q 56.11 162.09 56.11 161.35 Q 56.11 159.72 53.87 159.72 Q 53.62 159.72 53.34 159.76 L 53.34 156.24 L 57 156.24 L 57 157.08 L 54.18 157.08 L 54.18 158.99 Q 55.57 158.99 56.36 159.63 Q 57.14 160.27 57.14 161.4 Q 57.14 162.45 56.43 163.05 Q 55.72 163.65 54.46 163.65 Q 53.91 163.65 53.22 163.5 M 53.22 163.5"/></g><line x1="62" y1="159.69" x2="64" y2="159.69" style="stroke-width: 1.0;stroke: rgb(128,128,128);stroke-opacity: 1.0;" transform="matrix(1,0,0,1,0,0)" clip-path="url(#94008612489346clip-0)"/><g style="fill: rgb(0,0,0); fill-opacity: 1.0; stroke: none" transform="matrix(1,0,0,1,0,0)" clip-path="url(#94008612489346clip-0)"><path d="M 34.13 139.61 Q 33.02 139.61 32.33 138.55 Q 31.63 137.5 31.63 135.81 Q 31.63 134.1 32.33 133.06 Q 33.03 132.02 34.16 132.02 Q 35.3 132.02 36 133.06 Q 36.69 134.1 36.69 135.79 Q 36.69 137.53 36 138.57 Q 35.3 139.61 34.13 139.61 M 34.13 139.61 M 34.14 138.88 Q 35.67 138.88 35.67 135.78 Q 35.67 132.74 34.16 132.74 Q 32.66 132.74 32.66 135.81 Q 32.66 138.88 34.14 138.88 M 34.14 138.88 M 37.98 139.43 L 37.98 138.22 L 39.18 138.22 L 39.18 139.43 M 37.98 139.43 M 40.83 139.43 L 40.83 138.58 Q 41.25 137.6 42.53 136.44 L 43.08 135.95 Q 44.15 134.99 44.15 134.04 Q 44.15 133.43 43.78 133.09 Q 43.42 132.74 42.78 132.74 Q 42.03 132.74 41.01 133.32 L 41.01 132.47 Q 41.97 132.02 42.92 132.02 Q 43.94 132.02 44.55 132.57 Q 45.17 133.11 45.17 134.02 Q 45.17 134.67 44.86 135.17 Q 44.55 135.67 43.7 136.39 L 43.33 136.71 Q 42.17 137.69 41.99 138.58 L 45.13 138.58 L 45.13 139.43 M 40.83 139.43 M 49.13 139.61 Q 48.02 139.61 47.33 138.55 Q 46.63 137.5 46.63 135.81 Q 46.63 134.1 47.33 133.06 Q 48.03 132.02 49.16 132.02 Q 50.3 132.02 51 133.06 Q 51.69 134.1 51.69 135.79 Q 51.69 137.53 51 138.57 Q 50.3 139.61 49.13 139.61 M 49.13 139.61 M 49.14 138.88 Q 50.67 138.88 50.67 135.78 Q 50.67 132.74 49.16 132.74 Q 47.66 132.74 47.66 135.81 Q 47.66 138.88 49.14 138.88 M 49.14 138.88 M 55.13 139.61 Q 54.02 139.61 53.33 138.55 Q 52.63 137.5 52.63 135.81 Q 52.63 134.1 53.33 133.06 Q 54.03 132.02 55.16 132.02 Q 56.3 132.02 57 133.06 Q 57.69 134.1 57.69 135.79 Q 57.69 137.53 57 138.57 Q 56.3 139.61 55.13 139.61 M 55.13 139.61 M 55.14 138.88 Q 56.67 138.88 56.67 135.78 Q 56.67 132.74 55.16 132.74 Q 53.66 132.74 53.66 135.81 Q 53.66 138.88 55.14 138.88 M 55.14 138.88"/></g><line x1="62" y1="135.65" x2="64" y2="135.65" style="stroke-width: 1.0;stroke: rgb(128,128,128);stroke-opacity: 1.0;" transform="matrix(1,0,0,1,0,0)" clip-path="url(#94008612489346clip-0)"/><g style="fill: rgb(0,0,0); fill-opacity: 1.0; stroke: none" transform="matrix(1,0,0,1,0,0)" clip-path="url(#94008612489346clip-0)"><path d="M 34.13 115.56 Q 33.02 115.56 32.33 114.51 Q 31.63 113.46 31.63 111.76 Q 31.63 110.05 32.33 109.01 Q 33.03 107.97 34.16 107.97 Q 35.3 107.97 36 109.01 Q 36.69 110.05 36.69 111.75 Q 36.69 113.49 36 114.52 Q 35.3 115.56 34.13 115.56 M 34.13 115.56 M 34.14 114.84 Q 35.67 114.84 35.67 111.73 Q 35.67 108.7 34.16 108.7 Q 32.66 108.7 32.66 111.76 Q 32.66 114.84 34.14 114.84 M 34.14 114.84 M 37.98 115.38 L 37.98 114.18 L 39.18 114.18 L 39.18 115.38 M 37.98 115.38 M 40.83 115.38 L 40.83 114.54 Q 41.25 113.56 42.53 112.4 L 43.08 111.91 Q 44.15 110.94 44.15 110 Q 44.15 109.39 43.78 109.04 Q 43.42 108.7 42.78 108.7 Q 42.03 108.7 41.01 109.28 L 41.01 108.43 Q 41.97 107.97 42.92 107.97 Q 43.94 107.97 44.55 108.52 Q 45.17 109.07 45.17 109.97 Q 45.17 110.62 44.86 111.12 Q 44.55 111.63 43.7 112.34 L 43.33 112.66 Q 42.17 113.64 41.99 114.54 L 45.13 114.54 L 45.13 115.38 M 40.83 115.38 M 46.83 115.38 L 46.83 114.54 Q 47.25 113.56 48.53 112.4 L 49.08 111.91 Q 50.15 110.94 50.15 110 Q 50.15 109.39 49.78 109.04 Q 49.42 108.7 48.78 108.7 Q 48.03 108.7 47.01 109.28 L 47.01 108.43 Q 47.97 107.97 48.92 107.97 Q 49.94 107.97 50.55 108.52 Q 51.17 109.07 51.17 109.97 Q 51.17 110.62 50.86 111.12 Q 50.55 111.63 49.7 112.34 L 49.33 112.66 Q 48.17 113.64 47.99 114.54 L 51.13 114.54 L 51.13 115.38 M 46.83 115.38 M 53.22 115.41 L 53.22 114.55 Q 53.93 114.84 54.58 114.84 Q 55.3 114.84 55.7 114.42 Q 56.11 114 56.11 113.26 Q 56.11 111.64 53.87 111.64 Q 53.62 111.64 53.34 111.67 L 53.34 108.16 L 57 108.16 L 57 108.99 L 54.18 108.99 L 54.18 110.9 Q 55.57 110.9 56.36 111.54 Q 57.14 112.18 57.14 113.31 Q 57.14 114.37 56.43 114.96 Q 55.72 115.56 54.46 115.56 Q 53.91 115.56 53.22 115.41 M 53.22 115.41"/></g><line x1="62" y1="111.6" x2="64" y2="111.6" style="stroke-width: 1.0;stroke: rgb(128,128,128);stroke-opacity: 1.0;" transform="matrix(1,0,0,1,0,0)" clip-path="url(#94008612489346clip-0)"/><g style="fill: rgb(0,0,0); fill-opacity: 1.0; stroke: none" transform="matrix(1,0,0,1,0,0)" clip-path="url(#94008612489346clip-0)"><path d="M 34.13 91.52 Q 33.02 91.52 32.33 90.47 Q 31.63 89.41 31.63 87.72 Q 31.63 86.01 32.33 84.97 Q 33.03 83.93 34.16 83.93 Q 35.3 83.93 36 84.97 Q 36.69 86.01 36.69 87.7 Q 36.69 89.44 36 90.48 Q 35.3 91.52 34.13 91.52 M 34.13 91.52 M 34.14 90.8 Q 35.67 90.8 35.67 87.69 Q 35.67 84.65 34.16 84.65 Q 32.66 84.65 32.66 87.72 Q 32.66 90.8 34.14 90.8 M 34.14 90.8 M 37.98 91.34 L 37.98 90.13 L 39.18 90.13 L 39.18 91.34 M 37.98 91.34 M 40.83 91.34 L 40.83 90.49 Q 41.25 89.51 42.53 88.35 L 43.08 87.86 Q 44.15 86.9 44.15 85.95 Q 44.15 85.35 43.78 85 Q 43.42 84.65 42.78 84.65 Q 42.03 84.65 41.01 85.23 L 41.01 84.38 Q 41.97 83.93 42.92 83.93 Q 43.94 83.93 44.55 84.48 Q 45.17 85.02 45.17 85.93 Q 45.17 86.58 44.86 87.08 Q 44.55 87.58 43.7 88.3 L 43.33 88.62 Q 42.17 89.6 41.99 90.49 L 45.13 90.49 L 45.13 91.34 M 40.83 91.34 M 47.22 91.37 L 47.22 90.51 Q 47.93 90.8 48.58 90.8 Q 49.3 90.8 49.7 90.38 Q 50.11 89.96 50.11 89.22 Q 50.11 87.59 47.87 87.59 Q 47.62 87.59 47.34 87.63 L 47.34 84.11 L 51 84.11 L 51 84.95 L 48.18 84.95 L 48.18 86.85 Q 49.57 86.85 50.36 87.49 Q 51.14 88.13 51.14 89.27 Q 51.14 90.32 50.43 90.92 Q 49.72 91.52 48.46 91.52 Q 47.91 91.52 47.22 91.37 M 47.22 91.37 M 55.13 91.52 Q 54.02 91.52 53.33 90.47 Q 52.63 89.41 52.63 87.72 Q 52.63 86.01 53.33 84.97 Q 54.03 83.93 55.16 83.93 Q 56.3 83.93 57 84.97 Q 57.69 86.01 57.69 87.7 Q 57.69 89.44 57 90.48 Q 56.3 91.52 55.13 91.52 M 55.13 91.52 M 55.14 90.8 Q 56.67 90.8 56.67 87.69 Q 56.67 84.65 55.16 84.65 Q 53.66 84.65 53.66 87.72 Q 53.66 90.8 55.14 90.8 M 55.14 90.8"/></g><line x1="62" y1="87.56" x2="64" y2="87.56" style="stroke-width: 1.0;stroke: rgb(128,128,128);stroke-opacity: 1.0;" transform="matrix(1,0,0,1,0,0)" clip-path="url(#94008612489346clip-0)"/><g style="fill: rgb(0,0,0); fill-opacity: 1.0; stroke: none" transform="matrix(1,0,0,1,0,0)" clip-path="url(#94008612489346clip-0)"><path d="M 34.13 67.47 Q 33.02 67.47 32.33 66.42 Q 31.63 65.37 31.63 63.68 Q 31.63 61.97 32.33 60.93 Q 33.03 59.89 34.16 59.89 Q 35.3 59.89 36 60.93 Q 36.69 61.97 36.69 63.66 Q 36.69 65.4 36 66.44 Q 35.3 67.47 34.13 67.47 M 34.13 67.47 M 34.14 66.75 Q 35.67 66.75 35.67 63.65 Q 35.67 60.61 34.16 60.61 Q 32.66 60.61 32.66 63.68 Q 32.66 66.75 34.14 66.75 M 34.14 66.75 M 37.98 67.29 L 37.98 66.09 L 39.18 66.09 L 39.18 67.29 M 37.98 67.29 M 40.83 67.29 L 40.83 66.45 Q 41.25 65.47 42.53 64.31 L 43.08 63.82 Q 44.15 62.85 44.15 61.91 Q 44.15 61.3 43.78 60.96 Q 43.42 60.61 42.78 60.61 Q 42.03 60.61 41.01 61.19 L 41.01 60.34 Q 41.97 59.89 42.92 59.89 Q 43.94 59.89 44.55 60.43 Q 45.17 60.98 45.17 61.88 Q 45.17 62.53 44.86 63.04 Q 44.55 63.54 43.7 64.26 L 43.33 64.57 Q 42.17 65.55 41.99 66.45 L 45.13 66.45 L 45.13 67.29 M 40.83 67.29 M 47.5 67.29 Q 47.65 66.45 47.91 65.83 Q 48.17 65.22 48.83 64.14 L 50.8 60.97 L 47.08 60.97 L 47.08 60.07 L 51.72 60.07 L 51.72 60.97 Q 48.94 65.07 48.61 67.29 M 47.5 67.29 M 53.22 67.32 L 53.22 66.46 Q 53.93 66.75 54.58 66.75 Q 55.3 66.75 55.7 66.33 Q 56.11 65.91 56.11 65.17 Q 56.11 63.55 53.87 63.55 Q 53.62 63.55 53.34 63.58 L 53.34 60.07 L 57 60.07 L 57 60.91 L 54.18 60.91 L 54.18 62.81 Q 55.57 62.81 56.36 63.45 Q 57.14 64.09 57.14 65.22 Q 57.14 66.28 56.43 66.88 Q 55.72 67.47 54.46 67.47 Q 53.91 67.47 53.22 67.32 M 53.22 67.32"/></g><line x1="62" y1="63.51" x2="64" y2="63.51" style="stroke-width: 1.0;stroke: rgb(128,128,128);stroke-opacity: 1.0;" transform="matrix(1,0,0,1,0,0)" clip-path="url(#94008612489346clip-0)"/><g style="fill: rgb(0,0,0); fill-opacity: 1.0; stroke: none" transform="matrix(1,0,0,1,0,0)" clip-path="url(#94008612489346clip-0)"><path d="M 34.13 43.43 Q 33.02 43.43 32.33 42.38 Q 31.63 41.33 31.63 39.63 Q 31.63 37.92 32.33 36.88 Q 33.03 35.84 34.16 35.84 Q 35.3 35.84 36 36.88 Q 36.69 37.92 36.69 39.62 Q 36.69 41.35 36 42.39 Q 35.3 43.43 34.13 43.43 M 34.13 43.43 M 34.14 42.71 Q 35.67 42.71 35.67 39.6 Q 35.67 36.56 34.16 36.56 Q 32.66 36.56 32.66 39.63 Q 32.66 42.71 34.14 42.71 M 34.14 42.71 M 37.98 43.25 L 37.98 42.04 L 39.18 42.04 L 39.18 43.25 M 37.98 43.25 M 41.02 43.2 L 41.02 42.3 Q 42.05 42.71 42.65 42.71 Q 43.33 42.71 43.77 42.3 Q 44.2 41.9 44.2 41.26 Q 44.2 39.74 42.07 39.74 L 41.68 39.74 L 41.68 39.09 L 42.02 39.08 Q 44.02 39.08 44.02 37.67 Q 44.02 36.56 42.71 36.56 Q 41.98 36.56 41.11 36.97 L 41.11 36.13 Q 41.97 35.84 42.77 35.84 Q 44.99 35.84 44.99 37.52 Q 44.99 38.79 43.48 39.33 Q 45.23 39.74 45.23 41.25 Q 45.23 42.27 44.56 42.85 Q 43.88 43.43 42.71 43.43 Q 42.04 43.43 41.02 43.2 M 41.02 43.2 M 49.13 43.43 Q 48.02 43.43 47.33 42.38 Q 46.63 41.33 46.63 39.63 Q 46.63 37.92 47.33 36.88 Q 48.03 35.84 49.16 35.84 Q 50.3 35.84 51 36.88 Q 51.69 37.92 51.69 39.62 Q 51.69 41.35 51 42.39 Q 50.3 43.43 49.13 43.43 M 49.13 43.43 M 49.14 42.71 Q 50.67 42.71 50.67 39.6 Q 50.67 36.56 49.16 36.56 Q 47.66 36.56 47.66 39.63 Q 47.66 42.71 49.14 42.71 M 49.14 42.71 M 55.13 43.43 Q 54.02 43.43 53.33 42.38 Q 52.63 41.33 52.63 39.63 Q 52.63 37.92 53.33 36.88 Q 54.03 35.84 55.16 35.84 Q 56.3 35.84 57 36.88 Q 57.69 37.92 57.69 39.62 Q 57.69 41.35 57 42.39 Q 56.3 43.43 55.13 43.43 M 55.13 43.43 M 55.14 42.71 Q 56.67 42.71 56.67 39.6 Q 56.67 36.56 55.16 36.56 Q 53.66 36.56 53.66 39.63 Q 53.66 42.71 55.14 42.71 M 55.14 42.71"/></g><line x1="62" y1="39.47" x2="64" y2="39.47" style="stroke-width: 1.0;stroke: rgb(128,128,128);stroke-opacity: 1.0;" transform="matrix(1,0,0,1,0,0)" clip-path="url(#94008612489346clip-0)"/><g style="fill: rgb(0,0,0); fill-opacity: 1.0; stroke: none" transform="matrix(0,-1,1,0,-156.566406,194.433594)" clip-path="url(#94008612489346clip-1)"><path d="M 6.42 180.04 L 3.14 171.36 L 4.38 171.36 L 7.06 178.46 L 9.65 171.36 L 10.73 171.36 L 7.58 180.04 M 6.42 180.04 M 15.37 179.23 Q 14.33 180.18 13.37 180.18 Q 12.58 180.18 12.06 179.69 Q 11.54 179.19 11.54 178.44 Q 11.54 177.39 12.41 176.83 Q 13.29 176.27 14.92 176.27 L 15.2 176.27 L 15.2 175.51 Q 15.2 174.4 14.06 174.4 Q 13.15 174.4 12.09 174.96 L 12.09 174.01 Q 13.25 173.53 14.27 173.53 Q 15.34 173.53 15.85 174.01 Q 16.35 174.49 16.35 175.51 L 16.35 178.39 Q 16.35 179.38 16.96 179.38 Q 17.04 179.38 17.19 179.36 L 17.27 179.99 Q 16.88 180.18 16.4 180.18 Q 15.59 180.18 15.37 179.23 M 15.37 179.23 M 15.2 178.6 L 15.2 176.95 L 14.81 176.94 Q 13.86 176.94 13.28 177.3 Q 12.69 177.66 12.69 178.25 Q 12.69 178.66 12.98 178.95 Q 13.28 179.24 13.7 179.24 Q 14.42 179.24 15.2 178.6 M 15.2 178.6 M 19.09 180.04 L 19.09 170.78 L 20.24 170.78 L 20.24 180.04 M 19.09 180.04 M 27.07 180.04 L 27.07 178.84 Q 26.15 180.18 24.83 180.18 Q 24 180.18 23.51 179.66 Q 23.02 179.13 23.02 178.24 L 23.02 173.67 L 24.17 173.67 L 24.17 177.87 Q 24.17 178.58 24.38 178.88 Q 24.59 179.19 25.07 179.19 Q 26.13 179.19 27.07 177.8 L 27.07 173.67 L 28.22 173.67 L 28.22 180.04 M 27.07 180.04 M 35.75 179.83 Q 34.59 180.18 33.77 180.18 Q 32.36 180.18 31.47 179.25 Q 30.58 178.31 30.58 176.82 Q 30.58 175.38 31.37 174.45 Q 32.15 173.53 33.37 173.53 Q 34.52 173.53 35.15 174.35 Q 35.78 175.17 35.78 176.68 L 35.78 177.04 L 31.76 177.04 Q 32.01 179.3 33.98 179.3 Q 34.7 179.3 35.75 178.92 M 35.75 179.83 M 31.81 176.17 L 34.62 176.17 Q 34.62 174.39 33.3 174.39 Q 31.97 174.39 31.81 176.17 M 31.81 176.17"/></g><line x1="64" y1="328" x2="592" y2="328" style="stroke-width: 0.5;stroke: rgb(192,192,192);stroke-opacity: 1.0;stroke-dasharray: 2.0, 2.0;" transform="matrix(1,0,0,1,0,0)" clip-path="url(#94008612489346clip-2)"/><line x1="64" y1="303.96" x2="592" y2="303.96" style="stroke-width: 0.5;stroke: rgb(192,192,192);stroke-opacity: 1.0;stroke-dasharray: 2.0, 2.0;" transform="matrix(1,0,0,1,0,0)" clip-path="url(#94008612489346clip-2)"/><line x1="64" y1="279.91" x2="592" y2="279.91" style="stroke-width: 0.5;stroke: rgb(192,192,192);stroke-opacity: 1.0;stroke-dasharray: 2.0, 2.0;" transform="matrix(1,0,0,1,0,0)" clip-path="url(#94008612489346clip-2)"/><line x1="64" y1="255.87" x2="592" y2="255.87" style="stroke-width: 0.5;stroke: rgb(192,192,192);stroke-opacity: 1.0;stroke-dasharray: 2.0, 2.0;" transform="matrix(1,0,0,1,0,0)" clip-path="url(#94008612489346clip-2)"/><line x1="64" y1="231.82" x2="592" y2="231.82" style="stroke-width: 0.5;stroke: rgb(192,192,192);stroke-opacity: 1.0;stroke-dasharray: 2.0, 2.0;" transform="matrix(1,0,0,1,0,0)" clip-path="url(#94008612489346clip-2)"/><line x1="64" y1="207.78" x2="592" y2="207.78" style="stroke-width: 0.5;stroke: rgb(192,192,192);stroke-opacity: 1.0;stroke-dasharray: 2.0, 2.0;" transform="matrix(1,0,0,1,0,0)" clip-path="url(#94008612489346clip-2)"/><line x1="64" y1="183.73" x2="592" y2="183.73" style="stroke-width: 0.5;stroke: rgb(192,192,192);stroke-opacity: 1.0;stroke-dasharray: 2.0, 2.0;" transform="matrix(1,0,0,1,0,0)" clip-path="url(#94008612489346clip-2)"/><line x1="64" y1="159.69" x2="592" y2="159.69" style="stroke-width: 0.5;stroke: rgb(192,192,192);stroke-opacity: 1.0;stroke-dasharray: 2.0, 2.0;" transform="matrix(1,0,0,1,0,0)" clip-path="url(#94008612489346clip-2)"/><line x1="64" y1="135.65" x2="592" y2="135.65" style="stroke-width: 0.5;stroke: rgb(192,192,192);stroke-opacity: 1.0;stroke-dasharray: 2.0, 2.0;" transform="matrix(1,0,0,1,0,0)" clip-path="url(#94008612489346clip-2)"/><line x1="64" y1="111.6" x2="592" y2="111.6" style="stroke-width: 0.5;stroke: rgb(192,192,192);stroke-opacity: 1.0;stroke-dasharray: 2.0, 2.0;" transform="matrix(1,0,0,1,0,0)" clip-path="url(#94008612489346clip-2)"/><line x1="64" y1="87.56" x2="592" y2="87.56" style="stroke-width: 0.5;stroke: rgb(192,192,192);stroke-opacity: 1.0;stroke-dasharray: 2.0, 2.0;" transform="matrix(1,0,0,1,0,0)" clip-path="url(#94008612489346clip-2)"/><line x1="64" y1="63.51" x2="592" y2="63.51" style="stroke-width: 0.5;stroke: rgb(192,192,192);stroke-opacity: 1.0;stroke-dasharray: 2.0, 2.0;" transform="matrix(1,0,0,1,0,0)" clip-path="url(#94008612489346clip-2)"/><line x1="64" y1="39.47" x2="592" y2="39.47" style="stroke-width: 0.5;stroke: rgb(192,192,192);stroke-opacity: 1.0;stroke-dasharray: 2.0, 2.0;" transform="matrix(1,0,0,1,0,0)" clip-path="url(#94008612489346clip-2)"/><line x1="99.64" y1="37.77" x2="99.64" y2="37.77" style="stroke-width: 1.0;stroke: rgb(0,0,0);stroke-opacity: 1.0;" transform="matrix(1,0,0,1,0,0)" clip-path="url(#94008612489346clip-2)"/><line x1="90.4" y1="37.77" x2="108.88" y2="37.77" style="stroke-width: 1.0;stroke: rgb(0,0,0);stroke-opacity: 1.0;" transform="matrix(1,0,0,1,0,0)" clip-path="url(#94008612489346clip-2)"/><line x1="99.64" y1="37.77" x2="99.64" y2="37.77" style="stroke-width: 1.0;stroke: rgb(0,0,0);stroke-opacity: 1.0;" transform="matrix(1,0,0,1,0,0)" clip-path="url(#94008612489346clip-2)"/><line x1="90.4" y1="37.77" x2="108.88" y2="37.77" style="stroke-width: 1.0;stroke: rgb(0,0,0);stroke-opacity: 1.0;" transform="matrix(1,0,0,1,0,0)" clip-path="url(#94008612489346clip-2)"/><rect x="90.4" y="37.77" width="18.48" height="0" style="stroke-width: 1.0;stroke: rgb(0,0,0);stroke-opacity: 1.0;; fill: none" transform="matrix(1,0,0,1,0,0)" clip-path="url(#94008612489346clip-2)"/><line x1="90.4" y1="37.77" x2="108.88" y2="37.77" style="stroke-width: 1.0;stroke: rgb(0,0,0);stroke-opacity: 1.0;" transform="matrix(1,0,0,1,0,0)" clip-path="url(#94008612489346clip-2)"/><rect x="114.44" y="37.77" width="18.48" height="0" style="fill: rgb(192,192,192); fill-opacity: 1.0" transform="matrix(1,0,0,1,0,0)" clip-path="url(#94008612489346clip-2)"/><line x1="123.68" y1="37.77" x2="123.68" y2="37.77" style="stroke-width: 1.0;stroke: rgb(0,0,0);stroke-opacity: 1.0;" transform="matrix(1,0,0,1,0,0)" clip-path="url(#94008612489346clip-2)"/><line x1="114.44" y1="37.77" x2="132.92" y2="37.77" style="stroke-width: 1.0;stroke: rgb(0,0,0);stroke-opacity: 1.0;" transform="matrix(1,0,0,1,0,0)" clip-path="url(#94008612489346clip-2)"/><line x1="123.68" y1="37.78" x2="123.68" y2="37.78" style="stroke-width: 1.0;stroke: rgb(0,0,0);stroke-opacity: 1.0;" transform="matrix(1,0,0,1,0,0)" clip-path="url(#94008612489346clip-2)"/><line x1="114.44" y1="37.78" x2="132.92" y2="37.78" style="stroke-width: 1.0;stroke: rgb(0,0,0);stroke-opacity: 1.0;" transform="matrix(1,0,0,1,0,0)" clip-path="url(#94008612489346clip-2)"/><rect x="114.44" y="37.77" width="18.48" height="0" style="stroke-width: 1.0;stroke: rgb(0,0,0);stroke-opacity: 1.0;; fill: none" transform="matrix(1,0,0,1,0,0)" clip-path="url(#94008612489346clip-2)"/><line x1="114.44" y1="37.77" x2="132.92" y2="37.77" style="stroke-width: 1.0;stroke: rgb(0,0,0);stroke-opacity: 1.0;" transform="matrix(1,0,0,1,0,0)" clip-path="url(#94008612489346clip-2)"/><rect x="138.48" y="37.77" width="18.48" height="0.01" style="fill: rgb(192,192,192); fill-opacity: 1.0" transform="matrix(1,0,0,1,0,0)" clip-path="url(#94008612489346clip-2)"/><line x1="147.72" y1="37.77" x2="147.72" y2="37.77" style="stroke-width: 1.0;stroke: rgb(0,0,0);stroke-opacity: 1.0;" transform="matrix(1,0,0,1,0,0)" clip-path="url(#94008612489346clip-2)"/><line x1="138.48" y1="37.77" x2="156.96" y2="37.77" style="stroke-width: 1.0;stroke: rgb(0,0,0);stroke-opacity: 1.0;" transform="matrix(1,0,0,1,0,0)" clip-path="url(#94008612489346clip-2)"/><line x1="147.72" y1="37.78" x2="147.72" y2="37.78" style="stroke-width: 1.0;stroke: rgb(0,0,0);stroke-opacity: 1.0;" transform="matrix(1,0,0,1,0,0)" clip-path="url(#94008612489346clip-2)"/><line x1="138.48" y1="37.78" x2="156.96" y2="37.78" style="stroke-width: 1.0;stroke: rgb(0,0,0);stroke-opacity: 1.0;" transform="matrix(1,0,0,1,0,0)" clip-path="url(#94008612489346clip-2)"/><rect x="138.48" y="37.77" width="18.48" height="0.01" style="stroke-width: 1.0;stroke: rgb(0,0,0);stroke-opacity: 1.0;; fill: none" transform="matrix(1,0,0,1,0,0)" clip-path="url(#94008612489346clip-2)"/><line x1="138.48" y1="37.77" x2="156.96" y2="37.77" style="stroke-width: 1.0;stroke: rgb(0,0,0);stroke-opacity: 1.0;" transform="matrix(1,0,0,1,0,0)" clip-path="url(#94008612489346clip-2)"/><line x1="147.72" y1="23" x2="147.72" y2="23" style="stroke-width: 1.0;stroke: rgb(192,192,192);stroke-opacity: 1.0;" transform="matrix(1,0,0,1,0,0)" clip-path="url(#94008612489346clip-2)"/><line x1="147.72" y1="23" x2="147.72" y2="23" style="stroke-width: 1.0;stroke: rgb(192,192,192);stroke-opacity: 1.0;" transform="matrix(1,0,0,1,0,0)" clip-path="url(#94008612489346clip-2)"/><line x1="147.72" y1="23" x2="147.72" y2="23" style="stroke-width: 1.0;stroke: rgb(192,192,192);stroke-opacity: 1.0;" transform="matrix(1,0,0,1,0,0)" clip-path="url(#94008612489346clip-2)"/><line x1="147.72" y1="328" x2="147.72" y2="328" style="stroke-width: 1.0;stroke: rgb(192,192,192);stroke-opacity: 1.0;" transform="matrix(1,0,0,1,0,0)" clip-path="url(#94008612489346clip-2)"/><line x1="147.72" y1="328" x2="147.72" y2="328" style="stroke-width: 1.0;stroke: rgb(192,192,192);stroke-opacity: 1.0;" transform="matrix(1,0,0,1,0,0)" clip-path="url(#94008612489346clip-2)"/><line x1="147.72" y1="328" x2="147.72" y2="328" style="stroke-width: 1.0;stroke: rgb(192,192,192);stroke-opacity: 1.0;" transform="matrix(1,0,0,1,0,0)" clip-path="url(#94008612489346clip-2)"/><rect x="162.51" y="37.76" width="18.48" height="0.04" style="fill: rgb(192,192,192); fill-opacity: 1.0" transform="matrix(1,0,0,1,0,0)" clip-path="url(#94008612489346clip-2)"/><line x1="171.75" y1="37.74" x2="171.75" y2="37.76" style="stroke-width: 1.0;stroke: rgb(0,0,0);stroke-opacity: 1.0;" transform="matrix(1,0,0,1,0,0)" clip-path="url(#94008612489346clip-2)"/><line x1="162.51" y1="37.74" x2="180.99" y2="37.74" style="stroke-width: 1.0;stroke: rgb(0,0,0);stroke-opacity: 1.0;" transform="matrix(1,0,0,1,0,0)" clip-path="url(#94008612489346clip-2)"/><line x1="171.75" y1="37.82" x2="171.75" y2="37.8" style="stroke-width: 1.0;stroke: rgb(0,0,0);stroke-opacity: 1.0;" transform="matrix(1,0,0,1,0,0)" clip-path="url(#94008612489346clip-2)"/><line x1="162.51" y1="37.82" x2="180.99" y2="37.82" style="stroke-width: 1.0;stroke: rgb(0,0,0);stroke-opacity: 1.0;" transform="matrix(1,0,0,1,0,0)" clip-path="url(#94008612489346clip-2)"/><rect x="162.51" y="37.76" width="18.48" height="0.04" style="stroke-width: 1.0;stroke: rgb(0,0,0);stroke-opacity: 1.0;; fill: none" transform="matrix(1,0,0,1,0,0)" clip-path="url(#94008612489346clip-2)"/><line x1="162.51" y1="37.77" x2="180.99" y2="37.77" style="stroke-width: 1.0;stroke: rgb(0,0,0);stroke-opacity: 1.0;" transform="matrix(1,0,0,1,0,0)" clip-path="url(#94008612489346clip-2)"/><rect x="186.55" y="37.75" width="18.48" height="0.05" style="fill: rgb(192,192,192); fill-opacity: 1.0" transform="matrix(1,0,0,1,0,0)" clip-path="url(#94008612489346clip-2)"/><line x1="195.79" y1="37.68" x2="195.79" y2="37.75" style="stroke-width: 1.0;stroke: rgb(0,0,0);stroke-opacity: 1.0;" transform="matrix(1,0,0,1,0,0)" clip-path="url(#94008612489346clip-2)"/><line x1="186.55" y1="37.68" x2="205.03" y2="37.68" style="stroke-width: 1.0;stroke: rgb(0,0,0);stroke-opacity: 1.0;" transform="matrix(1,0,0,1,0,0)" clip-path="url(#94008612489346clip-2)"/><line x1="195.79" y1="37.82" x2="195.79" y2="37.8" style="stroke-width: 1.0;stroke: rgb(0,0,0);stroke-opacity: 1.0;" transform="matrix(1,0,0,1,0,0)" clip-path="url(#94008612489346clip-2)"/><line x1="186.55" y1="37.82" x2="205.03" y2="37.82" style="stroke-width: 1.0;stroke: rgb(0,0,0);stroke-opacity: 1.0;" transform="matrix(1,0,0,1,0,0)" clip-path="url(#94008612489346clip-2)"/><rect x="186.55" y="37.75" width="18.48" height="0.05" style="stroke-width: 1.0;stroke: rgb(0,0,0);stroke-opacity: 1.0;; fill: none" transform="matrix(1,0,0,1,0,0)" clip-path="url(#94008612489346clip-2)"/><line x1="186.55" y1="37.77" x2="205.03" y2="37.77" style="stroke-width: 1.0;stroke: rgb(0,0,0);stroke-opacity: 1.0;" transform="matrix(1,0,0,1,0,0)" clip-path="url(#94008612489346clip-2)"/><g style="stroke-width: 1.0;stroke: rgb(192,192,192);stroke-opacity: 1.0;; fill: none" transform="matrix(1,0,0,1,0,0)" clip-path="url(#94008612489346clip-2)"><path d="M 198.87 34.8 C 198.87 36.5 197.49 37.88 195.79 37.88 C 194.09 37.88 192.71 36.5 192.71 34.8 C 192.71 33.1 194.09 31.72 195.79 31.72 C 197.49 31.72 198.87 33.1 198.87 34.8 M 198.87 34.8"/></g><rect x="210.59" y="37.74" width="18.48" height="0.06" style="fill: rgb(192,192,192); fill-opacity: 1.0" transform="matrix(1,0,0,1,0,0)" clip-path="url(#94008612489346clip-2)"/><line x1="219.83" y1="37.68" x2="219.83" y2="37.74" style="stroke-width: 1.0;stroke: rgb(0,0,0);stroke-opacity: 1.0;" transform="matrix(1,0,0,1,0,0)" clip-path="url(#94008612489346clip-2)"/><line x1="210.59" y1="37.68" x2="229.07" y2="37.68" style="stroke-width: 1.0;stroke: rgb(0,0,0);stroke-opacity: 1.0;" transform="matrix(1,0,0,1,0,0)" clip-path="url(#94008612489346clip-2)"/><line x1="219.83" y1="37.88" x2="219.83" y2="37.8" style="stroke-width: 1.0;stroke: rgb(0,0,0);stroke-opacity: 1.0;" transform="matrix(1,0,0,1,0,0)" clip-path="url(#94008612489346clip-2)"/><line x1="210.59" y1="37.88" x2="229.07" y2="37.88" style="stroke-width: 1.0;stroke: rgb(0,0,0);stroke-opacity: 1.0;" transform="matrix(1,0,0,1,0,0)" clip-path="url(#94008612489346clip-2)"/><rect x="210.59" y="37.74" width="18.48" height="0.06" style="stroke-width: 1.0;stroke: rgb(0,0,0);stroke-opacity: 1.0;; fill: none" transform="matrix(1,0,0,1,0,0)" clip-path="url(#94008612489346clip-2)"/><line x1="210.59" y1="37.77" x2="229.07" y2="37.77" style="stroke-width: 1.0;stroke: rgb(0,0,0);stroke-opacity: 1.0;" transform="matrix(1,0,0,1,0,0)" clip-path="url(#94008612489346clip-2)"/><rect x="234.63" y="37.74" width="18.48" height="0.07" style="fill: rgb(192,192,192); fill-opacity: 1.0" transform="matrix(1,0,0,1,0,0)" clip-path="url(#94008612489346clip-2)"/><line x1="243.87" y1="37.67" x2="243.87" y2="37.74" style="stroke-width: 1.0;stroke: rgb(0,0,0);stroke-opacity: 1.0;" transform="matrix(1,0,0,1,0,0)" clip-path="url(#94008612489346clip-2)"/><line x1="234.63" y1="37.67" x2="253.11" y2="37.67" style="stroke-width: 1.0;stroke: rgb(0,0,0);stroke-opacity: 1.0;" transform="matrix(1,0,0,1,0,0)" clip-path="url(#94008612489346clip-2)"/><line x1="243.87" y1="37.89" x2="243.87" y2="37.81" style="stroke-width: 1.0;stroke: rgb(0,0,0);stroke-opacity: 1.0;" transform="matrix(1,0,0,1,0,0)" clip-path="url(#94008612489346clip-2)"/><line x1="234.63" y1="37.89" x2="253.11" y2="37.89" style="stroke-width: 1.0;stroke: rgb(0,0,0);stroke-opacity: 1.0;" transform="matrix(1,0,0,1,0,0)" clip-path="url(#94008612489346clip-2)"/><rect x="234.63" y="37.74" width="18.48" height="0.07" style="stroke-width: 1.0;stroke: rgb(0,0,0);stroke-opacity: 1.0;; fill: none" transform="matrix(1,0,0,1,0,0)" clip-path="url(#94008612489346clip-2)"/><line x1="234.63" y1="37.77" x2="253.11" y2="37.77" style="stroke-width: 1.0;stroke: rgb(0,0,0);stroke-opacity: 1.0;" transform="matrix(1,0,0,1,0,0)" clip-path="url(#94008612489346clip-2)"/><g style="stroke-width: 1.0;stroke: rgb(192,192,192);stroke-opacity: 1.0;; fill: none" transform="matrix(1,0,0,1,0,0)" clip-path="url(#94008612489346clip-2)"><path d="M 240.79 34.84 C 240.79 36.54 239.41 37.92 237.71 37.92 C 236.01 37.92 234.63 36.54 234.63 34.84 C 234.63 33.14 236.01 31.76 237.71 31.76 C 239.41 31.76 240.79 33.14 240.79 34.84 M 240.79 34.84"/></g><g style="stroke-width: 1.0;stroke: rgb(192,192,192);stroke-opacity: 1.0;; fill: none" transform="matrix(1,0,0,1,0,0)" clip-path="url(#94008612489346clip-2)"><path d="M 253.11 34.84 C 253.11 36.54 251.73 37.92 250.03 37.92 C 248.33 37.92 246.95 36.54 246.95 34.84 C 246.95 33.14 248.33 31.76 250.03 31.76 C 251.73 31.76 253.11 33.14 253.11 34.84 M 253.11 34.84"/></g><rect x="258.67" y="37.74" width="18.48" height="0.07" style="fill: rgb(192,192,192); fill-opacity: 1.0" transform="matrix(1,0,0,1,0,0)" clip-path="url(#94008612489346clip-2)"/><line x1="267.91" y1="37.63" x2="267.91" y2="37.74" style="stroke-width: 1.0;stroke: rgb(0,0,0);stroke-opacity: 1.0;" transform="matrix(1,0,0,1,0,0)" clip-path="url(#94008612489346clip-2)"/><line x1="258.67" y1="37.63" x2="277.15" y2="37.63" style="stroke-width: 1.0;stroke: rgb(0,0,0);stroke-opacity: 1.0;" transform="matrix(1,0,0,1,0,0)" clip-path="url(#94008612489346clip-2)"/><line x1="267.91" y1="37.89" x2="267.91" y2="37.81" style="stroke-width: 1.0;stroke: rgb(0,0,0);stroke-opacity: 1.0;" transform="matrix(1,0,0,1,0,0)" clip-path="url(#94008612489346clip-2)"/><line x1="258.67" y1="37.89" x2="277.15" y2="37.89" style="stroke-width: 1.0;stroke: rgb(0,0,0);stroke-opacity: 1.0;" transform="matrix(1,0,0,1,0,0)" clip-path="url(#94008612489346clip-2)"/><rect x="258.67" y="37.74" width="18.48" height="0.07" style="stroke-width: 1.0;stroke: rgb(0,0,0);stroke-opacity: 1.0;; fill: none" transform="matrix(1,0,0,1,0,0)" clip-path="url(#94008612489346clip-2)"/><line x1="258.67" y1="37.77" x2="277.15" y2="37.77" style="stroke-width: 1.0;stroke: rgb(0,0,0);stroke-opacity: 1.0;" transform="matrix(1,0,0,1,0,0)" clip-path="url(#94008612489346clip-2)"/><g style="stroke-width: 1.0;stroke: rgb(192,192,192);stroke-opacity: 1.0;; fill: none" transform="matrix(1,0,0,1,0,0)" clip-path="url(#94008612489346clip-2)"><path d="M 264.83 34.84 C 264.83 36.54 263.45 37.92 261.75 37.92 C 260.04 37.92 258.67 36.54 258.67 34.84 C 258.67 33.14 260.04 31.76 261.75 31.76 C 263.45 31.76 264.83 33.14 264.83 34.84 M 264.83 34.84"/></g><g style="stroke-width: 1.0;stroke: rgb(192,192,192);stroke-opacity: 1.0;; fill: none" transform="matrix(1,0,0,1,0,0)" clip-path="url(#94008612489346clip-2)"><path d="M 277.15 34.84 C 277.15 36.54 275.77 37.92 274.07 37.92 C 272.36 37.92 270.99 36.54 270.99 34.84 C 270.99 33.14 272.36 31.76 274.07 31.76 C 275.77 31.76 277.15 33.14 277.15 34.84 M 277.15 34.84"/></g><rect x="282.7" y="37.74" width="18.48" height="0.08" style="fill: rgb(192,192,192); fill-opacity: 1.0" transform="matrix(1,0,0,1,0,0)" clip-path="url(#94008612489346clip-2)"/><line x1="291.94" y1="37.63" x2="291.94" y2="37.74" style="stroke-width: 1.0;stroke: rgb(0,0,0);stroke-opacity: 1.0;" transform="matrix(1,0,0,1,0,0)" clip-path="url(#94008612489346clip-2)"/><line x1="282.7" y1="37.63" x2="301.18" y2="37.63" style="stroke-width: 1.0;stroke: rgb(0,0,0);stroke-opacity: 1.0;" transform="matrix(1,0,0,1,0,0)" clip-path="url(#94008612489346clip-2)"/><line x1="291.94" y1="37.92" x2="291.94" y2="37.82" style="stroke-width: 1.0;stroke: rgb(0,0,0);stroke-opacity: 1.0;" transform="matrix(1,0,0,1,0,0)" clip-path="url(#94008612489346clip-2)"/><line x1="282.7" y1="37.92" x2="301.18" y2="37.92" style="stroke-width: 1.0;stroke: rgb(0,0,0);stroke-opacity: 1.0;" transform="matrix(1,0,0,1,0,0)" clip-path="url(#94008612489346clip-2)"/><rect x="282.7" y="37.74" width="18.48" height="0.08" style="stroke-width: 1.0;stroke: rgb(0,0,0);stroke-opacity: 1.0;; fill: none" transform="matrix(1,0,0,1,0,0)" clip-path="url(#94008612489346clip-2)"/><line x1="282.7" y1="37.77" x2="301.18" y2="37.77" style="stroke-width: 1.0;stroke: rgb(0,0,0);stroke-opacity: 1.0;" transform="matrix(1,0,0,1,0,0)" clip-path="url(#94008612489346clip-2)"/><line x1="291.94" y1="23" x2="291.94" y2="23" style="stroke-width: 1.0;stroke: rgb(192,192,192);stroke-opacity: 1.0;" transform="matrix(1,0,0,1,0,0)" clip-path="url(#94008612489346clip-2)"/><line x1="291.94" y1="23" x2="291.94" y2="23" style="stroke-width: 1.0;stroke: rgb(192,192,192);stroke-opacity: 1.0;" transform="matrix(1,0,0,1,0,0)" clip-path="url(#94008612489346clip-2)"/><line x1="291.94" y1="23" x2="291.94" y2="23" style="stroke-width: 1.0;stroke: rgb(192,192,192);stroke-opacity: 1.0;" transform="matrix(1,0,0,1,0,0)" clip-path="url(#94008612489346clip-2)"/><rect x="306.74" y="37.73" width="18.48" height="0.09" style="fill: rgb(192,192,192); fill-opacity: 1.0" transform="matrix(1,0,0,1,0,0)" clip-path="url(#94008612489346clip-2)"/><line x1="315.98" y1="37.63" x2="315.98" y2="37.73" style="stroke-width: 1.0;stroke: rgb(0,0,0);stroke-opacity: 1.0;" transform="matrix(1,0,0,1,0,0)" clip-path="url(#94008612489346clip-2)"/><line x1="306.74" y1="37.63" x2="325.22" y2="37.63" style="stroke-width: 1.0;stroke: rgb(0,0,0);stroke-opacity: 1.0;" transform="matrix(1,0,0,1,0,0)" clip-path="url(#94008612489346clip-2)"/><line x1="315.98" y1="37.92" x2="315.98" y2="37.82" style="stroke-width: 1.0;stroke: rgb(0,0,0);stroke-opacity: 1.0;" transform="matrix(1,0,0,1,0,0)" clip-path="url(#94008612489346clip-2)"/><line x1="306.74" y1="37.92" x2="325.22" y2="37.92" style="stroke-width: 1.0;stroke: rgb(0,0,0);stroke-opacity: 1.0;" transform="matrix(1,0,0,1,0,0)" clip-path="url(#94008612489346clip-2)"/><rect x="306.74" y="37.73" width="18.48" height="0.09" style="stroke-width: 1.0;stroke: rgb(0,0,0);stroke-opacity: 1.0;; fill: none" transform="matrix(1,0,0,1,0,0)" clip-path="url(#94008612489346clip-2)"/><line x1="306.74" y1="37.78" x2="325.22" y2="37.78" style="stroke-width: 1.0;stroke: rgb(0,0,0);stroke-opacity: 1.0;" transform="matrix(1,0,0,1,0,0)" clip-path="url(#94008612489346clip-2)"/><g style="stroke-width: 1.0;stroke: rgb(192,192,192);stroke-opacity: 1.0;; fill: none" transform="matrix(1,0,0,1,0,0)" clip-path="url(#94008612489346clip-2)"><path d="M 319.06 34.49 C 319.06 36.19 317.68 37.57 315.98 37.57 C 314.28 37.57 312.9 36.19 312.9 34.49 C 312.9 32.79 314.28 31.41 315.98 31.41 C 317.68 31.41 319.06 32.79 319.06 34.49 M 319.06 34.49"/></g><rect x="330.78" y="37.73" width="18.48" height="0.09" style="fill: rgb(192,192,192); fill-opacity: 1.0" transform="matrix(1,0,0,1,0,0)" clip-path="url(#94008612489346clip-2)"/><line x1="340.02" y1="37.63" x2="340.02" y2="37.73" style="stroke-width: 1.0;stroke: rgb(0,0,0);stroke-opacity: 1.0;" transform="matrix(1,0,0,1,0,0)" clip-path="url(#94008612489346clip-2)"/><line x1="330.78" y1="37.63" x2="349.26" y2="37.63" style="stroke-width: 1.0;stroke: rgb(0,0,0);stroke-opacity: 1.0;" transform="matrix(1,0,0,1,0,0)" clip-path="url(#94008612489346clip-2)"/><line x1="340.02" y1="37.92" x2="340.02" y2="37.82" style="stroke-width: 1.0;stroke: rgb(0,0,0);stroke-opacity: 1.0;" transform="matrix(1,0,0,1,0,0)" clip-path="url(#94008612489346clip-2)"/><line x1="330.78" y1="37.92" x2="349.26" y2="37.92" style="stroke-width: 1.0;stroke: rgb(0,0,0);stroke-opacity: 1.0;" transform="matrix(1,0,0,1,0,0)" clip-path="url(#94008612489346clip-2)"/><rect x="330.78" y="37.73" width="18.48" height="0.09" style="stroke-width: 1.0;stroke: rgb(0,0,0);stroke-opacity: 1.0;; fill: none" transform="matrix(1,0,0,1,0,0)" clip-path="url(#94008612489346clip-2)"/><line x1="330.78" y1="37.78" x2="349.26" y2="37.78" style="stroke-width: 1.0;stroke: rgb(0,0,0);stroke-opacity: 1.0;" transform="matrix(1,0,0,1,0,0)" clip-path="url(#94008612489346clip-2)"/><g style="stroke-width: 1.0;stroke: rgb(192,192,192);stroke-opacity: 1.0;; fill: none" transform="matrix(1,0,0,1,0,0)" clip-path="url(#94008612489346clip-2)"><path d="M 343.1 34.49 C 343.1 36.19 341.72 37.57 340.02 37.57 C 338.32 37.57 336.94 36.19 336.94 34.49 C 336.94 32.79 338.32 31.41 340.02 31.41 C 341.72 31.41 343.1 32.79 343.1 34.49 M 343.1 34.49"/></g><rect x="354.82" y="37.73" width="18.48" height="0.09" style="fill: rgb(192,192,192); fill-opacity: 1.0" transform="matrix(1,0,0,1,0,0)" clip-path="url(#94008612489346clip-2)"/><line x1="364.06" y1="37.63" x2="364.06" y2="37.73" style="stroke-width: 1.0;stroke: rgb(0,0,0);stroke-opacity: 1.0;" transform="matrix(1,0,0,1,0,0)" clip-path="url(#94008612489346clip-2)"/><line x1="354.82" y1="37.63" x2="373.3" y2="37.63" style="stroke-width: 1.0;stroke: rgb(0,0,0);stroke-opacity: 1.0;" transform="matrix(1,0,0,1,0,0)" clip-path="url(#94008612489346clip-2)"/><line x1="364.06" y1="37.93" x2="364.06" y2="37.82" style="stroke-width: 1.0;stroke: rgb(0,0,0);stroke-opacity: 1.0;" transform="matrix(1,0,0,1,0,0)" clip-path="url(#94008612489346clip-2)"/><line x1="354.82" y1="37.93" x2="373.3" y2="37.93" style="stroke-width: 1.0;stroke: rgb(0,0,0);stroke-opacity: 1.0;" transform="matrix(1,0,0,1,0,0)" clip-path="url(#94008612489346clip-2)"/><rect x="354.82" y="37.73" width="18.48" height="0.09" style="stroke-width: 1.0;stroke: rgb(0,0,0);stroke-opacity: 1.0;; fill: none" transform="matrix(1,0,0,1,0,0)" clip-path="url(#94008612489346clip-2)"/><line x1="354.82" y1="37.78" x2="373.3" y2="37.78" style="stroke-width: 1.0;stroke: rgb(0,0,0);stroke-opacity: 1.0;" transform="matrix(1,0,0,1,0,0)" clip-path="url(#94008612489346clip-2)"/><g style="stroke-width: 1.0;stroke: rgb(192,192,192);stroke-opacity: 1.0;; fill: none" transform="matrix(1,0,0,1,0,0)" clip-path="url(#94008612489346clip-2)"><path d="M 367.14 34.49 C 367.14 36.19 365.76 37.57 364.06 37.57 C 362.36 37.57 360.98 36.19 360.98 34.49 C 360.98 32.79 362.36 31.41 364.06 31.41 C 365.76 31.41 367.14 32.79 367.14 34.49 M 367.14 34.49"/></g><rect x="378.85" y="37.73" width="18.48" height="0.09" style="fill: rgb(192,192,192); fill-opacity: 1.0" transform="matrix(1,0,0,1,0,0)" clip-path="url(#94008612489346clip-2)"/><line x1="388.09" y1="37.63" x2="388.09" y2="37.73" style="stroke-width: 1.0;stroke: rgb(0,0,0);stroke-opacity: 1.0;" transform="matrix(1,0,0,1,0,0)" clip-path="url(#94008612489346clip-2)"/><line x1="378.85" y1="37.63" x2="397.33" y2="37.63" style="stroke-width: 1.0;stroke: rgb(0,0,0);stroke-opacity: 1.0;" transform="matrix(1,0,0,1,0,0)" clip-path="url(#94008612489346clip-2)"/><line x1="388.09" y1="37.93" x2="388.09" y2="37.82" style="stroke-width: 1.0;stroke: rgb(0,0,0);stroke-opacity: 1.0;" transform="matrix(1,0,0,1,0,0)" clip-path="url(#94008612489346clip-2)"/><line x1="378.85" y1="37.93" x2="397.33" y2="37.93" style="stroke-width: 1.0;stroke: rgb(0,0,0);stroke-opacity: 1.0;" transform="matrix(1,0,0,1,0,0)" clip-path="url(#94008612489346clip-2)"/><rect x="378.85" y="37.73" width="18.48" height="0.09" style="stroke-width: 1.0;stroke: rgb(0,0,0);stroke-opacity: 1.0;; fill: none" transform="matrix(1,0,0,1,0,0)" clip-path="url(#94008612489346clip-2)"/><line x1="378.85" y1="37.78" x2="397.33" y2="37.78" style="stroke-width: 1.0;stroke: rgb(0,0,0);stroke-opacity: 1.0;" transform="matrix(1,0,0,1,0,0)" clip-path="url(#94008612489346clip-2)"/><g style="stroke-width: 1.0;stroke: rgb(192,192,192);stroke-opacity: 1.0;; fill: none" transform="matrix(1,0,0,1,0,0)" clip-path="url(#94008612489346clip-2)"><path d="M 391.17 34.49 C 391.17 36.19 389.8 37.57 388.09 37.57 C 386.39 37.57 385.01 36.19 385.01 34.49 C 385.01 32.79 386.39 31.41 388.09 31.41 C 389.8 31.41 391.17 32.79 391.17 34.49 M 391.17 34.49"/></g><line x1="388.09" y1="328" x2="388.09" y2="328" style="stroke-width: 1.0;stroke: rgb(192,192,192);stroke-opacity: 1.0;" transform="matrix(1,0,0,1,0,0)" clip-path="url(#94008612489346clip-2)"/><line x1="388.09" y1="328" x2="388.09" y2="328" style="stroke-width: 1.0;stroke: rgb(192,192,192);stroke-opacity: 1.0;" transform="matrix(1,0,0,1,0,0)" clip-path="url(#94008612489346clip-2)"/><line x1="388.09" y1="328" x2="388.09" y2="328" style="stroke-width: 1.0;stroke: rgb(192,192,192);stroke-opacity: 1.0;" transform="matrix(1,0,0,1,0,0)" clip-path="url(#94008612489346clip-2)"/><rect x="402.89" y="37.72" width="18.48" height="0.11" style="fill: rgb(192,192,192); fill-opacity: 1.0" transform="matrix(1,0,0,1,0,0)" clip-path="url(#94008612489346clip-2)"/><line x1="412.13" y1="37.57" x2="412.13" y2="37.72" style="stroke-width: 1.0;stroke: rgb(0,0,0);stroke-opacity: 1.0;" transform="matrix(1,0,0,1,0,0)" clip-path="url(#94008612489346clip-2)"/><line x1="402.89" y1="37.57" x2="421.37" y2="37.57" style="stroke-width: 1.0;stroke: rgb(0,0,0);stroke-opacity: 1.0;" transform="matrix(1,0,0,1,0,0)" clip-path="url(#94008612489346clip-2)"/><line x1="412.13" y1="38" x2="412.13" y2="37.83" style="stroke-width: 1.0;stroke: rgb(0,0,0);stroke-opacity: 1.0;" transform="matrix(1,0,0,1,0,0)" clip-path="url(#94008612489346clip-2)"/><line x1="402.89" y1="38" x2="421.37" y2="38" style="stroke-width: 1.0;stroke: rgb(0,0,0);stroke-opacity: 1.0;" transform="matrix(1,0,0,1,0,0)" clip-path="url(#94008612489346clip-2)"/><rect x="402.89" y="37.72" width="18.48" height="0.11" style="stroke-width: 1.0;stroke: rgb(0,0,0);stroke-opacity: 1.0;; fill: none" transform="matrix(1,0,0,1,0,0)" clip-path="url(#94008612489346clip-2)"/><line x1="402.89" y1="37.77" x2="421.37" y2="37.77" style="stroke-width: 1.0;stroke: rgb(0,0,0);stroke-opacity: 1.0;" transform="matrix(1,0,0,1,0,0)" clip-path="url(#94008612489346clip-2)"/><g style="stroke-width: 1.0;stroke: rgb(192,192,192);stroke-opacity: 1.0;; fill: none" transform="matrix(1,0,0,1,0,0)" clip-path="url(#94008612489346clip-2)"><path d="M 415.21 34.93 C 415.21 36.63 413.83 38.01 412.13 38.01 C 410.43 38.01 409.05 36.63 409.05 34.93 C 409.05 33.23 410.43 31.85 412.13 31.85 C 413.83 31.85 415.21 33.23 415.21 34.93 M 415.21 34.93"/></g><rect x="426.93" y="37.71" width="18.48" height="0.12" style="fill: rgb(192,192,192); fill-opacity: 1.0" transform="matrix(1,0,0,1,0,0)" clip-path="url(#94008612489346clip-2)"/><line x1="436.17" y1="37.57" x2="436.17" y2="37.71" style="stroke-width: 1.0;stroke: rgb(0,0,0);stroke-opacity: 1.0;" transform="matrix(1,0,0,1,0,0)" clip-path="url(#94008612489346clip-2)"/><line x1="426.93" y1="37.57" x2="445.41" y2="37.57" style="stroke-width: 1.0;stroke: rgb(0,0,0);stroke-opacity: 1.0;" transform="matrix(1,0,0,1,0,0)" clip-path="url(#94008612489346clip-2)"/><line x1="436.17" y1="38.01" x2="436.17" y2="37.83" style="stroke-width: 1.0;stroke: rgb(0,0,0);stroke-opacity: 1.0;" transform="matrix(1,0,0,1,0,0)" clip-path="url(#94008612489346clip-2)"/><line x1="426.93" y1="38.01" x2="445.41" y2="38.01" style="stroke-width: 1.0;stroke: rgb(0,0,0);stroke-opacity: 1.0;" transform="matrix(1,0,0,1,0,0)" clip-path="url(#94008612489346clip-2)"/><rect x="426.93" y="37.71" width="18.48" height="0.12" style="stroke-width: 1.0;stroke: rgb(0,0,0);stroke-opacity: 1.0;; fill: none" transform="matrix(1,0,0,1,0,0)" clip-path="url(#94008612489346clip-2)"/><line x1="426.93" y1="37.78" x2="445.41" y2="37.78" style="stroke-width: 1.0;stroke: rgb(0,0,0);stroke-opacity: 1.0;" transform="matrix(1,0,0,1,0,0)" clip-path="url(#94008612489346clip-2)"/><rect x="450.97" y="37.7" width="18.48" height="0.13" style="fill: rgb(192,192,192); fill-opacity: 1.0" transform="matrix(1,0,0,1,0,0)" clip-path="url(#94008612489346clip-2)"/><line x1="460.21" y1="37.57" x2="460.21" y2="37.7" style="stroke-width: 1.0;stroke: rgb(0,0,0);stroke-opacity: 1.0;" transform="matrix(1,0,0,1,0,0)" clip-path="url(#94008612489346clip-2)"/><line x1="450.97" y1="37.57" x2="469.45" y2="37.57" style="stroke-width: 1.0;stroke: rgb(0,0,0);stroke-opacity: 1.0;" transform="matrix(1,0,0,1,0,0)" clip-path="url(#94008612489346clip-2)"/><line x1="460.21" y1="38.01" x2="460.21" y2="37.84" style="stroke-width: 1.0;stroke: rgb(0,0,0);stroke-opacity: 1.0;" transform="matrix(1,0,0,1,0,0)" clip-path="url(#94008612489346clip-2)"/><line x1="450.97" y1="38.01" x2="469.45" y2="38.01" style="stroke-width: 1.0;stroke: rgb(0,0,0);stroke-opacity: 1.0;" transform="matrix(1,0,0,1,0,0)" clip-path="url(#94008612489346clip-2)"/><rect x="450.97" y="37.7" width="18.48" height="0.13" style="stroke-width: 1.0;stroke: rgb(0,0,0);stroke-opacity: 1.0;; fill: none" transform="matrix(1,0,0,1,0,0)" clip-path="url(#94008612489346clip-2)"/><line x1="450.97" y1="37.78" x2="469.45" y2="37.78" style="stroke-width: 1.0;stroke: rgb(0,0,0);stroke-opacity: 1.0;" transform="matrix(1,0,0,1,0,0)" clip-path="url(#94008612489346clip-2)"/><rect x="475.01" y="37.7" width="18.48" height="0.13" style="fill: rgb(192,192,192); fill-opacity: 1.0" transform="matrix(1,0,0,1,0,0)" clip-path="url(#94008612489346clip-2)"/><line x1="484.25" y1="37.56" x2="484.25" y2="37.7" style="stroke-width: 1.0;stroke: rgb(0,0,0);stroke-opacity: 1.0;" transform="matrix(1,0,0,1,0,0)" clip-path="url(#94008612489346clip-2)"/><line x1="475.01" y1="37.56" x2="493.49" y2="37.56" style="stroke-width: 1.0;stroke: rgb(0,0,0);stroke-opacity: 1.0;" transform="matrix(1,0,0,1,0,0)" clip-path="url(#94008612489346clip-2)"/><line x1="484.25" y1="38.01" x2="484.25" y2="37.84" style="stroke-width: 1.0;stroke: rgb(0,0,0);stroke-opacity: 1.0;" transform="matrix(1,0,0,1,0,0)" clip-path="url(#94008612489346clip-2)"/><line x1="475.01" y1="38.01" x2="493.49" y2="38.01" style="stroke-width: 1.0;stroke: rgb(0,0,0);stroke-opacity: 1.0;" transform="matrix(1,0,0,1,0,0)" clip-path="url(#94008612489346clip-2)"/><rect x="475.01" y="37.7" width="18.48" height="0.13" style="stroke-width: 1.0;stroke: rgb(0,0,0);stroke-opacity: 1.0;; fill: none" transform="matrix(1,0,0,1,0,0)" clip-path="url(#94008612489346clip-2)"/><line x1="475.01" y1="37.78" x2="493.49" y2="37.78" style="stroke-width: 1.0;stroke: rgb(0,0,0);stroke-opacity: 1.0;" transform="matrix(1,0,0,1,0,0)" clip-path="url(#94008612489346clip-2)"/><rect x="499.04" y="37.7" width="18.48" height="0.13" style="fill: rgb(192,192,192); fill-opacity: 1.0" transform="matrix(1,0,0,1,0,0)" clip-path="url(#94008612489346clip-2)"/><line x1="508.28" y1="37.56" x2="508.28" y2="37.7" style="stroke-width: 1.0;stroke: rgb(0,0,0);stroke-opacity: 1.0;" transform="matrix(1,0,0,1,0,0)" clip-path="url(#94008612489346clip-2)"/><line x1="499.04" y1="37.56" x2="517.52" y2="37.56" style="stroke-width: 1.0;stroke: rgb(0,0,0);stroke-opacity: 1.0;" transform="matrix(1,0,0,1,0,0)" clip-path="url(#94008612489346clip-2)"/><line x1="508.28" y1="38.01" x2="508.28" y2="37.84" style="stroke-width: 1.0;stroke: rgb(0,0,0);stroke-opacity: 1.0;" transform="matrix(1,0,0,1,0,0)" clip-path="url(#94008612489346clip-2)"/><line x1="499.04" y1="38.01" x2="517.52" y2="38.01" style="stroke-width: 1.0;stroke: rgb(0,0,0);stroke-opacity: 1.0;" transform="matrix(1,0,0,1,0,0)" clip-path="url(#94008612489346clip-2)"/><rect x="499.04" y="37.7" width="18.48" height="0.13" style="stroke-width: 1.0;stroke: rgb(0,0,0);stroke-opacity: 1.0;; fill: none" transform="matrix(1,0,0,1,0,0)" clip-path="url(#94008612489346clip-2)"/><line x1="499.04" y1="37.78" x2="517.52" y2="37.78" style="stroke-width: 1.0;stroke: rgb(0,0,0);stroke-opacity: 1.0;" transform="matrix(1,0,0,1,0,0)" clip-path="url(#94008612489346clip-2)"/><rect x="523.08" y="37.7" width="18.48" height="0.14" style="fill: rgb(192,192,192); fill-opacity: 1.0" transform="matrix(1,0,0,1,0,0)" clip-path="url(#94008612489346clip-2)"/><line x1="532.32" y1="37.56" x2="532.32" y2="37.7" style="stroke-width: 1.0;stroke: rgb(0,0,0);stroke-opacity: 1.0;" transform="matrix(1,0,0,1,0,0)" clip-path="url(#94008612489346clip-2)"/><line x1="523.08" y1="37.56" x2="541.56" y2="37.56" style="stroke-width: 1.0;stroke: rgb(0,0,0);stroke-opacity: 1.0;" transform="matrix(1,0,0,1,0,0)" clip-path="url(#94008612489346clip-2)"/><line x1="532.32" y1="38.01" x2="532.32" y2="37.84" style="stroke-width: 1.0;stroke: rgb(0,0,0);stroke-opacity: 1.0;" transform="matrix(1,0,0,1,0,0)" clip-path="url(#94008612489346clip-2)"/><line x1="523.08" y1="38.01" x2="541.56" y2="38.01" style="stroke-width: 1.0;stroke: rgb(0,0,0);stroke-opacity: 1.0;" transform="matrix(1,0,0,1,0,0)" clip-path="url(#94008612489346clip-2)"/><rect x="523.08" y="37.7" width="18.48" height="0.14" style="stroke-width: 1.0;stroke: rgb(0,0,0);stroke-opacity: 1.0;; fill: none" transform="matrix(1,0,0,1,0,0)" clip-path="url(#94008612489346clip-2)"/><line x1="523.08" y1="37.78" x2="541.56" y2="37.78" style="stroke-width: 1.0;stroke: rgb(0,0,0);stroke-opacity: 1.0;" transform="matrix(1,0,0,1,0,0)" clip-path="url(#94008612489346clip-2)"/><rect x="547.12" y="37.7" width="18.48" height="0.14" style="fill: rgb(192,192,192); fill-opacity: 1.0" transform="matrix(1,0,0,1,0,0)" clip-path="url(#94008612489346clip-2)"/><line x1="556.36" y1="37.52" x2="556.36" y2="37.7" style="stroke-width: 1.0;stroke: rgb(0,0,0);stroke-opacity: 1.0;" transform="matrix(1,0,0,1,0,0)" clip-path="url(#94008612489346clip-2)"/><line x1="547.12" y1="37.52" x2="565.6" y2="37.52" style="stroke-width: 1.0;stroke: rgb(0,0,0);stroke-opacity: 1.0;" transform="matrix(1,0,0,1,0,0)" clip-path="url(#94008612489346clip-2)"/><line x1="556.36" y1="38.01" x2="556.36" y2="37.85" style="stroke-width: 1.0;stroke: rgb(0,0,0);stroke-opacity: 1.0;" transform="matrix(1,0,0,1,0,0)" clip-path="url(#94008612489346clip-2)"/><line x1="547.12" y1="38.01" x2="565.6" y2="38.01" style="stroke-width: 1.0;stroke: rgb(0,0,0);stroke-opacity: 1.0;" transform="matrix(1,0,0,1,0,0)" clip-path="url(#94008612489346clip-2)"/><rect x="547.12" y="37.7" width="18.48" height="0.14" style="stroke-width: 1.0;stroke: rgb(0,0,0);stroke-opacity: 1.0;; fill: none" transform="matrix(1,0,0,1,0,0)" clip-path="url(#94008612489346clip-2)"/><line x1="547.12" y1="37.78" x2="565.6" y2="37.78" style="stroke-width: 1.0;stroke: rgb(0,0,0);stroke-opacity: 1.0;" transform="matrix(1,0,0,1,0,0)" clip-path="url(#94008612489346clip-2)"/><rect x="64" y="23" width="528" height="305" style="stroke-width: 0.5;stroke: rgb(128,128,128);stroke-opacity: 1.0;; fill: none" transform="matrix(1,0,0,1,0,0)" clip-path="url(#94008612489346clip-0)"/></svg>
