<!DOCTYPE svg PUBLIC "-//W3C//DTD SVG 1.1//EN" "http://www.w3.org/Graphics/SVG/1.1/DTD/svg11.dtd">
<svg xmlns="http://www.w3.org/2000/svg" xmlns:xlink="http://www.w3.org/1999/xlink" xmlns:jfreesvg="http://www.jfree.org/jfreesvg/svg" width="600" height="400" text-rendering="auto" shape-rendering="auto">
<defs><clipPath id="94008638629757clip-0"><path d="M 0 0 L 600 0 L 600 400 L 0 400 L 0 0 M 0 0"/></clipPath>
<clipPath id="94008638629757clip-1"><path d="M 188.43 162.57 L 188.43 762.57 L -211.57 762.57 L -211.57 162.57 L 188.43 162.57 M 188.43 162.57"/></clipPath>
<clipPath id="94008638629757clip-2"><path d="M 58 23 L 58 328 L 592 328 L 592 23 M 58 23"/></clipPath>
</defs>
<rect x="0" y="0" width="600" height="400" style="fill: rgb(238,238,238); fill-opacity: 1.0" transform="matrix(1,0,0,1,0,0)" clip-path="url(#94008638629757clip-0)"/><g style="fill: rgb(0,0,0); fill-opacity: 1.0; stroke: none" transform="matrix(1,0,0,1,0,0)" clip-path="url(#94008638629757clip-0)"><path d="M 282.41 14.13 Q 280.94 14.79 278.9 14.79 Q 276.41 14.79 275.02 13.39 Q 273.64 11.99 273.64 9.48 Q 273.64 6.92 275.03 5.54 Q 276.43 4.17 279.02 4.17 Q 280.68 4.17 282.31 4.55 L 282.31 6.2 Q 280.46 5.55 279.21 5.55 Q 277.61 5.55 276.74 6.57 Q 275.87 7.58 275.87 9.45 Q 275.87 11.28 276.8 12.31 Q 277.74 13.33 279.4 13.33 Q 280.89 13.33 282.41 12.58 M 282.41 14.13 M 297.41 14.13 Q 295.94 14.79 293.9 14.79 Q 291.41 14.79 290.02 13.39 Q 288.64 11.99 288.64 9.48 Q 288.64 6.92 290.03 5.54 Q 291.43 4.17 294.02 4.17 Q 295.68 4.17 297.31 4.55 L 297.31 6.2 Q 295.46 5.55 294.21 5.55 Q 292.61 5.55 291.74 6.57 Q 290.87 7.58 290.87 9.45 Q 290.87 11.28 291.8 12.31 Q 292.74 13.33 294.4 13.33 Q 295.89 13.33 297.41 12.58 M 297.41 14.13 M 299.26 14.54 L 299.26 3.74 L 301.29 3.74 L 301.29 8.44 Q 302.28 6.86 303.84 6.86 Q 304.85 6.86 305.43 7.49 Q 306.01 8.13 306.01 9.23 L 306.01 14.54 L 303.99 14.54 L 303.99 9.73 Q 303.99 8.45 303.14 8.45 Q 302.18 8.45 301.29 9.81 L 301.29 14.54 M 299.26 14.54 M 311.94 13.73 Q 310.93 14.71 309.78 14.71 Q 308.79 14.71 308.18 14.1 Q 307.56 13.5 307.56 12.55 Q 307.56 11.3 308.56 10.63 Q 309.55 9.96 311.4 9.96 L 311.94 9.96 L 311.94 9.27 Q 311.94 8.1 310.61 8.1 Q 309.43 8.1 308.22 8.77 L 308.22 7.38 Q 309.59 6.86 310.94 6.86 Q 313.88 6.86 313.88 9.2 L 313.88 12.53 Q 313.88 13.41 314.45 13.41 Q 314.55 13.41 314.72 13.38 L 314.77 14.51 Q 314.12 14.71 313.63 14.71 Q 312.39 14.71 312.03 13.73 M 311.94 13.73 M 311.94 12.64 L 311.94 11.12 L 311.46 11.12 Q 309.5 11.12 309.5 12.35 Q 309.5 12.76 309.79 13.05 Q 310.07 13.33 310.49 13.33 Q 311.2 13.33 311.94 12.64 M 311.94 12.64 M 316.26 14.54 L 316.26 7.03 L 318.29 7.03 L 318.29 8.44 Q 319.07 6.86 320.68 6.86 Q 320.87 6.86 321.06 6.9 L 321.06 8.7 Q 320.63 8.55 320.26 8.55 Q 319.05 8.55 318.29 9.77 L 318.29 14.54 M 316.26 14.54 M 326.13 14.49 Q 325.41 14.71 324.99 14.71 Q 322.36 14.71 322.36 12.25 L 322.36 8.29 L 321.52 8.29 L 321.52 7.03 L 322.36 7.03 L 322.36 5.76 L 324.38 5.53 L 324.38 7.03 L 325.99 7.03 L 325.99 8.29 L 324.38 8.29 L 324.38 11.98 Q 324.38 13.36 325.51 13.36 Q 325.77 13.36 326.13 13.26 M 326.13 14.49"/></g><rect x="262" y="373.33" width="76" height="25.67" style="fill: rgb(255,255,255); fill-opacity: 1.0" transform="matrix(1,0,0,1,0,0)" clip-path="url(#94008638629757clip-0)"/><line x1="262.5" y1="373.83" x2="337.5" y2="373.83" style="stroke-width: 1.0;stroke: rgb(0,0,0);stroke-opacity: 1.0;" transform="matrix(1,0,0,1,0,0)" clip-path="url(#94008638629757clip-0)"/><line x1="262.5" y1="398.5" x2="337.5" y2="398.5" style="stroke-width: 1.0;stroke: rgb(0,0,0);stroke-opacity: 1.0;" transform="matrix(1,0,0,1,0,0)" clip-path="url(#94008638629757clip-0)"/><line x1="262.5" y1="398.5" x2="262.5" y2="373.83" style="stroke-width: 1.0;stroke: rgb(0,0,0);stroke-opacity: 1.0;" transform="matrix(1,0,0,1,0,0)" clip-path="url(#94008638629757clip-0)"/><line x1="337.5" y1="398.5" x2="337.5" y2="373.83" style="stroke-width: 1.0;stroke: rgb(0,0,0);stroke-opacity: 1.0;" transform="matrix(1,0,0,1,0,0)" clip-path="url(#94008638629757clip-0)"/><g style="fill: rgb(192,192,192); fill-opacity: 1.0; stroke: none" transform="matrix(1,0,0,1,0,0)" clip-path="url(#94008638629757clip-0)"><path d="M 266 382.17 L 274 382.17 L 274 390.17 L 266 390.17 L 266 382.17 M 266 382.17"/></g><g style="stroke-width: 1.0;stroke: rgb(0,0,0);stroke-opacity: 1.0;; fill: none" transform="matrix(1,0,0,1,0,0)" clip-path="url(#94008638629757clip-0)"><path d="M 266 382.17 L 274 382.17 L 274 390.17 L 266 390.17 L 266 382.17 M 266 382.17"/></g><g style="fill: rgb(0,0,0); fill-opacity: 1.0; stroke: none" transform="matrix(1,0,0,1,0,0)" clip-path="url(#94008638629757clip-0)"><path d="M 281.52 392.11 Q 280.43 392.11 278.73 391.63 L 278.73 390.11 Q 280.56 390.96 281.74 390.96 Q 282.65 390.96 283.2 390.48 Q 283.76 390 283.76 389.23 Q 283.76 388.59 283.39 388.14 Q 283.03 387.7 282.06 387.15 L 281.31 386.72 Q 279.93 385.93 279.36 385.23 Q 278.79 384.53 278.79 383.6 Q 278.79 382.34 279.7 381.53 Q 280.61 380.73 282.01 380.73 Q 283.27 380.73 284.66 381.14 L 284.66 382.55 Q 282.94 381.88 282.1 381.88 Q 281.3 381.88 280.78 382.3 Q 280.26 382.72 280.26 383.37 Q 280.26 383.91 280.64 384.33 Q 281.02 384.75 282.04 385.32 L 282.81 385.76 Q 284.22 386.56 284.77 387.27 Q 285.33 387.98 285.33 388.98 Q 285.33 390.39 284.29 391.25 Q 283.24 392.11 281.52 392.11 M 281.52 392.11 M 294.27 391.58 Q 292.82 392.02 291.79 392.02 Q 290.03 392.02 288.92 390.85 Q 287.81 389.68 287.81 387.82 Q 287.81 386.01 288.79 384.86 Q 289.77 383.7 291.29 383.7 Q 292.73 383.7 293.52 384.72 Q 294.31 385.75 294.31 387.64 L 294.3 388.09 L 289.29 388.09 Q 289.6 390.92 292.06 390.92 Q 292.96 390.92 294.27 390.44 M 294.27 391.58 M 289.35 387 L 292.86 387 Q 292.86 384.78 291.2 384.78 Q 289.54 384.78 289.35 387 M 289.35 387 M 297.44 391.84 L 297.44 383.88 L 298.89 383.88 L 298.89 385.38 Q 299.74 383.71 301.38 383.71 Q 301.6 383.71 301.84 383.74 L 301.84 385.09 Q 301.46 384.97 301.18 384.97 Q 299.81 384.97 298.89 386.59 L 298.89 391.84 M 297.44 391.84 M 304.44 391.84 L 304.44 383.88 L 305.89 383.88 L 305.89 391.84 M 304.44 391.84 M 304.44 382.44 L 304.44 381 L 305.89 381 L 305.89 382.44 M 304.44 382.44 M 315.27 391.58 Q 313.82 392.02 312.79 392.02 Q 311.03 392.02 309.92 390.85 Q 308.81 389.68 308.81 387.82 Q 308.81 386.01 309.79 384.86 Q 310.77 383.7 312.29 383.7 Q 313.73 383.7 314.52 384.72 Q 315.31 385.75 315.31 387.64 L 315.3 388.09 L 310.29 388.09 Q 310.6 390.92 313.06 390.92 Q 313.96 390.92 315.27 390.44 M 315.27 391.58 M 310.35 387 L 313.86 387 Q 313.86 384.78 312.2 384.78 Q 310.54 384.78 310.35 387 M 310.35 387 M 320.55 392.02 Q 319.56 392.02 318.15 391.56 L 318.15 390.23 Q 319.56 390.94 320.61 390.94 Q 321.23 390.94 321.64 390.6 Q 322.05 390.26 322.05 389.76 Q 322.05 389.02 320.9 388.53 L 320.06 388.17 Q 318.19 387.4 318.19 385.94 Q 318.19 384.9 318.93 384.3 Q 319.67 383.71 320.95 383.71 Q 321.61 383.71 322.6 383.89 L 322.9 383.95 L 322.9 385.15 Q 321.69 384.79 320.98 384.79 Q 319.59 384.79 319.59 385.8 Q 319.59 386.45 320.64 386.9 L 321.34 387.19 Q 322.52 387.69 323.01 388.24 Q 323.5 388.8 323.5 389.62 Q 323.5 390.67 322.67 391.35 Q 321.84 392.02 320.55 392.02 M 320.55 392.02 M 332.26 391.84 L 332.26 390.75 L 334.42 390.75 L 334.42 382.2 L 332.26 382.74 L 332.26 381.63 L 335.87 380.73 L 335.87 390.75 L 338.04 390.75 L 338.04 391.84 M 332.26 391.84"/></g><rect x="58" y="23" width="534" height="305" style="fill: rgb(255,255,255); fill-opacity: 1.0" transform="matrix(1,0,0,1,0,0)" clip-path="url(#94008638629757clip-0)"/><line x1="58" y1="328" x2="592" y2="328" style="stroke-width: 1.0;stroke: rgb(128,128,128);stroke-opacity: 1.0;" transform="matrix(1,0,0,1,0,0)" clip-path="url(#94008638629757clip-0)"/><line x1="94.05" y1="328" x2="94.05" y2="328" style="stroke-width: 1.0;stroke: rgb(128,128,128);stroke-opacity: 1.0;" transform="matrix(1,0,0,1,0,0)" clip-path="url(#94008638629757clip-0)"/><line x1="94.05" y1="328" x2="94.05" y2="330" style="stroke-width: 1.0;stroke: rgb(128,128,128);stroke-opacity: 1.0;" transform="matrix(1,0,0,1,0,0)" clip-path="url(#94008638629757clip-0)"/><line x1="118.36" y1="328" x2="118.36" y2="328" style="stroke-width: 1.0;stroke: rgb(128,128,128);stroke-opacity: 1.0;" transform="matrix(1,0,0,1,0,0)" clip-path="url(#94008638629757clip-0)"/><line x1="118.36" y1="328" x2="118.36" y2="330" style="stroke-width: 1.0;stroke: rgb(128,128,128);stroke-opacity: 1.0;" transform="matrix(1,0,0,1,0,0)" clip-path="url(#94008638629757clip-0)"/><line x1="142.67" y1="328" x2="142.67" y2="328" style="stroke-width: 1.0;stroke: rgb(128,128,128);stroke-opacity: 1.0;" transform="matrix(1,0,0,1,0,0)" clip-path="url(#94008638629757clip-0)"/><line x1="142.67" y1="328" x2="142.67" y2="330" style="stroke-width: 1.0;stroke: rgb(128,128,128);stroke-opacity: 1.0;" transform="matrix(1,0,0,1,0,0)" clip-path="url(#94008638629757clip-0)"/><line x1="166.98" y1="328" x2="166.98" y2="328" style="stroke-width: 1.0;stroke: rgb(128,128,128);stroke-opacity: 1.0;" transform="matrix(1,0,0,1,0,0)" clip-path="url(#94008638629757clip-0)"/><line x1="166.98" y1="328" x2="166.98" y2="330" style="stroke-width: 1.0;stroke: rgb(128,128,128);stroke-opacity: 1.0;" transform="matrix(1,0,0,1,0,0)" clip-path="url(#94008638629757clip-0)"/><line x1="191.29" y1="328" x2="191.29" y2="328" style="stroke-width: 1.0;stroke: rgb(128,128,128);stroke-opacity: 1.0;" transform="matrix(1,0,0,1,0,0)" clip-path="url(#94008638629757clip-0)"/><line x1="191.29" y1="328" x2="191.29" y2="330" style="stroke-width: 1.0;stroke: rgb(128,128,128);stroke-opacity: 1.0;" transform="matrix(1,0,0,1,0,0)" clip-path="url(#94008638629757clip-0)"/><line x1="215.6" y1="328" x2="215.6" y2="328" style="stroke-width: 1.0;stroke: rgb(128,128,128);stroke-opacity: 1.0;" transform="matrix(1,0,0,1,0,0)" clip-path="url(#94008638629757clip-0)"/><line x1="215.6" y1="328" x2="215.6" y2="330" style="stroke-width: 1.0;stroke: rgb(128,128,128);stroke-opacity: 1.0;" transform="matrix(1,0,0,1,0,0)" clip-path="url(#94008638629757clip-0)"/><line x1="239.91" y1="328" x2="239.91" y2="328" style="stroke-width: 1.0;stroke: rgb(128,128,128);stroke-opacity: 1.0;" transform="matrix(1,0,0,1,0,0)" clip-path="url(#94008638629757clip-0)"/><line x1="239.91" y1="328" x2="239.91" y2="330" style="stroke-width: 1.0;stroke: rgb(128,128,128);stroke-opacity: 1.0;" transform="matrix(1,0,0,1,0,0)" clip-path="url(#94008638629757clip-0)"/><line x1="264.22" y1="328" x2="264.22" y2="328" style="stroke-width: 1.0;stroke: rgb(128,128,128);stroke-opacity: 1.0;" transform="matrix(1,0,0,1,0,0)" clip-path="url(#94008638629757clip-0)"/><line x1="264.22" y1="328" x2="264.22" y2="330" style="stroke-width: 1.0;stroke: rgb(128,128,128);stroke-opacity: 1.0;" transform="matrix(1,0,0,1,0,0)" clip-path="url(#94008638629757clip-0)"/><line x1="288.53" y1="328" x2="288.53" y2="328" style="stroke-width: 1.0;stroke: rgb(128,128,128);stroke-opacity: 1.0;" transform="matrix(1,0,0,1,0,0)" clip-path="url(#94008638629757clip-0)"/><line x1="288.53" y1="328" x2="288.53" y2="330" style="stroke-width: 1.0;stroke: rgb(128,128,128);stroke-opacity: 1.0;" transform="matrix(1,0,0,1,0,0)" clip-path="url(#94008638629757clip-0)"/><line x1="312.84" y1="328" x2="312.84" y2="328" style="stroke-width: 1.0;stroke: rgb(128,128,128);stroke-opacity: 1.0;" transform="matrix(1,0,0,1,0,0)" clip-path="url(#94008638629757clip-0)"/><line x1="312.84" y1="328" x2="312.84" y2="330" style="stroke-width: 1.0;stroke: rgb(128,128,128);stroke-opacity: 1.0;" transform="matrix(1,0,0,1,0,0)" clip-path="url(#94008638629757clip-0)"/><line x1="337.16" y1="328" x2="337.16" y2="328" style="stroke-width: 1.0;stroke: rgb(128,128,128);stroke-opacity: 1.0;" transform="matrix(1,0,0,1,0,0)" clip-path="url(#94008638629757clip-0)"/><line x1="337.16" y1="328" x2="337.16" y2="330" style="stroke-width: 1.0;stroke: rgb(128,128,128);stroke-opacity: 1.0;" transform="matrix(1,0,0,1,0,0)" clip-path="url(#94008638629757clip-0)"/><line x1="361.47" y1="328" x2="361.47" y2="328" style="stroke-width: 1.0;stroke: rgb(128,128,128);stroke-opacity: 1.0;" transform="matrix(1,0,0,1,0,0)" clip-path="url(#94008638629757clip-0)"/><line x1="361.47" y1="328" x2="361.47" y2="330" style="stroke-width: 1.0;stroke: rgb(128,128,128);stroke-opacity: 1.0;" transform="matrix(1,0,0,1,0,0)" clip-path="url(#94008638629757clip-0)"/><line x1="385.78" y1="328" x2="385.78" y2="328" style="stroke-width: 1.0;stroke: rgb(128,128,128);stroke-opacity: 1.0;" transform="matrix(1,0,0,1,0,0)" clip-path="url(#94008638629757clip-0)"/><line x1="385.78" y1="328" x2="385.78" y2="330" style="stroke-width: 1.0;stroke: rgb(128,128,128);stroke-opacity: 1.0;" transform="matrix(1,0,0,1,0,0)" clip-path="url(#94008638629757clip-0)"/><line x1="410.09" y1="328" x2="410.09" y2="328" style="stroke-width: 1.0;stroke: rgb(128,128,128);stroke-opacity: 1.0;" transform="matrix(1,0,0,1,0,0)" clip-path="url(#94008638629757clip-0)"/><line x1="410.09" y1="328" x2="410.09" y2="330" style="stroke-width: 1.0;stroke: rgb(128,128,128);stroke-opacity: 1.0;" transform="matrix(1,0,0,1,0,0)" clip-path="url(#94008638629757clip-0)"/><line x1="434.4" y1="328" x2="434.4" y2="328" style="stroke-width: 1.0;stroke: rgb(128,128,128);stroke-opacity: 1.0;" transform="matrix(1,0,0,1,0,0)" clip-path="url(#94008638629757clip-0)"/><line x1="434.4" y1="328" x2="434.4" y2="330" style="stroke-width: 1.0;stroke: rgb(128,128,128);stroke-opacity: 1.0;" transform="matrix(1,0,0,1,0,0)" clip-path="url(#94008638629757clip-0)"/><line x1="458.71" y1="328" x2="458.71" y2="328" style="stroke-width: 1.0;stroke: rgb(128,128,128);stroke-opacity: 1.0;" transform="matrix(1,0,0,1,0,0)" clip-path="url(#94008638629757clip-0)"/><line x1="458.71" y1="328" x2="458.71" y2="330" style="stroke-width: 1.0;stroke: rgb(128,128,128);stroke-opacity: 1.0;" transform="matrix(1,0,0,1,0,0)" clip-path="url(#94008638629757clip-0)"/><line x1="483.02" y1="328" x2="483.02" y2="328" style="stroke-width: 1.0;stroke: rgb(128,128,128);stroke-opacity: 1.0;" transform="matrix(1,0,0,1,0,0)" clip-path="url(#94008638629757clip-0)"/><line x1="483.02" y1="328" x2="483.02" y2="330" style="stroke-width: 1.0;stroke: rgb(128,128,128);stroke-opacity: 1.0;" transform="matrix(1,0,0,1,0,0)" clip-path="url(#94008638629757clip-0)"/><line x1="507.33" y1="328" x2="507.33" y2="328" style="stroke-width: 1.0;stroke: rgb(128,128,128);stroke-opacity: 1.0;" transform="matrix(1,0,0,1,0,0)" clip-path="url(#94008638629757clip-0)"/><line x1="507.33" y1="328" x2="507.33" y2="330" style="stroke-width: 1.0;stroke: rgb(128,128,128);stroke-opacity: 1.0;" transform="matrix(1,0,0,1,0,0)" clip-path="url(#94008638629757clip-0)"/><line x1="531.64" y1="328" x2="531.64" y2="328" style="stroke-width: 1.0;stroke: rgb(128,128,128);stroke-opacity: 1.0;" transform="matrix(1,0,0,1,0,0)" clip-path="url(#94008638629757clip-0)"/><line x1="531.64" y1="328" x2="531.64" y2="330" style="stroke-width: 1.0;stroke: rgb(128,128,128);stroke-opacity: 1.0;" transform="matrix(1,0,0,1,0,0)" clip-path="url(#94008638629757clip-0)"/><line x1="555.96" y1="328" x2="555.96" y2="328" style="stroke-width: 1.0;stroke: rgb(128,128,128);stroke-opacity: 1.0;" transform="matrix(1,0,0,1,0,0)" clip-path="url(#94008638629757clip-0)"/><line x1="555.96" y1="328" x2="555.96" y2="330" style="stroke-width: 1.0;stroke: rgb(128,128,128);stroke-opacity: 1.0;" transform="matrix(1,0,0,1,0,0)" clip-path="url(#94008638629757clip-0)"/><g style="fill: rgb(0,0,0); fill-opacity: 1.0; stroke: none" transform="matrix(1,0,0,1,0,0)" clip-path="url(#94008638629757clip-0)"><path d="M 92.55 343.67 L 92.55 342.95 L 93.99 342.95 L 93.99 337.24 L 92.55 337.6 L 92.55 336.86 L 94.96 336.26 L 94.96 342.95 L 96.41 342.95 L 96.41 343.67 M 92.55 343.67"/></g><g style="fill: rgb(0,0,0); fill-opacity: 1.0; stroke: none" transform="matrix(1,0,0,1,0,0)" clip-path="url(#94008638629757clip-0)"><path d="M 116.19 343.67 L 116.19 342.82 Q 116.61 341.84 117.89 340.68 L 118.44 340.19 Q 119.5 339.23 119.5 338.28 Q 119.5 337.68 119.14 337.33 Q 118.77 336.98 118.14 336.98 Q 117.39 336.98 116.37 337.56 L 116.37 336.71 Q 117.33 336.26 118.28 336.26 Q 119.29 336.26 119.91 336.81 Q 120.52 337.35 120.52 338.26 Q 120.52 338.91 120.21 339.41 Q 119.9 339.91 119.06 340.63 L 118.69 340.95 Q 117.53 341.93 117.35 342.82 L 120.49 342.82 L 120.49 343.67 M 116.19 343.67"/></g><g style="fill: rgb(0,0,0); fill-opacity: 1.0; stroke: none" transform="matrix(1,0,0,1,0,0)" clip-path="url(#94008638629757clip-0)"><path d="M 140.68 343.61 L 140.68 342.72 Q 141.72 343.13 142.31 343.13 Q 143 343.13 143.43 342.72 Q 143.87 342.32 143.87 341.68 Q 143.87 340.16 141.73 340.16 L 141.35 340.16 L 141.35 339.51 L 141.69 339.5 Q 143.69 339.5 143.69 338.09 Q 143.69 336.98 142.37 336.98 Q 141.65 336.98 140.78 337.39 L 140.78 336.55 Q 141.63 336.26 142.44 336.26 Q 144.66 336.26 144.66 337.94 Q 144.66 339.21 143.15 339.75 Q 144.9 340.16 144.9 341.67 Q 144.9 342.69 144.22 343.27 Q 143.55 343.85 142.37 343.85 Q 141.7 343.85 140.68 343.61 M 140.68 343.61"/></g><g style="fill: rgb(0,0,0); fill-opacity: 1.0; stroke: none" transform="matrix(1,0,0,1,0,0)" clip-path="url(#94008638629757clip-0)"><path d="M 167.74 343.67 L 167.74 341.62 L 164.49 341.62 L 164.49 340.89 L 167.74 336.44 L 168.65 336.44 L 168.65 340.84 L 169.61 340.84 L 169.61 341.62 L 168.65 341.62 L 168.65 343.67 M 167.74 343.67 M 165.43 340.84 L 167.81 340.84 L 167.81 337.62 M 165.43 340.84"/></g><g style="fill: rgb(0,0,0); fill-opacity: 1.0; stroke: none" transform="matrix(1,0,0,1,0,0)" clip-path="url(#94008638629757clip-0)"><path d="M 189.51 343.7 L 189.51 342.84 Q 190.22 343.13 190.87 343.13 Q 191.59 343.13 191.99 342.71 Q 192.4 342.29 192.4 341.55 Q 192.4 339.92 190.16 339.92 Q 189.91 339.92 189.63 339.96 L 189.63 336.44 L 193.28 336.44 L 193.28 337.28 L 190.47 337.28 L 190.47 339.19 Q 191.86 339.19 192.64 339.83 Q 193.43 340.46 193.43 341.6 Q 193.43 342.65 192.72 343.25 Q 192.01 343.85 190.75 343.85 Q 190.2 343.85 189.51 343.7 M 189.51 343.7"/></g><g style="fill: rgb(0,0,0); fill-opacity: 1.0; stroke: none" transform="matrix(1,0,0,1,0,0)" clip-path="url(#94008638629757clip-0)"><path d="M 214.32 339.92 Q 215.01 339.03 216.05 339.03 Q 217 339.03 217.6 339.66 Q 218.21 340.28 218.21 341.27 Q 218.21 342.39 217.53 343.12 Q 216.85 343.85 215.81 343.85 Q 214.62 343.85 213.94 342.89 Q 213.27 341.92 213.27 340.22 Q 213.27 338.34 214.04 337.3 Q 214.82 336.26 216.22 336.26 Q 216.87 336.26 217.83 336.53 L 217.83 337.37 Q 216.81 336.98 216.16 336.98 Q 214.32 336.98 214.32 339.92 M 214.32 339.92 M 217.24 341.48 Q 217.24 340.66 216.87 340.19 Q 216.5 339.72 215.85 339.72 Q 215.24 339.72 214.8 340.13 Q 214.36 340.54 214.36 341.12 Q 214.36 342.03 214.78 342.58 Q 215.19 343.13 215.88 343.13 Q 216.5 343.13 216.87 342.68 Q 217.24 342.23 217.24 341.48 M 217.24 341.48"/></g><g style="fill: rgb(0,0,0); fill-opacity: 1.0; stroke: none" transform="matrix(1,0,0,1,0,0)" clip-path="url(#94008638629757clip-0)"><path d="M 238.42 343.67 Q 238.56 342.82 238.82 342.21 Q 239.08 341.59 239.74 340.52 L 241.72 337.34 L 238 337.34 L 238 336.44 L 242.63 336.44 L 242.63 337.34 Q 239.86 341.44 239.52 343.67 M 238.42 343.67"/></g><g style="fill: rgb(0,0,0); fill-opacity: 1.0; stroke: none" transform="matrix(1,0,0,1,0,0)" clip-path="url(#94008638629757clip-0)"><path d="M 263.52 339.73 Q 262.46 339 262.46 338.1 Q 262.46 337.28 263.06 336.77 Q 263.66 336.26 264.63 336.26 Q 265.52 336.26 266.08 336.69 Q 266.63 337.12 266.63 337.82 Q 266.63 338.87 265.28 339.73 Q 266.92 340.53 266.92 341.8 Q 266.92 342.71 266.23 343.28 Q 265.55 343.85 264.46 343.85 Q 263.4 343.85 262.74 343.31 Q 262.09 342.77 262.09 341.89 Q 262.09 340.59 263.52 339.73 M 263.52 339.73 M 264.75 339.43 Q 265.76 338.77 265.76 337.95 Q 265.76 337.52 265.42 337.25 Q 265.08 336.98 264.53 336.98 Q 264 336.98 263.67 337.24 Q 263.34 337.51 263.34 337.92 Q 263.34 338.33 263.64 338.65 Q 263.94 338.97 264.75 339.43 M 264.75 339.43 M 264.04 340.12 Q 263.46 340.57 263.26 340.91 Q 263.05 341.24 263.05 341.74 Q 263.05 342.36 263.45 342.74 Q 263.85 343.13 264.5 343.13 Q 265.13 343.13 265.53 342.8 Q 265.93 342.47 265.93 341.95 Q 265.93 341.53 265.68 341.24 Q 265.44 340.95 264.73 340.53 M 264.04 340.12"/></g><g style="fill: rgb(0,0,0); fill-opacity: 1.0; stroke: none" transform="matrix(1,0,0,1,0,0)" clip-path="url(#94008638629757clip-0)"><path d="M 286.67 343.62 L 286.67 342.81 Q 287.59 343.13 288.23 343.13 Q 289.13 343.13 289.64 342.36 Q 290.14 341.6 290.14 340.24 Q 289.41 341.14 288.48 341.14 Q 287.56 341.14 286.93 340.47 Q 286.3 339.8 286.3 338.83 Q 286.3 337.72 286.97 336.99 Q 287.65 336.26 288.67 336.26 Q 289.85 336.26 290.53 337.21 Q 291.21 338.15 291.21 339.79 Q 291.21 341.66 290.38 342.75 Q 289.55 343.85 288.14 343.85 Q 287.57 343.85 286.67 343.62 M 286.67 343.62 M 287.26 338.64 Q 287.26 339.48 287.63 339.96 Q 288 340.45 288.65 340.45 Q 289.26 340.45 289.7 340.03 Q 290.13 339.62 290.13 339.03 Q 290.13 338.11 289.71 337.54 Q 289.29 336.98 288.61 336.98 Q 287.98 336.98 287.62 337.43 Q 287.26 337.87 287.26 338.64 M 287.26 338.64"/></g><g style="fill: rgb(0,0,0); fill-opacity: 1.0; stroke: none" transform="matrix(1,0,0,1,0,0)" clip-path="url(#94008638629757clip-0)"><path d="M 308.35 343.67 L 308.35 342.95 L 309.79 342.95 L 309.79 337.24 L 308.35 337.6 L 308.35 336.86 L 310.76 336.26 L 310.76 342.95 L 312.21 342.95 L 312.21 343.67 M 308.35 343.67 M 315.98 343.85 Q 314.86 343.85 314.17 342.8 Q 313.48 341.74 313.48 340.05 Q 313.48 338.34 314.18 337.3 Q 314.87 336.26 316.01 336.26 Q 317.15 336.26 317.84 337.3 Q 318.54 338.34 318.54 340.04 Q 318.54 341.77 317.84 342.81 Q 317.15 343.85 315.98 343.85 M 315.98 343.85 M 315.99 343.13 Q 317.52 343.13 317.52 340.02 Q 317.52 336.98 316.01 336.98 Q 314.5 336.98 314.5 340.05 Q 314.5 343.13 315.99 343.13 M 315.99 343.13"/></g><g style="fill: rgb(0,0,0); fill-opacity: 1.0; stroke: none" transform="matrix(1,0,0,1,0,0)" clip-path="url(#94008638629757clip-0)"><path d="M 332.66 343.67 L 332.66 342.95 L 334.1 342.95 L 334.1 337.24 L 332.66 337.6 L 332.66 336.86 L 335.07 336.26 L 335.07 342.95 L 336.52 342.95 L 336.52 343.67 M 332.66 343.67 M 338.66 343.67 L 338.66 342.95 L 340.1 342.95 L 340.1 337.24 L 338.66 337.6 L 338.66 336.86 L 341.07 336.26 L 341.07 342.95 L 342.52 342.95 L 342.52 343.67 M 338.66 343.67"/></g><g style="fill: rgb(0,0,0); fill-opacity: 1.0; stroke: none" transform="matrix(1,0,0,1,0,0)" clip-path="url(#94008638629757clip-0)"><path d="M 356.97 343.67 L 356.97 342.95 L 358.42 342.95 L 358.42 337.24 L 356.97 337.6 L 356.97 336.86 L 359.38 336.26 L 359.38 342.95 L 360.83 342.95 L 360.83 343.67 M 356.97 343.67 M 362.3 343.67 L 362.3 342.82 Q 362.72 341.84 364 340.68 L 364.55 340.19 Q 365.61 339.23 365.61 338.28 Q 365.61 337.68 365.25 337.33 Q 364.88 336.98 364.25 336.98 Q 363.5 336.98 362.48 337.56 L 362.48 336.71 Q 363.44 336.26 364.39 336.26 Q 365.4 336.26 366.02 336.81 Q 366.63 337.35 366.63 338.26 Q 366.63 338.91 366.32 339.41 Q 366.01 339.91 365.17 340.63 L 364.8 340.95 Q 363.64 341.93 363.46 342.82 L 366.6 342.82 L 366.6 343.67 M 362.3 343.67"/></g><g style="fill: rgb(0,0,0); fill-opacity: 1.0; stroke: none" transform="matrix(1,0,0,1,0,0)" clip-path="url(#94008638629757clip-0)"><path d="M 381.28 343.67 L 381.28 342.95 L 382.73 342.95 L 382.73 337.24 L 381.28 337.6 L 381.28 336.86 L 383.69 336.26 L 383.69 342.95 L 385.14 342.95 L 385.14 343.67 M 381.28 343.67 M 386.79 343.61 L 386.79 342.72 Q 387.83 343.13 388.42 343.13 Q 389.11 343.13 389.54 342.72 Q 389.98 342.32 389.98 341.68 Q 389.98 340.16 387.84 340.16 L 387.46 340.16 L 387.46 339.51 L 387.8 339.5 Q 389.8 339.5 389.8 338.09 Q 389.8 336.98 388.48 336.98 Q 387.76 336.98 386.89 337.39 L 386.89 336.55 Q 387.75 336.26 388.55 336.26 Q 390.77 336.26 390.77 337.94 Q 390.77 339.21 389.26 339.75 Q 391.01 340.16 391.01 341.67 Q 391.01 342.69 390.33 343.27 Q 389.66 343.85 388.48 343.85 Q 387.81 343.85 386.79 343.61 M 386.79 343.61"/></g><g style="fill: rgb(0,0,0); fill-opacity: 1.0; stroke: none" transform="matrix(1,0,0,1,0,0)" clip-path="url(#94008638629757clip-0)"><path d="M 405.59 343.67 L 405.59 342.95 L 407.04 342.95 L 407.04 337.24 L 405.59 337.6 L 405.59 336.86 L 408 336.26 L 408 342.95 L 409.45 342.95 L 409.45 343.67 M 405.59 343.67 M 413.85 343.67 L 413.85 341.62 L 410.6 341.62 L 410.6 340.89 L 413.85 336.44 L 414.76 336.44 L 414.76 340.84 L 415.72 340.84 L 415.72 341.62 L 414.76 341.62 L 414.76 343.67 M 413.85 343.67 M 411.54 340.84 L 413.92 340.84 L 413.92 337.62 M 411.54 340.84"/></g><g style="fill: rgb(0,0,0); fill-opacity: 1.0; stroke: none" transform="matrix(1,0,0,1,0,0)" clip-path="url(#94008638629757clip-0)"><path d="M 429.9 343.67 L 429.9 342.95 L 431.35 342.95 L 431.35 337.24 L 429.9 337.6 L 429.9 336.86 L 432.32 336.26 L 432.32 342.95 L 433.76 342.95 L 433.76 343.67 M 429.9 343.67 M 435.62 343.7 L 435.62 342.84 Q 436.33 343.13 436.98 343.13 Q 437.7 343.13 438.1 342.71 Q 438.51 342.29 438.51 341.55 Q 438.51 339.92 436.27 339.92 Q 436.02 339.92 435.74 339.96 L 435.74 336.44 L 439.39 336.44 L 439.39 337.28 L 436.58 337.28 L 436.58 339.19 Q 437.97 339.19 438.76 339.83 Q 439.54 340.46 439.54 341.6 Q 439.54 342.65 438.83 343.25 Q 438.12 343.85 436.86 343.85 Q 436.31 343.85 435.62 343.7 M 435.62 343.7"/></g><g style="fill: rgb(0,0,0); fill-opacity: 1.0; stroke: none" transform="matrix(1,0,0,1,0,0)" clip-path="url(#94008638629757clip-0)"><path d="M 454.21 343.67 L 454.21 342.95 L 455.66 342.95 L 455.66 337.24 L 454.21 337.6 L 454.21 336.86 L 456.63 336.26 L 456.63 342.95 L 458.07 342.95 L 458.07 343.67 M 454.21 343.67 M 460.43 339.92 Q 461.12 339.03 462.16 339.03 Q 463.11 339.03 463.71 339.66 Q 464.32 340.28 464.32 341.27 Q 464.32 342.39 463.64 343.12 Q 462.96 343.85 461.92 343.85 Q 460.73 343.85 460.05 342.89 Q 459.38 341.92 459.38 340.22 Q 459.38 338.34 460.15 337.3 Q 460.93 336.26 462.33 336.26 Q 462.98 336.26 463.95 336.53 L 463.95 337.37 Q 462.92 336.98 462.28 336.98 Q 460.43 336.98 460.43 339.92 M 460.43 339.92 M 463.35 341.48 Q 463.35 340.66 462.98 340.19 Q 462.61 339.72 461.96 339.72 Q 461.35 339.72 460.91 340.13 Q 460.47 340.54 460.47 341.12 Q 460.47 342.03 460.89 342.58 Q 461.3 343.13 461.99 343.13 Q 462.61 343.13 462.98 342.68 Q 463.35 342.23 463.35 341.48 M 463.35 341.48"/></g><g style="fill: rgb(0,0,0); fill-opacity: 1.0; stroke: none" transform="matrix(1,0,0,1,0,0)" clip-path="url(#94008638629757clip-0)"><path d="M 478.53 343.67 L 478.53 342.95 L 479.97 342.95 L 479.97 337.24 L 478.53 337.6 L 478.53 336.86 L 480.94 336.26 L 480.94 342.95 L 482.38 342.95 L 482.38 343.67 M 478.53 343.67 M 484.53 343.67 Q 484.67 342.82 484.93 342.21 Q 485.19 341.59 485.85 340.52 L 487.83 337.34 L 484.11 337.34 L 484.11 336.44 L 488.74 336.44 L 488.74 337.34 Q 485.97 341.44 485.63 343.67 M 484.53 343.67"/></g><g style="fill: rgb(0,0,0); fill-opacity: 1.0; stroke: none" transform="matrix(1,0,0,1,0,0)" clip-path="url(#94008638629757clip-0)"><path d="M 502.84 343.67 L 502.84 342.95 L 504.28 342.95 L 504.28 337.24 L 502.84 337.6 L 502.84 336.86 L 505.25 336.26 L 505.25 342.95 L 506.69 342.95 L 506.69 343.67 M 502.84 343.67 M 509.63 339.73 Q 508.57 339 508.57 338.1 Q 508.57 337.28 509.17 336.77 Q 509.77 336.26 510.74 336.26 Q 511.63 336.26 512.19 336.69 Q 512.74 337.12 512.74 337.82 Q 512.74 338.87 511.4 339.73 Q 513.03 340.53 513.03 341.8 Q 513.03 342.71 512.35 343.28 Q 511.66 343.85 510.58 343.85 Q 509.51 343.85 508.85 343.31 Q 508.2 342.77 508.2 341.89 Q 508.2 340.59 509.63 339.73 M 509.63 339.73 M 510.86 339.43 Q 511.87 338.77 511.87 337.95 Q 511.87 337.52 511.53 337.25 Q 511.2 336.98 510.64 336.98 Q 510.11 336.98 509.78 337.24 Q 509.45 337.51 509.45 337.92 Q 509.45 338.33 509.75 338.65 Q 510.05 338.97 510.86 339.43 M 510.86 339.43 M 510.16 340.12 Q 509.57 340.57 509.37 340.91 Q 509.16 341.24 509.16 341.74 Q 509.16 342.36 509.56 342.74 Q 509.96 343.13 510.61 343.13 Q 511.24 343.13 511.64 342.8 Q 512.04 342.47 512.04 341.95 Q 512.04 341.53 511.79 341.24 Q 511.55 340.95 510.84 340.53 M 510.16 340.12"/></g><g style="fill: rgb(0,0,0); fill-opacity: 1.0; stroke: none" transform="matrix(1,0,0,1,0,0)" clip-path="url(#94008638629757clip-0)"><path d="M 527.15 343.67 L 527.15 342.95 L 528.59 342.95 L 528.59 337.24 L 527.15 337.6 L 527.15 336.86 L 529.56 336.26 L 529.56 342.95 L 531.01 342.95 L 531.01 343.67 M 527.15 343.67 M 532.78 343.62 L 532.78 342.81 Q 533.7 343.13 534.34 343.13 Q 535.24 343.13 535.75 342.36 Q 536.25 341.6 536.25 340.24 Q 535.52 341.14 534.59 341.14 Q 533.68 341.14 533.04 340.47 Q 532.41 339.8 532.41 338.83 Q 532.41 337.72 533.08 336.99 Q 533.76 336.26 534.78 336.26 Q 535.96 336.26 536.64 337.21 Q 537.32 338.15 537.32 339.79 Q 537.32 341.66 536.49 342.75 Q 535.66 343.85 534.25 343.85 Q 533.68 343.85 532.78 343.62 M 532.78 343.62 M 533.37 338.64 Q 533.37 339.48 533.74 339.96 Q 534.11 340.45 534.76 340.45 Q 535.37 340.45 535.81 340.03 Q 536.24 339.62 536.24 339.03 Q 536.24 338.11 535.82 337.54 Q 535.4 336.98 534.72 336.98 Q 534.1 336.98 533.73 337.43 Q 533.37 337.87 533.37 338.64 M 533.37 338.64"/></g><g style="fill: rgb(0,0,0); fill-opacity: 1.0; stroke: none" transform="matrix(1,0,0,1,0,0)" clip-path="url(#94008638629757clip-0)"><path d="M 550.79 343.67 L 550.79 342.82 Q 551.21 341.84 552.48 340.68 L 553.04 340.19 Q 554.1 339.23 554.1 338.28 Q 554.1 337.68 553.74 337.33 Q 553.37 336.98 552.74 336.98 Q 551.99 336.98 550.97 337.56 L 550.97 336.71 Q 551.93 336.26 552.87 336.26 Q 553.89 336.26 554.51 336.81 Q 555.12 337.35 555.12 338.26 Q 555.12 338.91 554.81 339.41 Q 554.5 339.91 553.66 340.63 L 553.29 340.95 Q 552.13 341.93 551.95 342.82 L 555.09 342.82 L 555.09 343.67 M 550.79 343.67 M 559.09 343.85 Q 557.97 343.85 557.28 342.8 Q 556.59 341.74 556.59 340.05 Q 556.59 338.34 557.29 337.3 Q 557.98 336.26 559.12 336.26 Q 560.26 336.26 560.95 337.3 Q 561.65 338.34 561.65 340.04 Q 561.65 341.77 560.95 342.81 Q 560.26 343.85 559.09 343.85 M 559.09 343.85 M 559.1 343.13 Q 560.63 343.13 560.63 340.02 Q 560.63 336.98 559.12 336.98 Q 557.62 336.98 557.62 340.05 Q 557.62 343.13 559.1 343.13 M 559.1 343.13"/></g><g style="fill: rgb(0,0,0); fill-opacity: 1.0; stroke: none" transform="matrix(1,0,0,1,0,0)" clip-path="url(#94008638629757clip-0)"><path d="M 311.68 364.38 L 311.68 356.63 L 308.61 356.63 L 308.61 355.71 L 315.99 355.71 L 315.99 356.63 L 312.91 356.63 L 312.91 364.38 M 311.68 364.38 M 321.63 364.38 L 321.63 363.18 Q 320.71 364.53 319.4 364.53 Q 318.57 364.53 318.08 364 Q 317.58 363.48 317.58 362.59 L 317.58 358.02 L 318.74 358.02 L 318.74 362.21 Q 318.74 362.93 318.95 363.23 Q 319.15 363.53 319.64 363.53 Q 320.7 363.53 321.63 362.14 L 321.63 358.02 L 322.79 358.02 L 322.79 364.38 M 321.63 364.38 M 325.65 366.69 L 325.65 358.02 L 326.81 358.02 L 326.81 359.21 Q 327.52 357.88 328.94 357.88 Q 330.08 357.88 330.74 358.71 Q 331.4 359.55 331.4 361 Q 331.4 362.59 330.66 363.56 Q 329.91 364.53 328.69 364.53 Q 327.56 364.53 326.81 363.66 L 326.81 366.69 M 325.65 366.69 M 326.81 362.86 Q 327.7 363.66 328.51 363.66 Q 330.17 363.66 330.17 361.12 Q 330.17 358.88 328.7 358.88 Q 327.73 358.88 326.81 359.93 M 326.81 362.86 M 338.32 364.17 Q 337.16 364.53 336.33 364.53 Q 334.93 364.53 334.04 363.59 Q 333.15 362.66 333.15 361.17 Q 333.15 359.72 333.93 358.79 Q 334.71 357.87 335.93 357.87 Q 337.09 357.87 337.72 358.69 Q 338.35 359.51 338.35 361.02 L 338.34 361.38 L 334.33 361.38 Q 334.58 363.65 336.55 363.65 Q 337.27 363.65 338.32 363.26 M 338.32 364.17 M 334.38 360.51 L 337.19 360.51 Q 337.19 358.74 335.86 358.74 Q 334.53 358.74 334.38 360.51 M 334.38 360.51 M 340.65 364.38 L 340.65 355.13 L 341.81 355.13 L 341.81 364.38 M 340.65 364.38"/></g><line x1="58" y1="23" x2="58" y2="328" style="stroke-width: 1.0;stroke: rgb(128,128,128);stroke-opacity: 1.0;" transform="matrix(1,0,0,1,0,0)" clip-path="url(#94008638629757clip-0)"/><g style="fill: rgb(0,0,0); fill-opacity: 1.0; stroke: none" transform="matrix(1,0,0,1,0,0)" clip-path="url(#94008638629757clip-0)"><path d="M 28.13 331.96 Q 27.02 331.96 26.33 330.91 Q 25.63 329.86 25.63 328.16 Q 25.63 326.45 26.33 325.41 Q 27.03 324.37 28.16 324.37 Q 29.3 324.37 30 325.41 Q 30.69 326.45 30.69 328.15 Q 30.69 329.88 30 330.92 Q 29.3 331.96 28.13 331.96 M 28.13 331.96 M 28.14 331.24 Q 29.67 331.24 29.67 328.13 Q 29.67 325.09 28.16 325.09 Q 26.66 325.09 26.66 328.16 Q 26.66 331.24 28.14 331.24 M 28.14 331.24 M 31.98 331.78 L 31.98 330.57 L 33.18 330.57 L 33.18 331.78 M 31.98 331.78 M 37.13 331.96 Q 36.02 331.96 35.33 330.91 Q 34.63 329.86 34.63 328.16 Q 34.63 326.45 35.33 325.41 Q 36.03 324.37 37.16 324.37 Q 38.3 324.37 39 325.41 Q 39.69 326.45 39.69 328.15 Q 39.69 329.88 39 330.92 Q 38.3 331.96 37.13 331.96 M 37.13 331.96 M 37.14 331.24 Q 38.67 331.24 38.67 328.13 Q 38.67 325.09 37.16 325.09 Q 35.66 325.09 35.66 328.16 Q 35.66 331.24 37.14 331.24 M 37.14 331.24 M 43.13 331.96 Q 42.02 331.96 41.33 330.91 Q 40.63 329.86 40.63 328.16 Q 40.63 326.45 41.33 325.41 Q 42.03 324.37 43.16 324.37 Q 44.3 324.37 45 325.41 Q 45.69 326.45 45.69 328.15 Q 45.69 329.88 45 330.92 Q 44.3 331.96 43.13 331.96 M 43.13 331.96 M 43.14 331.24 Q 44.67 331.24 44.67 328.13 Q 44.67 325.09 43.16 325.09 Q 41.66 325.09 41.66 328.16 Q 41.66 331.24 43.14 331.24 M 43.14 331.24 M 49.13 331.96 Q 48.02 331.96 47.33 330.91 Q 46.63 329.86 46.63 328.16 Q 46.63 326.45 47.33 325.41 Q 48.03 324.37 49.16 324.37 Q 50.3 324.37 51 325.41 Q 51.69 326.45 51.69 328.15 Q 51.69 329.88 51 330.92 Q 50.3 331.96 49.13 331.96 M 49.13 331.96 M 49.14 331.24 Q 50.67 331.24 50.67 328.13 Q 50.67 325.09 49.16 325.09 Q 47.66 325.09 47.66 328.16 Q 47.66 331.24 49.14 331.24 M 49.14 331.24"/></g><line x1="56" y1="328" x2="58" y2="328" style="stroke-width: 1.0;stroke: rgb(128,128,128);stroke-opacity: 1.0;" transform="matrix(1,0,0,1,0,0)" clip-path="url(#94008638629757clip-0)"/><g style="fill: rgb(0,0,0); fill-opacity: 1.0; stroke: none" transform="matrix(1,0,0,1,0,0)" clip-path="url(#94008638629757clip-0)"><path d="M 28.13 295.17 Q 27.02 295.17 26.33 294.12 Q 25.63 293.07 25.63 291.37 Q 25.63 289.66 26.33 288.62 Q 27.03 287.58 28.16 287.58 Q 29.3 287.58 30 288.62 Q 30.69 289.66 30.69 291.36 Q 30.69 293.1 30 294.13 Q 29.3 295.17 28.13 295.17 M 28.13 295.17 M 28.14 294.45 Q 29.67 294.45 29.67 291.34 Q 29.67 288.31 28.16 288.31 Q 26.66 288.31 26.66 291.37 Q 26.66 294.45 28.14 294.45 M 28.14 294.45 M 31.98 294.99 L 31.98 293.79 L 33.18 293.79 L 33.18 294.99 M 31.98 294.99 M 37.13 295.17 Q 36.02 295.17 35.33 294.12 Q 34.63 293.07 34.63 291.37 Q 34.63 289.66 35.33 288.62 Q 36.03 287.58 37.16 287.58 Q 38.3 287.58 39 288.62 Q 39.69 289.66 39.69 291.36 Q 39.69 293.1 39 294.13 Q 38.3 295.17 37.13 295.17 M 37.13 295.17 M 37.14 294.45 Q 38.67 294.45 38.67 291.34 Q 38.67 288.31 37.16 288.31 Q 35.66 288.31 35.66 291.37 Q 35.66 294.45 37.14 294.45 M 37.14 294.45 M 40.83 294.99 L 40.83 294.15 Q 41.25 293.17 42.53 292.01 L 43.08 291.51 Q 44.15 290.55 44.15 289.61 Q 44.15 289 43.78 288.65 Q 43.42 288.31 42.78 288.31 Q 42.03 288.31 41.01 288.89 L 41.01 288.04 Q 41.97 287.58 42.92 287.58 Q 43.94 287.58 44.55 288.13 Q 45.17 288.68 45.17 289.58 Q 45.17 290.23 44.86 290.73 Q 44.55 291.24 43.7 291.95 L 43.33 292.27 Q 42.17 293.25 41.99 294.15 L 45.13 294.15 L 45.13 294.99 M 40.83 294.99 M 47.22 295.02 L 47.22 294.16 Q 47.93 294.45 48.58 294.45 Q 49.3 294.45 49.7 294.03 Q 50.11 293.61 50.11 292.87 Q 50.11 291.25 47.87 291.25 Q 47.62 291.25 47.34 291.28 L 47.34 287.76 L 51 287.76 L 51 288.6 L 48.18 288.6 L 48.18 290.51 Q 49.57 290.51 50.36 291.15 Q 51.14 291.79 51.14 292.92 Q 51.14 293.98 50.43 294.57 Q 49.72 295.17 48.46 295.17 Q 47.91 295.17 47.22 295.02 M 47.22 295.02"/></g><line x1="56" y1="291.21" x2="58" y2="291.21" style="stroke-width: 1.0;stroke: rgb(128,128,128);stroke-opacity: 1.0;" transform="matrix(1,0,0,1,0,0)" clip-path="url(#94008638629757clip-0)"/><g style="fill: rgb(0,0,0); fill-opacity: 1.0; stroke: none" transform="matrix(1,0,0,1,0,0)" clip-path="url(#94008638629757clip-0)"><path d="M 28.13 258.38 Q 27.02 258.38 26.33 257.33 Q 25.63 256.28 25.63 254.59 Q 25.63 252.88 26.33 251.84 Q 27.03 250.8 28.16 250.8 Q 29.3 250.8 30 251.84 Q 30.69 252.88 30.69 254.57 Q 30.69 256.31 30 257.35 Q 29.3 258.38 28.13 258.38 M 28.13 258.38 M 28.14 257.66 Q 29.67 257.66 29.67 254.56 Q 29.67 251.52 28.16 251.52 Q 26.66 251.52 26.66 254.59 Q 26.66 257.66 28.14 257.66 M 28.14 257.66 M 31.98 258.2 L 31.98 257 L 33.18 257 L 33.18 258.2 M 31.98 258.2 M 37.13 258.38 Q 36.02 258.38 35.33 257.33 Q 34.63 256.28 34.63 254.59 Q 34.63 252.88 35.33 251.84 Q 36.03 250.8 37.16 250.8 Q 38.3 250.8 39 251.84 Q 39.69 252.88 39.69 254.57 Q 39.69 256.31 39 257.35 Q 38.3 258.38 37.13 258.38 M 37.13 258.38 M 37.14 257.66 Q 38.67 257.66 38.67 254.56 Q 38.67 251.52 37.16 251.52 Q 35.66 251.52 35.66 254.59 Q 35.66 257.66 37.14 257.66 M 37.14 257.66 M 41.22 258.23 L 41.22 257.37 Q 41.93 257.66 42.58 257.66 Q 43.3 257.66 43.7 257.24 Q 44.11 256.82 44.11 256.08 Q 44.11 254.46 41.87 254.46 Q 41.62 254.46 41.34 254.49 L 41.34 250.98 L 45 250.98 L 45 251.82 L 42.18 251.82 L 42.18 253.72 Q 43.57 253.72 44.36 254.36 Q 45.14 255 45.14 256.13 Q 45.14 257.19 44.43 257.79 Q 43.72 258.38 42.46 258.38 Q 41.91 258.38 41.22 258.23 M 41.22 258.23 M 49.13 258.38 Q 48.02 258.38 47.33 257.33 Q 46.63 256.28 46.63 254.59 Q 46.63 252.88 47.33 251.84 Q 48.03 250.8 49.16 250.8 Q 50.3 250.8 51 251.84 Q 51.69 252.88 51.69 254.57 Q 51.69 256.31 51 257.35 Q 50.3 258.38 49.13 258.38 M 49.13 258.38 M 49.14 257.66 Q 50.67 257.66 50.67 254.56 Q 50.67 251.52 49.16 251.52 Q 47.66 251.52 47.66 254.59 Q 47.66 257.66 49.14 257.66 M 49.14 257.66"/></g><line x1="56" y1="254.42" x2="58" y2="254.42" style="stroke-width: 1.0;stroke: rgb(128,128,128);stroke-opacity: 1.0;" transform="matrix(1,0,0,1,0,0)" clip-path="url(#94008638629757clip-0)"/><g style="fill: rgb(0,0,0); fill-opacity: 1.0; stroke: none" transform="matrix(1,0,0,1,0,0)" clip-path="url(#94008638629757clip-0)"><path d="M 28.13 221.6 Q 27.02 221.6 26.33 220.54 Q 25.63 219.49 25.63 217.8 Q 25.63 216.09 26.33 215.05 Q 27.03 214.01 28.16 214.01 Q 29.3 214.01 30 215.05 Q 30.69 216.09 30.69 217.78 Q 30.69 219.52 30 220.56 Q 29.3 221.6 28.13 221.6 M 28.13 221.6 M 28.14 220.87 Q 29.67 220.87 29.67 217.77 Q 29.67 214.73 28.16 214.73 Q 26.66 214.73 26.66 217.8 Q 26.66 220.87 28.14 220.87 M 28.14 220.87 M 31.98 221.42 L 31.98 220.21 L 33.18 220.21 L 33.18 221.42 M 31.98 221.42 M 37.13 221.6 Q 36.02 221.6 35.33 220.54 Q 34.63 219.49 34.63 217.8 Q 34.63 216.09 35.33 215.05 Q 36.03 214.01 37.16 214.01 Q 38.3 214.01 39 215.05 Q 39.69 216.09 39.69 217.78 Q 39.69 219.52 39 220.56 Q 38.3 221.6 37.13 221.6 M 37.13 221.6 M 37.14 220.87 Q 38.67 220.87 38.67 217.77 Q 38.67 214.73 37.16 214.73 Q 35.66 214.73 35.66 217.8 Q 35.66 220.87 37.14 220.87 M 37.14 220.87 M 41.5 221.42 Q 41.65 220.57 41.91 219.96 Q 42.17 219.34 42.83 218.27 L 44.8 215.09 L 41.08 215.09 L 41.08 214.19 L 45.72 214.19 L 45.72 215.09 Q 42.94 219.19 42.61 221.42 M 41.5 221.42 M 47.22 221.44 L 47.22 220.59 Q 47.93 220.87 48.58 220.87 Q 49.3 220.87 49.7 220.45 Q 50.11 220.03 50.11 219.3 Q 50.11 217.67 47.87 217.67 Q 47.62 217.67 47.34 217.7 L 47.34 214.19 L 51 214.19 L 51 215.03 L 48.18 215.03 L 48.18 216.93 Q 49.57 216.93 50.36 217.57 Q 51.14 218.21 51.14 219.35 Q 51.14 220.4 50.43 221 Q 49.72 221.6 48.46 221.6 Q 47.91 221.6 47.22 221.44 M 47.22 221.44"/></g><line x1="56" y1="217.64" x2="58" y2="217.64" style="stroke-width: 1.0;stroke: rgb(128,128,128);stroke-opacity: 1.0;" transform="matrix(1,0,0,1,0,0)" clip-path="url(#94008638629757clip-0)"/><g style="fill: rgb(0,0,0); fill-opacity: 1.0; stroke: none" transform="matrix(1,0,0,1,0,0)" clip-path="url(#94008638629757clip-0)"><path d="M 28.13 184.81 Q 27.02 184.81 26.33 183.76 Q 25.63 182.7 25.63 181.01 Q 25.63 179.3 26.33 178.26 Q 27.03 177.22 28.16 177.22 Q 29.3 177.22 30 178.26 Q 30.69 179.3 30.69 180.99 Q 30.69 182.73 30 183.77 Q 29.3 184.81 28.13 184.81 M 28.13 184.81 M 28.14 184.09 Q 29.67 184.09 29.67 180.98 Q 29.67 177.94 28.16 177.94 Q 26.66 177.94 26.66 181.01 Q 26.66 184.09 28.14 184.09 M 28.14 184.09 M 31.98 184.63 L 31.98 183.42 L 33.18 183.42 L 33.18 184.63 M 31.98 184.63 M 35.5 184.63 L 35.5 183.9 L 36.95 183.9 L 36.95 178.2 L 35.5 178.56 L 35.5 177.82 L 37.92 177.22 L 37.92 183.9 L 39.36 183.9 L 39.36 184.63 M 35.5 184.63 M 43.13 184.81 Q 42.02 184.81 41.33 183.76 Q 40.63 182.7 40.63 181.01 Q 40.63 179.3 41.33 178.26 Q 42.03 177.22 43.16 177.22 Q 44.3 177.22 45 178.26 Q 45.69 179.3 45.69 180.99 Q 45.69 182.73 45 183.77 Q 44.3 184.81 43.13 184.81 M 43.13 184.81 M 43.14 184.09 Q 44.67 184.09 44.67 180.98 Q 44.67 177.94 43.16 177.94 Q 41.66 177.94 41.66 181.01 Q 41.66 184.09 43.14 184.09 M 43.14 184.09 M 49.13 184.81 Q 48.02 184.81 47.33 183.76 Q 46.63 182.7 46.63 181.01 Q 46.63 179.3 47.33 178.26 Q 48.03 177.22 49.16 177.22 Q 50.3 177.22 51 178.26 Q 51.69 179.3 51.69 180.99 Q 51.69 182.73 51 183.77 Q 50.3 184.81 49.13 184.81 M 49.13 184.81 M 49.14 184.09 Q 50.67 184.09 50.67 180.98 Q 50.67 177.94 49.16 177.94 Q 47.66 177.94 47.66 181.01 Q 47.66 184.09 49.14 184.09 M 49.14 184.09"/></g><line x1="56" y1="180.85" x2="58" y2="180.85" style="stroke-width: 1.0;stroke: rgb(128,128,128);stroke-opacity: 1.0;" transform="matrix(1,0,0,1,0,0)" clip-path="url(#94008638629757clip-0)"/><g style="fill: rgb(0,0,0); fill-opacity: 1.0; stroke: none" transform="matrix(1,0,0,1,0,0)" clip-path="url(#94008638629757clip-0)"><path d="M 28.13 148.02 Q 27.02 148.02 26.33 146.97 Q 25.63 145.92 25.63 144.22 Q 25.63 142.51 26.33 141.47 Q 27.03 140.43 28.16 140.43 Q 29.3 140.43 30 141.47 Q 30.69 142.51 30.69 144.21 Q 30.69 145.94 30 146.98 Q 29.3 148.02 28.13 148.02 M 28.13 148.02 M 28.14 147.3 Q 29.67 147.3 29.67 144.19 Q 29.67 141.15 28.16 141.15 Q 26.66 141.15 26.66 144.22 Q 26.66 147.3 28.14 147.3 M 28.14 147.3 M 31.98 147.84 L 31.98 146.63 L 33.18 146.63 L 33.18 147.84 M 31.98 147.84 M 35.5 147.84 L 35.5 147.12 L 36.95 147.12 L 36.95 141.41 L 35.5 141.77 L 35.5 141.03 L 37.92 140.43 L 37.92 147.12 L 39.36 147.12 L 39.36 147.84 M 35.5 147.84 M 40.83 147.84 L 40.83 146.99 Q 41.25 146.01 42.53 144.86 L 43.08 144.36 Q 44.15 143.4 44.15 142.45 Q 44.15 141.85 43.78 141.5 Q 43.42 141.15 42.78 141.15 Q 42.03 141.15 41.01 141.74 L 41.01 140.89 Q 41.97 140.43 42.92 140.43 Q 43.94 140.43 44.55 140.98 Q 45.17 141.53 45.17 142.43 Q 45.17 143.08 44.86 143.58 Q 44.55 144.08 43.7 144.8 L 43.33 145.12 Q 42.17 146.1 41.99 146.99 L 45.13 146.99 L 45.13 147.84 M 40.83 147.84 M 47.22 147.87 L 47.22 147.01 Q 47.93 147.3 48.58 147.3 Q 49.3 147.3 49.7 146.88 Q 50.11 146.46 50.11 145.72 Q 50.11 144.09 47.87 144.09 Q 47.62 144.09 47.34 144.13 L 47.34 140.61 L 51 140.61 L 51 141.45 L 48.18 141.45 L 48.18 143.36 Q 49.57 143.36 50.36 144 Q 51.14 144.64 51.14 145.77 Q 51.14 146.82 50.43 147.42 Q 49.72 148.02 48.46 148.02 Q 47.91 148.02 47.22 147.87 M 47.22 147.87"/></g><line x1="56" y1="144.06" x2="58" y2="144.06" style="stroke-width: 1.0;stroke: rgb(128,128,128);stroke-opacity: 1.0;" transform="matrix(1,0,0,1,0,0)" clip-path="url(#94008638629757clip-0)"/><g style="fill: rgb(0,0,0); fill-opacity: 1.0; stroke: none" transform="matrix(1,0,0,1,0,0)" clip-path="url(#94008638629757clip-0)"><path d="M 28.13 111.23 Q 27.02 111.23 26.33 110.18 Q 25.63 109.13 25.63 107.43 Q 25.63 105.72 26.33 104.68 Q 27.03 103.64 28.16 103.64 Q 29.3 103.64 30 104.68 Q 30.69 105.72 30.69 107.42 Q 30.69 109.16 30 110.19 Q 29.3 111.23 28.13 111.23 M 28.13 111.23 M 28.14 110.51 Q 29.67 110.51 29.67 107.4 Q 29.67 104.37 28.16 104.37 Q 26.66 104.37 26.66 107.43 Q 26.66 110.51 28.14 110.51 M 28.14 110.51 M 31.98 111.05 L 31.98 109.85 L 33.18 109.85 L 33.18 111.05 M 31.98 111.05 M 35.5 111.05 L 35.5 110.33 L 36.95 110.33 L 36.95 104.63 L 35.5 104.99 L 35.5 104.24 L 37.92 103.64 L 37.92 110.33 L 39.36 110.33 L 39.36 111.05 M 35.5 111.05 M 41.22 111.08 L 41.22 110.22 Q 41.93 110.51 42.58 110.51 Q 43.3 110.51 43.7 110.09 Q 44.11 109.67 44.11 108.93 Q 44.11 107.31 41.87 107.31 Q 41.62 107.31 41.34 107.34 L 41.34 103.82 L 45 103.82 L 45 104.66 L 42.18 104.66 L 42.18 106.57 Q 43.57 106.57 44.36 107.21 Q 45.14 107.85 45.14 108.98 Q 45.14 110.04 44.43 110.63 Q 43.72 111.23 42.46 111.23 Q 41.91 111.23 41.22 111.08 M 41.22 111.08 M 49.13 111.23 Q 48.02 111.23 47.33 110.18 Q 46.63 109.13 46.63 107.43 Q 46.63 105.72 47.33 104.68 Q 48.03 103.64 49.16 103.64 Q 50.3 103.64 51 104.68 Q 51.69 105.72 51.69 107.42 Q 51.69 109.16 51 110.19 Q 50.3 111.23 49.13 111.23 M 49.13 111.23 M 49.14 110.51 Q 50.67 110.51 50.67 107.4 Q 50.67 104.37 49.16 104.37 Q 47.66 104.37 47.66 107.43 Q 47.66 110.51 49.14 110.51 M 49.14 110.51"/></g><line x1="56" y1="107.27" x2="58" y2="107.27" style="stroke-width: 1.0;stroke: rgb(128,128,128);stroke-opacity: 1.0;" transform="matrix(1,0,0,1,0,0)" clip-path="url(#94008638629757clip-0)"/><g style="fill: rgb(0,0,0); fill-opacity: 1.0; stroke: none" transform="matrix(1,0,0,1,0,0)" clip-path="url(#94008638629757clip-0)"><path d="M 28.13 74.44 Q 27.02 74.44 26.33 73.39 Q 25.63 72.34 25.63 70.65 Q 25.63 68.94 26.33 67.9 Q 27.03 66.86 28.16 66.86 Q 29.3 66.86 30 67.9 Q 30.69 68.94 30.69 70.63 Q 30.69 72.37 30 73.41 Q 29.3 74.44 28.13 74.44 M 28.13 74.44 M 28.14 73.72 Q 29.67 73.72 29.67 70.62 Q 29.67 67.58 28.16 67.58 Q 26.66 67.58 26.66 70.65 Q 26.66 73.72 28.14 73.72 M 28.14 73.72 M 31.98 74.26 L 31.98 73.06 L 33.18 73.06 L 33.18 74.26 M 31.98 74.26 M 35.5 74.26 L 35.5 73.54 L 36.95 73.54 L 36.95 67.84 L 35.5 68.2 L 35.5 67.46 L 37.92 66.86 L 37.92 73.54 L 39.36 73.54 L 39.36 74.26 M 35.5 74.26 M 41.5 74.26 Q 41.65 73.42 41.91 72.8 Q 42.17 72.19 42.83 71.11 L 44.8 67.94 L 41.08 67.94 L 41.08 67.04 L 45.72 67.04 L 45.72 67.94 Q 42.94 72.04 42.61 74.26 M 41.5 74.26 M 47.22 74.29 L 47.22 73.43 Q 47.93 73.72 48.58 73.72 Q 49.3 73.72 49.7 73.3 Q 50.11 72.88 50.11 72.14 Q 50.11 70.52 47.87 70.52 Q 47.62 70.52 47.34 70.55 L 47.34 67.04 L 51 67.04 L 51 67.88 L 48.18 67.88 L 48.18 69.78 Q 49.57 69.78 50.36 70.42 Q 51.14 71.06 51.14 72.19 Q 51.14 73.25 50.43 73.85 Q 49.72 74.44 48.46 74.44 Q 47.91 74.44 47.22 74.29 M 47.22 74.29"/></g><line x1="56" y1="70.48" x2="58" y2="70.48" style="stroke-width: 1.0;stroke: rgb(128,128,128);stroke-opacity: 1.0;" transform="matrix(1,0,0,1,0,0)" clip-path="url(#94008638629757clip-0)"/><g style="fill: rgb(0,0,0); fill-opacity: 1.0; stroke: none" transform="matrix(1,0,0,1,0,0)" clip-path="url(#94008638629757clip-0)"><path d="M 28.13 37.66 Q 27.02 37.66 26.33 36.6 Q 25.63 35.55 25.63 33.86 Q 25.63 32.15 26.33 31.11 Q 27.03 30.07 28.16 30.07 Q 29.3 30.07 30 31.11 Q 30.69 32.15 30.69 33.84 Q 30.69 35.58 30 36.62 Q 29.3 37.66 28.13 37.66 M 28.13 37.66 M 28.14 36.93 Q 29.67 36.93 29.67 33.83 Q 29.67 30.79 28.16 30.79 Q 26.66 30.79 26.66 33.86 Q 26.66 36.93 28.14 36.93 M 28.14 36.93 M 31.98 37.48 L 31.98 36.27 L 33.18 36.27 L 33.18 37.48 M 31.98 37.48 M 34.83 37.48 L 34.83 36.63 Q 35.25 35.65 36.53 34.49 L 37.08 34 Q 38.15 33.04 38.15 32.09 Q 38.15 31.48 37.78 31.14 Q 37.42 30.79 36.78 30.79 Q 36.03 30.79 35.01 31.37 L 35.01 30.52 Q 35.97 30.07 36.92 30.07 Q 37.94 30.07 38.55 30.61 Q 39.17 31.16 39.17 32.07 Q 39.17 32.71 38.86 33.22 Q 38.55 33.72 37.7 34.44 L 37.33 34.76 Q 36.17 35.74 35.99 36.63 L 39.13 36.63 L 39.13 37.48 M 34.83 37.48 M 43.13 37.66 Q 42.02 37.66 41.33 36.6 Q 40.63 35.55 40.63 33.86 Q 40.63 32.15 41.33 31.11 Q 42.03 30.07 43.16 30.07 Q 44.3 30.07 45 31.11 Q 45.69 32.15 45.69 33.84 Q 45.69 35.58 45 36.62 Q 44.3 37.66 43.13 37.66 M 43.13 37.66 M 43.14 36.93 Q 44.67 36.93 44.67 33.83 Q 44.67 30.79 43.16 30.79 Q 41.66 30.79 41.66 33.86 Q 41.66 36.93 43.14 36.93 M 43.14 36.93 M 49.13 37.66 Q 48.02 37.66 47.33 36.6 Q 46.63 35.55 46.63 33.86 Q 46.63 32.15 47.33 31.11 Q 48.03 30.07 49.16 30.07 Q 50.3 30.07 51 31.11 Q 51.69 32.15 51.69 33.84 Q 51.69 35.58 51 36.62 Q 50.3 37.66 49.13 37.66 M 49.13 37.66 M 49.14 36.93 Q 50.67 36.93 50.67 33.83 Q 50.67 30.79 49.16 30.79 Q 47.66 30.79 47.66 33.86 Q 47.66 36.93 49.14 36.93 M 49.14 36.93"/></g><line x1="56" y1="33.7" x2="58" y2="33.7" style="stroke-width: 1.0;stroke: rgb(128,128,128);stroke-opacity: 1.0;" transform="matrix(1,0,0,1,0,0)" clip-path="url(#94008638629757clip-0)"/><g style="fill: rgb(0,0,0); fill-opacity: 1.0; stroke: none" transform="matrix(0,-1,1,0,-162.566406,188.433594)" clip-path="url(#94008638629757clip-1)"><path d="M 0.42 180.04 L -2.86 171.36 L -1.62 171.36 L 1.06 178.46 L 3.65 171.36 L 4.73 171.36 L 1.58 180.04 M 0.42 180.04 M 9.37 179.23 Q 8.33 180.18 7.37 180.18 Q 6.58 180.18 6.06 179.69 Q 5.54 179.19 5.54 178.44 Q 5.54 177.39 6.41 176.83 Q 7.29 176.27 8.92 176.27 L 9.2 176.27 L 9.2 175.51 Q 9.2 174.4 8.06 174.4 Q 7.15 174.4 6.09 174.96 L 6.09 174.01 Q 7.25 173.53 8.27 173.53 Q 9.34 173.53 9.85 174.01 Q 10.35 174.49 10.35 175.51 L 10.35 178.39 Q 10.35 179.38 10.96 179.38 Q 11.04 179.38 11.19 179.36 L 11.27 179.99 Q 10.88 180.18 10.4 180.18 Q 9.59 180.18 9.37 179.23 M 9.37 179.23 M 9.2 178.6 L 9.2 176.95 L 8.81 176.94 Q 7.86 176.94 7.28 177.3 Q 6.69 177.66 6.69 178.25 Q 6.69 178.66 6.98 178.95 Q 7.28 179.24 7.7 179.24 Q 8.42 179.24 9.2 178.6 M 9.2 178.6 M 13.09 180.04 L 13.09 170.78 L 14.24 170.78 L 14.24 180.04 M 13.09 180.04 M 21.07 180.04 L 21.07 178.84 Q 20.15 180.18 18.83 180.18 Q 18 180.18 17.51 179.66 Q 17.02 179.13 17.02 178.24 L 17.02 173.67 L 18.17 173.67 L 18.17 177.87 Q 18.17 178.58 18.38 178.88 Q 18.59 179.19 19.07 179.19 Q 20.13 179.19 21.07 177.8 L 21.07 173.67 L 22.22 173.67 L 22.22 180.04 M 21.07 180.04 M 29.75 179.83 Q 28.59 180.18 27.77 180.18 Q 26.36 180.18 25.47 179.25 Q 24.58 178.31 24.58 176.82 Q 24.58 175.38 25.37 174.45 Q 26.15 173.53 27.37 173.53 Q 28.52 173.53 29.15 174.35 Q 29.78 175.17 29.78 176.68 L 29.78 177.04 L 25.76 177.04 Q 26.01 179.3 27.98 179.3 Q 28.7 179.3 29.75 178.92 M 29.75 179.83 M 25.81 176.17 L 28.62 176.17 Q 28.62 174.39 27.3 174.39 Q 25.97 174.39 25.81 176.17 M 25.81 176.17"/></g><line x1="58" y1="328" x2="592" y2="328" style="stroke-width: 0.5;stroke: rgb(192,192,192);stroke-opacity: 1.0;stroke-dasharray: 2.0, 2.0;" transform="matrix(1,0,0,1,0,0)" clip-path="url(#94008638629757clip-2)"/><line x1="58" y1="291.21" x2="592" y2="291.21" style="stroke-width: 0.5;stroke: rgb(192,192,192);stroke-opacity: 1.0;stroke-dasharray: 2.0, 2.0;" transform="matrix(1,0,0,1,0,0)" clip-path="url(#94008638629757clip-2)"/><line x1="58" y1="254.42" x2="592" y2="254.42" style="stroke-width: 0.5;stroke: rgb(192,192,192);stroke-opacity: 1.0;stroke-dasharray: 2.0, 2.0;" transform="matrix(1,0,0,1,0,0)" clip-path="url(#94008638629757clip-2)"/><line x1="58" y1="217.64" x2="592" y2="217.64" style="stroke-width: 0.5;stroke: rgb(192,192,192);stroke-opacity: 1.0;stroke-dasharray: 2.0, 2.0;" transform="matrix(1,0,0,1,0,0)" clip-path="url(#94008638629757clip-2)"/><line x1="58" y1="180.85" x2="592" y2="180.85" style="stroke-width: 0.5;stroke: rgb(192,192,192);stroke-opacity: 1.0;stroke-dasharray: 2.0, 2.0;" transform="matrix(1,0,0,1,0,0)" clip-path="url(#94008638629757clip-2)"/><line x1="58" y1="144.06" x2="592" y2="144.06" style="stroke-width: 0.5;stroke: rgb(192,192,192);stroke-opacity: 1.0;stroke-dasharray: 2.0, 2.0;" transform="matrix(1,0,0,1,0,0)" clip-path="url(#94008638629757clip-2)"/><line x1="58" y1="107.27" x2="592" y2="107.27" style="stroke-width: 0.5;stroke: rgb(192,192,192);stroke-opacity: 1.0;stroke-dasharray: 2.0, 2.0;" transform="matrix(1,0,0,1,0,0)" clip-path="url(#94008638629757clip-2)"/><line x1="58" y1="70.48" x2="592" y2="70.48" style="stroke-width: 0.5;stroke: rgb(192,192,192);stroke-opacity: 1.0;stroke-dasharray: 2.0, 2.0;" transform="matrix(1,0,0,1,0,0)" clip-path="url(#94008638629757clip-2)"/><line x1="58" y1="33.7" x2="592" y2="33.7" style="stroke-width: 0.5;stroke: rgb(192,192,192);stroke-opacity: 1.0;stroke-dasharray: 2.0, 2.0;" transform="matrix(1,0,0,1,0,0)" clip-path="url(#94008638629757clip-2)"/><line x1="94.05" y1="37.93" x2="94.05" y2="37.93" style="stroke-width: 1.0;stroke: rgb(0,0,0);stroke-opacity: 1.0;" transform="matrix(1,0,0,1,0,0)" clip-path="url(#94008638629757clip-2)"/><line x1="84.7" y1="37.93" x2="103.39" y2="37.93" style="stroke-width: 1.0;stroke: rgb(0,0,0);stroke-opacity: 1.0;" transform="matrix(1,0,0,1,0,0)" clip-path="url(#94008638629757clip-2)"/><line x1="94.05" y1="37.93" x2="94.05" y2="37.93" style="stroke-width: 1.0;stroke: rgb(0,0,0);stroke-opacity: 1.0;" transform="matrix(1,0,0,1,0,0)" clip-path="url(#94008638629757clip-2)"/><line x1="84.7" y1="37.93" x2="103.39" y2="37.93" style="stroke-width: 1.0;stroke: rgb(0,0,0);stroke-opacity: 1.0;" transform="matrix(1,0,0,1,0,0)" clip-path="url(#94008638629757clip-2)"/><rect x="84.7" y="37.93" width="18.69" height="0" style="stroke-width: 1.0;stroke: rgb(0,0,0);stroke-opacity: 1.0;; fill: none" transform="matrix(1,0,0,1,0,0)" clip-path="url(#94008638629757clip-2)"/><line x1="84.7" y1="37.93" x2="103.39" y2="37.93" style="stroke-width: 1.0;stroke: rgb(0,0,0);stroke-opacity: 1.0;" transform="matrix(1,0,0,1,0,0)" clip-path="url(#94008638629757clip-2)"/><rect x="109.01" y="37.91" width="18.69" height="0.03" style="fill: rgb(192,192,192); fill-opacity: 1.0" transform="matrix(1,0,0,1,0,0)" clip-path="url(#94008638629757clip-2)"/><line x1="118.36" y1="37.9" x2="118.36" y2="37.91" style="stroke-width: 1.0;stroke: rgb(0,0,0);stroke-opacity: 1.0;" transform="matrix(1,0,0,1,0,0)" clip-path="url(#94008638629757clip-2)"/><line x1="109.01" y1="37.9" x2="127.7" y2="37.9" style="stroke-width: 1.0;stroke: rgb(0,0,0);stroke-opacity: 1.0;" transform="matrix(1,0,0,1,0,0)" clip-path="url(#94008638629757clip-2)"/><line x1="118.36" y1="37.96" x2="118.36" y2="37.95" style="stroke-width: 1.0;stroke: rgb(0,0,0);stroke-opacity: 1.0;" transform="matrix(1,0,0,1,0,0)" clip-path="url(#94008638629757clip-2)"/><line x1="109.01" y1="37.96" x2="127.7" y2="37.96" style="stroke-width: 1.0;stroke: rgb(0,0,0);stroke-opacity: 1.0;" transform="matrix(1,0,0,1,0,0)" clip-path="url(#94008638629757clip-2)"/><rect x="109.01" y="37.91" width="18.69" height="0.03" style="stroke-width: 1.0;stroke: rgb(0,0,0);stroke-opacity: 1.0;; fill: none" transform="matrix(1,0,0,1,0,0)" clip-path="url(#94008638629757clip-2)"/><line x1="109.01" y1="37.93" x2="127.7" y2="37.93" style="stroke-width: 1.0;stroke: rgb(0,0,0);stroke-opacity: 1.0;" transform="matrix(1,0,0,1,0,0)" clip-path="url(#94008638629757clip-2)"/><rect x="133.32" y="37.9" width="18.69" height="0.07" style="fill: rgb(192,192,192); fill-opacity: 1.0" transform="matrix(1,0,0,1,0,0)" clip-path="url(#94008638629757clip-2)"/><line x1="142.67" y1="37.87" x2="142.67" y2="37.9" style="stroke-width: 1.0;stroke: rgb(0,0,0);stroke-opacity: 1.0;" transform="matrix(1,0,0,1,0,0)" clip-path="url(#94008638629757clip-2)"/><line x1="133.32" y1="37.87" x2="152.01" y2="37.87" style="stroke-width: 1.0;stroke: rgb(0,0,0);stroke-opacity: 1.0;" transform="matrix(1,0,0,1,0,0)" clip-path="url(#94008638629757clip-2)"/><line x1="142.67" y1="37.96" x2="142.67" y2="37.96" style="stroke-width: 1.0;stroke: rgb(0,0,0);stroke-opacity: 1.0;" transform="matrix(1,0,0,1,0,0)" clip-path="url(#94008638629757clip-2)"/><line x1="133.32" y1="37.96" x2="152.01" y2="37.96" style="stroke-width: 1.0;stroke: rgb(0,0,0);stroke-opacity: 1.0;" transform="matrix(1,0,0,1,0,0)" clip-path="url(#94008638629757clip-2)"/><rect x="133.32" y="37.9" width="18.69" height="0.07" style="stroke-width: 1.0;stroke: rgb(0,0,0);stroke-opacity: 1.0;; fill: none" transform="matrix(1,0,0,1,0,0)" clip-path="url(#94008638629757clip-2)"/><line x1="133.32" y1="37.94" x2="152.01" y2="37.94" style="stroke-width: 1.0;stroke: rgb(0,0,0);stroke-opacity: 1.0;" transform="matrix(1,0,0,1,0,0)" clip-path="url(#94008638629757clip-2)"/><rect x="157.63" y="37.9" width="18.69" height="0.07" style="fill: rgb(192,192,192); fill-opacity: 1.0" transform="matrix(1,0,0,1,0,0)" clip-path="url(#94008638629757clip-2)"/><line x1="166.98" y1="37.86" x2="166.98" y2="37.9" style="stroke-width: 1.0;stroke: rgb(0,0,0);stroke-opacity: 1.0;" transform="matrix(1,0,0,1,0,0)" clip-path="url(#94008638629757clip-2)"/><line x1="157.63" y1="37.86" x2="176.32" y2="37.86" style="stroke-width: 1.0;stroke: rgb(0,0,0);stroke-opacity: 1.0;" transform="matrix(1,0,0,1,0,0)" clip-path="url(#94008638629757clip-2)"/><line x1="166.98" y1="37.98" x2="166.98" y2="37.96" style="stroke-width: 1.0;stroke: rgb(0,0,0);stroke-opacity: 1.0;" transform="matrix(1,0,0,1,0,0)" clip-path="url(#94008638629757clip-2)"/><line x1="157.63" y1="37.98" x2="176.32" y2="37.98" style="stroke-width: 1.0;stroke: rgb(0,0,0);stroke-opacity: 1.0;" transform="matrix(1,0,0,1,0,0)" clip-path="url(#94008638629757clip-2)"/><rect x="157.63" y="37.9" width="18.69" height="0.07" style="stroke-width: 1.0;stroke: rgb(0,0,0);stroke-opacity: 1.0;; fill: none" transform="matrix(1,0,0,1,0,0)" clip-path="url(#94008638629757clip-2)"/><line x1="157.63" y1="37.94" x2="176.32" y2="37.94" style="stroke-width: 1.0;stroke: rgb(0,0,0);stroke-opacity: 1.0;" transform="matrix(1,0,0,1,0,0)" clip-path="url(#94008638629757clip-2)"/><rect x="181.94" y="37.88" width="18.69" height="0.08" style="fill: rgb(192,192,192); fill-opacity: 1.0" transform="matrix(1,0,0,1,0,0)" clip-path="url(#94008638629757clip-2)"/><line x1="191.29" y1="37.85" x2="191.29" y2="37.88" style="stroke-width: 1.0;stroke: rgb(0,0,0);stroke-opacity: 1.0;" transform="matrix(1,0,0,1,0,0)" clip-path="url(#94008638629757clip-2)"/><line x1="181.94" y1="37.85" x2="200.63" y2="37.85" style="stroke-width: 1.0;stroke: rgb(0,0,0);stroke-opacity: 1.0;" transform="matrix(1,0,0,1,0,0)" clip-path="url(#94008638629757clip-2)"/><line x1="191.29" y1="38.03" x2="191.29" y2="37.96" style="stroke-width: 1.0;stroke: rgb(0,0,0);stroke-opacity: 1.0;" transform="matrix(1,0,0,1,0,0)" clip-path="url(#94008638629757clip-2)"/><line x1="181.94" y1="38.03" x2="200.63" y2="38.03" style="stroke-width: 1.0;stroke: rgb(0,0,0);stroke-opacity: 1.0;" transform="matrix(1,0,0,1,0,0)" clip-path="url(#94008638629757clip-2)"/><rect x="181.94" y="37.88" width="18.69" height="0.08" style="stroke-width: 1.0;stroke: rgb(0,0,0);stroke-opacity: 1.0;; fill: none" transform="matrix(1,0,0,1,0,0)" clip-path="url(#94008638629757clip-2)"/><line x1="181.94" y1="37.93" x2="200.63" y2="37.93" style="stroke-width: 1.0;stroke: rgb(0,0,0);stroke-opacity: 1.0;" transform="matrix(1,0,0,1,0,0)" clip-path="url(#94008638629757clip-2)"/><rect x="206.26" y="37.89" width="18.69" height="0.08" style="fill: rgb(192,192,192); fill-opacity: 1.0" transform="matrix(1,0,0,1,0,0)" clip-path="url(#94008638629757clip-2)"/><line x1="215.6" y1="37.85" x2="215.6" y2="37.89" style="stroke-width: 1.0;stroke: rgb(0,0,0);stroke-opacity: 1.0;" transform="matrix(1,0,0,1,0,0)" clip-path="url(#94008638629757clip-2)"/><line x1="206.26" y1="37.85" x2="224.95" y2="37.85" style="stroke-width: 1.0;stroke: rgb(0,0,0);stroke-opacity: 1.0;" transform="matrix(1,0,0,1,0,0)" clip-path="url(#94008638629757clip-2)"/><line x1="215.6" y1="38.03" x2="215.6" y2="37.97" style="stroke-width: 1.0;stroke: rgb(0,0,0);stroke-opacity: 1.0;" transform="matrix(1,0,0,1,0,0)" clip-path="url(#94008638629757clip-2)"/><line x1="206.26" y1="38.03" x2="224.95" y2="38.03" style="stroke-width: 1.0;stroke: rgb(0,0,0);stroke-opacity: 1.0;" transform="matrix(1,0,0,1,0,0)" clip-path="url(#94008638629757clip-2)"/><rect x="206.26" y="37.89" width="18.69" height="0.08" style="stroke-width: 1.0;stroke: rgb(0,0,0);stroke-opacity: 1.0;; fill: none" transform="matrix(1,0,0,1,0,0)" clip-path="url(#94008638629757clip-2)"/><line x1="206.26" y1="37.95" x2="224.95" y2="37.95" style="stroke-width: 1.0;stroke: rgb(0,0,0);stroke-opacity: 1.0;" transform="matrix(1,0,0,1,0,0)" clip-path="url(#94008638629757clip-2)"/><g style="stroke-width: 1.0;stroke: rgb(192,192,192);stroke-opacity: 1.0;; fill: none" transform="matrix(1,0,0,1,0,0)" clip-path="url(#94008638629757clip-2)"><path d="M 218.72 34.64 C 218.72 36.36 217.32 37.75 215.6 37.75 C 213.88 37.75 212.49 36.36 212.49 34.64 C 212.49 32.92 213.88 31.52 215.6 31.52 C 217.32 31.52 218.72 32.92 218.72 34.64 M 218.72 34.64"/></g><rect x="230.57" y="37.89" width="18.69" height="0.07" style="fill: rgb(192,192,192); fill-opacity: 1.0" transform="matrix(1,0,0,1,0,0)" clip-path="url(#94008638629757clip-2)"/><line x1="239.91" y1="37.85" x2="239.91" y2="37.89" style="stroke-width: 1.0;stroke: rgb(0,0,0);stroke-opacity: 1.0;" transform="matrix(1,0,0,1,0,0)" clip-path="url(#94008638629757clip-2)"/><line x1="230.57" y1="37.85" x2="249.26" y2="37.85" style="stroke-width: 1.0;stroke: rgb(0,0,0);stroke-opacity: 1.0;" transform="matrix(1,0,0,1,0,0)" clip-path="url(#94008638629757clip-2)"/><line x1="239.91" y1="38.03" x2="239.91" y2="37.97" style="stroke-width: 1.0;stroke: rgb(0,0,0);stroke-opacity: 1.0;" transform="matrix(1,0,0,1,0,0)" clip-path="url(#94008638629757clip-2)"/><line x1="230.57" y1="38.03" x2="249.26" y2="38.03" style="stroke-width: 1.0;stroke: rgb(0,0,0);stroke-opacity: 1.0;" transform="matrix(1,0,0,1,0,0)" clip-path="url(#94008638629757clip-2)"/><rect x="230.57" y="37.89" width="18.69" height="0.07" style="stroke-width: 1.0;stroke: rgb(0,0,0);stroke-opacity: 1.0;; fill: none" transform="matrix(1,0,0,1,0,0)" clip-path="url(#94008638629757clip-2)"/><line x1="230.57" y1="37.95" x2="249.26" y2="37.95" style="stroke-width: 1.0;stroke: rgb(0,0,0);stroke-opacity: 1.0;" transform="matrix(1,0,0,1,0,0)" clip-path="url(#94008638629757clip-2)"/><g style="stroke-width: 1.0;stroke: rgb(192,192,192);stroke-opacity: 1.0;; fill: none" transform="matrix(1,0,0,1,0,0)" clip-path="url(#94008638629757clip-2)"><path d="M 236.8 34.66 C 236.8 36.38 235.4 37.78 233.68 37.78 C 231.96 37.78 230.57 36.38 230.57 34.66 C 230.57 32.94 231.96 31.55 233.68 31.55 C 235.4 31.55 236.8 32.94 236.8 34.66 M 236.8 34.66"/></g><g style="stroke-width: 1.0;stroke: rgb(192,192,192);stroke-opacity: 1.0;; fill: none" transform="matrix(1,0,0,1,0,0)" clip-path="url(#94008638629757clip-2)"><path d="M 249.26 34.66 C 249.26 36.38 247.86 37.78 246.14 37.78 C 244.42 37.78 243.03 36.38 243.03 34.66 C 243.03 32.94 244.42 31.55 246.14 31.55 C 247.86 31.55 249.26 32.94 249.26 34.66 M 249.26 34.66"/></g><rect x="254.88" y="37.88" width="18.69" height="0.09" style="fill: rgb(192,192,192); fill-opacity: 1.0" transform="matrix(1,0,0,1,0,0)" clip-path="url(#94008638629757clip-2)"/><line x1="264.22" y1="37.75" x2="264.22" y2="37.88" style="stroke-width: 1.0;stroke: rgb(0,0,0);stroke-opacity: 1.0;" transform="matrix(1,0,0,1,0,0)" clip-path="url(#94008638629757clip-2)"/><line x1="254.88" y1="37.75" x2="273.57" y2="37.75" style="stroke-width: 1.0;stroke: rgb(0,0,0);stroke-opacity: 1.0;" transform="matrix(1,0,0,1,0,0)" clip-path="url(#94008638629757clip-2)"/><line x1="264.22" y1="38.08" x2="264.22" y2="37.97" style="stroke-width: 1.0;stroke: rgb(0,0,0);stroke-opacity: 1.0;" transform="matrix(1,0,0,1,0,0)" clip-path="url(#94008638629757clip-2)"/><line x1="254.88" y1="38.08" x2="273.57" y2="38.08" style="stroke-width: 1.0;stroke: rgb(0,0,0);stroke-opacity: 1.0;" transform="matrix(1,0,0,1,0,0)" clip-path="url(#94008638629757clip-2)"/><rect x="254.88" y="37.88" width="18.69" height="0.09" style="stroke-width: 1.0;stroke: rgb(0,0,0);stroke-opacity: 1.0;; fill: none" transform="matrix(1,0,0,1,0,0)" clip-path="url(#94008638629757clip-2)"/><line x1="254.88" y1="37.95" x2="273.57" y2="37.95" style="stroke-width: 1.0;stroke: rgb(0,0,0);stroke-opacity: 1.0;" transform="matrix(1,0,0,1,0,0)" clip-path="url(#94008638629757clip-2)"/><rect x="279.19" y="37.87" width="18.69" height="0.11" style="fill: rgb(192,192,192); fill-opacity: 1.0" transform="matrix(1,0,0,1,0,0)" clip-path="url(#94008638629757clip-2)"/><line x1="288.53" y1="37.73" x2="288.53" y2="37.87" style="stroke-width: 1.0;stroke: rgb(0,0,0);stroke-opacity: 1.0;" transform="matrix(1,0,0,1,0,0)" clip-path="url(#94008638629757clip-2)"/><line x1="279.19" y1="37.73" x2="297.88" y2="37.73" style="stroke-width: 1.0;stroke: rgb(0,0,0);stroke-opacity: 1.0;" transform="matrix(1,0,0,1,0,0)" clip-path="url(#94008638629757clip-2)"/><line x1="288.53" y1="38.12" x2="288.53" y2="37.98" style="stroke-width: 1.0;stroke: rgb(0,0,0);stroke-opacity: 1.0;" transform="matrix(1,0,0,1,0,0)" clip-path="url(#94008638629757clip-2)"/><line x1="279.19" y1="38.12" x2="297.88" y2="38.12" style="stroke-width: 1.0;stroke: rgb(0,0,0);stroke-opacity: 1.0;" transform="matrix(1,0,0,1,0,0)" clip-path="url(#94008638629757clip-2)"/><rect x="279.19" y="37.87" width="18.69" height="0.11" style="stroke-width: 1.0;stroke: rgb(0,0,0);stroke-opacity: 1.0;; fill: none" transform="matrix(1,0,0,1,0,0)" clip-path="url(#94008638629757clip-2)"/><line x1="279.19" y1="37.95" x2="297.88" y2="37.95" style="stroke-width: 1.0;stroke: rgb(0,0,0);stroke-opacity: 1.0;" transform="matrix(1,0,0,1,0,0)" clip-path="url(#94008638629757clip-2)"/><g style="stroke-width: 1.0;stroke: rgb(192,192,192);stroke-opacity: 1.0;; fill: none" transform="matrix(1,0,0,1,0,0)" clip-path="url(#94008638629757clip-2)"><path d="M 285.42 35.06 C 285.42 36.78 284.02 38.17 282.3 38.17 C 280.58 38.17 279.19 36.78 279.19 35.06 C 279.19 33.34 280.58 31.94 282.3 31.94 C 284.02 31.94 285.42 33.34 285.42 35.06 M 285.42 35.06"/></g><g style="stroke-width: 1.0;stroke: rgb(192,192,192);stroke-opacity: 1.0;; fill: none" transform="matrix(1,0,0,1,0,0)" clip-path="url(#94008638629757clip-2)"><path d="M 297.88 35.06 C 297.88 36.78 296.48 38.17 294.76 38.17 C 293.04 38.17 291.65 36.78 291.65 35.06 C 291.65 33.34 293.04 31.94 294.76 31.94 C 296.48 31.94 297.88 33.34 297.88 35.06 M 297.88 35.06"/></g><rect x="303.5" y="37.86" width="18.69" height="0.13" style="fill: rgb(192,192,192); fill-opacity: 1.0" transform="matrix(1,0,0,1,0,0)" clip-path="url(#94008638629757clip-2)"/><line x1="312.84" y1="37.7" x2="312.84" y2="37.86" style="stroke-width: 1.0;stroke: rgb(0,0,0);stroke-opacity: 1.0;" transform="matrix(1,0,0,1,0,0)" clip-path="url(#94008638629757clip-2)"/><line x1="303.5" y1="37.7" x2="322.19" y2="37.7" style="stroke-width: 1.0;stroke: rgb(0,0,0);stroke-opacity: 1.0;" transform="matrix(1,0,0,1,0,0)" clip-path="url(#94008638629757clip-2)"/><line x1="312.84" y1="38.17" x2="312.84" y2="37.98" style="stroke-width: 1.0;stroke: rgb(0,0,0);stroke-opacity: 1.0;" transform="matrix(1,0,0,1,0,0)" clip-path="url(#94008638629757clip-2)"/><line x1="303.5" y1="38.17" x2="322.19" y2="38.17" style="stroke-width: 1.0;stroke: rgb(0,0,0);stroke-opacity: 1.0;" transform="matrix(1,0,0,1,0,0)" clip-path="url(#94008638629757clip-2)"/><rect x="303.5" y="37.86" width="18.69" height="0.13" style="stroke-width: 1.0;stroke: rgb(0,0,0);stroke-opacity: 1.0;; fill: none" transform="matrix(1,0,0,1,0,0)" clip-path="url(#94008638629757clip-2)"/><line x1="303.5" y1="37.95" x2="322.19" y2="37.95" style="stroke-width: 1.0;stroke: rgb(0,0,0);stroke-opacity: 1.0;" transform="matrix(1,0,0,1,0,0)" clip-path="url(#94008638629757clip-2)"/><g style="stroke-width: 1.0;stroke: rgb(192,192,192);stroke-opacity: 1.0;; fill: none" transform="matrix(1,0,0,1,0,0)" clip-path="url(#94008638629757clip-2)"><path d="M 309.73 35.1 C 309.73 36.82 308.33 38.21 306.61 38.21 C 304.89 38.21 303.5 36.82 303.5 35.1 C 303.5 33.38 304.89 31.98 306.61 31.98 C 308.33 31.98 309.73 33.38 309.73 35.1 M 309.73 35.1"/></g><g style="stroke-width: 1.0;stroke: rgb(192,192,192);stroke-opacity: 1.0;; fill: none" transform="matrix(1,0,0,1,0,0)" clip-path="url(#94008638629757clip-2)"><path d="M 322.19 35.1 C 322.19 36.82 320.79 38.21 319.07 38.21 C 317.35 38.21 315.96 36.82 315.96 35.1 C 315.96 33.38 317.35 31.98 319.07 31.98 C 320.79 31.98 322.19 33.38 322.19 35.1 M 322.19 35.1"/></g><rect x="327.81" y="37.86" width="18.69" height="0.12" style="fill: rgb(192,192,192); fill-opacity: 1.0" transform="matrix(1,0,0,1,0,0)" clip-path="url(#94008638629757clip-2)"/><line x1="337.16" y1="37.7" x2="337.16" y2="37.86" style="stroke-width: 1.0;stroke: rgb(0,0,0);stroke-opacity: 1.0;" transform="matrix(1,0,0,1,0,0)" clip-path="url(#94008638629757clip-2)"/><line x1="327.81" y1="37.7" x2="346.5" y2="37.7" style="stroke-width: 1.0;stroke: rgb(0,0,0);stroke-opacity: 1.0;" transform="matrix(1,0,0,1,0,0)" clip-path="url(#94008638629757clip-2)"/><line x1="337.16" y1="38.12" x2="337.16" y2="37.98" style="stroke-width: 1.0;stroke: rgb(0,0,0);stroke-opacity: 1.0;" transform="matrix(1,0,0,1,0,0)" clip-path="url(#94008638629757clip-2)"/><line x1="327.81" y1="38.12" x2="346.5" y2="38.12" style="stroke-width: 1.0;stroke: rgb(0,0,0);stroke-opacity: 1.0;" transform="matrix(1,0,0,1,0,0)" clip-path="url(#94008638629757clip-2)"/><rect x="327.81" y="37.86" width="18.69" height="0.12" style="stroke-width: 1.0;stroke: rgb(0,0,0);stroke-opacity: 1.0;; fill: none" transform="matrix(1,0,0,1,0,0)" clip-path="url(#94008638629757clip-2)"/><line x1="327.81" y1="37.95" x2="346.5" y2="37.95" style="stroke-width: 1.0;stroke: rgb(0,0,0);stroke-opacity: 1.0;" transform="matrix(1,0,0,1,0,0)" clip-path="url(#94008638629757clip-2)"/><g style="stroke-width: 1.0;stroke: rgb(192,192,192);stroke-opacity: 1.0;; fill: none" transform="matrix(1,0,0,1,0,0)" clip-path="url(#94008638629757clip-2)"><path d="M 334.04 35.08 C 334.04 36.8 332.65 38.19 330.93 38.19 C 329.21 38.19 327.81 36.8 327.81 35.08 C 327.81 33.36 329.21 31.96 330.93 31.96 C 332.65 31.96 334.04 33.36 334.04 35.08 M 334.04 35.08"/></g><g style="stroke-width: 1.0;stroke: rgb(192,192,192);stroke-opacity: 1.0;; fill: none" transform="matrix(1,0,0,1,0,0)" clip-path="url(#94008638629757clip-2)"><path d="M 346.5 35.08 C 346.5 36.8 345.11 38.19 343.39 38.19 C 341.67 38.19 340.27 36.8 340.27 35.08 C 340.27 33.36 341.67 31.96 343.39 31.96 C 345.11 31.96 346.5 33.36 346.5 35.08 M 346.5 35.08"/></g><rect x="352.12" y="37.86" width="18.69" height="0.13" style="fill: rgb(192,192,192); fill-opacity: 1.0" transform="matrix(1,0,0,1,0,0)" clip-path="url(#94008638629757clip-2)"/><line x1="361.47" y1="37.68" x2="361.47" y2="37.86" style="stroke-width: 1.0;stroke: rgb(0,0,0);stroke-opacity: 1.0;" transform="matrix(1,0,0,1,0,0)" clip-path="url(#94008638629757clip-2)"/><line x1="352.12" y1="37.68" x2="370.81" y2="37.68" style="stroke-width: 1.0;stroke: rgb(0,0,0);stroke-opacity: 1.0;" transform="matrix(1,0,0,1,0,0)" clip-path="url(#94008638629757clip-2)"/><line x1="361.47" y1="38.12" x2="361.47" y2="37.98" style="stroke-width: 1.0;stroke: rgb(0,0,0);stroke-opacity: 1.0;" transform="matrix(1,0,0,1,0,0)" clip-path="url(#94008638629757clip-2)"/><line x1="352.12" y1="38.12" x2="370.81" y2="38.12" style="stroke-width: 1.0;stroke: rgb(0,0,0);stroke-opacity: 1.0;" transform="matrix(1,0,0,1,0,0)" clip-path="url(#94008638629757clip-2)"/><rect x="352.12" y="37.86" width="18.69" height="0.13" style="stroke-width: 1.0;stroke: rgb(0,0,0);stroke-opacity: 1.0;; fill: none" transform="matrix(1,0,0,1,0,0)" clip-path="url(#94008638629757clip-2)"/><line x1="352.12" y1="37.94" x2="370.81" y2="37.94" style="stroke-width: 1.0;stroke: rgb(0,0,0);stroke-opacity: 1.0;" transform="matrix(1,0,0,1,0,0)" clip-path="url(#94008638629757clip-2)"/><g style="stroke-width: 1.0;stroke: rgb(192,192,192);stroke-opacity: 1.0;; fill: none" transform="matrix(1,0,0,1,0,0)" clip-path="url(#94008638629757clip-2)"><path d="M 358.35 35.08 C 358.35 36.8 356.96 38.19 355.24 38.19 C 353.52 38.19 352.12 36.8 352.12 35.08 C 352.12 33.36 353.52 31.96 355.24 31.96 C 356.96 31.96 358.35 33.36 358.35 35.08 M 358.35 35.08"/></g><g style="stroke-width: 1.0;stroke: rgb(192,192,192);stroke-opacity: 1.0;; fill: none" transform="matrix(1,0,0,1,0,0)" clip-path="url(#94008638629757clip-2)"><path d="M 370.81 35.08 C 370.81 36.8 369.42 38.19 367.7 38.19 C 365.98 38.19 364.58 36.8 364.58 35.08 C 364.58 33.36 365.98 31.96 367.7 31.96 C 369.42 31.96 370.81 33.36 370.81 35.08 M 370.81 35.08"/></g><rect x="376.43" y="37.85" width="18.69" height="0.14" style="fill: rgb(192,192,192); fill-opacity: 1.0" transform="matrix(1,0,0,1,0,0)" clip-path="url(#94008638629757clip-2)"/><line x1="385.78" y1="37.68" x2="385.78" y2="37.85" style="stroke-width: 1.0;stroke: rgb(0,0,0);stroke-opacity: 1.0;" transform="matrix(1,0,0,1,0,0)" clip-path="url(#94008638629757clip-2)"/><line x1="376.43" y1="37.68" x2="395.12" y2="37.68" style="stroke-width: 1.0;stroke: rgb(0,0,0);stroke-opacity: 1.0;" transform="matrix(1,0,0,1,0,0)" clip-path="url(#94008638629757clip-2)"/><line x1="385.78" y1="38.17" x2="385.78" y2="37.99" style="stroke-width: 1.0;stroke: rgb(0,0,0);stroke-opacity: 1.0;" transform="matrix(1,0,0,1,0,0)" clip-path="url(#94008638629757clip-2)"/><line x1="376.43" y1="38.17" x2="395.12" y2="38.17" style="stroke-width: 1.0;stroke: rgb(0,0,0);stroke-opacity: 1.0;" transform="matrix(1,0,0,1,0,0)" clip-path="url(#94008638629757clip-2)"/><rect x="376.43" y="37.85" width="18.69" height="0.14" style="stroke-width: 1.0;stroke: rgb(0,0,0);stroke-opacity: 1.0;; fill: none" transform="matrix(1,0,0,1,0,0)" clip-path="url(#94008638629757clip-2)"/><line x1="376.43" y1="37.94" x2="395.12" y2="37.94" style="stroke-width: 1.0;stroke: rgb(0,0,0);stroke-opacity: 1.0;" transform="matrix(1,0,0,1,0,0)" clip-path="url(#94008638629757clip-2)"/><g style="stroke-width: 1.0;stroke: rgb(192,192,192);stroke-opacity: 1.0;; fill: none" transform="matrix(1,0,0,1,0,0)" clip-path="url(#94008638629757clip-2)"><path d="M 382.66 35.1 C 382.66 36.82 381.27 38.21 379.55 38.21 C 377.83 38.21 376.43 36.82 376.43 35.1 C 376.43 33.38 377.83 31.98 379.55 31.98 C 381.27 31.98 382.66 33.38 382.66 35.1 M 382.66 35.1"/></g><g style="stroke-width: 1.0;stroke: rgb(192,192,192);stroke-opacity: 1.0;; fill: none" transform="matrix(1,0,0,1,0,0)" clip-path="url(#94008638629757clip-2)"><path d="M 395.12 35.1 C 395.12 36.82 393.73 38.21 392.01 38.21 C 390.29 38.21 388.89 36.82 388.89 35.1 C 388.89 33.38 390.29 31.98 392.01 31.98 C 393.73 31.98 395.12 33.38 395.12 35.1 M 395.12 35.1"/></g><line x1="385.78" y1="328" x2="385.78" y2="328" style="stroke-width: 1.0;stroke: rgb(192,192,192);stroke-opacity: 1.0;" transform="matrix(1,0,0,1,0,0)" clip-path="url(#94008638629757clip-2)"/><line x1="385.78" y1="328" x2="385.78" y2="328" style="stroke-width: 1.0;stroke: rgb(192,192,192);stroke-opacity: 1.0;" transform="matrix(1,0,0,1,0,0)" clip-path="url(#94008638629757clip-2)"/><line x1="385.78" y1="328" x2="385.78" y2="328" style="stroke-width: 1.0;stroke: rgb(192,192,192);stroke-opacity: 1.0;" transform="matrix(1,0,0,1,0,0)" clip-path="url(#94008638629757clip-2)"/><rect x="400.74" y="37.85" width="18.69" height="0.14" style="fill: rgb(192,192,192); fill-opacity: 1.0" transform="matrix(1,0,0,1,0,0)" clip-path="url(#94008638629757clip-2)"/><line x1="410.09" y1="37.64" x2="410.09" y2="37.85" style="stroke-width: 1.0;stroke: rgb(0,0,0);stroke-opacity: 1.0;" transform="matrix(1,0,0,1,0,0)" clip-path="url(#94008638629757clip-2)"/><line x1="400.74" y1="37.64" x2="419.43" y2="37.64" style="stroke-width: 1.0;stroke: rgb(0,0,0);stroke-opacity: 1.0;" transform="matrix(1,0,0,1,0,0)" clip-path="url(#94008638629757clip-2)"/><line x1="410.09" y1="38.17" x2="410.09" y2="37.99" style="stroke-width: 1.0;stroke: rgb(0,0,0);stroke-opacity: 1.0;" transform="matrix(1,0,0,1,0,0)" clip-path="url(#94008638629757clip-2)"/><line x1="400.74" y1="38.17" x2="419.43" y2="38.17" style="stroke-width: 1.0;stroke: rgb(0,0,0);stroke-opacity: 1.0;" transform="matrix(1,0,0,1,0,0)" clip-path="url(#94008638629757clip-2)"/><rect x="400.74" y="37.85" width="18.69" height="0.14" style="stroke-width: 1.0;stroke: rgb(0,0,0);stroke-opacity: 1.0;; fill: none" transform="matrix(1,0,0,1,0,0)" clip-path="url(#94008638629757clip-2)"/><line x1="400.74" y1="37.94" x2="419.43" y2="37.94" style="stroke-width: 1.0;stroke: rgb(0,0,0);stroke-opacity: 1.0;" transform="matrix(1,0,0,1,0,0)" clip-path="url(#94008638629757clip-2)"/><g style="stroke-width: 1.0;stroke: rgb(192,192,192);stroke-opacity: 1.0;; fill: none" transform="matrix(1,0,0,1,0,0)" clip-path="url(#94008638629757clip-2)"><path d="M 413.2 35.1 C 413.2 36.82 411.81 38.21 410.09 38.21 C 408.37 38.21 406.97 36.82 406.97 35.1 C 406.97 33.38 408.37 31.98 410.09 31.98 C 411.81 31.98 413.2 33.38 413.2 35.1 M 413.2 35.1"/></g><line x1="410.09" y1="328" x2="410.09" y2="328" style="stroke-width: 1.0;stroke: rgb(192,192,192);stroke-opacity: 1.0;" transform="matrix(1,0,0,1,0,0)" clip-path="url(#94008638629757clip-2)"/><line x1="410.09" y1="328" x2="410.09" y2="328" style="stroke-width: 1.0;stroke: rgb(192,192,192);stroke-opacity: 1.0;" transform="matrix(1,0,0,1,0,0)" clip-path="url(#94008638629757clip-2)"/><line x1="410.09" y1="328" x2="410.09" y2="328" style="stroke-width: 1.0;stroke: rgb(192,192,192);stroke-opacity: 1.0;" transform="matrix(1,0,0,1,0,0)" clip-path="url(#94008638629757clip-2)"/><rect x="425.05" y="37.85" width="18.69" height="0.15" style="fill: rgb(192,192,192); fill-opacity: 1.0" transform="matrix(1,0,0,1,0,0)" clip-path="url(#94008638629757clip-2)"/><line x1="434.4" y1="37.64" x2="434.4" y2="37.85" style="stroke-width: 1.0;stroke: rgb(0,0,0);stroke-opacity: 1.0;" transform="matrix(1,0,0,1,0,0)" clip-path="url(#94008638629757clip-2)"/><line x1="425.05" y1="37.64" x2="443.74" y2="37.64" style="stroke-width: 1.0;stroke: rgb(0,0,0);stroke-opacity: 1.0;" transform="matrix(1,0,0,1,0,0)" clip-path="url(#94008638629757clip-2)"/><line x1="434.4" y1="38.21" x2="434.4" y2="38" style="stroke-width: 1.0;stroke: rgb(0,0,0);stroke-opacity: 1.0;" transform="matrix(1,0,0,1,0,0)" clip-path="url(#94008638629757clip-2)"/><line x1="425.05" y1="38.21" x2="443.74" y2="38.21" style="stroke-width: 1.0;stroke: rgb(0,0,0);stroke-opacity: 1.0;" transform="matrix(1,0,0,1,0,0)" clip-path="url(#94008638629757clip-2)"/><rect x="425.05" y="37.85" width="18.69" height="0.15" style="stroke-width: 1.0;stroke: rgb(0,0,0);stroke-opacity: 1.0;; fill: none" transform="matrix(1,0,0,1,0,0)" clip-path="url(#94008638629757clip-2)"/><line x1="425.05" y1="37.94" x2="443.74" y2="37.94" style="stroke-width: 1.0;stroke: rgb(0,0,0);stroke-opacity: 1.0;" transform="matrix(1,0,0,1,0,0)" clip-path="url(#94008638629757clip-2)"/><line x1="434.4" y1="23" x2="434.4" y2="23" style="stroke-width: 1.0;stroke: rgb(192,192,192);stroke-opacity: 1.0;" transform="matrix(1,0,0,1,0,0)" clip-path="url(#94008638629757clip-2)"/><line x1="434.4" y1="23" x2="434.4" y2="23" style="stroke-width: 1.0;stroke: rgb(192,192,192);stroke-opacity: 1.0;" transform="matrix(1,0,0,1,0,0)" clip-path="url(#94008638629757clip-2)"/><line x1="434.4" y1="23" x2="434.4" y2="23" style="stroke-width: 1.0;stroke: rgb(192,192,192);stroke-opacity: 1.0;" transform="matrix(1,0,0,1,0,0)" clip-path="url(#94008638629757clip-2)"/><line x1="434.4" y1="328" x2="434.4" y2="328" style="stroke-width: 1.0;stroke: rgb(192,192,192);stroke-opacity: 1.0;" transform="matrix(1,0,0,1,0,0)" clip-path="url(#94008638629757clip-2)"/><line x1="434.4" y1="328" x2="434.4" y2="328" style="stroke-width: 1.0;stroke: rgb(192,192,192);stroke-opacity: 1.0;" transform="matrix(1,0,0,1,0,0)" clip-path="url(#94008638629757clip-2)"/><line x1="434.4" y1="328" x2="434.4" y2="328" style="stroke-width: 1.0;stroke: rgb(192,192,192);stroke-opacity: 1.0;" transform="matrix(1,0,0,1,0,0)" clip-path="url(#94008638629757clip-2)"/><rect x="449.37" y="37.85" width="18.69" height="0.15" style="fill: rgb(192,192,192); fill-opacity: 1.0" transform="matrix(1,0,0,1,0,0)" clip-path="url(#94008638629757clip-2)"/><line x1="458.71" y1="37.64" x2="458.71" y2="37.85" style="stroke-width: 1.0;stroke: rgb(0,0,0);stroke-opacity: 1.0;" transform="matrix(1,0,0,1,0,0)" clip-path="url(#94008638629757clip-2)"/><line x1="449.37" y1="37.64" x2="468.06" y2="37.64" style="stroke-width: 1.0;stroke: rgb(0,0,0);stroke-opacity: 1.0;" transform="matrix(1,0,0,1,0,0)" clip-path="url(#94008638629757clip-2)"/><line x1="458.71" y1="38.21" x2="458.71" y2="38" style="stroke-width: 1.0;stroke: rgb(0,0,0);stroke-opacity: 1.0;" transform="matrix(1,0,0,1,0,0)" clip-path="url(#94008638629757clip-2)"/><line x1="449.37" y1="38.21" x2="468.06" y2="38.21" style="stroke-width: 1.0;stroke: rgb(0,0,0);stroke-opacity: 1.0;" transform="matrix(1,0,0,1,0,0)" clip-path="url(#94008638629757clip-2)"/><rect x="449.37" y="37.85" width="18.69" height="0.15" style="stroke-width: 1.0;stroke: rgb(0,0,0);stroke-opacity: 1.0;; fill: none" transform="matrix(1,0,0,1,0,0)" clip-path="url(#94008638629757clip-2)"/><line x1="449.37" y1="37.94" x2="468.06" y2="37.94" style="stroke-width: 1.0;stroke: rgb(0,0,0);stroke-opacity: 1.0;" transform="matrix(1,0,0,1,0,0)" clip-path="url(#94008638629757clip-2)"/><line x1="458.71" y1="23" x2="458.71" y2="23" style="stroke-width: 1.0;stroke: rgb(192,192,192);stroke-opacity: 1.0;" transform="matrix(1,0,0,1,0,0)" clip-path="url(#94008638629757clip-2)"/><line x1="458.71" y1="23" x2="458.71" y2="23" style="stroke-width: 1.0;stroke: rgb(192,192,192);stroke-opacity: 1.0;" transform="matrix(1,0,0,1,0,0)" clip-path="url(#94008638629757clip-2)"/><line x1="458.71" y1="23" x2="458.71" y2="23" style="stroke-width: 1.0;stroke: rgb(192,192,192);stroke-opacity: 1.0;" transform="matrix(1,0,0,1,0,0)" clip-path="url(#94008638629757clip-2)"/><line x1="458.71" y1="328" x2="458.71" y2="328" style="stroke-width: 1.0;stroke: rgb(192,192,192);stroke-opacity: 1.0;" transform="matrix(1,0,0,1,0,0)" clip-path="url(#94008638629757clip-2)"/><line x1="458.71" y1="328" x2="458.71" y2="328" style="stroke-width: 1.0;stroke: rgb(192,192,192);stroke-opacity: 1.0;" transform="matrix(1,0,0,1,0,0)" clip-path="url(#94008638629757clip-2)"/><line x1="458.71" y1="328" x2="458.71" y2="328" style="stroke-width: 1.0;stroke: rgb(192,192,192);stroke-opacity: 1.0;" transform="matrix(1,0,0,1,0,0)" clip-path="url(#94008638629757clip-2)"/><rect x="473.68" y="37.85" width="18.69" height="0.17" style="fill: rgb(192,192,192); fill-opacity: 1.0" transform="matrix(1,0,0,1,0,0)" clip-path="url(#94008638629757clip-2)"/><line x1="483.02" y1="37.61" x2="483.02" y2="37.85" style="stroke-width: 1.0;stroke: rgb(0,0,0);stroke-opacity: 1.0;" transform="matrix(1,0,0,1,0,0)" clip-path="url(#94008638629757clip-2)"/><line x1="473.68" y1="37.61" x2="492.37" y2="37.61" style="stroke-width: 1.0;stroke: rgb(0,0,0);stroke-opacity: 1.0;" transform="matrix(1,0,0,1,0,0)" clip-path="url(#94008638629757clip-2)"/><line x1="483.02" y1="38.27" x2="483.02" y2="38.02" style="stroke-width: 1.0;stroke: rgb(0,0,0);stroke-opacity: 1.0;" transform="matrix(1,0,0,1,0,0)" clip-path="url(#94008638629757clip-2)"/><line x1="473.68" y1="38.27" x2="492.37" y2="38.27" style="stroke-width: 1.0;stroke: rgb(0,0,0);stroke-opacity: 1.0;" transform="matrix(1,0,0,1,0,0)" clip-path="url(#94008638629757clip-2)"/><rect x="473.68" y="37.85" width="18.69" height="0.17" style="stroke-width: 1.0;stroke: rgb(0,0,0);stroke-opacity: 1.0;; fill: none" transform="matrix(1,0,0,1,0,0)" clip-path="url(#94008638629757clip-2)"/><line x1="473.68" y1="37.94" x2="492.37" y2="37.94" style="stroke-width: 1.0;stroke: rgb(0,0,0);stroke-opacity: 1.0;" transform="matrix(1,0,0,1,0,0)" clip-path="url(#94008638629757clip-2)"/><g style="stroke-width: 1.0;stroke: rgb(192,192,192);stroke-opacity: 1.0;; fill: none" transform="matrix(1,0,0,1,0,0)" clip-path="url(#94008638629757clip-2)"><path d="M 479.91 34.96 C 479.91 36.68 478.51 38.07 476.79 38.07 C 475.07 38.07 473.68 36.68 473.68 34.96 C 473.68 33.24 475.07 31.84 476.79 31.84 C 478.51 31.84 479.91 33.24 479.91 34.96 M 479.91 34.96"/></g><g style="stroke-width: 1.0;stroke: rgb(192,192,192);stroke-opacity: 1.0;; fill: none" transform="matrix(1,0,0,1,0,0)" clip-path="url(#94008638629757clip-2)"><path d="M 492.37 34.96 C 492.37 36.68 490.97 38.07 489.25 38.07 C 487.53 38.07 486.14 36.68 486.14 34.96 C 486.14 33.24 487.53 31.84 489.25 31.84 C 490.97 31.84 492.37 33.24 492.37 34.96 M 492.37 34.96"/></g><line x1="483.02" y1="23" x2="483.02" y2="23" style="stroke-width: 1.0;stroke: rgb(192,192,192);stroke-opacity: 1.0;" transform="matrix(1,0,0,1,0,0)" clip-path="url(#94008638629757clip-2)"/><line x1="483.02" y1="23" x2="483.02" y2="23" style="stroke-width: 1.0;stroke: rgb(192,192,192);stroke-opacity: 1.0;" transform="matrix(1,0,0,1,0,0)" clip-path="url(#94008638629757clip-2)"/><line x1="483.02" y1="23" x2="483.02" y2="23" style="stroke-width: 1.0;stroke: rgb(192,192,192);stroke-opacity: 1.0;" transform="matrix(1,0,0,1,0,0)" clip-path="url(#94008638629757clip-2)"/><rect x="497.99" y="37.84" width="18.69" height="0.18" style="fill: rgb(192,192,192); fill-opacity: 1.0" transform="matrix(1,0,0,1,0,0)" clip-path="url(#94008638629757clip-2)"/><line x1="507.33" y1="37.58" x2="507.33" y2="37.84" style="stroke-width: 1.0;stroke: rgb(0,0,0);stroke-opacity: 1.0;" transform="matrix(1,0,0,1,0,0)" clip-path="url(#94008638629757clip-2)"/><line x1="497.99" y1="37.58" x2="516.68" y2="37.58" style="stroke-width: 1.0;stroke: rgb(0,0,0);stroke-opacity: 1.0;" transform="matrix(1,0,0,1,0,0)" clip-path="url(#94008638629757clip-2)"/><line x1="507.33" y1="38.27" x2="507.33" y2="38.02" style="stroke-width: 1.0;stroke: rgb(0,0,0);stroke-opacity: 1.0;" transform="matrix(1,0,0,1,0,0)" clip-path="url(#94008638629757clip-2)"/><line x1="497.99" y1="38.27" x2="516.68" y2="38.27" style="stroke-width: 1.0;stroke: rgb(0,0,0);stroke-opacity: 1.0;" transform="matrix(1,0,0,1,0,0)" clip-path="url(#94008638629757clip-2)"/><rect x="497.99" y="37.84" width="18.69" height="0.18" style="stroke-width: 1.0;stroke: rgb(0,0,0);stroke-opacity: 1.0;; fill: none" transform="matrix(1,0,0,1,0,0)" clip-path="url(#94008638629757clip-2)"/><line x1="497.99" y1="37.94" x2="516.68" y2="37.94" style="stroke-width: 1.0;stroke: rgb(0,0,0);stroke-opacity: 1.0;" transform="matrix(1,0,0,1,0,0)" clip-path="url(#94008638629757clip-2)"/><g style="stroke-width: 1.0;stroke: rgb(192,192,192);stroke-opacity: 1.0;; fill: none" transform="matrix(1,0,0,1,0,0)" clip-path="url(#94008638629757clip-2)"><path d="M 504.22 35.2 C 504.22 36.93 502.82 38.32 501.1 38.32 C 499.38 38.32 497.99 36.93 497.99 35.2 C 497.99 33.48 499.38 32.09 501.1 32.09 C 502.82 32.09 504.22 33.48 504.22 35.2 M 504.22 35.2"/></g><g style="stroke-width: 1.0;stroke: rgb(192,192,192);stroke-opacity: 1.0;; fill: none" transform="matrix(1,0,0,1,0,0)" clip-path="url(#94008638629757clip-2)"><path d="M 516.68 35.2 C 516.68 36.93 515.28 38.32 513.56 38.32 C 511.84 38.32 510.45 36.93 510.45 35.2 C 510.45 33.48 511.84 32.09 513.56 32.09 C 515.28 32.09 516.68 33.48 516.68 35.2 M 516.68 35.2"/></g><line x1="507.33" y1="23" x2="507.33" y2="23" style="stroke-width: 1.0;stroke: rgb(192,192,192);stroke-opacity: 1.0;" transform="matrix(1,0,0,1,0,0)" clip-path="url(#94008638629757clip-2)"/><line x1="507.33" y1="23" x2="507.33" y2="23" style="stroke-width: 1.0;stroke: rgb(192,192,192);stroke-opacity: 1.0;" transform="matrix(1,0,0,1,0,0)" clip-path="url(#94008638629757clip-2)"/><line x1="507.33" y1="23" x2="507.33" y2="23" style="stroke-width: 1.0;stroke: rgb(192,192,192);stroke-opacity: 1.0;" transform="matrix(1,0,0,1,0,0)" clip-path="url(#94008638629757clip-2)"/><rect x="522.3" y="37.83" width="18.69" height="0.2" style="fill: rgb(192,192,192); fill-opacity: 1.0" transform="matrix(1,0,0,1,0,0)" clip-path="url(#94008638629757clip-2)"/><line x1="531.64" y1="37.52" x2="531.64" y2="37.83" style="stroke-width: 1.0;stroke: rgb(0,0,0);stroke-opacity: 1.0;" transform="matrix(1,0,0,1,0,0)" clip-path="url(#94008638629757clip-2)"/><line x1="522.3" y1="37.52" x2="540.99" y2="37.52" style="stroke-width: 1.0;stroke: rgb(0,0,0);stroke-opacity: 1.0;" transform="matrix(1,0,0,1,0,0)" clip-path="url(#94008638629757clip-2)"/><line x1="531.64" y1="38.33" x2="531.64" y2="38.03" style="stroke-width: 1.0;stroke: rgb(0,0,0);stroke-opacity: 1.0;" transform="matrix(1,0,0,1,0,0)" clip-path="url(#94008638629757clip-2)"/><line x1="522.3" y1="38.33" x2="540.99" y2="38.33" style="stroke-width: 1.0;stroke: rgb(0,0,0);stroke-opacity: 1.0;" transform="matrix(1,0,0,1,0,0)" clip-path="url(#94008638629757clip-2)"/><rect x="522.3" y="37.83" width="18.69" height="0.2" style="stroke-width: 1.0;stroke: rgb(0,0,0);stroke-opacity: 1.0;; fill: none" transform="matrix(1,0,0,1,0,0)" clip-path="url(#94008638629757clip-2)"/><line x1="522.3" y1="37.94" x2="540.99" y2="37.94" style="stroke-width: 1.0;stroke: rgb(0,0,0);stroke-opacity: 1.0;" transform="matrix(1,0,0,1,0,0)" clip-path="url(#94008638629757clip-2)"/><g style="stroke-width: 1.0;stroke: rgb(192,192,192);stroke-opacity: 1.0;; fill: none" transform="matrix(1,0,0,1,0,0)" clip-path="url(#94008638629757clip-2)"><path d="M 528.53 34.81 C 528.53 36.53 527.13 37.93 525.41 37.93 C 523.69 37.93 522.3 36.53 522.3 34.81 C 522.3 33.09 523.69 31.7 525.41 31.7 C 527.13 31.7 528.53 33.09 528.53 34.81 M 528.53 34.81"/></g><g style="stroke-width: 1.0;stroke: rgb(192,192,192);stroke-opacity: 1.0;; fill: none" transform="matrix(1,0,0,1,0,0)" clip-path="url(#94008638629757clip-2)"><path d="M 540.99 34.81 C 540.99 36.53 539.59 37.93 537.87 37.93 C 536.15 37.93 534.76 36.53 534.76 34.81 C 534.76 33.09 536.15 31.7 537.87 31.7 C 539.59 31.7 540.99 33.09 540.99 34.81 M 540.99 34.81"/></g><rect x="546.61" y="37.83" width="18.69" height="0.2" style="fill: rgb(192,192,192); fill-opacity: 1.0" transform="matrix(1,0,0,1,0,0)" clip-path="url(#94008638629757clip-2)"/><line x1="555.96" y1="37.52" x2="555.96" y2="37.83" style="stroke-width: 1.0;stroke: rgb(0,0,0);stroke-opacity: 1.0;" transform="matrix(1,0,0,1,0,0)" clip-path="url(#94008638629757clip-2)"/><line x1="546.61" y1="37.52" x2="565.3" y2="37.52" style="stroke-width: 1.0;stroke: rgb(0,0,0);stroke-opacity: 1.0;" transform="matrix(1,0,0,1,0,0)" clip-path="url(#94008638629757clip-2)"/><line x1="555.96" y1="38.33" x2="555.96" y2="38.03" style="stroke-width: 1.0;stroke: rgb(0,0,0);stroke-opacity: 1.0;" transform="matrix(1,0,0,1,0,0)" clip-path="url(#94008638629757clip-2)"/><line x1="546.61" y1="38.33" x2="565.3" y2="38.33" style="stroke-width: 1.0;stroke: rgb(0,0,0);stroke-opacity: 1.0;" transform="matrix(1,0,0,1,0,0)" clip-path="url(#94008638629757clip-2)"/><rect x="546.61" y="37.83" width="18.69" height="0.2" style="stroke-width: 1.0;stroke: rgb(0,0,0);stroke-opacity: 1.0;; fill: none" transform="matrix(1,0,0,1,0,0)" clip-path="url(#94008638629757clip-2)"/><line x1="546.61" y1="37.94" x2="565.3" y2="37.94" style="stroke-width: 1.0;stroke: rgb(0,0,0);stroke-opacity: 1.0;" transform="matrix(1,0,0,1,0,0)" clip-path="url(#94008638629757clip-2)"/><g style="stroke-width: 1.0;stroke: rgb(192,192,192);stroke-opacity: 1.0;; fill: none" transform="matrix(1,0,0,1,0,0)" clip-path="url(#94008638629757clip-2)"><path d="M 552.84 34.98 C 552.84 36.7 551.45 38.09 549.72 38.09 C 548 38.09 546.61 36.7 546.61 34.98 C 546.61 33.26 548 31.86 549.72 31.86 C 551.45 31.86 552.84 33.26 552.84 34.98 M 552.84 34.98"/></g><g style="stroke-width: 1.0;stroke: rgb(192,192,192);stroke-opacity: 1.0;; fill: none" transform="matrix(1,0,0,1,0,0)" clip-path="url(#94008638629757clip-2)"><path d="M 565.3 34.98 C 565.3 36.7 563.91 38.09 562.18 38.09 C 560.46 38.09 559.07 36.7 559.07 34.98 C 559.07 33.26 560.46 31.86 562.18 31.86 C 563.91 31.86 565.3 33.26 565.3 34.98 M 565.3 34.98"/></g><rect x="58" y="23" width="534" height="305" style="stroke-width: 0.5;stroke: rgb(128,128,128);stroke-opacity: 1.0;; fill: none" transform="matrix(1,0,0,1,0,0)" clip-path="url(#94008638629757clip-0)"/></svg>
