<!DOCTYPE svg PUBLIC "-//W3C//DTD SVG 1.1//EN" "http://www.w3.org/Graphics/SVG/1.1/DTD/svg11.dtd">
<svg xmlns="http://www.w3.org/2000/svg" xmlns:xlink="http://www.w3.org/1999/xlink" xmlns:jfreesvg="http://www.jfree.org/jfreesvg/svg" width="600" height="400" text-rendering="auto" shape-rendering="auto">
<defs><clipPath id="94008632242178clip-0"><path d="M 0 0 L 600 0 L 600 400 L 0 400 L 0 0 M 0 0"/></clipPath>
<clipPath id="94008632242178clip-1"><path d="M 188.43 162.57 L 188.43 762.57 L -211.57 762.57 L -211.57 162.57 L 188.43 162.57 M 188.43 162.57"/></clipPath>
<clipPath id="94008632242178clip-2"><path d="M 58 23 L 58 328 L 592 328 L 592 23 M 58 23"/></clipPath>
</defs>
<rect x="0" y="0" width="600" height="400" style="fill: rgb(238,238,238); fill-opacity: 1.0" transform="matrix(1,0,0,1,0,0)" clip-path="url(#94008632242178clip-0)"/><g style="fill: rgb(0,0,0); fill-opacity: 1.0; stroke: none" transform="matrix(1,0,0,1,0,0)" clip-path="url(#94008632242178clip-0)"><path d="M 282.34 14.3 Q 280.44 14.79 279.06 14.79 Q 276.45 14.79 275.04 13.41 Q 273.64 12.03 273.64 9.46 Q 273.64 6.91 275.04 5.54 Q 276.45 4.17 279.04 4.17 Q 280.7 4.17 282.34 4.55 L 282.34 6.2 Q 280.44 5.55 279.23 5.55 Q 277.62 5.55 276.75 6.58 Q 275.87 7.6 275.87 9.48 Q 275.87 11.3 276.81 12.34 Q 277.74 13.37 279.39 13.37 Q 279.75 13.37 280.24 13.27 L 280.24 9.94 L 282.34 9.94 M 282.34 14.3 M 297.41 14.13 Q 295.94 14.79 293.9 14.79 Q 291.41 14.79 290.02 13.39 Q 288.64 11.99 288.64 9.48 Q 288.64 6.92 290.03 5.54 Q 291.43 4.17 294.02 4.17 Q 295.68 4.17 297.31 4.55 L 297.31 6.2 Q 295.46 5.55 294.21 5.55 Q 292.61 5.55 291.74 6.57 Q 290.87 7.58 290.87 9.45 Q 290.87 11.28 291.8 12.31 Q 292.74 13.33 294.4 13.33 Q 295.89 13.33 297.41 12.58 M 297.41 14.13 M 299.26 14.54 L 299.26 3.74 L 301.29 3.74 L 301.29 8.44 Q 302.28 6.86 303.84 6.86 Q 304.85 6.86 305.43 7.49 Q 306.01 8.13 306.01 9.23 L 306.01 14.54 L 303.99 14.54 L 303.99 9.73 Q 303.99 8.45 303.14 8.45 Q 302.18 8.45 301.29 9.81 L 301.29 14.54 M 299.26 14.54 M 311.94 13.73 Q 310.93 14.71 309.78 14.71 Q 308.79 14.71 308.18 14.1 Q 307.56 13.5 307.56 12.55 Q 307.56 11.3 308.56 10.63 Q 309.55 9.96 311.4 9.96 L 311.94 9.96 L 311.94 9.27 Q 311.94 8.1 310.61 8.1 Q 309.43 8.1 308.22 8.77 L 308.22 7.38 Q 309.59 6.86 310.94 6.86 Q 313.88 6.86 313.88 9.2 L 313.88 12.53 Q 313.88 13.41 314.45 13.41 Q 314.55 13.41 314.72 13.38 L 314.77 14.51 Q 314.12 14.71 313.63 14.71 Q 312.39 14.71 312.03 13.73 M 311.94 13.73 M 311.94 12.64 L 311.94 11.12 L 311.46 11.12 Q 309.5 11.12 309.5 12.35 Q 309.5 12.76 309.79 13.05 Q 310.07 13.33 310.49 13.33 Q 311.2 13.33 311.94 12.64 M 311.94 12.64 M 316.26 14.54 L 316.26 7.03 L 318.29 7.03 L 318.29 8.44 Q 319.07 6.86 320.68 6.86 Q 320.87 6.86 321.06 6.9 L 321.06 8.7 Q 320.63 8.55 320.26 8.55 Q 319.05 8.55 318.29 9.77 L 318.29 14.54 M 316.26 14.54 M 326.13 14.49 Q 325.41 14.71 324.99 14.71 Q 322.36 14.71 322.36 12.25 L 322.36 8.29 L 321.52 8.29 L 321.52 7.03 L 322.36 7.03 L 322.36 5.76 L 324.38 5.53 L 324.38 7.03 L 325.99 7.03 L 325.99 8.29 L 324.38 8.29 L 324.38 11.98 Q 324.38 13.36 325.51 13.36 Q 325.77 13.36 326.13 13.26 M 326.13 14.49"/></g><rect x="262" y="373.33" width="76" height="25.67" style="fill: rgb(255,255,255); fill-opacity: 1.0" transform="matrix(1,0,0,1,0,0)" clip-path="url(#94008632242178clip-0)"/><line x1="262.5" y1="373.83" x2="337.5" y2="373.83" style="stroke-width: 1.0;stroke: rgb(0,0,0);stroke-opacity: 1.0;" transform="matrix(1,0,0,1,0,0)" clip-path="url(#94008632242178clip-0)"/><line x1="262.5" y1="398.5" x2="337.5" y2="398.5" style="stroke-width: 1.0;stroke: rgb(0,0,0);stroke-opacity: 1.0;" transform="matrix(1,0,0,1,0,0)" clip-path="url(#94008632242178clip-0)"/><line x1="262.5" y1="398.5" x2="262.5" y2="373.83" style="stroke-width: 1.0;stroke: rgb(0,0,0);stroke-opacity: 1.0;" transform="matrix(1,0,0,1,0,0)" clip-path="url(#94008632242178clip-0)"/><line x1="337.5" y1="398.5" x2="337.5" y2="373.83" style="stroke-width: 1.0;stroke: rgb(0,0,0);stroke-opacity: 1.0;" transform="matrix(1,0,0,1,0,0)" clip-path="url(#94008632242178clip-0)"/><g style="fill: rgb(192,192,192); fill-opacity: 1.0; stroke: none" transform="matrix(1,0,0,1,0,0)" clip-path="url(#94008632242178clip-0)"><path d="M 266 382.17 L 274 382.17 L 274 390.17 L 266 390.17 L 266 382.17 M 266 382.17"/></g><g style="stroke-width: 1.0;stroke: rgb(0,0,0);stroke-opacity: 1.0;; fill: none" transform="matrix(1,0,0,1,0,0)" clip-path="url(#94008632242178clip-0)"><path d="M 266 382.17 L 274 382.17 L 274 390.17 L 266 390.17 L 266 382.17 M 266 382.17"/></g><g style="fill: rgb(0,0,0); fill-opacity: 1.0; stroke: none" transform="matrix(1,0,0,1,0,0)" clip-path="url(#94008632242178clip-0)"><path d="M 281.52 392.11 Q 280.43 392.11 278.73 391.63 L 278.73 390.11 Q 280.56 390.96 281.74 390.96 Q 282.65 390.96 283.2 390.48 Q 283.76 390 283.76 389.23 Q 283.76 388.59 283.39 388.14 Q 283.03 387.7 282.06 387.15 L 281.31 386.72 Q 279.93 385.93 279.36 385.23 Q 278.79 384.53 278.79 383.6 Q 278.79 382.34 279.7 381.53 Q 280.61 380.73 282.01 380.73 Q 283.27 380.73 284.66 381.14 L 284.66 382.55 Q 282.94 381.88 282.1 381.88 Q 281.3 381.88 280.78 382.3 Q 280.26 382.72 280.26 383.37 Q 280.26 383.91 280.64 384.33 Q 281.02 384.75 282.04 385.32 L 282.81 385.76 Q 284.22 386.56 284.77 387.27 Q 285.33 387.98 285.33 388.98 Q 285.33 390.39 284.29 391.25 Q 283.24 392.11 281.52 392.11 M 281.52 392.11 M 294.27 391.58 Q 292.82 392.02 291.79 392.02 Q 290.03 392.02 288.92 390.85 Q 287.81 389.68 287.81 387.82 Q 287.81 386.01 288.79 384.86 Q 289.77 383.7 291.29 383.7 Q 292.73 383.7 293.52 384.72 Q 294.31 385.75 294.31 387.64 L 294.3 388.09 L 289.29 388.09 Q 289.6 390.92 292.06 390.92 Q 292.96 390.92 294.27 390.44 M 294.27 391.58 M 289.35 387 L 292.86 387 Q 292.86 384.78 291.2 384.78 Q 289.54 384.78 289.35 387 M 289.35 387 M 297.44 391.84 L 297.44 383.88 L 298.89 383.88 L 298.89 385.38 Q 299.74 383.71 301.38 383.71 Q 301.6 383.71 301.84 383.74 L 301.84 385.09 Q 301.46 384.97 301.18 384.97 Q 299.81 384.97 298.89 386.59 L 298.89 391.84 M 297.44 391.84 M 304.44 391.84 L 304.44 383.88 L 305.89 383.88 L 305.89 391.84 M 304.44 391.84 M 304.44 382.44 L 304.44 381 L 305.89 381 L 305.89 382.44 M 304.44 382.44 M 315.27 391.58 Q 313.82 392.02 312.79 392.02 Q 311.03 392.02 309.92 390.85 Q 308.81 389.68 308.81 387.82 Q 308.81 386.01 309.79 384.86 Q 310.77 383.7 312.29 383.7 Q 313.73 383.7 314.52 384.72 Q 315.31 385.75 315.31 387.64 L 315.3 388.09 L 310.29 388.09 Q 310.6 390.92 313.06 390.92 Q 313.96 390.92 315.27 390.44 M 315.27 391.58 M 310.35 387 L 313.86 387 Q 313.86 384.78 312.2 384.78 Q 310.54 384.78 310.35 387 M 310.35 387 M 320.55 392.02 Q 319.56 392.02 318.15 391.56 L 318.15 390.23 Q 319.56 390.94 320.61 390.94 Q 321.23 390.94 321.64 390.6 Q 322.05 390.26 322.05 389.76 Q 322.05 389.02 320.9 388.53 L 320.06 388.17 Q 318.19 387.4 318.19 385.94 Q 318.19 384.9 318.93 384.3 Q 319.67 383.71 320.95 383.71 Q 321.61 383.71 322.6 383.89 L 322.9 383.95 L 322.9 385.15 Q 321.69 384.79 320.98 384.79 Q 319.59 384.79 319.59 385.8 Q 319.59 386.45 320.64 386.9 L 321.34 387.19 Q 322.52 387.69 323.01 388.24 Q 323.5 388.8 323.5 389.62 Q 323.5 390.67 322.67 391.35 Q 321.84 392.02 320.55 392.02 M 320.55 392.02 M 332.26 391.84 L 332.26 390.75 L 334.42 390.75 L 334.42 382.2 L 332.26 382.74 L 332.26 381.63 L 335.87 380.73 L 335.87 390.75 L 338.04 390.75 L 338.04 391.84 M 332.26 391.84"/></g><rect x="58" y="23" width="534" height="305" style="fill: rgb(255,255,255); fill-opacity: 1.0" transform="matrix(1,0,0,1,0,0)" clip-path="url(#94008632242178clip-0)"/><line x1="58" y1="328" x2="592" y2="328" style="stroke-width: 1.0;stroke: rgb(128,128,128);stroke-opacity: 1.0;" transform="matrix(1,0,0,1,0,0)" clip-path="url(#94008632242178clip-0)"/><line x1="94.05" y1="328" x2="94.05" y2="328" style="stroke-width: 1.0;stroke: rgb(128,128,128);stroke-opacity: 1.0;" transform="matrix(1,0,0,1,0,0)" clip-path="url(#94008632242178clip-0)"/><line x1="94.05" y1="328" x2="94.05" y2="330" style="stroke-width: 1.0;stroke: rgb(128,128,128);stroke-opacity: 1.0;" transform="matrix(1,0,0,1,0,0)" clip-path="url(#94008632242178clip-0)"/><line x1="118.36" y1="328" x2="118.36" y2="328" style="stroke-width: 1.0;stroke: rgb(128,128,128);stroke-opacity: 1.0;" transform="matrix(1,0,0,1,0,0)" clip-path="url(#94008632242178clip-0)"/><line x1="118.36" y1="328" x2="118.36" y2="330" style="stroke-width: 1.0;stroke: rgb(128,128,128);stroke-opacity: 1.0;" transform="matrix(1,0,0,1,0,0)" clip-path="url(#94008632242178clip-0)"/><line x1="142.67" y1="328" x2="142.67" y2="328" style="stroke-width: 1.0;stroke: rgb(128,128,128);stroke-opacity: 1.0;" transform="matrix(1,0,0,1,0,0)" clip-path="url(#94008632242178clip-0)"/><line x1="142.67" y1="328" x2="142.67" y2="330" style="stroke-width: 1.0;stroke: rgb(128,128,128);stroke-opacity: 1.0;" transform="matrix(1,0,0,1,0,0)" clip-path="url(#94008632242178clip-0)"/><line x1="166.98" y1="328" x2="166.98" y2="328" style="stroke-width: 1.0;stroke: rgb(128,128,128);stroke-opacity: 1.0;" transform="matrix(1,0,0,1,0,0)" clip-path="url(#94008632242178clip-0)"/><line x1="166.98" y1="328" x2="166.98" y2="330" style="stroke-width: 1.0;stroke: rgb(128,128,128);stroke-opacity: 1.0;" transform="matrix(1,0,0,1,0,0)" clip-path="url(#94008632242178clip-0)"/><line x1="191.29" y1="328" x2="191.29" y2="328" style="stroke-width: 1.0;stroke: rgb(128,128,128);stroke-opacity: 1.0;" transform="matrix(1,0,0,1,0,0)" clip-path="url(#94008632242178clip-0)"/><line x1="191.29" y1="328" x2="191.29" y2="330" style="stroke-width: 1.0;stroke: rgb(128,128,128);stroke-opacity: 1.0;" transform="matrix(1,0,0,1,0,0)" clip-path="url(#94008632242178clip-0)"/><line x1="215.6" y1="328" x2="215.6" y2="328" style="stroke-width: 1.0;stroke: rgb(128,128,128);stroke-opacity: 1.0;" transform="matrix(1,0,0,1,0,0)" clip-path="url(#94008632242178clip-0)"/><line x1="215.6" y1="328" x2="215.6" y2="330" style="stroke-width: 1.0;stroke: rgb(128,128,128);stroke-opacity: 1.0;" transform="matrix(1,0,0,1,0,0)" clip-path="url(#94008632242178clip-0)"/><line x1="239.91" y1="328" x2="239.91" y2="328" style="stroke-width: 1.0;stroke: rgb(128,128,128);stroke-opacity: 1.0;" transform="matrix(1,0,0,1,0,0)" clip-path="url(#94008632242178clip-0)"/><line x1="239.91" y1="328" x2="239.91" y2="330" style="stroke-width: 1.0;stroke: rgb(128,128,128);stroke-opacity: 1.0;" transform="matrix(1,0,0,1,0,0)" clip-path="url(#94008632242178clip-0)"/><line x1="264.22" y1="328" x2="264.22" y2="328" style="stroke-width: 1.0;stroke: rgb(128,128,128);stroke-opacity: 1.0;" transform="matrix(1,0,0,1,0,0)" clip-path="url(#94008632242178clip-0)"/><line x1="264.22" y1="328" x2="264.22" y2="330" style="stroke-width: 1.0;stroke: rgb(128,128,128);stroke-opacity: 1.0;" transform="matrix(1,0,0,1,0,0)" clip-path="url(#94008632242178clip-0)"/><line x1="288.53" y1="328" x2="288.53" y2="328" style="stroke-width: 1.0;stroke: rgb(128,128,128);stroke-opacity: 1.0;" transform="matrix(1,0,0,1,0,0)" clip-path="url(#94008632242178clip-0)"/><line x1="288.53" y1="328" x2="288.53" y2="330" style="stroke-width: 1.0;stroke: rgb(128,128,128);stroke-opacity: 1.0;" transform="matrix(1,0,0,1,0,0)" clip-path="url(#94008632242178clip-0)"/><line x1="312.84" y1="328" x2="312.84" y2="328" style="stroke-width: 1.0;stroke: rgb(128,128,128);stroke-opacity: 1.0;" transform="matrix(1,0,0,1,0,0)" clip-path="url(#94008632242178clip-0)"/><line x1="312.84" y1="328" x2="312.84" y2="330" style="stroke-width: 1.0;stroke: rgb(128,128,128);stroke-opacity: 1.0;" transform="matrix(1,0,0,1,0,0)" clip-path="url(#94008632242178clip-0)"/><line x1="337.16" y1="328" x2="337.16" y2="328" style="stroke-width: 1.0;stroke: rgb(128,128,128);stroke-opacity: 1.0;" transform="matrix(1,0,0,1,0,0)" clip-path="url(#94008632242178clip-0)"/><line x1="337.16" y1="328" x2="337.16" y2="330" style="stroke-width: 1.0;stroke: rgb(128,128,128);stroke-opacity: 1.0;" transform="matrix(1,0,0,1,0,0)" clip-path="url(#94008632242178clip-0)"/><line x1="361.47" y1="328" x2="361.47" y2="328" style="stroke-width: 1.0;stroke: rgb(128,128,128);stroke-opacity: 1.0;" transform="matrix(1,0,0,1,0,0)" clip-path="url(#94008632242178clip-0)"/><line x1="361.47" y1="328" x2="361.47" y2="330" style="stroke-width: 1.0;stroke: rgb(128,128,128);stroke-opacity: 1.0;" transform="matrix(1,0,0,1,0,0)" clip-path="url(#94008632242178clip-0)"/><line x1="385.78" y1="328" x2="385.78" y2="328" style="stroke-width: 1.0;stroke: rgb(128,128,128);stroke-opacity: 1.0;" transform="matrix(1,0,0,1,0,0)" clip-path="url(#94008632242178clip-0)"/><line x1="385.78" y1="328" x2="385.78" y2="330" style="stroke-width: 1.0;stroke: rgb(128,128,128);stroke-opacity: 1.0;" transform="matrix(1,0,0,1,0,0)" clip-path="url(#94008632242178clip-0)"/><line x1="410.09" y1="328" x2="410.09" y2="328" style="stroke-width: 1.0;stroke: rgb(128,128,128);stroke-opacity: 1.0;" transform="matrix(1,0,0,1,0,0)" clip-path="url(#94008632242178clip-0)"/><line x1="410.09" y1="328" x2="410.09" y2="330" style="stroke-width: 1.0;stroke: rgb(128,128,128);stroke-opacity: 1.0;" transform="matrix(1,0,0,1,0,0)" clip-path="url(#94008632242178clip-0)"/><line x1="434.4" y1="328" x2="434.4" y2="328" style="stroke-width: 1.0;stroke: rgb(128,128,128);stroke-opacity: 1.0;" transform="matrix(1,0,0,1,0,0)" clip-path="url(#94008632242178clip-0)"/><line x1="434.4" y1="328" x2="434.4" y2="330" style="stroke-width: 1.0;stroke: rgb(128,128,128);stroke-opacity: 1.0;" transform="matrix(1,0,0,1,0,0)" clip-path="url(#94008632242178clip-0)"/><line x1="458.71" y1="328" x2="458.71" y2="328" style="stroke-width: 1.0;stroke: rgb(128,128,128);stroke-opacity: 1.0;" transform="matrix(1,0,0,1,0,0)" clip-path="url(#94008632242178clip-0)"/><line x1="458.71" y1="328" x2="458.71" y2="330" style="stroke-width: 1.0;stroke: rgb(128,128,128);stroke-opacity: 1.0;" transform="matrix(1,0,0,1,0,0)" clip-path="url(#94008632242178clip-0)"/><line x1="483.02" y1="328" x2="483.02" y2="328" style="stroke-width: 1.0;stroke: rgb(128,128,128);stroke-opacity: 1.0;" transform="matrix(1,0,0,1,0,0)" clip-path="url(#94008632242178clip-0)"/><line x1="483.02" y1="328" x2="483.02" y2="330" style="stroke-width: 1.0;stroke: rgb(128,128,128);stroke-opacity: 1.0;" transform="matrix(1,0,0,1,0,0)" clip-path="url(#94008632242178clip-0)"/><line x1="507.33" y1="328" x2="507.33" y2="328" style="stroke-width: 1.0;stroke: rgb(128,128,128);stroke-opacity: 1.0;" transform="matrix(1,0,0,1,0,0)" clip-path="url(#94008632242178clip-0)"/><line x1="507.33" y1="328" x2="507.33" y2="330" style="stroke-width: 1.0;stroke: rgb(128,128,128);stroke-opacity: 1.0;" transform="matrix(1,0,0,1,0,0)" clip-path="url(#94008632242178clip-0)"/><line x1="531.64" y1="328" x2="531.64" y2="328" style="stroke-width: 1.0;stroke: rgb(128,128,128);stroke-opacity: 1.0;" transform="matrix(1,0,0,1,0,0)" clip-path="url(#94008632242178clip-0)"/><line x1="531.64" y1="328" x2="531.64" y2="330" style="stroke-width: 1.0;stroke: rgb(128,128,128);stroke-opacity: 1.0;" transform="matrix(1,0,0,1,0,0)" clip-path="url(#94008632242178clip-0)"/><line x1="555.96" y1="328" x2="555.96" y2="328" style="stroke-width: 1.0;stroke: rgb(128,128,128);stroke-opacity: 1.0;" transform="matrix(1,0,0,1,0,0)" clip-path="url(#94008632242178clip-0)"/><line x1="555.96" y1="328" x2="555.96" y2="330" style="stroke-width: 1.0;stroke: rgb(128,128,128);stroke-opacity: 1.0;" transform="matrix(1,0,0,1,0,0)" clip-path="url(#94008632242178clip-0)"/><g style="fill: rgb(0,0,0); fill-opacity: 1.0; stroke: none" transform="matrix(1,0,0,1,0,0)" clip-path="url(#94008632242178clip-0)"><path d="M 92.55 343.67 L 92.55 342.95 L 93.99 342.95 L 93.99 337.24 L 92.55 337.6 L 92.55 336.86 L 94.96 336.26 L 94.96 342.95 L 96.41 342.95 L 96.41 343.67 M 92.55 343.67"/></g><g style="fill: rgb(0,0,0); fill-opacity: 1.0; stroke: none" transform="matrix(1,0,0,1,0,0)" clip-path="url(#94008632242178clip-0)"><path d="M 116.19 343.67 L 116.19 342.82 Q 116.61 341.84 117.89 340.68 L 118.44 340.19 Q 119.5 339.23 119.5 338.28 Q 119.5 337.68 119.14 337.33 Q 118.77 336.98 118.14 336.98 Q 117.39 336.98 116.37 337.56 L 116.37 336.71 Q 117.33 336.26 118.28 336.26 Q 119.29 336.26 119.91 336.81 Q 120.52 337.35 120.52 338.26 Q 120.52 338.91 120.21 339.41 Q 119.9 339.91 119.06 340.63 L 118.69 340.95 Q 117.53 341.93 117.35 342.82 L 120.49 342.82 L 120.49 343.67 M 116.19 343.67"/></g><g style="fill: rgb(0,0,0); fill-opacity: 1.0; stroke: none" transform="matrix(1,0,0,1,0,0)" clip-path="url(#94008632242178clip-0)"><path d="M 140.68 343.61 L 140.68 342.72 Q 141.72 343.13 142.31 343.13 Q 143 343.13 143.43 342.72 Q 143.87 342.32 143.87 341.68 Q 143.87 340.16 141.73 340.16 L 141.35 340.16 L 141.35 339.51 L 141.69 339.5 Q 143.69 339.5 143.69 338.09 Q 143.69 336.98 142.37 336.98 Q 141.65 336.98 140.78 337.39 L 140.78 336.55 Q 141.63 336.26 142.44 336.26 Q 144.66 336.26 144.66 337.94 Q 144.66 339.21 143.15 339.75 Q 144.9 340.16 144.9 341.67 Q 144.9 342.69 144.22 343.27 Q 143.55 343.85 142.37 343.85 Q 141.7 343.85 140.68 343.61 M 140.68 343.61"/></g><g style="fill: rgb(0,0,0); fill-opacity: 1.0; stroke: none" transform="matrix(1,0,0,1,0,0)" clip-path="url(#94008632242178clip-0)"><path d="M 167.74 343.67 L 167.74 341.62 L 164.49 341.62 L 164.49 340.89 L 167.74 336.44 L 168.65 336.44 L 168.65 340.84 L 169.61 340.84 L 169.61 341.62 L 168.65 341.62 L 168.65 343.67 M 167.74 343.67 M 165.43 340.84 L 167.81 340.84 L 167.81 337.62 M 165.43 340.84"/></g><g style="fill: rgb(0,0,0); fill-opacity: 1.0; stroke: none" transform="matrix(1,0,0,1,0,0)" clip-path="url(#94008632242178clip-0)"><path d="M 189.51 343.7 L 189.51 342.84 Q 190.22 343.13 190.87 343.13 Q 191.59 343.13 191.99 342.71 Q 192.4 342.29 192.4 341.55 Q 192.4 339.92 190.16 339.92 Q 189.91 339.92 189.63 339.96 L 189.63 336.44 L 193.28 336.44 L 193.28 337.28 L 190.47 337.28 L 190.47 339.19 Q 191.86 339.19 192.64 339.83 Q 193.43 340.46 193.43 341.6 Q 193.43 342.65 192.72 343.25 Q 192.01 343.85 190.75 343.85 Q 190.2 343.85 189.51 343.7 M 189.51 343.7"/></g><g style="fill: rgb(0,0,0); fill-opacity: 1.0; stroke: none" transform="matrix(1,0,0,1,0,0)" clip-path="url(#94008632242178clip-0)"><path d="M 214.32 339.92 Q 215.01 339.03 216.05 339.03 Q 217 339.03 217.6 339.66 Q 218.21 340.28 218.21 341.27 Q 218.21 342.39 217.53 343.12 Q 216.85 343.85 215.81 343.85 Q 214.62 343.85 213.94 342.89 Q 213.27 341.92 213.27 340.22 Q 213.27 338.34 214.04 337.3 Q 214.82 336.26 216.22 336.26 Q 216.87 336.26 217.83 336.53 L 217.83 337.37 Q 216.81 336.98 216.16 336.98 Q 214.32 336.98 214.32 339.92 M 214.32 339.92 M 217.24 341.48 Q 217.24 340.66 216.87 340.19 Q 216.5 339.72 215.85 339.72 Q 215.24 339.72 214.8 340.13 Q 214.36 340.54 214.36 341.12 Q 214.36 342.03 214.78 342.58 Q 215.19 343.13 215.88 343.13 Q 216.5 343.13 216.87 342.68 Q 217.24 342.23 217.24 341.48 M 217.24 341.48"/></g><g style="fill: rgb(0,0,0); fill-opacity: 1.0; stroke: none" transform="matrix(1,0,0,1,0,0)" clip-path="url(#94008632242178clip-0)"><path d="M 238.42 343.67 Q 238.56 342.82 238.82 342.21 Q 239.08 341.59 239.74 340.52 L 241.72 337.34 L 238 337.34 L 238 336.44 L 242.63 336.44 L 242.63 337.34 Q 239.86 341.44 239.52 343.67 M 238.42 343.67"/></g><g style="fill: rgb(0,0,0); fill-opacity: 1.0; stroke: none" transform="matrix(1,0,0,1,0,0)" clip-path="url(#94008632242178clip-0)"><path d="M 263.52 339.73 Q 262.46 339 262.46 338.1 Q 262.46 337.28 263.06 336.77 Q 263.66 336.26 264.63 336.26 Q 265.52 336.26 266.08 336.69 Q 266.63 337.12 266.63 337.82 Q 266.63 338.87 265.28 339.73 Q 266.92 340.53 266.92 341.8 Q 266.92 342.71 266.23 343.28 Q 265.55 343.85 264.46 343.85 Q 263.4 343.85 262.74 343.31 Q 262.09 342.77 262.09 341.89 Q 262.09 340.59 263.52 339.73 M 263.52 339.73 M 264.75 339.43 Q 265.76 338.77 265.76 337.95 Q 265.76 337.52 265.42 337.25 Q 265.08 336.98 264.53 336.98 Q 264 336.98 263.67 337.24 Q 263.34 337.51 263.34 337.92 Q 263.34 338.33 263.64 338.65 Q 263.94 338.97 264.75 339.43 M 264.75 339.43 M 264.04 340.12 Q 263.46 340.57 263.26 340.91 Q 263.05 341.24 263.05 341.74 Q 263.05 342.36 263.45 342.74 Q 263.85 343.13 264.5 343.13 Q 265.13 343.13 265.53 342.8 Q 265.93 342.47 265.93 341.95 Q 265.93 341.53 265.68 341.24 Q 265.44 340.95 264.73 340.53 M 264.04 340.12"/></g><g style="fill: rgb(0,0,0); fill-opacity: 1.0; stroke: none" transform="matrix(1,0,0,1,0,0)" clip-path="url(#94008632242178clip-0)"><path d="M 286.67 343.62 L 286.67 342.81 Q 287.59 343.13 288.23 343.13 Q 289.13 343.13 289.64 342.36 Q 290.14 341.6 290.14 340.24 Q 289.41 341.14 288.48 341.14 Q 287.56 341.14 286.93 340.47 Q 286.3 339.8 286.3 338.83 Q 286.3 337.72 286.97 336.99 Q 287.65 336.26 288.67 336.26 Q 289.85 336.26 290.53 337.21 Q 291.21 338.15 291.21 339.79 Q 291.21 341.66 290.38 342.75 Q 289.55 343.85 288.14 343.85 Q 287.57 343.85 286.67 343.62 M 286.67 343.62 M 287.26 338.64 Q 287.26 339.48 287.63 339.96 Q 288 340.45 288.65 340.45 Q 289.26 340.45 289.7 340.03 Q 290.13 339.62 290.13 339.03 Q 290.13 338.11 289.71 337.54 Q 289.29 336.98 288.61 336.98 Q 287.98 336.98 287.62 337.43 Q 287.26 337.87 287.26 338.64 M 287.26 338.64"/></g><g style="fill: rgb(0,0,0); fill-opacity: 1.0; stroke: none" transform="matrix(1,0,0,1,0,0)" clip-path="url(#94008632242178clip-0)"><path d="M 308.35 343.67 L 308.35 342.95 L 309.79 342.95 L 309.79 337.24 L 308.35 337.6 L 308.35 336.86 L 310.76 336.26 L 310.76 342.95 L 312.21 342.95 L 312.21 343.67 M 308.35 343.67 M 315.98 343.85 Q 314.86 343.85 314.17 342.8 Q 313.48 341.74 313.48 340.05 Q 313.48 338.34 314.18 337.3 Q 314.87 336.26 316.01 336.26 Q 317.15 336.26 317.84 337.3 Q 318.54 338.34 318.54 340.04 Q 318.54 341.77 317.84 342.81 Q 317.15 343.85 315.98 343.85 M 315.98 343.85 M 315.99 343.13 Q 317.52 343.13 317.52 340.02 Q 317.52 336.98 316.01 336.98 Q 314.5 336.98 314.5 340.05 Q 314.5 343.13 315.99 343.13 M 315.99 343.13"/></g><g style="fill: rgb(0,0,0); fill-opacity: 1.0; stroke: none" transform="matrix(1,0,0,1,0,0)" clip-path="url(#94008632242178clip-0)"><path d="M 332.66 343.67 L 332.66 342.95 L 334.1 342.95 L 334.1 337.24 L 332.66 337.6 L 332.66 336.86 L 335.07 336.26 L 335.07 342.95 L 336.52 342.95 L 336.52 343.67 M 332.66 343.67 M 338.66 343.67 L 338.66 342.95 L 340.1 342.95 L 340.1 337.24 L 338.66 337.6 L 338.66 336.86 L 341.07 336.26 L 341.07 342.95 L 342.52 342.95 L 342.52 343.67 M 338.66 343.67"/></g><g style="fill: rgb(0,0,0); fill-opacity: 1.0; stroke: none" transform="matrix(1,0,0,1,0,0)" clip-path="url(#94008632242178clip-0)"><path d="M 356.97 343.67 L 356.97 342.95 L 358.42 342.95 L 358.42 337.24 L 356.97 337.6 L 356.97 336.86 L 359.38 336.26 L 359.38 342.95 L 360.83 342.95 L 360.83 343.67 M 356.97 343.67 M 362.3 343.67 L 362.3 342.82 Q 362.72 341.84 364 340.68 L 364.55 340.19 Q 365.61 339.23 365.61 338.28 Q 365.61 337.68 365.25 337.33 Q 364.88 336.98 364.25 336.98 Q 363.5 336.98 362.48 337.56 L 362.48 336.71 Q 363.44 336.26 364.39 336.26 Q 365.4 336.26 366.02 336.81 Q 366.63 337.35 366.63 338.26 Q 366.63 338.91 366.32 339.41 Q 366.01 339.91 365.17 340.63 L 364.8 340.95 Q 363.64 341.93 363.46 342.82 L 366.6 342.82 L 366.6 343.67 M 362.3 343.67"/></g><g style="fill: rgb(0,0,0); fill-opacity: 1.0; stroke: none" transform="matrix(1,0,0,1,0,0)" clip-path="url(#94008632242178clip-0)"><path d="M 381.28 343.67 L 381.28 342.95 L 382.73 342.95 L 382.73 337.24 L 381.28 337.6 L 381.28 336.86 L 383.69 336.26 L 383.69 342.95 L 385.14 342.95 L 385.14 343.67 M 381.28 343.67 M 386.79 343.61 L 386.79 342.72 Q 387.83 343.13 388.42 343.13 Q 389.11 343.13 389.54 342.72 Q 389.98 342.32 389.98 341.68 Q 389.98 340.16 387.84 340.16 L 387.46 340.16 L 387.46 339.51 L 387.8 339.5 Q 389.8 339.5 389.8 338.09 Q 389.8 336.98 388.48 336.98 Q 387.76 336.98 386.89 337.39 L 386.89 336.55 Q 387.75 336.26 388.55 336.26 Q 390.77 336.26 390.77 337.94 Q 390.77 339.21 389.26 339.75 Q 391.01 340.16 391.01 341.67 Q 391.01 342.69 390.33 343.27 Q 389.66 343.85 388.48 343.85 Q 387.81 343.85 386.79 343.61 M 386.79 343.61"/></g><g style="fill: rgb(0,0,0); fill-opacity: 1.0; stroke: none" transform="matrix(1,0,0,1,0,0)" clip-path="url(#94008632242178clip-0)"><path d="M 405.59 343.67 L 405.59 342.95 L 407.04 342.95 L 407.04 337.24 L 405.59 337.6 L 405.59 336.86 L 408 336.26 L 408 342.95 L 409.45 342.95 L 409.45 343.67 M 405.59 343.67 M 413.85 343.67 L 413.85 341.62 L 410.6 341.62 L 410.6 340.89 L 413.85 336.44 L 414.76 336.44 L 414.76 340.84 L 415.72 340.84 L 415.72 341.62 L 414.76 341.62 L 414.76 343.67 M 413.85 343.67 M 411.54 340.84 L 413.92 340.84 L 413.92 337.62 M 411.54 340.84"/></g><g style="fill: rgb(0,0,0); fill-opacity: 1.0; stroke: none" transform="matrix(1,0,0,1,0,0)" clip-path="url(#94008632242178clip-0)"><path d="M 429.9 343.67 L 429.9 342.95 L 431.35 342.95 L 431.35 337.24 L 429.9 337.6 L 429.9 336.86 L 432.32 336.26 L 432.32 342.95 L 433.76 342.95 L 433.76 343.67 M 429.9 343.67 M 435.62 343.7 L 435.62 342.84 Q 436.33 343.13 436.98 343.13 Q 437.7 343.13 438.1 342.71 Q 438.51 342.29 438.51 341.55 Q 438.51 339.92 436.27 339.92 Q 436.02 339.92 435.74 339.96 L 435.74 336.44 L 439.39 336.44 L 439.39 337.28 L 436.58 337.28 L 436.58 339.19 Q 437.97 339.19 438.76 339.83 Q 439.54 340.46 439.54 341.6 Q 439.54 342.65 438.83 343.25 Q 438.12 343.85 436.86 343.85 Q 436.31 343.85 435.62 343.7 M 435.62 343.7"/></g><g style="fill: rgb(0,0,0); fill-opacity: 1.0; stroke: none" transform="matrix(1,0,0,1,0,0)" clip-path="url(#94008632242178clip-0)"><path d="M 454.21 343.67 L 454.21 342.95 L 455.66 342.95 L 455.66 337.24 L 454.21 337.6 L 454.21 336.86 L 456.63 336.26 L 456.63 342.95 L 458.07 342.95 L 458.07 343.67 M 454.21 343.67 M 460.43 339.92 Q 461.12 339.03 462.16 339.03 Q 463.11 339.03 463.71 339.66 Q 464.32 340.28 464.32 341.27 Q 464.32 342.39 463.64 343.12 Q 462.96 343.85 461.92 343.85 Q 460.73 343.85 460.05 342.89 Q 459.38 341.92 459.38 340.22 Q 459.38 338.34 460.15 337.3 Q 460.93 336.26 462.33 336.26 Q 462.98 336.26 463.95 336.53 L 463.95 337.37 Q 462.92 336.98 462.28 336.98 Q 460.43 336.98 460.43 339.92 M 460.43 339.92 M 463.35 341.48 Q 463.35 340.66 462.98 340.19 Q 462.61 339.72 461.96 339.72 Q 461.35 339.72 460.91 340.13 Q 460.47 340.54 460.47 341.12 Q 460.47 342.03 460.89 342.58 Q 461.3 343.13 461.99 343.13 Q 462.61 343.13 462.98 342.68 Q 463.35 342.23 463.35 341.48 M 463.35 341.48"/></g><g style="fill: rgb(0,0,0); fill-opacity: 1.0; stroke: none" transform="matrix(1,0,0,1,0,0)" clip-path="url(#94008632242178clip-0)"><path d="M 478.53 343.67 L 478.53 342.95 L 479.97 342.95 L 479.97 337.24 L 478.53 337.6 L 478.53 336.86 L 480.94 336.26 L 480.94 342.95 L 482.38 342.95 L 482.38 343.67 M 478.53 343.67 M 484.53 343.67 Q 484.67 342.82 484.93 342.21 Q 485.19 341.59 485.85 340.52 L 487.83 337.34 L 484.11 337.34 L 484.11 336.44 L 488.74 336.44 L 488.74 337.34 Q 485.97 341.44 485.63 343.67 M 484.53 343.67"/></g><g style="fill: rgb(0,0,0); fill-opacity: 1.0; stroke: none" transform="matrix(1,0,0,1,0,0)" clip-path="url(#94008632242178clip-0)"><path d="M 502.84 343.67 L 502.84 342.95 L 504.28 342.95 L 504.28 337.24 L 502.84 337.6 L 502.84 336.86 L 505.25 336.26 L 505.25 342.95 L 506.69 342.95 L 506.69 343.67 M 502.84 343.67 M 509.63 339.73 Q 508.57 339 508.57 338.1 Q 508.57 337.28 509.17 336.77 Q 509.77 336.26 510.74 336.26 Q 511.63 336.26 512.19 336.69 Q 512.74 337.12 512.74 337.82 Q 512.74 338.87 511.4 339.73 Q 513.03 340.53 513.03 341.8 Q 513.03 342.71 512.35 343.28 Q 511.66 343.85 510.58 343.85 Q 509.51 343.85 508.85 343.31 Q 508.2 342.77 508.2 341.89 Q 508.2 340.59 509.63 339.73 M 509.63 339.73 M 510.86 339.43 Q 511.87 338.77 511.87 337.95 Q 511.87 337.52 511.53 337.25 Q 511.2 336.98 510.64 336.98 Q 510.11 336.98 509.78 337.24 Q 509.45 337.51 509.45 337.92 Q 509.45 338.33 509.75 338.65 Q 510.05 338.97 510.86 339.43 M 510.86 339.43 M 510.16 340.12 Q 509.57 340.57 509.37 340.91 Q 509.16 341.24 509.16 341.74 Q 509.16 342.36 509.56 342.74 Q 509.96 343.13 510.61 343.13 Q 511.24 343.13 511.64 342.8 Q 512.04 342.47 512.04 341.95 Q 512.04 341.53 511.79 341.24 Q 511.55 340.95 510.84 340.53 M 510.16 340.12"/></g><g style="fill: rgb(0,0,0); fill-opacity: 1.0; stroke: none" transform="matrix(1,0,0,1,0,0)" clip-path="url(#94008632242178clip-0)"><path d="M 527.15 343.67 L 527.15 342.95 L 528.59 342.95 L 528.59 337.24 L 527.15 337.6 L 527.15 336.86 L 529.56 336.26 L 529.56 342.95 L 531.01 342.95 L 531.01 343.67 M 527.15 343.67 M 532.78 343.62 L 532.78 342.81 Q 533.7 343.13 534.34 343.13 Q 535.24 343.13 535.75 342.36 Q 536.25 341.6 536.25 340.24 Q 535.52 341.14 534.59 341.14 Q 533.68 341.14 533.04 340.47 Q 532.41 339.8 532.41 338.83 Q 532.41 337.72 533.08 336.99 Q 533.76 336.26 534.78 336.26 Q 535.96 336.26 536.64 337.21 Q 537.32 338.15 537.32 339.79 Q 537.32 341.66 536.49 342.75 Q 535.66 343.85 534.25 343.85 Q 533.68 343.85 532.78 343.62 M 532.78 343.62 M 533.37 338.64 Q 533.37 339.48 533.74 339.96 Q 534.11 340.45 534.76 340.45 Q 535.37 340.45 535.81 340.03 Q 536.24 339.62 536.24 339.03 Q 536.24 338.11 535.82 337.54 Q 535.4 336.98 534.72 336.98 Q 534.1 336.98 533.73 337.43 Q 533.37 337.87 533.37 338.64 M 533.37 338.64"/></g><g style="fill: rgb(0,0,0); fill-opacity: 1.0; stroke: none" transform="matrix(1,0,0,1,0,0)" clip-path="url(#94008632242178clip-0)"><path d="M 550.79 343.67 L 550.79 342.82 Q 551.21 341.84 552.48 340.68 L 553.04 340.19 Q 554.1 339.23 554.1 338.28 Q 554.1 337.68 553.74 337.33 Q 553.37 336.98 552.74 336.98 Q 551.99 336.98 550.97 337.56 L 550.97 336.71 Q 551.93 336.26 552.87 336.26 Q 553.89 336.26 554.51 336.81 Q 555.12 337.35 555.12 338.26 Q 555.12 338.91 554.81 339.41 Q 554.5 339.91 553.66 340.63 L 553.29 340.95 Q 552.13 341.93 551.95 342.82 L 555.09 342.82 L 555.09 343.67 M 550.79 343.67 M 559.09 343.85 Q 557.97 343.85 557.28 342.8 Q 556.59 341.74 556.59 340.05 Q 556.59 338.34 557.29 337.3 Q 557.98 336.26 559.12 336.26 Q 560.26 336.26 560.95 337.3 Q 561.65 338.34 561.65 340.04 Q 561.65 341.77 560.95 342.81 Q 560.26 343.85 559.09 343.85 M 559.09 343.85 M 559.1 343.13 Q 560.63 343.13 560.63 340.02 Q 560.63 336.98 559.12 336.98 Q 557.62 336.98 557.62 340.05 Q 557.62 343.13 559.1 343.13 M 559.1 343.13"/></g><g style="fill: rgb(0,0,0); fill-opacity: 1.0; stroke: none" transform="matrix(1,0,0,1,0,0)" clip-path="url(#94008632242178clip-0)"><path d="M 311.68 364.38 L 311.68 356.63 L 308.61 356.63 L 308.61 355.71 L 315.99 355.71 L 315.99 356.63 L 312.91 356.63 L 312.91 364.38 M 311.68 364.38 M 321.63 364.38 L 321.63 363.18 Q 320.71 364.53 319.4 364.53 Q 318.57 364.53 318.08 364 Q 317.58 363.48 317.58 362.59 L 317.58 358.02 L 318.74 358.02 L 318.74 362.21 Q 318.74 362.93 318.95 363.23 Q 319.15 363.53 319.64 363.53 Q 320.7 363.53 321.63 362.14 L 321.63 358.02 L 322.79 358.02 L 322.79 364.38 M 321.63 364.38 M 325.65 366.69 L 325.65 358.02 L 326.81 358.02 L 326.81 359.21 Q 327.52 357.88 328.94 357.88 Q 330.08 357.88 330.74 358.71 Q 331.4 359.55 331.4 361 Q 331.4 362.59 330.66 363.56 Q 329.91 364.53 328.69 364.53 Q 327.56 364.53 326.81 363.66 L 326.81 366.69 M 325.65 366.69 M 326.81 362.86 Q 327.7 363.66 328.51 363.66 Q 330.17 363.66 330.17 361.12 Q 330.17 358.88 328.7 358.88 Q 327.73 358.88 326.81 359.93 M 326.81 362.86 M 338.32 364.17 Q 337.16 364.53 336.33 364.53 Q 334.93 364.53 334.04 363.59 Q 333.15 362.66 333.15 361.17 Q 333.15 359.72 333.93 358.79 Q 334.71 357.87 335.93 357.87 Q 337.09 357.87 337.72 358.69 Q 338.35 359.51 338.35 361.02 L 338.34 361.38 L 334.33 361.38 Q 334.58 363.65 336.55 363.65 Q 337.27 363.65 338.32 363.26 M 338.32 364.17 M 334.38 360.51 L 337.19 360.51 Q 337.19 358.74 335.86 358.74 Q 334.53 358.74 334.38 360.51 M 334.38 360.51 M 340.65 364.38 L 340.65 355.13 L 341.81 355.13 L 341.81 364.38 M 340.65 364.38"/></g><line x1="58" y1="23" x2="58" y2="328" style="stroke-width: 1.0;stroke: rgb(128,128,128);stroke-opacity: 1.0;" transform="matrix(1,0,0,1,0,0)" clip-path="url(#94008632242178clip-0)"/><g style="fill: rgb(0,0,0); fill-opacity: 1.0; stroke: none" transform="matrix(1,0,0,1,0,0)" clip-path="url(#94008632242178clip-0)"><path d="M 28.13 331.96 Q 27.02 331.96 26.33 330.91 Q 25.63 329.86 25.63 328.16 Q 25.63 326.45 26.33 325.41 Q 27.03 324.37 28.16 324.37 Q 29.3 324.37 30 325.41 Q 30.69 326.45 30.69 328.15 Q 30.69 329.88 30 330.92 Q 29.3 331.96 28.13 331.96 M 28.13 331.96 M 28.14 331.24 Q 29.67 331.24 29.67 328.13 Q 29.67 325.09 28.16 325.09 Q 26.66 325.09 26.66 328.16 Q 26.66 331.24 28.14 331.24 M 28.14 331.24 M 31.98 331.78 L 31.98 330.57 L 33.18 330.57 L 33.18 331.78 M 31.98 331.78 M 37.13 331.96 Q 36.02 331.96 35.33 330.91 Q 34.63 329.86 34.63 328.16 Q 34.63 326.45 35.33 325.41 Q 36.03 324.37 37.16 324.37 Q 38.3 324.37 39 325.41 Q 39.69 326.45 39.69 328.15 Q 39.69 329.88 39 330.92 Q 38.3 331.96 37.13 331.96 M 37.13 331.96 M 37.14 331.24 Q 38.67 331.24 38.67 328.13 Q 38.67 325.09 37.16 325.09 Q 35.66 325.09 35.66 328.16 Q 35.66 331.24 37.14 331.24 M 37.14 331.24 M 43.13 331.96 Q 42.02 331.96 41.33 330.91 Q 40.63 329.86 40.63 328.16 Q 40.63 326.45 41.33 325.41 Q 42.03 324.37 43.16 324.37 Q 44.3 324.37 45 325.41 Q 45.69 326.45 45.69 328.15 Q 45.69 329.88 45 330.92 Q 44.3 331.96 43.13 331.96 M 43.13 331.96 M 43.14 331.24 Q 44.67 331.24 44.67 328.13 Q 44.67 325.09 43.16 325.09 Q 41.66 325.09 41.66 328.16 Q 41.66 331.24 43.14 331.24 M 43.14 331.24 M 49.13 331.96 Q 48.02 331.96 47.33 330.91 Q 46.63 329.86 46.63 328.16 Q 46.63 326.45 47.33 325.41 Q 48.03 324.37 49.16 324.37 Q 50.3 324.37 51 325.41 Q 51.69 326.45 51.69 328.15 Q 51.69 329.88 51 330.92 Q 50.3 331.96 49.13 331.96 M 49.13 331.96 M 49.14 331.24 Q 50.67 331.24 50.67 328.13 Q 50.67 325.09 49.16 325.09 Q 47.66 325.09 47.66 328.16 Q 47.66 331.24 49.14 331.24 M 49.14 331.24"/></g><line x1="56" y1="328" x2="58" y2="328" style="stroke-width: 1.0;stroke: rgb(128,128,128);stroke-opacity: 1.0;" transform="matrix(1,0,0,1,0,0)" clip-path="url(#94008632242178clip-0)"/><g style="fill: rgb(0,0,0); fill-opacity: 1.0; stroke: none" transform="matrix(1,0,0,1,0,0)" clip-path="url(#94008632242178clip-0)"><path d="M 28.13 295.32 Q 27.02 295.32 26.33 294.27 Q 25.63 293.22 25.63 291.52 Q 25.63 289.82 26.33 288.78 Q 27.03 287.74 28.16 287.74 Q 29.3 287.74 30 288.78 Q 30.69 289.82 30.69 291.51 Q 30.69 293.25 30 294.29 Q 29.3 295.32 28.13 295.32 M 28.13 295.32 M 28.14 294.6 Q 29.67 294.6 29.67 291.5 Q 29.67 288.46 28.16 288.46 Q 26.66 288.46 26.66 291.52 Q 26.66 294.6 28.14 294.6 M 28.14 294.6 M 31.98 295.14 L 31.98 293.94 L 33.18 293.94 L 33.18 295.14 M 31.98 295.14 M 37.13 295.32 Q 36.02 295.32 35.33 294.27 Q 34.63 293.22 34.63 291.52 Q 34.63 289.82 35.33 288.78 Q 36.03 287.74 37.16 287.74 Q 38.3 287.74 39 288.78 Q 39.69 289.82 39.69 291.51 Q 39.69 293.25 39 294.29 Q 38.3 295.32 37.13 295.32 M 37.13 295.32 M 37.14 294.6 Q 38.67 294.6 38.67 291.5 Q 38.67 288.46 37.16 288.46 Q 35.66 288.46 35.66 291.52 Q 35.66 294.6 37.14 294.6 M 37.14 294.6 M 40.83 295.14 L 40.83 294.3 Q 41.25 293.32 42.53 292.16 L 43.08 291.67 Q 44.15 290.7 44.15 289.76 Q 44.15 289.15 43.78 288.8 Q 43.42 288.46 42.78 288.46 Q 42.03 288.46 41.01 289.04 L 41.01 288.19 Q 41.97 287.74 42.92 287.74 Q 43.94 287.74 44.55 288.28 Q 45.17 288.83 45.17 289.73 Q 45.17 290.38 44.86 290.88 Q 44.55 291.39 43.7 292.11 L 43.33 292.42 Q 42.17 293.4 41.99 294.3 L 45.13 294.3 L 45.13 295.14 M 40.83 295.14 M 47.22 295.17 L 47.22 294.31 Q 47.93 294.6 48.58 294.6 Q 49.3 294.6 49.7 294.18 Q 50.11 293.76 50.11 293.02 Q 50.11 291.4 47.87 291.4 Q 47.62 291.4 47.34 291.43 L 47.34 287.92 L 51 287.92 L 51 288.76 L 48.18 288.76 L 48.18 290.66 Q 49.57 290.66 50.36 291.3 Q 51.14 291.94 51.14 293.07 Q 51.14 294.13 50.43 294.73 Q 49.72 295.32 48.46 295.32 Q 47.91 295.32 47.22 295.17 M 47.22 295.17"/></g><line x1="56" y1="291.36" x2="58" y2="291.36" style="stroke-width: 1.0;stroke: rgb(128,128,128);stroke-opacity: 1.0;" transform="matrix(1,0,0,1,0,0)" clip-path="url(#94008632242178clip-0)"/><g style="fill: rgb(0,0,0); fill-opacity: 1.0; stroke: none" transform="matrix(1,0,0,1,0,0)" clip-path="url(#94008632242178clip-0)"><path d="M 28.13 258.69 Q 27.02 258.69 26.33 257.63 Q 25.63 256.58 25.63 254.89 Q 25.63 253.18 26.33 252.14 Q 27.03 251.1 28.16 251.1 Q 29.3 251.1 30 252.14 Q 30.69 253.18 30.69 254.87 Q 30.69 256.61 30 257.65 Q 29.3 258.69 28.13 258.69 M 28.13 258.69 M 28.14 257.96 Q 29.67 257.96 29.67 254.86 Q 29.67 251.82 28.16 251.82 Q 26.66 251.82 26.66 254.89 Q 26.66 257.96 28.14 257.96 M 28.14 257.96 M 31.98 258.51 L 31.98 257.3 L 33.18 257.3 L 33.18 258.51 M 31.98 258.51 M 37.13 258.69 Q 36.02 258.69 35.33 257.63 Q 34.63 256.58 34.63 254.89 Q 34.63 253.18 35.33 252.14 Q 36.03 251.1 37.16 251.1 Q 38.3 251.1 39 252.14 Q 39.69 253.18 39.69 254.87 Q 39.69 256.61 39 257.65 Q 38.3 258.69 37.13 258.69 M 37.13 258.69 M 37.14 257.96 Q 38.67 257.96 38.67 254.86 Q 38.67 251.82 37.16 251.82 Q 35.66 251.82 35.66 254.89 Q 35.66 257.96 37.14 257.96 M 37.14 257.96 M 41.22 258.54 L 41.22 257.68 Q 41.93 257.96 42.58 257.96 Q 43.3 257.96 43.7 257.54 Q 44.11 257.12 44.11 256.39 Q 44.11 254.76 41.87 254.76 Q 41.62 254.76 41.34 254.79 L 41.34 251.28 L 45 251.28 L 45 252.12 L 42.18 252.12 L 42.18 254.02 Q 43.57 254.02 44.36 254.66 Q 45.14 255.3 45.14 256.44 Q 45.14 257.49 44.43 258.09 Q 43.72 258.69 42.46 258.69 Q 41.91 258.69 41.22 258.54 M 41.22 258.54 M 49.13 258.69 Q 48.02 258.69 47.33 257.63 Q 46.63 256.58 46.63 254.89 Q 46.63 253.18 47.33 252.14 Q 48.03 251.1 49.16 251.1 Q 50.3 251.1 51 252.14 Q 51.69 253.18 51.69 254.87 Q 51.69 256.61 51 257.65 Q 50.3 258.69 49.13 258.69 M 49.13 258.69 M 49.14 257.96 Q 50.67 257.96 50.67 254.86 Q 50.67 251.82 49.16 251.82 Q 47.66 251.82 47.66 254.89 Q 47.66 257.96 49.14 257.96 M 49.14 257.96"/></g><line x1="56" y1="254.73" x2="58" y2="254.73" style="stroke-width: 1.0;stroke: rgb(128,128,128);stroke-opacity: 1.0;" transform="matrix(1,0,0,1,0,0)" clip-path="url(#94008632242178clip-0)"/><g style="fill: rgb(0,0,0); fill-opacity: 1.0; stroke: none" transform="matrix(1,0,0,1,0,0)" clip-path="url(#94008632242178clip-0)"><path d="M 28.13 222.05 Q 27.02 222.05 26.33 221 Q 25.63 219.95 25.63 218.25 Q 25.63 216.54 26.33 215.5 Q 27.03 214.46 28.16 214.46 Q 29.3 214.46 30 215.5 Q 30.69 216.54 30.69 218.24 Q 30.69 219.97 30 221.01 Q 29.3 222.05 28.13 222.05 M 28.13 222.05 M 28.14 221.33 Q 29.67 221.33 29.67 218.22 Q 29.67 215.18 28.16 215.18 Q 26.66 215.18 26.66 218.25 Q 26.66 221.33 28.14 221.33 M 28.14 221.33 M 31.98 221.87 L 31.98 220.66 L 33.18 220.66 L 33.18 221.87 M 31.98 221.87 M 37.13 222.05 Q 36.02 222.05 35.33 221 Q 34.63 219.95 34.63 218.25 Q 34.63 216.54 35.33 215.5 Q 36.03 214.46 37.16 214.46 Q 38.3 214.46 39 215.5 Q 39.69 216.54 39.69 218.24 Q 39.69 219.97 39 221.01 Q 38.3 222.05 37.13 222.05 M 37.13 222.05 M 37.14 221.33 Q 38.67 221.33 38.67 218.22 Q 38.67 215.18 37.16 215.18 Q 35.66 215.18 35.66 218.25 Q 35.66 221.33 37.14 221.33 M 37.14 221.33 M 41.5 221.87 Q 41.65 221.02 41.91 220.41 Q 42.17 219.79 42.83 218.72 L 44.8 215.55 L 41.08 215.55 L 41.08 214.64 L 45.72 214.64 L 45.72 215.55 Q 42.94 219.64 42.61 221.87 M 41.5 221.87 M 47.22 221.9 L 47.22 221.04 Q 47.93 221.33 48.58 221.33 Q 49.3 221.33 49.7 220.91 Q 50.11 220.49 50.11 219.75 Q 50.11 218.12 47.87 218.12 Q 47.62 218.12 47.34 218.16 L 47.34 214.64 L 51 214.64 L 51 215.48 L 48.18 215.48 L 48.18 217.39 Q 49.57 217.39 50.36 218.03 Q 51.14 218.67 51.14 219.8 Q 51.14 220.85 50.43 221.45 Q 49.72 222.05 48.46 222.05 Q 47.91 222.05 47.22 221.9 M 47.22 221.9"/></g><line x1="56" y1="218.09" x2="58" y2="218.09" style="stroke-width: 1.0;stroke: rgb(128,128,128);stroke-opacity: 1.0;" transform="matrix(1,0,0,1,0,0)" clip-path="url(#94008632242178clip-0)"/><g style="fill: rgb(0,0,0); fill-opacity: 1.0; stroke: none" transform="matrix(1,0,0,1,0,0)" clip-path="url(#94008632242178clip-0)"><path d="M 28.13 185.41 Q 27.02 185.41 26.33 184.36 Q 25.63 183.31 25.63 181.61 Q 25.63 179.91 26.33 178.87 Q 27.03 177.83 28.16 177.83 Q 29.3 177.83 30 178.87 Q 30.69 179.91 30.69 181.6 Q 30.69 183.34 30 184.38 Q 29.3 185.41 28.13 185.41 M 28.13 185.41 M 28.14 184.69 Q 29.67 184.69 29.67 181.58 Q 29.67 178.55 28.16 178.55 Q 26.66 178.55 26.66 181.61 Q 26.66 184.69 28.14 184.69 M 28.14 184.69 M 31.98 185.23 L 31.98 184.03 L 33.18 184.03 L 33.18 185.23 M 31.98 185.23 M 35.5 185.23 L 35.5 184.51 L 36.95 184.51 L 36.95 178.81 L 35.5 179.17 L 35.5 178.43 L 37.92 177.83 L 37.92 184.51 L 39.36 184.51 L 39.36 185.23 M 35.5 185.23 M 43.13 185.41 Q 42.02 185.41 41.33 184.36 Q 40.63 183.31 40.63 181.61 Q 40.63 179.91 41.33 178.87 Q 42.03 177.83 43.16 177.83 Q 44.3 177.83 45 178.87 Q 45.69 179.91 45.69 181.6 Q 45.69 183.34 45 184.38 Q 44.3 185.41 43.13 185.41 M 43.13 185.41 M 43.14 184.69 Q 44.67 184.69 44.67 181.58 Q 44.67 178.55 43.16 178.55 Q 41.66 178.55 41.66 181.61 Q 41.66 184.69 43.14 184.69 M 43.14 184.69 M 49.13 185.41 Q 48.02 185.41 47.33 184.36 Q 46.63 183.31 46.63 181.61 Q 46.63 179.91 47.33 178.87 Q 48.03 177.83 49.16 177.83 Q 50.3 177.83 51 178.87 Q 51.69 179.91 51.69 181.6 Q 51.69 183.34 51 184.38 Q 50.3 185.41 49.13 185.41 M 49.13 185.41 M 49.14 184.69 Q 50.67 184.69 50.67 181.58 Q 50.67 178.55 49.16 178.55 Q 47.66 178.55 47.66 181.61 Q 47.66 184.69 49.14 184.69 M 49.14 184.69"/></g><line x1="56" y1="181.45" x2="58" y2="181.45" style="stroke-width: 1.0;stroke: rgb(128,128,128);stroke-opacity: 1.0;" transform="matrix(1,0,0,1,0,0)" clip-path="url(#94008632242178clip-0)"/><g style="fill: rgb(0,0,0); fill-opacity: 1.0; stroke: none" transform="matrix(1,0,0,1,0,0)" clip-path="url(#94008632242178clip-0)"><path d="M 28.13 148.78 Q 27.02 148.78 26.33 147.72 Q 25.63 146.67 25.63 144.98 Q 25.63 143.27 26.33 142.23 Q 27.03 141.19 28.16 141.19 Q 29.3 141.19 30 142.23 Q 30.69 143.27 30.69 144.96 Q 30.69 146.7 30 147.74 Q 29.3 148.78 28.13 148.78 M 28.13 148.78 M 28.14 148.05 Q 29.67 148.05 29.67 144.95 Q 29.67 141.91 28.16 141.91 Q 26.66 141.91 26.66 144.98 Q 26.66 148.05 28.14 148.05 M 28.14 148.05 M 31.98 148.6 L 31.98 147.39 L 33.18 147.39 L 33.18 148.6 M 31.98 148.6 M 35.5 148.6 L 35.5 147.87 L 36.95 147.87 L 36.95 142.17 L 35.5 142.53 L 35.5 141.79 L 37.92 141.19 L 37.92 147.87 L 39.36 147.87 L 39.36 148.6 M 35.5 148.6 M 40.83 148.6 L 40.83 147.75 Q 41.25 146.77 42.53 145.61 L 43.08 145.12 Q 44.15 144.16 44.15 143.21 Q 44.15 142.6 43.78 142.26 Q 43.42 141.91 42.78 141.91 Q 42.03 141.91 41.01 142.49 L 41.01 141.64 Q 41.97 141.19 42.92 141.19 Q 43.94 141.19 44.55 141.74 Q 45.17 142.28 45.17 143.19 Q 45.17 143.83 44.86 144.34 Q 44.55 144.84 43.7 145.56 L 43.33 145.88 Q 42.17 146.86 41.99 147.75 L 45.13 147.75 L 45.13 148.6 M 40.83 148.6 M 47.22 148.62 L 47.22 147.77 Q 47.93 148.05 48.58 148.05 Q 49.3 148.05 49.7 147.63 Q 50.11 147.21 50.11 146.48 Q 50.11 144.85 47.87 144.85 Q 47.62 144.85 47.34 144.88 L 47.34 141.37 L 51 141.37 L 51 142.21 L 48.18 142.21 L 48.18 144.11 Q 49.57 144.11 50.36 144.75 Q 51.14 145.39 51.14 146.53 Q 51.14 147.58 50.43 148.18 Q 49.72 148.78 48.46 148.78 Q 47.91 148.78 47.22 148.62 M 47.22 148.62"/></g><line x1="56" y1="144.82" x2="58" y2="144.82" style="stroke-width: 1.0;stroke: rgb(128,128,128);stroke-opacity: 1.0;" transform="matrix(1,0,0,1,0,0)" clip-path="url(#94008632242178clip-0)"/><g style="fill: rgb(0,0,0); fill-opacity: 1.0; stroke: none" transform="matrix(1,0,0,1,0,0)" clip-path="url(#94008632242178clip-0)"><path d="M 28.13 112.14 Q 27.02 112.14 26.33 111.09 Q 25.63 110.03 25.63 108.34 Q 25.63 106.63 26.33 105.59 Q 27.03 104.55 28.16 104.55 Q 29.3 104.55 30 105.59 Q 30.69 106.63 30.69 108.33 Q 30.69 110.06 30 111.1 Q 29.3 112.14 28.13 112.14 M 28.13 112.14 M 28.14 111.42 Q 29.67 111.42 29.67 108.31 Q 29.67 105.27 28.16 105.27 Q 26.66 105.27 26.66 108.34 Q 26.66 111.42 28.14 111.42 M 28.14 111.42 M 31.98 111.96 L 31.98 110.75 L 33.18 110.75 L 33.18 111.96 M 31.98 111.96 M 35.5 111.96 L 35.5 111.24 L 36.95 111.24 L 36.95 105.53 L 35.5 105.89 L 35.5 105.15 L 37.92 104.55 L 37.92 111.24 L 39.36 111.24 L 39.36 111.96 M 35.5 111.96 M 41.22 111.99 L 41.22 111.13 Q 41.93 111.42 42.58 111.42 Q 43.3 111.42 43.7 111 Q 44.11 110.58 44.11 109.84 Q 44.11 108.21 41.87 108.21 Q 41.62 108.21 41.34 108.25 L 41.34 104.73 L 45 104.73 L 45 105.57 L 42.18 105.57 L 42.18 107.48 Q 43.57 107.48 44.36 108.12 Q 45.14 108.76 45.14 109.89 Q 45.14 110.94 44.43 111.54 Q 43.72 112.14 42.46 112.14 Q 41.91 112.14 41.22 111.99 M 41.22 111.99 M 49.13 112.14 Q 48.02 112.14 47.33 111.09 Q 46.63 110.03 46.63 108.34 Q 46.63 106.63 47.33 105.59 Q 48.03 104.55 49.16 104.55 Q 50.3 104.55 51 105.59 Q 51.69 106.63 51.69 108.33 Q 51.69 110.06 51 111.1 Q 50.3 112.14 49.13 112.14 M 49.13 112.14 M 49.14 111.42 Q 50.67 111.42 50.67 108.31 Q 50.67 105.27 49.16 105.27 Q 47.66 105.27 47.66 108.34 Q 47.66 111.42 49.14 111.42 M 49.14 111.42"/></g><line x1="56" y1="108.18" x2="58" y2="108.18" style="stroke-width: 1.0;stroke: rgb(128,128,128);stroke-opacity: 1.0;" transform="matrix(1,0,0,1,0,0)" clip-path="url(#94008632242178clip-0)"/><g style="fill: rgb(0,0,0); fill-opacity: 1.0; stroke: none" transform="matrix(1,0,0,1,0,0)" clip-path="url(#94008632242178clip-0)"><path d="M 28.13 75.5 Q 27.02 75.5 26.33 74.45 Q 25.63 73.4 25.63 71.7 Q 25.63 69.99 26.33 68.95 Q 27.03 67.91 28.16 67.91 Q 29.3 67.91 30 68.95 Q 30.69 69.99 30.69 71.69 Q 30.69 73.43 30 74.47 Q 29.3 75.5 28.13 75.5 M 28.13 75.5 M 28.14 74.78 Q 29.67 74.78 29.67 71.67 Q 29.67 68.64 28.16 68.64 Q 26.66 68.64 26.66 71.7 Q 26.66 74.78 28.14 74.78 M 28.14 74.78 M 31.98 75.32 L 31.98 74.12 L 33.18 74.12 L 33.18 75.32 M 31.98 75.32 M 35.5 75.32 L 35.5 74.6 L 36.95 74.6 L 36.95 68.9 L 35.5 69.26 L 35.5 68.52 L 37.92 67.91 L 37.92 74.6 L 39.36 74.6 L 39.36 75.32 M 35.5 75.32 M 41.5 75.32 Q 41.65 74.48 41.91 73.86 Q 42.17 73.25 42.83 72.17 L 44.8 69 L 41.08 69 L 41.08 68.1 L 45.72 68.1 L 45.72 69 Q 42.94 73.1 42.61 75.32 M 41.5 75.32 M 47.22 75.35 L 47.22 74.49 Q 47.93 74.78 48.58 74.78 Q 49.3 74.78 49.7 74.36 Q 50.11 73.94 50.11 73.2 Q 50.11 71.58 47.87 71.58 Q 47.62 71.58 47.34 71.61 L 47.34 68.1 L 51 68.1 L 51 68.94 L 48.18 68.94 L 48.18 70.84 Q 49.57 70.84 50.36 71.48 Q 51.14 72.12 51.14 73.25 Q 51.14 74.31 50.43 74.9 Q 49.72 75.5 48.46 75.5 Q 47.91 75.5 47.22 75.35 M 47.22 75.35"/></g><line x1="56" y1="71.54" x2="58" y2="71.54" style="stroke-width: 1.0;stroke: rgb(128,128,128);stroke-opacity: 1.0;" transform="matrix(1,0,0,1,0,0)" clip-path="url(#94008632242178clip-0)"/><g style="fill: rgb(0,0,0); fill-opacity: 1.0; stroke: none" transform="matrix(1,0,0,1,0,0)" clip-path="url(#94008632242178clip-0)"><path d="M 28.13 38.87 Q 27.02 38.87 26.33 37.81 Q 25.63 36.76 25.63 35.07 Q 25.63 33.36 26.33 32.32 Q 27.03 31.28 28.16 31.28 Q 29.3 31.28 30 32.32 Q 30.69 33.36 30.69 35.05 Q 30.69 36.79 30 37.83 Q 29.3 38.87 28.13 38.87 M 28.13 38.87 M 28.14 38.14 Q 29.67 38.14 29.67 35.04 Q 29.67 32 28.16 32 Q 26.66 32 26.66 35.07 Q 26.66 38.14 28.14 38.14 M 28.14 38.14 M 31.98 38.69 L 31.98 37.48 L 33.18 37.48 L 33.18 38.69 M 31.98 38.69 M 34.83 38.69 L 34.83 37.84 Q 35.25 36.86 36.53 35.7 L 37.08 35.21 Q 38.15 34.25 38.15 33.3 Q 38.15 32.69 37.78 32.35 Q 37.42 32 36.78 32 Q 36.03 32 35.01 32.58 L 35.01 31.73 Q 35.97 31.28 36.92 31.28 Q 37.94 31.28 38.55 31.82 Q 39.17 32.37 39.17 33.28 Q 39.17 33.92 38.86 34.43 Q 38.55 34.93 37.7 35.65 L 37.33 35.97 Q 36.17 36.95 35.99 37.84 L 39.13 37.84 L 39.13 38.69 M 34.83 38.69 M 43.13 38.87 Q 42.02 38.87 41.33 37.81 Q 40.63 36.76 40.63 35.07 Q 40.63 33.36 41.33 32.32 Q 42.03 31.28 43.16 31.28 Q 44.3 31.28 45 32.32 Q 45.69 33.36 45.69 35.05 Q 45.69 36.79 45 37.83 Q 44.3 38.87 43.13 38.87 M 43.13 38.87 M 43.14 38.14 Q 44.67 38.14 44.67 35.04 Q 44.67 32 43.16 32 Q 41.66 32 41.66 35.07 Q 41.66 38.14 43.14 38.14 M 43.14 38.14 M 49.13 38.87 Q 48.02 38.87 47.33 37.81 Q 46.63 36.76 46.63 35.07 Q 46.63 33.36 47.33 32.32 Q 48.03 31.28 49.16 31.28 Q 50.3 31.28 51 32.32 Q 51.69 33.36 51.69 35.05 Q 51.69 36.79 51 37.83 Q 50.3 38.87 49.13 38.87 M 49.13 38.87 M 49.14 38.14 Q 50.67 38.14 50.67 35.04 Q 50.67 32 49.16 32 Q 47.66 32 47.66 35.07 Q 47.66 38.14 49.14 38.14 M 49.14 38.14"/></g><line x1="56" y1="34.91" x2="58" y2="34.91" style="stroke-width: 1.0;stroke: rgb(128,128,128);stroke-opacity: 1.0;" transform="matrix(1,0,0,1,0,0)" clip-path="url(#94008632242178clip-0)"/><g style="fill: rgb(0,0,0); fill-opacity: 1.0; stroke: none" transform="matrix(0,-1,1,0,-162.566406,188.433594)" clip-path="url(#94008632242178clip-1)"><path d="M 0.42 180.04 L -2.86 171.36 L -1.62 171.36 L 1.06 178.46 L 3.65 171.36 L 4.73 171.36 L 1.58 180.04 M 0.42 180.04 M 9.37 179.23 Q 8.33 180.18 7.37 180.18 Q 6.58 180.18 6.06 179.69 Q 5.54 179.19 5.54 178.44 Q 5.54 177.39 6.41 176.83 Q 7.29 176.27 8.92 176.27 L 9.2 176.27 L 9.2 175.51 Q 9.2 174.4 8.06 174.4 Q 7.15 174.4 6.09 174.96 L 6.09 174.01 Q 7.25 173.53 8.27 173.53 Q 9.34 173.53 9.85 174.01 Q 10.35 174.49 10.35 175.51 L 10.35 178.39 Q 10.35 179.38 10.96 179.38 Q 11.04 179.38 11.19 179.36 L 11.27 179.99 Q 10.88 180.18 10.4 180.18 Q 9.59 180.18 9.37 179.23 M 9.37 179.23 M 9.2 178.6 L 9.2 176.95 L 8.81 176.94 Q 7.86 176.94 7.28 177.3 Q 6.69 177.66 6.69 178.25 Q 6.69 178.66 6.98 178.95 Q 7.28 179.24 7.7 179.24 Q 8.42 179.24 9.2 178.6 M 9.2 178.6 M 13.09 180.04 L 13.09 170.78 L 14.24 170.78 L 14.24 180.04 M 13.09 180.04 M 21.07 180.04 L 21.07 178.84 Q 20.15 180.18 18.83 180.18 Q 18 180.18 17.51 179.66 Q 17.02 179.13 17.02 178.24 L 17.02 173.67 L 18.17 173.67 L 18.17 177.87 Q 18.17 178.58 18.38 178.88 Q 18.59 179.19 19.07 179.19 Q 20.13 179.19 21.07 177.8 L 21.07 173.67 L 22.22 173.67 L 22.22 180.04 M 21.07 180.04 M 29.75 179.83 Q 28.59 180.18 27.77 180.18 Q 26.36 180.18 25.47 179.25 Q 24.58 178.31 24.58 176.82 Q 24.58 175.38 25.37 174.45 Q 26.15 173.53 27.37 173.53 Q 28.52 173.53 29.15 174.35 Q 29.78 175.17 29.78 176.68 L 29.78 177.04 L 25.76 177.04 Q 26.01 179.3 27.98 179.3 Q 28.7 179.3 29.75 178.92 M 29.75 179.83 M 25.81 176.17 L 28.62 176.17 Q 28.62 174.39 27.3 174.39 Q 25.97 174.39 25.81 176.17 M 25.81 176.17"/></g><line x1="58" y1="328" x2="592" y2="328" style="stroke-width: 0.5;stroke: rgb(192,192,192);stroke-opacity: 1.0;stroke-dasharray: 2.0, 2.0;" transform="matrix(1,0,0,1,0,0)" clip-path="url(#94008632242178clip-2)"/><line x1="58" y1="291.36" x2="592" y2="291.36" style="stroke-width: 0.5;stroke: rgb(192,192,192);stroke-opacity: 1.0;stroke-dasharray: 2.0, 2.0;" transform="matrix(1,0,0,1,0,0)" clip-path="url(#94008632242178clip-2)"/><line x1="58" y1="254.73" x2="592" y2="254.73" style="stroke-width: 0.5;stroke: rgb(192,192,192);stroke-opacity: 1.0;stroke-dasharray: 2.0, 2.0;" transform="matrix(1,0,0,1,0,0)" clip-path="url(#94008632242178clip-2)"/><line x1="58" y1="218.09" x2="592" y2="218.09" style="stroke-width: 0.5;stroke: rgb(192,192,192);stroke-opacity: 1.0;stroke-dasharray: 2.0, 2.0;" transform="matrix(1,0,0,1,0,0)" clip-path="url(#94008632242178clip-2)"/><line x1="58" y1="181.45" x2="592" y2="181.45" style="stroke-width: 0.5;stroke: rgb(192,192,192);stroke-opacity: 1.0;stroke-dasharray: 2.0, 2.0;" transform="matrix(1,0,0,1,0,0)" clip-path="url(#94008632242178clip-2)"/><line x1="58" y1="144.82" x2="592" y2="144.82" style="stroke-width: 0.5;stroke: rgb(192,192,192);stroke-opacity: 1.0;stroke-dasharray: 2.0, 2.0;" transform="matrix(1,0,0,1,0,0)" clip-path="url(#94008632242178clip-2)"/><line x1="58" y1="108.18" x2="592" y2="108.18" style="stroke-width: 0.5;stroke: rgb(192,192,192);stroke-opacity: 1.0;stroke-dasharray: 2.0, 2.0;" transform="matrix(1,0,0,1,0,0)" clip-path="url(#94008632242178clip-2)"/><line x1="58" y1="71.54" x2="592" y2="71.54" style="stroke-width: 0.5;stroke: rgb(192,192,192);stroke-opacity: 1.0;stroke-dasharray: 2.0, 2.0;" transform="matrix(1,0,0,1,0,0)" clip-path="url(#94008632242178clip-2)"/><line x1="58" y1="34.91" x2="592" y2="34.91" style="stroke-width: 0.5;stroke: rgb(192,192,192);stroke-opacity: 1.0;stroke-dasharray: 2.0, 2.0;" transform="matrix(1,0,0,1,0,0)" clip-path="url(#94008632242178clip-2)"/><line x1="94.05" y1="37.92" x2="94.05" y2="37.92" style="stroke-width: 1.0;stroke: rgb(0,0,0);stroke-opacity: 1.0;" transform="matrix(1,0,0,1,0,0)" clip-path="url(#94008632242178clip-2)"/><line x1="84.7" y1="37.92" x2="103.39" y2="37.92" style="stroke-width: 1.0;stroke: rgb(0,0,0);stroke-opacity: 1.0;" transform="matrix(1,0,0,1,0,0)" clip-path="url(#94008632242178clip-2)"/><line x1="94.05" y1="37.92" x2="94.05" y2="37.92" style="stroke-width: 1.0;stroke: rgb(0,0,0);stroke-opacity: 1.0;" transform="matrix(1,0,0,1,0,0)" clip-path="url(#94008632242178clip-2)"/><line x1="84.7" y1="37.92" x2="103.39" y2="37.92" style="stroke-width: 1.0;stroke: rgb(0,0,0);stroke-opacity: 1.0;" transform="matrix(1,0,0,1,0,0)" clip-path="url(#94008632242178clip-2)"/><rect x="84.7" y="37.92" width="18.69" height="0" style="stroke-width: 1.0;stroke: rgb(0,0,0);stroke-opacity: 1.0;; fill: none" transform="matrix(1,0,0,1,0,0)" clip-path="url(#94008632242178clip-2)"/><line x1="84.7" y1="37.92" x2="103.39" y2="37.92" style="stroke-width: 1.0;stroke: rgb(0,0,0);stroke-opacity: 1.0;" transform="matrix(1,0,0,1,0,0)" clip-path="url(#94008632242178clip-2)"/><rect x="109.01" y="37.9" width="18.69" height="0.05" style="fill: rgb(192,192,192); fill-opacity: 1.0" transform="matrix(1,0,0,1,0,0)" clip-path="url(#94008632242178clip-2)"/><line x1="118.36" y1="37.87" x2="118.36" y2="37.9" style="stroke-width: 1.0;stroke: rgb(0,0,0);stroke-opacity: 1.0;" transform="matrix(1,0,0,1,0,0)" clip-path="url(#94008632242178clip-2)"/><line x1="109.01" y1="37.87" x2="127.7" y2="37.87" style="stroke-width: 1.0;stroke: rgb(0,0,0);stroke-opacity: 1.0;" transform="matrix(1,0,0,1,0,0)" clip-path="url(#94008632242178clip-2)"/><line x1="118.36" y1="37.98" x2="118.36" y2="37.95" style="stroke-width: 1.0;stroke: rgb(0,0,0);stroke-opacity: 1.0;" transform="matrix(1,0,0,1,0,0)" clip-path="url(#94008632242178clip-2)"/><line x1="109.01" y1="37.98" x2="127.7" y2="37.98" style="stroke-width: 1.0;stroke: rgb(0,0,0);stroke-opacity: 1.0;" transform="matrix(1,0,0,1,0,0)" clip-path="url(#94008632242178clip-2)"/><rect x="109.01" y="37.9" width="18.69" height="0.05" style="stroke-width: 1.0;stroke: rgb(0,0,0);stroke-opacity: 1.0;; fill: none" transform="matrix(1,0,0,1,0,0)" clip-path="url(#94008632242178clip-2)"/><line x1="109.01" y1="37.92" x2="127.7" y2="37.92" style="stroke-width: 1.0;stroke: rgb(0,0,0);stroke-opacity: 1.0;" transform="matrix(1,0,0,1,0,0)" clip-path="url(#94008632242178clip-2)"/><rect x="133.32" y="37.87" width="18.69" height="0.11" style="fill: rgb(192,192,192); fill-opacity: 1.0" transform="matrix(1,0,0,1,0,0)" clip-path="url(#94008632242178clip-2)"/><line x1="142.67" y1="37.84" x2="142.67" y2="37.87" style="stroke-width: 1.0;stroke: rgb(0,0,0);stroke-opacity: 1.0;" transform="matrix(1,0,0,1,0,0)" clip-path="url(#94008632242178clip-2)"/><line x1="133.32" y1="37.84" x2="152.01" y2="37.84" style="stroke-width: 1.0;stroke: rgb(0,0,0);stroke-opacity: 1.0;" transform="matrix(1,0,0,1,0,0)" clip-path="url(#94008632242178clip-2)"/><line x1="142.67" y1="37.98" x2="142.67" y2="37.98" style="stroke-width: 1.0;stroke: rgb(0,0,0);stroke-opacity: 1.0;" transform="matrix(1,0,0,1,0,0)" clip-path="url(#94008632242178clip-2)"/><line x1="133.32" y1="37.98" x2="152.01" y2="37.98" style="stroke-width: 1.0;stroke: rgb(0,0,0);stroke-opacity: 1.0;" transform="matrix(1,0,0,1,0,0)" clip-path="url(#94008632242178clip-2)"/><rect x="133.32" y="37.87" width="18.69" height="0.11" style="stroke-width: 1.0;stroke: rgb(0,0,0);stroke-opacity: 1.0;; fill: none" transform="matrix(1,0,0,1,0,0)" clip-path="url(#94008632242178clip-2)"/><line x1="133.32" y1="37.94" x2="152.01" y2="37.94" style="stroke-width: 1.0;stroke: rgb(0,0,0);stroke-opacity: 1.0;" transform="matrix(1,0,0,1,0,0)" clip-path="url(#94008632242178clip-2)"/><rect x="157.63" y="37.87" width="18.69" height="0.11" style="fill: rgb(192,192,192); fill-opacity: 1.0" transform="matrix(1,0,0,1,0,0)" clip-path="url(#94008632242178clip-2)"/><line x1="166.98" y1="37.82" x2="166.98" y2="37.87" style="stroke-width: 1.0;stroke: rgb(0,0,0);stroke-opacity: 1.0;" transform="matrix(1,0,0,1,0,0)" clip-path="url(#94008632242178clip-2)"/><line x1="157.63" y1="37.82" x2="176.32" y2="37.82" style="stroke-width: 1.0;stroke: rgb(0,0,0);stroke-opacity: 1.0;" transform="matrix(1,0,0,1,0,0)" clip-path="url(#94008632242178clip-2)"/><line x1="166.98" y1="38.02" x2="166.98" y2="37.98" style="stroke-width: 1.0;stroke: rgb(0,0,0);stroke-opacity: 1.0;" transform="matrix(1,0,0,1,0,0)" clip-path="url(#94008632242178clip-2)"/><line x1="157.63" y1="38.02" x2="176.32" y2="38.02" style="stroke-width: 1.0;stroke: rgb(0,0,0);stroke-opacity: 1.0;" transform="matrix(1,0,0,1,0,0)" clip-path="url(#94008632242178clip-2)"/><rect x="157.63" y="37.87" width="18.69" height="0.11" style="stroke-width: 1.0;stroke: rgb(0,0,0);stroke-opacity: 1.0;; fill: none" transform="matrix(1,0,0,1,0,0)" clip-path="url(#94008632242178clip-2)"/><line x1="157.63" y1="37.93" x2="176.32" y2="37.93" style="stroke-width: 1.0;stroke: rgb(0,0,0);stroke-opacity: 1.0;" transform="matrix(1,0,0,1,0,0)" clip-path="url(#94008632242178clip-2)"/><rect x="181.94" y="37.85" width="18.69" height="0.14" style="fill: rgb(192,192,192); fill-opacity: 1.0" transform="matrix(1,0,0,1,0,0)" clip-path="url(#94008632242178clip-2)"/><line x1="191.29" y1="37.72" x2="191.29" y2="37.85" style="stroke-width: 1.0;stroke: rgb(0,0,0);stroke-opacity: 1.0;" transform="matrix(1,0,0,1,0,0)" clip-path="url(#94008632242178clip-2)"/><line x1="181.94" y1="37.72" x2="200.63" y2="37.72" style="stroke-width: 1.0;stroke: rgb(0,0,0);stroke-opacity: 1.0;" transform="matrix(1,0,0,1,0,0)" clip-path="url(#94008632242178clip-2)"/><line x1="191.29" y1="38.09" x2="191.29" y2="37.99" style="stroke-width: 1.0;stroke: rgb(0,0,0);stroke-opacity: 1.0;" transform="matrix(1,0,0,1,0,0)" clip-path="url(#94008632242178clip-2)"/><line x1="181.94" y1="38.09" x2="200.63" y2="38.09" style="stroke-width: 1.0;stroke: rgb(0,0,0);stroke-opacity: 1.0;" transform="matrix(1,0,0,1,0,0)" clip-path="url(#94008632242178clip-2)"/><rect x="181.94" y="37.85" width="18.69" height="0.14" style="stroke-width: 1.0;stroke: rgb(0,0,0);stroke-opacity: 1.0;; fill: none" transform="matrix(1,0,0,1,0,0)" clip-path="url(#94008632242178clip-2)"/><line x1="181.94" y1="37.94" x2="200.63" y2="37.94" style="stroke-width: 1.0;stroke: rgb(0,0,0);stroke-opacity: 1.0;" transform="matrix(1,0,0,1,0,0)" clip-path="url(#94008632242178clip-2)"/><rect x="206.26" y="37.87" width="18.69" height="0.11" style="fill: rgb(192,192,192); fill-opacity: 1.0" transform="matrix(1,0,0,1,0,0)" clip-path="url(#94008632242178clip-2)"/><line x1="215.6" y1="37.72" x2="215.6" y2="37.87" style="stroke-width: 1.0;stroke: rgb(0,0,0);stroke-opacity: 1.0;" transform="matrix(1,0,0,1,0,0)" clip-path="url(#94008632242178clip-2)"/><line x1="206.26" y1="37.72" x2="224.95" y2="37.72" style="stroke-width: 1.0;stroke: rgb(0,0,0);stroke-opacity: 1.0;" transform="matrix(1,0,0,1,0,0)" clip-path="url(#94008632242178clip-2)"/><line x1="215.6" y1="38.09" x2="215.6" y2="37.98" style="stroke-width: 1.0;stroke: rgb(0,0,0);stroke-opacity: 1.0;" transform="matrix(1,0,0,1,0,0)" clip-path="url(#94008632242178clip-2)"/><line x1="206.26" y1="38.09" x2="224.95" y2="38.09" style="stroke-width: 1.0;stroke: rgb(0,0,0);stroke-opacity: 1.0;" transform="matrix(1,0,0,1,0,0)" clip-path="url(#94008632242178clip-2)"/><rect x="206.26" y="37.87" width="18.69" height="0.11" style="stroke-width: 1.0;stroke: rgb(0,0,0);stroke-opacity: 1.0;; fill: none" transform="matrix(1,0,0,1,0,0)" clip-path="url(#94008632242178clip-2)"/><line x1="206.26" y1="37.94" x2="224.95" y2="37.94" style="stroke-width: 1.0;stroke: rgb(0,0,0);stroke-opacity: 1.0;" transform="matrix(1,0,0,1,0,0)" clip-path="url(#94008632242178clip-2)"/><rect x="230.57" y="37.86" width="18.69" height="0.12" style="fill: rgb(192,192,192); fill-opacity: 1.0" transform="matrix(1,0,0,1,0,0)" clip-path="url(#94008632242178clip-2)"/><line x1="239.91" y1="37.72" x2="239.91" y2="37.86" style="stroke-width: 1.0;stroke: rgb(0,0,0);stroke-opacity: 1.0;" transform="matrix(1,0,0,1,0,0)" clip-path="url(#94008632242178clip-2)"/><line x1="230.57" y1="37.72" x2="249.26" y2="37.72" style="stroke-width: 1.0;stroke: rgb(0,0,0);stroke-opacity: 1.0;" transform="matrix(1,0,0,1,0,0)" clip-path="url(#94008632242178clip-2)"/><line x1="239.91" y1="38.09" x2="239.91" y2="37.99" style="stroke-width: 1.0;stroke: rgb(0,0,0);stroke-opacity: 1.0;" transform="matrix(1,0,0,1,0,0)" clip-path="url(#94008632242178clip-2)"/><line x1="230.57" y1="38.09" x2="249.26" y2="38.09" style="stroke-width: 1.0;stroke: rgb(0,0,0);stroke-opacity: 1.0;" transform="matrix(1,0,0,1,0,0)" clip-path="url(#94008632242178clip-2)"/><rect x="230.57" y="37.86" width="18.69" height="0.12" style="stroke-width: 1.0;stroke: rgb(0,0,0);stroke-opacity: 1.0;; fill: none" transform="matrix(1,0,0,1,0,0)" clip-path="url(#94008632242178clip-2)"/><line x1="230.57" y1="37.94" x2="249.26" y2="37.94" style="stroke-width: 1.0;stroke: rgb(0,0,0);stroke-opacity: 1.0;" transform="matrix(1,0,0,1,0,0)" clip-path="url(#94008632242178clip-2)"/><rect x="254.88" y="37.86" width="18.69" height="0.13" style="fill: rgb(192,192,192); fill-opacity: 1.0" transform="matrix(1,0,0,1,0,0)" clip-path="url(#94008632242178clip-2)"/><line x1="264.22" y1="37.68" x2="264.22" y2="37.86" style="stroke-width: 1.0;stroke: rgb(0,0,0);stroke-opacity: 1.0;" transform="matrix(1,0,0,1,0,0)" clip-path="url(#94008632242178clip-2)"/><line x1="254.88" y1="37.68" x2="273.57" y2="37.68" style="stroke-width: 1.0;stroke: rgb(0,0,0);stroke-opacity: 1.0;" transform="matrix(1,0,0,1,0,0)" clip-path="url(#94008632242178clip-2)"/><line x1="264.22" y1="38.13" x2="264.22" y2="37.99" style="stroke-width: 1.0;stroke: rgb(0,0,0);stroke-opacity: 1.0;" transform="matrix(1,0,0,1,0,0)" clip-path="url(#94008632242178clip-2)"/><line x1="254.88" y1="38.13" x2="273.57" y2="38.13" style="stroke-width: 1.0;stroke: rgb(0,0,0);stroke-opacity: 1.0;" transform="matrix(1,0,0,1,0,0)" clip-path="url(#94008632242178clip-2)"/><rect x="254.88" y="37.86" width="18.69" height="0.13" style="stroke-width: 1.0;stroke: rgb(0,0,0);stroke-opacity: 1.0;; fill: none" transform="matrix(1,0,0,1,0,0)" clip-path="url(#94008632242178clip-2)"/><line x1="254.88" y1="37.95" x2="273.57" y2="37.95" style="stroke-width: 1.0;stroke: rgb(0,0,0);stroke-opacity: 1.0;" transform="matrix(1,0,0,1,0,0)" clip-path="url(#94008632242178clip-2)"/><rect x="279.19" y="37.86" width="18.69" height="0.14" style="fill: rgb(192,192,192); fill-opacity: 1.0" transform="matrix(1,0,0,1,0,0)" clip-path="url(#94008632242178clip-2)"/><line x1="288.53" y1="37.66" x2="288.53" y2="37.86" style="stroke-width: 1.0;stroke: rgb(0,0,0);stroke-opacity: 1.0;" transform="matrix(1,0,0,1,0,0)" clip-path="url(#94008632242178clip-2)"/><line x1="279.19" y1="37.66" x2="297.88" y2="37.66" style="stroke-width: 1.0;stroke: rgb(0,0,0);stroke-opacity: 1.0;" transform="matrix(1,0,0,1,0,0)" clip-path="url(#94008632242178clip-2)"/><line x1="288.53" y1="38.15" x2="288.53" y2="38" style="stroke-width: 1.0;stroke: rgb(0,0,0);stroke-opacity: 1.0;" transform="matrix(1,0,0,1,0,0)" clip-path="url(#94008632242178clip-2)"/><line x1="279.19" y1="38.15" x2="297.88" y2="38.15" style="stroke-width: 1.0;stroke: rgb(0,0,0);stroke-opacity: 1.0;" transform="matrix(1,0,0,1,0,0)" clip-path="url(#94008632242178clip-2)"/><rect x="279.19" y="37.86" width="18.69" height="0.14" style="stroke-width: 1.0;stroke: rgb(0,0,0);stroke-opacity: 1.0;; fill: none" transform="matrix(1,0,0,1,0,0)" clip-path="url(#94008632242178clip-2)"/><line x1="279.19" y1="37.94" x2="297.88" y2="37.94" style="stroke-width: 1.0;stroke: rgb(0,0,0);stroke-opacity: 1.0;" transform="matrix(1,0,0,1,0,0)" clip-path="url(#94008632242178clip-2)"/><rect x="303.5" y="37.85" width="18.69" height="0.16" style="fill: rgb(192,192,192); fill-opacity: 1.0" transform="matrix(1,0,0,1,0,0)" clip-path="url(#94008632242178clip-2)"/><line x1="312.84" y1="37.66" x2="312.84" y2="37.85" style="stroke-width: 1.0;stroke: rgb(0,0,0);stroke-opacity: 1.0;" transform="matrix(1,0,0,1,0,0)" clip-path="url(#94008632242178clip-2)"/><line x1="303.5" y1="37.66" x2="322.19" y2="37.66" style="stroke-width: 1.0;stroke: rgb(0,0,0);stroke-opacity: 1.0;" transform="matrix(1,0,0,1,0,0)" clip-path="url(#94008632242178clip-2)"/><line x1="312.84" y1="38.15" x2="312.84" y2="38.01" style="stroke-width: 1.0;stroke: rgb(0,0,0);stroke-opacity: 1.0;" transform="matrix(1,0,0,1,0,0)" clip-path="url(#94008632242178clip-2)"/><line x1="303.5" y1="38.15" x2="322.19" y2="38.15" style="stroke-width: 1.0;stroke: rgb(0,0,0);stroke-opacity: 1.0;" transform="matrix(1,0,0,1,0,0)" clip-path="url(#94008632242178clip-2)"/><rect x="303.5" y="37.85" width="18.69" height="0.16" style="stroke-width: 1.0;stroke: rgb(0,0,0);stroke-opacity: 1.0;; fill: none" transform="matrix(1,0,0,1,0,0)" clip-path="url(#94008632242178clip-2)"/><line x1="303.5" y1="37.93" x2="322.19" y2="37.93" style="stroke-width: 1.0;stroke: rgb(0,0,0);stroke-opacity: 1.0;" transform="matrix(1,0,0,1,0,0)" clip-path="url(#94008632242178clip-2)"/><line x1="312.84" y1="23" x2="312.84" y2="23" style="stroke-width: 1.0;stroke: rgb(192,192,192);stroke-opacity: 1.0;" transform="matrix(1,0,0,1,0,0)" clip-path="url(#94008632242178clip-2)"/><line x1="312.84" y1="23" x2="312.84" y2="23" style="stroke-width: 1.0;stroke: rgb(192,192,192);stroke-opacity: 1.0;" transform="matrix(1,0,0,1,0,0)" clip-path="url(#94008632242178clip-2)"/><line x1="312.84" y1="23" x2="312.84" y2="23" style="stroke-width: 1.0;stroke: rgb(192,192,192);stroke-opacity: 1.0;" transform="matrix(1,0,0,1,0,0)" clip-path="url(#94008632242178clip-2)"/><rect x="327.81" y="37.84" width="18.69" height="0.18" style="fill: rgb(192,192,192); fill-opacity: 1.0" transform="matrix(1,0,0,1,0,0)" clip-path="url(#94008632242178clip-2)"/><line x1="337.16" y1="37.66" x2="337.16" y2="37.84" style="stroke-width: 1.0;stroke: rgb(0,0,0);stroke-opacity: 1.0;" transform="matrix(1,0,0,1,0,0)" clip-path="url(#94008632242178clip-2)"/><line x1="327.81" y1="37.66" x2="346.5" y2="37.66" style="stroke-width: 1.0;stroke: rgb(0,0,0);stroke-opacity: 1.0;" transform="matrix(1,0,0,1,0,0)" clip-path="url(#94008632242178clip-2)"/><line x1="337.16" y1="38.16" x2="337.16" y2="38.02" style="stroke-width: 1.0;stroke: rgb(0,0,0);stroke-opacity: 1.0;" transform="matrix(1,0,0,1,0,0)" clip-path="url(#94008632242178clip-2)"/><line x1="327.81" y1="38.16" x2="346.5" y2="38.16" style="stroke-width: 1.0;stroke: rgb(0,0,0);stroke-opacity: 1.0;" transform="matrix(1,0,0,1,0,0)" clip-path="url(#94008632242178clip-2)"/><rect x="327.81" y="37.84" width="18.69" height="0.18" style="stroke-width: 1.0;stroke: rgb(0,0,0);stroke-opacity: 1.0;; fill: none" transform="matrix(1,0,0,1,0,0)" clip-path="url(#94008632242178clip-2)"/><line x1="327.81" y1="37.93" x2="346.5" y2="37.93" style="stroke-width: 1.0;stroke: rgb(0,0,0);stroke-opacity: 1.0;" transform="matrix(1,0,0,1,0,0)" clip-path="url(#94008632242178clip-2)"/><g style="stroke-width: 1.0;stroke: rgb(192,192,192);stroke-opacity: 1.0;; fill: none" transform="matrix(1,0,0,1,0,0)" clip-path="url(#94008632242178clip-2)"><path d="M 340.27 34.41 C 340.27 36.13 338.88 37.52 337.16 37.52 C 335.44 37.52 334.04 36.13 334.04 34.41 C 334.04 32.69 335.44 31.29 337.16 31.29 C 338.88 31.29 340.27 32.69 340.27 34.41 M 340.27 34.41"/></g><rect x="352.12" y="37.84" width="18.69" height="0.17" style="fill: rgb(192,192,192); fill-opacity: 1.0" transform="matrix(1,0,0,1,0,0)" clip-path="url(#94008632242178clip-2)"/><line x1="361.47" y1="37.66" x2="361.47" y2="37.84" style="stroke-width: 1.0;stroke: rgb(0,0,0);stroke-opacity: 1.0;" transform="matrix(1,0,0,1,0,0)" clip-path="url(#94008632242178clip-2)"/><line x1="352.12" y1="37.66" x2="370.81" y2="37.66" style="stroke-width: 1.0;stroke: rgb(0,0,0);stroke-opacity: 1.0;" transform="matrix(1,0,0,1,0,0)" clip-path="url(#94008632242178clip-2)"/><line x1="361.47" y1="38.16" x2="361.47" y2="38.01" style="stroke-width: 1.0;stroke: rgb(0,0,0);stroke-opacity: 1.0;" transform="matrix(1,0,0,1,0,0)" clip-path="url(#94008632242178clip-2)"/><line x1="352.12" y1="38.16" x2="370.81" y2="38.16" style="stroke-width: 1.0;stroke: rgb(0,0,0);stroke-opacity: 1.0;" transform="matrix(1,0,0,1,0,0)" clip-path="url(#94008632242178clip-2)"/><rect x="352.12" y="37.84" width="18.69" height="0.17" style="stroke-width: 1.0;stroke: rgb(0,0,0);stroke-opacity: 1.0;; fill: none" transform="matrix(1,0,0,1,0,0)" clip-path="url(#94008632242178clip-2)"/><line x1="352.12" y1="37.93" x2="370.81" y2="37.93" style="stroke-width: 1.0;stroke: rgb(0,0,0);stroke-opacity: 1.0;" transform="matrix(1,0,0,1,0,0)" clip-path="url(#94008632242178clip-2)"/><g style="stroke-width: 1.0;stroke: rgb(192,192,192);stroke-opacity: 1.0;; fill: none" transform="matrix(1,0,0,1,0,0)" clip-path="url(#94008632242178clip-2)"><path d="M 364.58 34.41 C 364.58 36.13 363.19 37.52 361.47 37.52 C 359.75 37.52 358.35 36.13 358.35 34.41 C 358.35 32.69 359.75 31.29 361.47 31.29 C 363.19 31.29 364.58 32.69 364.58 34.41 M 364.58 34.41"/></g><rect x="376.43" y="37.84" width="18.69" height="0.18" style="fill: rgb(192,192,192); fill-opacity: 1.0" transform="matrix(1,0,0,1,0,0)" clip-path="url(#94008632242178clip-2)"/><line x1="385.78" y1="37.63" x2="385.78" y2="37.84" style="stroke-width: 1.0;stroke: rgb(0,0,0);stroke-opacity: 1.0;" transform="matrix(1,0,0,1,0,0)" clip-path="url(#94008632242178clip-2)"/><line x1="376.43" y1="37.63" x2="395.12" y2="37.63" style="stroke-width: 1.0;stroke: rgb(0,0,0);stroke-opacity: 1.0;" transform="matrix(1,0,0,1,0,0)" clip-path="url(#94008632242178clip-2)"/><line x1="385.78" y1="38.22" x2="385.78" y2="38.01" style="stroke-width: 1.0;stroke: rgb(0,0,0);stroke-opacity: 1.0;" transform="matrix(1,0,0,1,0,0)" clip-path="url(#94008632242178clip-2)"/><line x1="376.43" y1="38.22" x2="395.12" y2="38.22" style="stroke-width: 1.0;stroke: rgb(0,0,0);stroke-opacity: 1.0;" transform="matrix(1,0,0,1,0,0)" clip-path="url(#94008632242178clip-2)"/><rect x="376.43" y="37.84" width="18.69" height="0.18" style="stroke-width: 1.0;stroke: rgb(0,0,0);stroke-opacity: 1.0;; fill: none" transform="matrix(1,0,0,1,0,0)" clip-path="url(#94008632242178clip-2)"/><line x1="376.43" y1="37.92" x2="395.12" y2="37.92" style="stroke-width: 1.0;stroke: rgb(0,0,0);stroke-opacity: 1.0;" transform="matrix(1,0,0,1,0,0)" clip-path="url(#94008632242178clip-2)"/><g style="stroke-width: 1.0;stroke: rgb(192,192,192);stroke-opacity: 1.0;; fill: none" transform="matrix(1,0,0,1,0,0)" clip-path="url(#94008632242178clip-2)"><path d="M 382.66 35.21 C 382.66 36.93 381.27 38.32 379.55 38.32 C 377.83 38.32 376.43 36.93 376.43 35.21 C 376.43 33.48 377.83 32.09 379.55 32.09 C 381.27 32.09 382.66 33.48 382.66 35.21 M 382.66 35.21"/></g><g style="stroke-width: 1.0;stroke: rgb(192,192,192);stroke-opacity: 1.0;; fill: none" transform="matrix(1,0,0,1,0,0)" clip-path="url(#94008632242178clip-2)"><path d="M 395.12 35.21 C 395.12 36.93 393.73 38.32 392.01 38.32 C 390.29 38.32 388.89 36.93 388.89 35.21 C 388.89 33.48 390.29 32.09 392.01 32.09 C 393.73 32.09 395.12 33.48 395.12 35.21 M 395.12 35.21"/></g><rect x="400.74" y="37.84" width="18.69" height="0.18" style="fill: rgb(192,192,192); fill-opacity: 1.0" transform="matrix(1,0,0,1,0,0)" clip-path="url(#94008632242178clip-2)"/><line x1="410.09" y1="37.63" x2="410.09" y2="37.84" style="stroke-width: 1.0;stroke: rgb(0,0,0);stroke-opacity: 1.0;" transform="matrix(1,0,0,1,0,0)" clip-path="url(#94008632242178clip-2)"/><line x1="400.74" y1="37.63" x2="419.43" y2="37.63" style="stroke-width: 1.0;stroke: rgb(0,0,0);stroke-opacity: 1.0;" transform="matrix(1,0,0,1,0,0)" clip-path="url(#94008632242178clip-2)"/><line x1="410.09" y1="38.22" x2="410.09" y2="38.02" style="stroke-width: 1.0;stroke: rgb(0,0,0);stroke-opacity: 1.0;" transform="matrix(1,0,0,1,0,0)" clip-path="url(#94008632242178clip-2)"/><line x1="400.74" y1="38.22" x2="419.43" y2="38.22" style="stroke-width: 1.0;stroke: rgb(0,0,0);stroke-opacity: 1.0;" transform="matrix(1,0,0,1,0,0)" clip-path="url(#94008632242178clip-2)"/><rect x="400.74" y="37.84" width="18.69" height="0.18" style="stroke-width: 1.0;stroke: rgb(0,0,0);stroke-opacity: 1.0;; fill: none" transform="matrix(1,0,0,1,0,0)" clip-path="url(#94008632242178clip-2)"/><line x1="400.74" y1="37.92" x2="419.43" y2="37.92" style="stroke-width: 1.0;stroke: rgb(0,0,0);stroke-opacity: 1.0;" transform="matrix(1,0,0,1,0,0)" clip-path="url(#94008632242178clip-2)"/><g style="stroke-width: 1.0;stroke: rgb(192,192,192);stroke-opacity: 1.0;; fill: none" transform="matrix(1,0,0,1,0,0)" clip-path="url(#94008632242178clip-2)"><path d="M 406.97 35.21 C 406.97 36.93 405.58 38.32 403.86 38.32 C 402.14 38.32 400.74 36.93 400.74 35.21 C 400.74 33.48 402.14 32.09 403.86 32.09 C 405.58 32.09 406.97 33.48 406.97 35.21 M 406.97 35.21"/></g><g style="stroke-width: 1.0;stroke: rgb(192,192,192);stroke-opacity: 1.0;; fill: none" transform="matrix(1,0,0,1,0,0)" clip-path="url(#94008632242178clip-2)"><path d="M 419.43 35.21 C 419.43 36.93 418.04 38.32 416.32 38.32 C 414.6 38.32 413.2 36.93 413.2 35.21 C 413.2 33.48 414.6 32.09 416.32 32.09 C 418.04 32.09 419.43 33.48 419.43 35.21 M 419.43 35.21"/></g><rect x="425.05" y="37.83" width="18.69" height="0.19" style="fill: rgb(192,192,192); fill-opacity: 1.0" transform="matrix(1,0,0,1,0,0)" clip-path="url(#94008632242178clip-2)"/><line x1="434.4" y1="37.63" x2="434.4" y2="37.83" style="stroke-width: 1.0;stroke: rgb(0,0,0);stroke-opacity: 1.0;" transform="matrix(1,0,0,1,0,0)" clip-path="url(#94008632242178clip-2)"/><line x1="425.05" y1="37.63" x2="443.74" y2="37.63" style="stroke-width: 1.0;stroke: rgb(0,0,0);stroke-opacity: 1.0;" transform="matrix(1,0,0,1,0,0)" clip-path="url(#94008632242178clip-2)"/><line x1="434.4" y1="38.29" x2="434.4" y2="38.02" style="stroke-width: 1.0;stroke: rgb(0,0,0);stroke-opacity: 1.0;" transform="matrix(1,0,0,1,0,0)" clip-path="url(#94008632242178clip-2)"/><line x1="425.05" y1="38.29" x2="443.74" y2="38.29" style="stroke-width: 1.0;stroke: rgb(0,0,0);stroke-opacity: 1.0;" transform="matrix(1,0,0,1,0,0)" clip-path="url(#94008632242178clip-2)"/><rect x="425.05" y="37.83" width="18.69" height="0.19" style="stroke-width: 1.0;stroke: rgb(0,0,0);stroke-opacity: 1.0;; fill: none" transform="matrix(1,0,0,1,0,0)" clip-path="url(#94008632242178clip-2)"/><line x1="425.05" y1="37.92" x2="443.74" y2="37.92" style="stroke-width: 1.0;stroke: rgb(0,0,0);stroke-opacity: 1.0;" transform="matrix(1,0,0,1,0,0)" clip-path="url(#94008632242178clip-2)"/><g style="stroke-width: 1.0;stroke: rgb(192,192,192);stroke-opacity: 1.0;; fill: none" transform="matrix(1,0,0,1,0,0)" clip-path="url(#94008632242178clip-2)"><path d="M 431.28 35.24 C 431.28 36.96 429.89 38.36 428.17 38.36 C 426.45 38.36 425.05 36.96 425.05 35.24 C 425.05 33.52 426.45 32.13 428.17 32.13 C 429.89 32.13 431.28 33.52 431.28 35.24 M 431.28 35.24"/></g><g style="stroke-width: 1.0;stroke: rgb(192,192,192);stroke-opacity: 1.0;; fill: none" transform="matrix(1,0,0,1,0,0)" clip-path="url(#94008632242178clip-2)"><path d="M 443.74 35.24 C 443.74 36.96 442.35 38.36 440.63 38.36 C 438.91 38.36 437.51 36.96 437.51 35.24 C 437.51 33.52 438.91 32.13 440.63 32.13 C 442.35 32.13 443.74 33.52 443.74 35.24 M 443.74 35.24"/></g><rect x="449.37" y="37.83" width="18.69" height="0.2" style="fill: rgb(192,192,192); fill-opacity: 1.0" transform="matrix(1,0,0,1,0,0)" clip-path="url(#94008632242178clip-2)"/><line x1="458.71" y1="37.52" x2="458.71" y2="37.83" style="stroke-width: 1.0;stroke: rgb(0,0,0);stroke-opacity: 1.0;" transform="matrix(1,0,0,1,0,0)" clip-path="url(#94008632242178clip-2)"/><line x1="449.37" y1="37.52" x2="468.06" y2="37.52" style="stroke-width: 1.0;stroke: rgb(0,0,0);stroke-opacity: 1.0;" transform="matrix(1,0,0,1,0,0)" clip-path="url(#94008632242178clip-2)"/><line x1="458.71" y1="38.32" x2="458.71" y2="38.03" style="stroke-width: 1.0;stroke: rgb(0,0,0);stroke-opacity: 1.0;" transform="matrix(1,0,0,1,0,0)" clip-path="url(#94008632242178clip-2)"/><line x1="449.37" y1="38.32" x2="468.06" y2="38.32" style="stroke-width: 1.0;stroke: rgb(0,0,0);stroke-opacity: 1.0;" transform="matrix(1,0,0,1,0,0)" clip-path="url(#94008632242178clip-2)"/><rect x="449.37" y="37.83" width="18.69" height="0.2" style="stroke-width: 1.0;stroke: rgb(0,0,0);stroke-opacity: 1.0;; fill: none" transform="matrix(1,0,0,1,0,0)" clip-path="url(#94008632242178clip-2)"/><line x1="449.37" y1="37.92" x2="468.06" y2="37.92" style="stroke-width: 1.0;stroke: rgb(0,0,0);stroke-opacity: 1.0;" transform="matrix(1,0,0,1,0,0)" clip-path="url(#94008632242178clip-2)"/><g style="stroke-width: 1.0;stroke: rgb(192,192,192);stroke-opacity: 1.0;; fill: none" transform="matrix(1,0,0,1,0,0)" clip-path="url(#94008632242178clip-2)"><path d="M 461.83 35.28 C 461.83 37 460.43 38.4 458.71 38.4 C 456.99 38.4 455.6 37 455.6 35.28 C 455.6 33.56 456.99 32.17 458.71 32.17 C 460.43 32.17 461.83 33.56 461.83 35.28 M 461.83 35.28"/></g><rect x="473.68" y="37.82" width="18.69" height="0.21" style="fill: rgb(192,192,192); fill-opacity: 1.0" transform="matrix(1,0,0,1,0,0)" clip-path="url(#94008632242178clip-2)"/><line x1="483.02" y1="37.52" x2="483.02" y2="37.82" style="stroke-width: 1.0;stroke: rgb(0,0,0);stroke-opacity: 1.0;" transform="matrix(1,0,0,1,0,0)" clip-path="url(#94008632242178clip-2)"/><line x1="473.68" y1="37.52" x2="492.37" y2="37.52" style="stroke-width: 1.0;stroke: rgb(0,0,0);stroke-opacity: 1.0;" transform="matrix(1,0,0,1,0,0)" clip-path="url(#94008632242178clip-2)"/><line x1="483.02" y1="38.32" x2="483.02" y2="38.03" style="stroke-width: 1.0;stroke: rgb(0,0,0);stroke-opacity: 1.0;" transform="matrix(1,0,0,1,0,0)" clip-path="url(#94008632242178clip-2)"/><line x1="473.68" y1="38.32" x2="492.37" y2="38.32" style="stroke-width: 1.0;stroke: rgb(0,0,0);stroke-opacity: 1.0;" transform="matrix(1,0,0,1,0,0)" clip-path="url(#94008632242178clip-2)"/><rect x="473.68" y="37.82" width="18.69" height="0.21" style="stroke-width: 1.0;stroke: rgb(0,0,0);stroke-opacity: 1.0;; fill: none" transform="matrix(1,0,0,1,0,0)" clip-path="url(#94008632242178clip-2)"/><line x1="473.68" y1="37.92" x2="492.37" y2="37.92" style="stroke-width: 1.0;stroke: rgb(0,0,0);stroke-opacity: 1.0;" transform="matrix(1,0,0,1,0,0)" clip-path="url(#94008632242178clip-2)"/><g style="stroke-width: 1.0;stroke: rgb(192,192,192);stroke-opacity: 1.0;; fill: none" transform="matrix(1,0,0,1,0,0)" clip-path="url(#94008632242178clip-2)"><path d="M 486.14 35.28 C 486.14 37 484.74 38.4 483.02 38.4 C 481.3 38.4 479.91 37 479.91 35.28 C 479.91 33.56 481.3 32.17 483.02 32.17 C 484.74 32.17 486.14 33.56 486.14 35.28 M 486.14 35.28"/></g><rect x="497.99" y="37.82" width="18.69" height="0.22" style="fill: rgb(192,192,192); fill-opacity: 1.0" transform="matrix(1,0,0,1,0,0)" clip-path="url(#94008632242178clip-2)"/><line x1="507.33" y1="37.52" x2="507.33" y2="37.82" style="stroke-width: 1.0;stroke: rgb(0,0,0);stroke-opacity: 1.0;" transform="matrix(1,0,0,1,0,0)" clip-path="url(#94008632242178clip-2)"/><line x1="497.99" y1="37.52" x2="516.68" y2="37.52" style="stroke-width: 1.0;stroke: rgb(0,0,0);stroke-opacity: 1.0;" transform="matrix(1,0,0,1,0,0)" clip-path="url(#94008632242178clip-2)"/><line x1="507.33" y1="38.32" x2="507.33" y2="38.04" style="stroke-width: 1.0;stroke: rgb(0,0,0);stroke-opacity: 1.0;" transform="matrix(1,0,0,1,0,0)" clip-path="url(#94008632242178clip-2)"/><line x1="497.99" y1="38.32" x2="516.68" y2="38.32" style="stroke-width: 1.0;stroke: rgb(0,0,0);stroke-opacity: 1.0;" transform="matrix(1,0,0,1,0,0)" clip-path="url(#94008632242178clip-2)"/><rect x="497.99" y="37.82" width="18.69" height="0.22" style="stroke-width: 1.0;stroke: rgb(0,0,0);stroke-opacity: 1.0;; fill: none" transform="matrix(1,0,0,1,0,0)" clip-path="url(#94008632242178clip-2)"/><line x1="497.99" y1="37.92" x2="516.68" y2="37.92" style="stroke-width: 1.0;stroke: rgb(0,0,0);stroke-opacity: 1.0;" transform="matrix(1,0,0,1,0,0)" clip-path="url(#94008632242178clip-2)"/><g style="stroke-width: 1.0;stroke: rgb(192,192,192);stroke-opacity: 1.0;; fill: none" transform="matrix(1,0,0,1,0,0)" clip-path="url(#94008632242178clip-2)"><path d="M 510.45 35.28 C 510.45 37 509.05 38.4 507.33 38.4 C 505.61 38.4 504.22 37 504.22 35.28 C 504.22 33.56 505.61 32.17 507.33 32.17 C 509.05 32.17 510.45 33.56 510.45 35.28 M 510.45 35.28"/></g><rect x="522.3" y="37.82" width="18.69" height="0.23" style="fill: rgb(192,192,192); fill-opacity: 1.0" transform="matrix(1,0,0,1,0,0)" clip-path="url(#94008632242178clip-2)"/><line x1="531.64" y1="37.52" x2="531.64" y2="37.82" style="stroke-width: 1.0;stroke: rgb(0,0,0);stroke-opacity: 1.0;" transform="matrix(1,0,0,1,0,0)" clip-path="url(#94008632242178clip-2)"/><line x1="522.3" y1="37.52" x2="540.99" y2="37.52" style="stroke-width: 1.0;stroke: rgb(0,0,0);stroke-opacity: 1.0;" transform="matrix(1,0,0,1,0,0)" clip-path="url(#94008632242178clip-2)"/><line x1="531.64" y1="38.32" x2="531.64" y2="38.04" style="stroke-width: 1.0;stroke: rgb(0,0,0);stroke-opacity: 1.0;" transform="matrix(1,0,0,1,0,0)" clip-path="url(#94008632242178clip-2)"/><line x1="522.3" y1="38.32" x2="540.99" y2="38.32" style="stroke-width: 1.0;stroke: rgb(0,0,0);stroke-opacity: 1.0;" transform="matrix(1,0,0,1,0,0)" clip-path="url(#94008632242178clip-2)"/><rect x="522.3" y="37.82" width="18.69" height="0.23" style="stroke-width: 1.0;stroke: rgb(0,0,0);stroke-opacity: 1.0;; fill: none" transform="matrix(1,0,0,1,0,0)" clip-path="url(#94008632242178clip-2)"/><line x1="522.3" y1="37.92" x2="540.99" y2="37.92" style="stroke-width: 1.0;stroke: rgb(0,0,0);stroke-opacity: 1.0;" transform="matrix(1,0,0,1,0,0)" clip-path="url(#94008632242178clip-2)"/><g style="stroke-width: 1.0;stroke: rgb(192,192,192);stroke-opacity: 1.0;; fill: none" transform="matrix(1,0,0,1,0,0)" clip-path="url(#94008632242178clip-2)"><path d="M 534.76 35.28 C 534.76 37 533.36 38.4 531.64 38.4 C 529.92 38.4 528.53 37 528.53 35.28 C 528.53 33.56 529.92 32.17 531.64 32.17 C 533.36 32.17 534.76 33.56 534.76 35.28 M 534.76 35.28"/></g><rect x="546.61" y="37.82" width="18.69" height="0.23" style="fill: rgb(192,192,192); fill-opacity: 1.0" transform="matrix(1,0,0,1,0,0)" clip-path="url(#94008632242178clip-2)"/><line x1="555.96" y1="37.52" x2="555.96" y2="37.82" style="stroke-width: 1.0;stroke: rgb(0,0,0);stroke-opacity: 1.0;" transform="matrix(1,0,0,1,0,0)" clip-path="url(#94008632242178clip-2)"/><line x1="546.61" y1="37.52" x2="565.3" y2="37.52" style="stroke-width: 1.0;stroke: rgb(0,0,0);stroke-opacity: 1.0;" transform="matrix(1,0,0,1,0,0)" clip-path="url(#94008632242178clip-2)"/><line x1="555.96" y1="38.32" x2="555.96" y2="38.04" style="stroke-width: 1.0;stroke: rgb(0,0,0);stroke-opacity: 1.0;" transform="matrix(1,0,0,1,0,0)" clip-path="url(#94008632242178clip-2)"/><line x1="546.61" y1="38.32" x2="565.3" y2="38.32" style="stroke-width: 1.0;stroke: rgb(0,0,0);stroke-opacity: 1.0;" transform="matrix(1,0,0,1,0,0)" clip-path="url(#94008632242178clip-2)"/><rect x="546.61" y="37.82" width="18.69" height="0.23" style="stroke-width: 1.0;stroke: rgb(0,0,0);stroke-opacity: 1.0;; fill: none" transform="matrix(1,0,0,1,0,0)" clip-path="url(#94008632242178clip-2)"/><line x1="546.61" y1="37.92" x2="565.3" y2="37.92" style="stroke-width: 1.0;stroke: rgb(0,0,0);stroke-opacity: 1.0;" transform="matrix(1,0,0,1,0,0)" clip-path="url(#94008632242178clip-2)"/><g style="stroke-width: 1.0;stroke: rgb(192,192,192);stroke-opacity: 1.0;; fill: none" transform="matrix(1,0,0,1,0,0)" clip-path="url(#94008632242178clip-2)"><path d="M 559.07 35.28 C 559.07 37 557.68 38.4 555.96 38.4 C 554.23 38.4 552.84 37 552.84 35.28 C 552.84 33.56 554.23 32.17 555.96 32.17 C 557.68 32.17 559.07 33.56 559.07 35.28 M 559.07 35.28"/></g><line x1="555.96" y1="23" x2="555.96" y2="23" style="stroke-width: 1.0;stroke: rgb(192,192,192);stroke-opacity: 1.0;" transform="matrix(1,0,0,1,0,0)" clip-path="url(#94008632242178clip-2)"/><line x1="555.96" y1="23" x2="555.96" y2="23" style="stroke-width: 1.0;stroke: rgb(192,192,192);stroke-opacity: 1.0;" transform="matrix(1,0,0,1,0,0)" clip-path="url(#94008632242178clip-2)"/><line x1="555.96" y1="23" x2="555.96" y2="23" style="stroke-width: 1.0;stroke: rgb(192,192,192);stroke-opacity: 1.0;" transform="matrix(1,0,0,1,0,0)" clip-path="url(#94008632242178clip-2)"/><rect x="58" y="23" width="534" height="305" style="stroke-width: 0.5;stroke: rgb(128,128,128);stroke-opacity: 1.0;; fill: none" transform="matrix(1,0,0,1,0,0)" clip-path="url(#94008632242178clip-0)"/></svg>
