<!DOCTYPE svg PUBLIC "-//W3C//DTD SVG 1.1//EN" "http://www.w3.org/Graphics/SVG/1.1/DTD/svg11.dtd">
<svg xmlns="http://www.w3.org/2000/svg" xmlns:xlink="http://www.w3.org/1999/xlink" xmlns:jfreesvg="http://www.jfree.org/jfreesvg/svg" width="600" height="400" text-rendering="auto" shape-rendering="auto">
<defs><clipPath id="94008622798388clip-0"><path d="M 0 0 L 600 0 L 600 400 L 0 400 L 0 0 M 0 0"/></clipPath>
<clipPath id="94008622798388clip-1"><path d="M 194.43 156.57 L 194.43 756.57 L -205.57 756.57 L -205.57 156.57 L 194.43 156.57 M 194.43 156.57"/></clipPath>
<clipPath id="94008622798388clip-2"><path d="M 64 23 L 64 328 L 592 328 L 592 23 M 64 23"/></clipPath>
</defs>
<rect x="0" y="0" width="600" height="400" style="fill: rgb(238,238,238); fill-opacity: 1.0" transform="matrix(1,0,0,1,0,0)" clip-path="url(#94008622798388clip-0)"/><g style="fill: rgb(0,0,0); fill-opacity: 1.0; stroke: none" transform="matrix(1,0,0,1,0,0)" clip-path="url(#94008622798388clip-0)"><path d="M 276.77 14.54 L 276.77 5.81 L 273.15 5.81 L 273.15 4.42 L 282.51 4.42 L 282.51 5.81 L 278.89 5.81 L 278.89 14.54 M 276.77 14.54 M 297.41 14.13 Q 295.94 14.79 293.9 14.79 Q 291.41 14.79 290.02 13.39 Q 288.64 11.99 288.64 9.48 Q 288.64 6.92 290.03 5.54 Q 291.43 4.17 294.02 4.17 Q 295.68 4.17 297.31 4.55 L 297.31 6.2 Q 295.46 5.55 294.21 5.55 Q 292.61 5.55 291.74 6.57 Q 290.87 7.58 290.87 9.45 Q 290.87 11.28 291.8 12.31 Q 292.74 13.33 294.4 13.33 Q 295.89 13.33 297.41 12.58 M 297.41 14.13 M 299.26 14.54 L 299.26 3.74 L 301.29 3.74 L 301.29 8.44 Q 302.28 6.86 303.84 6.86 Q 304.85 6.86 305.43 7.49 Q 306.01 8.13 306.01 9.23 L 306.01 14.54 L 303.99 14.54 L 303.99 9.73 Q 303.99 8.45 303.14 8.45 Q 302.18 8.45 301.29 9.81 L 301.29 14.54 M 299.26 14.54 M 311.94 13.73 Q 310.93 14.71 309.78 14.71 Q 308.79 14.71 308.18 14.1 Q 307.56 13.5 307.56 12.55 Q 307.56 11.3 308.56 10.63 Q 309.55 9.96 311.4 9.96 L 311.94 9.96 L 311.94 9.27 Q 311.94 8.1 310.61 8.1 Q 309.43 8.1 308.22 8.77 L 308.22 7.38 Q 309.59 6.86 310.94 6.86 Q 313.88 6.86 313.88 9.2 L 313.88 12.53 Q 313.88 13.41 314.45 13.41 Q 314.55 13.41 314.72 13.38 L 314.77 14.51 Q 314.12 14.71 313.63 14.71 Q 312.39 14.71 312.03 13.73 M 311.94 13.73 M 311.94 12.64 L 311.94 11.12 L 311.46 11.12 Q 309.5 11.12 309.5 12.35 Q 309.5 12.76 309.79 13.05 Q 310.07 13.33 310.49 13.33 Q 311.2 13.33 311.94 12.64 M 311.94 12.64 M 316.26 14.54 L 316.26 7.03 L 318.29 7.03 L 318.29 8.44 Q 319.07 6.86 320.68 6.86 Q 320.87 6.86 321.06 6.9 L 321.06 8.7 Q 320.63 8.55 320.26 8.55 Q 319.05 8.55 318.29 9.77 L 318.29 14.54 M 316.26 14.54 M 326.13 14.49 Q 325.41 14.71 324.99 14.71 Q 322.36 14.71 322.36 12.25 L 322.36 8.29 L 321.52 8.29 L 321.52 7.03 L 322.36 7.03 L 322.36 5.76 L 324.38 5.53 L 324.38 7.03 L 325.99 7.03 L 325.99 8.29 L 324.38 8.29 L 324.38 11.98 Q 324.38 13.36 325.51 13.36 Q 325.77 13.36 326.13 13.26 M 326.13 14.49"/></g><rect x="262" y="373.33" width="76" height="25.67" style="fill: rgb(255,255,255); fill-opacity: 1.0" transform="matrix(1,0,0,1,0,0)" clip-path="url(#94008622798388clip-0)"/><line x1="262.5" y1="373.83" x2="337.5" y2="373.83" style="stroke-width: 1.0;stroke: rgb(0,0,0);stroke-opacity: 1.0;" transform="matrix(1,0,0,1,0,0)" clip-path="url(#94008622798388clip-0)"/><line x1="262.5" y1="398.5" x2="337.5" y2="398.5" style="stroke-width: 1.0;stroke: rgb(0,0,0);stroke-opacity: 1.0;" transform="matrix(1,0,0,1,0,0)" clip-path="url(#94008622798388clip-0)"/><line x1="262.5" y1="398.5" x2="262.5" y2="373.83" style="stroke-width: 1.0;stroke: rgb(0,0,0);stroke-opacity: 1.0;" transform="matrix(1,0,0,1,0,0)" clip-path="url(#94008622798388clip-0)"/><line x1="337.5" y1="398.5" x2="337.5" y2="373.83" style="stroke-width: 1.0;stroke: rgb(0,0,0);stroke-opacity: 1.0;" transform="matrix(1,0,0,1,0,0)" clip-path="url(#94008622798388clip-0)"/><g style="fill: rgb(192,192,192); fill-opacity: 1.0; stroke: none" transform="matrix(1,0,0,1,0,0)" clip-path="url(#94008622798388clip-0)"><path d="M 266 382.17 L 274 382.17 L 274 390.17 L 266 390.17 L 266 382.17 M 266 382.17"/></g><g style="stroke-width: 1.0;stroke: rgb(0,0,0);stroke-opacity: 1.0;; fill: none" transform="matrix(1,0,0,1,0,0)" clip-path="url(#94008622798388clip-0)"><path d="M 266 382.17 L 274 382.17 L 274 390.17 L 266 390.17 L 266 382.17 M 266 382.17"/></g><g style="fill: rgb(0,0,0); fill-opacity: 1.0; stroke: none" transform="matrix(1,0,0,1,0,0)" clip-path="url(#94008622798388clip-0)"><path d="M 281.52 392.11 Q 280.43 392.11 278.73 391.63 L 278.73 390.11 Q 280.56 390.96 281.74 390.96 Q 282.65 390.96 283.2 390.48 Q 283.76 390 283.76 389.23 Q 283.76 388.59 283.39 388.14 Q 283.03 387.7 282.06 387.15 L 281.31 386.72 Q 279.93 385.93 279.36 385.23 Q 278.79 384.53 278.79 383.6 Q 278.79 382.34 279.7 381.53 Q 280.61 380.73 282.01 380.73 Q 283.27 380.73 284.66 381.14 L 284.66 382.55 Q 282.94 381.88 282.1 381.88 Q 281.3 381.88 280.78 382.3 Q 280.26 382.72 280.26 383.37 Q 280.26 383.91 280.64 384.33 Q 281.02 384.75 282.04 385.32 L 282.81 385.76 Q 284.22 386.56 284.77 387.27 Q 285.33 387.98 285.33 388.98 Q 285.33 390.39 284.29 391.25 Q 283.24 392.11 281.52 392.11 M 281.52 392.11 M 294.27 391.58 Q 292.82 392.02 291.79 392.02 Q 290.03 392.02 288.92 390.85 Q 287.81 389.68 287.81 387.82 Q 287.81 386.01 288.79 384.86 Q 289.77 383.7 291.29 383.7 Q 292.73 383.7 293.52 384.72 Q 294.31 385.75 294.31 387.64 L 294.3 388.09 L 289.29 388.09 Q 289.6 390.92 292.06 390.92 Q 292.96 390.92 294.27 390.44 M 294.27 391.58 M 289.35 387 L 292.86 387 Q 292.86 384.78 291.2 384.78 Q 289.54 384.78 289.35 387 M 289.35 387 M 297.44 391.84 L 297.44 383.88 L 298.89 383.88 L 298.89 385.38 Q 299.74 383.71 301.38 383.71 Q 301.6 383.71 301.84 383.74 L 301.84 385.09 Q 301.46 384.97 301.18 384.97 Q 299.81 384.97 298.89 386.59 L 298.89 391.84 M 297.44 391.84 M 304.44 391.84 L 304.44 383.88 L 305.89 383.88 L 305.89 391.84 M 304.44 391.84 M 304.44 382.44 L 304.44 381 L 305.89 381 L 305.89 382.44 M 304.44 382.44 M 315.27 391.58 Q 313.82 392.02 312.79 392.02 Q 311.03 392.02 309.92 390.85 Q 308.81 389.68 308.81 387.82 Q 308.81 386.01 309.79 384.86 Q 310.77 383.7 312.29 383.7 Q 313.73 383.7 314.52 384.72 Q 315.31 385.75 315.31 387.64 L 315.3 388.09 L 310.29 388.09 Q 310.6 390.92 313.06 390.92 Q 313.96 390.92 315.27 390.44 M 315.27 391.58 M 310.35 387 L 313.86 387 Q 313.86 384.78 312.2 384.78 Q 310.54 384.78 310.35 387 M 310.35 387 M 320.55 392.02 Q 319.56 392.02 318.15 391.56 L 318.15 390.23 Q 319.56 390.94 320.61 390.94 Q 321.23 390.94 321.64 390.6 Q 322.05 390.26 322.05 389.76 Q 322.05 389.02 320.9 388.53 L 320.06 388.17 Q 318.19 387.4 318.19 385.94 Q 318.19 384.9 318.93 384.3 Q 319.67 383.71 320.95 383.71 Q 321.61 383.71 322.6 383.89 L 322.9 383.95 L 322.9 385.15 Q 321.69 384.79 320.98 384.79 Q 319.59 384.79 319.59 385.8 Q 319.59 386.45 320.64 386.9 L 321.34 387.19 Q 322.52 387.69 323.01 388.24 Q 323.5 388.8 323.5 389.62 Q 323.5 390.67 322.67 391.35 Q 321.84 392.02 320.55 392.02 M 320.55 392.02 M 332.26 391.84 L 332.26 390.75 L 334.42 390.75 L 334.42 382.2 L 332.26 382.74 L 332.26 381.63 L 335.87 380.73 L 335.87 390.75 L 338.04 390.75 L 338.04 391.84 M 332.26 391.84"/></g><rect x="64" y="23" width="528" height="305" style="fill: rgb(255,255,255); fill-opacity: 1.0" transform="matrix(1,0,0,1,0,0)" clip-path="url(#94008622798388clip-0)"/><line x1="64" y1="328" x2="592" y2="328" style="stroke-width: 1.0;stroke: rgb(128,128,128);stroke-opacity: 1.0;" transform="matrix(1,0,0,1,0,0)" clip-path="url(#94008622798388clip-0)"/><line x1="99.64" y1="328" x2="99.64" y2="328" style="stroke-width: 1.0;stroke: rgb(128,128,128);stroke-opacity: 1.0;" transform="matrix(1,0,0,1,0,0)" clip-path="url(#94008622798388clip-0)"/><line x1="99.64" y1="328" x2="99.64" y2="330" style="stroke-width: 1.0;stroke: rgb(128,128,128);stroke-opacity: 1.0;" transform="matrix(1,0,0,1,0,0)" clip-path="url(#94008622798388clip-0)"/><line x1="123.68" y1="328" x2="123.68" y2="328" style="stroke-width: 1.0;stroke: rgb(128,128,128);stroke-opacity: 1.0;" transform="matrix(1,0,0,1,0,0)" clip-path="url(#94008622798388clip-0)"/><line x1="123.68" y1="328" x2="123.68" y2="330" style="stroke-width: 1.0;stroke: rgb(128,128,128);stroke-opacity: 1.0;" transform="matrix(1,0,0,1,0,0)" clip-path="url(#94008622798388clip-0)"/><line x1="147.72" y1="328" x2="147.72" y2="328" style="stroke-width: 1.0;stroke: rgb(128,128,128);stroke-opacity: 1.0;" transform="matrix(1,0,0,1,0,0)" clip-path="url(#94008622798388clip-0)"/><line x1="147.72" y1="328" x2="147.72" y2="330" style="stroke-width: 1.0;stroke: rgb(128,128,128);stroke-opacity: 1.0;" transform="matrix(1,0,0,1,0,0)" clip-path="url(#94008622798388clip-0)"/><line x1="171.75" y1="328" x2="171.75" y2="328" style="stroke-width: 1.0;stroke: rgb(128,128,128);stroke-opacity: 1.0;" transform="matrix(1,0,0,1,0,0)" clip-path="url(#94008622798388clip-0)"/><line x1="171.75" y1="328" x2="171.75" y2="330" style="stroke-width: 1.0;stroke: rgb(128,128,128);stroke-opacity: 1.0;" transform="matrix(1,0,0,1,0,0)" clip-path="url(#94008622798388clip-0)"/><line x1="195.79" y1="328" x2="195.79" y2="328" style="stroke-width: 1.0;stroke: rgb(128,128,128);stroke-opacity: 1.0;" transform="matrix(1,0,0,1,0,0)" clip-path="url(#94008622798388clip-0)"/><line x1="195.79" y1="328" x2="195.79" y2="330" style="stroke-width: 1.0;stroke: rgb(128,128,128);stroke-opacity: 1.0;" transform="matrix(1,0,0,1,0,0)" clip-path="url(#94008622798388clip-0)"/><line x1="219.83" y1="328" x2="219.83" y2="328" style="stroke-width: 1.0;stroke: rgb(128,128,128);stroke-opacity: 1.0;" transform="matrix(1,0,0,1,0,0)" clip-path="url(#94008622798388clip-0)"/><line x1="219.83" y1="328" x2="219.83" y2="330" style="stroke-width: 1.0;stroke: rgb(128,128,128);stroke-opacity: 1.0;" transform="matrix(1,0,0,1,0,0)" clip-path="url(#94008622798388clip-0)"/><line x1="243.87" y1="328" x2="243.87" y2="328" style="stroke-width: 1.0;stroke: rgb(128,128,128);stroke-opacity: 1.0;" transform="matrix(1,0,0,1,0,0)" clip-path="url(#94008622798388clip-0)"/><line x1="243.87" y1="328" x2="243.87" y2="330" style="stroke-width: 1.0;stroke: rgb(128,128,128);stroke-opacity: 1.0;" transform="matrix(1,0,0,1,0,0)" clip-path="url(#94008622798388clip-0)"/><line x1="267.91" y1="328" x2="267.91" y2="328" style="stroke-width: 1.0;stroke: rgb(128,128,128);stroke-opacity: 1.0;" transform="matrix(1,0,0,1,0,0)" clip-path="url(#94008622798388clip-0)"/><line x1="267.91" y1="328" x2="267.91" y2="330" style="stroke-width: 1.0;stroke: rgb(128,128,128);stroke-opacity: 1.0;" transform="matrix(1,0,0,1,0,0)" clip-path="url(#94008622798388clip-0)"/><line x1="291.94" y1="328" x2="291.94" y2="328" style="stroke-width: 1.0;stroke: rgb(128,128,128);stroke-opacity: 1.0;" transform="matrix(1,0,0,1,0,0)" clip-path="url(#94008622798388clip-0)"/><line x1="291.94" y1="328" x2="291.94" y2="330" style="stroke-width: 1.0;stroke: rgb(128,128,128);stroke-opacity: 1.0;" transform="matrix(1,0,0,1,0,0)" clip-path="url(#94008622798388clip-0)"/><line x1="315.98" y1="328" x2="315.98" y2="328" style="stroke-width: 1.0;stroke: rgb(128,128,128);stroke-opacity: 1.0;" transform="matrix(1,0,0,1,0,0)" clip-path="url(#94008622798388clip-0)"/><line x1="315.98" y1="328" x2="315.98" y2="330" style="stroke-width: 1.0;stroke: rgb(128,128,128);stroke-opacity: 1.0;" transform="matrix(1,0,0,1,0,0)" clip-path="url(#94008622798388clip-0)"/><line x1="340.02" y1="328" x2="340.02" y2="328" style="stroke-width: 1.0;stroke: rgb(128,128,128);stroke-opacity: 1.0;" transform="matrix(1,0,0,1,0,0)" clip-path="url(#94008622798388clip-0)"/><line x1="340.02" y1="328" x2="340.02" y2="330" style="stroke-width: 1.0;stroke: rgb(128,128,128);stroke-opacity: 1.0;" transform="matrix(1,0,0,1,0,0)" clip-path="url(#94008622798388clip-0)"/><line x1="364.06" y1="328" x2="364.06" y2="328" style="stroke-width: 1.0;stroke: rgb(128,128,128);stroke-opacity: 1.0;" transform="matrix(1,0,0,1,0,0)" clip-path="url(#94008622798388clip-0)"/><line x1="364.06" y1="328" x2="364.06" y2="330" style="stroke-width: 1.0;stroke: rgb(128,128,128);stroke-opacity: 1.0;" transform="matrix(1,0,0,1,0,0)" clip-path="url(#94008622798388clip-0)"/><line x1="388.09" y1="328" x2="388.09" y2="328" style="stroke-width: 1.0;stroke: rgb(128,128,128);stroke-opacity: 1.0;" transform="matrix(1,0,0,1,0,0)" clip-path="url(#94008622798388clip-0)"/><line x1="388.09" y1="328" x2="388.09" y2="330" style="stroke-width: 1.0;stroke: rgb(128,128,128);stroke-opacity: 1.0;" transform="matrix(1,0,0,1,0,0)" clip-path="url(#94008622798388clip-0)"/><line x1="412.13" y1="328" x2="412.13" y2="328" style="stroke-width: 1.0;stroke: rgb(128,128,128);stroke-opacity: 1.0;" transform="matrix(1,0,0,1,0,0)" clip-path="url(#94008622798388clip-0)"/><line x1="412.13" y1="328" x2="412.13" y2="330" style="stroke-width: 1.0;stroke: rgb(128,128,128);stroke-opacity: 1.0;" transform="matrix(1,0,0,1,0,0)" clip-path="url(#94008622798388clip-0)"/><line x1="436.17" y1="328" x2="436.17" y2="328" style="stroke-width: 1.0;stroke: rgb(128,128,128);stroke-opacity: 1.0;" transform="matrix(1,0,0,1,0,0)" clip-path="url(#94008622798388clip-0)"/><line x1="436.17" y1="328" x2="436.17" y2="330" style="stroke-width: 1.0;stroke: rgb(128,128,128);stroke-opacity: 1.0;" transform="matrix(1,0,0,1,0,0)" clip-path="url(#94008622798388clip-0)"/><line x1="460.21" y1="328" x2="460.21" y2="328" style="stroke-width: 1.0;stroke: rgb(128,128,128);stroke-opacity: 1.0;" transform="matrix(1,0,0,1,0,0)" clip-path="url(#94008622798388clip-0)"/><line x1="460.21" y1="328" x2="460.21" y2="330" style="stroke-width: 1.0;stroke: rgb(128,128,128);stroke-opacity: 1.0;" transform="matrix(1,0,0,1,0,0)" clip-path="url(#94008622798388clip-0)"/><line x1="484.25" y1="328" x2="484.25" y2="328" style="stroke-width: 1.0;stroke: rgb(128,128,128);stroke-opacity: 1.0;" transform="matrix(1,0,0,1,0,0)" clip-path="url(#94008622798388clip-0)"/><line x1="484.25" y1="328" x2="484.25" y2="330" style="stroke-width: 1.0;stroke: rgb(128,128,128);stroke-opacity: 1.0;" transform="matrix(1,0,0,1,0,0)" clip-path="url(#94008622798388clip-0)"/><line x1="508.28" y1="328" x2="508.28" y2="328" style="stroke-width: 1.0;stroke: rgb(128,128,128);stroke-opacity: 1.0;" transform="matrix(1,0,0,1,0,0)" clip-path="url(#94008622798388clip-0)"/><line x1="508.28" y1="328" x2="508.28" y2="330" style="stroke-width: 1.0;stroke: rgb(128,128,128);stroke-opacity: 1.0;" transform="matrix(1,0,0,1,0,0)" clip-path="url(#94008622798388clip-0)"/><line x1="532.32" y1="328" x2="532.32" y2="328" style="stroke-width: 1.0;stroke: rgb(128,128,128);stroke-opacity: 1.0;" transform="matrix(1,0,0,1,0,0)" clip-path="url(#94008622798388clip-0)"/><line x1="532.32" y1="328" x2="532.32" y2="330" style="stroke-width: 1.0;stroke: rgb(128,128,128);stroke-opacity: 1.0;" transform="matrix(1,0,0,1,0,0)" clip-path="url(#94008622798388clip-0)"/><line x1="556.36" y1="328" x2="556.36" y2="328" style="stroke-width: 1.0;stroke: rgb(128,128,128);stroke-opacity: 1.0;" transform="matrix(1,0,0,1,0,0)" clip-path="url(#94008622798388clip-0)"/><line x1="556.36" y1="328" x2="556.36" y2="330" style="stroke-width: 1.0;stroke: rgb(128,128,128);stroke-opacity: 1.0;" transform="matrix(1,0,0,1,0,0)" clip-path="url(#94008622798388clip-0)"/><g style="fill: rgb(0,0,0); fill-opacity: 1.0; stroke: none" transform="matrix(1,0,0,1,0,0)" clip-path="url(#94008622798388clip-0)"><path d="M 98.14 343.67 L 98.14 342.95 L 99.59 342.95 L 99.59 337.24 L 98.14 337.6 L 98.14 336.86 L 100.56 336.26 L 100.56 342.95 L 102 342.95 L 102 343.67 M 98.14 343.67"/></g><g style="fill: rgb(0,0,0); fill-opacity: 1.0; stroke: none" transform="matrix(1,0,0,1,0,0)" clip-path="url(#94008622798388clip-0)"><path d="M 121.51 343.67 L 121.51 342.82 Q 121.93 341.84 123.21 340.68 L 123.76 340.19 Q 124.82 339.23 124.82 338.28 Q 124.82 337.68 124.46 337.33 Q 124.1 336.98 123.46 336.98 Q 122.71 336.98 121.69 337.56 L 121.69 336.71 Q 122.65 336.26 123.6 336.26 Q 124.61 336.26 125.23 336.81 Q 125.84 337.35 125.84 338.26 Q 125.84 338.91 125.53 339.41 Q 125.22 339.91 124.38 340.63 L 124.01 340.95 Q 122.85 341.93 122.67 342.82 L 125.81 342.82 L 125.81 343.67 M 121.51 343.67"/></g><g style="fill: rgb(0,0,0); fill-opacity: 1.0; stroke: none" transform="matrix(1,0,0,1,0,0)" clip-path="url(#94008622798388clip-0)"><path d="M 145.73 343.61 L 145.73 342.72 Q 146.77 343.13 147.36 343.13 Q 148.05 343.13 148.48 342.72 Q 148.92 342.32 148.92 341.68 Q 148.92 340.16 146.78 340.16 L 146.4 340.16 L 146.4 339.51 L 146.74 339.5 Q 148.74 339.5 148.74 338.09 Q 148.74 336.98 147.42 336.98 Q 146.7 336.98 145.83 337.39 L 145.83 336.55 Q 146.68 336.26 147.49 336.26 Q 149.71 336.26 149.71 337.94 Q 149.71 339.21 148.2 339.75 Q 149.95 340.16 149.95 341.67 Q 149.95 342.69 149.27 343.27 Q 148.6 343.85 147.42 343.85 Q 146.75 343.85 145.73 343.61 M 145.73 343.61"/></g><g style="fill: rgb(0,0,0); fill-opacity: 1.0; stroke: none" transform="matrix(1,0,0,1,0,0)" clip-path="url(#94008622798388clip-0)"><path d="M 172.52 343.67 L 172.52 341.62 L 169.27 341.62 L 169.27 340.89 L 172.52 336.44 L 173.42 336.44 L 173.42 340.84 L 174.39 340.84 L 174.39 341.62 L 173.42 341.62 L 173.42 343.67 M 172.52 343.67 M 170.21 340.84 L 172.58 340.84 L 172.58 337.62 M 170.21 340.84"/></g><g style="fill: rgb(0,0,0); fill-opacity: 1.0; stroke: none" transform="matrix(1,0,0,1,0,0)" clip-path="url(#94008622798388clip-0)"><path d="M 194.01 343.7 L 194.01 342.84 Q 194.73 343.13 195.37 343.13 Q 196.09 343.13 196.5 342.71 Q 196.9 342.29 196.9 341.55 Q 196.9 339.92 194.66 339.92 Q 194.41 339.92 194.13 339.96 L 194.13 336.44 L 197.79 336.44 L 197.79 337.28 L 194.97 337.28 L 194.97 339.19 Q 196.37 339.19 197.15 339.83 Q 197.93 340.46 197.93 341.6 Q 197.93 342.65 197.22 343.25 Q 196.51 343.85 195.25 343.85 Q 194.7 343.85 194.01 343.7 M 194.01 343.7"/></g><g style="fill: rgb(0,0,0); fill-opacity: 1.0; stroke: none" transform="matrix(1,0,0,1,0,0)" clip-path="url(#94008622798388clip-0)"><path d="M 218.55 339.92 Q 219.24 339.03 220.28 339.03 Q 221.23 339.03 221.83 339.66 Q 222.43 340.28 222.43 341.27 Q 222.43 342.39 221.76 343.12 Q 221.08 343.85 220.04 343.85 Q 218.85 343.85 218.17 342.89 Q 217.5 341.92 217.5 340.22 Q 217.5 338.34 218.27 337.3 Q 219.05 336.26 220.45 336.26 Q 221.1 336.26 222.06 336.53 L 222.06 337.37 Q 221.04 336.98 220.39 336.98 Q 218.55 336.98 218.55 339.92 M 218.55 339.92 M 221.47 341.48 Q 221.47 340.66 221.1 340.19 Q 220.73 339.72 220.08 339.72 Q 219.47 339.72 219.03 340.13 Q 218.59 340.54 218.59 341.12 Q 218.59 342.03 219 342.58 Q 219.42 343.13 220.11 343.13 Q 220.73 343.13 221.1 342.68 Q 221.47 342.23 221.47 341.48 M 221.47 341.48"/></g><g style="fill: rgb(0,0,0); fill-opacity: 1.0; stroke: none" transform="matrix(1,0,0,1,0,0)" clip-path="url(#94008622798388clip-0)"><path d="M 242.37 343.67 Q 242.51 342.82 242.77 342.21 Q 243.04 341.59 243.7 340.52 L 245.67 337.34 L 241.95 337.34 L 241.95 336.44 L 246.59 336.44 L 246.59 337.34 Q 243.81 341.44 243.48 343.67 M 242.37 343.67"/></g><g style="fill: rgb(0,0,0); fill-opacity: 1.0; stroke: none" transform="matrix(1,0,0,1,0,0)" clip-path="url(#94008622798388clip-0)"><path d="M 267.21 339.73 Q 266.15 339 266.15 338.1 Q 266.15 337.28 266.75 336.77 Q 267.35 336.26 268.31 336.26 Q 269.21 336.26 269.76 336.69 Q 270.32 337.12 270.32 337.82 Q 270.32 338.87 268.97 339.73 Q 270.6 340.53 270.6 341.8 Q 270.6 342.71 269.92 343.28 Q 269.23 343.85 268.15 343.85 Q 267.08 343.85 266.43 343.31 Q 265.77 342.77 265.77 341.89 Q 265.77 340.59 267.21 339.73 M 267.21 339.73 M 268.43 339.43 Q 269.44 338.77 269.44 337.95 Q 269.44 337.52 269.1 337.25 Q 268.77 336.98 268.22 336.98 Q 267.68 336.98 267.35 337.24 Q 267.02 337.51 267.02 337.92 Q 267.02 338.33 267.32 338.65 Q 267.62 338.97 268.43 339.43 M 268.43 339.43 M 267.73 340.12 Q 267.15 340.57 266.94 340.91 Q 266.73 341.24 266.73 341.74 Q 266.73 342.36 267.13 342.74 Q 267.53 343.13 268.19 343.13 Q 268.82 343.13 269.21 342.8 Q 269.61 342.47 269.61 341.95 Q 269.61 341.53 269.37 341.24 Q 269.12 340.95 268.41 340.53 M 267.73 340.12"/></g><g style="fill: rgb(0,0,0); fill-opacity: 1.0; stroke: none" transform="matrix(1,0,0,1,0,0)" clip-path="url(#94008622798388clip-0)"><path d="M 290.08 343.62 L 290.08 342.81 Q 291 343.13 291.64 343.13 Q 292.54 343.13 293.05 342.36 Q 293.55 341.6 293.55 340.24 Q 292.82 341.14 291.89 341.14 Q 290.97 341.14 290.34 340.47 Q 289.7 339.8 289.7 338.83 Q 289.7 337.72 290.38 336.99 Q 291.06 336.26 292.08 336.26 Q 293.26 336.26 293.94 337.21 Q 294.62 338.15 294.62 339.79 Q 294.62 341.66 293.79 342.75 Q 292.96 343.85 291.55 343.85 Q 290.98 343.85 290.08 343.62 M 290.08 343.62 M 290.67 338.64 Q 290.67 339.48 291.04 339.96 Q 291.41 340.45 292.06 340.45 Q 292.67 340.45 293.11 340.03 Q 293.54 339.62 293.54 339.03 Q 293.54 338.11 293.12 337.54 Q 292.7 336.98 292.02 336.98 Q 291.39 336.98 291.03 337.43 Q 290.67 337.87 290.67 338.64 M 290.67 338.64"/></g><g style="fill: rgb(0,0,0); fill-opacity: 1.0; stroke: none" transform="matrix(1,0,0,1,0,0)" clip-path="url(#94008622798388clip-0)"><path d="M 311.48 343.67 L 311.48 342.95 L 312.93 342.95 L 312.93 337.24 L 311.48 337.6 L 311.48 336.86 L 313.9 336.26 L 313.9 342.95 L 315.34 342.95 L 315.34 343.67 M 311.48 343.67 M 319.12 343.85 Q 318 343.85 317.31 342.8 Q 316.62 341.74 316.62 340.05 Q 316.62 338.34 317.31 337.3 Q 318.01 336.26 319.15 336.26 Q 320.28 336.26 320.98 337.3 Q 321.67 338.34 321.67 340.04 Q 321.67 341.77 320.98 342.81 Q 320.28 343.85 319.12 343.85 M 319.12 343.85 M 319.13 343.13 Q 320.65 343.13 320.65 340.02 Q 320.65 336.98 319.15 336.98 Q 317.64 336.98 317.64 340.05 Q 317.64 343.13 319.13 343.13 M 319.13 343.13"/></g><g style="fill: rgb(0,0,0); fill-opacity: 1.0; stroke: none" transform="matrix(1,0,0,1,0,0)" clip-path="url(#94008622798388clip-0)"><path d="M 335.52 343.67 L 335.52 342.95 L 336.97 342.95 L 336.97 337.24 L 335.52 337.6 L 335.52 336.86 L 337.93 336.26 L 337.93 342.95 L 339.38 342.95 L 339.38 343.67 M 335.52 343.67 M 341.52 343.67 L 341.52 342.95 L 342.97 342.95 L 342.97 337.24 L 341.52 337.6 L 341.52 336.86 L 343.93 336.26 L 343.93 342.95 L 345.38 342.95 L 345.38 343.67 M 341.52 343.67"/></g><g style="fill: rgb(0,0,0); fill-opacity: 1.0; stroke: none" transform="matrix(1,0,0,1,0,0)" clip-path="url(#94008622798388clip-0)"><path d="M 359.56 343.67 L 359.56 342.95 L 361.01 342.95 L 361.01 337.24 L 359.56 337.6 L 359.56 336.86 L 361.97 336.26 L 361.97 342.95 L 363.42 342.95 L 363.42 343.67 M 359.56 343.67 M 364.89 343.67 L 364.89 342.82 Q 365.31 341.84 366.59 340.68 L 367.14 340.19 Q 368.2 339.23 368.2 338.28 Q 368.2 337.68 367.84 337.33 Q 367.47 336.98 366.84 336.98 Q 366.09 336.98 365.07 337.56 L 365.07 336.71 Q 366.03 336.26 366.98 336.26 Q 367.99 336.26 368.61 336.81 Q 369.22 337.35 369.22 338.26 Q 369.22 338.91 368.91 339.41 Q 368.6 339.91 367.76 340.63 L 367.39 340.95 Q 366.23 341.93 366.05 342.82 L 369.19 342.82 L 369.19 343.67 M 364.89 343.67"/></g><g style="fill: rgb(0,0,0); fill-opacity: 1.0; stroke: none" transform="matrix(1,0,0,1,0,0)" clip-path="url(#94008622798388clip-0)"><path d="M 383.6 343.67 L 383.6 342.95 L 385.04 342.95 L 385.04 337.24 L 383.6 337.6 L 383.6 336.86 L 386.01 336.26 L 386.01 342.95 L 387.46 342.95 L 387.46 343.67 M 383.6 343.67 M 389.11 343.61 L 389.11 342.72 Q 390.15 343.13 390.74 343.13 Q 391.43 343.13 391.86 342.72 Q 392.29 342.32 392.29 341.68 Q 392.29 340.16 390.16 340.16 L 389.78 340.16 L 389.78 339.51 L 390.12 339.5 Q 392.12 339.5 392.12 338.09 Q 392.12 336.98 390.8 336.98 Q 390.08 336.98 389.21 337.39 L 389.21 336.55 Q 390.06 336.26 390.87 336.26 Q 393.08 336.26 393.08 337.94 Q 393.08 339.21 391.58 339.75 Q 393.32 340.16 393.32 341.67 Q 393.32 342.69 392.65 343.27 Q 391.98 343.85 390.8 343.85 Q 390.13 343.85 389.11 343.61 M 389.11 343.61"/></g><g style="fill: rgb(0,0,0); fill-opacity: 1.0; stroke: none" transform="matrix(1,0,0,1,0,0)" clip-path="url(#94008622798388clip-0)"><path d="M 407.64 343.67 L 407.64 342.95 L 409.08 342.95 L 409.08 337.24 L 407.64 337.6 L 407.64 336.86 L 410.05 336.26 L 410.05 342.95 L 411.49 342.95 L 411.49 343.67 M 407.64 343.67 M 415.9 343.67 L 415.9 341.62 L 412.65 341.62 L 412.65 340.89 L 415.9 336.44 L 416.8 336.44 L 416.8 340.84 L 417.77 340.84 L 417.77 341.62 L 416.8 341.62 L 416.8 343.67 M 415.9 343.67 M 413.59 340.84 L 415.96 340.84 L 415.96 337.62 M 413.59 340.84"/></g><g style="fill: rgb(0,0,0); fill-opacity: 1.0; stroke: none" transform="matrix(1,0,0,1,0,0)" clip-path="url(#94008622798388clip-0)"><path d="M 431.67 343.67 L 431.67 342.95 L 433.12 342.95 L 433.12 337.24 L 431.67 337.6 L 431.67 336.86 L 434.09 336.26 L 434.09 342.95 L 435.53 342.95 L 435.53 343.67 M 431.67 343.67 M 437.39 343.7 L 437.39 342.84 Q 438.1 343.13 438.75 343.13 Q 439.47 343.13 439.87 342.71 Q 440.28 342.29 440.28 341.55 Q 440.28 339.92 438.04 339.92 Q 437.79 339.92 437.51 339.96 L 437.51 336.44 L 441.17 336.44 L 441.17 337.28 L 438.35 337.28 L 438.35 339.19 Q 439.74 339.19 440.53 339.83 Q 441.31 340.46 441.31 341.6 Q 441.31 342.65 440.6 343.25 Q 439.89 343.85 438.63 343.85 Q 438.08 343.85 437.39 343.7 M 437.39 343.7"/></g><g style="fill: rgb(0,0,0); fill-opacity: 1.0; stroke: none" transform="matrix(1,0,0,1,0,0)" clip-path="url(#94008622798388clip-0)"><path d="M 455.71 343.67 L 455.71 342.95 L 457.16 342.95 L 457.16 337.24 L 455.71 337.6 L 455.71 336.86 L 458.12 336.26 L 458.12 342.95 L 459.57 342.95 L 459.57 343.67 M 455.71 343.67 M 461.93 339.92 Q 462.62 339.03 463.66 339.03 Q 464.61 339.03 465.21 339.66 Q 465.81 340.28 465.81 341.27 Q 465.81 342.39 465.14 343.12 Q 464.46 343.85 463.42 343.85 Q 462.23 343.85 461.55 342.89 Q 460.88 341.92 460.88 340.22 Q 460.88 338.34 461.65 337.3 Q 462.43 336.26 463.83 336.26 Q 464.48 336.26 465.44 336.53 L 465.44 337.37 Q 464.42 336.98 463.77 336.98 Q 461.93 336.98 461.93 339.92 M 461.93 339.92 M 464.85 341.48 Q 464.85 340.66 464.48 340.19 Q 464.11 339.72 463.46 339.72 Q 462.85 339.72 462.41 340.13 Q 461.97 340.54 461.97 341.12 Q 461.97 342.03 462.38 342.58 Q 462.8 343.13 463.49 343.13 Q 464.11 343.13 464.48 342.68 Q 464.85 342.23 464.85 341.48 M 464.85 341.48"/></g><g style="fill: rgb(0,0,0); fill-opacity: 1.0; stroke: none" transform="matrix(1,0,0,1,0,0)" clip-path="url(#94008622798388clip-0)"><path d="M 479.75 343.67 L 479.75 342.95 L 481.2 342.95 L 481.2 337.24 L 479.75 337.6 L 479.75 336.86 L 482.16 336.26 L 482.16 342.95 L 483.61 342.95 L 483.61 343.67 M 479.75 343.67 M 485.75 343.67 Q 485.89 342.82 486.15 342.21 Q 486.41 341.59 487.08 340.52 L 489.05 337.34 L 485.33 337.34 L 485.33 336.44 L 489.97 336.44 L 489.97 337.34 Q 487.19 341.44 486.86 343.67 M 485.75 343.67"/></g><g style="fill: rgb(0,0,0); fill-opacity: 1.0; stroke: none" transform="matrix(1,0,0,1,0,0)" clip-path="url(#94008622798388clip-0)"><path d="M 503.79 343.67 L 503.79 342.95 L 505.23 342.95 L 505.23 337.24 L 503.79 337.6 L 503.79 336.86 L 506.2 336.26 L 506.2 342.95 L 507.65 342.95 L 507.65 343.67 M 503.79 343.67 M 510.58 339.73 Q 509.52 339 509.52 338.1 Q 509.52 337.28 510.13 336.77 Q 510.73 336.26 511.69 336.26 Q 512.59 336.26 513.14 336.69 Q 513.69 337.12 513.69 337.82 Q 513.69 338.87 512.35 339.73 Q 513.98 340.53 513.98 341.8 Q 513.98 342.71 513.3 343.28 Q 512.61 343.85 511.53 343.85 Q 510.46 343.85 509.81 343.31 Q 509.15 342.77 509.15 341.89 Q 509.15 340.59 510.58 339.73 M 510.58 339.73 M 511.81 339.43 Q 512.82 338.77 512.82 337.95 Q 512.82 337.52 512.48 337.25 Q 512.15 336.98 511.59 336.98 Q 511.06 336.98 510.73 337.24 Q 510.4 337.51 510.4 337.92 Q 510.4 338.33 510.7 338.65 Q 511 338.97 511.81 339.43 M 511.81 339.43 M 511.11 340.12 Q 510.53 340.57 510.32 340.91 Q 510.11 341.24 510.11 341.74 Q 510.11 342.36 510.51 342.74 Q 510.91 343.13 511.57 343.13 Q 512.2 343.13 512.59 342.8 Q 512.99 342.47 512.99 341.95 Q 512.99 341.53 512.74 341.24 Q 512.5 340.95 511.79 340.53 M 511.11 340.12"/></g><g style="fill: rgb(0,0,0); fill-opacity: 1.0; stroke: none" transform="matrix(1,0,0,1,0,0)" clip-path="url(#94008622798388clip-0)"><path d="M 527.83 343.67 L 527.83 342.95 L 529.27 342.95 L 529.27 337.24 L 527.83 337.6 L 527.83 336.86 L 530.24 336.26 L 530.24 342.95 L 531.68 342.95 L 531.68 343.67 M 527.83 343.67 M 533.46 343.62 L 533.46 342.81 Q 534.38 343.13 535.02 343.13 Q 535.92 343.13 536.43 342.36 Q 536.93 341.6 536.93 340.24 Q 536.2 341.14 535.27 341.14 Q 534.35 341.14 533.72 340.47 Q 533.08 339.8 533.08 338.83 Q 533.08 337.72 533.76 336.99 Q 534.44 336.26 535.46 336.26 Q 536.64 336.26 537.32 337.21 Q 538 338.15 538 339.79 Q 538 341.66 537.17 342.75 Q 536.34 343.85 534.93 343.85 Q 534.36 343.85 533.46 343.62 M 533.46 343.62 M 534.05 338.64 Q 534.05 339.48 534.42 339.96 Q 534.79 340.45 535.44 340.45 Q 536.05 340.45 536.48 340.03 Q 536.92 339.62 536.92 339.03 Q 536.92 338.11 536.5 337.54 Q 536.08 336.98 535.4 336.98 Q 534.77 336.98 534.41 337.43 Q 534.05 337.87 534.05 338.64 M 534.05 338.64"/></g><g style="fill: rgb(0,0,0); fill-opacity: 1.0; stroke: none" transform="matrix(1,0,0,1,0,0)" clip-path="url(#94008622798388clip-0)"><path d="M 551.19 343.67 L 551.19 342.82 Q 551.61 341.84 552.89 340.68 L 553.44 340.19 Q 554.51 339.23 554.51 338.28 Q 554.51 337.68 554.14 337.33 Q 553.78 336.98 553.14 336.98 Q 552.39 336.98 551.37 337.56 L 551.37 336.71 Q 552.33 336.26 553.28 336.26 Q 554.3 336.26 554.91 336.81 Q 555.53 337.35 555.53 338.26 Q 555.53 338.91 555.22 339.41 Q 554.91 339.91 554.06 340.63 L 553.69 340.95 Q 552.53 341.93 552.35 342.82 L 555.49 342.82 L 555.49 343.67 M 551.19 343.67 M 559.49 343.85 Q 558.38 343.85 557.69 342.8 Q 556.99 341.74 556.99 340.05 Q 556.99 338.34 557.69 337.3 Q 558.39 336.26 559.52 336.26 Q 560.66 336.26 561.36 337.3 Q 562.05 338.34 562.05 340.04 Q 562.05 341.77 561.36 342.81 Q 560.66 343.85 559.49 343.85 M 559.49 343.85 M 559.5 343.13 Q 561.03 343.13 561.03 340.02 Q 561.03 336.98 559.52 336.98 Q 558.02 336.98 558.02 340.05 Q 558.02 343.13 559.5 343.13 M 559.5 343.13"/></g><g style="fill: rgb(0,0,0); fill-opacity: 1.0; stroke: none" transform="matrix(1,0,0,1,0,0)" clip-path="url(#94008622798388clip-0)"><path d="M 314.68 364.38 L 314.68 356.63 L 311.61 356.63 L 311.61 355.71 L 318.99 355.71 L 318.99 356.63 L 315.91 356.63 L 315.91 364.38 M 314.68 364.38 M 324.63 364.38 L 324.63 363.18 Q 323.71 364.53 322.4 364.53 Q 321.57 364.53 321.08 364 Q 320.58 363.48 320.58 362.59 L 320.58 358.02 L 321.74 358.02 L 321.74 362.21 Q 321.74 362.93 321.95 363.23 Q 322.15 363.53 322.64 363.53 Q 323.7 363.53 324.63 362.14 L 324.63 358.02 L 325.79 358.02 L 325.79 364.38 M 324.63 364.38 M 328.65 366.69 L 328.65 358.02 L 329.81 358.02 L 329.81 359.21 Q 330.52 357.88 331.94 357.88 Q 333.08 357.88 333.74 358.71 Q 334.4 359.55 334.4 361 Q 334.4 362.59 333.66 363.56 Q 332.91 364.53 331.69 364.53 Q 330.56 364.53 329.81 363.66 L 329.81 366.69 M 328.65 366.69 M 329.81 362.86 Q 330.7 363.66 331.51 363.66 Q 333.17 363.66 333.17 361.12 Q 333.17 358.88 331.7 358.88 Q 330.73 358.88 329.81 359.93 M 329.81 362.86 M 341.32 364.17 Q 340.16 364.53 339.33 364.53 Q 337.93 364.53 337.04 363.59 Q 336.15 362.66 336.15 361.17 Q 336.15 359.72 336.93 358.79 Q 337.71 357.87 338.93 357.87 Q 340.09 357.87 340.72 358.69 Q 341.35 359.51 341.35 361.02 L 341.34 361.38 L 337.33 361.38 Q 337.58 363.65 339.55 363.65 Q 340.27 363.65 341.32 363.26 M 341.32 364.17 M 337.38 360.51 L 340.19 360.51 Q 340.19 358.74 338.86 358.74 Q 337.53 358.74 337.38 360.51 M 337.38 360.51 M 343.65 364.38 L 343.65 355.13 L 344.81 355.13 L 344.81 364.38 M 343.65 364.38"/></g><line x1="64" y1="23" x2="64" y2="328" style="stroke-width: 1.0;stroke: rgb(128,128,128);stroke-opacity: 1.0;" transform="matrix(1,0,0,1,0,0)" clip-path="url(#94008622798388clip-0)"/><g style="fill: rgb(0,0,0); fill-opacity: 1.0; stroke: none" transform="matrix(1,0,0,1,0,0)" clip-path="url(#94008622798388clip-0)"><path d="M 34.13 331.96 Q 33.02 331.96 32.33 330.91 Q 31.63 329.86 31.63 328.16 Q 31.63 326.45 32.33 325.41 Q 33.03 324.37 34.16 324.37 Q 35.3 324.37 36 325.41 Q 36.69 326.45 36.69 328.15 Q 36.69 329.88 36 330.92 Q 35.3 331.96 34.13 331.96 M 34.13 331.96 M 34.14 331.24 Q 35.67 331.24 35.67 328.13 Q 35.67 325.09 34.16 325.09 Q 32.66 325.09 32.66 328.16 Q 32.66 331.24 34.14 331.24 M 34.14 331.24 M 37.98 331.78 L 37.98 330.57 L 39.18 330.57 L 39.18 331.78 M 37.98 331.78 M 43.13 331.96 Q 42.02 331.96 41.33 330.91 Q 40.63 329.86 40.63 328.16 Q 40.63 326.45 41.33 325.41 Q 42.03 324.37 43.16 324.37 Q 44.3 324.37 45 325.41 Q 45.69 326.45 45.69 328.15 Q 45.69 329.88 45 330.92 Q 44.3 331.96 43.13 331.96 M 43.13 331.96 M 43.14 331.24 Q 44.67 331.24 44.67 328.13 Q 44.67 325.09 43.16 325.09 Q 41.66 325.09 41.66 328.16 Q 41.66 331.24 43.14 331.24 M 43.14 331.24 M 49.13 331.96 Q 48.02 331.96 47.33 330.91 Q 46.63 329.86 46.63 328.16 Q 46.63 326.45 47.33 325.41 Q 48.03 324.37 49.16 324.37 Q 50.3 324.37 51 325.41 Q 51.69 326.45 51.69 328.15 Q 51.69 329.88 51 330.92 Q 50.3 331.96 49.13 331.96 M 49.13 331.96 M 49.14 331.24 Q 50.67 331.24 50.67 328.13 Q 50.67 325.09 49.16 325.09 Q 47.66 325.09 47.66 328.16 Q 47.66 331.24 49.14 331.24 M 49.14 331.24 M 55.13 331.96 Q 54.02 331.96 53.33 330.91 Q 52.63 329.86 52.63 328.16 Q 52.63 326.45 53.33 325.41 Q 54.03 324.37 55.16 324.37 Q 56.3 324.37 57 325.41 Q 57.69 326.45 57.69 328.15 Q 57.69 329.88 57 330.92 Q 56.3 331.96 55.13 331.96 M 55.13 331.96 M 55.14 331.24 Q 56.67 331.24 56.67 328.13 Q 56.67 325.09 55.16 325.09 Q 53.66 325.09 53.66 328.16 Q 53.66 331.24 55.14 331.24 M 55.14 331.24"/></g><line x1="62" y1="328" x2="64" y2="328" style="stroke-width: 1.0;stroke: rgb(128,128,128);stroke-opacity: 1.0;" transform="matrix(1,0,0,1,0,0)" clip-path="url(#94008622798388clip-0)"/><g style="fill: rgb(0,0,0); fill-opacity: 1.0; stroke: none" transform="matrix(1,0,0,1,0,0)" clip-path="url(#94008622798388clip-0)"><path d="M 34.13 308.03 Q 33.02 308.03 32.33 306.97 Q 31.63 305.92 31.63 304.23 Q 31.63 302.52 32.33 301.48 Q 33.03 300.44 34.16 300.44 Q 35.3 300.44 36 301.48 Q 36.69 302.52 36.69 304.21 Q 36.69 305.95 36 306.99 Q 35.3 308.03 34.13 308.03 M 34.13 308.03 M 34.14 307.3 Q 35.67 307.3 35.67 304.2 Q 35.67 301.16 34.16 301.16 Q 32.66 301.16 32.66 304.23 Q 32.66 307.3 34.14 307.3 M 34.14 307.3 M 37.98 307.85 L 37.98 306.64 L 39.18 306.64 L 39.18 307.85 M 37.98 307.85 M 43.13 308.03 Q 42.02 308.03 41.33 306.97 Q 40.63 305.92 40.63 304.23 Q 40.63 302.52 41.33 301.48 Q 42.03 300.44 43.16 300.44 Q 44.3 300.44 45 301.48 Q 45.69 302.52 45.69 304.21 Q 45.69 305.95 45 306.99 Q 44.3 308.03 43.13 308.03 M 43.13 308.03 M 43.14 307.3 Q 44.67 307.3 44.67 304.2 Q 44.67 301.16 43.16 301.16 Q 41.66 301.16 41.66 304.23 Q 41.66 307.3 43.14 307.3 M 43.14 307.3 M 46.83 307.85 L 46.83 307 Q 47.25 306.02 48.53 304.86 L 49.08 304.37 Q 50.15 303.41 50.15 302.46 Q 50.15 301.86 49.78 301.51 Q 49.42 301.16 48.78 301.16 Q 48.03 301.16 47.01 301.74 L 47.01 300.89 Q 47.97 300.44 48.92 300.44 Q 49.94 300.44 50.55 300.99 Q 51.17 301.53 51.17 302.44 Q 51.17 303.09 50.86 303.59 Q 50.55 304.09 49.7 304.81 L 49.33 305.13 Q 48.17 306.11 47.99 307 L 51.13 307 L 51.13 307.85 M 46.83 307.85 M 53.22 307.88 L 53.22 307.02 Q 53.93 307.3 54.58 307.3 Q 55.3 307.3 55.7 306.88 Q 56.11 306.46 56.11 305.73 Q 56.11 304.1 53.87 304.1 Q 53.62 304.1 53.34 304.14 L 53.34 300.62 L 57 300.62 L 57 301.46 L 54.18 301.46 L 54.18 303.36 Q 55.57 303.36 56.36 304 Q 57.14 304.64 57.14 305.78 Q 57.14 306.83 56.43 307.43 Q 55.72 308.03 54.46 308.03 Q 53.91 308.03 53.22 307.88 M 53.22 307.88"/></g><line x1="62" y1="304.07" x2="64" y2="304.07" style="stroke-width: 1.0;stroke: rgb(128,128,128);stroke-opacity: 1.0;" transform="matrix(1,0,0,1,0,0)" clip-path="url(#94008622798388clip-0)"/><g style="fill: rgb(0,0,0); fill-opacity: 1.0; stroke: none" transform="matrix(1,0,0,1,0,0)" clip-path="url(#94008622798388clip-0)"><path d="M 34.13 284.09 Q 33.02 284.09 32.33 283.04 Q 31.63 281.99 31.63 280.3 Q 31.63 278.59 32.33 277.55 Q 33.03 276.51 34.16 276.51 Q 35.3 276.51 36 277.55 Q 36.69 278.59 36.69 280.28 Q 36.69 282.02 36 283.06 Q 35.3 284.09 34.13 284.09 M 34.13 284.09 M 34.14 283.37 Q 35.67 283.37 35.67 280.27 Q 35.67 277.23 34.16 277.23 Q 32.66 277.23 32.66 280.3 Q 32.66 283.37 34.14 283.37 M 34.14 283.37 M 37.98 283.91 L 37.98 282.71 L 39.18 282.71 L 39.18 283.91 M 37.98 283.91 M 43.13 284.09 Q 42.02 284.09 41.33 283.04 Q 40.63 281.99 40.63 280.3 Q 40.63 278.59 41.33 277.55 Q 42.03 276.51 43.16 276.51 Q 44.3 276.51 45 277.55 Q 45.69 278.59 45.69 280.28 Q 45.69 282.02 45 283.06 Q 44.3 284.09 43.13 284.09 M 43.13 284.09 M 43.14 283.37 Q 44.67 283.37 44.67 280.27 Q 44.67 277.23 43.16 277.23 Q 41.66 277.23 41.66 280.3 Q 41.66 283.37 43.14 283.37 M 43.14 283.37 M 47.22 283.94 L 47.22 283.08 Q 47.93 283.37 48.58 283.37 Q 49.3 283.37 49.7 282.95 Q 50.11 282.53 50.11 281.79 Q 50.11 280.17 47.87 280.17 Q 47.62 280.17 47.34 280.2 L 47.34 276.69 L 51 276.69 L 51 277.53 L 48.18 277.53 L 48.18 279.43 Q 49.57 279.43 50.36 280.07 Q 51.14 280.71 51.14 281.84 Q 51.14 282.9 50.43 283.5 Q 49.72 284.09 48.46 284.09 Q 47.91 284.09 47.22 283.94 M 47.22 283.94 M 55.13 284.09 Q 54.02 284.09 53.33 283.04 Q 52.63 281.99 52.63 280.3 Q 52.63 278.59 53.33 277.55 Q 54.03 276.51 55.16 276.51 Q 56.3 276.51 57 277.55 Q 57.69 278.59 57.69 280.28 Q 57.69 282.02 57 283.06 Q 56.3 284.09 55.13 284.09 M 55.13 284.09 M 55.14 283.37 Q 56.67 283.37 56.67 280.27 Q 56.67 277.23 55.16 277.23 Q 53.66 277.23 53.66 280.3 Q 53.66 283.37 55.14 283.37 M 55.14 283.37"/></g><line x1="62" y1="280.13" x2="64" y2="280.13" style="stroke-width: 1.0;stroke: rgb(128,128,128);stroke-opacity: 1.0;" transform="matrix(1,0,0,1,0,0)" clip-path="url(#94008622798388clip-0)"/><g style="fill: rgb(0,0,0); fill-opacity: 1.0; stroke: none" transform="matrix(1,0,0,1,0,0)" clip-path="url(#94008622798388clip-0)"><path d="M 34.13 260.16 Q 33.02 260.16 32.33 259.11 Q 31.63 258.06 31.63 256.36 Q 31.63 254.65 32.33 253.61 Q 33.03 252.57 34.16 252.57 Q 35.3 252.57 36 253.61 Q 36.69 254.65 36.69 256.35 Q 36.69 258.09 36 259.12 Q 35.3 260.16 34.13 260.16 M 34.13 260.16 M 34.14 259.44 Q 35.67 259.44 35.67 256.33 Q 35.67 253.3 34.16 253.3 Q 32.66 253.3 32.66 256.36 Q 32.66 259.44 34.14 259.44 M 34.14 259.44 M 37.98 259.98 L 37.98 258.77 L 39.18 258.77 L 39.18 259.98 M 37.98 259.98 M 43.13 260.16 Q 42.02 260.16 41.33 259.11 Q 40.63 258.06 40.63 256.36 Q 40.63 254.65 41.33 253.61 Q 42.03 252.57 43.16 252.57 Q 44.3 252.57 45 253.61 Q 45.69 254.65 45.69 256.35 Q 45.69 258.09 45 259.12 Q 44.3 260.16 43.13 260.16 M 43.13 260.16 M 43.14 259.44 Q 44.67 259.44 44.67 256.33 Q 44.67 253.3 43.16 253.3 Q 41.66 253.3 41.66 256.36 Q 41.66 259.44 43.14 259.44 M 43.14 259.44 M 47.5 259.98 Q 47.65 259.14 47.91 258.52 Q 48.17 257.91 48.83 256.83 L 50.8 253.66 L 47.08 253.66 L 47.08 252.75 L 51.72 252.75 L 51.72 253.66 Q 48.94 257.75 48.61 259.98 M 47.5 259.98 M 53.22 260.01 L 53.22 259.15 Q 53.93 259.44 54.58 259.44 Q 55.3 259.44 55.7 259.02 Q 56.11 258.6 56.11 257.86 Q 56.11 256.24 53.87 256.24 Q 53.62 256.24 53.34 256.27 L 53.34 252.75 L 57 252.75 L 57 253.59 L 54.18 253.59 L 54.18 255.5 Q 55.57 255.5 56.36 256.14 Q 57.14 256.78 57.14 257.91 Q 57.14 258.97 56.43 259.56 Q 55.72 260.16 54.46 260.16 Q 53.91 260.16 53.22 260.01 M 53.22 260.01"/></g><line x1="62" y1="256.2" x2="64" y2="256.2" style="stroke-width: 1.0;stroke: rgb(128,128,128);stroke-opacity: 1.0;" transform="matrix(1,0,0,1,0,0)" clip-path="url(#94008622798388clip-0)"/><g style="fill: rgb(0,0,0); fill-opacity: 1.0; stroke: none" transform="matrix(1,0,0,1,0,0)" clip-path="url(#94008622798388clip-0)"><path d="M 34.13 236.23 Q 33.02 236.23 32.33 235.18 Q 31.63 234.12 31.63 232.43 Q 31.63 230.72 32.33 229.68 Q 33.03 228.64 34.16 228.64 Q 35.3 228.64 36 229.68 Q 36.69 230.72 36.69 232.42 Q 36.69 234.15 36 235.19 Q 35.3 236.23 34.13 236.23 M 34.13 236.23 M 34.14 235.51 Q 35.67 235.51 35.67 232.4 Q 35.67 229.36 34.16 229.36 Q 32.66 229.36 32.66 232.43 Q 32.66 235.51 34.14 235.51 M 34.14 235.51 M 37.98 236.05 L 37.98 234.84 L 39.18 234.84 L 39.18 236.05 M 37.98 236.05 M 41.5 236.05 L 41.5 235.33 L 42.95 235.33 L 42.95 229.62 L 41.5 229.98 L 41.5 229.24 L 43.92 228.64 L 43.92 235.33 L 45.36 235.33 L 45.36 236.05 M 41.5 236.05 M 49.13 236.23 Q 48.02 236.23 47.33 235.18 Q 46.63 234.12 46.63 232.43 Q 46.63 230.72 47.33 229.68 Q 48.03 228.64 49.16 228.64 Q 50.3 228.64 51 229.68 Q 51.69 230.72 51.69 232.42 Q 51.69 234.15 51 235.19 Q 50.3 236.23 49.13 236.23 M 49.13 236.23 M 49.14 235.51 Q 50.67 235.51 50.67 232.4 Q 50.67 229.36 49.16 229.36 Q 47.66 229.36 47.66 232.43 Q 47.66 235.51 49.14 235.51 M 49.14 235.51 M 55.13 236.23 Q 54.02 236.23 53.33 235.18 Q 52.63 234.12 52.63 232.43 Q 52.63 230.72 53.33 229.68 Q 54.03 228.64 55.16 228.64 Q 56.3 228.64 57 229.68 Q 57.69 230.72 57.69 232.42 Q 57.69 234.15 57 235.19 Q 56.3 236.23 55.13 236.23 M 55.13 236.23 M 55.14 235.51 Q 56.67 235.51 56.67 232.4 Q 56.67 229.36 55.16 229.36 Q 53.66 229.36 53.66 232.43 Q 53.66 235.51 55.14 235.51 M 55.14 235.51"/></g><line x1="62" y1="232.27" x2="64" y2="232.27" style="stroke-width: 1.0;stroke: rgb(128,128,128);stroke-opacity: 1.0;" transform="matrix(1,0,0,1,0,0)" clip-path="url(#94008622798388clip-0)"/><g style="fill: rgb(0,0,0); fill-opacity: 1.0; stroke: none" transform="matrix(1,0,0,1,0,0)" clip-path="url(#94008622798388clip-0)"><path d="M 34.13 212.3 Q 33.02 212.3 32.33 211.24 Q 31.63 210.19 31.63 208.5 Q 31.63 206.79 32.33 205.75 Q 33.03 204.71 34.16 204.71 Q 35.3 204.71 36 205.75 Q 36.69 206.79 36.69 208.48 Q 36.69 210.22 36 211.26 Q 35.3 212.3 34.13 212.3 M 34.13 212.3 M 34.14 211.57 Q 35.67 211.57 35.67 208.47 Q 35.67 205.43 34.16 205.43 Q 32.66 205.43 32.66 208.5 Q 32.66 211.57 34.14 211.57 M 34.14 211.57 M 37.98 212.12 L 37.98 210.91 L 39.18 210.91 L 39.18 212.12 M 37.98 212.12 M 41.5 212.12 L 41.5 211.39 L 42.95 211.39 L 42.95 205.69 L 41.5 206.05 L 41.5 205.31 L 43.92 204.71 L 43.92 211.39 L 45.36 211.39 L 45.36 212.12 M 41.5 212.12 M 46.83 212.12 L 46.83 211.27 Q 47.25 210.29 48.53 209.13 L 49.08 208.64 Q 50.15 207.68 50.15 206.73 Q 50.15 206.12 49.78 205.78 Q 49.42 205.43 48.78 205.43 Q 48.03 205.43 47.01 206.01 L 47.01 205.16 Q 47.97 204.71 48.92 204.71 Q 49.94 204.71 50.55 205.26 Q 51.17 205.8 51.17 206.71 Q 51.17 207.35 50.86 207.86 Q 50.55 208.36 49.7 209.08 L 49.33 209.4 Q 48.17 210.38 47.99 211.27 L 51.13 211.27 L 51.13 212.12 M 46.83 212.12 M 53.22 212.14 L 53.22 211.29 Q 53.93 211.57 54.58 211.57 Q 55.3 211.57 55.7 211.15 Q 56.11 210.73 56.11 210 Q 56.11 208.37 53.87 208.37 Q 53.62 208.37 53.34 208.4 L 53.34 204.89 L 57 204.89 L 57 205.73 L 54.18 205.73 L 54.18 207.63 Q 55.57 207.63 56.36 208.27 Q 57.14 208.91 57.14 210.05 Q 57.14 211.1 56.43 211.7 Q 55.72 212.3 54.46 212.3 Q 53.91 212.3 53.22 212.14 M 53.22 212.14"/></g><line x1="62" y1="208.34" x2="64" y2="208.34" style="stroke-width: 1.0;stroke: rgb(128,128,128);stroke-opacity: 1.0;" transform="matrix(1,0,0,1,0,0)" clip-path="url(#94008622798388clip-0)"/><g style="fill: rgb(0,0,0); fill-opacity: 1.0; stroke: none" transform="matrix(1,0,0,1,0,0)" clip-path="url(#94008622798388clip-0)"><path d="M 34.13 188.36 Q 33.02 188.36 32.33 187.31 Q 31.63 186.26 31.63 184.56 Q 31.63 182.86 32.33 181.82 Q 33.03 180.78 34.16 180.78 Q 35.3 180.78 36 181.82 Q 36.69 182.86 36.69 184.55 Q 36.69 186.29 36 187.33 Q 35.3 188.36 34.13 188.36 M 34.13 188.36 M 34.14 187.64 Q 35.67 187.64 35.67 184.54 Q 35.67 181.5 34.16 181.5 Q 32.66 181.5 32.66 184.56 Q 32.66 187.64 34.14 187.64 M 34.14 187.64 M 37.98 188.18 L 37.98 186.98 L 39.18 186.98 L 39.18 188.18 M 37.98 188.18 M 41.5 188.18 L 41.5 187.46 L 42.95 187.46 L 42.95 181.76 L 41.5 182.12 L 41.5 181.38 L 43.92 180.78 L 43.92 187.46 L 45.36 187.46 L 45.36 188.18 M 41.5 188.18 M 47.22 188.21 L 47.22 187.35 Q 47.93 187.64 48.58 187.64 Q 49.3 187.64 49.7 187.22 Q 50.11 186.8 50.11 186.06 Q 50.11 184.44 47.87 184.44 Q 47.62 184.44 47.34 184.47 L 47.34 180.96 L 51 180.96 L 51 181.8 L 48.18 181.8 L 48.18 183.7 Q 49.57 183.7 50.36 184.34 Q 51.14 184.98 51.14 186.11 Q 51.14 187.17 50.43 187.77 Q 49.72 188.36 48.46 188.36 Q 47.91 188.36 47.22 188.21 M 47.22 188.21 M 55.13 188.36 Q 54.02 188.36 53.33 187.31 Q 52.63 186.26 52.63 184.56 Q 52.63 182.86 53.33 181.82 Q 54.03 180.78 55.16 180.78 Q 56.3 180.78 57 181.82 Q 57.69 182.86 57.69 184.55 Q 57.69 186.29 57 187.33 Q 56.3 188.36 55.13 188.36 M 55.13 188.36 M 55.14 187.64 Q 56.67 187.64 56.67 184.54 Q 56.67 181.5 55.16 181.5 Q 53.66 181.5 53.66 184.56 Q 53.66 187.64 55.14 187.64 M 55.14 187.64"/></g><line x1="62" y1="184.4" x2="64" y2="184.4" style="stroke-width: 1.0;stroke: rgb(128,128,128);stroke-opacity: 1.0;" transform="matrix(1,0,0,1,0,0)" clip-path="url(#94008622798388clip-0)"/><g style="fill: rgb(0,0,0); fill-opacity: 1.0; stroke: none" transform="matrix(1,0,0,1,0,0)" clip-path="url(#94008622798388clip-0)"><path d="M 34.13 164.43 Q 33.02 164.43 32.33 163.38 Q 31.63 162.33 31.63 160.63 Q 31.63 158.92 32.33 157.88 Q 33.03 156.84 34.16 156.84 Q 35.3 156.84 36 157.88 Q 36.69 158.92 36.69 160.62 Q 36.69 162.36 36 163.39 Q 35.3 164.43 34.13 164.43 M 34.13 164.43 M 34.14 163.71 Q 35.67 163.71 35.67 160.6 Q 35.67 157.57 34.16 157.57 Q 32.66 157.57 32.66 160.63 Q 32.66 163.71 34.14 163.71 M 34.14 163.71 M 37.98 164.25 L 37.98 163.04 L 39.18 163.04 L 39.18 164.25 M 37.98 164.25 M 41.5 164.25 L 41.5 163.53 L 42.95 163.53 L 42.95 157.82 L 41.5 158.19 L 41.5 157.44 L 43.92 156.84 L 43.92 163.53 L 45.36 163.53 L 45.36 164.25 M 41.5 164.25 M 47.5 164.25 Q 47.65 163.41 47.91 162.79 Q 48.17 162.17 48.83 161.1 L 50.8 157.93 L 47.08 157.93 L 47.08 157.02 L 51.72 157.02 L 51.72 157.93 Q 48.94 162.02 48.61 164.25 M 47.5 164.25 M 53.22 164.28 L 53.22 163.42 Q 53.93 163.71 54.58 163.71 Q 55.3 163.71 55.7 163.29 Q 56.11 162.87 56.11 162.13 Q 56.11 160.5 53.87 160.5 Q 53.62 160.5 53.34 160.54 L 53.34 157.02 L 57 157.02 L 57 157.86 L 54.18 157.86 L 54.18 159.77 Q 55.57 159.77 56.36 160.41 Q 57.14 161.05 57.14 162.18 Q 57.14 163.23 56.43 163.83 Q 55.72 164.43 54.46 164.43 Q 53.91 164.43 53.22 164.28 M 53.22 164.28"/></g><line x1="62" y1="160.47" x2="64" y2="160.47" style="stroke-width: 1.0;stroke: rgb(128,128,128);stroke-opacity: 1.0;" transform="matrix(1,0,0,1,0,0)" clip-path="url(#94008622798388clip-0)"/><g style="fill: rgb(0,0,0); fill-opacity: 1.0; stroke: none" transform="matrix(1,0,0,1,0,0)" clip-path="url(#94008622798388clip-0)"><path d="M 34.13 140.5 Q 33.02 140.5 32.33 139.45 Q 31.63 138.39 31.63 136.7 Q 31.63 134.99 32.33 133.95 Q 33.03 132.91 34.16 132.91 Q 35.3 132.91 36 133.95 Q 36.69 134.99 36.69 136.68 Q 36.69 138.42 36 139.46 Q 35.3 140.5 34.13 140.5 M 34.13 140.5 M 34.14 139.78 Q 35.67 139.78 35.67 136.67 Q 35.67 133.63 34.16 133.63 Q 32.66 133.63 32.66 136.7 Q 32.66 139.78 34.14 139.78 M 34.14 139.78 M 37.98 140.32 L 37.98 139.11 L 39.18 139.11 L 39.18 140.32 M 37.98 140.32 M 40.83 140.32 L 40.83 139.47 Q 41.25 138.49 42.53 137.33 L 43.08 136.84 Q 44.15 135.88 44.15 134.93 Q 44.15 134.33 43.78 133.98 Q 43.42 133.63 42.78 133.63 Q 42.03 133.63 41.01 134.21 L 41.01 133.36 Q 41.97 132.91 42.92 132.91 Q 43.94 132.91 44.55 133.46 Q 45.17 134 45.17 134.91 Q 45.17 135.56 44.86 136.06 Q 44.55 136.56 43.7 137.28 L 43.33 137.6 Q 42.17 138.58 41.99 139.47 L 45.13 139.47 L 45.13 140.32 M 40.83 140.32 M 49.13 140.5 Q 48.02 140.5 47.33 139.45 Q 46.63 138.39 46.63 136.7 Q 46.63 134.99 47.33 133.95 Q 48.03 132.91 49.16 132.91 Q 50.3 132.91 51 133.95 Q 51.69 134.99 51.69 136.68 Q 51.69 138.42 51 139.46 Q 50.3 140.5 49.13 140.5 M 49.13 140.5 M 49.14 139.78 Q 50.67 139.78 50.67 136.67 Q 50.67 133.63 49.16 133.63 Q 47.66 133.63 47.66 136.7 Q 47.66 139.78 49.14 139.78 M 49.14 139.78 M 55.13 140.5 Q 54.02 140.5 53.33 139.45 Q 52.63 138.39 52.63 136.7 Q 52.63 134.99 53.33 133.95 Q 54.03 132.91 55.16 132.91 Q 56.3 132.91 57 133.95 Q 57.69 134.99 57.69 136.68 Q 57.69 138.42 57 139.46 Q 56.3 140.5 55.13 140.5 M 55.13 140.5 M 55.14 139.78 Q 56.67 139.78 56.67 136.67 Q 56.67 133.63 55.16 133.63 Q 53.66 133.63 53.66 136.7 Q 53.66 139.78 55.14 139.78 M 55.14 139.78"/></g><line x1="62" y1="136.54" x2="64" y2="136.54" style="stroke-width: 1.0;stroke: rgb(128,128,128);stroke-opacity: 1.0;" transform="matrix(1,0,0,1,0,0)" clip-path="url(#94008622798388clip-0)"/><g style="fill: rgb(0,0,0); fill-opacity: 1.0; stroke: none" transform="matrix(1,0,0,1,0,0)" clip-path="url(#94008622798388clip-0)"><path d="M 34.13 116.56 Q 33.02 116.56 32.33 115.51 Q 31.63 114.46 31.63 112.77 Q 31.63 111.06 32.33 110.02 Q 33.03 108.98 34.16 108.98 Q 35.3 108.98 36 110.02 Q 36.69 111.06 36.69 112.75 Q 36.69 114.49 36 115.53 Q 35.3 116.56 34.13 116.56 M 34.13 116.56 M 34.14 115.84 Q 35.67 115.84 35.67 112.74 Q 35.67 109.7 34.16 109.7 Q 32.66 109.7 32.66 112.77 Q 32.66 115.84 34.14 115.84 M 34.14 115.84 M 37.98 116.38 L 37.98 115.18 L 39.18 115.18 L 39.18 116.38 M 37.98 116.38 M 40.83 116.38 L 40.83 115.54 Q 41.25 114.56 42.53 113.4 L 43.08 112.91 Q 44.15 111.95 44.15 111 Q 44.15 110.39 43.78 110.05 Q 43.42 109.7 42.78 109.7 Q 42.03 109.7 41.01 110.28 L 41.01 109.43 Q 41.97 108.98 42.92 108.98 Q 43.94 108.98 44.55 109.52 Q 45.17 110.07 45.17 110.97 Q 45.17 111.62 44.86 112.13 Q 44.55 112.63 43.7 113.35 L 43.33 113.66 Q 42.17 114.65 41.99 115.54 L 45.13 115.54 L 45.13 116.38 M 40.83 116.38 M 46.83 116.38 L 46.83 115.54 Q 47.25 114.56 48.53 113.4 L 49.08 112.91 Q 50.15 111.95 50.15 111 Q 50.15 110.39 49.78 110.05 Q 49.42 109.7 48.78 109.7 Q 48.03 109.7 47.01 110.28 L 47.01 109.43 Q 47.97 108.98 48.92 108.98 Q 49.94 108.98 50.55 109.52 Q 51.17 110.07 51.17 110.97 Q 51.17 111.62 50.86 112.13 Q 50.55 112.63 49.7 113.35 L 49.33 113.66 Q 48.17 114.65 47.99 115.54 L 51.13 115.54 L 51.13 116.38 M 46.83 116.38 M 53.22 116.41 L 53.22 115.55 Q 53.93 115.84 54.58 115.84 Q 55.3 115.84 55.7 115.42 Q 56.11 115 56.11 114.27 Q 56.11 112.64 53.87 112.64 Q 53.62 112.64 53.34 112.67 L 53.34 109.16 L 57 109.16 L 57 110 L 54.18 110 L 54.18 111.9 Q 55.57 111.9 56.36 112.54 Q 57.14 113.18 57.14 114.31 Q 57.14 115.37 56.43 115.97 Q 55.72 116.56 54.46 116.56 Q 53.91 116.56 53.22 116.41 M 53.22 116.41"/></g><line x1="62" y1="112.6" x2="64" y2="112.6" style="stroke-width: 1.0;stroke: rgb(128,128,128);stroke-opacity: 1.0;" transform="matrix(1,0,0,1,0,0)" clip-path="url(#94008622798388clip-0)"/><g style="fill: rgb(0,0,0); fill-opacity: 1.0; stroke: none" transform="matrix(1,0,0,1,0,0)" clip-path="url(#94008622798388clip-0)"><path d="M 34.13 92.63 Q 33.02 92.63 32.33 91.58 Q 31.63 90.53 31.63 88.83 Q 31.63 87.12 32.33 86.08 Q 33.03 85.04 34.16 85.04 Q 35.3 85.04 36 86.08 Q 36.69 87.12 36.69 88.82 Q 36.69 90.56 36 91.59 Q 35.3 92.63 34.13 92.63 M 34.13 92.63 M 34.14 91.91 Q 35.67 91.91 35.67 88.8 Q 35.67 85.77 34.16 85.77 Q 32.66 85.77 32.66 88.83 Q 32.66 91.91 34.14 91.91 M 34.14 91.91 M 37.98 92.45 L 37.98 91.25 L 39.18 91.25 L 39.18 92.45 M 37.98 92.45 M 40.83 92.45 L 40.83 91.61 Q 41.25 90.63 42.53 89.47 L 43.08 88.97 Q 44.15 88.01 44.15 87.07 Q 44.15 86.46 43.78 86.11 Q 43.42 85.77 42.78 85.77 Q 42.03 85.77 41.01 86.35 L 41.01 85.5 Q 41.97 85.04 42.92 85.04 Q 43.94 85.04 44.55 85.59 Q 45.17 86.14 45.17 87.04 Q 45.17 87.69 44.86 88.19 Q 44.55 88.7 43.7 89.41 L 43.33 89.73 Q 42.17 90.71 41.99 91.61 L 45.13 91.61 L 45.13 92.45 M 40.83 92.45 M 47.22 92.48 L 47.22 91.62 Q 47.93 91.91 48.58 91.91 Q 49.3 91.91 49.7 91.49 Q 50.11 91.07 50.11 90.33 Q 50.11 88.71 47.87 88.71 Q 47.62 88.71 47.34 88.74 L 47.34 85.22 L 51 85.22 L 51 86.06 L 48.18 86.06 L 48.18 87.97 Q 49.57 87.97 50.36 88.61 Q 51.14 89.25 51.14 90.38 Q 51.14 91.44 50.43 92.03 Q 49.72 92.63 48.46 92.63 Q 47.91 92.63 47.22 92.48 M 47.22 92.48 M 55.13 92.63 Q 54.02 92.63 53.33 91.58 Q 52.63 90.53 52.63 88.83 Q 52.63 87.12 53.33 86.08 Q 54.03 85.04 55.16 85.04 Q 56.3 85.04 57 86.08 Q 57.69 87.12 57.69 88.82 Q 57.69 90.56 57 91.59 Q 56.3 92.63 55.13 92.63 M 55.13 92.63 M 55.14 91.91 Q 56.67 91.91 56.67 88.8 Q 56.67 85.77 55.16 85.77 Q 53.66 85.77 53.66 88.83 Q 53.66 91.91 55.14 91.91 M 55.14 91.91"/></g><line x1="62" y1="88.67" x2="64" y2="88.67" style="stroke-width: 1.0;stroke: rgb(128,128,128);stroke-opacity: 1.0;" transform="matrix(1,0,0,1,0,0)" clip-path="url(#94008622798388clip-0)"/><g style="fill: rgb(0,0,0); fill-opacity: 1.0; stroke: none" transform="matrix(1,0,0,1,0,0)" clip-path="url(#94008622798388clip-0)"><path d="M 34.13 68.7 Q 33.02 68.7 32.33 67.65 Q 31.63 66.59 31.63 64.9 Q 31.63 63.19 32.33 62.15 Q 33.03 61.11 34.16 61.11 Q 35.3 61.11 36 62.15 Q 36.69 63.19 36.69 64.89 Q 36.69 66.62 36 67.66 Q 35.3 68.7 34.13 68.7 M 34.13 68.7 M 34.14 67.98 Q 35.67 67.98 35.67 64.87 Q 35.67 61.83 34.16 61.83 Q 32.66 61.83 32.66 64.9 Q 32.66 67.98 34.14 67.98 M 34.14 67.98 M 37.98 68.52 L 37.98 67.31 L 39.18 67.31 L 39.18 68.52 M 37.98 68.52 M 40.83 68.52 L 40.83 67.67 Q 41.25 66.69 42.53 65.54 L 43.08 65.04 Q 44.15 64.08 44.15 63.13 Q 44.15 62.53 43.78 62.18 Q 43.42 61.83 42.78 61.83 Q 42.03 61.83 41.01 62.42 L 41.01 61.57 Q 41.97 61.11 42.92 61.11 Q 43.94 61.11 44.55 61.66 Q 45.17 62.21 45.17 63.11 Q 45.17 63.76 44.86 64.26 Q 44.55 64.76 43.7 65.48 L 43.33 65.8 Q 42.17 66.78 41.99 67.67 L 45.13 67.67 L 45.13 68.52 M 40.83 68.52 M 47.5 68.52 Q 47.65 67.67 47.91 67.06 Q 48.17 66.44 48.83 65.37 L 50.8 62.2 L 47.08 62.2 L 47.08 61.29 L 51.72 61.29 L 51.72 62.2 Q 48.94 66.29 48.61 68.52 M 47.5 68.52 M 53.22 68.55 L 53.22 67.69 Q 53.93 67.98 54.58 67.98 Q 55.3 67.98 55.7 67.56 Q 56.11 67.14 56.11 66.4 Q 56.11 64.77 53.87 64.77 Q 53.62 64.77 53.34 64.81 L 53.34 61.29 L 57 61.29 L 57 62.13 L 54.18 62.13 L 54.18 64.04 Q 55.57 64.04 56.36 64.68 Q 57.14 65.32 57.14 66.45 Q 57.14 67.5 56.43 68.1 Q 55.72 68.7 54.46 68.7 Q 53.91 68.7 53.22 68.55 M 53.22 68.55"/></g><line x1="62" y1="64.74" x2="64" y2="64.74" style="stroke-width: 1.0;stroke: rgb(128,128,128);stroke-opacity: 1.0;" transform="matrix(1,0,0,1,0,0)" clip-path="url(#94008622798388clip-0)"/><g style="fill: rgb(0,0,0); fill-opacity: 1.0; stroke: none" transform="matrix(1,0,0,1,0,0)" clip-path="url(#94008622798388clip-0)"><path d="M 34.13 44.77 Q 33.02 44.77 32.33 43.71 Q 31.63 42.66 31.63 40.97 Q 31.63 39.26 32.33 38.22 Q 33.03 37.18 34.16 37.18 Q 35.3 37.18 36 38.22 Q 36.69 39.26 36.69 40.95 Q 36.69 42.69 36 43.73 Q 35.3 44.77 34.13 44.77 M 34.13 44.77 M 34.14 44.04 Q 35.67 44.04 35.67 40.94 Q 35.67 37.9 34.16 37.9 Q 32.66 37.9 32.66 40.97 Q 32.66 44.04 34.14 44.04 M 34.14 44.04 M 37.98 44.59 L 37.98 43.38 L 39.18 43.38 L 39.18 44.59 M 37.98 44.59 M 41.02 44.53 L 41.02 43.63 Q 42.05 44.04 42.65 44.04 Q 43.33 44.04 43.77 43.64 Q 44.2 43.24 44.2 42.6 Q 44.2 41.08 42.07 41.08 L 41.68 41.08 L 41.68 40.43 L 42.02 40.42 Q 44.02 40.42 44.02 39.01 Q 44.02 37.9 42.71 37.9 Q 41.98 37.9 41.11 38.31 L 41.11 37.47 Q 41.97 37.18 42.77 37.18 Q 44.99 37.18 44.99 38.85 Q 44.99 40.13 43.48 40.67 Q 45.23 41.08 45.23 42.58 Q 45.23 43.6 44.56 44.19 Q 43.88 44.77 42.71 44.77 Q 42.04 44.77 41.02 44.53 M 41.02 44.53 M 49.13 44.77 Q 48.02 44.77 47.33 43.71 Q 46.63 42.66 46.63 40.97 Q 46.63 39.26 47.33 38.22 Q 48.03 37.18 49.16 37.18 Q 50.3 37.18 51 38.22 Q 51.69 39.26 51.69 40.95 Q 51.69 42.69 51 43.73 Q 50.3 44.77 49.13 44.77 M 49.13 44.77 M 49.14 44.04 Q 50.67 44.04 50.67 40.94 Q 50.67 37.9 49.16 37.9 Q 47.66 37.9 47.66 40.97 Q 47.66 44.04 49.14 44.04 M 49.14 44.04 M 55.13 44.77 Q 54.02 44.77 53.33 43.71 Q 52.63 42.66 52.63 40.97 Q 52.63 39.26 53.33 38.22 Q 54.03 37.18 55.16 37.18 Q 56.3 37.18 57 38.22 Q 57.69 39.26 57.69 40.95 Q 57.69 42.69 57 43.73 Q 56.3 44.77 55.13 44.77 M 55.13 44.77 M 55.14 44.04 Q 56.67 44.04 56.67 40.94 Q 56.67 37.9 55.16 37.9 Q 53.66 37.9 53.66 40.97 Q 53.66 44.04 55.14 44.04 M 55.14 44.04"/></g><line x1="62" y1="40.81" x2="64" y2="40.81" style="stroke-width: 1.0;stroke: rgb(128,128,128);stroke-opacity: 1.0;" transform="matrix(1,0,0,1,0,0)" clip-path="url(#94008622798388clip-0)"/><g style="fill: rgb(0,0,0); fill-opacity: 1.0; stroke: none" transform="matrix(0,-1,1,0,-156.566406,194.433594)" clip-path="url(#94008622798388clip-1)"><path d="M 6.42 180.04 L 3.14 171.36 L 4.38 171.36 L 7.06 178.46 L 9.65 171.36 L 10.73 171.36 L 7.58 180.04 M 6.42 180.04 M 15.37 179.23 Q 14.33 180.18 13.37 180.18 Q 12.58 180.18 12.06 179.69 Q 11.54 179.19 11.54 178.44 Q 11.54 177.39 12.41 176.83 Q 13.29 176.27 14.92 176.27 L 15.2 176.27 L 15.2 175.51 Q 15.2 174.4 14.06 174.4 Q 13.15 174.4 12.09 174.96 L 12.09 174.01 Q 13.25 173.53 14.27 173.53 Q 15.34 173.53 15.85 174.01 Q 16.35 174.49 16.35 175.51 L 16.35 178.39 Q 16.35 179.38 16.96 179.38 Q 17.04 179.38 17.19 179.36 L 17.27 179.99 Q 16.88 180.18 16.4 180.18 Q 15.59 180.18 15.37 179.23 M 15.37 179.23 M 15.2 178.6 L 15.2 176.95 L 14.81 176.94 Q 13.86 176.94 13.28 177.3 Q 12.69 177.66 12.69 178.25 Q 12.69 178.66 12.98 178.95 Q 13.28 179.24 13.7 179.24 Q 14.42 179.24 15.2 178.6 M 15.2 178.6 M 19.09 180.04 L 19.09 170.78 L 20.24 170.78 L 20.24 180.04 M 19.09 180.04 M 27.07 180.04 L 27.07 178.84 Q 26.15 180.18 24.83 180.18 Q 24 180.18 23.51 179.66 Q 23.02 179.13 23.02 178.24 L 23.02 173.67 L 24.17 173.67 L 24.17 177.87 Q 24.17 178.58 24.38 178.88 Q 24.59 179.19 25.07 179.19 Q 26.13 179.19 27.07 177.8 L 27.07 173.67 L 28.22 173.67 L 28.22 180.04 M 27.07 180.04 M 35.75 179.83 Q 34.59 180.18 33.77 180.18 Q 32.36 180.18 31.47 179.25 Q 30.58 178.31 30.58 176.82 Q 30.58 175.38 31.37 174.45 Q 32.15 173.53 33.37 173.53 Q 34.52 173.53 35.15 174.35 Q 35.78 175.17 35.78 176.68 L 35.78 177.04 L 31.76 177.04 Q 32.01 179.3 33.98 179.3 Q 34.7 179.3 35.75 178.92 M 35.75 179.83 M 31.81 176.17 L 34.62 176.17 Q 34.62 174.39 33.3 174.39 Q 31.97 174.39 31.81 176.17 M 31.81 176.17"/></g><line x1="64" y1="328" x2="592" y2="328" style="stroke-width: 0.5;stroke: rgb(192,192,192);stroke-opacity: 1.0;stroke-dasharray: 2.0, 2.0;" transform="matrix(1,0,0,1,0,0)" clip-path="url(#94008622798388clip-2)"/><line x1="64" y1="304.07" x2="592" y2="304.07" style="stroke-width: 0.5;stroke: rgb(192,192,192);stroke-opacity: 1.0;stroke-dasharray: 2.0, 2.0;" transform="matrix(1,0,0,1,0,0)" clip-path="url(#94008622798388clip-2)"/><line x1="64" y1="280.13" x2="592" y2="280.13" style="stroke-width: 0.5;stroke: rgb(192,192,192);stroke-opacity: 1.0;stroke-dasharray: 2.0, 2.0;" transform="matrix(1,0,0,1,0,0)" clip-path="url(#94008622798388clip-2)"/><line x1="64" y1="256.2" x2="592" y2="256.2" style="stroke-width: 0.5;stroke: rgb(192,192,192);stroke-opacity: 1.0;stroke-dasharray: 2.0, 2.0;" transform="matrix(1,0,0,1,0,0)" clip-path="url(#94008622798388clip-2)"/><line x1="64" y1="232.27" x2="592" y2="232.27" style="stroke-width: 0.5;stroke: rgb(192,192,192);stroke-opacity: 1.0;stroke-dasharray: 2.0, 2.0;" transform="matrix(1,0,0,1,0,0)" clip-path="url(#94008622798388clip-2)"/><line x1="64" y1="208.34" x2="592" y2="208.34" style="stroke-width: 0.5;stroke: rgb(192,192,192);stroke-opacity: 1.0;stroke-dasharray: 2.0, 2.0;" transform="matrix(1,0,0,1,0,0)" clip-path="url(#94008622798388clip-2)"/><line x1="64" y1="184.4" x2="592" y2="184.4" style="stroke-width: 0.5;stroke: rgb(192,192,192);stroke-opacity: 1.0;stroke-dasharray: 2.0, 2.0;" transform="matrix(1,0,0,1,0,0)" clip-path="url(#94008622798388clip-2)"/><line x1="64" y1="160.47" x2="592" y2="160.47" style="stroke-width: 0.5;stroke: rgb(192,192,192);stroke-opacity: 1.0;stroke-dasharray: 2.0, 2.0;" transform="matrix(1,0,0,1,0,0)" clip-path="url(#94008622798388clip-2)"/><line x1="64" y1="136.54" x2="592" y2="136.54" style="stroke-width: 0.5;stroke: rgb(192,192,192);stroke-opacity: 1.0;stroke-dasharray: 2.0, 2.0;" transform="matrix(1,0,0,1,0,0)" clip-path="url(#94008622798388clip-2)"/><line x1="64" y1="112.6" x2="592" y2="112.6" style="stroke-width: 0.5;stroke: rgb(192,192,192);stroke-opacity: 1.0;stroke-dasharray: 2.0, 2.0;" transform="matrix(1,0,0,1,0,0)" clip-path="url(#94008622798388clip-2)"/><line x1="64" y1="88.67" x2="592" y2="88.67" style="stroke-width: 0.5;stroke: rgb(192,192,192);stroke-opacity: 1.0;stroke-dasharray: 2.0, 2.0;" transform="matrix(1,0,0,1,0,0)" clip-path="url(#94008622798388clip-2)"/><line x1="64" y1="64.74" x2="592" y2="64.74" style="stroke-width: 0.5;stroke: rgb(192,192,192);stroke-opacity: 1.0;stroke-dasharray: 2.0, 2.0;" transform="matrix(1,0,0,1,0,0)" clip-path="url(#94008622798388clip-2)"/><line x1="64" y1="40.81" x2="592" y2="40.81" style="stroke-width: 0.5;stroke: rgb(192,192,192);stroke-opacity: 1.0;stroke-dasharray: 2.0, 2.0;" transform="matrix(1,0,0,1,0,0)" clip-path="url(#94008622798388clip-2)"/><line x1="99.64" y1="37.77" x2="99.64" y2="37.77" style="stroke-width: 1.0;stroke: rgb(0,0,0);stroke-opacity: 1.0;" transform="matrix(1,0,0,1,0,0)" clip-path="url(#94008622798388clip-2)"/><line x1="90.4" y1="37.77" x2="108.88" y2="37.77" style="stroke-width: 1.0;stroke: rgb(0,0,0);stroke-opacity: 1.0;" transform="matrix(1,0,0,1,0,0)" clip-path="url(#94008622798388clip-2)"/><line x1="99.64" y1="37.77" x2="99.64" y2="37.77" style="stroke-width: 1.0;stroke: rgb(0,0,0);stroke-opacity: 1.0;" transform="matrix(1,0,0,1,0,0)" clip-path="url(#94008622798388clip-2)"/><line x1="90.4" y1="37.77" x2="108.88" y2="37.77" style="stroke-width: 1.0;stroke: rgb(0,0,0);stroke-opacity: 1.0;" transform="matrix(1,0,0,1,0,0)" clip-path="url(#94008622798388clip-2)"/><rect x="90.4" y="37.77" width="18.48" height="0" style="stroke-width: 1.0;stroke: rgb(0,0,0);stroke-opacity: 1.0;; fill: none" transform="matrix(1,0,0,1,0,0)" clip-path="url(#94008622798388clip-2)"/><line x1="90.4" y1="37.77" x2="108.88" y2="37.77" style="stroke-width: 1.0;stroke: rgb(0,0,0);stroke-opacity: 1.0;" transform="matrix(1,0,0,1,0,0)" clip-path="url(#94008622798388clip-2)"/><rect x="114.44" y="37.76" width="18.48" height="0.02" style="fill: rgb(192,192,192); fill-opacity: 1.0" transform="matrix(1,0,0,1,0,0)" clip-path="url(#94008622798388clip-2)"/><line x1="123.68" y1="37.75" x2="123.68" y2="37.76" style="stroke-width: 1.0;stroke: rgb(0,0,0);stroke-opacity: 1.0;" transform="matrix(1,0,0,1,0,0)" clip-path="url(#94008622798388clip-2)"/><line x1="114.44" y1="37.75" x2="132.92" y2="37.75" style="stroke-width: 1.0;stroke: rgb(0,0,0);stroke-opacity: 1.0;" transform="matrix(1,0,0,1,0,0)" clip-path="url(#94008622798388clip-2)"/><line x1="123.68" y1="37.79" x2="123.68" y2="37.78" style="stroke-width: 1.0;stroke: rgb(0,0,0);stroke-opacity: 1.0;" transform="matrix(1,0,0,1,0,0)" clip-path="url(#94008622798388clip-2)"/><line x1="114.44" y1="37.79" x2="132.92" y2="37.79" style="stroke-width: 1.0;stroke: rgb(0,0,0);stroke-opacity: 1.0;" transform="matrix(1,0,0,1,0,0)" clip-path="url(#94008622798388clip-2)"/><rect x="114.44" y="37.76" width="18.48" height="0.02" style="stroke-width: 1.0;stroke: rgb(0,0,0);stroke-opacity: 1.0;; fill: none" transform="matrix(1,0,0,1,0,0)" clip-path="url(#94008622798388clip-2)"/><line x1="114.44" y1="37.77" x2="132.92" y2="37.77" style="stroke-width: 1.0;stroke: rgb(0,0,0);stroke-opacity: 1.0;" transform="matrix(1,0,0,1,0,0)" clip-path="url(#94008622798388clip-2)"/><rect x="138.48" y="37.75" width="18.48" height="0.04" style="fill: rgb(192,192,192); fill-opacity: 1.0" transform="matrix(1,0,0,1,0,0)" clip-path="url(#94008622798388clip-2)"/><line x1="147.72" y1="37.73" x2="147.72" y2="37.75" style="stroke-width: 1.0;stroke: rgb(0,0,0);stroke-opacity: 1.0;" transform="matrix(1,0,0,1,0,0)" clip-path="url(#94008622798388clip-2)"/><line x1="138.48" y1="37.73" x2="156.96" y2="37.73" style="stroke-width: 1.0;stroke: rgb(0,0,0);stroke-opacity: 1.0;" transform="matrix(1,0,0,1,0,0)" clip-path="url(#94008622798388clip-2)"/><line x1="147.72" y1="37.81" x2="147.72" y2="37.79" style="stroke-width: 1.0;stroke: rgb(0,0,0);stroke-opacity: 1.0;" transform="matrix(1,0,0,1,0,0)" clip-path="url(#94008622798388clip-2)"/><line x1="138.48" y1="37.81" x2="156.96" y2="37.81" style="stroke-width: 1.0;stroke: rgb(0,0,0);stroke-opacity: 1.0;" transform="matrix(1,0,0,1,0,0)" clip-path="url(#94008622798388clip-2)"/><rect x="138.48" y="37.75" width="18.48" height="0.04" style="stroke-width: 1.0;stroke: rgb(0,0,0);stroke-opacity: 1.0;; fill: none" transform="matrix(1,0,0,1,0,0)" clip-path="url(#94008622798388clip-2)"/><line x1="138.48" y1="37.77" x2="156.96" y2="37.77" style="stroke-width: 1.0;stroke: rgb(0,0,0);stroke-opacity: 1.0;" transform="matrix(1,0,0,1,0,0)" clip-path="url(#94008622798388clip-2)"/><rect x="162.51" y="37.75" width="18.48" height="0.04" style="fill: rgb(192,192,192); fill-opacity: 1.0" transform="matrix(1,0,0,1,0,0)" clip-path="url(#94008622798388clip-2)"/><line x1="171.75" y1="37.73" x2="171.75" y2="37.75" style="stroke-width: 1.0;stroke: rgb(0,0,0);stroke-opacity: 1.0;" transform="matrix(1,0,0,1,0,0)" clip-path="url(#94008622798388clip-2)"/><line x1="162.51" y1="37.73" x2="180.99" y2="37.73" style="stroke-width: 1.0;stroke: rgb(0,0,0);stroke-opacity: 1.0;" transform="matrix(1,0,0,1,0,0)" clip-path="url(#94008622798388clip-2)"/><line x1="171.75" y1="37.81" x2="171.75" y2="37.79" style="stroke-width: 1.0;stroke: rgb(0,0,0);stroke-opacity: 1.0;" transform="matrix(1,0,0,1,0,0)" clip-path="url(#94008622798388clip-2)"/><line x1="162.51" y1="37.81" x2="180.99" y2="37.81" style="stroke-width: 1.0;stroke: rgb(0,0,0);stroke-opacity: 1.0;" transform="matrix(1,0,0,1,0,0)" clip-path="url(#94008622798388clip-2)"/><rect x="162.51" y="37.75" width="18.48" height="0.04" style="stroke-width: 1.0;stroke: rgb(0,0,0);stroke-opacity: 1.0;; fill: none" transform="matrix(1,0,0,1,0,0)" clip-path="url(#94008622798388clip-2)"/><line x1="162.51" y1="37.77" x2="180.99" y2="37.77" style="stroke-width: 1.0;stroke: rgb(0,0,0);stroke-opacity: 1.0;" transform="matrix(1,0,0,1,0,0)" clip-path="url(#94008622798388clip-2)"/><rect x="186.55" y="37.74" width="18.48" height="0.05" style="fill: rgb(192,192,192); fill-opacity: 1.0" transform="matrix(1,0,0,1,0,0)" clip-path="url(#94008622798388clip-2)"/><line x1="195.79" y1="37.71" x2="195.79" y2="37.74" style="stroke-width: 1.0;stroke: rgb(0,0,0);stroke-opacity: 1.0;" transform="matrix(1,0,0,1,0,0)" clip-path="url(#94008622798388clip-2)"/><line x1="186.55" y1="37.71" x2="205.03" y2="37.71" style="stroke-width: 1.0;stroke: rgb(0,0,0);stroke-opacity: 1.0;" transform="matrix(1,0,0,1,0,0)" clip-path="url(#94008622798388clip-2)"/><line x1="195.79" y1="37.82" x2="195.79" y2="37.79" style="stroke-width: 1.0;stroke: rgb(0,0,0);stroke-opacity: 1.0;" transform="matrix(1,0,0,1,0,0)" clip-path="url(#94008622798388clip-2)"/><line x1="186.55" y1="37.82" x2="205.03" y2="37.82" style="stroke-width: 1.0;stroke: rgb(0,0,0);stroke-opacity: 1.0;" transform="matrix(1,0,0,1,0,0)" clip-path="url(#94008622798388clip-2)"/><rect x="186.55" y="37.74" width="18.48" height="0.05" style="stroke-width: 1.0;stroke: rgb(0,0,0);stroke-opacity: 1.0;; fill: none" transform="matrix(1,0,0,1,0,0)" clip-path="url(#94008622798388clip-2)"/><line x1="186.55" y1="37.77" x2="205.03" y2="37.77" style="stroke-width: 1.0;stroke: rgb(0,0,0);stroke-opacity: 1.0;" transform="matrix(1,0,0,1,0,0)" clip-path="url(#94008622798388clip-2)"/><rect x="210.59" y="37.74" width="18.48" height="0.04" style="fill: rgb(192,192,192); fill-opacity: 1.0" transform="matrix(1,0,0,1,0,0)" clip-path="url(#94008622798388clip-2)"/><line x1="219.83" y1="37.71" x2="219.83" y2="37.74" style="stroke-width: 1.0;stroke: rgb(0,0,0);stroke-opacity: 1.0;" transform="matrix(1,0,0,1,0,0)" clip-path="url(#94008622798388clip-2)"/><line x1="210.59" y1="37.71" x2="229.07" y2="37.71" style="stroke-width: 1.0;stroke: rgb(0,0,0);stroke-opacity: 1.0;" transform="matrix(1,0,0,1,0,0)" clip-path="url(#94008622798388clip-2)"/><line x1="219.83" y1="37.82" x2="219.83" y2="37.79" style="stroke-width: 1.0;stroke: rgb(0,0,0);stroke-opacity: 1.0;" transform="matrix(1,0,0,1,0,0)" clip-path="url(#94008622798388clip-2)"/><line x1="210.59" y1="37.82" x2="229.07" y2="37.82" style="stroke-width: 1.0;stroke: rgb(0,0,0);stroke-opacity: 1.0;" transform="matrix(1,0,0,1,0,0)" clip-path="url(#94008622798388clip-2)"/><rect x="210.59" y="37.74" width="18.48" height="0.04" style="stroke-width: 1.0;stroke: rgb(0,0,0);stroke-opacity: 1.0;; fill: none" transform="matrix(1,0,0,1,0,0)" clip-path="url(#94008622798388clip-2)"/><line x1="210.59" y1="37.77" x2="229.07" y2="37.77" style="stroke-width: 1.0;stroke: rgb(0,0,0);stroke-opacity: 1.0;" transform="matrix(1,0,0,1,0,0)" clip-path="url(#94008622798388clip-2)"/><g style="stroke-width: 1.0;stroke: rgb(192,192,192);stroke-opacity: 1.0;; fill: none" transform="matrix(1,0,0,1,0,0)" clip-path="url(#94008622798388clip-2)"><path d="M 222.91 34.77 C 222.91 36.47 221.53 37.85 219.83 37.85 C 218.13 37.85 216.75 36.47 216.75 34.77 C 216.75 33.07 218.13 31.69 219.83 31.69 C 221.53 31.69 222.91 33.07 222.91 34.77 M 222.91 34.77"/></g><rect x="234.63" y="37.74" width="18.48" height="0.07" style="fill: rgb(192,192,192); fill-opacity: 1.0" transform="matrix(1,0,0,1,0,0)" clip-path="url(#94008622798388clip-2)"/><line x1="243.87" y1="37.66" x2="243.87" y2="37.74" style="stroke-width: 1.0;stroke: rgb(0,0,0);stroke-opacity: 1.0;" transform="matrix(1,0,0,1,0,0)" clip-path="url(#94008622798388clip-2)"/><line x1="234.63" y1="37.66" x2="253.11" y2="37.66" style="stroke-width: 1.0;stroke: rgb(0,0,0);stroke-opacity: 1.0;" transform="matrix(1,0,0,1,0,0)" clip-path="url(#94008622798388clip-2)"/><line x1="243.87" y1="37.89" x2="243.87" y2="37.8" style="stroke-width: 1.0;stroke: rgb(0,0,0);stroke-opacity: 1.0;" transform="matrix(1,0,0,1,0,0)" clip-path="url(#94008622798388clip-2)"/><line x1="234.63" y1="37.89" x2="253.11" y2="37.89" style="stroke-width: 1.0;stroke: rgb(0,0,0);stroke-opacity: 1.0;" transform="matrix(1,0,0,1,0,0)" clip-path="url(#94008622798388clip-2)"/><rect x="234.63" y="37.74" width="18.48" height="0.07" style="stroke-width: 1.0;stroke: rgb(0,0,0);stroke-opacity: 1.0;; fill: none" transform="matrix(1,0,0,1,0,0)" clip-path="url(#94008622798388clip-2)"/><line x1="234.63" y1="37.77" x2="253.11" y2="37.77" style="stroke-width: 1.0;stroke: rgb(0,0,0);stroke-opacity: 1.0;" transform="matrix(1,0,0,1,0,0)" clip-path="url(#94008622798388clip-2)"/><line x1="243.87" y1="23" x2="243.87" y2="23" style="stroke-width: 1.0;stroke: rgb(192,192,192);stroke-opacity: 1.0;" transform="matrix(1,0,0,1,0,0)" clip-path="url(#94008622798388clip-2)"/><line x1="243.87" y1="23" x2="243.87" y2="23" style="stroke-width: 1.0;stroke: rgb(192,192,192);stroke-opacity: 1.0;" transform="matrix(1,0,0,1,0,0)" clip-path="url(#94008622798388clip-2)"/><line x1="243.87" y1="23" x2="243.87" y2="23" style="stroke-width: 1.0;stroke: rgb(192,192,192);stroke-opacity: 1.0;" transform="matrix(1,0,0,1,0,0)" clip-path="url(#94008622798388clip-2)"/><rect x="258.67" y="37.73" width="18.48" height="0.08" style="fill: rgb(192,192,192); fill-opacity: 1.0" transform="matrix(1,0,0,1,0,0)" clip-path="url(#94008622798388clip-2)"/><line x1="267.91" y1="37.63" x2="267.91" y2="37.73" style="stroke-width: 1.0;stroke: rgb(0,0,0);stroke-opacity: 1.0;" transform="matrix(1,0,0,1,0,0)" clip-path="url(#94008622798388clip-2)"/><line x1="258.67" y1="37.63" x2="277.15" y2="37.63" style="stroke-width: 1.0;stroke: rgb(0,0,0);stroke-opacity: 1.0;" transform="matrix(1,0,0,1,0,0)" clip-path="url(#94008622798388clip-2)"/><line x1="267.91" y1="37.92" x2="267.91" y2="37.81" style="stroke-width: 1.0;stroke: rgb(0,0,0);stroke-opacity: 1.0;" transform="matrix(1,0,0,1,0,0)" clip-path="url(#94008622798388clip-2)"/><line x1="258.67" y1="37.92" x2="277.15" y2="37.92" style="stroke-width: 1.0;stroke: rgb(0,0,0);stroke-opacity: 1.0;" transform="matrix(1,0,0,1,0,0)" clip-path="url(#94008622798388clip-2)"/><rect x="258.67" y="37.73" width="18.48" height="0.08" style="stroke-width: 1.0;stroke: rgb(0,0,0);stroke-opacity: 1.0;; fill: none" transform="matrix(1,0,0,1,0,0)" clip-path="url(#94008622798388clip-2)"/><line x1="258.67" y1="37.77" x2="277.15" y2="37.77" style="stroke-width: 1.0;stroke: rgb(0,0,0);stroke-opacity: 1.0;" transform="matrix(1,0,0,1,0,0)" clip-path="url(#94008622798388clip-2)"/><g style="stroke-width: 1.0;stroke: rgb(192,192,192);stroke-opacity: 1.0;; fill: none" transform="matrix(1,0,0,1,0,0)" clip-path="url(#94008622798388clip-2)"><path d="M 270.99 34.52 C 270.99 36.22 269.61 37.6 267.91 37.6 C 266.2 37.6 264.83 36.22 264.83 34.52 C 264.83 32.82 266.2 31.44 267.91 31.44 C 269.61 31.44 270.99 32.82 270.99 34.52 M 270.99 34.52"/></g><rect x="282.7" y="37.73" width="18.48" height="0.07" style="fill: rgb(192,192,192); fill-opacity: 1.0" transform="matrix(1,0,0,1,0,0)" clip-path="url(#94008622798388clip-2)"/><line x1="291.94" y1="37.63" x2="291.94" y2="37.73" style="stroke-width: 1.0;stroke: rgb(0,0,0);stroke-opacity: 1.0;" transform="matrix(1,0,0,1,0,0)" clip-path="url(#94008622798388clip-2)"/><line x1="282.7" y1="37.63" x2="301.18" y2="37.63" style="stroke-width: 1.0;stroke: rgb(0,0,0);stroke-opacity: 1.0;" transform="matrix(1,0,0,1,0,0)" clip-path="url(#94008622798388clip-2)"/><line x1="291.94" y1="37.92" x2="291.94" y2="37.81" style="stroke-width: 1.0;stroke: rgb(0,0,0);stroke-opacity: 1.0;" transform="matrix(1,0,0,1,0,0)" clip-path="url(#94008622798388clip-2)"/><line x1="282.7" y1="37.92" x2="301.18" y2="37.92" style="stroke-width: 1.0;stroke: rgb(0,0,0);stroke-opacity: 1.0;" transform="matrix(1,0,0,1,0,0)" clip-path="url(#94008622798388clip-2)"/><rect x="282.7" y="37.73" width="18.48" height="0.07" style="stroke-width: 1.0;stroke: rgb(0,0,0);stroke-opacity: 1.0;; fill: none" transform="matrix(1,0,0,1,0,0)" clip-path="url(#94008622798388clip-2)"/><line x1="282.7" y1="37.76" x2="301.18" y2="37.76" style="stroke-width: 1.0;stroke: rgb(0,0,0);stroke-opacity: 1.0;" transform="matrix(1,0,0,1,0,0)" clip-path="url(#94008622798388clip-2)"/><g style="stroke-width: 1.0;stroke: rgb(192,192,192);stroke-opacity: 1.0;; fill: none" transform="matrix(1,0,0,1,0,0)" clip-path="url(#94008622798388clip-2)"><path d="M 295.02 34.52 C 295.02 36.22 293.64 37.6 291.94 37.6 C 290.24 37.6 288.86 36.22 288.86 34.52 C 288.86 32.82 290.24 31.44 291.94 31.44 C 293.64 31.44 295.02 32.82 295.02 34.52 M 295.02 34.52"/></g><rect x="306.74" y="37.73" width="18.48" height="0.08" style="fill: rgb(192,192,192); fill-opacity: 1.0" transform="matrix(1,0,0,1,0,0)" clip-path="url(#94008622798388clip-2)"/><line x1="315.98" y1="37.63" x2="315.98" y2="37.73" style="stroke-width: 1.0;stroke: rgb(0,0,0);stroke-opacity: 1.0;" transform="matrix(1,0,0,1,0,0)" clip-path="url(#94008622798388clip-2)"/><line x1="306.74" y1="37.63" x2="325.22" y2="37.63" style="stroke-width: 1.0;stroke: rgb(0,0,0);stroke-opacity: 1.0;" transform="matrix(1,0,0,1,0,0)" clip-path="url(#94008622798388clip-2)"/><line x1="315.98" y1="37.93" x2="315.98" y2="37.81" style="stroke-width: 1.0;stroke: rgb(0,0,0);stroke-opacity: 1.0;" transform="matrix(1,0,0,1,0,0)" clip-path="url(#94008622798388clip-2)"/><line x1="306.74" y1="37.93" x2="325.22" y2="37.93" style="stroke-width: 1.0;stroke: rgb(0,0,0);stroke-opacity: 1.0;" transform="matrix(1,0,0,1,0,0)" clip-path="url(#94008622798388clip-2)"/><rect x="306.74" y="37.73" width="18.48" height="0.08" style="stroke-width: 1.0;stroke: rgb(0,0,0);stroke-opacity: 1.0;; fill: none" transform="matrix(1,0,0,1,0,0)" clip-path="url(#94008622798388clip-2)"/><line x1="306.74" y1="37.76" x2="325.22" y2="37.76" style="stroke-width: 1.0;stroke: rgb(0,0,0);stroke-opacity: 1.0;" transform="matrix(1,0,0,1,0,0)" clip-path="url(#94008622798388clip-2)"/><g style="stroke-width: 1.0;stroke: rgb(192,192,192);stroke-opacity: 1.0;; fill: none" transform="matrix(1,0,0,1,0,0)" clip-path="url(#94008622798388clip-2)"><path d="M 312.9 34.53 C 312.9 36.23 311.52 37.61 309.82 37.61 C 308.12 37.61 306.74 36.23 306.74 34.53 C 306.74 32.82 308.12 31.45 309.82 31.45 C 311.52 31.45 312.9 32.82 312.9 34.53 M 312.9 34.53"/></g><g style="stroke-width: 1.0;stroke: rgb(192,192,192);stroke-opacity: 1.0;; fill: none" transform="matrix(1,0,0,1,0,0)" clip-path="url(#94008622798388clip-2)"><path d="M 325.22 34.53 C 325.22 36.23 323.84 37.61 322.14 37.61 C 320.44 37.61 319.06 36.23 319.06 34.53 C 319.06 32.82 320.44 31.45 322.14 31.45 C 323.84 31.45 325.22 32.82 325.22 34.53 M 325.22 34.53"/></g><rect x="330.78" y="37.73" width="18.48" height="0.09" style="fill: rgb(192,192,192); fill-opacity: 1.0" transform="matrix(1,0,0,1,0,0)" clip-path="url(#94008622798388clip-2)"/><line x1="340.02" y1="37.6" x2="340.02" y2="37.73" style="stroke-width: 1.0;stroke: rgb(0,0,0);stroke-opacity: 1.0;" transform="matrix(1,0,0,1,0,0)" clip-path="url(#94008622798388clip-2)"/><line x1="330.78" y1="37.6" x2="349.26" y2="37.6" style="stroke-width: 1.0;stroke: rgb(0,0,0);stroke-opacity: 1.0;" transform="matrix(1,0,0,1,0,0)" clip-path="url(#94008622798388clip-2)"/><line x1="340.02" y1="37.93" x2="340.02" y2="37.82" style="stroke-width: 1.0;stroke: rgb(0,0,0);stroke-opacity: 1.0;" transform="matrix(1,0,0,1,0,0)" clip-path="url(#94008622798388clip-2)"/><line x1="330.78" y1="37.93" x2="349.26" y2="37.93" style="stroke-width: 1.0;stroke: rgb(0,0,0);stroke-opacity: 1.0;" transform="matrix(1,0,0,1,0,0)" clip-path="url(#94008622798388clip-2)"/><rect x="330.78" y="37.73" width="18.48" height="0.09" style="stroke-width: 1.0;stroke: rgb(0,0,0);stroke-opacity: 1.0;; fill: none" transform="matrix(1,0,0,1,0,0)" clip-path="url(#94008622798388clip-2)"/><line x1="330.78" y1="37.77" x2="349.26" y2="37.77" style="stroke-width: 1.0;stroke: rgb(0,0,0);stroke-opacity: 1.0;" transform="matrix(1,0,0,1,0,0)" clip-path="url(#94008622798388clip-2)"/><line x1="340.02" y1="23" x2="340.02" y2="23" style="stroke-width: 1.0;stroke: rgb(192,192,192);stroke-opacity: 1.0;" transform="matrix(1,0,0,1,0,0)" clip-path="url(#94008622798388clip-2)"/><line x1="340.02" y1="23" x2="340.02" y2="23" style="stroke-width: 1.0;stroke: rgb(192,192,192);stroke-opacity: 1.0;" transform="matrix(1,0,0,1,0,0)" clip-path="url(#94008622798388clip-2)"/><line x1="340.02" y1="23" x2="340.02" y2="23" style="stroke-width: 1.0;stroke: rgb(192,192,192);stroke-opacity: 1.0;" transform="matrix(1,0,0,1,0,0)" clip-path="url(#94008622798388clip-2)"/><rect x="354.82" y="37.73" width="18.48" height="0.09" style="fill: rgb(192,192,192); fill-opacity: 1.0" transform="matrix(1,0,0,1,0,0)" clip-path="url(#94008622798388clip-2)"/><line x1="364.06" y1="37.6" x2="364.06" y2="37.73" style="stroke-width: 1.0;stroke: rgb(0,0,0);stroke-opacity: 1.0;" transform="matrix(1,0,0,1,0,0)" clip-path="url(#94008622798388clip-2)"/><line x1="354.82" y1="37.6" x2="373.3" y2="37.6" style="stroke-width: 1.0;stroke: rgb(0,0,0);stroke-opacity: 1.0;" transform="matrix(1,0,0,1,0,0)" clip-path="url(#94008622798388clip-2)"/><line x1="364.06" y1="37.93" x2="364.06" y2="37.82" style="stroke-width: 1.0;stroke: rgb(0,0,0);stroke-opacity: 1.0;" transform="matrix(1,0,0,1,0,0)" clip-path="url(#94008622798388clip-2)"/><line x1="354.82" y1="37.93" x2="373.3" y2="37.93" style="stroke-width: 1.0;stroke: rgb(0,0,0);stroke-opacity: 1.0;" transform="matrix(1,0,0,1,0,0)" clip-path="url(#94008622798388clip-2)"/><rect x="354.82" y="37.73" width="18.48" height="0.09" style="stroke-width: 1.0;stroke: rgb(0,0,0);stroke-opacity: 1.0;; fill: none" transform="matrix(1,0,0,1,0,0)" clip-path="url(#94008622798388clip-2)"/><line x1="354.82" y1="37.77" x2="373.3" y2="37.77" style="stroke-width: 1.0;stroke: rgb(0,0,0);stroke-opacity: 1.0;" transform="matrix(1,0,0,1,0,0)" clip-path="url(#94008622798388clip-2)"/><g style="stroke-width: 1.0;stroke: rgb(192,192,192);stroke-opacity: 1.0;; fill: none" transform="matrix(1,0,0,1,0,0)" clip-path="url(#94008622798388clip-2)"><path d="M 360.98 34.49 C 360.98 36.19 359.6 37.57 357.9 37.57 C 356.2 37.57 354.82 36.19 354.82 34.49 C 354.82 32.79 356.2 31.41 357.9 31.41 C 359.6 31.41 360.98 32.79 360.98 34.49 M 360.98 34.49"/></g><g style="stroke-width: 1.0;stroke: rgb(192,192,192);stroke-opacity: 1.0;; fill: none" transform="matrix(1,0,0,1,0,0)" clip-path="url(#94008622798388clip-2)"><path d="M 373.3 34.49 C 373.3 36.19 371.92 37.57 370.22 37.57 C 368.52 37.57 367.14 36.19 367.14 34.49 C 367.14 32.79 368.52 31.41 370.22 31.41 C 371.92 31.41 373.3 32.79 373.3 34.49 M 373.3 34.49"/></g><line x1="364.06" y1="23" x2="364.06" y2="23" style="stroke-width: 1.0;stroke: rgb(192,192,192);stroke-opacity: 1.0;" transform="matrix(1,0,0,1,0,0)" clip-path="url(#94008622798388clip-2)"/><line x1="364.06" y1="23" x2="364.06" y2="23" style="stroke-width: 1.0;stroke: rgb(192,192,192);stroke-opacity: 1.0;" transform="matrix(1,0,0,1,0,0)" clip-path="url(#94008622798388clip-2)"/><line x1="364.06" y1="23" x2="364.06" y2="23" style="stroke-width: 1.0;stroke: rgb(192,192,192);stroke-opacity: 1.0;" transform="matrix(1,0,0,1,0,0)" clip-path="url(#94008622798388clip-2)"/><rect x="378.85" y="37.73" width="18.48" height="0.09" style="fill: rgb(192,192,192); fill-opacity: 1.0" transform="matrix(1,0,0,1,0,0)" clip-path="url(#94008622798388clip-2)"/><line x1="388.09" y1="37.6" x2="388.09" y2="37.73" style="stroke-width: 1.0;stroke: rgb(0,0,0);stroke-opacity: 1.0;" transform="matrix(1,0,0,1,0,0)" clip-path="url(#94008622798388clip-2)"/><line x1="378.85" y1="37.6" x2="397.33" y2="37.6" style="stroke-width: 1.0;stroke: rgb(0,0,0);stroke-opacity: 1.0;" transform="matrix(1,0,0,1,0,0)" clip-path="url(#94008622798388clip-2)"/><line x1="388.09" y1="37.95" x2="388.09" y2="37.82" style="stroke-width: 1.0;stroke: rgb(0,0,0);stroke-opacity: 1.0;" transform="matrix(1,0,0,1,0,0)" clip-path="url(#94008622798388clip-2)"/><line x1="378.85" y1="37.95" x2="397.33" y2="37.95" style="stroke-width: 1.0;stroke: rgb(0,0,0);stroke-opacity: 1.0;" transform="matrix(1,0,0,1,0,0)" clip-path="url(#94008622798388clip-2)"/><rect x="378.85" y="37.73" width="18.48" height="0.09" style="stroke-width: 1.0;stroke: rgb(0,0,0);stroke-opacity: 1.0;; fill: none" transform="matrix(1,0,0,1,0,0)" clip-path="url(#94008622798388clip-2)"/><line x1="378.85" y1="37.77" x2="397.33" y2="37.77" style="stroke-width: 1.0;stroke: rgb(0,0,0);stroke-opacity: 1.0;" transform="matrix(1,0,0,1,0,0)" clip-path="url(#94008622798388clip-2)"/><g style="stroke-width: 1.0;stroke: rgb(192,192,192);stroke-opacity: 1.0;; fill: none" transform="matrix(1,0,0,1,0,0)" clip-path="url(#94008622798388clip-2)"><path d="M 391.17 34.49 C 391.17 36.19 389.8 37.57 388.09 37.57 C 386.39 37.57 385.01 36.19 385.01 34.49 C 385.01 32.79 386.39 31.41 388.09 31.41 C 389.8 31.41 391.17 32.79 391.17 34.49 M 391.17 34.49"/></g><line x1="388.09" y1="23" x2="388.09" y2="23" style="stroke-width: 1.0;stroke: rgb(192,192,192);stroke-opacity: 1.0;" transform="matrix(1,0,0,1,0,0)" clip-path="url(#94008622798388clip-2)"/><line x1="388.09" y1="23" x2="388.09" y2="23" style="stroke-width: 1.0;stroke: rgb(192,192,192);stroke-opacity: 1.0;" transform="matrix(1,0,0,1,0,0)" clip-path="url(#94008622798388clip-2)"/><line x1="388.09" y1="23" x2="388.09" y2="23" style="stroke-width: 1.0;stroke: rgb(192,192,192);stroke-opacity: 1.0;" transform="matrix(1,0,0,1,0,0)" clip-path="url(#94008622798388clip-2)"/><rect x="402.89" y="37.72" width="18.48" height="0.09" style="fill: rgb(192,192,192); fill-opacity: 1.0" transform="matrix(1,0,0,1,0,0)" clip-path="url(#94008622798388clip-2)"/><line x1="412.13" y1="37.6" x2="412.13" y2="37.72" style="stroke-width: 1.0;stroke: rgb(0,0,0);stroke-opacity: 1.0;" transform="matrix(1,0,0,1,0,0)" clip-path="url(#94008622798388clip-2)"/><line x1="402.89" y1="37.6" x2="421.37" y2="37.6" style="stroke-width: 1.0;stroke: rgb(0,0,0);stroke-opacity: 1.0;" transform="matrix(1,0,0,1,0,0)" clip-path="url(#94008622798388clip-2)"/><line x1="412.13" y1="37.95" x2="412.13" y2="37.82" style="stroke-width: 1.0;stroke: rgb(0,0,0);stroke-opacity: 1.0;" transform="matrix(1,0,0,1,0,0)" clip-path="url(#94008622798388clip-2)"/><line x1="402.89" y1="37.95" x2="421.37" y2="37.95" style="stroke-width: 1.0;stroke: rgb(0,0,0);stroke-opacity: 1.0;" transform="matrix(1,0,0,1,0,0)" clip-path="url(#94008622798388clip-2)"/><rect x="402.89" y="37.72" width="18.48" height="0.09" style="stroke-width: 1.0;stroke: rgb(0,0,0);stroke-opacity: 1.0;; fill: none" transform="matrix(1,0,0,1,0,0)" clip-path="url(#94008622798388clip-2)"/><line x1="402.89" y1="37.77" x2="421.37" y2="37.77" style="stroke-width: 1.0;stroke: rgb(0,0,0);stroke-opacity: 1.0;" transform="matrix(1,0,0,1,0,0)" clip-path="url(#94008622798388clip-2)"/><g style="stroke-width: 1.0;stroke: rgb(192,192,192);stroke-opacity: 1.0;; fill: none" transform="matrix(1,0,0,1,0,0)" clip-path="url(#94008622798388clip-2)"><path d="M 409.05 34.68 C 409.05 36.39 407.67 37.76 405.97 37.76 C 404.27 37.76 402.89 36.39 402.89 34.68 C 402.89 32.98 404.27 31.6 405.97 31.6 C 407.67 31.6 409.05 32.98 409.05 34.68 M 409.05 34.68"/></g><g style="stroke-width: 1.0;stroke: rgb(192,192,192);stroke-opacity: 1.0;; fill: none" transform="matrix(1,0,0,1,0,0)" clip-path="url(#94008622798388clip-2)"><path d="M 421.37 34.68 C 421.37 36.39 419.99 37.76 418.29 37.76 C 416.59 37.76 415.21 36.39 415.21 34.68 C 415.21 32.98 416.59 31.6 418.29 31.6 C 419.99 31.6 421.37 32.98 421.37 34.68 M 421.37 34.68"/></g><line x1="412.13" y1="23" x2="412.13" y2="23" style="stroke-width: 1.0;stroke: rgb(192,192,192);stroke-opacity: 1.0;" transform="matrix(1,0,0,1,0,0)" clip-path="url(#94008622798388clip-2)"/><line x1="412.13" y1="23" x2="412.13" y2="23" style="stroke-width: 1.0;stroke: rgb(192,192,192);stroke-opacity: 1.0;" transform="matrix(1,0,0,1,0,0)" clip-path="url(#94008622798388clip-2)"/><line x1="412.13" y1="23" x2="412.13" y2="23" style="stroke-width: 1.0;stroke: rgb(192,192,192);stroke-opacity: 1.0;" transform="matrix(1,0,0,1,0,0)" clip-path="url(#94008622798388clip-2)"/><rect x="426.93" y="37.72" width="18.48" height="0.1" style="fill: rgb(192,192,192); fill-opacity: 1.0" transform="matrix(1,0,0,1,0,0)" clip-path="url(#94008622798388clip-2)"/><line x1="436.17" y1="37.6" x2="436.17" y2="37.72" style="stroke-width: 1.0;stroke: rgb(0,0,0);stroke-opacity: 1.0;" transform="matrix(1,0,0,1,0,0)" clip-path="url(#94008622798388clip-2)"/><line x1="426.93" y1="37.6" x2="445.41" y2="37.6" style="stroke-width: 1.0;stroke: rgb(0,0,0);stroke-opacity: 1.0;" transform="matrix(1,0,0,1,0,0)" clip-path="url(#94008622798388clip-2)"/><line x1="436.17" y1="37.96" x2="436.17" y2="37.82" style="stroke-width: 1.0;stroke: rgb(0,0,0);stroke-opacity: 1.0;" transform="matrix(1,0,0,1,0,0)" clip-path="url(#94008622798388clip-2)"/><line x1="426.93" y1="37.96" x2="445.41" y2="37.96" style="stroke-width: 1.0;stroke: rgb(0,0,0);stroke-opacity: 1.0;" transform="matrix(1,0,0,1,0,0)" clip-path="url(#94008622798388clip-2)"/><rect x="426.93" y="37.72" width="18.48" height="0.1" style="stroke-width: 1.0;stroke: rgb(0,0,0);stroke-opacity: 1.0;; fill: none" transform="matrix(1,0,0,1,0,0)" clip-path="url(#94008622798388clip-2)"/><line x1="426.93" y1="37.76" x2="445.41" y2="37.76" style="stroke-width: 1.0;stroke: rgb(0,0,0);stroke-opacity: 1.0;" transform="matrix(1,0,0,1,0,0)" clip-path="url(#94008622798388clip-2)"/><g style="stroke-width: 1.0;stroke: rgb(192,192,192);stroke-opacity: 1.0;; fill: none" transform="matrix(1,0,0,1,0,0)" clip-path="url(#94008622798388clip-2)"><path d="M 433.09 34.65 C 433.09 36.35 431.71 37.73 430.01 37.73 C 428.31 37.73 426.93 36.35 426.93 34.65 C 426.93 32.94 428.31 31.57 430.01 31.57 C 431.71 31.57 433.09 32.94 433.09 34.65 M 433.09 34.65"/></g><g style="stroke-width: 1.0;stroke: rgb(192,192,192);stroke-opacity: 1.0;; fill: none" transform="matrix(1,0,0,1,0,0)" clip-path="url(#94008622798388clip-2)"><path d="M 445.41 34.65 C 445.41 36.35 444.03 37.73 442.33 37.73 C 440.63 37.73 439.25 36.35 439.25 34.65 C 439.25 32.94 440.63 31.57 442.33 31.57 C 444.03 31.57 445.41 32.94 445.41 34.65 M 445.41 34.65"/></g><rect x="450.97" y="37.71" width="18.48" height="0.11" style="fill: rgb(192,192,192); fill-opacity: 1.0" transform="matrix(1,0,0,1,0,0)" clip-path="url(#94008622798388clip-2)"/><line x1="460.21" y1="37.57" x2="460.21" y2="37.71" style="stroke-width: 1.0;stroke: rgb(0,0,0);stroke-opacity: 1.0;" transform="matrix(1,0,0,1,0,0)" clip-path="url(#94008622798388clip-2)"/><line x1="450.97" y1="37.57" x2="469.45" y2="37.57" style="stroke-width: 1.0;stroke: rgb(0,0,0);stroke-opacity: 1.0;" transform="matrix(1,0,0,1,0,0)" clip-path="url(#94008622798388clip-2)"/><line x1="460.21" y1="37.96" x2="460.21" y2="37.82" style="stroke-width: 1.0;stroke: rgb(0,0,0);stroke-opacity: 1.0;" transform="matrix(1,0,0,1,0,0)" clip-path="url(#94008622798388clip-2)"/><line x1="450.97" y1="37.96" x2="469.45" y2="37.96" style="stroke-width: 1.0;stroke: rgb(0,0,0);stroke-opacity: 1.0;" transform="matrix(1,0,0,1,0,0)" clip-path="url(#94008622798388clip-2)"/><rect x="450.97" y="37.71" width="18.48" height="0.11" style="stroke-width: 1.0;stroke: rgb(0,0,0);stroke-opacity: 1.0;; fill: none" transform="matrix(1,0,0,1,0,0)" clip-path="url(#94008622798388clip-2)"/><line x1="450.97" y1="37.76" x2="469.45" y2="37.76" style="stroke-width: 1.0;stroke: rgb(0,0,0);stroke-opacity: 1.0;" transform="matrix(1,0,0,1,0,0)" clip-path="url(#94008622798388clip-2)"/><g style="stroke-width: 1.0;stroke: rgb(192,192,192);stroke-opacity: 1.0;; fill: none" transform="matrix(1,0,0,1,0,0)" clip-path="url(#94008622798388clip-2)"><path d="M 457.13 34.64 C 457.13 36.34 455.75 37.72 454.05 37.72 C 452.35 37.72 450.97 36.34 450.97 34.64 C 450.97 32.94 452.35 31.56 454.05 31.56 C 455.75 31.56 457.13 32.94 457.13 34.64 M 457.13 34.64"/></g><g style="stroke-width: 1.0;stroke: rgb(192,192,192);stroke-opacity: 1.0;; fill: none" transform="matrix(1,0,0,1,0,0)" clip-path="url(#94008622798388clip-2)"><path d="M 469.45 34.64 C 469.45 36.34 468.07 37.72 466.37 37.72 C 464.67 37.72 463.29 36.34 463.29 34.64 C 463.29 32.94 464.67 31.56 466.37 31.56 C 468.07 31.56 469.45 32.94 469.45 34.64 M 469.45 34.64"/></g><line x1="460.21" y1="328" x2="460.21" y2="328" style="stroke-width: 1.0;stroke: rgb(192,192,192);stroke-opacity: 1.0;" transform="matrix(1,0,0,1,0,0)" clip-path="url(#94008622798388clip-2)"/><line x1="460.21" y1="328" x2="460.21" y2="328" style="stroke-width: 1.0;stroke: rgb(192,192,192);stroke-opacity: 1.0;" transform="matrix(1,0,0,1,0,0)" clip-path="url(#94008622798388clip-2)"/><line x1="460.21" y1="328" x2="460.21" y2="328" style="stroke-width: 1.0;stroke: rgb(192,192,192);stroke-opacity: 1.0;" transform="matrix(1,0,0,1,0,0)" clip-path="url(#94008622798388clip-2)"/><rect x="475.01" y="37.71" width="18.48" height="0.12" style="fill: rgb(192,192,192); fill-opacity: 1.0" transform="matrix(1,0,0,1,0,0)" clip-path="url(#94008622798388clip-2)"/><line x1="484.25" y1="37.55" x2="484.25" y2="37.71" style="stroke-width: 1.0;stroke: rgb(0,0,0);stroke-opacity: 1.0;" transform="matrix(1,0,0,1,0,0)" clip-path="url(#94008622798388clip-2)"/><line x1="475.01" y1="37.55" x2="493.49" y2="37.55" style="stroke-width: 1.0;stroke: rgb(0,0,0);stroke-opacity: 1.0;" transform="matrix(1,0,0,1,0,0)" clip-path="url(#94008622798388clip-2)"/><line x1="484.25" y1="37.99" x2="484.25" y2="37.83" style="stroke-width: 1.0;stroke: rgb(0,0,0);stroke-opacity: 1.0;" transform="matrix(1,0,0,1,0,0)" clip-path="url(#94008622798388clip-2)"/><line x1="475.01" y1="37.99" x2="493.49" y2="37.99" style="stroke-width: 1.0;stroke: rgb(0,0,0);stroke-opacity: 1.0;" transform="matrix(1,0,0,1,0,0)" clip-path="url(#94008622798388clip-2)"/><rect x="475.01" y="37.71" width="18.48" height="0.12" style="stroke-width: 1.0;stroke: rgb(0,0,0);stroke-opacity: 1.0;; fill: none" transform="matrix(1,0,0,1,0,0)" clip-path="url(#94008622798388clip-2)"/><line x1="475.01" y1="37.76" x2="493.49" y2="37.76" style="stroke-width: 1.0;stroke: rgb(0,0,0);stroke-opacity: 1.0;" transform="matrix(1,0,0,1,0,0)" clip-path="url(#94008622798388clip-2)"/><g style="stroke-width: 1.0;stroke: rgb(192,192,192);stroke-opacity: 1.0;; fill: none" transform="matrix(1,0,0,1,0,0)" clip-path="url(#94008622798388clip-2)"><path d="M 481.17 34.7 C 481.17 36.4 479.79 37.78 478.09 37.78 C 476.39 37.78 475.01 36.4 475.01 34.7 C 475.01 33 476.39 31.62 478.09 31.62 C 479.79 31.62 481.17 33 481.17 34.7 M 481.17 34.7"/></g><g style="stroke-width: 1.0;stroke: rgb(192,192,192);stroke-opacity: 1.0;; fill: none" transform="matrix(1,0,0,1,0,0)" clip-path="url(#94008622798388clip-2)"><path d="M 493.49 34.7 C 493.49 36.4 492.11 37.78 490.41 37.78 C 488.71 37.78 487.33 36.4 487.33 34.7 C 487.33 33 488.71 31.62 490.41 31.62 C 492.11 31.62 493.49 33 493.49 34.7 M 493.49 34.7"/></g><rect x="499.04" y="37.71" width="18.48" height="0.12" style="fill: rgb(192,192,192); fill-opacity: 1.0" transform="matrix(1,0,0,1,0,0)" clip-path="url(#94008622798388clip-2)"/><line x1="508.28" y1="37.53" x2="508.28" y2="37.71" style="stroke-width: 1.0;stroke: rgb(0,0,0);stroke-opacity: 1.0;" transform="matrix(1,0,0,1,0,0)" clip-path="url(#94008622798388clip-2)"/><line x1="499.04" y1="37.53" x2="517.52" y2="37.53" style="stroke-width: 1.0;stroke: rgb(0,0,0);stroke-opacity: 1.0;" transform="matrix(1,0,0,1,0,0)" clip-path="url(#94008622798388clip-2)"/><line x1="508.28" y1="38" x2="508.28" y2="37.83" style="stroke-width: 1.0;stroke: rgb(0,0,0);stroke-opacity: 1.0;" transform="matrix(1,0,0,1,0,0)" clip-path="url(#94008622798388clip-2)"/><line x1="499.04" y1="38" x2="517.52" y2="38" style="stroke-width: 1.0;stroke: rgb(0,0,0);stroke-opacity: 1.0;" transform="matrix(1,0,0,1,0,0)" clip-path="url(#94008622798388clip-2)"/><rect x="499.04" y="37.71" width="18.48" height="0.12" style="stroke-width: 1.0;stroke: rgb(0,0,0);stroke-opacity: 1.0;; fill: none" transform="matrix(1,0,0,1,0,0)" clip-path="url(#94008622798388clip-2)"/><line x1="499.04" y1="37.76" x2="517.52" y2="37.76" style="stroke-width: 1.0;stroke: rgb(0,0,0);stroke-opacity: 1.0;" transform="matrix(1,0,0,1,0,0)" clip-path="url(#94008622798388clip-2)"/><g style="stroke-width: 1.0;stroke: rgb(192,192,192);stroke-opacity: 1.0;; fill: none" transform="matrix(1,0,0,1,0,0)" clip-path="url(#94008622798388clip-2)"><path d="M 505.2 34.98 C 505.2 36.68 503.83 38.06 502.12 38.06 C 500.42 38.06 499.04 36.68 499.04 34.98 C 499.04 33.28 500.42 31.9 502.12 31.9 C 503.83 31.9 505.2 33.28 505.2 34.98 M 505.2 34.98"/></g><g style="stroke-width: 1.0;stroke: rgb(192,192,192);stroke-opacity: 1.0;; fill: none" transform="matrix(1,0,0,1,0,0)" clip-path="url(#94008622798388clip-2)"><path d="M 517.52 34.98 C 517.52 36.68 516.15 38.06 514.44 38.06 C 512.74 38.06 511.36 36.68 511.36 34.98 C 511.36 33.28 512.74 31.9 514.44 31.9 C 516.15 31.9 517.52 33.28 517.52 34.98 M 517.52 34.98"/></g><rect x="523.08" y="37.71" width="18.48" height="0.13" style="fill: rgb(192,192,192); fill-opacity: 1.0" transform="matrix(1,0,0,1,0,0)" clip-path="url(#94008622798388clip-2)"/><line x1="532.32" y1="37.52" x2="532.32" y2="37.71" style="stroke-width: 1.0;stroke: rgb(0,0,0);stroke-opacity: 1.0;" transform="matrix(1,0,0,1,0,0)" clip-path="url(#94008622798388clip-2)"/><line x1="523.08" y1="37.52" x2="541.56" y2="37.52" style="stroke-width: 1.0;stroke: rgb(0,0,0);stroke-opacity: 1.0;" transform="matrix(1,0,0,1,0,0)" clip-path="url(#94008622798388clip-2)"/><line x1="532.32" y1="38" x2="532.32" y2="37.84" style="stroke-width: 1.0;stroke: rgb(0,0,0);stroke-opacity: 1.0;" transform="matrix(1,0,0,1,0,0)" clip-path="url(#94008622798388clip-2)"/><line x1="523.08" y1="38" x2="541.56" y2="38" style="stroke-width: 1.0;stroke: rgb(0,0,0);stroke-opacity: 1.0;" transform="matrix(1,0,0,1,0,0)" clip-path="url(#94008622798388clip-2)"/><rect x="523.08" y="37.71" width="18.48" height="0.13" style="stroke-width: 1.0;stroke: rgb(0,0,0);stroke-opacity: 1.0;; fill: none" transform="matrix(1,0,0,1,0,0)" clip-path="url(#94008622798388clip-2)"/><line x1="523.08" y1="37.77" x2="541.56" y2="37.77" style="stroke-width: 1.0;stroke: rgb(0,0,0);stroke-opacity: 1.0;" transform="matrix(1,0,0,1,0,0)" clip-path="url(#94008622798388clip-2)"/><g style="stroke-width: 1.0;stroke: rgb(192,192,192);stroke-opacity: 1.0;; fill: none" transform="matrix(1,0,0,1,0,0)" clip-path="url(#94008622798388clip-2)"><path d="M 529.24 34.98 C 529.24 36.68 527.86 38.06 526.16 38.06 C 524.46 38.06 523.08 36.68 523.08 34.98 C 523.08 33.28 524.46 31.9 526.16 31.9 C 527.86 31.9 529.24 33.28 529.24 34.98 M 529.24 34.98"/></g><g style="stroke-width: 1.0;stroke: rgb(192,192,192);stroke-opacity: 1.0;; fill: none" transform="matrix(1,0,0,1,0,0)" clip-path="url(#94008622798388clip-2)"><path d="M 541.56 34.98 C 541.56 36.68 540.18 38.06 538.48 38.06 C 536.78 38.06 535.4 36.68 535.4 34.98 C 535.4 33.28 536.78 31.9 538.48 31.9 C 540.18 31.9 541.56 33.28 541.56 34.98 M 541.56 34.98"/></g><rect x="547.12" y="37.71" width="18.48" height="0.13" style="fill: rgb(192,192,192); fill-opacity: 1.0" transform="matrix(1,0,0,1,0,0)" clip-path="url(#94008622798388clip-2)"/><line x1="556.36" y1="37.52" x2="556.36" y2="37.71" style="stroke-width: 1.0;stroke: rgb(0,0,0);stroke-opacity: 1.0;" transform="matrix(1,0,0,1,0,0)" clip-path="url(#94008622798388clip-2)"/><line x1="547.12" y1="37.52" x2="565.6" y2="37.52" style="stroke-width: 1.0;stroke: rgb(0,0,0);stroke-opacity: 1.0;" transform="matrix(1,0,0,1,0,0)" clip-path="url(#94008622798388clip-2)"/><line x1="556.36" y1="38" x2="556.36" y2="37.83" style="stroke-width: 1.0;stroke: rgb(0,0,0);stroke-opacity: 1.0;" transform="matrix(1,0,0,1,0,0)" clip-path="url(#94008622798388clip-2)"/><line x1="547.12" y1="38" x2="565.6" y2="38" style="stroke-width: 1.0;stroke: rgb(0,0,0);stroke-opacity: 1.0;" transform="matrix(1,0,0,1,0,0)" clip-path="url(#94008622798388clip-2)"/><rect x="547.12" y="37.71" width="18.48" height="0.13" style="stroke-width: 1.0;stroke: rgb(0,0,0);stroke-opacity: 1.0;; fill: none" transform="matrix(1,0,0,1,0,0)" clip-path="url(#94008622798388clip-2)"/><line x1="547.12" y1="37.77" x2="565.6" y2="37.77" style="stroke-width: 1.0;stroke: rgb(0,0,0);stroke-opacity: 1.0;" transform="matrix(1,0,0,1,0,0)" clip-path="url(#94008622798388clip-2)"/><g style="stroke-width: 1.0;stroke: rgb(192,192,192);stroke-opacity: 1.0;; fill: none" transform="matrix(1,0,0,1,0,0)" clip-path="url(#94008622798388clip-2)"><path d="M 553.28 35 C 553.28 36.7 551.9 38.08 550.2 38.08 C 548.5 38.08 547.12 36.7 547.12 35 C 547.12 33.29 548.5 31.92 550.2 31.92 C 551.9 31.92 553.28 33.29 553.28 35 M 553.28 35"/></g><g style="stroke-width: 1.0;stroke: rgb(192,192,192);stroke-opacity: 1.0;; fill: none" transform="matrix(1,0,0,1,0,0)" clip-path="url(#94008622798388clip-2)"><path d="M 565.6 35 C 565.6 36.7 564.22 38.08 562.52 38.08 C 560.82 38.08 559.44 36.7 559.44 35 C 559.44 33.29 560.82 31.92 562.52 31.92 C 564.22 31.92 565.6 33.29 565.6 35 M 565.6 35"/></g><line x1="556.36" y1="23" x2="556.36" y2="23" style="stroke-width: 1.0;stroke: rgb(192,192,192);stroke-opacity: 1.0;" transform="matrix(1,0,0,1,0,0)" clip-path="url(#94008622798388clip-2)"/><line x1="556.36" y1="23" x2="556.36" y2="23" style="stroke-width: 1.0;stroke: rgb(192,192,192);stroke-opacity: 1.0;" transform="matrix(1,0,0,1,0,0)" clip-path="url(#94008622798388clip-2)"/><line x1="556.36" y1="23" x2="556.36" y2="23" style="stroke-width: 1.0;stroke: rgb(192,192,192);stroke-opacity: 1.0;" transform="matrix(1,0,0,1,0,0)" clip-path="url(#94008622798388clip-2)"/><rect x="64" y="23" width="528" height="305" style="stroke-width: 0.5;stroke: rgb(128,128,128);stroke-opacity: 1.0;; fill: none" transform="matrix(1,0,0,1,0,0)" clip-path="url(#94008622798388clip-0)"/></svg>
