<!DOCTYPE svg PUBLIC "-//W3C//DTD SVG 1.1//EN" "http://www.w3.org/Graphics/SVG/1.1/DTD/svg11.dtd">
<svg xmlns="http://www.w3.org/2000/svg" xmlns:xlink="http://www.w3.org/1999/xlink" xmlns:jfreesvg="http://www.jfree.org/jfreesvg/svg" width="600" height="400" text-rendering="auto" shape-rendering="auto">
<defs><clipPath id="93296891225187clip-0"><path d="M 0 0 L 600 0 L 600 400 L 0 400 L 0 0 M 0 0"/></clipPath>
<clipPath id="93296891225187clip-1"><path d="M 194.43 156.57 L 194.43 756.57 L -205.57 756.57 L -205.57 156.57 L 194.43 156.57 M 194.43 156.57"/></clipPath>
<clipPath id="93296891225187clip-2"><path d="M 58 23 L 58 328 L 592 328 L 592 23 M 58 23"/></clipPath>
</defs>
<rect x="0" y="0" width="600" height="400" style="fill: rgb(238,238,238); fill-opacity: 1.0" transform="matrix(1,0,0,1,0,0)" clip-path="url(#93296891225187clip-0)"/><g style="fill: rgb(0,0,0); fill-opacity: 1.0; stroke: none" transform="matrix(1,0,0,1,0,0)" clip-path="url(#93296891225187clip-0)"><path d="M 282.41 14.13 Q 280.94 14.79 278.9 14.79 Q 276.41 14.79 275.02 13.39 Q 273.64 11.99 273.64 9.48 Q 273.64 6.92 275.03 5.54 Q 276.43 4.17 279.02 4.17 Q 280.68 4.17 282.31 4.55 L 282.31 6.2 Q 280.46 5.55 279.21 5.55 Q 277.61 5.55 276.74 6.57 Q 275.87 7.58 275.87 9.45 Q 275.87 11.28 276.8 12.31 Q 277.74 13.33 279.4 13.33 Q 280.89 13.33 282.41 12.58 M 282.41 14.13 M 297.41 14.13 Q 295.94 14.79 293.9 14.79 Q 291.41 14.79 290.02 13.39 Q 288.64 11.99 288.64 9.48 Q 288.64 6.92 290.03 5.54 Q 291.43 4.17 294.02 4.17 Q 295.68 4.17 297.31 4.55 L 297.31 6.2 Q 295.46 5.55 294.21 5.55 Q 292.61 5.55 291.74 6.57 Q 290.87 7.58 290.87 9.45 Q 290.87 11.28 291.8 12.31 Q 292.74 13.33 294.4 13.33 Q 295.89 13.33 297.41 12.58 M 297.41 14.13 M 299.26 14.54 L 299.26 3.74 L 301.29 3.74 L 301.29 8.44 Q 302.28 6.86 303.84 6.86 Q 304.85 6.86 305.43 7.49 Q 306.01 8.13 306.01 9.23 L 306.01 14.54 L 303.99 14.54 L 303.99 9.73 Q 303.99 8.45 303.14 8.45 Q 302.18 8.45 301.29 9.81 L 301.29 14.54 M 299.26 14.54 M 311.94 13.73 Q 310.93 14.71 309.78 14.71 Q 308.79 14.71 308.18 14.1 Q 307.56 13.5 307.56 12.55 Q 307.56 11.3 308.56 10.63 Q 309.55 9.96 311.4 9.96 L 311.94 9.96 L 311.94 9.27 Q 311.94 8.1 310.61 8.1 Q 309.43 8.1 308.22 8.77 L 308.22 7.38 Q 309.59 6.86 310.94 6.86 Q 313.88 6.86 313.88 9.2 L 313.88 12.53 Q 313.88 13.41 314.45 13.41 Q 314.55 13.41 314.72 13.38 L 314.77 14.51 Q 314.12 14.71 313.63 14.71 Q 312.39 14.71 312.03 13.73 M 311.94 13.73 M 311.94 12.64 L 311.94 11.12 L 311.46 11.12 Q 309.5 11.12 309.5 12.35 Q 309.5 12.76 309.79 13.05 Q 310.07 13.33 310.49 13.33 Q 311.2 13.33 311.94 12.64 M 311.94 12.64 M 316.26 14.54 L 316.26 7.03 L 318.29 7.03 L 318.29 8.44 Q 319.07 6.86 320.68 6.86 Q 320.87 6.86 321.06 6.9 L 321.06 8.7 Q 320.63 8.55 320.26 8.55 Q 319.05 8.55 318.29 9.77 L 318.29 14.54 M 316.26 14.54 M 326.13 14.49 Q 325.41 14.71 324.99 14.71 Q 322.36 14.71 322.36 12.25 L 322.36 8.29 L 321.52 8.29 L 321.52 7.03 L 322.36 7.03 L 322.36 5.76 L 324.38 5.53 L 324.38 7.03 L 325.99 7.03 L 325.99 8.29 L 324.38 8.29 L 324.38 11.98 Q 324.38 13.36 325.51 13.36 Q 325.77 13.36 326.13 13.26 M 326.13 14.49"/></g><rect x="262" y="373.33" width="76" height="25.67" style="fill: rgb(255,255,255); fill-opacity: 1.0" transform="matrix(1,0,0,1,0,0)" clip-path="url(#93296891225187clip-0)"/><line x1="262.5" y1="373.83" x2="337.5" y2="373.83" style="stroke-width: 1.0;stroke: rgb(0,0,0);stroke-opacity: 1.0;" transform="matrix(1,0,0,1,0,0)" clip-path="url(#93296891225187clip-0)"/><line x1="262.5" y1="398.5" x2="337.5" y2="398.5" style="stroke-width: 1.0;stroke: rgb(0,0,0);stroke-opacity: 1.0;" transform="matrix(1,0,0,1,0,0)" clip-path="url(#93296891225187clip-0)"/><line x1="262.5" y1="398.5" x2="262.5" y2="373.83" style="stroke-width: 1.0;stroke: rgb(0,0,0);stroke-opacity: 1.0;" transform="matrix(1,0,0,1,0,0)" clip-path="url(#93296891225187clip-0)"/><line x1="337.5" y1="398.5" x2="337.5" y2="373.83" style="stroke-width: 1.0;stroke: rgb(0,0,0);stroke-opacity: 1.0;" transform="matrix(1,0,0,1,0,0)" clip-path="url(#93296891225187clip-0)"/><g style="fill: rgb(192,192,192); fill-opacity: 1.0; stroke: none" transform="matrix(1,0,0,1,0,0)" clip-path="url(#93296891225187clip-0)"><path d="M 266 382.17 L 274 382.17 L 274 390.17 L 266 390.17 L 266 382.17 M 266 382.17"/></g><g style="stroke-width: 1.0;stroke: rgb(0,0,0);stroke-opacity: 1.0;; fill: none" transform="matrix(1,0,0,1,0,0)" clip-path="url(#93296891225187clip-0)"><path d="M 266 382.17 L 274 382.17 L 274 390.17 L 266 390.17 L 266 382.17 M 266 382.17"/></g><g style="fill: rgb(0,0,0); fill-opacity: 1.0; stroke: none" transform="matrix(1,0,0,1,0,0)" clip-path="url(#93296891225187clip-0)"><path d="M 281.52 392.11 Q 280.43 392.11 278.73 391.63 L 278.73 390.11 Q 280.56 390.96 281.74 390.96 Q 282.65 390.96 283.2 390.48 Q 283.76 390 283.76 389.23 Q 283.76 388.59 283.39 388.14 Q 283.03 387.7 282.06 387.15 L 281.31 386.72 Q 279.93 385.93 279.36 385.23 Q 278.79 384.53 278.79 383.6 Q 278.79 382.34 279.7 381.53 Q 280.61 380.73 282.01 380.73 Q 283.27 380.73 284.66 381.14 L 284.66 382.55 Q 282.94 381.88 282.1 381.88 Q 281.3 381.88 280.78 382.3 Q 280.26 382.72 280.26 383.37 Q 280.26 383.91 280.64 384.33 Q 281.02 384.75 282.04 385.32 L 282.81 385.76 Q 284.22 386.56 284.77 387.27 Q 285.33 387.98 285.33 388.98 Q 285.33 390.39 284.29 391.25 Q 283.24 392.11 281.52 392.11 M 281.52 392.11 M 294.27 391.58 Q 292.82 392.02 291.79 392.02 Q 290.03 392.02 288.92 390.85 Q 287.81 389.68 287.81 387.82 Q 287.81 386.01 288.79 384.86 Q 289.77 383.7 291.29 383.7 Q 292.73 383.7 293.52 384.72 Q 294.31 385.75 294.31 387.64 L 294.3 388.09 L 289.29 388.09 Q 289.6 390.92 292.06 390.92 Q 292.96 390.92 294.27 390.44 M 294.27 391.58 M 289.35 387 L 292.86 387 Q 292.86 384.78 291.2 384.78 Q 289.54 384.78 289.35 387 M 289.35 387 M 297.44 391.84 L 297.44 383.88 L 298.89 383.88 L 298.89 385.38 Q 299.74 383.71 301.38 383.71 Q 301.6 383.71 301.84 383.74 L 301.84 385.09 Q 301.46 384.97 301.18 384.97 Q 299.81 384.97 298.89 386.59 L 298.89 391.84 M 297.44 391.84 M 304.44 391.84 L 304.44 383.88 L 305.89 383.88 L 305.89 391.84 M 304.44 391.84 M 304.44 382.44 L 304.44 381 L 305.89 381 L 305.89 382.44 M 304.44 382.44 M 315.27 391.58 Q 313.82 392.02 312.79 392.02 Q 311.03 392.02 309.92 390.85 Q 308.81 389.68 308.81 387.82 Q 308.81 386.01 309.79 384.86 Q 310.77 383.7 312.29 383.7 Q 313.73 383.7 314.52 384.72 Q 315.31 385.75 315.31 387.64 L 315.3 388.09 L 310.29 388.09 Q 310.6 390.92 313.06 390.92 Q 313.96 390.92 315.27 390.44 M 315.27 391.58 M 310.35 387 L 313.86 387 Q 313.86 384.78 312.2 384.78 Q 310.54 384.78 310.35 387 M 310.35 387 M 320.55 392.02 Q 319.56 392.02 318.15 391.56 L 318.15 390.23 Q 319.56 390.94 320.61 390.94 Q 321.23 390.94 321.64 390.6 Q 322.05 390.26 322.05 389.76 Q 322.05 389.02 320.9 388.53 L 320.06 388.17 Q 318.19 387.4 318.19 385.94 Q 318.19 384.9 318.93 384.3 Q 319.67 383.71 320.95 383.71 Q 321.61 383.71 322.6 383.89 L 322.9 383.95 L 322.9 385.15 Q 321.69 384.79 320.98 384.79 Q 319.59 384.79 319.59 385.8 Q 319.59 386.45 320.64 386.9 L 321.34 387.19 Q 322.52 387.69 323.01 388.24 Q 323.5 388.8 323.5 389.62 Q 323.5 390.67 322.67 391.35 Q 321.84 392.02 320.55 392.02 M 320.55 392.02 M 332.26 391.84 L 332.26 390.75 L 334.42 390.75 L 334.42 382.2 L 332.26 382.74 L 332.26 381.63 L 335.87 380.73 L 335.87 390.75 L 338.04 390.75 L 338.04 391.84 M 332.26 391.84"/></g><rect x="58" y="23" width="534" height="305" style="fill: rgb(255,255,255); fill-opacity: 1.0" transform="matrix(1,0,0,1,0,0)" clip-path="url(#93296891225187clip-0)"/><line x1="58" y1="328" x2="592" y2="328" style="stroke-width: 1.0;stroke: rgb(128,128,128);stroke-opacity: 1.0;" transform="matrix(1,0,0,1,0,0)" clip-path="url(#93296891225187clip-0)"/><line x1="94.05" y1="328" x2="94.05" y2="328" style="stroke-width: 1.0;stroke: rgb(128,128,128);stroke-opacity: 1.0;" transform="matrix(1,0,0,1,0,0)" clip-path="url(#93296891225187clip-0)"/><line x1="94.05" y1="328" x2="94.05" y2="330" style="stroke-width: 1.0;stroke: rgb(128,128,128);stroke-opacity: 1.0;" transform="matrix(1,0,0,1,0,0)" clip-path="url(#93296891225187clip-0)"/><line x1="118.36" y1="328" x2="118.36" y2="328" style="stroke-width: 1.0;stroke: rgb(128,128,128);stroke-opacity: 1.0;" transform="matrix(1,0,0,1,0,0)" clip-path="url(#93296891225187clip-0)"/><line x1="118.36" y1="328" x2="118.36" y2="330" style="stroke-width: 1.0;stroke: rgb(128,128,128);stroke-opacity: 1.0;" transform="matrix(1,0,0,1,0,0)" clip-path="url(#93296891225187clip-0)"/><line x1="142.67" y1="328" x2="142.67" y2="328" style="stroke-width: 1.0;stroke: rgb(128,128,128);stroke-opacity: 1.0;" transform="matrix(1,0,0,1,0,0)" clip-path="url(#93296891225187clip-0)"/><line x1="142.67" y1="328" x2="142.67" y2="330" style="stroke-width: 1.0;stroke: rgb(128,128,128);stroke-opacity: 1.0;" transform="matrix(1,0,0,1,0,0)" clip-path="url(#93296891225187clip-0)"/><line x1="166.98" y1="328" x2="166.98" y2="328" style="stroke-width: 1.0;stroke: rgb(128,128,128);stroke-opacity: 1.0;" transform="matrix(1,0,0,1,0,0)" clip-path="url(#93296891225187clip-0)"/><line x1="166.98" y1="328" x2="166.98" y2="330" style="stroke-width: 1.0;stroke: rgb(128,128,128);stroke-opacity: 1.0;" transform="matrix(1,0,0,1,0,0)" clip-path="url(#93296891225187clip-0)"/><line x1="191.29" y1="328" x2="191.29" y2="328" style="stroke-width: 1.0;stroke: rgb(128,128,128);stroke-opacity: 1.0;" transform="matrix(1,0,0,1,0,0)" clip-path="url(#93296891225187clip-0)"/><line x1="191.29" y1="328" x2="191.29" y2="330" style="stroke-width: 1.0;stroke: rgb(128,128,128);stroke-opacity: 1.0;" transform="matrix(1,0,0,1,0,0)" clip-path="url(#93296891225187clip-0)"/><line x1="215.6" y1="328" x2="215.6" y2="328" style="stroke-width: 1.0;stroke: rgb(128,128,128);stroke-opacity: 1.0;" transform="matrix(1,0,0,1,0,0)" clip-path="url(#93296891225187clip-0)"/><line x1="215.6" y1="328" x2="215.6" y2="330" style="stroke-width: 1.0;stroke: rgb(128,128,128);stroke-opacity: 1.0;" transform="matrix(1,0,0,1,0,0)" clip-path="url(#93296891225187clip-0)"/><line x1="239.91" y1="328" x2="239.91" y2="328" style="stroke-width: 1.0;stroke: rgb(128,128,128);stroke-opacity: 1.0;" transform="matrix(1,0,0,1,0,0)" clip-path="url(#93296891225187clip-0)"/><line x1="239.91" y1="328" x2="239.91" y2="330" style="stroke-width: 1.0;stroke: rgb(128,128,128);stroke-opacity: 1.0;" transform="matrix(1,0,0,1,0,0)" clip-path="url(#93296891225187clip-0)"/><line x1="264.22" y1="328" x2="264.22" y2="328" style="stroke-width: 1.0;stroke: rgb(128,128,128);stroke-opacity: 1.0;" transform="matrix(1,0,0,1,0,0)" clip-path="url(#93296891225187clip-0)"/><line x1="264.22" y1="328" x2="264.22" y2="330" style="stroke-width: 1.0;stroke: rgb(128,128,128);stroke-opacity: 1.0;" transform="matrix(1,0,0,1,0,0)" clip-path="url(#93296891225187clip-0)"/><line x1="288.53" y1="328" x2="288.53" y2="328" style="stroke-width: 1.0;stroke: rgb(128,128,128);stroke-opacity: 1.0;" transform="matrix(1,0,0,1,0,0)" clip-path="url(#93296891225187clip-0)"/><line x1="288.53" y1="328" x2="288.53" y2="330" style="stroke-width: 1.0;stroke: rgb(128,128,128);stroke-opacity: 1.0;" transform="matrix(1,0,0,1,0,0)" clip-path="url(#93296891225187clip-0)"/><line x1="312.84" y1="328" x2="312.84" y2="328" style="stroke-width: 1.0;stroke: rgb(128,128,128);stroke-opacity: 1.0;" transform="matrix(1,0,0,1,0,0)" clip-path="url(#93296891225187clip-0)"/><line x1="312.84" y1="328" x2="312.84" y2="330" style="stroke-width: 1.0;stroke: rgb(128,128,128);stroke-opacity: 1.0;" transform="matrix(1,0,0,1,0,0)" clip-path="url(#93296891225187clip-0)"/><line x1="337.16" y1="328" x2="337.16" y2="328" style="stroke-width: 1.0;stroke: rgb(128,128,128);stroke-opacity: 1.0;" transform="matrix(1,0,0,1,0,0)" clip-path="url(#93296891225187clip-0)"/><line x1="337.16" y1="328" x2="337.16" y2="330" style="stroke-width: 1.0;stroke: rgb(128,128,128);stroke-opacity: 1.0;" transform="matrix(1,0,0,1,0,0)" clip-path="url(#93296891225187clip-0)"/><line x1="361.47" y1="328" x2="361.47" y2="328" style="stroke-width: 1.0;stroke: rgb(128,128,128);stroke-opacity: 1.0;" transform="matrix(1,0,0,1,0,0)" clip-path="url(#93296891225187clip-0)"/><line x1="361.47" y1="328" x2="361.47" y2="330" style="stroke-width: 1.0;stroke: rgb(128,128,128);stroke-opacity: 1.0;" transform="matrix(1,0,0,1,0,0)" clip-path="url(#93296891225187clip-0)"/><line x1="385.78" y1="328" x2="385.78" y2="328" style="stroke-width: 1.0;stroke: rgb(128,128,128);stroke-opacity: 1.0;" transform="matrix(1,0,0,1,0,0)" clip-path="url(#93296891225187clip-0)"/><line x1="385.78" y1="328" x2="385.78" y2="330" style="stroke-width: 1.0;stroke: rgb(128,128,128);stroke-opacity: 1.0;" transform="matrix(1,0,0,1,0,0)" clip-path="url(#93296891225187clip-0)"/><line x1="410.09" y1="328" x2="410.09" y2="328" style="stroke-width: 1.0;stroke: rgb(128,128,128);stroke-opacity: 1.0;" transform="matrix(1,0,0,1,0,0)" clip-path="url(#93296891225187clip-0)"/><line x1="410.09" y1="328" x2="410.09" y2="330" style="stroke-width: 1.0;stroke: rgb(128,128,128);stroke-opacity: 1.0;" transform="matrix(1,0,0,1,0,0)" clip-path="url(#93296891225187clip-0)"/><line x1="434.4" y1="328" x2="434.4" y2="328" style="stroke-width: 1.0;stroke: rgb(128,128,128);stroke-opacity: 1.0;" transform="matrix(1,0,0,1,0,0)" clip-path="url(#93296891225187clip-0)"/><line x1="434.4" y1="328" x2="434.4" y2="330" style="stroke-width: 1.0;stroke: rgb(128,128,128);stroke-opacity: 1.0;" transform="matrix(1,0,0,1,0,0)" clip-path="url(#93296891225187clip-0)"/><line x1="458.71" y1="328" x2="458.71" y2="328" style="stroke-width: 1.0;stroke: rgb(128,128,128);stroke-opacity: 1.0;" transform="matrix(1,0,0,1,0,0)" clip-path="url(#93296891225187clip-0)"/><line x1="458.71" y1="328" x2="458.71" y2="330" style="stroke-width: 1.0;stroke: rgb(128,128,128);stroke-opacity: 1.0;" transform="matrix(1,0,0,1,0,0)" clip-path="url(#93296891225187clip-0)"/><line x1="483.02" y1="328" x2="483.02" y2="328" style="stroke-width: 1.0;stroke: rgb(128,128,128);stroke-opacity: 1.0;" transform="matrix(1,0,0,1,0,0)" clip-path="url(#93296891225187clip-0)"/><line x1="483.02" y1="328" x2="483.02" y2="330" style="stroke-width: 1.0;stroke: rgb(128,128,128);stroke-opacity: 1.0;" transform="matrix(1,0,0,1,0,0)" clip-path="url(#93296891225187clip-0)"/><line x1="507.33" y1="328" x2="507.33" y2="328" style="stroke-width: 1.0;stroke: rgb(128,128,128);stroke-opacity: 1.0;" transform="matrix(1,0,0,1,0,0)" clip-path="url(#93296891225187clip-0)"/><line x1="507.33" y1="328" x2="507.33" y2="330" style="stroke-width: 1.0;stroke: rgb(128,128,128);stroke-opacity: 1.0;" transform="matrix(1,0,0,1,0,0)" clip-path="url(#93296891225187clip-0)"/><line x1="531.64" y1="328" x2="531.64" y2="328" style="stroke-width: 1.0;stroke: rgb(128,128,128);stroke-opacity: 1.0;" transform="matrix(1,0,0,1,0,0)" clip-path="url(#93296891225187clip-0)"/><line x1="531.64" y1="328" x2="531.64" y2="330" style="stroke-width: 1.0;stroke: rgb(128,128,128);stroke-opacity: 1.0;" transform="matrix(1,0,0,1,0,0)" clip-path="url(#93296891225187clip-0)"/><line x1="555.96" y1="328" x2="555.96" y2="328" style="stroke-width: 1.0;stroke: rgb(128,128,128);stroke-opacity: 1.0;" transform="matrix(1,0,0,1,0,0)" clip-path="url(#93296891225187clip-0)"/><line x1="555.96" y1="328" x2="555.96" y2="330" style="stroke-width: 1.0;stroke: rgb(128,128,128);stroke-opacity: 1.0;" transform="matrix(1,0,0,1,0,0)" clip-path="url(#93296891225187clip-0)"/><g style="fill: rgb(0,0,0); fill-opacity: 1.0; stroke: none" transform="matrix(1,0,0,1,0,0)" clip-path="url(#93296891225187clip-0)"><path d="M 92.55 343.67 L 92.55 342.95 L 93.99 342.95 L 93.99 337.24 L 92.55 337.6 L 92.55 336.86 L 94.96 336.26 L 94.96 342.95 L 96.41 342.95 L 96.41 343.67 M 92.55 343.67"/></g><g style="fill: rgb(0,0,0); fill-opacity: 1.0; stroke: none" transform="matrix(1,0,0,1,0,0)" clip-path="url(#93296891225187clip-0)"><path d="M 116.19 343.67 L 116.19 342.82 Q 116.61 341.84 117.89 340.68 L 118.44 340.19 Q 119.5 339.23 119.5 338.28 Q 119.5 337.68 119.14 337.33 Q 118.77 336.98 118.14 336.98 Q 117.39 336.98 116.37 337.56 L 116.37 336.71 Q 117.33 336.26 118.28 336.26 Q 119.29 336.26 119.91 336.81 Q 120.52 337.35 120.52 338.26 Q 120.52 338.91 120.21 339.41 Q 119.9 339.91 119.06 340.63 L 118.69 340.95 Q 117.53 341.93 117.35 342.82 L 120.49 342.82 L 120.49 343.67 M 116.19 343.67"/></g><g style="fill: rgb(0,0,0); fill-opacity: 1.0; stroke: none" transform="matrix(1,0,0,1,0,0)" clip-path="url(#93296891225187clip-0)"><path d="M 140.68 343.61 L 140.68 342.72 Q 141.72 343.13 142.31 343.13 Q 143 343.13 143.43 342.72 Q 143.87 342.32 143.87 341.68 Q 143.87 340.16 141.73 340.16 L 141.35 340.16 L 141.35 339.51 L 141.69 339.5 Q 143.69 339.5 143.69 338.09 Q 143.69 336.98 142.37 336.98 Q 141.65 336.98 140.78 337.39 L 140.78 336.55 Q 141.63 336.26 142.44 336.26 Q 144.66 336.26 144.66 337.94 Q 144.66 339.21 143.15 339.75 Q 144.9 340.16 144.9 341.67 Q 144.9 342.69 144.22 343.27 Q 143.55 343.85 142.37 343.85 Q 141.7 343.85 140.68 343.61 M 140.68 343.61"/></g><g style="fill: rgb(0,0,0); fill-opacity: 1.0; stroke: none" transform="matrix(1,0,0,1,0,0)" clip-path="url(#93296891225187clip-0)"><path d="M 167.74 343.67 L 167.74 341.62 L 164.49 341.62 L 164.49 340.89 L 167.74 336.44 L 168.65 336.44 L 168.65 340.84 L 169.61 340.84 L 169.61 341.62 L 168.65 341.62 L 168.65 343.67 M 167.74 343.67 M 165.43 340.84 L 167.81 340.84 L 167.81 337.62 M 165.43 340.84"/></g><g style="fill: rgb(0,0,0); fill-opacity: 1.0; stroke: none" transform="matrix(1,0,0,1,0,0)" clip-path="url(#93296891225187clip-0)"><path d="M 189.51 343.7 L 189.51 342.84 Q 190.22 343.13 190.87 343.13 Q 191.59 343.13 191.99 342.71 Q 192.4 342.29 192.4 341.55 Q 192.4 339.92 190.16 339.92 Q 189.91 339.92 189.63 339.96 L 189.63 336.44 L 193.28 336.44 L 193.28 337.28 L 190.47 337.28 L 190.47 339.19 Q 191.86 339.19 192.64 339.83 Q 193.43 340.46 193.43 341.6 Q 193.43 342.65 192.72 343.25 Q 192.01 343.85 190.75 343.85 Q 190.2 343.85 189.51 343.7 M 189.51 343.7"/></g><g style="fill: rgb(0,0,0); fill-opacity: 1.0; stroke: none" transform="matrix(1,0,0,1,0,0)" clip-path="url(#93296891225187clip-0)"><path d="M 214.32 339.92 Q 215.01 339.03 216.05 339.03 Q 217 339.03 217.6 339.66 Q 218.21 340.28 218.21 341.27 Q 218.21 342.39 217.53 343.12 Q 216.85 343.85 215.81 343.85 Q 214.62 343.85 213.94 342.89 Q 213.27 341.92 213.27 340.22 Q 213.27 338.34 214.04 337.3 Q 214.82 336.26 216.22 336.26 Q 216.87 336.26 217.83 336.53 L 217.83 337.37 Q 216.81 336.98 216.16 336.98 Q 214.32 336.98 214.32 339.92 M 214.32 339.92 M 217.24 341.48 Q 217.24 340.66 216.87 340.19 Q 216.5 339.72 215.85 339.72 Q 215.24 339.72 214.8 340.13 Q 214.36 340.54 214.36 341.12 Q 214.36 342.03 214.78 342.58 Q 215.19 343.13 215.88 343.13 Q 216.5 343.13 216.87 342.68 Q 217.24 342.23 217.24 341.48 M 217.24 341.48"/></g><g style="fill: rgb(0,0,0); fill-opacity: 1.0; stroke: none" transform="matrix(1,0,0,1,0,0)" clip-path="url(#93296891225187clip-0)"><path d="M 238.42 343.67 Q 238.56 342.82 238.82 342.21 Q 239.08 341.59 239.74 340.52 L 241.72 337.34 L 238 337.34 L 238 336.44 L 242.63 336.44 L 242.63 337.34 Q 239.86 341.44 239.52 343.67 M 238.42 343.67"/></g><g style="fill: rgb(0,0,0); fill-opacity: 1.0; stroke: none" transform="matrix(1,0,0,1,0,0)" clip-path="url(#93296891225187clip-0)"><path d="M 263.52 339.73 Q 262.46 339 262.46 338.1 Q 262.46 337.28 263.06 336.77 Q 263.66 336.26 264.63 336.26 Q 265.52 336.26 266.08 336.69 Q 266.63 337.12 266.63 337.82 Q 266.63 338.87 265.28 339.73 Q 266.92 340.53 266.92 341.8 Q 266.92 342.71 266.23 343.28 Q 265.55 343.85 264.46 343.85 Q 263.4 343.85 262.74 343.31 Q 262.09 342.77 262.09 341.89 Q 262.09 340.59 263.52 339.73 M 263.52 339.73 M 264.75 339.43 Q 265.76 338.77 265.76 337.95 Q 265.76 337.52 265.42 337.25 Q 265.08 336.98 264.53 336.98 Q 264 336.98 263.67 337.24 Q 263.34 337.51 263.34 337.92 Q 263.34 338.33 263.64 338.65 Q 263.94 338.97 264.75 339.43 M 264.75 339.43 M 264.04 340.12 Q 263.46 340.57 263.26 340.91 Q 263.05 341.24 263.05 341.74 Q 263.05 342.36 263.45 342.74 Q 263.85 343.13 264.5 343.13 Q 265.13 343.13 265.53 342.8 Q 265.93 342.47 265.93 341.95 Q 265.93 341.53 265.68 341.24 Q 265.44 340.95 264.73 340.53 M 264.04 340.12"/></g><g style="fill: rgb(0,0,0); fill-opacity: 1.0; stroke: none" transform="matrix(1,0,0,1,0,0)" clip-path="url(#93296891225187clip-0)"><path d="M 286.67 343.62 L 286.67 342.81 Q 287.59 343.13 288.23 343.13 Q 289.13 343.13 289.64 342.36 Q 290.14 341.6 290.14 340.24 Q 289.41 341.14 288.48 341.14 Q 287.56 341.14 286.93 340.47 Q 286.3 339.8 286.3 338.83 Q 286.3 337.72 286.97 336.99 Q 287.65 336.26 288.67 336.26 Q 289.85 336.26 290.53 337.21 Q 291.21 338.15 291.21 339.79 Q 291.21 341.66 290.38 342.75 Q 289.55 343.85 288.14 343.85 Q 287.57 343.85 286.67 343.62 M 286.67 343.62 M 287.26 338.64 Q 287.26 339.48 287.63 339.96 Q 288 340.45 288.65 340.45 Q 289.26 340.45 289.7 340.03 Q 290.13 339.62 290.13 339.03 Q 290.13 338.11 289.71 337.54 Q 289.29 336.98 288.61 336.98 Q 287.98 336.98 287.62 337.43 Q 287.26 337.87 287.26 338.64 M 287.26 338.64"/></g><g style="fill: rgb(0,0,0); fill-opacity: 1.0; stroke: none" transform="matrix(1,0,0,1,0,0)" clip-path="url(#93296891225187clip-0)"><path d="M 308.35 343.67 L 308.35 342.95 L 309.79 342.95 L 309.79 337.24 L 308.35 337.6 L 308.35 336.86 L 310.76 336.26 L 310.76 342.95 L 312.21 342.95 L 312.21 343.67 M 308.35 343.67 M 315.98 343.85 Q 314.86 343.85 314.17 342.8 Q 313.48 341.74 313.48 340.05 Q 313.48 338.34 314.18 337.3 Q 314.87 336.26 316.01 336.26 Q 317.15 336.26 317.84 337.3 Q 318.54 338.34 318.54 340.04 Q 318.54 341.77 317.84 342.81 Q 317.15 343.85 315.98 343.85 M 315.98 343.85 M 315.99 343.13 Q 317.52 343.13 317.52 340.02 Q 317.52 336.98 316.01 336.98 Q 314.5 336.98 314.5 340.05 Q 314.5 343.13 315.99 343.13 M 315.99 343.13"/></g><g style="fill: rgb(0,0,0); fill-opacity: 1.0; stroke: none" transform="matrix(1,0,0,1,0,0)" clip-path="url(#93296891225187clip-0)"><path d="M 332.66 343.67 L 332.66 342.95 L 334.1 342.95 L 334.1 337.24 L 332.66 337.6 L 332.66 336.86 L 335.07 336.26 L 335.07 342.95 L 336.52 342.95 L 336.52 343.67 M 332.66 343.67 M 338.66 343.67 L 338.66 342.95 L 340.1 342.95 L 340.1 337.24 L 338.66 337.6 L 338.66 336.86 L 341.07 336.26 L 341.07 342.95 L 342.52 342.95 L 342.52 343.67 M 338.66 343.67"/></g><g style="fill: rgb(0,0,0); fill-opacity: 1.0; stroke: none" transform="matrix(1,0,0,1,0,0)" clip-path="url(#93296891225187clip-0)"><path d="M 356.97 343.67 L 356.97 342.95 L 358.42 342.95 L 358.42 337.24 L 356.97 337.6 L 356.97 336.86 L 359.38 336.26 L 359.38 342.95 L 360.83 342.95 L 360.83 343.67 M 356.97 343.67 M 362.3 343.67 L 362.3 342.82 Q 362.72 341.84 364 340.68 L 364.55 340.19 Q 365.61 339.23 365.61 338.28 Q 365.61 337.68 365.25 337.33 Q 364.88 336.98 364.25 336.98 Q 363.5 336.98 362.48 337.56 L 362.48 336.71 Q 363.44 336.26 364.39 336.26 Q 365.4 336.26 366.02 336.81 Q 366.63 337.35 366.63 338.26 Q 366.63 338.91 366.32 339.41 Q 366.01 339.91 365.17 340.63 L 364.8 340.95 Q 363.64 341.93 363.46 342.82 L 366.6 342.82 L 366.6 343.67 M 362.3 343.67"/></g><g style="fill: rgb(0,0,0); fill-opacity: 1.0; stroke: none" transform="matrix(1,0,0,1,0,0)" clip-path="url(#93296891225187clip-0)"><path d="M 381.28 343.67 L 381.28 342.95 L 382.73 342.95 L 382.73 337.24 L 381.28 337.6 L 381.28 336.86 L 383.69 336.26 L 383.69 342.95 L 385.14 342.95 L 385.14 343.67 M 381.28 343.67 M 386.79 343.61 L 386.79 342.72 Q 387.83 343.13 388.42 343.13 Q 389.11 343.13 389.54 342.72 Q 389.98 342.32 389.98 341.68 Q 389.98 340.16 387.84 340.16 L 387.46 340.16 L 387.46 339.51 L 387.8 339.5 Q 389.8 339.5 389.8 338.09 Q 389.8 336.98 388.48 336.98 Q 387.76 336.98 386.89 337.39 L 386.89 336.55 Q 387.75 336.26 388.55 336.26 Q 390.77 336.26 390.77 337.94 Q 390.77 339.21 389.26 339.75 Q 391.01 340.16 391.01 341.67 Q 391.01 342.69 390.33 343.27 Q 389.66 343.85 388.48 343.85 Q 387.81 343.85 386.79 343.61 M 386.79 343.61"/></g><g style="fill: rgb(0,0,0); fill-opacity: 1.0; stroke: none" transform="matrix(1,0,0,1,0,0)" clip-path="url(#93296891225187clip-0)"><path d="M 405.59 343.67 L 405.59 342.95 L 407.04 342.95 L 407.04 337.24 L 405.59 337.6 L 405.59 336.86 L 408 336.26 L 408 342.95 L 409.45 342.95 L 409.45 343.67 M 405.59 343.67 M 413.85 343.67 L 413.85 341.62 L 410.6 341.62 L 410.6 340.89 L 413.85 336.44 L 414.76 336.44 L 414.76 340.84 L 415.72 340.84 L 415.72 341.62 L 414.76 341.62 L 414.76 343.67 M 413.85 343.67 M 411.54 340.84 L 413.92 340.84 L 413.92 337.62 M 411.54 340.84"/></g><g style="fill: rgb(0,0,0); fill-opacity: 1.0; stroke: none" transform="matrix(1,0,0,1,0,0)" clip-path="url(#93296891225187clip-0)"><path d="M 429.9 343.67 L 429.9 342.95 L 431.35 342.95 L 431.35 337.24 L 429.9 337.6 L 429.9 336.86 L 432.32 336.26 L 432.32 342.95 L 433.76 342.95 L 433.76 343.67 M 429.9 343.67 M 435.62 343.7 L 435.62 342.84 Q 436.33 343.13 436.98 343.13 Q 437.7 343.13 438.1 342.71 Q 438.51 342.29 438.51 341.55 Q 438.51 339.92 436.27 339.92 Q 436.02 339.92 435.74 339.96 L 435.74 336.44 L 439.39 336.44 L 439.39 337.28 L 436.58 337.28 L 436.58 339.19 Q 437.97 339.19 438.76 339.83 Q 439.54 340.46 439.54 341.6 Q 439.54 342.65 438.83 343.25 Q 438.12 343.85 436.86 343.85 Q 436.31 343.85 435.62 343.7 M 435.62 343.7"/></g><g style="fill: rgb(0,0,0); fill-opacity: 1.0; stroke: none" transform="matrix(1,0,0,1,0,0)" clip-path="url(#93296891225187clip-0)"><path d="M 454.21 343.67 L 454.21 342.95 L 455.66 342.95 L 455.66 337.24 L 454.21 337.6 L 454.21 336.86 L 456.63 336.26 L 456.63 342.95 L 458.07 342.95 L 458.07 343.67 M 454.21 343.67 M 460.43 339.92 Q 461.12 339.03 462.16 339.03 Q 463.11 339.03 463.71 339.66 Q 464.32 340.28 464.32 341.27 Q 464.32 342.39 463.64 343.12 Q 462.96 343.85 461.92 343.85 Q 460.73 343.85 460.05 342.89 Q 459.38 341.92 459.38 340.22 Q 459.38 338.34 460.15 337.3 Q 460.93 336.26 462.33 336.26 Q 462.98 336.26 463.95 336.53 L 463.95 337.37 Q 462.92 336.98 462.28 336.98 Q 460.43 336.98 460.43 339.92 M 460.43 339.92 M 463.35 341.48 Q 463.35 340.66 462.98 340.19 Q 462.61 339.72 461.96 339.72 Q 461.35 339.72 460.91 340.13 Q 460.47 340.54 460.47 341.12 Q 460.47 342.03 460.89 342.58 Q 461.3 343.13 461.99 343.13 Q 462.61 343.13 462.98 342.68 Q 463.35 342.23 463.35 341.48 M 463.35 341.48"/></g><g style="fill: rgb(0,0,0); fill-opacity: 1.0; stroke: none" transform="matrix(1,0,0,1,0,0)" clip-path="url(#93296891225187clip-0)"><path d="M 478.53 343.67 L 478.53 342.95 L 479.97 342.95 L 479.97 337.24 L 478.53 337.6 L 478.53 336.86 L 480.94 336.26 L 480.94 342.95 L 482.38 342.95 L 482.38 343.67 M 478.53 343.67 M 484.53 343.67 Q 484.67 342.82 484.93 342.21 Q 485.19 341.59 485.85 340.52 L 487.83 337.34 L 484.11 337.34 L 484.11 336.44 L 488.74 336.44 L 488.74 337.34 Q 485.97 341.44 485.63 343.67 M 484.53 343.67"/></g><g style="fill: rgb(0,0,0); fill-opacity: 1.0; stroke: none" transform="matrix(1,0,0,1,0,0)" clip-path="url(#93296891225187clip-0)"><path d="M 502.84 343.67 L 502.84 342.95 L 504.28 342.95 L 504.28 337.24 L 502.84 337.6 L 502.84 336.86 L 505.25 336.26 L 505.25 342.95 L 506.69 342.95 L 506.69 343.67 M 502.84 343.67 M 509.63 339.73 Q 508.57 339 508.57 338.1 Q 508.57 337.28 509.17 336.77 Q 509.77 336.26 510.74 336.26 Q 511.63 336.26 512.19 336.69 Q 512.74 337.12 512.74 337.82 Q 512.74 338.87 511.4 339.73 Q 513.03 340.53 513.03 341.8 Q 513.03 342.71 512.35 343.28 Q 511.66 343.85 510.58 343.85 Q 509.51 343.85 508.85 343.31 Q 508.2 342.77 508.2 341.89 Q 508.2 340.59 509.63 339.73 M 509.63 339.73 M 510.86 339.43 Q 511.87 338.77 511.87 337.95 Q 511.87 337.52 511.53 337.25 Q 511.2 336.98 510.64 336.98 Q 510.11 336.98 509.78 337.24 Q 509.45 337.51 509.45 337.92 Q 509.45 338.33 509.75 338.65 Q 510.05 338.97 510.86 339.43 M 510.86 339.43 M 510.16 340.12 Q 509.57 340.57 509.37 340.91 Q 509.16 341.24 509.16 341.74 Q 509.16 342.36 509.56 342.74 Q 509.96 343.13 510.61 343.13 Q 511.24 343.13 511.64 342.8 Q 512.04 342.47 512.04 341.95 Q 512.04 341.53 511.79 341.24 Q 511.55 340.95 510.84 340.53 M 510.16 340.12"/></g><g style="fill: rgb(0,0,0); fill-opacity: 1.0; stroke: none" transform="matrix(1,0,0,1,0,0)" clip-path="url(#93296891225187clip-0)"><path d="M 527.15 343.67 L 527.15 342.95 L 528.59 342.95 L 528.59 337.24 L 527.15 337.6 L 527.15 336.86 L 529.56 336.26 L 529.56 342.95 L 531.01 342.95 L 531.01 343.67 M 527.15 343.67 M 532.78 343.62 L 532.78 342.81 Q 533.7 343.13 534.34 343.13 Q 535.24 343.13 535.75 342.36 Q 536.25 341.6 536.25 340.24 Q 535.52 341.14 534.59 341.14 Q 533.68 341.14 533.04 340.47 Q 532.41 339.8 532.41 338.83 Q 532.41 337.72 533.08 336.99 Q 533.76 336.26 534.78 336.26 Q 535.96 336.26 536.64 337.21 Q 537.32 338.15 537.32 339.79 Q 537.32 341.66 536.49 342.75 Q 535.66 343.85 534.25 343.85 Q 533.68 343.85 532.78 343.62 M 532.78 343.62 M 533.37 338.64 Q 533.37 339.48 533.74 339.96 Q 534.11 340.45 534.76 340.45 Q 535.37 340.45 535.81 340.03 Q 536.24 339.62 536.24 339.03 Q 536.24 338.11 535.82 337.54 Q 535.4 336.98 534.72 336.98 Q 534.1 336.98 533.73 337.43 Q 533.37 337.87 533.37 338.64 M 533.37 338.64"/></g><g style="fill: rgb(0,0,0); fill-opacity: 1.0; stroke: none" transform="matrix(1,0,0,1,0,0)" clip-path="url(#93296891225187clip-0)"><path d="M 550.79 343.67 L 550.79 342.82 Q 551.21 341.84 552.48 340.68 L 553.04 340.19 Q 554.1 339.23 554.1 338.28 Q 554.1 337.68 553.74 337.33 Q 553.37 336.98 552.74 336.98 Q 551.99 336.98 550.97 337.56 L 550.97 336.71 Q 551.93 336.26 552.87 336.26 Q 553.89 336.26 554.51 336.81 Q 555.12 337.35 555.12 338.26 Q 555.12 338.91 554.81 339.41 Q 554.5 339.91 553.66 340.63 L 553.29 340.95 Q 552.13 341.93 551.95 342.82 L 555.09 342.82 L 555.09 343.67 M 550.79 343.67 M 559.09 343.85 Q 557.97 343.85 557.28 342.8 Q 556.59 341.74 556.59 340.05 Q 556.59 338.34 557.29 337.3 Q 557.98 336.26 559.12 336.26 Q 560.26 336.26 560.95 337.3 Q 561.65 338.34 561.65 340.04 Q 561.65 341.77 560.95 342.81 Q 560.26 343.85 559.09 343.85 M 559.09 343.85 M 559.1 343.13 Q 560.63 343.13 560.63 340.02 Q 560.63 336.98 559.12 336.98 Q 557.62 336.98 557.62 340.05 Q 557.62 343.13 559.1 343.13 M 559.1 343.13"/></g><g style="fill: rgb(0,0,0); fill-opacity: 1.0; stroke: none" transform="matrix(1,0,0,1,0,0)" clip-path="url(#93296891225187clip-0)"><path d="M 311.68 364.38 L 311.68 356.63 L 308.61 356.63 L 308.61 355.71 L 315.99 355.71 L 315.99 356.63 L 312.91 356.63 L 312.91 364.38 M 311.68 364.38 M 321.63 364.38 L 321.63 363.18 Q 320.71 364.53 319.4 364.53 Q 318.57 364.53 318.08 364 Q 317.58 363.48 317.58 362.59 L 317.58 358.02 L 318.74 358.02 L 318.74 362.21 Q 318.74 362.93 318.95 363.23 Q 319.15 363.53 319.64 363.53 Q 320.7 363.53 321.63 362.14 L 321.63 358.02 L 322.79 358.02 L 322.79 364.38 M 321.63 364.38 M 325.65 366.69 L 325.65 358.02 L 326.81 358.02 L 326.81 359.21 Q 327.52 357.88 328.94 357.88 Q 330.08 357.88 330.74 358.71 Q 331.4 359.55 331.4 361 Q 331.4 362.59 330.66 363.56 Q 329.91 364.53 328.69 364.53 Q 327.56 364.53 326.81 363.66 L 326.81 366.69 M 325.65 366.69 M 326.81 362.86 Q 327.7 363.66 328.51 363.66 Q 330.17 363.66 330.17 361.12 Q 330.17 358.88 328.7 358.88 Q 327.73 358.88 326.81 359.93 M 326.81 362.86 M 338.32 364.17 Q 337.16 364.53 336.33 364.53 Q 334.93 364.53 334.04 363.59 Q 333.15 362.66 333.15 361.17 Q 333.15 359.72 333.93 358.79 Q 334.71 357.87 335.93 357.87 Q 337.09 357.87 337.72 358.69 Q 338.35 359.51 338.35 361.02 L 338.34 361.38 L 334.33 361.38 Q 334.58 363.65 336.55 363.65 Q 337.27 363.65 338.32 363.26 M 338.32 364.17 M 334.38 360.51 L 337.19 360.51 Q 337.19 358.74 335.86 358.74 Q 334.53 358.74 334.38 360.51 M 334.38 360.51 M 340.65 364.38 L 340.65 355.13 L 341.81 355.13 L 341.81 364.38 M 340.65 364.38"/></g><line x1="58" y1="23" x2="58" y2="328" style="stroke-width: 1.0;stroke: rgb(128,128,128);stroke-opacity: 1.0;" transform="matrix(1,0,0,1,0,0)" clip-path="url(#93296891225187clip-0)"/><g style="fill: rgb(0,0,0); fill-opacity: 1.0; stroke: none" transform="matrix(1,0,0,1,0,0)" clip-path="url(#93296891225187clip-0)"><path d="M 34.13 331.96 Q 33.02 331.96 32.33 330.91 Q 31.63 329.86 31.63 328.16 Q 31.63 326.45 32.33 325.41 Q 33.03 324.37 34.16 324.37 Q 35.3 324.37 36 325.41 Q 36.69 326.45 36.69 328.15 Q 36.69 329.88 36 330.92 Q 35.3 331.96 34.13 331.96 M 34.13 331.96 M 34.14 331.24 Q 35.67 331.24 35.67 328.13 Q 35.67 325.09 34.16 325.09 Q 32.66 325.09 32.66 328.16 Q 32.66 331.24 34.14 331.24 M 34.14 331.24 M 37.98 331.78 L 37.98 330.57 L 39.18 330.57 L 39.18 331.78 M 37.98 331.78 M 43.13 331.96 Q 42.02 331.96 41.33 330.91 Q 40.63 329.86 40.63 328.16 Q 40.63 326.45 41.33 325.41 Q 42.03 324.37 43.16 324.37 Q 44.3 324.37 45 325.41 Q 45.69 326.45 45.69 328.15 Q 45.69 329.88 45 330.92 Q 44.3 331.96 43.13 331.96 M 43.13 331.96 M 43.14 331.24 Q 44.67 331.24 44.67 328.13 Q 44.67 325.09 43.16 325.09 Q 41.66 325.09 41.66 328.16 Q 41.66 331.24 43.14 331.24 M 43.14 331.24 M 49.13 331.96 Q 48.02 331.96 47.33 330.91 Q 46.63 329.86 46.63 328.16 Q 46.63 326.45 47.33 325.41 Q 48.03 324.37 49.16 324.37 Q 50.3 324.37 51 325.41 Q 51.69 326.45 51.69 328.15 Q 51.69 329.88 51 330.92 Q 50.3 331.96 49.13 331.96 M 49.13 331.96 M 49.14 331.24 Q 50.67 331.24 50.67 328.13 Q 50.67 325.09 49.16 325.09 Q 47.66 325.09 47.66 328.16 Q 47.66 331.24 49.14 331.24 M 49.14 331.24"/></g><line x1="56" y1="328" x2="58" y2="328" style="stroke-width: 1.0;stroke: rgb(128,128,128);stroke-opacity: 1.0;" transform="matrix(1,0,0,1,0,0)" clip-path="url(#93296891225187clip-0)"/><g style="fill: rgb(0,0,0); fill-opacity: 1.0; stroke: none" transform="matrix(1,0,0,1,0,0)" clip-path="url(#93296891225187clip-0)"><path d="M 34.13 315.9 Q 33.02 315.9 32.33 314.84 Q 31.63 313.79 31.63 312.1 Q 31.63 310.39 32.33 309.35 Q 33.03 308.31 34.16 308.31 Q 35.3 308.31 36 309.35 Q 36.69 310.39 36.69 312.08 Q 36.69 313.82 36 314.86 Q 35.3 315.9 34.13 315.9 M 34.13 315.9 M 34.14 315.17 Q 35.67 315.17 35.67 312.07 Q 35.67 309.03 34.16 309.03 Q 32.66 309.03 32.66 312.1 Q 32.66 315.17 34.14 315.17 M 34.14 315.17 M 37.98 315.72 L 37.98 314.51 L 39.18 314.51 L 39.18 315.72 M 37.98 315.72 M 43.13 315.9 Q 42.02 315.9 41.33 314.84 Q 40.63 313.79 40.63 312.1 Q 40.63 310.39 41.33 309.35 Q 42.03 308.31 43.16 308.31 Q 44.3 308.31 45 309.35 Q 45.69 310.39 45.69 312.08 Q 45.69 313.82 45 314.86 Q 44.3 315.9 43.13 315.9 M 43.13 315.9 M 43.14 315.17 Q 44.67 315.17 44.67 312.07 Q 44.67 309.03 43.16 309.03 Q 41.66 309.03 41.66 312.1 Q 41.66 315.17 43.14 315.17 M 43.14 315.17 M 47.5 315.72 L 47.5 314.99 L 48.95 314.99 L 48.95 309.29 L 47.5 309.65 L 47.5 308.91 L 49.92 308.31 L 49.92 314.99 L 51.36 314.99 L 51.36 315.72 M 47.5 315.72"/></g><line x1="56" y1="311.94" x2="58" y2="311.94" style="stroke-width: 1.0;stroke: rgb(128,128,128);stroke-opacity: 1.0;" transform="matrix(1,0,0,1,0,0)" clip-path="url(#93296891225187clip-0)"/><g style="fill: rgb(0,0,0); fill-opacity: 1.0; stroke: none" transform="matrix(1,0,0,1,0,0)" clip-path="url(#93296891225187clip-0)"><path d="M 34.13 299.83 Q 33.02 299.83 32.33 298.78 Q 31.63 297.73 31.63 296.03 Q 31.63 294.32 32.33 293.28 Q 33.03 292.24 34.16 292.24 Q 35.3 292.24 36 293.28 Q 36.69 294.32 36.69 296.02 Q 36.69 297.76 36 298.8 Q 35.3 299.83 34.13 299.83 M 34.13 299.83 M 34.14 299.11 Q 35.67 299.11 35.67 296 Q 35.67 292.97 34.16 292.97 Q 32.66 292.97 32.66 296.03 Q 32.66 299.11 34.14 299.11 M 34.14 299.11 M 37.98 299.65 L 37.98 298.45 L 39.18 298.45 L 39.18 299.65 M 37.98 299.65 M 43.13 299.83 Q 42.02 299.83 41.33 298.78 Q 40.63 297.73 40.63 296.03 Q 40.63 294.32 41.33 293.28 Q 42.03 292.24 43.16 292.24 Q 44.3 292.24 45 293.28 Q 45.69 294.32 45.69 296.02 Q 45.69 297.76 45 298.8 Q 44.3 299.83 43.13 299.83 M 43.13 299.83 M 43.14 299.11 Q 44.67 299.11 44.67 296 Q 44.67 292.97 43.16 292.97 Q 41.66 292.97 41.66 296.03 Q 41.66 299.11 43.14 299.11 M 43.14 299.11 M 46.83 299.65 L 46.83 298.81 Q 47.25 297.83 48.53 296.67 L 49.08 296.18 Q 50.15 295.21 50.15 294.27 Q 50.15 293.66 49.78 293.31 Q 49.42 292.97 48.78 292.97 Q 48.03 292.97 47.01 293.55 L 47.01 292.7 Q 47.97 292.24 48.92 292.24 Q 49.94 292.24 50.55 292.79 Q 51.17 293.34 51.17 294.24 Q 51.17 294.89 50.86 295.39 Q 50.55 295.9 49.7 296.61 L 49.33 296.93 Q 48.17 297.91 47.99 298.81 L 51.13 298.81 L 51.13 299.65 M 46.83 299.65"/></g><line x1="56" y1="295.87" x2="58" y2="295.87" style="stroke-width: 1.0;stroke: rgb(128,128,128);stroke-opacity: 1.0;" transform="matrix(1,0,0,1,0,0)" clip-path="url(#93296891225187clip-0)"/><g style="fill: rgb(0,0,0); fill-opacity: 1.0; stroke: none" transform="matrix(1,0,0,1,0,0)" clip-path="url(#93296891225187clip-0)"><path d="M 34.13 283.77 Q 33.02 283.77 32.33 282.72 Q 31.63 281.66 31.63 279.97 Q 31.63 278.26 32.33 277.22 Q 33.03 276.18 34.16 276.18 Q 35.3 276.18 36 277.22 Q 36.69 278.26 36.69 279.96 Q 36.69 281.69 36 282.73 Q 35.3 283.77 34.13 283.77 M 34.13 283.77 M 34.14 283.05 Q 35.67 283.05 35.67 279.94 Q 35.67 276.9 34.16 276.9 Q 32.66 276.9 32.66 279.97 Q 32.66 283.05 34.14 283.05 M 34.14 283.05 M 37.98 283.59 L 37.98 282.38 L 39.18 282.38 L 39.18 283.59 M 37.98 283.59 M 43.13 283.77 Q 42.02 283.77 41.33 282.72 Q 40.63 281.66 40.63 279.97 Q 40.63 278.26 41.33 277.22 Q 42.03 276.18 43.16 276.18 Q 44.3 276.18 45 277.22 Q 45.69 278.26 45.69 279.96 Q 45.69 281.69 45 282.73 Q 44.3 283.77 43.13 283.77 M 43.13 283.77 M 43.14 283.05 Q 44.67 283.05 44.67 279.94 Q 44.67 276.9 43.16 276.9 Q 41.66 276.9 41.66 279.97 Q 41.66 283.05 43.14 283.05 M 43.14 283.05 M 47.02 283.53 L 47.02 282.64 Q 48.05 283.05 48.65 283.05 Q 49.33 283.05 49.77 282.64 Q 50.2 282.24 50.2 281.6 Q 50.2 280.08 48.07 280.08 L 47.68 280.08 L 47.68 279.43 L 48.02 279.42 Q 50.02 279.42 50.02 278.01 Q 50.02 276.9 48.71 276.9 Q 47.98 276.9 47.11 277.31 L 47.11 276.47 Q 47.97 276.18 48.77 276.18 Q 50.99 276.18 50.99 277.86 Q 50.99 279.13 49.48 279.67 Q 51.23 280.08 51.23 281.59 Q 51.23 282.61 50.56 283.19 Q 49.88 283.77 48.71 283.77 Q 48.04 283.77 47.02 283.53 M 47.02 283.53"/></g><line x1="56" y1="279.81" x2="58" y2="279.81" style="stroke-width: 1.0;stroke: rgb(128,128,128);stroke-opacity: 1.0;" transform="matrix(1,0,0,1,0,0)" clip-path="url(#93296891225187clip-0)"/><g style="fill: rgb(0,0,0); fill-opacity: 1.0; stroke: none" transform="matrix(1,0,0,1,0,0)" clip-path="url(#93296891225187clip-0)"><path d="M 34.13 267.71 Q 33.02 267.71 32.33 266.65 Q 31.63 265.6 31.63 263.91 Q 31.63 262.2 32.33 261.16 Q 33.03 260.12 34.16 260.12 Q 35.3 260.12 36 261.16 Q 36.69 262.2 36.69 263.89 Q 36.69 265.63 36 266.67 Q 35.3 267.71 34.13 267.71 M 34.13 267.71 M 34.14 266.98 Q 35.67 266.98 35.67 263.88 Q 35.67 260.84 34.16 260.84 Q 32.66 260.84 32.66 263.91 Q 32.66 266.98 34.14 266.98 M 34.14 266.98 M 37.98 267.52 L 37.98 266.32 L 39.18 266.32 L 39.18 267.52 M 37.98 267.52 M 43.13 267.71 Q 42.02 267.71 41.33 266.65 Q 40.63 265.6 40.63 263.91 Q 40.63 262.2 41.33 261.16 Q 42.03 260.12 43.16 260.12 Q 44.3 260.12 45 261.16 Q 45.69 262.2 45.69 263.89 Q 45.69 265.63 45 266.67 Q 44.3 267.71 43.13 267.71 M 43.13 267.71 M 43.14 266.98 Q 44.67 266.98 44.67 263.88 Q 44.67 260.84 43.16 260.84 Q 41.66 260.84 41.66 263.91 Q 41.66 266.98 43.14 266.98 M 43.14 266.98 M 49.76 267.52 L 49.76 265.48 L 46.51 265.48 L 46.51 264.75 L 49.76 260.3 L 50.67 260.3 L 50.67 264.69 L 51.63 264.69 L 51.63 265.48 L 50.67 265.48 L 50.67 267.52 M 49.76 267.52 M 47.46 264.69 L 49.83 264.69 L 49.83 261.48 M 47.46 264.69"/></g><line x1="56" y1="263.75" x2="58" y2="263.75" style="stroke-width: 1.0;stroke: rgb(128,128,128);stroke-opacity: 1.0;" transform="matrix(1,0,0,1,0,0)" clip-path="url(#93296891225187clip-0)"/><g style="fill: rgb(0,0,0); fill-opacity: 1.0; stroke: none" transform="matrix(1,0,0,1,0,0)" clip-path="url(#93296891225187clip-0)"><path d="M 34.13 251.64 Q 33.02 251.64 32.33 250.59 Q 31.63 249.54 31.63 247.84 Q 31.63 246.13 32.33 245.09 Q 33.03 244.05 34.16 244.05 Q 35.3 244.05 36 245.09 Q 36.69 246.13 36.69 247.83 Q 36.69 249.57 36 250.6 Q 35.3 251.64 34.13 251.64 M 34.13 251.64 M 34.14 250.92 Q 35.67 250.92 35.67 247.81 Q 35.67 244.78 34.16 244.78 Q 32.66 244.78 32.66 247.84 Q 32.66 250.92 34.14 250.92 M 34.14 250.92 M 37.98 251.46 L 37.98 250.25 L 39.18 250.25 L 39.18 251.46 M 37.98 251.46 M 43.13 251.64 Q 42.02 251.64 41.33 250.59 Q 40.63 249.54 40.63 247.84 Q 40.63 246.13 41.33 245.09 Q 42.03 244.05 43.16 244.05 Q 44.3 244.05 45 245.09 Q 45.69 246.13 45.69 247.83 Q 45.69 249.57 45 250.6 Q 44.3 251.64 43.13 251.64 M 43.13 251.64 M 43.14 250.92 Q 44.67 250.92 44.67 247.81 Q 44.67 244.78 43.16 244.78 Q 41.66 244.78 41.66 247.84 Q 41.66 250.92 43.14 250.92 M 43.14 250.92 M 47.22 251.49 L 47.22 250.63 Q 47.93 250.92 48.58 250.92 Q 49.3 250.92 49.7 250.5 Q 50.11 250.08 50.11 249.34 Q 50.11 247.72 47.87 247.72 Q 47.62 247.72 47.34 247.75 L 47.34 244.23 L 51 244.23 L 51 245.07 L 48.18 245.07 L 48.18 246.98 Q 49.57 246.98 50.36 247.62 Q 51.14 248.26 51.14 249.39 Q 51.14 250.45 50.43 251.04 Q 49.72 251.64 48.46 251.64 Q 47.91 251.64 47.22 251.49 M 47.22 251.49"/></g><line x1="56" y1="247.68" x2="58" y2="247.68" style="stroke-width: 1.0;stroke: rgb(128,128,128);stroke-opacity: 1.0;" transform="matrix(1,0,0,1,0,0)" clip-path="url(#93296891225187clip-0)"/><g style="fill: rgb(0,0,0); fill-opacity: 1.0; stroke: none" transform="matrix(1,0,0,1,0,0)" clip-path="url(#93296891225187clip-0)"><path d="M 34.13 235.58 Q 33.02 235.58 32.33 234.53 Q 31.63 233.47 31.63 231.78 Q 31.63 230.07 32.33 229.03 Q 33.03 227.99 34.16 227.99 Q 35.3 227.99 36 229.03 Q 36.69 230.07 36.69 231.76 Q 36.69 233.5 36 234.54 Q 35.3 235.58 34.13 235.58 M 34.13 235.58 M 34.14 234.86 Q 35.67 234.86 35.67 231.75 Q 35.67 228.71 34.16 228.71 Q 32.66 228.71 32.66 231.78 Q 32.66 234.86 34.14 234.86 M 34.14 234.86 M 37.98 235.4 L 37.98 234.19 L 39.18 234.19 L 39.18 235.4 M 37.98 235.4 M 43.13 235.58 Q 42.02 235.58 41.33 234.53 Q 40.63 233.47 40.63 231.78 Q 40.63 230.07 41.33 229.03 Q 42.03 227.99 43.16 227.99 Q 44.3 227.99 45 229.03 Q 45.69 230.07 45.69 231.76 Q 45.69 233.5 45 234.54 Q 44.3 235.58 43.13 235.58 M 43.13 235.58 M 43.14 234.86 Q 44.67 234.86 44.67 231.75 Q 44.67 228.71 43.16 228.71 Q 41.66 228.71 41.66 231.78 Q 41.66 234.86 43.14 234.86 M 43.14 234.86 M 47.72 231.65 Q 48.41 230.76 49.45 230.76 Q 50.4 230.76 51 231.39 Q 51.61 232.01 51.61 232.99 Q 51.61 234.12 50.93 234.85 Q 50.25 235.58 49.21 235.58 Q 48.02 235.58 47.34 234.62 Q 46.67 233.65 46.67 231.95 Q 46.67 230.07 47.44 229.03 Q 48.22 227.99 49.62 227.99 Q 50.27 227.99 51.23 228.26 L 51.23 229.1 Q 50.21 228.71 49.56 228.71 Q 47.72 228.71 47.72 231.65 M 47.72 231.65 M 50.64 233.21 Q 50.64 232.39 50.27 231.92 Q 49.9 231.45 49.25 231.45 Q 48.64 231.45 48.2 231.86 Q 47.76 232.27 47.76 232.85 Q 47.76 233.76 48.18 234.31 Q 48.59 234.86 49.28 234.86 Q 49.9 234.86 50.27 234.41 Q 50.64 233.96 50.64 233.21 M 50.64 233.21"/></g><line x1="56" y1="231.62" x2="58" y2="231.62" style="stroke-width: 1.0;stroke: rgb(128,128,128);stroke-opacity: 1.0;" transform="matrix(1,0,0,1,0,0)" clip-path="url(#93296891225187clip-0)"/><g style="fill: rgb(0,0,0); fill-opacity: 1.0; stroke: none" transform="matrix(1,0,0,1,0,0)" clip-path="url(#93296891225187clip-0)"><path d="M 34.13 219.51 Q 33.02 219.51 32.33 218.46 Q 31.63 217.41 31.63 215.72 Q 31.63 214.01 32.33 212.97 Q 33.03 211.93 34.16 211.93 Q 35.3 211.93 36 212.97 Q 36.69 214.01 36.69 215.7 Q 36.69 217.44 36 218.48 Q 35.3 219.51 34.13 219.51 M 34.13 219.51 M 34.14 218.79 Q 35.67 218.79 35.67 215.69 Q 35.67 212.65 34.16 212.65 Q 32.66 212.65 32.66 215.72 Q 32.66 218.79 34.14 218.79 M 34.14 218.79 M 37.98 219.33 L 37.98 218.13 L 39.18 218.13 L 39.18 219.33 M 37.98 219.33 M 43.13 219.51 Q 42.02 219.51 41.33 218.46 Q 40.63 217.41 40.63 215.72 Q 40.63 214.01 41.33 212.97 Q 42.03 211.93 43.16 211.93 Q 44.3 211.93 45 212.97 Q 45.69 214.01 45.69 215.7 Q 45.69 217.44 45 218.48 Q 44.3 219.51 43.13 219.51 M 43.13 219.51 M 43.14 218.79 Q 44.67 218.79 44.67 215.69 Q 44.67 212.65 43.16 212.65 Q 41.66 212.65 41.66 215.72 Q 41.66 218.79 43.14 218.79 M 43.14 218.79 M 47.5 219.33 Q 47.65 218.49 47.91 217.87 Q 48.17 217.26 48.83 216.18 L 50.8 213.01 L 47.08 213.01 L 47.08 212.11 L 51.72 212.11 L 51.72 213.01 Q 48.94 217.11 48.61 219.33 M 47.5 219.33"/></g><line x1="56" y1="215.55" x2="58" y2="215.55" style="stroke-width: 1.0;stroke: rgb(128,128,128);stroke-opacity: 1.0;" transform="matrix(1,0,0,1,0,0)" clip-path="url(#93296891225187clip-0)"/><g style="fill: rgb(0,0,0); fill-opacity: 1.0; stroke: none" transform="matrix(1,0,0,1,0,0)" clip-path="url(#93296891225187clip-0)"><path d="M 34.13 203.45 Q 33.02 203.45 32.33 202.4 Q 31.63 201.35 31.63 199.65 Q 31.63 197.94 32.33 196.9 Q 33.03 195.86 34.16 195.86 Q 35.3 195.86 36 196.9 Q 36.69 197.94 36.69 199.64 Q 36.69 201.38 36 202.41 Q 35.3 203.45 34.13 203.45 M 34.13 203.45 M 34.14 202.73 Q 35.67 202.73 35.67 199.62 Q 35.67 196.59 34.16 196.59 Q 32.66 196.59 32.66 199.65 Q 32.66 202.73 34.14 202.73 M 34.14 202.73 M 37.98 203.27 L 37.98 202.06 L 39.18 202.06 L 39.18 203.27 M 37.98 203.27 M 43.13 203.45 Q 42.02 203.45 41.33 202.4 Q 40.63 201.35 40.63 199.65 Q 40.63 197.94 41.33 196.9 Q 42.03 195.86 43.16 195.86 Q 44.3 195.86 45 196.9 Q 45.69 197.94 45.69 199.64 Q 45.69 201.38 45 202.41 Q 44.3 203.45 43.13 203.45 M 43.13 203.45 M 43.14 202.73 Q 44.67 202.73 44.67 199.62 Q 44.67 196.59 43.16 196.59 Q 41.66 196.59 41.66 199.65 Q 41.66 202.73 43.14 202.73 M 43.14 202.73 M 48.3 199.33 Q 47.24 198.6 47.24 197.7 Q 47.24 196.88 47.84 196.37 Q 48.44 195.86 49.41 195.86 Q 50.3 195.86 50.86 196.29 Q 51.41 196.73 51.41 197.42 Q 51.41 198.47 50.06 199.33 Q 51.7 200.14 51.7 201.4 Q 51.7 202.31 51.01 202.88 Q 50.33 203.45 49.24 203.45 Q 48.18 203.45 47.52 202.91 Q 46.86 202.37 46.86 201.49 Q 46.86 200.19 48.3 199.33 M 48.3 199.33 M 49.53 199.03 Q 50.54 198.37 50.54 197.55 Q 50.54 197.12 50.2 196.85 Q 49.86 196.59 49.31 196.59 Q 48.78 196.59 48.45 196.85 Q 48.11 197.11 48.11 197.52 Q 48.11 197.93 48.41 198.25 Q 48.71 198.57 49.53 199.03 M 49.53 199.03 M 48.82 199.73 Q 48.24 200.17 48.03 200.51 Q 47.83 200.84 47.83 201.34 Q 47.83 201.96 48.23 202.34 Q 48.63 202.73 49.28 202.73 Q 49.91 202.73 50.31 202.4 Q 50.71 202.07 50.71 201.55 Q 50.71 201.13 50.46 200.84 Q 50.21 200.55 49.51 200.13 M 48.82 199.73"/></g><line x1="56" y1="199.49" x2="58" y2="199.49" style="stroke-width: 1.0;stroke: rgb(128,128,128);stroke-opacity: 1.0;" transform="matrix(1,0,0,1,0,0)" clip-path="url(#93296891225187clip-0)"/><g style="fill: rgb(0,0,0); fill-opacity: 1.0; stroke: none" transform="matrix(1,0,0,1,0,0)" clip-path="url(#93296891225187clip-0)"><path d="M 34.13 187.39 Q 33.02 187.39 32.33 186.33 Q 31.63 185.28 31.63 183.59 Q 31.63 181.88 32.33 180.84 Q 33.03 179.8 34.16 179.8 Q 35.3 179.8 36 180.84 Q 36.69 181.88 36.69 183.57 Q 36.69 185.31 36 186.35 Q 35.3 187.39 34.13 187.39 M 34.13 187.39 M 34.14 186.66 Q 35.67 186.66 35.67 183.56 Q 35.67 180.52 34.16 180.52 Q 32.66 180.52 32.66 183.59 Q 32.66 186.66 34.14 186.66 M 34.14 186.66 M 37.98 187.21 L 37.98 186 L 39.18 186 L 39.18 187.21 M 37.98 187.21 M 43.13 187.39 Q 42.02 187.39 41.33 186.33 Q 40.63 185.28 40.63 183.59 Q 40.63 181.88 41.33 180.84 Q 42.03 179.8 43.16 179.8 Q 44.3 179.8 45 180.84 Q 45.69 181.88 45.69 183.57 Q 45.69 185.31 45 186.35 Q 44.3 187.39 43.13 187.39 M 43.13 187.39 M 43.14 186.66 Q 44.67 186.66 44.67 183.56 Q 44.67 180.52 43.16 180.52 Q 41.66 180.52 41.66 183.59 Q 41.66 186.66 43.14 186.66 M 43.14 186.66 M 47.14 187.16 L 47.14 186.35 Q 48.06 186.66 48.7 186.66 Q 49.6 186.66 50.1 185.9 Q 50.61 185.14 50.61 183.77 Q 49.88 184.68 48.94 184.68 Q 48.03 184.68 47.4 184.01 Q 46.76 183.33 46.76 182.37 Q 46.76 181.26 47.44 180.53 Q 48.11 179.8 49.14 179.8 Q 50.32 179.8 51 180.74 Q 51.67 181.69 51.67 183.33 Q 51.67 185.19 50.85 186.29 Q 50.02 187.39 48.61 187.39 Q 48.04 187.39 47.14 187.16 M 47.14 187.16 M 47.72 182.18 Q 47.72 183.02 48.1 183.5 Q 48.47 183.98 49.12 183.98 Q 49.73 183.98 50.16 183.57 Q 50.59 183.15 50.59 182.57 Q 50.59 181.64 50.18 181.08 Q 49.76 180.52 49.08 180.52 Q 48.45 180.52 48.09 180.96 Q 47.72 181.41 47.72 182.18 M 47.72 182.18"/></g><line x1="56" y1="183.43" x2="58" y2="183.43" style="stroke-width: 1.0;stroke: rgb(128,128,128);stroke-opacity: 1.0;" transform="matrix(1,0,0,1,0,0)" clip-path="url(#93296891225187clip-0)"/><g style="fill: rgb(0,0,0); fill-opacity: 1.0; stroke: none" transform="matrix(1,0,0,1,0,0)" clip-path="url(#93296891225187clip-0)"><path d="M 34.13 171.32 Q 33.02 171.32 32.33 170.27 Q 31.63 169.22 31.63 167.52 Q 31.63 165.82 32.33 164.78 Q 33.03 163.74 34.16 163.74 Q 35.3 163.74 36 164.78 Q 36.69 165.82 36.69 167.51 Q 36.69 169.25 36 170.29 Q 35.3 171.32 34.13 171.32 M 34.13 171.32 M 34.14 170.6 Q 35.67 170.6 35.67 167.5 Q 35.67 164.46 34.16 164.46 Q 32.66 164.46 32.66 167.52 Q 32.66 170.6 34.14 170.6 M 34.14 170.6 M 37.98 171.14 L 37.98 169.94 L 39.18 169.94 L 39.18 171.14 M 37.98 171.14 M 41.5 171.14 L 41.5 170.42 L 42.95 170.42 L 42.95 164.72 L 41.5 165.08 L 41.5 164.34 L 43.92 163.74 L 43.92 170.42 L 45.36 170.42 L 45.36 171.14 M 41.5 171.14 M 49.13 171.32 Q 48.02 171.32 47.33 170.27 Q 46.63 169.22 46.63 167.52 Q 46.63 165.82 47.33 164.78 Q 48.03 163.74 49.16 163.74 Q 50.3 163.74 51 164.78 Q 51.69 165.82 51.69 167.51 Q 51.69 169.25 51 170.29 Q 50.3 171.32 49.13 171.32 M 49.13 171.32 M 49.14 170.6 Q 50.67 170.6 50.67 167.5 Q 50.67 164.46 49.16 164.46 Q 47.66 164.46 47.66 167.52 Q 47.66 170.6 49.14 170.6 M 49.14 170.6"/></g><line x1="56" y1="167.36" x2="58" y2="167.36" style="stroke-width: 1.0;stroke: rgb(128,128,128);stroke-opacity: 1.0;" transform="matrix(1,0,0,1,0,0)" clip-path="url(#93296891225187clip-0)"/><g style="fill: rgb(0,0,0); fill-opacity: 1.0; stroke: none" transform="matrix(1,0,0,1,0,0)" clip-path="url(#93296891225187clip-0)"><path d="M 34.13 155.26 Q 33.02 155.26 32.33 154.21 Q 31.63 153.16 31.63 151.46 Q 31.63 149.75 32.33 148.71 Q 33.03 147.67 34.16 147.67 Q 35.3 147.67 36 148.71 Q 36.69 149.75 36.69 151.45 Q 36.69 153.18 36 154.22 Q 35.3 155.26 34.13 155.26 M 34.13 155.26 M 34.14 154.54 Q 35.67 154.54 35.67 151.43 Q 35.67 148.39 34.16 148.39 Q 32.66 148.39 32.66 151.46 Q 32.66 154.54 34.14 154.54 M 34.14 154.54 M 37.98 155.08 L 37.98 153.87 L 39.18 153.87 L 39.18 155.08 M 37.98 155.08 M 41.5 155.08 L 41.5 154.36 L 42.95 154.36 L 42.95 148.65 L 41.5 149.01 L 41.5 148.27 L 43.92 147.67 L 43.92 154.36 L 45.36 154.36 L 45.36 155.08 M 41.5 155.08 M 47.5 155.08 L 47.5 154.36 L 48.95 154.36 L 48.95 148.65 L 47.5 149.01 L 47.5 148.27 L 49.92 147.67 L 49.92 154.36 L 51.36 154.36 L 51.36 155.08 M 47.5 155.08"/></g><line x1="56" y1="151.3" x2="58" y2="151.3" style="stroke-width: 1.0;stroke: rgb(128,128,128);stroke-opacity: 1.0;" transform="matrix(1,0,0,1,0,0)" clip-path="url(#93296891225187clip-0)"/><g style="fill: rgb(0,0,0); fill-opacity: 1.0; stroke: none" transform="matrix(1,0,0,1,0,0)" clip-path="url(#93296891225187clip-0)"><path d="M 34.13 139.2 Q 33.02 139.2 32.33 138.14 Q 31.63 137.09 31.63 135.4 Q 31.63 133.69 32.33 132.65 Q 33.03 131.61 34.16 131.61 Q 35.3 131.61 36 132.65 Q 36.69 133.69 36.69 135.38 Q 36.69 137.12 36 138.16 Q 35.3 139.2 34.13 139.2 M 34.13 139.2 M 34.14 138.47 Q 35.67 138.47 35.67 135.37 Q 35.67 132.33 34.16 132.33 Q 32.66 132.33 32.66 135.4 Q 32.66 138.47 34.14 138.47 M 34.14 138.47 M 37.98 139.02 L 37.98 137.81 L 39.18 137.81 L 39.18 139.02 M 37.98 139.02 M 41.5 139.02 L 41.5 138.29 L 42.95 138.29 L 42.95 132.59 L 41.5 132.95 L 41.5 132.21 L 43.92 131.61 L 43.92 138.29 L 45.36 138.29 L 45.36 139.02 M 41.5 139.02 M 46.83 139.02 L 46.83 138.17 Q 47.25 137.19 48.53 136.03 L 49.08 135.54 Q 50.15 134.58 50.15 133.63 Q 50.15 133.02 49.78 132.68 Q 49.42 132.33 48.78 132.33 Q 48.03 132.33 47.01 132.91 L 47.01 132.06 Q 47.97 131.61 48.92 131.61 Q 49.94 131.61 50.55 132.15 Q 51.17 132.7 51.17 133.61 Q 51.17 134.25 50.86 134.76 Q 50.55 135.26 49.7 135.98 L 49.33 136.3 Q 48.17 137.28 47.99 138.17 L 51.13 138.17 L 51.13 139.02 M 46.83 139.02"/></g><line x1="56" y1="135.24" x2="58" y2="135.24" style="stroke-width: 1.0;stroke: rgb(128,128,128);stroke-opacity: 1.0;" transform="matrix(1,0,0,1,0,0)" clip-path="url(#93296891225187clip-0)"/><g style="fill: rgb(0,0,0); fill-opacity: 1.0; stroke: none" transform="matrix(1,0,0,1,0,0)" clip-path="url(#93296891225187clip-0)"><path d="M 34.13 123.13 Q 33.02 123.13 32.33 122.08 Q 31.63 121.03 31.63 119.33 Q 31.63 117.62 32.33 116.58 Q 33.03 115.54 34.16 115.54 Q 35.3 115.54 36 116.58 Q 36.69 117.62 36.69 119.32 Q 36.69 121.06 36 122.09 Q 35.3 123.13 34.13 123.13 M 34.13 123.13 M 34.14 122.41 Q 35.67 122.41 35.67 119.3 Q 35.67 116.27 34.16 116.27 Q 32.66 116.27 32.66 119.33 Q 32.66 122.41 34.14 122.41 M 34.14 122.41 M 37.98 122.95 L 37.98 121.75 L 39.18 121.75 L 39.18 122.95 M 37.98 122.95 M 41.5 122.95 L 41.5 122.23 L 42.95 122.23 L 42.95 116.53 L 41.5 116.89 L 41.5 116.15 L 43.92 115.54 L 43.92 122.23 L 45.36 122.23 L 45.36 122.95 M 41.5 122.95 M 47.02 122.9 L 47.02 122 Q 48.05 122.41 48.65 122.41 Q 49.33 122.41 49.77 122.01 Q 50.2 121.6 50.2 120.96 Q 50.2 119.44 48.07 119.44 L 47.68 119.44 L 47.68 118.79 L 48.02 118.79 Q 50.02 118.79 50.02 117.38 Q 50.02 116.27 48.71 116.27 Q 47.98 116.27 47.11 116.67 L 47.11 115.83 Q 47.97 115.54 48.77 115.54 Q 50.99 115.54 50.99 117.22 Q 50.99 118.49 49.48 119.04 Q 51.23 119.44 51.23 120.95 Q 51.23 121.97 50.56 122.55 Q 49.88 123.13 48.71 123.13 Q 48.04 123.13 47.02 122.9 M 47.02 122.9"/></g><line x1="56" y1="119.17" x2="58" y2="119.17" style="stroke-width: 1.0;stroke: rgb(128,128,128);stroke-opacity: 1.0;" transform="matrix(1,0,0,1,0,0)" clip-path="url(#93296891225187clip-0)"/><g style="fill: rgb(0,0,0); fill-opacity: 1.0; stroke: none" transform="matrix(1,0,0,1,0,0)" clip-path="url(#93296891225187clip-0)"><path d="M 34.13 107.07 Q 33.02 107.07 32.33 106.02 Q 31.63 104.96 31.63 103.27 Q 31.63 101.56 32.33 100.52 Q 33.03 99.48 34.16 99.48 Q 35.3 99.48 36 100.52 Q 36.69 101.56 36.69 103.26 Q 36.69 104.99 36 106.03 Q 35.3 107.07 34.13 107.07 M 34.13 107.07 M 34.14 106.35 Q 35.67 106.35 35.67 103.24 Q 35.67 100.2 34.16 100.2 Q 32.66 100.2 32.66 103.27 Q 32.66 106.35 34.14 106.35 M 34.14 106.35 M 37.98 106.89 L 37.98 105.68 L 39.18 105.68 L 39.18 106.89 M 37.98 106.89 M 41.5 106.89 L 41.5 106.17 L 42.95 106.17 L 42.95 100.46 L 41.5 100.82 L 41.5 100.08 L 43.92 99.48 L 43.92 106.17 L 45.36 106.17 L 45.36 106.89 M 41.5 106.89 M 49.76 106.89 L 49.76 104.84 L 46.51 104.84 L 46.51 104.11 L 49.76 99.66 L 50.67 99.66 L 50.67 104.06 L 51.63 104.06 L 51.63 104.84 L 50.67 104.84 L 50.67 106.89 M 49.76 106.89 M 47.46 104.06 L 49.83 104.06 L 49.83 100.84 M 47.46 104.06"/></g><line x1="56" y1="103.11" x2="58" y2="103.11" style="stroke-width: 1.0;stroke: rgb(128,128,128);stroke-opacity: 1.0;" transform="matrix(1,0,0,1,0,0)" clip-path="url(#93296891225187clip-0)"/><g style="fill: rgb(0,0,0); fill-opacity: 1.0; stroke: none" transform="matrix(1,0,0,1,0,0)" clip-path="url(#93296891225187clip-0)"><path d="M 34.13 91.01 Q 33.02 91.01 32.33 89.95 Q 31.63 88.9 31.63 87.21 Q 31.63 85.5 32.33 84.46 Q 33.03 83.42 34.16 83.42 Q 35.3 83.42 36 84.46 Q 36.69 85.5 36.69 87.19 Q 36.69 88.93 36 89.97 Q 35.3 91.01 34.13 91.01 M 34.13 91.01 M 34.14 90.28 Q 35.67 90.28 35.67 87.18 Q 35.67 84.14 34.16 84.14 Q 32.66 84.14 32.66 87.21 Q 32.66 90.28 34.14 90.28 M 34.14 90.28 M 37.98 90.82 L 37.98 89.62 L 39.18 89.62 L 39.18 90.82 M 37.98 90.82 M 41.5 90.82 L 41.5 90.1 L 42.95 90.1 L 42.95 84.4 L 41.5 84.76 L 41.5 84.02 L 43.92 83.42 L 43.92 90.1 L 45.36 90.1 L 45.36 90.82 M 41.5 90.82 M 47.22 90.85 L 47.22 89.99 Q 47.93 90.28 48.58 90.28 Q 49.3 90.28 49.7 89.86 Q 50.11 89.44 50.11 88.71 Q 50.11 87.08 47.87 87.08 Q 47.62 87.08 47.34 87.11 L 47.34 83.6 L 51 83.6 L 51 84.44 L 48.18 84.44 L 48.18 86.34 Q 49.57 86.34 50.36 86.98 Q 51.14 87.62 51.14 88.75 Q 51.14 89.81 50.43 90.41 Q 49.72 91.01 48.46 91.01 Q 47.91 91.01 47.22 90.85 M 47.22 90.85"/></g><line x1="56" y1="87.05" x2="58" y2="87.05" style="stroke-width: 1.0;stroke: rgb(128,128,128);stroke-opacity: 1.0;" transform="matrix(1,0,0,1,0,0)" clip-path="url(#93296891225187clip-0)"/><g style="fill: rgb(0,0,0); fill-opacity: 1.0; stroke: none" transform="matrix(1,0,0,1,0,0)" clip-path="url(#93296891225187clip-0)"><path d="M 34.13 74.94 Q 33.02 74.94 32.33 73.89 Q 31.63 72.84 31.63 71.14 Q 31.63 69.43 32.33 68.39 Q 33.03 67.35 34.16 67.35 Q 35.3 67.35 36 68.39 Q 36.69 69.43 36.69 71.13 Q 36.69 72.87 36 73.9 Q 35.3 74.94 34.13 74.94 M 34.13 74.94 M 34.14 74.22 Q 35.67 74.22 35.67 71.11 Q 35.67 68.08 34.16 68.08 Q 32.66 68.08 32.66 71.14 Q 32.66 74.22 34.14 74.22 M 34.14 74.22 M 37.98 74.76 L 37.98 73.55 L 39.18 73.55 L 39.18 74.76 M 37.98 74.76 M 41.5 74.76 L 41.5 74.04 L 42.95 74.04 L 42.95 68.33 L 41.5 68.7 L 41.5 67.95 L 43.92 67.35 L 43.92 74.04 L 45.36 74.04 L 45.36 74.76 M 41.5 74.76 M 47.72 71.02 Q 48.41 70.12 49.45 70.12 Q 50.4 70.12 51 70.75 Q 51.61 71.38 51.61 72.36 Q 51.61 73.49 50.93 74.21 Q 50.25 74.94 49.21 74.94 Q 48.02 74.94 47.34 73.98 Q 46.67 73.02 46.67 71.31 Q 46.67 69.43 47.44 68.39 Q 48.22 67.35 49.62 67.35 Q 50.27 67.35 51.23 67.62 L 51.23 68.46 Q 50.21 68.07 49.56 68.07 Q 47.72 68.07 47.72 71.02 M 47.72 71.02 M 50.64 72.57 Q 50.64 71.75 50.27 71.28 Q 49.9 70.82 49.25 70.82 Q 48.64 70.82 48.2 71.23 Q 47.76 71.64 47.76 72.21 Q 47.76 73.12 48.18 73.67 Q 48.59 74.22 49.28 74.22 Q 49.9 74.22 50.27 73.77 Q 50.64 73.33 50.64 72.57 M 50.64 72.57"/></g><line x1="56" y1="70.98" x2="58" y2="70.98" style="stroke-width: 1.0;stroke: rgb(128,128,128);stroke-opacity: 1.0;" transform="matrix(1,0,0,1,0,0)" clip-path="url(#93296891225187clip-0)"/><g style="fill: rgb(0,0,0); fill-opacity: 1.0; stroke: none" transform="matrix(1,0,0,1,0,0)" clip-path="url(#93296891225187clip-0)"><path d="M 34.13 58.88 Q 33.02 58.88 32.33 57.83 Q 31.63 56.77 31.63 55.08 Q 31.63 53.37 32.33 52.33 Q 33.03 51.29 34.16 51.29 Q 35.3 51.29 36 52.33 Q 36.69 53.37 36.69 55.06 Q 36.69 56.8 36 57.84 Q 35.3 58.88 34.13 58.88 M 34.13 58.88 M 34.14 58.16 Q 35.67 58.16 35.67 55.05 Q 35.67 52.01 34.16 52.01 Q 32.66 52.01 32.66 55.08 Q 32.66 58.16 34.14 58.16 M 34.14 58.16 M 37.98 58.7 L 37.98 57.49 L 39.18 57.49 L 39.18 58.7 M 37.98 58.7 M 41.5 58.7 L 41.5 57.97 L 42.95 57.97 L 42.95 52.27 L 41.5 52.63 L 41.5 51.89 L 43.92 51.29 L 43.92 57.97 L 45.36 57.97 L 45.36 58.7 M 41.5 58.7 M 47.5 58.7 Q 47.65 57.85 47.91 57.24 Q 48.17 56.62 48.83 55.55 L 50.8 52.37 L 47.08 52.37 L 47.08 51.47 L 51.72 51.47 L 51.72 52.37 Q 48.94 56.47 48.61 58.7 M 47.5 58.7"/></g><line x1="56" y1="54.92" x2="58" y2="54.92" style="stroke-width: 1.0;stroke: rgb(128,128,128);stroke-opacity: 1.0;" transform="matrix(1,0,0,1,0,0)" clip-path="url(#93296891225187clip-0)"/><g style="fill: rgb(0,0,0); fill-opacity: 1.0; stroke: none" transform="matrix(1,0,0,1,0,0)" clip-path="url(#93296891225187clip-0)"><path d="M 34.13 42.81 Q 33.02 42.81 32.33 41.76 Q 31.63 40.71 31.63 39.02 Q 31.63 37.31 32.33 36.27 Q 33.03 35.23 34.16 35.23 Q 35.3 35.23 36 36.27 Q 36.69 37.31 36.69 39 Q 36.69 40.74 36 41.78 Q 35.3 42.81 34.13 42.81 M 34.13 42.81 M 34.14 42.09 Q 35.67 42.09 35.67 38.99 Q 35.67 35.95 34.16 35.95 Q 32.66 35.95 32.66 39.02 Q 32.66 42.09 34.14 42.09 M 34.14 42.09 M 37.98 42.63 L 37.98 41.43 L 39.18 41.43 L 39.18 42.63 M 37.98 42.63 M 41.5 42.63 L 41.5 41.91 L 42.95 41.91 L 42.95 36.21 L 41.5 36.57 L 41.5 35.83 L 43.92 35.23 L 43.92 41.91 L 45.36 41.91 L 45.36 42.63 M 41.5 42.63 M 48.3 38.7 Q 47.24 37.96 47.24 37.07 Q 47.24 36.25 47.84 35.73 Q 48.44 35.22 49.41 35.22 Q 50.3 35.22 50.86 35.66 Q 51.41 36.09 51.41 36.78 Q 51.41 37.83 50.06 38.7 Q 51.7 39.5 51.7 40.76 Q 51.7 41.67 51.01 42.24 Q 50.33 42.81 49.24 42.81 Q 48.18 42.81 47.52 42.27 Q 46.86 41.73 46.86 40.86 Q 46.86 39.56 48.3 38.7 M 48.3 38.7 M 49.53 38.4 Q 50.54 37.73 50.54 36.92 Q 50.54 36.48 50.2 36.21 Q 49.86 35.95 49.31 35.95 Q 48.78 35.95 48.45 36.21 Q 48.11 36.47 48.11 36.89 Q 48.11 37.29 48.41 37.61 Q 48.71 37.93 49.53 38.4 M 49.53 38.4 M 48.82 39.09 Q 48.24 39.54 48.03 39.87 Q 47.83 40.21 47.83 40.7 Q 47.83 41.32 48.23 41.71 Q 48.63 42.09 49.28 42.09 Q 49.91 42.09 50.31 41.76 Q 50.71 41.44 50.71 40.91 Q 50.71 40.49 50.46 40.2 Q 50.21 39.91 49.51 39.49 M 48.82 39.09"/></g><line x1="56" y1="38.85" x2="58" y2="38.85" style="stroke-width: 1.0;stroke: rgb(128,128,128);stroke-opacity: 1.0;" transform="matrix(1,0,0,1,0,0)" clip-path="url(#93296891225187clip-0)"/><g style="fill: rgb(0,0,0); fill-opacity: 1.0; stroke: none" transform="matrix(0,-1,1,0,-156.566406,194.433594)" clip-path="url(#93296891225187clip-1)"><path d="M 6.42 180.04 L 3.14 171.36 L 4.38 171.36 L 7.06 178.46 L 9.65 171.36 L 10.73 171.36 L 7.58 180.04 M 6.42 180.04 M 15.37 179.23 Q 14.33 180.18 13.37 180.18 Q 12.58 180.18 12.06 179.69 Q 11.54 179.19 11.54 178.44 Q 11.54 177.39 12.41 176.83 Q 13.29 176.27 14.92 176.27 L 15.2 176.27 L 15.2 175.51 Q 15.2 174.4 14.06 174.4 Q 13.15 174.4 12.09 174.96 L 12.09 174.01 Q 13.25 173.53 14.27 173.53 Q 15.34 173.53 15.85 174.01 Q 16.35 174.49 16.35 175.51 L 16.35 178.39 Q 16.35 179.38 16.96 179.38 Q 17.04 179.38 17.19 179.36 L 17.27 179.99 Q 16.88 180.18 16.4 180.18 Q 15.59 180.18 15.37 179.23 M 15.37 179.23 M 15.2 178.6 L 15.2 176.95 L 14.81 176.94 Q 13.86 176.94 13.28 177.3 Q 12.69 177.66 12.69 178.25 Q 12.69 178.66 12.98 178.95 Q 13.28 179.24 13.7 179.24 Q 14.42 179.24 15.2 178.6 M 15.2 178.6 M 19.09 180.04 L 19.09 170.78 L 20.24 170.78 L 20.24 180.04 M 19.09 180.04 M 27.07 180.04 L 27.07 178.84 Q 26.15 180.18 24.83 180.18 Q 24 180.18 23.51 179.66 Q 23.02 179.13 23.02 178.24 L 23.02 173.67 L 24.17 173.67 L 24.17 177.87 Q 24.17 178.58 24.38 178.88 Q 24.59 179.19 25.07 179.19 Q 26.13 179.19 27.07 177.8 L 27.07 173.67 L 28.22 173.67 L 28.22 180.04 M 27.07 180.04 M 35.75 179.83 Q 34.59 180.18 33.77 180.18 Q 32.36 180.18 31.47 179.25 Q 30.58 178.31 30.58 176.82 Q 30.58 175.38 31.37 174.45 Q 32.15 173.53 33.37 173.53 Q 34.52 173.53 35.15 174.35 Q 35.78 175.17 35.78 176.68 L 35.78 177.04 L 31.76 177.04 Q 32.01 179.3 33.98 179.3 Q 34.7 179.3 35.75 178.92 M 35.75 179.83 M 31.81 176.17 L 34.62 176.17 Q 34.62 174.39 33.3 174.39 Q 31.97 174.39 31.81 176.17 M 31.81 176.17"/></g><line x1="58" y1="328" x2="592" y2="328" style="stroke-width: 0.5;stroke: rgb(192,192,192);stroke-opacity: 1.0;stroke-dasharray: 2.0, 2.0;" transform="matrix(1,0,0,1,0,0)" clip-path="url(#93296891225187clip-2)"/><line x1="58" y1="311.94" x2="592" y2="311.94" style="stroke-width: 0.5;stroke: rgb(192,192,192);stroke-opacity: 1.0;stroke-dasharray: 2.0, 2.0;" transform="matrix(1,0,0,1,0,0)" clip-path="url(#93296891225187clip-2)"/><line x1="58" y1="295.87" x2="592" y2="295.87" style="stroke-width: 0.5;stroke: rgb(192,192,192);stroke-opacity: 1.0;stroke-dasharray: 2.0, 2.0;" transform="matrix(1,0,0,1,0,0)" clip-path="url(#93296891225187clip-2)"/><line x1="58" y1="279.81" x2="592" y2="279.81" style="stroke-width: 0.5;stroke: rgb(192,192,192);stroke-opacity: 1.0;stroke-dasharray: 2.0, 2.0;" transform="matrix(1,0,0,1,0,0)" clip-path="url(#93296891225187clip-2)"/><line x1="58" y1="263.75" x2="592" y2="263.75" style="stroke-width: 0.5;stroke: rgb(192,192,192);stroke-opacity: 1.0;stroke-dasharray: 2.0, 2.0;" transform="matrix(1,0,0,1,0,0)" clip-path="url(#93296891225187clip-2)"/><line x1="58" y1="247.68" x2="592" y2="247.68" style="stroke-width: 0.5;stroke: rgb(192,192,192);stroke-opacity: 1.0;stroke-dasharray: 2.0, 2.0;" transform="matrix(1,0,0,1,0,0)" clip-path="url(#93296891225187clip-2)"/><line x1="58" y1="231.62" x2="592" y2="231.62" style="stroke-width: 0.5;stroke: rgb(192,192,192);stroke-opacity: 1.0;stroke-dasharray: 2.0, 2.0;" transform="matrix(1,0,0,1,0,0)" clip-path="url(#93296891225187clip-2)"/><line x1="58" y1="215.55" x2="592" y2="215.55" style="stroke-width: 0.5;stroke: rgb(192,192,192);stroke-opacity: 1.0;stroke-dasharray: 2.0, 2.0;" transform="matrix(1,0,0,1,0,0)" clip-path="url(#93296891225187clip-2)"/><line x1="58" y1="199.49" x2="592" y2="199.49" style="stroke-width: 0.5;stroke: rgb(192,192,192);stroke-opacity: 1.0;stroke-dasharray: 2.0, 2.0;" transform="matrix(1,0,0,1,0,0)" clip-path="url(#93296891225187clip-2)"/><line x1="58" y1="183.43" x2="592" y2="183.43" style="stroke-width: 0.5;stroke: rgb(192,192,192);stroke-opacity: 1.0;stroke-dasharray: 2.0, 2.0;" transform="matrix(1,0,0,1,0,0)" clip-path="url(#93296891225187clip-2)"/><line x1="58" y1="167.36" x2="592" y2="167.36" style="stroke-width: 0.5;stroke: rgb(192,192,192);stroke-opacity: 1.0;stroke-dasharray: 2.0, 2.0;" transform="matrix(1,0,0,1,0,0)" clip-path="url(#93296891225187clip-2)"/><line x1="58" y1="151.3" x2="592" y2="151.3" style="stroke-width: 0.5;stroke: rgb(192,192,192);stroke-opacity: 1.0;stroke-dasharray: 2.0, 2.0;" transform="matrix(1,0,0,1,0,0)" clip-path="url(#93296891225187clip-2)"/><line x1="58" y1="135.24" x2="592" y2="135.24" style="stroke-width: 0.5;stroke: rgb(192,192,192);stroke-opacity: 1.0;stroke-dasharray: 2.0, 2.0;" transform="matrix(1,0,0,1,0,0)" clip-path="url(#93296891225187clip-2)"/><line x1="58" y1="119.17" x2="592" y2="119.17" style="stroke-width: 0.5;stroke: rgb(192,192,192);stroke-opacity: 1.0;stroke-dasharray: 2.0, 2.0;" transform="matrix(1,0,0,1,0,0)" clip-path="url(#93296891225187clip-2)"/><line x1="58" y1="103.11" x2="592" y2="103.11" style="stroke-width: 0.5;stroke: rgb(192,192,192);stroke-opacity: 1.0;stroke-dasharray: 2.0, 2.0;" transform="matrix(1,0,0,1,0,0)" clip-path="url(#93296891225187clip-2)"/><line x1="58" y1="87.05" x2="592" y2="87.05" style="stroke-width: 0.5;stroke: rgb(192,192,192);stroke-opacity: 1.0;stroke-dasharray: 2.0, 2.0;" transform="matrix(1,0,0,1,0,0)" clip-path="url(#93296891225187clip-2)"/><line x1="58" y1="70.98" x2="592" y2="70.98" style="stroke-width: 0.5;stroke: rgb(192,192,192);stroke-opacity: 1.0;stroke-dasharray: 2.0, 2.0;" transform="matrix(1,0,0,1,0,0)" clip-path="url(#93296891225187clip-2)"/><line x1="58" y1="54.92" x2="592" y2="54.92" style="stroke-width: 0.5;stroke: rgb(192,192,192);stroke-opacity: 1.0;stroke-dasharray: 2.0, 2.0;" transform="matrix(1,0,0,1,0,0)" clip-path="url(#93296891225187clip-2)"/><line x1="58" y1="38.85" x2="592" y2="38.85" style="stroke-width: 0.5;stroke: rgb(192,192,192);stroke-opacity: 1.0;stroke-dasharray: 2.0, 2.0;" transform="matrix(1,0,0,1,0,0)" clip-path="url(#93296891225187clip-2)"/><line x1="94.05" y1="39.04" x2="94.05" y2="39.04" style="stroke-width: 1.0;stroke: rgb(0,0,0);stroke-opacity: 1.0;" transform="matrix(1,0,0,1,0,0)" clip-path="url(#93296891225187clip-2)"/><line x1="84.7" y1="39.04" x2="103.39" y2="39.04" style="stroke-width: 1.0;stroke: rgb(0,0,0);stroke-opacity: 1.0;" transform="matrix(1,0,0,1,0,0)" clip-path="url(#93296891225187clip-2)"/><line x1="94.05" y1="39.04" x2="94.05" y2="39.04" style="stroke-width: 1.0;stroke: rgb(0,0,0);stroke-opacity: 1.0;" transform="matrix(1,0,0,1,0,0)" clip-path="url(#93296891225187clip-2)"/><line x1="84.7" y1="39.04" x2="103.39" y2="39.04" style="stroke-width: 1.0;stroke: rgb(0,0,0);stroke-opacity: 1.0;" transform="matrix(1,0,0,1,0,0)" clip-path="url(#93296891225187clip-2)"/><rect x="84.7" y="39.04" width="18.69" height="0" style="stroke-width: 1.0;stroke: rgb(0,0,0);stroke-opacity: 1.0;; fill: none" transform="matrix(1,0,0,1,0,0)" clip-path="url(#93296891225187clip-2)"/><line x1="84.7" y1="39.04" x2="103.39" y2="39.04" style="stroke-width: 1.0;stroke: rgb(0,0,0);stroke-opacity: 1.0;" transform="matrix(1,0,0,1,0,0)" clip-path="url(#93296891225187clip-2)"/><rect x="109.01" y="38.98" width="18.69" height="0.11" style="fill: rgb(192,192,192); fill-opacity: 1.0" transform="matrix(1,0,0,1,0,0)" clip-path="url(#93296891225187clip-2)"/><line x1="118.36" y1="38.92" x2="118.36" y2="38.98" style="stroke-width: 1.0;stroke: rgb(0,0,0);stroke-opacity: 1.0;" transform="matrix(1,0,0,1,0,0)" clip-path="url(#93296891225187clip-2)"/><line x1="109.01" y1="38.92" x2="127.7" y2="38.92" style="stroke-width: 1.0;stroke: rgb(0,0,0);stroke-opacity: 1.0;" transform="matrix(1,0,0,1,0,0)" clip-path="url(#93296891225187clip-2)"/><line x1="118.36" y1="39.15" x2="118.36" y2="39.1" style="stroke-width: 1.0;stroke: rgb(0,0,0);stroke-opacity: 1.0;" transform="matrix(1,0,0,1,0,0)" clip-path="url(#93296891225187clip-2)"/><line x1="109.01" y1="39.15" x2="127.7" y2="39.15" style="stroke-width: 1.0;stroke: rgb(0,0,0);stroke-opacity: 1.0;" transform="matrix(1,0,0,1,0,0)" clip-path="url(#93296891225187clip-2)"/><rect x="109.01" y="38.98" width="18.69" height="0.11" style="stroke-width: 1.0;stroke: rgb(0,0,0);stroke-opacity: 1.0;; fill: none" transform="matrix(1,0,0,1,0,0)" clip-path="url(#93296891225187clip-2)"/><line x1="109.01" y1="39.04" x2="127.7" y2="39.04" style="stroke-width: 1.0;stroke: rgb(0,0,0);stroke-opacity: 1.0;" transform="matrix(1,0,0,1,0,0)" clip-path="url(#93296891225187clip-2)"/><rect x="133.32" y="38.92" width="18.69" height="0.36" style="fill: rgb(192,192,192); fill-opacity: 1.0" transform="matrix(1,0,0,1,0,0)" clip-path="url(#93296891225187clip-2)"/><line x1="142.67" y1="38.49" x2="142.67" y2="38.92" style="stroke-width: 1.0;stroke: rgb(0,0,0);stroke-opacity: 1.0;" transform="matrix(1,0,0,1,0,0)" clip-path="url(#93296891225187clip-2)"/><line x1="133.32" y1="38.49" x2="152.01" y2="38.49" style="stroke-width: 1.0;stroke: rgb(0,0,0);stroke-opacity: 1.0;" transform="matrix(1,0,0,1,0,0)" clip-path="url(#93296891225187clip-2)"/><line x1="142.67" y1="39.34" x2="142.67" y2="39.29" style="stroke-width: 1.0;stroke: rgb(0,0,0);stroke-opacity: 1.0;" transform="matrix(1,0,0,1,0,0)" clip-path="url(#93296891225187clip-2)"/><line x1="133.32" y1="39.34" x2="152.01" y2="39.34" style="stroke-width: 1.0;stroke: rgb(0,0,0);stroke-opacity: 1.0;" transform="matrix(1,0,0,1,0,0)" clip-path="url(#93296891225187clip-2)"/><rect x="133.32" y="38.92" width="18.69" height="0.36" style="stroke-width: 1.0;stroke: rgb(0,0,0);stroke-opacity: 1.0;; fill: none" transform="matrix(1,0,0,1,0,0)" clip-path="url(#93296891225187clip-2)"/><line x1="133.32" y1="39.1" x2="152.01" y2="39.1" style="stroke-width: 1.0;stroke: rgb(0,0,0);stroke-opacity: 1.0;" transform="matrix(1,0,0,1,0,0)" clip-path="url(#93296891225187clip-2)"/><rect x="157.63" y="38.92" width="18.69" height="0.36" style="fill: rgb(192,192,192); fill-opacity: 1.0" transform="matrix(1,0,0,1,0,0)" clip-path="url(#93296891225187clip-2)"/><line x1="166.98" y1="38.49" x2="166.98" y2="38.92" style="stroke-width: 1.0;stroke: rgb(0,0,0);stroke-opacity: 1.0;" transform="matrix(1,0,0,1,0,0)" clip-path="url(#93296891225187clip-2)"/><line x1="157.63" y1="38.49" x2="176.32" y2="38.49" style="stroke-width: 1.0;stroke: rgb(0,0,0);stroke-opacity: 1.0;" transform="matrix(1,0,0,1,0,0)" clip-path="url(#93296891225187clip-2)"/><line x1="166.98" y1="39.34" x2="166.98" y2="39.29" style="stroke-width: 1.0;stroke: rgb(0,0,0);stroke-opacity: 1.0;" transform="matrix(1,0,0,1,0,0)" clip-path="url(#93296891225187clip-2)"/><line x1="157.63" y1="39.34" x2="176.32" y2="39.34" style="stroke-width: 1.0;stroke: rgb(0,0,0);stroke-opacity: 1.0;" transform="matrix(1,0,0,1,0,0)" clip-path="url(#93296891225187clip-2)"/><rect x="157.63" y="38.92" width="18.69" height="0.36" style="stroke-width: 1.0;stroke: rgb(0,0,0);stroke-opacity: 1.0;; fill: none" transform="matrix(1,0,0,1,0,0)" clip-path="url(#93296891225187clip-2)"/><line x1="157.63" y1="39.11" x2="176.32" y2="39.11" style="stroke-width: 1.0;stroke: rgb(0,0,0);stroke-opacity: 1.0;" transform="matrix(1,0,0,1,0,0)" clip-path="url(#93296891225187clip-2)"/><rect x="181.94" y="38.87" width="18.69" height="0.43" style="fill: rgb(192,192,192); fill-opacity: 1.0" transform="matrix(1,0,0,1,0,0)" clip-path="url(#93296891225187clip-2)"/><line x1="191.29" y1="38.49" x2="191.29" y2="38.87" style="stroke-width: 1.0;stroke: rgb(0,0,0);stroke-opacity: 1.0;" transform="matrix(1,0,0,1,0,0)" clip-path="url(#93296891225187clip-2)"/><line x1="181.94" y1="38.49" x2="200.63" y2="38.49" style="stroke-width: 1.0;stroke: rgb(0,0,0);stroke-opacity: 1.0;" transform="matrix(1,0,0,1,0,0)" clip-path="url(#93296891225187clip-2)"/><line x1="191.29" y1="39.87" x2="191.29" y2="39.3" style="stroke-width: 1.0;stroke: rgb(0,0,0);stroke-opacity: 1.0;" transform="matrix(1,0,0,1,0,0)" clip-path="url(#93296891225187clip-2)"/><line x1="181.94" y1="39.87" x2="200.63" y2="39.87" style="stroke-width: 1.0;stroke: rgb(0,0,0);stroke-opacity: 1.0;" transform="matrix(1,0,0,1,0,0)" clip-path="url(#93296891225187clip-2)"/><rect x="181.94" y="38.87" width="18.69" height="0.43" style="stroke-width: 1.0;stroke: rgb(0,0,0);stroke-opacity: 1.0;; fill: none" transform="matrix(1,0,0,1,0,0)" clip-path="url(#93296891225187clip-2)"/><line x1="181.94" y1="39.06" x2="200.63" y2="39.06" style="stroke-width: 1.0;stroke: rgb(0,0,0);stroke-opacity: 1.0;" transform="matrix(1,0,0,1,0,0)" clip-path="url(#93296891225187clip-2)"/><line x1="191.29" y1="23" x2="191.29" y2="23" style="stroke-width: 1.0;stroke: rgb(192,192,192);stroke-opacity: 1.0;" transform="matrix(1,0,0,1,0,0)" clip-path="url(#93296891225187clip-2)"/><line x1="191.29" y1="23" x2="191.29" y2="23" style="stroke-width: 1.0;stroke: rgb(192,192,192);stroke-opacity: 1.0;" transform="matrix(1,0,0,1,0,0)" clip-path="url(#93296891225187clip-2)"/><line x1="191.29" y1="23" x2="191.29" y2="23" style="stroke-width: 1.0;stroke: rgb(192,192,192);stroke-opacity: 1.0;" transform="matrix(1,0,0,1,0,0)" clip-path="url(#93296891225187clip-2)"/><rect x="206.26" y="38.8" width="18.69" height="0.52" style="fill: rgb(192,192,192); fill-opacity: 1.0" transform="matrix(1,0,0,1,0,0)" clip-path="url(#93296891225187clip-2)"/><line x1="215.6" y1="38.46" x2="215.6" y2="38.8" style="stroke-width: 1.0;stroke: rgb(0,0,0);stroke-opacity: 1.0;" transform="matrix(1,0,0,1,0,0)" clip-path="url(#93296891225187clip-2)"/><line x1="206.26" y1="38.46" x2="224.95" y2="38.46" style="stroke-width: 1.0;stroke: rgb(0,0,0);stroke-opacity: 1.0;" transform="matrix(1,0,0,1,0,0)" clip-path="url(#93296891225187clip-2)"/><line x1="215.6" y1="39.87" x2="215.6" y2="39.31" style="stroke-width: 1.0;stroke: rgb(0,0,0);stroke-opacity: 1.0;" transform="matrix(1,0,0,1,0,0)" clip-path="url(#93296891225187clip-2)"/><line x1="206.26" y1="39.87" x2="224.95" y2="39.87" style="stroke-width: 1.0;stroke: rgb(0,0,0);stroke-opacity: 1.0;" transform="matrix(1,0,0,1,0,0)" clip-path="url(#93296891225187clip-2)"/><rect x="206.26" y="38.8" width="18.69" height="0.52" style="stroke-width: 1.0;stroke: rgb(0,0,0);stroke-opacity: 1.0;; fill: none" transform="matrix(1,0,0,1,0,0)" clip-path="url(#93296891225187clip-2)"/><line x1="206.26" y1="39.06" x2="224.95" y2="39.06" style="stroke-width: 1.0;stroke: rgb(0,0,0);stroke-opacity: 1.0;" transform="matrix(1,0,0,1,0,0)" clip-path="url(#93296891225187clip-2)"/><g style="stroke-width: 1.0;stroke: rgb(192,192,192);stroke-opacity: 1.0;; fill: none" transform="matrix(1,0,0,1,0,0)" clip-path="url(#93296891225187clip-2)"><path d="M 218.72 34.89 C 218.72 36.61 217.32 38 215.6 38 C 213.88 38 212.49 36.61 212.49 34.89 C 212.49 33.17 213.88 31.77 215.6 31.77 C 217.32 31.77 218.72 33.17 218.72 34.89 M 218.72 34.89"/></g><rect x="230.57" y="38.67" width="18.69" height="0.65" style="fill: rgb(192,192,192); fill-opacity: 1.0" transform="matrix(1,0,0,1,0,0)" clip-path="url(#93296891225187clip-2)"/><line x1="239.91" y1="38" x2="239.91" y2="38.67" style="stroke-width: 1.0;stroke: rgb(0,0,0);stroke-opacity: 1.0;" transform="matrix(1,0,0,1,0,0)" clip-path="url(#93296891225187clip-2)"/><line x1="230.57" y1="38" x2="249.26" y2="38" style="stroke-width: 1.0;stroke: rgb(0,0,0);stroke-opacity: 1.0;" transform="matrix(1,0,0,1,0,0)" clip-path="url(#93296891225187clip-2)"/><line x1="239.91" y1="39.87" x2="239.91" y2="39.32" style="stroke-width: 1.0;stroke: rgb(0,0,0);stroke-opacity: 1.0;" transform="matrix(1,0,0,1,0,0)" clip-path="url(#93296891225187clip-2)"/><line x1="230.57" y1="39.87" x2="249.26" y2="39.87" style="stroke-width: 1.0;stroke: rgb(0,0,0);stroke-opacity: 1.0;" transform="matrix(1,0,0,1,0,0)" clip-path="url(#93296891225187clip-2)"/><rect x="230.57" y="38.67" width="18.69" height="0.65" style="stroke-width: 1.0;stroke: rgb(0,0,0);stroke-opacity: 1.0;; fill: none" transform="matrix(1,0,0,1,0,0)" clip-path="url(#93296891225187clip-2)"/><line x1="230.57" y1="39.09" x2="249.26" y2="39.09" style="stroke-width: 1.0;stroke: rgb(0,0,0);stroke-opacity: 1.0;" transform="matrix(1,0,0,1,0,0)" clip-path="url(#93296891225187clip-2)"/><rect x="254.88" y="38.68" width="18.69" height="0.64" style="fill: rgb(192,192,192); fill-opacity: 1.0" transform="matrix(1,0,0,1,0,0)" clip-path="url(#93296891225187clip-2)"/><line x1="264.22" y1="38" x2="264.22" y2="38.68" style="stroke-width: 1.0;stroke: rgb(0,0,0);stroke-opacity: 1.0;" transform="matrix(1,0,0,1,0,0)" clip-path="url(#93296891225187clip-2)"/><line x1="254.88" y1="38" x2="273.57" y2="38" style="stroke-width: 1.0;stroke: rgb(0,0,0);stroke-opacity: 1.0;" transform="matrix(1,0,0,1,0,0)" clip-path="url(#93296891225187clip-2)"/><line x1="264.22" y1="39.87" x2="264.22" y2="39.32" style="stroke-width: 1.0;stroke: rgb(0,0,0);stroke-opacity: 1.0;" transform="matrix(1,0,0,1,0,0)" clip-path="url(#93296891225187clip-2)"/><line x1="254.88" y1="39.87" x2="273.57" y2="39.87" style="stroke-width: 1.0;stroke: rgb(0,0,0);stroke-opacity: 1.0;" transform="matrix(1,0,0,1,0,0)" clip-path="url(#93296891225187clip-2)"/><rect x="254.88" y="38.68" width="18.69" height="0.64" style="stroke-width: 1.0;stroke: rgb(0,0,0);stroke-opacity: 1.0;; fill: none" transform="matrix(1,0,0,1,0,0)" clip-path="url(#93296891225187clip-2)"/><line x1="254.88" y1="39.07" x2="273.57" y2="39.07" style="stroke-width: 1.0;stroke: rgb(0,0,0);stroke-opacity: 1.0;" transform="matrix(1,0,0,1,0,0)" clip-path="url(#93296891225187clip-2)"/><rect x="279.19" y="38.8" width="18.69" height="0.53" style="fill: rgb(192,192,192); fill-opacity: 1.0" transform="matrix(1,0,0,1,0,0)" clip-path="url(#93296891225187clip-2)"/><line x1="288.53" y1="38" x2="288.53" y2="38.8" style="stroke-width: 1.0;stroke: rgb(0,0,0);stroke-opacity: 1.0;" transform="matrix(1,0,0,1,0,0)" clip-path="url(#93296891225187clip-2)"/><line x1="279.19" y1="38" x2="297.88" y2="38" style="stroke-width: 1.0;stroke: rgb(0,0,0);stroke-opacity: 1.0;" transform="matrix(1,0,0,1,0,0)" clip-path="url(#93296891225187clip-2)"/><line x1="288.53" y1="39.87" x2="288.53" y2="39.33" style="stroke-width: 1.0;stroke: rgb(0,0,0);stroke-opacity: 1.0;" transform="matrix(1,0,0,1,0,0)" clip-path="url(#93296891225187clip-2)"/><line x1="279.19" y1="39.87" x2="297.88" y2="39.87" style="stroke-width: 1.0;stroke: rgb(0,0,0);stroke-opacity: 1.0;" transform="matrix(1,0,0,1,0,0)" clip-path="url(#93296891225187clip-2)"/><rect x="279.19" y="38.8" width="18.69" height="0.53" style="stroke-width: 1.0;stroke: rgb(0,0,0);stroke-opacity: 1.0;; fill: none" transform="matrix(1,0,0,1,0,0)" clip-path="url(#93296891225187clip-2)"/><line x1="279.19" y1="39.07" x2="297.88" y2="39.07" style="stroke-width: 1.0;stroke: rgb(0,0,0);stroke-opacity: 1.0;" transform="matrix(1,0,0,1,0,0)" clip-path="url(#93296891225187clip-2)"/><rect x="303.5" y="38.74" width="18.69" height="0.61" style="fill: rgb(192,192,192); fill-opacity: 1.0" transform="matrix(1,0,0,1,0,0)" clip-path="url(#93296891225187clip-2)"/><line x1="312.84" y1="37.87" x2="312.84" y2="38.74" style="stroke-width: 1.0;stroke: rgb(0,0,0);stroke-opacity: 1.0;" transform="matrix(1,0,0,1,0,0)" clip-path="url(#93296891225187clip-2)"/><line x1="303.5" y1="37.87" x2="322.19" y2="37.87" style="stroke-width: 1.0;stroke: rgb(0,0,0);stroke-opacity: 1.0;" transform="matrix(1,0,0,1,0,0)" clip-path="url(#93296891225187clip-2)"/><line x1="312.84" y1="39.9" x2="312.84" y2="39.35" style="stroke-width: 1.0;stroke: rgb(0,0,0);stroke-opacity: 1.0;" transform="matrix(1,0,0,1,0,0)" clip-path="url(#93296891225187clip-2)"/><line x1="303.5" y1="39.9" x2="322.19" y2="39.9" style="stroke-width: 1.0;stroke: rgb(0,0,0);stroke-opacity: 1.0;" transform="matrix(1,0,0,1,0,0)" clip-path="url(#93296891225187clip-2)"/><rect x="303.5" y="38.74" width="18.69" height="0.61" style="stroke-width: 1.0;stroke: rgb(0,0,0);stroke-opacity: 1.0;; fill: none" transform="matrix(1,0,0,1,0,0)" clip-path="url(#93296891225187clip-2)"/><line x1="303.5" y1="39.07" x2="322.19" y2="39.07" style="stroke-width: 1.0;stroke: rgb(0,0,0);stroke-opacity: 1.0;" transform="matrix(1,0,0,1,0,0)" clip-path="url(#93296891225187clip-2)"/><rect x="327.81" y="38.77" width="18.69" height="0.6" style="fill: rgb(192,192,192); fill-opacity: 1.0" transform="matrix(1,0,0,1,0,0)" clip-path="url(#93296891225187clip-2)"/><line x1="337.16" y1="38" x2="337.16" y2="38.77" style="stroke-width: 1.0;stroke: rgb(0,0,0);stroke-opacity: 1.0;" transform="matrix(1,0,0,1,0,0)" clip-path="url(#93296891225187clip-2)"/><line x1="327.81" y1="38" x2="346.5" y2="38" style="stroke-width: 1.0;stroke: rgb(0,0,0);stroke-opacity: 1.0;" transform="matrix(1,0,0,1,0,0)" clip-path="url(#93296891225187clip-2)"/><line x1="337.16" y1="39.94" x2="337.16" y2="39.36" style="stroke-width: 1.0;stroke: rgb(0,0,0);stroke-opacity: 1.0;" transform="matrix(1,0,0,1,0,0)" clip-path="url(#93296891225187clip-2)"/><line x1="327.81" y1="39.94" x2="346.5" y2="39.94" style="stroke-width: 1.0;stroke: rgb(0,0,0);stroke-opacity: 1.0;" transform="matrix(1,0,0,1,0,0)" clip-path="url(#93296891225187clip-2)"/><rect x="327.81" y="38.77" width="18.69" height="0.6" style="stroke-width: 1.0;stroke: rgb(0,0,0);stroke-opacity: 1.0;; fill: none" transform="matrix(1,0,0,1,0,0)" clip-path="url(#93296891225187clip-2)"/><line x1="327.81" y1="39.05" x2="346.5" y2="39.05" style="stroke-width: 1.0;stroke: rgb(0,0,0);stroke-opacity: 1.0;" transform="matrix(1,0,0,1,0,0)" clip-path="url(#93296891225187clip-2)"/><g style="stroke-width: 1.0;stroke: rgb(192,192,192);stroke-opacity: 1.0;; fill: none" transform="matrix(1,0,0,1,0,0)" clip-path="url(#93296891225187clip-2)"><path d="M 340.27 34.75 C 340.27 36.47 338.88 37.87 337.16 37.87 C 335.44 37.87 334.04 36.47 334.04 34.75 C 334.04 33.03 335.44 31.64 337.16 31.64 C 338.88 31.64 340.27 33.03 340.27 34.75 M 340.27 34.75"/></g><rect x="352.12" y="38.77" width="18.69" height="0.6" style="fill: rgb(192,192,192); fill-opacity: 1.0" transform="matrix(1,0,0,1,0,0)" clip-path="url(#93296891225187clip-2)"/><line x1="361.47" y1="38" x2="361.47" y2="38.77" style="stroke-width: 1.0;stroke: rgb(0,0,0);stroke-opacity: 1.0;" transform="matrix(1,0,0,1,0,0)" clip-path="url(#93296891225187clip-2)"/><line x1="352.12" y1="38" x2="370.81" y2="38" style="stroke-width: 1.0;stroke: rgb(0,0,0);stroke-opacity: 1.0;" transform="matrix(1,0,0,1,0,0)" clip-path="url(#93296891225187clip-2)"/><line x1="361.47" y1="40" x2="361.47" y2="39.36" style="stroke-width: 1.0;stroke: rgb(0,0,0);stroke-opacity: 1.0;" transform="matrix(1,0,0,1,0,0)" clip-path="url(#93296891225187clip-2)"/><line x1="352.12" y1="40" x2="370.81" y2="40" style="stroke-width: 1.0;stroke: rgb(0,0,0);stroke-opacity: 1.0;" transform="matrix(1,0,0,1,0,0)" clip-path="url(#93296891225187clip-2)"/><rect x="352.12" y="38.77" width="18.69" height="0.6" style="stroke-width: 1.0;stroke: rgb(0,0,0);stroke-opacity: 1.0;; fill: none" transform="matrix(1,0,0,1,0,0)" clip-path="url(#93296891225187clip-2)"/><line x1="352.12" y1="39.07" x2="370.81" y2="39.07" style="stroke-width: 1.0;stroke: rgb(0,0,0);stroke-opacity: 1.0;" transform="matrix(1,0,0,1,0,0)" clip-path="url(#93296891225187clip-2)"/><g style="stroke-width: 1.0;stroke: rgb(192,192,192);stroke-opacity: 1.0;; fill: none" transform="matrix(1,0,0,1,0,0)" clip-path="url(#93296891225187clip-2)"><path d="M 358.35 34.74 C 358.35 36.46 356.96 37.86 355.24 37.86 C 353.52 37.86 352.12 36.46 352.12 34.74 C 352.12 33.02 353.52 31.63 355.24 31.63 C 356.96 31.63 358.35 33.02 358.35 34.74 M 358.35 34.74"/></g><g style="stroke-width: 1.0;stroke: rgb(192,192,192);stroke-opacity: 1.0;; fill: none" transform="matrix(1,0,0,1,0,0)" clip-path="url(#93296891225187clip-2)"><path d="M 370.81 34.74 C 370.81 36.46 369.42 37.86 367.7 37.86 C 365.98 37.86 364.58 36.46 364.58 34.74 C 364.58 33.02 365.98 31.63 367.7 31.63 C 369.42 31.63 370.81 33.02 370.81 34.74 M 370.81 34.74"/></g><rect x="376.43" y="38.71" width="18.69" height="0.65" style="fill: rgb(192,192,192); fill-opacity: 1.0" transform="matrix(1,0,0,1,0,0)" clip-path="url(#93296891225187clip-2)"/><line x1="385.78" y1="37.74" x2="385.78" y2="38.71" style="stroke-width: 1.0;stroke: rgb(0,0,0);stroke-opacity: 1.0;" transform="matrix(1,0,0,1,0,0)" clip-path="url(#93296891225187clip-2)"/><line x1="376.43" y1="37.74" x2="395.12" y2="37.74" style="stroke-width: 1.0;stroke: rgb(0,0,0);stroke-opacity: 1.0;" transform="matrix(1,0,0,1,0,0)" clip-path="url(#93296891225187clip-2)"/><line x1="385.78" y1="40.08" x2="385.78" y2="39.37" style="stroke-width: 1.0;stroke: rgb(0,0,0);stroke-opacity: 1.0;" transform="matrix(1,0,0,1,0,0)" clip-path="url(#93296891225187clip-2)"/><line x1="376.43" y1="40.08" x2="395.12" y2="40.08" style="stroke-width: 1.0;stroke: rgb(0,0,0);stroke-opacity: 1.0;" transform="matrix(1,0,0,1,0,0)" clip-path="url(#93296891225187clip-2)"/><rect x="376.43" y="38.71" width="18.69" height="0.65" style="stroke-width: 1.0;stroke: rgb(0,0,0);stroke-opacity: 1.0;; fill: none" transform="matrix(1,0,0,1,0,0)" clip-path="url(#93296891225187clip-2)"/><line x1="376.43" y1="39.04" x2="395.12" y2="39.04" style="stroke-width: 1.0;stroke: rgb(0,0,0);stroke-opacity: 1.0;" transform="matrix(1,0,0,1,0,0)" clip-path="url(#93296891225187clip-2)"/><rect x="400.74" y="38.7" width="18.69" height="0.66" style="fill: rgb(192,192,192); fill-opacity: 1.0" transform="matrix(1,0,0,1,0,0)" clip-path="url(#93296891225187clip-2)"/><line x1="410.09" y1="37.74" x2="410.09" y2="38.7" style="stroke-width: 1.0;stroke: rgb(0,0,0);stroke-opacity: 1.0;" transform="matrix(1,0,0,1,0,0)" clip-path="url(#93296891225187clip-2)"/><line x1="400.74" y1="37.74" x2="419.43" y2="37.74" style="stroke-width: 1.0;stroke: rgb(0,0,0);stroke-opacity: 1.0;" transform="matrix(1,0,0,1,0,0)" clip-path="url(#93296891225187clip-2)"/><line x1="410.09" y1="40.17" x2="410.09" y2="39.36" style="stroke-width: 1.0;stroke: rgb(0,0,0);stroke-opacity: 1.0;" transform="matrix(1,0,0,1,0,0)" clip-path="url(#93296891225187clip-2)"/><line x1="400.74" y1="40.17" x2="419.43" y2="40.17" style="stroke-width: 1.0;stroke: rgb(0,0,0);stroke-opacity: 1.0;" transform="matrix(1,0,0,1,0,0)" clip-path="url(#93296891225187clip-2)"/><rect x="400.74" y="38.7" width="18.69" height="0.66" style="stroke-width: 1.0;stroke: rgb(0,0,0);stroke-opacity: 1.0;; fill: none" transform="matrix(1,0,0,1,0,0)" clip-path="url(#93296891225187clip-2)"/><line x1="400.74" y1="39.06" x2="419.43" y2="39.06" style="stroke-width: 1.0;stroke: rgb(0,0,0);stroke-opacity: 1.0;" transform="matrix(1,0,0,1,0,0)" clip-path="url(#93296891225187clip-2)"/><rect x="425.05" y="38.66" width="18.69" height="0.74" style="fill: rgb(192,192,192); fill-opacity: 1.0" transform="matrix(1,0,0,1,0,0)" clip-path="url(#93296891225187clip-2)"/><line x1="434.4" y1="37.74" x2="434.4" y2="38.66" style="stroke-width: 1.0;stroke: rgb(0,0,0);stroke-opacity: 1.0;" transform="matrix(1,0,0,1,0,0)" clip-path="url(#93296891225187clip-2)"/><line x1="425.05" y1="37.74" x2="443.74" y2="37.74" style="stroke-width: 1.0;stroke: rgb(0,0,0);stroke-opacity: 1.0;" transform="matrix(1,0,0,1,0,0)" clip-path="url(#93296891225187clip-2)"/><line x1="434.4" y1="40.2" x2="434.4" y2="39.41" style="stroke-width: 1.0;stroke: rgb(0,0,0);stroke-opacity: 1.0;" transform="matrix(1,0,0,1,0,0)" clip-path="url(#93296891225187clip-2)"/><line x1="425.05" y1="40.2" x2="443.74" y2="40.2" style="stroke-width: 1.0;stroke: rgb(0,0,0);stroke-opacity: 1.0;" transform="matrix(1,0,0,1,0,0)" clip-path="url(#93296891225187clip-2)"/><rect x="425.05" y="38.66" width="18.69" height="0.74" style="stroke-width: 1.0;stroke: rgb(0,0,0);stroke-opacity: 1.0;; fill: none" transform="matrix(1,0,0,1,0,0)" clip-path="url(#93296891225187clip-2)"/><line x1="425.05" y1="39.07" x2="443.74" y2="39.07" style="stroke-width: 1.0;stroke: rgb(0,0,0);stroke-opacity: 1.0;" transform="matrix(1,0,0,1,0,0)" clip-path="url(#93296891225187clip-2)"/><g style="stroke-width: 1.0;stroke: rgb(192,192,192);stroke-opacity: 1.0;; fill: none" transform="matrix(1,0,0,1,0,0)" clip-path="url(#93296891225187clip-2)"><path d="M 437.51 34.08 C 437.51 35.8 436.12 37.19 434.4 37.19 C 432.68 37.19 431.28 35.8 431.28 34.08 C 431.28 32.36 432.68 30.96 434.4 30.96 C 436.12 30.96 437.51 32.36 437.51 34.08 M 437.51 34.08"/></g><rect x="449.37" y="38.63" width="18.69" height="0.76" style="fill: rgb(192,192,192); fill-opacity: 1.0" transform="matrix(1,0,0,1,0,0)" clip-path="url(#93296891225187clip-2)"/><line x1="458.71" y1="37.74" x2="458.71" y2="38.63" style="stroke-width: 1.0;stroke: rgb(0,0,0);stroke-opacity: 1.0;" transform="matrix(1,0,0,1,0,0)" clip-path="url(#93296891225187clip-2)"/><line x1="449.37" y1="37.74" x2="468.06" y2="37.74" style="stroke-width: 1.0;stroke: rgb(0,0,0);stroke-opacity: 1.0;" transform="matrix(1,0,0,1,0,0)" clip-path="url(#93296891225187clip-2)"/><line x1="458.71" y1="40.2" x2="458.71" y2="39.39" style="stroke-width: 1.0;stroke: rgb(0,0,0);stroke-opacity: 1.0;" transform="matrix(1,0,0,1,0,0)" clip-path="url(#93296891225187clip-2)"/><line x1="449.37" y1="40.2" x2="468.06" y2="40.2" style="stroke-width: 1.0;stroke: rgb(0,0,0);stroke-opacity: 1.0;" transform="matrix(1,0,0,1,0,0)" clip-path="url(#93296891225187clip-2)"/><rect x="449.37" y="38.63" width="18.69" height="0.76" style="stroke-width: 1.0;stroke: rgb(0,0,0);stroke-opacity: 1.0;; fill: none" transform="matrix(1,0,0,1,0,0)" clip-path="url(#93296891225187clip-2)"/><line x1="449.37" y1="39.08" x2="468.06" y2="39.08" style="stroke-width: 1.0;stroke: rgb(0,0,0);stroke-opacity: 1.0;" transform="matrix(1,0,0,1,0,0)" clip-path="url(#93296891225187clip-2)"/><g style="stroke-width: 1.0;stroke: rgb(192,192,192);stroke-opacity: 1.0;; fill: none" transform="matrix(1,0,0,1,0,0)" clip-path="url(#93296891225187clip-2)"><path d="M 461.83 34.08 C 461.83 35.8 460.43 37.19 458.71 37.19 C 456.99 37.19 455.6 35.8 455.6 34.08 C 455.6 32.36 456.99 30.96 458.71 30.96 C 460.43 30.96 461.83 32.36 461.83 34.08 M 461.83 34.08"/></g><rect x="473.68" y="38.67" width="18.69" height="0.72" style="fill: rgb(192,192,192); fill-opacity: 1.0" transform="matrix(1,0,0,1,0,0)" clip-path="url(#93296891225187clip-2)"/><line x1="483.02" y1="37.74" x2="483.02" y2="38.67" style="stroke-width: 1.0;stroke: rgb(0,0,0);stroke-opacity: 1.0;" transform="matrix(1,0,0,1,0,0)" clip-path="url(#93296891225187clip-2)"/><line x1="473.68" y1="37.74" x2="492.37" y2="37.74" style="stroke-width: 1.0;stroke: rgb(0,0,0);stroke-opacity: 1.0;" transform="matrix(1,0,0,1,0,0)" clip-path="url(#93296891225187clip-2)"/><line x1="483.02" y1="40.2" x2="483.02" y2="39.39" style="stroke-width: 1.0;stroke: rgb(0,0,0);stroke-opacity: 1.0;" transform="matrix(1,0,0,1,0,0)" clip-path="url(#93296891225187clip-2)"/><line x1="473.68" y1="40.2" x2="492.37" y2="40.2" style="stroke-width: 1.0;stroke: rgb(0,0,0);stroke-opacity: 1.0;" transform="matrix(1,0,0,1,0,0)" clip-path="url(#93296891225187clip-2)"/><rect x="473.68" y="38.67" width="18.69" height="0.72" style="stroke-width: 1.0;stroke: rgb(0,0,0);stroke-opacity: 1.0;; fill: none" transform="matrix(1,0,0,1,0,0)" clip-path="url(#93296891225187clip-2)"/><line x1="473.68" y1="39.07" x2="492.37" y2="39.07" style="stroke-width: 1.0;stroke: rgb(0,0,0);stroke-opacity: 1.0;" transform="matrix(1,0,0,1,0,0)" clip-path="url(#93296891225187clip-2)"/><line x1="483.02" y1="23" x2="483.02" y2="23" style="stroke-width: 1.0;stroke: rgb(192,192,192);stroke-opacity: 1.0;" transform="matrix(1,0,0,1,0,0)" clip-path="url(#93296891225187clip-2)"/><line x1="483.02" y1="23" x2="483.02" y2="23" style="stroke-width: 1.0;stroke: rgb(192,192,192);stroke-opacity: 1.0;" transform="matrix(1,0,0,1,0,0)" clip-path="url(#93296891225187clip-2)"/><line x1="483.02" y1="23" x2="483.02" y2="23" style="stroke-width: 1.0;stroke: rgb(192,192,192);stroke-opacity: 1.0;" transform="matrix(1,0,0,1,0,0)" clip-path="url(#93296891225187clip-2)"/><rect x="497.99" y="38.64" width="18.69" height="0.76" style="fill: rgb(192,192,192); fill-opacity: 1.0" transform="matrix(1,0,0,1,0,0)" clip-path="url(#93296891225187clip-2)"/><line x1="507.33" y1="37.74" x2="507.33" y2="38.64" style="stroke-width: 1.0;stroke: rgb(0,0,0);stroke-opacity: 1.0;" transform="matrix(1,0,0,1,0,0)" clip-path="url(#93296891225187clip-2)"/><line x1="497.99" y1="37.74" x2="516.68" y2="37.74" style="stroke-width: 1.0;stroke: rgb(0,0,0);stroke-opacity: 1.0;" transform="matrix(1,0,0,1,0,0)" clip-path="url(#93296891225187clip-2)"/><line x1="507.33" y1="40.2" x2="507.33" y2="39.41" style="stroke-width: 1.0;stroke: rgb(0,0,0);stroke-opacity: 1.0;" transform="matrix(1,0,0,1,0,0)" clip-path="url(#93296891225187clip-2)"/><line x1="497.99" y1="40.2" x2="516.68" y2="40.2" style="stroke-width: 1.0;stroke: rgb(0,0,0);stroke-opacity: 1.0;" transform="matrix(1,0,0,1,0,0)" clip-path="url(#93296891225187clip-2)"/><rect x="497.99" y="38.64" width="18.69" height="0.76" style="stroke-width: 1.0;stroke: rgb(0,0,0);stroke-opacity: 1.0;; fill: none" transform="matrix(1,0,0,1,0,0)" clip-path="url(#93296891225187clip-2)"/><line x1="497.99" y1="39.06" x2="516.68" y2="39.06" style="stroke-width: 1.0;stroke: rgb(0,0,0);stroke-opacity: 1.0;" transform="matrix(1,0,0,1,0,0)" clip-path="url(#93296891225187clip-2)"/><g style="stroke-width: 1.0;stroke: rgb(192,192,192);stroke-opacity: 1.0;; fill: none" transform="matrix(1,0,0,1,0,0)" clip-path="url(#93296891225187clip-2)"><path d="M 510.45 34.08 C 510.45 35.8 509.05 37.19 507.33 37.19 C 505.61 37.19 504.22 35.8 504.22 34.08 C 504.22 32.36 505.61 30.96 507.33 30.96 C 509.05 30.96 510.45 32.36 510.45 34.08 M 510.45 34.08"/></g><rect x="522.3" y="38.65" width="18.69" height="0.78" style="fill: rgb(192,192,192); fill-opacity: 1.0" transform="matrix(1,0,0,1,0,0)" clip-path="url(#93296891225187clip-2)"/><line x1="531.64" y1="37.6" x2="531.64" y2="38.65" style="stroke-width: 1.0;stroke: rgb(0,0,0);stroke-opacity: 1.0;" transform="matrix(1,0,0,1,0,0)" clip-path="url(#93296891225187clip-2)"/><line x1="522.3" y1="37.6" x2="540.99" y2="37.6" style="stroke-width: 1.0;stroke: rgb(0,0,0);stroke-opacity: 1.0;" transform="matrix(1,0,0,1,0,0)" clip-path="url(#93296891225187clip-2)"/><line x1="531.64" y1="40.2" x2="531.64" y2="39.43" style="stroke-width: 1.0;stroke: rgb(0,0,0);stroke-opacity: 1.0;" transform="matrix(1,0,0,1,0,0)" clip-path="url(#93296891225187clip-2)"/><line x1="522.3" y1="40.2" x2="540.99" y2="40.2" style="stroke-width: 1.0;stroke: rgb(0,0,0);stroke-opacity: 1.0;" transform="matrix(1,0,0,1,0,0)" clip-path="url(#93296891225187clip-2)"/><rect x="522.3" y="38.65" width="18.69" height="0.78" style="stroke-width: 1.0;stroke: rgb(0,0,0);stroke-opacity: 1.0;; fill: none" transform="matrix(1,0,0,1,0,0)" clip-path="url(#93296891225187clip-2)"/><line x1="522.3" y1="39.05" x2="540.99" y2="39.05" style="stroke-width: 1.0;stroke: rgb(0,0,0);stroke-opacity: 1.0;" transform="matrix(1,0,0,1,0,0)" clip-path="url(#93296891225187clip-2)"/><g style="stroke-width: 1.0;stroke: rgb(192,192,192);stroke-opacity: 1.0;; fill: none" transform="matrix(1,0,0,1,0,0)" clip-path="url(#93296891225187clip-2)"><path d="M 534.76 34.08 C 534.76 35.8 533.36 37.19 531.64 37.19 C 529.92 37.19 528.53 35.8 528.53 34.08 C 528.53 32.36 529.92 30.96 531.64 30.96 C 533.36 30.96 534.76 32.36 534.76 34.08 M 534.76 34.08"/></g><rect x="546.61" y="38.63" width="18.69" height="0.88" style="fill: rgb(192,192,192); fill-opacity: 1.0" transform="matrix(1,0,0,1,0,0)" clip-path="url(#93296891225187clip-2)"/><line x1="555.96" y1="37.52" x2="555.96" y2="38.63" style="stroke-width: 1.0;stroke: rgb(0,0,0);stroke-opacity: 1.0;" transform="matrix(1,0,0,1,0,0)" clip-path="url(#93296891225187clip-2)"/><line x1="546.61" y1="37.52" x2="565.3" y2="37.52" style="stroke-width: 1.0;stroke: rgb(0,0,0);stroke-opacity: 1.0;" transform="matrix(1,0,0,1,0,0)" clip-path="url(#93296891225187clip-2)"/><line x1="555.96" y1="40.2" x2="555.96" y2="39.5" style="stroke-width: 1.0;stroke: rgb(0,0,0);stroke-opacity: 1.0;" transform="matrix(1,0,0,1,0,0)" clip-path="url(#93296891225187clip-2)"/><line x1="546.61" y1="40.2" x2="565.3" y2="40.2" style="stroke-width: 1.0;stroke: rgb(0,0,0);stroke-opacity: 1.0;" transform="matrix(1,0,0,1,0,0)" clip-path="url(#93296891225187clip-2)"/><rect x="546.61" y="38.63" width="18.69" height="0.88" style="stroke-width: 1.0;stroke: rgb(0,0,0);stroke-opacity: 1.0;; fill: none" transform="matrix(1,0,0,1,0,0)" clip-path="url(#93296891225187clip-2)"/><line x1="546.61" y1="39.08" x2="565.3" y2="39.08" style="stroke-width: 1.0;stroke: rgb(0,0,0);stroke-opacity: 1.0;" transform="matrix(1,0,0,1,0,0)" clip-path="url(#93296891225187clip-2)"/><g style="stroke-width: 1.0;stroke: rgb(192,192,192);stroke-opacity: 1.0;; fill: none" transform="matrix(1,0,0,1,0,0)" clip-path="url(#93296891225187clip-2)"><path d="M 552.84 34.08 C 552.84 35.8 551.45 37.19 549.72 37.19 C 548 37.19 546.61 35.8 546.61 34.08 C 546.61 32.36 548 30.96 549.72 30.96 C 551.45 30.96 552.84 32.36 552.84 34.08 M 552.84 34.08"/></g><g style="stroke-width: 1.0;stroke: rgb(192,192,192);stroke-opacity: 1.0;; fill: none" transform="matrix(1,0,0,1,0,0)" clip-path="url(#93296891225187clip-2)"><path d="M 565.3 34.08 C 565.3 35.8 563.91 37.19 562.18 37.19 C 560.46 37.19 559.07 35.8 559.07 34.08 C 559.07 32.36 560.46 30.96 562.18 30.96 C 563.91 30.96 565.3 32.36 565.3 34.08 M 565.3 34.08"/></g><rect x="58" y="23" width="534" height="305" style="stroke-width: 0.5;stroke: rgb(128,128,128);stroke-opacity: 1.0;; fill: none" transform="matrix(1,0,0,1,0,0)" clip-path="url(#93296891225187clip-0)"/></svg>
