<!DOCTYPE svg PUBLIC "-//W3C//DTD SVG 1.1//EN" "http://www.w3.org/Graphics/SVG/1.1/DTD/svg11.dtd">
<svg xmlns="http://www.w3.org/2000/svg" xmlns:xlink="http://www.w3.org/1999/xlink" xmlns:jfreesvg="http://www.jfree.org/jfreesvg/svg" width="600" height="400" text-rendering="auto" shape-rendering="auto">
<defs><clipPath id="93296883818497clip-0"><path d="M 0 0 L 600 0 L 600 400 L 0 400 L 0 0 M 0 0"/></clipPath>
<clipPath id="93296883818497clip-1"><path d="M 194.43 156.57 L 194.43 756.57 L -205.57 756.57 L -205.57 156.57 L 194.43 156.57 M 194.43 156.57"/></clipPath>
<clipPath id="93296883818497clip-2"><path d="M 58 23 L 58 328 L 592 328 L 592 23 M 58 23"/></clipPath>
</defs>
<rect x="0" y="0" width="600" height="400" style="fill: rgb(238,238,238); fill-opacity: 1.0" transform="matrix(1,0,0,1,0,0)" clip-path="url(#93296883818497clip-0)"/><g style="fill: rgb(0,0,0); fill-opacity: 1.0; stroke: none" transform="matrix(1,0,0,1,0,0)" clip-path="url(#93296883818497clip-0)"><path d="M 282.34 14.3 Q 280.44 14.79 279.06 14.79 Q 276.45 14.79 275.04 13.41 Q 273.64 12.03 273.64 9.46 Q 273.64 6.91 275.04 5.54 Q 276.45 4.17 279.04 4.17 Q 280.7 4.17 282.34 4.55 L 282.34 6.2 Q 280.44 5.55 279.23 5.55 Q 277.62 5.55 276.75 6.58 Q 275.87 7.6 275.87 9.48 Q 275.87 11.3 276.81 12.34 Q 277.74 13.37 279.39 13.37 Q 279.75 13.37 280.24 13.27 L 280.24 9.94 L 282.34 9.94 M 282.34 14.3 M 297.41 14.13 Q 295.94 14.79 293.9 14.79 Q 291.41 14.79 290.02 13.39 Q 288.64 11.99 288.64 9.48 Q 288.64 6.92 290.03 5.54 Q 291.43 4.17 294.02 4.17 Q 295.68 4.17 297.31 4.55 L 297.31 6.2 Q 295.46 5.55 294.21 5.55 Q 292.61 5.55 291.74 6.57 Q 290.87 7.58 290.87 9.45 Q 290.87 11.28 291.8 12.31 Q 292.74 13.33 294.4 13.33 Q 295.89 13.33 297.41 12.58 M 297.41 14.13 M 299.26 14.54 L 299.26 3.74 L 301.29 3.74 L 301.29 8.44 Q 302.28 6.86 303.84 6.86 Q 304.85 6.86 305.43 7.49 Q 306.01 8.13 306.01 9.23 L 306.01 14.54 L 303.99 14.54 L 303.99 9.73 Q 303.99 8.45 303.14 8.45 Q 302.18 8.45 301.29 9.81 L 301.29 14.54 M 299.26 14.54 M 311.94 13.73 Q 310.93 14.71 309.78 14.71 Q 308.79 14.71 308.18 14.1 Q 307.56 13.5 307.56 12.55 Q 307.56 11.3 308.56 10.63 Q 309.55 9.96 311.4 9.96 L 311.94 9.96 L 311.94 9.27 Q 311.94 8.1 310.61 8.1 Q 309.43 8.1 308.22 8.77 L 308.22 7.38 Q 309.59 6.86 310.94 6.86 Q 313.88 6.86 313.88 9.2 L 313.88 12.53 Q 313.88 13.41 314.45 13.41 Q 314.55 13.41 314.72 13.38 L 314.77 14.51 Q 314.12 14.71 313.63 14.71 Q 312.39 14.71 312.03 13.73 M 311.94 13.73 M 311.94 12.64 L 311.94 11.12 L 311.46 11.12 Q 309.5 11.12 309.5 12.35 Q 309.5 12.76 309.79 13.05 Q 310.07 13.33 310.49 13.33 Q 311.2 13.33 311.94 12.64 M 311.94 12.64 M 316.26 14.54 L 316.26 7.03 L 318.29 7.03 L 318.29 8.44 Q 319.07 6.86 320.68 6.86 Q 320.87 6.86 321.06 6.9 L 321.06 8.7 Q 320.63 8.55 320.26 8.55 Q 319.05 8.55 318.29 9.77 L 318.29 14.54 M 316.26 14.54 M 326.13 14.49 Q 325.41 14.71 324.99 14.71 Q 322.36 14.71 322.36 12.25 L 322.36 8.29 L 321.52 8.29 L 321.52 7.03 L 322.36 7.03 L 322.36 5.76 L 324.38 5.53 L 324.38 7.03 L 325.99 7.03 L 325.99 8.29 L 324.38 8.29 L 324.38 11.98 Q 324.38 13.36 325.51 13.36 Q 325.77 13.36 326.13 13.26 M 326.13 14.49"/></g><rect x="262" y="373.33" width="76" height="25.67" style="fill: rgb(255,255,255); fill-opacity: 1.0" transform="matrix(1,0,0,1,0,0)" clip-path="url(#93296883818497clip-0)"/><line x1="262.5" y1="373.83" x2="337.5" y2="373.83" style="stroke-width: 1.0;stroke: rgb(0,0,0);stroke-opacity: 1.0;" transform="matrix(1,0,0,1,0,0)" clip-path="url(#93296883818497clip-0)"/><line x1="262.5" y1="398.5" x2="337.5" y2="398.5" style="stroke-width: 1.0;stroke: rgb(0,0,0);stroke-opacity: 1.0;" transform="matrix(1,0,0,1,0,0)" clip-path="url(#93296883818497clip-0)"/><line x1="262.5" y1="398.5" x2="262.5" y2="373.83" style="stroke-width: 1.0;stroke: rgb(0,0,0);stroke-opacity: 1.0;" transform="matrix(1,0,0,1,0,0)" clip-path="url(#93296883818497clip-0)"/><line x1="337.5" y1="398.5" x2="337.5" y2="373.83" style="stroke-width: 1.0;stroke: rgb(0,0,0);stroke-opacity: 1.0;" transform="matrix(1,0,0,1,0,0)" clip-path="url(#93296883818497clip-0)"/><g style="fill: rgb(192,192,192); fill-opacity: 1.0; stroke: none" transform="matrix(1,0,0,1,0,0)" clip-path="url(#93296883818497clip-0)"><path d="M 266 382.17 L 274 382.17 L 274 390.17 L 266 390.17 L 266 382.17 M 266 382.17"/></g><g style="stroke-width: 1.0;stroke: rgb(0,0,0);stroke-opacity: 1.0;; fill: none" transform="matrix(1,0,0,1,0,0)" clip-path="url(#93296883818497clip-0)"><path d="M 266 382.17 L 274 382.17 L 274 390.17 L 266 390.17 L 266 382.17 M 266 382.17"/></g><g style="fill: rgb(0,0,0); fill-opacity: 1.0; stroke: none" transform="matrix(1,0,0,1,0,0)" clip-path="url(#93296883818497clip-0)"><path d="M 281.52 392.11 Q 280.43 392.11 278.73 391.63 L 278.73 390.11 Q 280.56 390.96 281.74 390.96 Q 282.65 390.96 283.2 390.48 Q 283.76 390 283.76 389.23 Q 283.76 388.59 283.39 388.14 Q 283.03 387.7 282.06 387.15 L 281.31 386.72 Q 279.93 385.93 279.36 385.23 Q 278.79 384.53 278.79 383.6 Q 278.79 382.34 279.7 381.53 Q 280.61 380.73 282.01 380.73 Q 283.27 380.73 284.66 381.14 L 284.66 382.55 Q 282.94 381.88 282.1 381.88 Q 281.3 381.88 280.78 382.3 Q 280.26 382.72 280.26 383.37 Q 280.26 383.91 280.64 384.33 Q 281.02 384.75 282.04 385.32 L 282.81 385.76 Q 284.22 386.56 284.77 387.27 Q 285.33 387.98 285.33 388.98 Q 285.33 390.39 284.29 391.25 Q 283.24 392.11 281.52 392.11 M 281.52 392.11 M 294.27 391.58 Q 292.82 392.02 291.79 392.02 Q 290.03 392.02 288.92 390.85 Q 287.81 389.68 287.81 387.82 Q 287.81 386.01 288.79 384.86 Q 289.77 383.7 291.29 383.7 Q 292.73 383.7 293.52 384.72 Q 294.31 385.75 294.31 387.64 L 294.3 388.09 L 289.29 388.09 Q 289.6 390.92 292.06 390.92 Q 292.96 390.92 294.27 390.44 M 294.27 391.58 M 289.35 387 L 292.86 387 Q 292.86 384.78 291.2 384.78 Q 289.54 384.78 289.35 387 M 289.35 387 M 297.44 391.84 L 297.44 383.88 L 298.89 383.88 L 298.89 385.38 Q 299.74 383.71 301.38 383.71 Q 301.6 383.71 301.84 383.74 L 301.84 385.09 Q 301.46 384.97 301.18 384.97 Q 299.81 384.97 298.89 386.59 L 298.89 391.84 M 297.44 391.84 M 304.44 391.84 L 304.44 383.88 L 305.89 383.88 L 305.89 391.84 M 304.44 391.84 M 304.44 382.44 L 304.44 381 L 305.89 381 L 305.89 382.44 M 304.44 382.44 M 315.27 391.58 Q 313.82 392.02 312.79 392.02 Q 311.03 392.02 309.92 390.85 Q 308.81 389.68 308.81 387.82 Q 308.81 386.01 309.79 384.86 Q 310.77 383.7 312.29 383.7 Q 313.73 383.7 314.52 384.72 Q 315.31 385.75 315.31 387.64 L 315.3 388.09 L 310.29 388.09 Q 310.6 390.92 313.06 390.92 Q 313.96 390.92 315.27 390.44 M 315.27 391.58 M 310.35 387 L 313.86 387 Q 313.86 384.78 312.2 384.78 Q 310.54 384.78 310.35 387 M 310.35 387 M 320.55 392.02 Q 319.56 392.02 318.15 391.56 L 318.15 390.23 Q 319.56 390.94 320.61 390.94 Q 321.23 390.94 321.64 390.6 Q 322.05 390.26 322.05 389.76 Q 322.05 389.02 320.9 388.53 L 320.06 388.17 Q 318.19 387.4 318.19 385.94 Q 318.19 384.9 318.93 384.3 Q 319.67 383.71 320.95 383.71 Q 321.61 383.71 322.6 383.89 L 322.9 383.95 L 322.9 385.15 Q 321.69 384.79 320.98 384.79 Q 319.59 384.79 319.59 385.8 Q 319.59 386.45 320.64 386.9 L 321.34 387.19 Q 322.52 387.69 323.01 388.24 Q 323.5 388.8 323.5 389.62 Q 323.5 390.67 322.67 391.35 Q 321.84 392.02 320.55 392.02 M 320.55 392.02 M 332.26 391.84 L 332.26 390.75 L 334.42 390.75 L 334.42 382.2 L 332.26 382.74 L 332.26 381.63 L 335.87 380.73 L 335.87 390.75 L 338.04 390.75 L 338.04 391.84 M 332.26 391.84"/></g><rect x="58" y="23" width="534" height="305" style="fill: rgb(255,255,255); fill-opacity: 1.0" transform="matrix(1,0,0,1,0,0)" clip-path="url(#93296883818497clip-0)"/><line x1="58" y1="328" x2="592" y2="328" style="stroke-width: 1.0;stroke: rgb(128,128,128);stroke-opacity: 1.0;" transform="matrix(1,0,0,1,0,0)" clip-path="url(#93296883818497clip-0)"/><line x1="94.05" y1="328" x2="94.05" y2="328" style="stroke-width: 1.0;stroke: rgb(128,128,128);stroke-opacity: 1.0;" transform="matrix(1,0,0,1,0,0)" clip-path="url(#93296883818497clip-0)"/><line x1="94.05" y1="328" x2="94.05" y2="330" style="stroke-width: 1.0;stroke: rgb(128,128,128);stroke-opacity: 1.0;" transform="matrix(1,0,0,1,0,0)" clip-path="url(#93296883818497clip-0)"/><line x1="118.36" y1="328" x2="118.36" y2="328" style="stroke-width: 1.0;stroke: rgb(128,128,128);stroke-opacity: 1.0;" transform="matrix(1,0,0,1,0,0)" clip-path="url(#93296883818497clip-0)"/><line x1="118.36" y1="328" x2="118.36" y2="330" style="stroke-width: 1.0;stroke: rgb(128,128,128);stroke-opacity: 1.0;" transform="matrix(1,0,0,1,0,0)" clip-path="url(#93296883818497clip-0)"/><line x1="142.67" y1="328" x2="142.67" y2="328" style="stroke-width: 1.0;stroke: rgb(128,128,128);stroke-opacity: 1.0;" transform="matrix(1,0,0,1,0,0)" clip-path="url(#93296883818497clip-0)"/><line x1="142.67" y1="328" x2="142.67" y2="330" style="stroke-width: 1.0;stroke: rgb(128,128,128);stroke-opacity: 1.0;" transform="matrix(1,0,0,1,0,0)" clip-path="url(#93296883818497clip-0)"/><line x1="166.98" y1="328" x2="166.98" y2="328" style="stroke-width: 1.0;stroke: rgb(128,128,128);stroke-opacity: 1.0;" transform="matrix(1,0,0,1,0,0)" clip-path="url(#93296883818497clip-0)"/><line x1="166.98" y1="328" x2="166.98" y2="330" style="stroke-width: 1.0;stroke: rgb(128,128,128);stroke-opacity: 1.0;" transform="matrix(1,0,0,1,0,0)" clip-path="url(#93296883818497clip-0)"/><line x1="191.29" y1="328" x2="191.29" y2="328" style="stroke-width: 1.0;stroke: rgb(128,128,128);stroke-opacity: 1.0;" transform="matrix(1,0,0,1,0,0)" clip-path="url(#93296883818497clip-0)"/><line x1="191.29" y1="328" x2="191.29" y2="330" style="stroke-width: 1.0;stroke: rgb(128,128,128);stroke-opacity: 1.0;" transform="matrix(1,0,0,1,0,0)" clip-path="url(#93296883818497clip-0)"/><line x1="215.6" y1="328" x2="215.6" y2="328" style="stroke-width: 1.0;stroke: rgb(128,128,128);stroke-opacity: 1.0;" transform="matrix(1,0,0,1,0,0)" clip-path="url(#93296883818497clip-0)"/><line x1="215.6" y1="328" x2="215.6" y2="330" style="stroke-width: 1.0;stroke: rgb(128,128,128);stroke-opacity: 1.0;" transform="matrix(1,0,0,1,0,0)" clip-path="url(#93296883818497clip-0)"/><line x1="239.91" y1="328" x2="239.91" y2="328" style="stroke-width: 1.0;stroke: rgb(128,128,128);stroke-opacity: 1.0;" transform="matrix(1,0,0,1,0,0)" clip-path="url(#93296883818497clip-0)"/><line x1="239.91" y1="328" x2="239.91" y2="330" style="stroke-width: 1.0;stroke: rgb(128,128,128);stroke-opacity: 1.0;" transform="matrix(1,0,0,1,0,0)" clip-path="url(#93296883818497clip-0)"/><line x1="264.22" y1="328" x2="264.22" y2="328" style="stroke-width: 1.0;stroke: rgb(128,128,128);stroke-opacity: 1.0;" transform="matrix(1,0,0,1,0,0)" clip-path="url(#93296883818497clip-0)"/><line x1="264.22" y1="328" x2="264.22" y2="330" style="stroke-width: 1.0;stroke: rgb(128,128,128);stroke-opacity: 1.0;" transform="matrix(1,0,0,1,0,0)" clip-path="url(#93296883818497clip-0)"/><line x1="288.53" y1="328" x2="288.53" y2="328" style="stroke-width: 1.0;stroke: rgb(128,128,128);stroke-opacity: 1.0;" transform="matrix(1,0,0,1,0,0)" clip-path="url(#93296883818497clip-0)"/><line x1="288.53" y1="328" x2="288.53" y2="330" style="stroke-width: 1.0;stroke: rgb(128,128,128);stroke-opacity: 1.0;" transform="matrix(1,0,0,1,0,0)" clip-path="url(#93296883818497clip-0)"/><line x1="312.84" y1="328" x2="312.84" y2="328" style="stroke-width: 1.0;stroke: rgb(128,128,128);stroke-opacity: 1.0;" transform="matrix(1,0,0,1,0,0)" clip-path="url(#93296883818497clip-0)"/><line x1="312.84" y1="328" x2="312.84" y2="330" style="stroke-width: 1.0;stroke: rgb(128,128,128);stroke-opacity: 1.0;" transform="matrix(1,0,0,1,0,0)" clip-path="url(#93296883818497clip-0)"/><line x1="337.16" y1="328" x2="337.16" y2="328" style="stroke-width: 1.0;stroke: rgb(128,128,128);stroke-opacity: 1.0;" transform="matrix(1,0,0,1,0,0)" clip-path="url(#93296883818497clip-0)"/><line x1="337.16" y1="328" x2="337.16" y2="330" style="stroke-width: 1.0;stroke: rgb(128,128,128);stroke-opacity: 1.0;" transform="matrix(1,0,0,1,0,0)" clip-path="url(#93296883818497clip-0)"/><line x1="361.47" y1="328" x2="361.47" y2="328" style="stroke-width: 1.0;stroke: rgb(128,128,128);stroke-opacity: 1.0;" transform="matrix(1,0,0,1,0,0)" clip-path="url(#93296883818497clip-0)"/><line x1="361.47" y1="328" x2="361.47" y2="330" style="stroke-width: 1.0;stroke: rgb(128,128,128);stroke-opacity: 1.0;" transform="matrix(1,0,0,1,0,0)" clip-path="url(#93296883818497clip-0)"/><line x1="385.78" y1="328" x2="385.78" y2="328" style="stroke-width: 1.0;stroke: rgb(128,128,128);stroke-opacity: 1.0;" transform="matrix(1,0,0,1,0,0)" clip-path="url(#93296883818497clip-0)"/><line x1="385.78" y1="328" x2="385.78" y2="330" style="stroke-width: 1.0;stroke: rgb(128,128,128);stroke-opacity: 1.0;" transform="matrix(1,0,0,1,0,0)" clip-path="url(#93296883818497clip-0)"/><line x1="410.09" y1="328" x2="410.09" y2="328" style="stroke-width: 1.0;stroke: rgb(128,128,128);stroke-opacity: 1.0;" transform="matrix(1,0,0,1,0,0)" clip-path="url(#93296883818497clip-0)"/><line x1="410.09" y1="328" x2="410.09" y2="330" style="stroke-width: 1.0;stroke: rgb(128,128,128);stroke-opacity: 1.0;" transform="matrix(1,0,0,1,0,0)" clip-path="url(#93296883818497clip-0)"/><line x1="434.4" y1="328" x2="434.4" y2="328" style="stroke-width: 1.0;stroke: rgb(128,128,128);stroke-opacity: 1.0;" transform="matrix(1,0,0,1,0,0)" clip-path="url(#93296883818497clip-0)"/><line x1="434.4" y1="328" x2="434.4" y2="330" style="stroke-width: 1.0;stroke: rgb(128,128,128);stroke-opacity: 1.0;" transform="matrix(1,0,0,1,0,0)" clip-path="url(#93296883818497clip-0)"/><line x1="458.71" y1="328" x2="458.71" y2="328" style="stroke-width: 1.0;stroke: rgb(128,128,128);stroke-opacity: 1.0;" transform="matrix(1,0,0,1,0,0)" clip-path="url(#93296883818497clip-0)"/><line x1="458.71" y1="328" x2="458.71" y2="330" style="stroke-width: 1.0;stroke: rgb(128,128,128);stroke-opacity: 1.0;" transform="matrix(1,0,0,1,0,0)" clip-path="url(#93296883818497clip-0)"/><line x1="483.02" y1="328" x2="483.02" y2="328" style="stroke-width: 1.0;stroke: rgb(128,128,128);stroke-opacity: 1.0;" transform="matrix(1,0,0,1,0,0)" clip-path="url(#93296883818497clip-0)"/><line x1="483.02" y1="328" x2="483.02" y2="330" style="stroke-width: 1.0;stroke: rgb(128,128,128);stroke-opacity: 1.0;" transform="matrix(1,0,0,1,0,0)" clip-path="url(#93296883818497clip-0)"/><line x1="507.33" y1="328" x2="507.33" y2="328" style="stroke-width: 1.0;stroke: rgb(128,128,128);stroke-opacity: 1.0;" transform="matrix(1,0,0,1,0,0)" clip-path="url(#93296883818497clip-0)"/><line x1="507.33" y1="328" x2="507.33" y2="330" style="stroke-width: 1.0;stroke: rgb(128,128,128);stroke-opacity: 1.0;" transform="matrix(1,0,0,1,0,0)" clip-path="url(#93296883818497clip-0)"/><line x1="531.64" y1="328" x2="531.64" y2="328" style="stroke-width: 1.0;stroke: rgb(128,128,128);stroke-opacity: 1.0;" transform="matrix(1,0,0,1,0,0)" clip-path="url(#93296883818497clip-0)"/><line x1="531.64" y1="328" x2="531.64" y2="330" style="stroke-width: 1.0;stroke: rgb(128,128,128);stroke-opacity: 1.0;" transform="matrix(1,0,0,1,0,0)" clip-path="url(#93296883818497clip-0)"/><line x1="555.96" y1="328" x2="555.96" y2="328" style="stroke-width: 1.0;stroke: rgb(128,128,128);stroke-opacity: 1.0;" transform="matrix(1,0,0,1,0,0)" clip-path="url(#93296883818497clip-0)"/><line x1="555.96" y1="328" x2="555.96" y2="330" style="stroke-width: 1.0;stroke: rgb(128,128,128);stroke-opacity: 1.0;" transform="matrix(1,0,0,1,0,0)" clip-path="url(#93296883818497clip-0)"/><g style="fill: rgb(0,0,0); fill-opacity: 1.0; stroke: none" transform="matrix(1,0,0,1,0,0)" clip-path="url(#93296883818497clip-0)"><path d="M 92.55 343.67 L 92.55 342.95 L 93.99 342.95 L 93.99 337.24 L 92.55 337.6 L 92.55 336.86 L 94.96 336.26 L 94.96 342.95 L 96.41 342.95 L 96.41 343.67 M 92.55 343.67"/></g><g style="fill: rgb(0,0,0); fill-opacity: 1.0; stroke: none" transform="matrix(1,0,0,1,0,0)" clip-path="url(#93296883818497clip-0)"><path d="M 116.19 343.67 L 116.19 342.82 Q 116.61 341.84 117.89 340.68 L 118.44 340.19 Q 119.5 339.23 119.5 338.28 Q 119.5 337.68 119.14 337.33 Q 118.77 336.98 118.14 336.98 Q 117.39 336.98 116.37 337.56 L 116.37 336.71 Q 117.33 336.26 118.28 336.26 Q 119.29 336.26 119.91 336.81 Q 120.52 337.35 120.52 338.26 Q 120.52 338.91 120.21 339.41 Q 119.9 339.91 119.06 340.63 L 118.69 340.95 Q 117.53 341.93 117.35 342.82 L 120.49 342.82 L 120.49 343.67 M 116.19 343.67"/></g><g style="fill: rgb(0,0,0); fill-opacity: 1.0; stroke: none" transform="matrix(1,0,0,1,0,0)" clip-path="url(#93296883818497clip-0)"><path d="M 140.68 343.61 L 140.68 342.72 Q 141.72 343.13 142.31 343.13 Q 143 343.13 143.43 342.72 Q 143.87 342.32 143.87 341.68 Q 143.87 340.16 141.73 340.16 L 141.35 340.16 L 141.35 339.51 L 141.69 339.5 Q 143.69 339.5 143.69 338.09 Q 143.69 336.98 142.37 336.98 Q 141.65 336.98 140.78 337.39 L 140.78 336.55 Q 141.63 336.26 142.44 336.26 Q 144.66 336.26 144.66 337.94 Q 144.66 339.21 143.15 339.75 Q 144.9 340.16 144.9 341.67 Q 144.9 342.69 144.22 343.27 Q 143.55 343.85 142.37 343.85 Q 141.7 343.85 140.68 343.61 M 140.68 343.61"/></g><g style="fill: rgb(0,0,0); fill-opacity: 1.0; stroke: none" transform="matrix(1,0,0,1,0,0)" clip-path="url(#93296883818497clip-0)"><path d="M 167.74 343.67 L 167.74 341.62 L 164.49 341.62 L 164.49 340.89 L 167.74 336.44 L 168.65 336.44 L 168.65 340.84 L 169.61 340.84 L 169.61 341.62 L 168.65 341.62 L 168.65 343.67 M 167.74 343.67 M 165.43 340.84 L 167.81 340.84 L 167.81 337.62 M 165.43 340.84"/></g><g style="fill: rgb(0,0,0); fill-opacity: 1.0; stroke: none" transform="matrix(1,0,0,1,0,0)" clip-path="url(#93296883818497clip-0)"><path d="M 189.51 343.7 L 189.51 342.84 Q 190.22 343.13 190.87 343.13 Q 191.59 343.13 191.99 342.71 Q 192.4 342.29 192.4 341.55 Q 192.4 339.92 190.16 339.92 Q 189.91 339.92 189.63 339.96 L 189.63 336.44 L 193.28 336.44 L 193.28 337.28 L 190.47 337.28 L 190.47 339.19 Q 191.86 339.19 192.64 339.83 Q 193.43 340.46 193.43 341.6 Q 193.43 342.65 192.72 343.25 Q 192.01 343.85 190.75 343.85 Q 190.2 343.85 189.51 343.7 M 189.51 343.7"/></g><g style="fill: rgb(0,0,0); fill-opacity: 1.0; stroke: none" transform="matrix(1,0,0,1,0,0)" clip-path="url(#93296883818497clip-0)"><path d="M 214.32 339.92 Q 215.01 339.03 216.05 339.03 Q 217 339.03 217.6 339.66 Q 218.21 340.28 218.21 341.27 Q 218.21 342.39 217.53 343.12 Q 216.85 343.85 215.81 343.85 Q 214.62 343.85 213.94 342.89 Q 213.27 341.92 213.27 340.22 Q 213.27 338.34 214.04 337.3 Q 214.82 336.26 216.22 336.26 Q 216.87 336.26 217.83 336.53 L 217.83 337.37 Q 216.81 336.98 216.16 336.98 Q 214.32 336.98 214.32 339.92 M 214.32 339.92 M 217.24 341.48 Q 217.24 340.66 216.87 340.19 Q 216.5 339.72 215.85 339.72 Q 215.24 339.72 214.8 340.13 Q 214.36 340.54 214.36 341.12 Q 214.36 342.03 214.78 342.58 Q 215.19 343.13 215.88 343.13 Q 216.5 343.13 216.87 342.68 Q 217.24 342.23 217.24 341.48 M 217.24 341.48"/></g><g style="fill: rgb(0,0,0); fill-opacity: 1.0; stroke: none" transform="matrix(1,0,0,1,0,0)" clip-path="url(#93296883818497clip-0)"><path d="M 238.42 343.67 Q 238.56 342.82 238.82 342.21 Q 239.08 341.59 239.74 340.52 L 241.72 337.34 L 238 337.34 L 238 336.44 L 242.63 336.44 L 242.63 337.34 Q 239.86 341.44 239.52 343.67 M 238.42 343.67"/></g><g style="fill: rgb(0,0,0); fill-opacity: 1.0; stroke: none" transform="matrix(1,0,0,1,0,0)" clip-path="url(#93296883818497clip-0)"><path d="M 263.52 339.73 Q 262.46 339 262.46 338.1 Q 262.46 337.28 263.06 336.77 Q 263.66 336.26 264.63 336.26 Q 265.52 336.26 266.08 336.69 Q 266.63 337.12 266.63 337.82 Q 266.63 338.87 265.28 339.73 Q 266.92 340.53 266.92 341.8 Q 266.92 342.71 266.23 343.28 Q 265.55 343.85 264.46 343.85 Q 263.4 343.85 262.74 343.31 Q 262.09 342.77 262.09 341.89 Q 262.09 340.59 263.52 339.73 M 263.52 339.73 M 264.75 339.43 Q 265.76 338.77 265.76 337.95 Q 265.76 337.52 265.42 337.25 Q 265.08 336.98 264.53 336.98 Q 264 336.98 263.67 337.24 Q 263.34 337.51 263.34 337.92 Q 263.34 338.33 263.64 338.65 Q 263.94 338.97 264.75 339.43 M 264.75 339.43 M 264.04 340.12 Q 263.46 340.57 263.26 340.91 Q 263.05 341.24 263.05 341.74 Q 263.05 342.36 263.45 342.74 Q 263.85 343.13 264.5 343.13 Q 265.13 343.13 265.53 342.8 Q 265.93 342.47 265.93 341.95 Q 265.93 341.53 265.68 341.24 Q 265.44 340.95 264.73 340.53 M 264.04 340.12"/></g><g style="fill: rgb(0,0,0); fill-opacity: 1.0; stroke: none" transform="matrix(1,0,0,1,0,0)" clip-path="url(#93296883818497clip-0)"><path d="M 286.67 343.62 L 286.67 342.81 Q 287.59 343.13 288.23 343.13 Q 289.13 343.13 289.64 342.36 Q 290.14 341.6 290.14 340.24 Q 289.41 341.14 288.48 341.14 Q 287.56 341.14 286.93 340.47 Q 286.3 339.8 286.3 338.83 Q 286.3 337.72 286.97 336.99 Q 287.65 336.26 288.67 336.26 Q 289.85 336.26 290.53 337.21 Q 291.21 338.15 291.21 339.79 Q 291.21 341.66 290.38 342.75 Q 289.55 343.85 288.14 343.85 Q 287.57 343.85 286.67 343.62 M 286.67 343.62 M 287.26 338.64 Q 287.26 339.48 287.63 339.96 Q 288 340.45 288.65 340.45 Q 289.26 340.45 289.7 340.03 Q 290.13 339.62 290.13 339.03 Q 290.13 338.11 289.71 337.54 Q 289.29 336.98 288.61 336.98 Q 287.98 336.98 287.62 337.43 Q 287.26 337.87 287.26 338.64 M 287.26 338.64"/></g><g style="fill: rgb(0,0,0); fill-opacity: 1.0; stroke: none" transform="matrix(1,0,0,1,0,0)" clip-path="url(#93296883818497clip-0)"><path d="M 308.35 343.67 L 308.35 342.95 L 309.79 342.95 L 309.79 337.24 L 308.35 337.6 L 308.35 336.86 L 310.76 336.26 L 310.76 342.95 L 312.21 342.95 L 312.21 343.67 M 308.35 343.67 M 315.98 343.85 Q 314.86 343.85 314.17 342.8 Q 313.48 341.74 313.48 340.05 Q 313.48 338.34 314.18 337.3 Q 314.87 336.26 316.01 336.26 Q 317.15 336.26 317.84 337.3 Q 318.54 338.34 318.54 340.04 Q 318.54 341.77 317.84 342.81 Q 317.15 343.85 315.98 343.85 M 315.98 343.85 M 315.99 343.13 Q 317.52 343.13 317.52 340.02 Q 317.52 336.98 316.01 336.98 Q 314.5 336.98 314.5 340.05 Q 314.5 343.13 315.99 343.13 M 315.99 343.13"/></g><g style="fill: rgb(0,0,0); fill-opacity: 1.0; stroke: none" transform="matrix(1,0,0,1,0,0)" clip-path="url(#93296883818497clip-0)"><path d="M 332.66 343.67 L 332.66 342.95 L 334.1 342.95 L 334.1 337.24 L 332.66 337.6 L 332.66 336.86 L 335.07 336.26 L 335.07 342.95 L 336.52 342.95 L 336.52 343.67 M 332.66 343.67 M 338.66 343.67 L 338.66 342.95 L 340.1 342.95 L 340.1 337.24 L 338.66 337.6 L 338.66 336.86 L 341.07 336.26 L 341.07 342.95 L 342.52 342.95 L 342.52 343.67 M 338.66 343.67"/></g><g style="fill: rgb(0,0,0); fill-opacity: 1.0; stroke: none" transform="matrix(1,0,0,1,0,0)" clip-path="url(#93296883818497clip-0)"><path d="M 356.97 343.67 L 356.97 342.95 L 358.42 342.95 L 358.42 337.24 L 356.97 337.6 L 356.97 336.86 L 359.38 336.26 L 359.38 342.95 L 360.83 342.95 L 360.83 343.67 M 356.97 343.67 M 362.3 343.67 L 362.3 342.82 Q 362.72 341.84 364 340.68 L 364.55 340.19 Q 365.61 339.23 365.61 338.28 Q 365.61 337.68 365.25 337.33 Q 364.88 336.98 364.25 336.98 Q 363.5 336.98 362.48 337.56 L 362.48 336.71 Q 363.44 336.26 364.39 336.26 Q 365.4 336.26 366.02 336.81 Q 366.63 337.35 366.63 338.26 Q 366.63 338.91 366.32 339.41 Q 366.01 339.91 365.17 340.63 L 364.8 340.95 Q 363.64 341.93 363.46 342.82 L 366.6 342.82 L 366.6 343.67 M 362.3 343.67"/></g><g style="fill: rgb(0,0,0); fill-opacity: 1.0; stroke: none" transform="matrix(1,0,0,1,0,0)" clip-path="url(#93296883818497clip-0)"><path d="M 381.28 343.67 L 381.28 342.95 L 382.73 342.95 L 382.73 337.24 L 381.28 337.6 L 381.28 336.86 L 383.69 336.26 L 383.69 342.95 L 385.14 342.95 L 385.14 343.67 M 381.28 343.67 M 386.79 343.61 L 386.79 342.72 Q 387.83 343.13 388.42 343.13 Q 389.11 343.13 389.54 342.72 Q 389.98 342.32 389.98 341.68 Q 389.98 340.16 387.84 340.16 L 387.46 340.16 L 387.46 339.51 L 387.8 339.5 Q 389.8 339.5 389.8 338.09 Q 389.8 336.98 388.48 336.98 Q 387.76 336.98 386.89 337.39 L 386.89 336.55 Q 387.75 336.26 388.55 336.26 Q 390.77 336.26 390.77 337.94 Q 390.77 339.21 389.26 339.75 Q 391.01 340.16 391.01 341.67 Q 391.01 342.69 390.33 343.27 Q 389.66 343.85 388.48 343.85 Q 387.81 343.85 386.79 343.61 M 386.79 343.61"/></g><g style="fill: rgb(0,0,0); fill-opacity: 1.0; stroke: none" transform="matrix(1,0,0,1,0,0)" clip-path="url(#93296883818497clip-0)"><path d="M 405.59 343.67 L 405.59 342.95 L 407.04 342.95 L 407.04 337.24 L 405.59 337.6 L 405.59 336.86 L 408 336.26 L 408 342.95 L 409.45 342.95 L 409.45 343.67 M 405.59 343.67 M 413.85 343.67 L 413.85 341.62 L 410.6 341.62 L 410.6 340.89 L 413.85 336.44 L 414.76 336.44 L 414.76 340.84 L 415.72 340.84 L 415.72 341.62 L 414.76 341.62 L 414.76 343.67 M 413.85 343.67 M 411.54 340.84 L 413.92 340.84 L 413.92 337.62 M 411.54 340.84"/></g><g style="fill: rgb(0,0,0); fill-opacity: 1.0; stroke: none" transform="matrix(1,0,0,1,0,0)" clip-path="url(#93296883818497clip-0)"><path d="M 429.9 343.67 L 429.9 342.95 L 431.35 342.95 L 431.35 337.24 L 429.9 337.6 L 429.9 336.86 L 432.32 336.26 L 432.32 342.95 L 433.76 342.95 L 433.76 343.67 M 429.9 343.67 M 435.62 343.7 L 435.62 342.84 Q 436.33 343.13 436.98 343.13 Q 437.7 343.13 438.1 342.71 Q 438.51 342.29 438.51 341.55 Q 438.51 339.92 436.27 339.92 Q 436.02 339.92 435.74 339.96 L 435.74 336.44 L 439.39 336.44 L 439.39 337.28 L 436.58 337.28 L 436.58 339.19 Q 437.97 339.19 438.76 339.83 Q 439.54 340.46 439.54 341.6 Q 439.54 342.65 438.83 343.25 Q 438.12 343.85 436.86 343.85 Q 436.31 343.85 435.62 343.7 M 435.62 343.7"/></g><g style="fill: rgb(0,0,0); fill-opacity: 1.0; stroke: none" transform="matrix(1,0,0,1,0,0)" clip-path="url(#93296883818497clip-0)"><path d="M 454.21 343.67 L 454.21 342.95 L 455.66 342.95 L 455.66 337.24 L 454.21 337.6 L 454.21 336.86 L 456.63 336.26 L 456.63 342.95 L 458.07 342.95 L 458.07 343.67 M 454.21 343.67 M 460.43 339.92 Q 461.12 339.03 462.16 339.03 Q 463.11 339.03 463.71 339.66 Q 464.32 340.28 464.32 341.27 Q 464.32 342.39 463.64 343.12 Q 462.96 343.85 461.92 343.85 Q 460.73 343.85 460.05 342.89 Q 459.38 341.92 459.38 340.22 Q 459.38 338.34 460.15 337.3 Q 460.93 336.26 462.33 336.26 Q 462.98 336.26 463.95 336.53 L 463.95 337.37 Q 462.92 336.98 462.28 336.98 Q 460.43 336.98 460.43 339.92 M 460.43 339.92 M 463.35 341.48 Q 463.35 340.66 462.98 340.19 Q 462.61 339.72 461.96 339.72 Q 461.35 339.72 460.91 340.13 Q 460.47 340.54 460.47 341.12 Q 460.47 342.03 460.89 342.58 Q 461.3 343.13 461.99 343.13 Q 462.61 343.13 462.98 342.68 Q 463.35 342.23 463.35 341.48 M 463.35 341.48"/></g><g style="fill: rgb(0,0,0); fill-opacity: 1.0; stroke: none" transform="matrix(1,0,0,1,0,0)" clip-path="url(#93296883818497clip-0)"><path d="M 478.53 343.67 L 478.53 342.95 L 479.97 342.95 L 479.97 337.24 L 478.53 337.6 L 478.53 336.86 L 480.94 336.26 L 480.94 342.95 L 482.38 342.95 L 482.38 343.67 M 478.53 343.67 M 484.53 343.67 Q 484.67 342.82 484.93 342.21 Q 485.19 341.59 485.85 340.52 L 487.83 337.34 L 484.11 337.34 L 484.11 336.44 L 488.74 336.44 L 488.74 337.34 Q 485.97 341.44 485.63 343.67 M 484.53 343.67"/></g><g style="fill: rgb(0,0,0); fill-opacity: 1.0; stroke: none" transform="matrix(1,0,0,1,0,0)" clip-path="url(#93296883818497clip-0)"><path d="M 502.84 343.67 L 502.84 342.95 L 504.28 342.95 L 504.28 337.24 L 502.84 337.6 L 502.84 336.86 L 505.25 336.26 L 505.25 342.95 L 506.69 342.95 L 506.69 343.67 M 502.84 343.67 M 509.63 339.73 Q 508.57 339 508.57 338.1 Q 508.57 337.28 509.17 336.77 Q 509.77 336.26 510.74 336.26 Q 511.63 336.26 512.19 336.69 Q 512.74 337.12 512.74 337.82 Q 512.74 338.87 511.4 339.73 Q 513.03 340.53 513.03 341.8 Q 513.03 342.71 512.35 343.28 Q 511.66 343.85 510.58 343.85 Q 509.51 343.85 508.85 343.31 Q 508.2 342.77 508.2 341.89 Q 508.2 340.59 509.63 339.73 M 509.63 339.73 M 510.86 339.43 Q 511.87 338.77 511.87 337.95 Q 511.87 337.52 511.53 337.25 Q 511.2 336.98 510.64 336.98 Q 510.11 336.98 509.78 337.24 Q 509.45 337.51 509.45 337.92 Q 509.45 338.33 509.75 338.65 Q 510.05 338.97 510.86 339.43 M 510.86 339.43 M 510.16 340.12 Q 509.57 340.57 509.37 340.91 Q 509.16 341.24 509.16 341.74 Q 509.16 342.36 509.56 342.74 Q 509.96 343.13 510.61 343.13 Q 511.24 343.13 511.64 342.8 Q 512.04 342.47 512.04 341.95 Q 512.04 341.53 511.79 341.24 Q 511.55 340.95 510.84 340.53 M 510.16 340.12"/></g><g style="fill: rgb(0,0,0); fill-opacity: 1.0; stroke: none" transform="matrix(1,0,0,1,0,0)" clip-path="url(#93296883818497clip-0)"><path d="M 527.15 343.67 L 527.15 342.95 L 528.59 342.95 L 528.59 337.24 L 527.15 337.6 L 527.15 336.86 L 529.56 336.26 L 529.56 342.95 L 531.01 342.95 L 531.01 343.67 M 527.15 343.67 M 532.78 343.62 L 532.78 342.81 Q 533.7 343.13 534.34 343.13 Q 535.24 343.13 535.75 342.36 Q 536.25 341.6 536.25 340.24 Q 535.52 341.14 534.59 341.14 Q 533.68 341.14 533.04 340.47 Q 532.41 339.8 532.41 338.83 Q 532.41 337.72 533.08 336.99 Q 533.76 336.26 534.78 336.26 Q 535.96 336.26 536.64 337.21 Q 537.32 338.15 537.32 339.79 Q 537.32 341.66 536.49 342.75 Q 535.66 343.85 534.25 343.85 Q 533.68 343.85 532.78 343.62 M 532.78 343.62 M 533.37 338.64 Q 533.37 339.48 533.74 339.96 Q 534.11 340.45 534.76 340.45 Q 535.37 340.45 535.81 340.03 Q 536.24 339.62 536.24 339.03 Q 536.24 338.11 535.82 337.54 Q 535.4 336.98 534.72 336.98 Q 534.1 336.98 533.73 337.43 Q 533.37 337.87 533.37 338.64 M 533.37 338.64"/></g><g style="fill: rgb(0,0,0); fill-opacity: 1.0; stroke: none" transform="matrix(1,0,0,1,0,0)" clip-path="url(#93296883818497clip-0)"><path d="M 550.79 343.67 L 550.79 342.82 Q 551.21 341.84 552.48 340.68 L 553.04 340.19 Q 554.1 339.23 554.1 338.28 Q 554.1 337.68 553.74 337.33 Q 553.37 336.98 552.74 336.98 Q 551.99 336.98 550.97 337.56 L 550.97 336.71 Q 551.93 336.26 552.87 336.26 Q 553.89 336.26 554.51 336.81 Q 555.12 337.35 555.12 338.26 Q 555.12 338.91 554.81 339.41 Q 554.5 339.91 553.66 340.63 L 553.29 340.95 Q 552.13 341.93 551.95 342.82 L 555.09 342.82 L 555.09 343.67 M 550.79 343.67 M 559.09 343.85 Q 557.97 343.85 557.28 342.8 Q 556.59 341.74 556.59 340.05 Q 556.59 338.34 557.29 337.3 Q 557.98 336.26 559.12 336.26 Q 560.26 336.26 560.95 337.3 Q 561.65 338.34 561.65 340.04 Q 561.65 341.77 560.95 342.81 Q 560.26 343.85 559.09 343.85 M 559.09 343.85 M 559.1 343.13 Q 560.63 343.13 560.63 340.02 Q 560.63 336.98 559.12 336.98 Q 557.62 336.98 557.62 340.05 Q 557.62 343.13 559.1 343.13 M 559.1 343.13"/></g><g style="fill: rgb(0,0,0); fill-opacity: 1.0; stroke: none" transform="matrix(1,0,0,1,0,0)" clip-path="url(#93296883818497clip-0)"><path d="M 311.68 364.38 L 311.68 356.63 L 308.61 356.63 L 308.61 355.71 L 315.99 355.71 L 315.99 356.63 L 312.91 356.63 L 312.91 364.38 M 311.68 364.38 M 321.63 364.38 L 321.63 363.18 Q 320.71 364.53 319.4 364.53 Q 318.57 364.53 318.08 364 Q 317.58 363.48 317.58 362.59 L 317.58 358.02 L 318.74 358.02 L 318.74 362.21 Q 318.74 362.93 318.95 363.23 Q 319.15 363.53 319.64 363.53 Q 320.7 363.53 321.63 362.14 L 321.63 358.02 L 322.79 358.02 L 322.79 364.38 M 321.63 364.38 M 325.65 366.69 L 325.65 358.02 L 326.81 358.02 L 326.81 359.21 Q 327.52 357.88 328.94 357.88 Q 330.08 357.88 330.74 358.71 Q 331.4 359.55 331.4 361 Q 331.4 362.59 330.66 363.56 Q 329.91 364.53 328.69 364.53 Q 327.56 364.53 326.81 363.66 L 326.81 366.69 M 325.65 366.69 M 326.81 362.86 Q 327.7 363.66 328.51 363.66 Q 330.17 363.66 330.17 361.12 Q 330.17 358.88 328.7 358.88 Q 327.73 358.88 326.81 359.93 M 326.81 362.86 M 338.32 364.17 Q 337.16 364.53 336.33 364.53 Q 334.93 364.53 334.04 363.59 Q 333.15 362.66 333.15 361.17 Q 333.15 359.72 333.93 358.79 Q 334.71 357.87 335.93 357.87 Q 337.09 357.87 337.72 358.69 Q 338.35 359.51 338.35 361.02 L 338.34 361.38 L 334.33 361.38 Q 334.58 363.65 336.55 363.65 Q 337.27 363.65 338.32 363.26 M 338.32 364.17 M 334.38 360.51 L 337.19 360.51 Q 337.19 358.74 335.86 358.74 Q 334.53 358.74 334.38 360.51 M 334.38 360.51 M 340.65 364.38 L 340.65 355.13 L 341.81 355.13 L 341.81 364.38 M 340.65 364.38"/></g><line x1="58" y1="23" x2="58" y2="328" style="stroke-width: 1.0;stroke: rgb(128,128,128);stroke-opacity: 1.0;" transform="matrix(1,0,0,1,0,0)" clip-path="url(#93296883818497clip-0)"/><g style="fill: rgb(0,0,0); fill-opacity: 1.0; stroke: none" transform="matrix(1,0,0,1,0,0)" clip-path="url(#93296883818497clip-0)"><path d="M 34.13 331.96 Q 33.02 331.96 32.33 330.91 Q 31.63 329.86 31.63 328.16 Q 31.63 326.45 32.33 325.41 Q 33.03 324.37 34.16 324.37 Q 35.3 324.37 36 325.41 Q 36.69 326.45 36.69 328.15 Q 36.69 329.88 36 330.92 Q 35.3 331.96 34.13 331.96 M 34.13 331.96 M 34.14 331.24 Q 35.67 331.24 35.67 328.13 Q 35.67 325.09 34.16 325.09 Q 32.66 325.09 32.66 328.16 Q 32.66 331.24 34.14 331.24 M 34.14 331.24 M 37.98 331.78 L 37.98 330.57 L 39.18 330.57 L 39.18 331.78 M 37.98 331.78 M 43.13 331.96 Q 42.02 331.96 41.33 330.91 Q 40.63 329.86 40.63 328.16 Q 40.63 326.45 41.33 325.41 Q 42.03 324.37 43.16 324.37 Q 44.3 324.37 45 325.41 Q 45.69 326.45 45.69 328.15 Q 45.69 329.88 45 330.92 Q 44.3 331.96 43.13 331.96 M 43.13 331.96 M 43.14 331.24 Q 44.67 331.24 44.67 328.13 Q 44.67 325.09 43.16 325.09 Q 41.66 325.09 41.66 328.16 Q 41.66 331.24 43.14 331.24 M 43.14 331.24 M 49.13 331.96 Q 48.02 331.96 47.33 330.91 Q 46.63 329.86 46.63 328.16 Q 46.63 326.45 47.33 325.41 Q 48.03 324.37 49.16 324.37 Q 50.3 324.37 51 325.41 Q 51.69 326.45 51.69 328.15 Q 51.69 329.88 51 330.92 Q 50.3 331.96 49.13 331.96 M 49.13 331.96 M 49.14 331.24 Q 50.67 331.24 50.67 328.13 Q 50.67 325.09 49.16 325.09 Q 47.66 325.09 47.66 328.16 Q 47.66 331.24 49.14 331.24 M 49.14 331.24"/></g><line x1="56" y1="328" x2="58" y2="328" style="stroke-width: 1.0;stroke: rgb(128,128,128);stroke-opacity: 1.0;" transform="matrix(1,0,0,1,0,0)" clip-path="url(#93296883818497clip-0)"/><g style="fill: rgb(0,0,0); fill-opacity: 1.0; stroke: none" transform="matrix(1,0,0,1,0,0)" clip-path="url(#93296883818497clip-0)"><path d="M 34.13 315.79 Q 33.02 315.79 32.33 314.74 Q 31.63 313.69 31.63 311.99 Q 31.63 310.28 32.33 309.24 Q 33.03 308.2 34.16 308.2 Q 35.3 308.2 36 309.24 Q 36.69 310.28 36.69 311.98 Q 36.69 313.72 36 314.75 Q 35.3 315.79 34.13 315.79 M 34.13 315.79 M 34.14 315.07 Q 35.67 315.07 35.67 311.96 Q 35.67 308.93 34.16 308.93 Q 32.66 308.93 32.66 311.99 Q 32.66 315.07 34.14 315.07 M 34.14 315.07 M 37.98 315.61 L 37.98 314.41 L 39.18 314.41 L 39.18 315.61 M 37.98 315.61 M 43.13 315.79 Q 42.02 315.79 41.33 314.74 Q 40.63 313.69 40.63 311.99 Q 40.63 310.28 41.33 309.24 Q 42.03 308.2 43.16 308.2 Q 44.3 308.2 45 309.24 Q 45.69 310.28 45.69 311.98 Q 45.69 313.72 45 314.75 Q 44.3 315.79 43.13 315.79 M 43.13 315.79 M 43.14 315.07 Q 44.67 315.07 44.67 311.96 Q 44.67 308.93 43.16 308.93 Q 41.66 308.93 41.66 311.99 Q 41.66 315.07 43.14 315.07 M 43.14 315.07 M 47.5 315.61 L 47.5 314.89 L 48.95 314.89 L 48.95 309.19 L 47.5 309.55 L 47.5 308.8 L 49.92 308.2 L 49.92 314.89 L 51.36 314.89 L 51.36 315.61 M 47.5 315.61"/></g><line x1="56" y1="311.83" x2="58" y2="311.83" style="stroke-width: 1.0;stroke: rgb(128,128,128);stroke-opacity: 1.0;" transform="matrix(1,0,0,1,0,0)" clip-path="url(#93296883818497clip-0)"/><g style="fill: rgb(0,0,0); fill-opacity: 1.0; stroke: none" transform="matrix(1,0,0,1,0,0)" clip-path="url(#93296883818497clip-0)"><path d="M 34.13 299.62 Q 33.02 299.62 32.33 298.57 Q 31.63 297.52 31.63 295.83 Q 31.63 294.12 32.33 293.08 Q 33.03 292.04 34.16 292.04 Q 35.3 292.04 36 293.08 Q 36.69 294.12 36.69 295.81 Q 36.69 297.55 36 298.59 Q 35.3 299.62 34.13 299.62 M 34.13 299.62 M 34.14 298.9 Q 35.67 298.9 35.67 295.8 Q 35.67 292.76 34.16 292.76 Q 32.66 292.76 32.66 295.83 Q 32.66 298.9 34.14 298.9 M 34.14 298.9 M 37.98 299.44 L 37.98 298.24 L 39.18 298.24 L 39.18 299.44 M 37.98 299.44 M 43.13 299.62 Q 42.02 299.62 41.33 298.57 Q 40.63 297.52 40.63 295.83 Q 40.63 294.12 41.33 293.08 Q 42.03 292.04 43.16 292.04 Q 44.3 292.04 45 293.08 Q 45.69 294.12 45.69 295.81 Q 45.69 297.55 45 298.59 Q 44.3 299.62 43.13 299.62 M 43.13 299.62 M 43.14 298.9 Q 44.67 298.9 44.67 295.8 Q 44.67 292.76 43.16 292.76 Q 41.66 292.76 41.66 295.83 Q 41.66 298.9 43.14 298.9 M 43.14 298.9 M 46.83 299.44 L 46.83 298.6 Q 47.25 297.62 48.53 296.46 L 49.08 295.97 Q 50.15 295.01 50.15 294.06 Q 50.15 293.45 49.78 293.11 Q 49.42 292.76 48.78 292.76 Q 48.03 292.76 47.01 293.34 L 47.01 292.49 Q 47.97 292.04 48.92 292.04 Q 49.94 292.04 50.55 292.58 Q 51.17 293.13 51.17 294.03 Q 51.17 294.68 50.86 295.19 Q 50.55 295.69 49.7 296.41 L 49.33 296.72 Q 48.17 297.71 47.99 298.6 L 51.13 298.6 L 51.13 299.44 M 46.83 299.44"/></g><line x1="56" y1="295.66" x2="58" y2="295.66" style="stroke-width: 1.0;stroke: rgb(128,128,128);stroke-opacity: 1.0;" transform="matrix(1,0,0,1,0,0)" clip-path="url(#93296883818497clip-0)"/><g style="fill: rgb(0,0,0); fill-opacity: 1.0; stroke: none" transform="matrix(1,0,0,1,0,0)" clip-path="url(#93296883818497clip-0)"><path d="M 34.13 283.46 Q 33.02 283.46 32.33 282.4 Q 31.63 281.35 31.63 279.66 Q 31.63 277.95 32.33 276.91 Q 33.03 275.87 34.16 275.87 Q 35.3 275.87 36 276.91 Q 36.69 277.95 36.69 279.64 Q 36.69 281.38 36 282.42 Q 35.3 283.46 34.13 283.46 M 34.13 283.46 M 34.14 282.73 Q 35.67 282.73 35.67 279.63 Q 35.67 276.59 34.16 276.59 Q 32.66 276.59 32.66 279.66 Q 32.66 282.73 34.14 282.73 M 34.14 282.73 M 37.98 283.28 L 37.98 282.07 L 39.18 282.07 L 39.18 283.28 M 37.98 283.28 M 43.13 283.46 Q 42.02 283.46 41.33 282.4 Q 40.63 281.35 40.63 279.66 Q 40.63 277.95 41.33 276.91 Q 42.03 275.87 43.16 275.87 Q 44.3 275.87 45 276.91 Q 45.69 277.95 45.69 279.64 Q 45.69 281.38 45 282.42 Q 44.3 283.46 43.13 283.46 M 43.13 283.46 M 43.14 282.73 Q 44.67 282.73 44.67 279.63 Q 44.67 276.59 43.16 276.59 Q 41.66 276.59 41.66 279.66 Q 41.66 282.73 43.14 282.73 M 43.14 282.73 M 47.02 283.22 L 47.02 282.32 Q 48.05 282.73 48.65 282.73 Q 49.33 282.73 49.77 282.33 Q 50.2 281.93 50.2 281.29 Q 50.2 279.76 48.07 279.76 L 47.68 279.76 L 47.68 279.12 L 48.02 279.11 Q 50.02 279.11 50.02 277.7 Q 50.02 276.59 48.71 276.59 Q 47.98 276.59 47.11 277 L 47.11 276.16 Q 47.97 275.87 48.77 275.87 Q 50.99 275.87 50.99 277.54 Q 50.99 278.82 49.48 279.36 Q 51.23 279.76 51.23 281.27 Q 51.23 282.29 50.56 282.88 Q 49.88 283.46 48.71 283.46 Q 48.04 283.46 47.02 283.22 M 47.02 283.22"/></g><line x1="56" y1="279.5" x2="58" y2="279.5" style="stroke-width: 1.0;stroke: rgb(128,128,128);stroke-opacity: 1.0;" transform="matrix(1,0,0,1,0,0)" clip-path="url(#93296883818497clip-0)"/><g style="fill: rgb(0,0,0); fill-opacity: 1.0; stroke: none" transform="matrix(1,0,0,1,0,0)" clip-path="url(#93296883818497clip-0)"><path d="M 34.13 267.29 Q 33.02 267.29 32.33 266.24 Q 31.63 265.18 31.63 263.49 Q 31.63 261.78 32.33 260.74 Q 33.03 259.7 34.16 259.7 Q 35.3 259.7 36 260.74 Q 36.69 261.78 36.69 263.48 Q 36.69 265.21 36 266.25 Q 35.3 267.29 34.13 267.29 M 34.13 267.29 M 34.14 266.57 Q 35.67 266.57 35.67 263.46 Q 35.67 260.42 34.16 260.42 Q 32.66 260.42 32.66 263.49 Q 32.66 266.57 34.14 266.57 M 34.14 266.57 M 37.98 267.11 L 37.98 265.9 L 39.18 265.9 L 39.18 267.11 M 37.98 267.11 M 43.13 267.29 Q 42.02 267.29 41.33 266.24 Q 40.63 265.18 40.63 263.49 Q 40.63 261.78 41.33 260.74 Q 42.03 259.7 43.16 259.7 Q 44.3 259.7 45 260.74 Q 45.69 261.78 45.69 263.48 Q 45.69 265.21 45 266.25 Q 44.3 267.29 43.13 267.29 M 43.13 267.29 M 43.14 266.57 Q 44.67 266.57 44.67 263.46 Q 44.67 260.42 43.16 260.42 Q 41.66 260.42 41.66 263.49 Q 41.66 266.57 43.14 266.57 M 43.14 266.57 M 49.76 267.11 L 49.76 265.06 L 46.51 265.06 L 46.51 264.33 L 49.76 259.88 L 50.67 259.88 L 50.67 264.28 L 51.63 264.28 L 51.63 265.06 L 50.67 265.06 L 50.67 267.11 M 49.76 267.11 M 47.46 264.28 L 49.83 264.28 L 49.83 261.06 M 47.46 264.28"/></g><line x1="56" y1="263.33" x2="58" y2="263.33" style="stroke-width: 1.0;stroke: rgb(128,128,128);stroke-opacity: 1.0;" transform="matrix(1,0,0,1,0,0)" clip-path="url(#93296883818497clip-0)"/><g style="fill: rgb(0,0,0); fill-opacity: 1.0; stroke: none" transform="matrix(1,0,0,1,0,0)" clip-path="url(#93296883818497clip-0)"><path d="M 34.13 251.12 Q 33.02 251.12 32.33 250.07 Q 31.63 249.02 31.63 247.32 Q 31.63 245.61 32.33 244.57 Q 33.03 243.53 34.16 243.53 Q 35.3 243.53 36 244.57 Q 36.69 245.61 36.69 247.31 Q 36.69 249.05 36 250.08 Q 35.3 251.12 34.13 251.12 M 34.13 251.12 M 34.14 250.4 Q 35.67 250.4 35.67 247.29 Q 35.67 244.26 34.16 244.26 Q 32.66 244.26 32.66 247.32 Q 32.66 250.4 34.14 250.4 M 34.14 250.4 M 37.98 250.94 L 37.98 249.73 L 39.18 249.73 L 39.18 250.94 M 37.98 250.94 M 43.13 251.12 Q 42.02 251.12 41.33 250.07 Q 40.63 249.02 40.63 247.32 Q 40.63 245.61 41.33 244.57 Q 42.03 243.53 43.16 243.53 Q 44.3 243.53 45 244.57 Q 45.69 245.61 45.69 247.31 Q 45.69 249.05 45 250.08 Q 44.3 251.12 43.13 251.12 M 43.13 251.12 M 43.14 250.4 Q 44.67 250.4 44.67 247.29 Q 44.67 244.26 43.16 244.26 Q 41.66 244.26 41.66 247.32 Q 41.66 250.4 43.14 250.4 M 43.14 250.4 M 47.22 250.97 L 47.22 250.11 Q 47.93 250.4 48.58 250.4 Q 49.3 250.4 49.7 249.98 Q 50.11 249.56 50.11 248.82 Q 50.11 247.19 47.87 247.19 Q 47.62 247.19 47.34 247.23 L 47.34 243.71 L 51 243.71 L 51 244.55 L 48.18 244.55 L 48.18 246.46 Q 49.57 246.46 50.36 247.1 Q 51.14 247.74 51.14 248.87 Q 51.14 249.92 50.43 250.52 Q 49.72 251.12 48.46 251.12 Q 47.91 251.12 47.22 250.97 M 47.22 250.97"/></g><line x1="56" y1="247.16" x2="58" y2="247.16" style="stroke-width: 1.0;stroke: rgb(128,128,128);stroke-opacity: 1.0;" transform="matrix(1,0,0,1,0,0)" clip-path="url(#93296883818497clip-0)"/><g style="fill: rgb(0,0,0); fill-opacity: 1.0; stroke: none" transform="matrix(1,0,0,1,0,0)" clip-path="url(#93296883818497clip-0)"><path d="M 34.13 234.95 Q 33.02 234.95 32.33 233.9 Q 31.63 232.85 31.63 231.15 Q 31.63 229.44 32.33 228.4 Q 33.03 227.36 34.16 227.36 Q 35.3 227.36 36 228.4 Q 36.69 229.44 36.69 231.14 Q 36.69 232.88 36 233.92 Q 35.3 234.95 34.13 234.95 M 34.13 234.95 M 34.14 234.23 Q 35.67 234.23 35.67 231.12 Q 35.67 228.09 34.16 228.09 Q 32.66 228.09 32.66 231.15 Q 32.66 234.23 34.14 234.23 M 34.14 234.23 M 37.98 234.77 L 37.98 233.57 L 39.18 233.57 L 39.18 234.77 M 37.98 234.77 M 43.13 234.95 Q 42.02 234.95 41.33 233.9 Q 40.63 232.85 40.63 231.15 Q 40.63 229.44 41.33 228.4 Q 42.03 227.36 43.16 227.36 Q 44.3 227.36 45 228.4 Q 45.69 229.44 45.69 231.14 Q 45.69 232.88 45 233.92 Q 44.3 234.95 43.13 234.95 M 43.13 234.95 M 43.14 234.23 Q 44.67 234.23 44.67 231.12 Q 44.67 228.09 43.16 228.09 Q 41.66 228.09 41.66 231.15 Q 41.66 234.23 43.14 234.23 M 43.14 234.23 M 47.72 231.03 Q 48.41 230.13 49.45 230.13 Q 50.4 230.13 51 230.76 Q 51.61 231.39 51.61 232.37 Q 51.61 233.5 50.93 234.23 Q 50.25 234.95 49.21 234.95 Q 48.02 234.95 47.34 233.99 Q 46.67 233.03 46.67 231.32 Q 46.67 229.44 47.44 228.4 Q 48.22 227.36 49.62 227.36 Q 50.27 227.36 51.23 227.63 L 51.23 228.47 Q 50.21 228.08 49.56 228.08 Q 47.72 228.08 47.72 231.03 M 47.72 231.03 M 50.64 232.58 Q 50.64 231.76 50.27 231.3 Q 49.9 230.83 49.25 230.83 Q 48.64 230.83 48.2 231.24 Q 47.76 231.65 47.76 232.22 Q 47.76 233.13 48.18 233.68 Q 48.59 234.23 49.28 234.23 Q 49.9 234.23 50.27 233.78 Q 50.64 233.34 50.64 232.58 M 50.64 232.58"/></g><line x1="56" y1="230.99" x2="58" y2="230.99" style="stroke-width: 1.0;stroke: rgb(128,128,128);stroke-opacity: 1.0;" transform="matrix(1,0,0,1,0,0)" clip-path="url(#93296883818497clip-0)"/><g style="fill: rgb(0,0,0); fill-opacity: 1.0; stroke: none" transform="matrix(1,0,0,1,0,0)" clip-path="url(#93296883818497clip-0)"><path d="M 34.13 218.78 Q 33.02 218.78 32.33 217.73 Q 31.63 216.68 31.63 214.99 Q 31.63 213.28 32.33 212.24 Q 33.03 211.2 34.16 211.2 Q 35.3 211.2 36 212.24 Q 36.69 213.28 36.69 214.97 Q 36.69 216.71 36 217.75 Q 35.3 218.78 34.13 218.78 M 34.13 218.78 M 34.14 218.06 Q 35.67 218.06 35.67 214.96 Q 35.67 211.92 34.16 211.92 Q 32.66 211.92 32.66 214.99 Q 32.66 218.06 34.14 218.06 M 34.14 218.06 M 37.98 218.6 L 37.98 217.4 L 39.18 217.4 L 39.18 218.6 M 37.98 218.6 M 43.13 218.78 Q 42.02 218.78 41.33 217.73 Q 40.63 216.68 40.63 214.99 Q 40.63 213.28 41.33 212.24 Q 42.03 211.2 43.16 211.2 Q 44.3 211.2 45 212.24 Q 45.69 213.28 45.69 214.97 Q 45.69 216.71 45 217.75 Q 44.3 218.78 43.13 218.78 M 43.13 218.78 M 43.14 218.06 Q 44.67 218.06 44.67 214.96 Q 44.67 211.92 43.16 211.92 Q 41.66 211.92 41.66 214.99 Q 41.66 218.06 43.14 218.06 M 43.14 218.06 M 47.5 218.6 Q 47.65 217.76 47.91 217.14 Q 48.17 216.53 48.83 215.45 L 50.8 212.28 L 47.08 212.28 L 47.08 211.38 L 51.72 211.38 L 51.72 212.28 Q 48.94 216.38 48.61 218.6 M 47.5 218.6"/></g><line x1="56" y1="214.82" x2="58" y2="214.82" style="stroke-width: 1.0;stroke: rgb(128,128,128);stroke-opacity: 1.0;" transform="matrix(1,0,0,1,0,0)" clip-path="url(#93296883818497clip-0)"/><g style="fill: rgb(0,0,0); fill-opacity: 1.0; stroke: none" transform="matrix(1,0,0,1,0,0)" clip-path="url(#93296883818497clip-0)"><path d="M 34.13 202.62 Q 33.02 202.62 32.33 201.56 Q 31.63 200.51 31.63 198.82 Q 31.63 197.11 32.33 196.07 Q 33.03 195.03 34.16 195.03 Q 35.3 195.03 36 196.07 Q 36.69 197.11 36.69 198.8 Q 36.69 200.54 36 201.58 Q 35.3 202.62 34.13 202.62 M 34.13 202.62 M 34.14 201.89 Q 35.67 201.89 35.67 198.79 Q 35.67 195.75 34.16 195.75 Q 32.66 195.75 32.66 198.82 Q 32.66 201.89 34.14 201.89 M 34.14 201.89 M 37.98 202.44 L 37.98 201.23 L 39.18 201.23 L 39.18 202.44 M 37.98 202.44 M 43.13 202.62 Q 42.02 202.62 41.33 201.56 Q 40.63 200.51 40.63 198.82 Q 40.63 197.11 41.33 196.07 Q 42.03 195.03 43.16 195.03 Q 44.3 195.03 45 196.07 Q 45.69 197.11 45.69 198.8 Q 45.69 200.54 45 201.58 Q 44.3 202.62 43.13 202.62 M 43.13 202.62 M 43.14 201.89 Q 44.67 201.89 44.67 198.79 Q 44.67 195.75 43.16 195.75 Q 41.66 195.75 41.66 198.82 Q 41.66 201.89 43.14 201.89 M 43.14 201.89 M 48.3 198.5 Q 47.24 197.76 47.24 196.87 Q 47.24 196.05 47.84 195.54 Q 48.44 195.02 49.41 195.02 Q 50.3 195.02 50.86 195.46 Q 51.41 195.89 51.41 196.59 Q 51.41 197.64 50.06 198.5 Q 51.7 199.3 51.7 200.57 Q 51.7 201.47 51.01 202.05 Q 50.33 202.62 49.24 202.62 Q 48.18 202.62 47.52 202.08 Q 46.86 201.54 46.86 200.66 Q 46.86 199.36 48.3 198.5 M 48.3 198.5 M 49.53 198.2 Q 50.54 197.53 50.54 196.72 Q 50.54 196.28 50.2 196.02 Q 49.86 195.75 49.31 195.75 Q 48.78 195.75 48.45 196.01 Q 48.11 196.27 48.11 196.69 Q 48.11 197.09 48.41 197.41 Q 48.71 197.73 49.53 198.2 M 49.53 198.2 M 48.82 198.89 Q 48.24 199.34 48.03 199.68 Q 47.83 200.01 47.83 200.51 Q 47.83 201.13 48.23 201.51 Q 48.63 201.89 49.28 201.89 Q 49.91 201.89 50.31 201.57 Q 50.71 201.24 50.71 200.72 Q 50.71 200.3 50.46 200.01 Q 50.21 199.72 49.51 199.3 M 48.82 198.89"/></g><line x1="56" y1="198.66" x2="58" y2="198.66" style="stroke-width: 1.0;stroke: rgb(128,128,128);stroke-opacity: 1.0;" transform="matrix(1,0,0,1,0,0)" clip-path="url(#93296883818497clip-0)"/><g style="fill: rgb(0,0,0); fill-opacity: 1.0; stroke: none" transform="matrix(1,0,0,1,0,0)" clip-path="url(#93296883818497clip-0)"><path d="M 34.13 186.45 Q 33.02 186.45 32.33 185.4 Q 31.63 184.34 31.63 182.65 Q 31.63 180.94 32.33 179.9 Q 33.03 178.86 34.16 178.86 Q 35.3 178.86 36 179.9 Q 36.69 180.94 36.69 182.64 Q 36.69 184.37 36 185.41 Q 35.3 186.45 34.13 186.45 M 34.13 186.45 M 34.14 185.73 Q 35.67 185.73 35.67 182.62 Q 35.67 179.58 34.16 179.58 Q 32.66 179.58 32.66 182.65 Q 32.66 185.73 34.14 185.73 M 34.14 185.73 M 37.98 186.27 L 37.98 185.06 L 39.18 185.06 L 39.18 186.27 M 37.98 186.27 M 43.13 186.45 Q 42.02 186.45 41.33 185.4 Q 40.63 184.34 40.63 182.65 Q 40.63 180.94 41.33 179.9 Q 42.03 178.86 43.16 178.86 Q 44.3 178.86 45 179.9 Q 45.69 180.94 45.69 182.64 Q 45.69 184.37 45 185.41 Q 44.3 186.45 43.13 186.45 M 43.13 186.45 M 43.14 185.73 Q 44.67 185.73 44.67 182.62 Q 44.67 179.58 43.16 179.58 Q 41.66 179.58 41.66 182.65 Q 41.66 185.73 43.14 185.73 M 43.14 185.73 M 47.14 186.22 L 47.14 185.41 Q 48.06 185.73 48.7 185.73 Q 49.6 185.73 50.1 184.96 Q 50.61 184.2 50.61 182.84 Q 49.88 183.74 48.94 183.74 Q 48.03 183.74 47.4 183.07 Q 46.76 182.4 46.76 181.43 Q 46.76 180.32 47.44 179.59 Q 48.11 178.86 49.14 178.86 Q 50.32 178.86 51 179.81 Q 51.67 180.75 51.67 182.39 Q 51.67 184.26 50.85 185.35 Q 50.02 186.45 48.61 186.45 Q 48.04 186.45 47.14 186.22 M 47.14 186.22 M 47.72 181.24 Q 47.72 182.08 48.1 182.56 Q 48.47 183.05 49.12 183.05 Q 49.73 183.05 50.16 182.63 Q 50.59 182.22 50.59 181.63 Q 50.59 180.71 50.18 180.14 Q 49.76 179.58 49.08 179.58 Q 48.45 179.58 48.09 180.03 Q 47.72 180.47 47.72 181.24 M 47.72 181.24"/></g><line x1="56" y1="182.49" x2="58" y2="182.49" style="stroke-width: 1.0;stroke: rgb(128,128,128);stroke-opacity: 1.0;" transform="matrix(1,0,0,1,0,0)" clip-path="url(#93296883818497clip-0)"/><g style="fill: rgb(0,0,0); fill-opacity: 1.0; stroke: none" transform="matrix(1,0,0,1,0,0)" clip-path="url(#93296883818497clip-0)"><path d="M 34.13 170.28 Q 33.02 170.28 32.33 169.23 Q 31.63 168.18 31.63 166.48 Q 31.63 164.77 32.33 163.73 Q 33.03 162.69 34.16 162.69 Q 35.3 162.69 36 163.73 Q 36.69 164.77 36.69 166.47 Q 36.69 168.21 36 169.24 Q 35.3 170.28 34.13 170.28 M 34.13 170.28 M 34.14 169.56 Q 35.67 169.56 35.67 166.45 Q 35.67 163.42 34.16 163.42 Q 32.66 163.42 32.66 166.48 Q 32.66 169.56 34.14 169.56 M 34.14 169.56 M 37.98 170.1 L 37.98 168.89 L 39.18 168.89 L 39.18 170.1 M 37.98 170.1 M 41.5 170.1 L 41.5 169.38 L 42.95 169.38 L 42.95 163.67 L 41.5 164.04 L 41.5 163.29 L 43.92 162.69 L 43.92 169.38 L 45.36 169.38 L 45.36 170.1 M 41.5 170.1 M 49.13 170.28 Q 48.02 170.28 47.33 169.23 Q 46.63 168.18 46.63 166.48 Q 46.63 164.77 47.33 163.73 Q 48.03 162.69 49.16 162.69 Q 50.3 162.69 51 163.73 Q 51.69 164.77 51.69 166.47 Q 51.69 168.21 51 169.24 Q 50.3 170.28 49.13 170.28 M 49.13 170.28 M 49.14 169.56 Q 50.67 169.56 50.67 166.45 Q 50.67 163.42 49.16 163.42 Q 47.66 163.42 47.66 166.48 Q 47.66 169.56 49.14 169.56 M 49.14 169.56"/></g><line x1="56" y1="166.32" x2="58" y2="166.32" style="stroke-width: 1.0;stroke: rgb(128,128,128);stroke-opacity: 1.0;" transform="matrix(1,0,0,1,0,0)" clip-path="url(#93296883818497clip-0)"/><g style="fill: rgb(0,0,0); fill-opacity: 1.0; stroke: none" transform="matrix(1,0,0,1,0,0)" clip-path="url(#93296883818497clip-0)"><path d="M 34.13 154.11 Q 33.02 154.11 32.33 153.06 Q 31.63 152.01 31.63 150.31 Q 31.63 148.61 32.33 147.57 Q 33.03 146.53 34.16 146.53 Q 35.3 146.53 36 147.57 Q 36.69 148.61 36.69 150.3 Q 36.69 152.04 36 153.08 Q 35.3 154.11 34.13 154.11 M 34.13 154.11 M 34.14 153.39 Q 35.67 153.39 35.67 150.29 Q 35.67 147.25 34.16 147.25 Q 32.66 147.25 32.66 150.31 Q 32.66 153.39 34.14 153.39 M 34.14 153.39 M 37.98 153.93 L 37.98 152.73 L 39.18 152.73 L 39.18 153.93 M 37.98 153.93 M 41.5 153.93 L 41.5 153.21 L 42.95 153.21 L 42.95 147.51 L 41.5 147.87 L 41.5 147.13 L 43.92 146.53 L 43.92 153.21 L 45.36 153.21 L 45.36 153.93 M 41.5 153.93 M 47.5 153.93 L 47.5 153.21 L 48.95 153.21 L 48.95 147.51 L 47.5 147.87 L 47.5 147.13 L 49.92 146.53 L 49.92 153.21 L 51.36 153.21 L 51.36 153.93 M 47.5 153.93"/></g><line x1="56" y1="150.15" x2="58" y2="150.15" style="stroke-width: 1.0;stroke: rgb(128,128,128);stroke-opacity: 1.0;" transform="matrix(1,0,0,1,0,0)" clip-path="url(#93296883818497clip-0)"/><g style="fill: rgb(0,0,0); fill-opacity: 1.0; stroke: none" transform="matrix(1,0,0,1,0,0)" clip-path="url(#93296883818497clip-0)"><path d="M 34.13 137.95 Q 33.02 137.95 32.33 136.89 Q 31.63 135.84 31.63 134.15 Q 31.63 132.44 32.33 131.4 Q 33.03 130.36 34.16 130.36 Q 35.3 130.36 36 131.4 Q 36.69 132.44 36.69 134.13 Q 36.69 135.87 36 136.91 Q 35.3 137.95 34.13 137.95 M 34.13 137.95 M 34.14 137.22 Q 35.67 137.22 35.67 134.12 Q 35.67 131.08 34.16 131.08 Q 32.66 131.08 32.66 134.15 Q 32.66 137.22 34.14 137.22 M 34.14 137.22 M 37.98 137.76 L 37.98 136.56 L 39.18 136.56 L 39.18 137.76 M 37.98 137.76 M 41.5 137.76 L 41.5 137.04 L 42.95 137.04 L 42.95 131.34 L 41.5 131.7 L 41.5 130.96 L 43.92 130.36 L 43.92 137.04 L 45.36 137.04 L 45.36 137.76 M 41.5 137.76 M 46.83 137.76 L 46.83 136.92 Q 47.25 135.94 48.53 134.78 L 49.08 134.29 Q 50.15 133.33 50.15 132.38 Q 50.15 131.77 49.78 131.43 Q 49.42 131.08 48.78 131.08 Q 48.03 131.08 47.01 131.66 L 47.01 130.81 Q 47.97 130.36 48.92 130.36 Q 49.94 130.36 50.55 130.9 Q 51.17 131.45 51.17 132.35 Q 51.17 133 50.86 133.51 Q 50.55 134.01 49.7 134.73 L 49.33 135.05 Q 48.17 136.03 47.99 136.92 L 51.13 136.92 L 51.13 137.76 M 46.83 137.76"/></g><line x1="56" y1="133.99" x2="58" y2="133.99" style="stroke-width: 1.0;stroke: rgb(128,128,128);stroke-opacity: 1.0;" transform="matrix(1,0,0,1,0,0)" clip-path="url(#93296883818497clip-0)"/><g style="fill: rgb(0,0,0); fill-opacity: 1.0; stroke: none" transform="matrix(1,0,0,1,0,0)" clip-path="url(#93296883818497clip-0)"><path d="M 34.13 121.78 Q 33.02 121.78 32.33 120.73 Q 31.63 119.67 31.63 117.98 Q 31.63 116.27 32.33 115.23 Q 33.03 114.19 34.16 114.19 Q 35.3 114.19 36 115.23 Q 36.69 116.27 36.69 117.96 Q 36.69 119.7 36 120.74 Q 35.3 121.78 34.13 121.78 M 34.13 121.78 M 34.14 121.05 Q 35.67 121.05 35.67 117.95 Q 35.67 114.91 34.16 114.91 Q 32.66 114.91 32.66 117.98 Q 32.66 121.05 34.14 121.05 M 34.14 121.05 M 37.98 121.6 L 37.98 120.39 L 39.18 120.39 L 39.18 121.6 M 37.98 121.6 M 41.5 121.6 L 41.5 120.87 L 42.95 120.87 L 42.95 115.17 L 41.5 115.53 L 41.5 114.79 L 43.92 114.19 L 43.92 120.87 L 45.36 120.87 L 45.36 121.6 M 41.5 121.6 M 47.02 121.54 L 47.02 120.64 Q 48.05 121.05 48.65 121.05 Q 49.33 121.05 49.77 120.65 Q 50.2 120.25 50.2 119.61 Q 50.2 118.09 48.07 118.09 L 47.68 118.09 L 47.68 117.44 L 48.02 117.43 Q 50.02 117.43 50.02 116.02 Q 50.02 114.91 48.71 114.91 Q 47.98 114.91 47.11 115.32 L 47.11 114.48 Q 47.97 114.19 48.77 114.19 Q 50.99 114.19 50.99 115.86 Q 50.99 117.14 49.48 117.68 Q 51.23 118.09 51.23 119.6 Q 51.23 120.62 50.56 121.2 Q 49.88 121.78 48.71 121.78 Q 48.04 121.78 47.02 121.54 M 47.02 121.54"/></g><line x1="56" y1="117.82" x2="58" y2="117.82" style="stroke-width: 1.0;stroke: rgb(128,128,128);stroke-opacity: 1.0;" transform="matrix(1,0,0,1,0,0)" clip-path="url(#93296883818497clip-0)"/><g style="fill: rgb(0,0,0); fill-opacity: 1.0; stroke: none" transform="matrix(1,0,0,1,0,0)" clip-path="url(#93296883818497clip-0)"><path d="M 34.13 105.61 Q 33.02 105.61 32.33 104.56 Q 31.63 103.51 31.63 101.81 Q 31.63 100.1 32.33 99.06 Q 33.03 98.02 34.16 98.02 Q 35.3 98.02 36 99.06 Q 36.69 100.1 36.69 101.8 Q 36.69 103.53 36 104.57 Q 35.3 105.61 34.13 105.61 M 34.13 105.61 M 34.14 104.89 Q 35.67 104.89 35.67 101.78 Q 35.67 98.74 34.16 98.74 Q 32.66 98.74 32.66 101.81 Q 32.66 104.89 34.14 104.89 M 34.14 104.89 M 37.98 105.43 L 37.98 104.22 L 39.18 104.22 L 39.18 105.43 M 37.98 105.43 M 41.5 105.43 L 41.5 104.71 L 42.95 104.71 L 42.95 99 L 41.5 99.36 L 41.5 98.62 L 43.92 98.02 L 43.92 104.71 L 45.36 104.71 L 45.36 105.43 M 41.5 105.43 M 49.76 105.43 L 49.76 103.38 L 46.51 103.38 L 46.51 102.66 L 49.76 98.2 L 50.67 98.2 L 50.67 102.6 L 51.63 102.6 L 51.63 103.38 L 50.67 103.38 L 50.67 105.43 M 49.76 105.43 M 47.46 102.6 L 49.83 102.6 L 49.83 99.38 M 47.46 102.6"/></g><line x1="56" y1="101.65" x2="58" y2="101.65" style="stroke-width: 1.0;stroke: rgb(128,128,128);stroke-opacity: 1.0;" transform="matrix(1,0,0,1,0,0)" clip-path="url(#93296883818497clip-0)"/><g style="fill: rgb(0,0,0); fill-opacity: 1.0; stroke: none" transform="matrix(1,0,0,1,0,0)" clip-path="url(#93296883818497clip-0)"><path d="M 34.13 89.44 Q 33.02 89.44 32.33 88.39 Q 31.63 87.34 31.63 85.64 Q 31.63 83.93 32.33 82.89 Q 33.03 81.85 34.16 81.85 Q 35.3 81.85 36 82.89 Q 36.69 83.93 36.69 85.63 Q 36.69 87.37 36 88.4 Q 35.3 89.44 34.13 89.44 M 34.13 89.44 M 34.14 88.72 Q 35.67 88.72 35.67 85.61 Q 35.67 82.58 34.16 82.58 Q 32.66 82.58 32.66 85.64 Q 32.66 88.72 34.14 88.72 M 34.14 88.72 M 37.98 89.26 L 37.98 88.06 L 39.18 88.06 L 39.18 89.26 M 37.98 89.26 M 41.5 89.26 L 41.5 88.54 L 42.95 88.54 L 42.95 82.84 L 41.5 83.2 L 41.5 82.45 L 43.92 81.85 L 43.92 88.54 L 45.36 88.54 L 45.36 89.26 M 41.5 89.26 M 47.22 89.29 L 47.22 88.43 Q 47.93 88.72 48.58 88.72 Q 49.3 88.72 49.7 88.3 Q 50.11 87.88 50.11 87.14 Q 50.11 85.52 47.87 85.52 Q 47.62 85.52 47.34 85.55 L 47.34 82.03 L 51 82.03 L 51 82.87 L 48.18 82.87 L 48.18 84.78 Q 49.57 84.78 50.36 85.42 Q 51.14 86.06 51.14 87.19 Q 51.14 88.25 50.43 88.84 Q 49.72 89.44 48.46 89.44 Q 47.91 89.44 47.22 89.29 M 47.22 89.29"/></g><line x1="56" y1="85.48" x2="58" y2="85.48" style="stroke-width: 1.0;stroke: rgb(128,128,128);stroke-opacity: 1.0;" transform="matrix(1,0,0,1,0,0)" clip-path="url(#93296883818497clip-0)"/><g style="fill: rgb(0,0,0); fill-opacity: 1.0; stroke: none" transform="matrix(1,0,0,1,0,0)" clip-path="url(#93296883818497clip-0)"><path d="M 34.13 73.27 Q 33.02 73.27 32.33 72.22 Q 31.63 71.17 31.63 69.48 Q 31.63 67.77 32.33 66.73 Q 33.03 65.69 34.16 65.69 Q 35.3 65.69 36 66.73 Q 36.69 67.77 36.69 69.46 Q 36.69 71.2 36 72.24 Q 35.3 73.27 34.13 73.27 M 34.13 73.27 M 34.14 72.55 Q 35.67 72.55 35.67 69.45 Q 35.67 66.41 34.16 66.41 Q 32.66 66.41 32.66 69.48 Q 32.66 72.55 34.14 72.55 M 34.14 72.55 M 37.98 73.09 L 37.98 71.89 L 39.18 71.89 L 39.18 73.09 M 37.98 73.09 M 41.5 73.09 L 41.5 72.37 L 42.95 72.37 L 42.95 66.67 L 41.5 67.03 L 41.5 66.29 L 43.92 65.69 L 43.92 72.37 L 45.36 72.37 L 45.36 73.09 M 41.5 73.09 M 47.72 69.35 Q 48.41 68.45 49.45 68.45 Q 50.4 68.45 51 69.08 Q 51.61 69.71 51.61 70.69 Q 51.61 71.82 50.93 72.55 Q 50.25 73.27 49.21 73.27 Q 48.02 73.27 47.34 72.31 Q 46.67 71.35 46.67 69.64 Q 46.67 67.76 47.44 66.72 Q 48.22 65.68 49.62 65.68 Q 50.27 65.68 51.23 65.95 L 51.23 66.79 Q 50.21 66.4 49.56 66.4 Q 47.72 66.4 47.72 69.35 M 47.72 69.35 M 50.64 70.91 Q 50.64 70.09 50.27 69.62 Q 49.9 69.15 49.25 69.15 Q 48.64 69.15 48.2 69.56 Q 47.76 69.97 47.76 70.54 Q 47.76 71.45 48.18 72 Q 48.59 72.55 49.28 72.55 Q 49.9 72.55 50.27 72.1 Q 50.64 71.66 50.64 70.91 M 50.64 70.91"/></g><line x1="56" y1="69.31" x2="58" y2="69.31" style="stroke-width: 1.0;stroke: rgb(128,128,128);stroke-opacity: 1.0;" transform="matrix(1,0,0,1,0,0)" clip-path="url(#93296883818497clip-0)"/><g style="fill: rgb(0,0,0); fill-opacity: 1.0; stroke: none" transform="matrix(1,0,0,1,0,0)" clip-path="url(#93296883818497clip-0)"><path d="M 34.13 57.11 Q 33.02 57.11 32.33 56.05 Q 31.63 55 31.63 53.31 Q 31.63 51.6 32.33 50.56 Q 33.03 49.52 34.16 49.52 Q 35.3 49.52 36 50.56 Q 36.69 51.6 36.69 53.29 Q 36.69 55.03 36 56.07 Q 35.3 57.11 34.13 57.11 M 34.13 57.11 M 34.14 56.38 Q 35.67 56.38 35.67 53.28 Q 35.67 50.24 34.16 50.24 Q 32.66 50.24 32.66 53.31 Q 32.66 56.38 34.14 56.38 M 34.14 56.38 M 37.98 56.93 L 37.98 55.72 L 39.18 55.72 L 39.18 56.93 M 37.98 56.93 M 41.5 56.93 L 41.5 56.2 L 42.95 56.2 L 42.95 50.5 L 41.5 50.86 L 41.5 50.12 L 43.92 49.52 L 43.92 56.2 L 45.36 56.2 L 45.36 56.93 M 41.5 56.93 M 47.5 56.93 Q 47.65 56.08 47.91 55.47 Q 48.17 54.85 48.83 53.78 L 50.8 50.6 L 47.08 50.6 L 47.08 49.7 L 51.72 49.7 L 51.72 50.6 Q 48.94 54.7 48.61 56.93 M 47.5 56.93"/></g><line x1="56" y1="53.15" x2="58" y2="53.15" style="stroke-width: 1.0;stroke: rgb(128,128,128);stroke-opacity: 1.0;" transform="matrix(1,0,0,1,0,0)" clip-path="url(#93296883818497clip-0)"/><g style="fill: rgb(0,0,0); fill-opacity: 1.0; stroke: none" transform="matrix(1,0,0,1,0,0)" clip-path="url(#93296883818497clip-0)"><path d="M 34.13 40.94 Q 33.02 40.94 32.33 39.89 Q 31.63 38.83 31.63 37.14 Q 31.63 35.43 32.33 34.39 Q 33.03 33.35 34.16 33.35 Q 35.3 33.35 36 34.39 Q 36.69 35.43 36.69 37.12 Q 36.69 38.86 36 39.9 Q 35.3 40.94 34.13 40.94 M 34.13 40.94 M 34.14 40.22 Q 35.67 40.22 35.67 37.11 Q 35.67 34.07 34.16 34.07 Q 32.66 34.07 32.66 37.14 Q 32.66 40.22 34.14 40.22 M 34.14 40.22 M 37.98 40.76 L 37.98 39.55 L 39.18 39.55 L 39.18 40.76 M 37.98 40.76 M 41.5 40.76 L 41.5 40.03 L 42.95 40.03 L 42.95 34.33 L 41.5 34.69 L 41.5 33.95 L 43.92 33.35 L 43.92 40.03 L 45.36 40.03 L 45.36 40.76 M 41.5 40.76 M 48.3 36.82 Q 47.24 36.08 47.24 35.19 Q 47.24 34.37 47.84 33.86 Q 48.44 33.35 49.41 33.35 Q 50.3 33.35 50.86 33.78 Q 51.41 34.21 51.41 34.91 Q 51.41 35.96 50.06 36.82 Q 51.7 37.62 51.7 38.89 Q 51.7 39.8 51.01 40.37 Q 50.33 40.94 49.24 40.94 Q 48.18 40.94 47.52 40.4 Q 46.86 39.86 46.86 38.98 Q 46.86 37.68 48.3 36.82 M 48.3 36.82 M 49.53 36.52 Q 50.54 35.86 50.54 35.04 Q 50.54 34.61 50.2 34.34 Q 49.86 34.07 49.31 34.07 Q 48.78 34.07 48.45 34.33 Q 48.11 34.6 48.11 35.01 Q 48.11 35.42 48.41 35.74 Q 48.71 36.06 49.53 36.52 M 49.53 36.52 M 48.82 37.21 Q 48.24 37.66 48.03 38 Q 47.83 38.33 47.83 38.83 Q 47.83 39.45 48.23 39.83 Q 48.63 40.22 49.28 40.22 Q 49.91 40.22 50.31 39.89 Q 50.71 39.56 50.71 39.04 Q 50.71 38.62 50.46 38.33 Q 50.21 38.04 49.51 37.62 M 48.82 37.21"/></g><line x1="56" y1="36.98" x2="58" y2="36.98" style="stroke-width: 1.0;stroke: rgb(128,128,128);stroke-opacity: 1.0;" transform="matrix(1,0,0,1,0,0)" clip-path="url(#93296883818497clip-0)"/><g style="fill: rgb(0,0,0); fill-opacity: 1.0; stroke: none" transform="matrix(0,-1,1,0,-156.566406,194.433594)" clip-path="url(#93296883818497clip-1)"><path d="M 6.42 180.04 L 3.14 171.36 L 4.38 171.36 L 7.06 178.46 L 9.65 171.36 L 10.73 171.36 L 7.58 180.04 M 6.42 180.04 M 15.37 179.23 Q 14.33 180.18 13.37 180.18 Q 12.58 180.18 12.06 179.69 Q 11.54 179.19 11.54 178.44 Q 11.54 177.39 12.41 176.83 Q 13.29 176.27 14.92 176.27 L 15.2 176.27 L 15.2 175.51 Q 15.2 174.4 14.06 174.4 Q 13.15 174.4 12.09 174.96 L 12.09 174.01 Q 13.25 173.53 14.27 173.53 Q 15.34 173.53 15.85 174.01 Q 16.35 174.49 16.35 175.51 L 16.35 178.39 Q 16.35 179.38 16.96 179.38 Q 17.04 179.38 17.19 179.36 L 17.27 179.99 Q 16.88 180.18 16.4 180.18 Q 15.59 180.18 15.37 179.23 M 15.37 179.23 M 15.2 178.6 L 15.2 176.95 L 14.81 176.94 Q 13.86 176.94 13.28 177.3 Q 12.69 177.66 12.69 178.25 Q 12.69 178.66 12.98 178.95 Q 13.28 179.24 13.7 179.24 Q 14.42 179.24 15.2 178.6 M 15.2 178.6 M 19.09 180.04 L 19.09 170.78 L 20.24 170.78 L 20.24 180.04 M 19.09 180.04 M 27.07 180.04 L 27.07 178.84 Q 26.15 180.18 24.83 180.18 Q 24 180.18 23.51 179.66 Q 23.02 179.13 23.02 178.24 L 23.02 173.67 L 24.17 173.67 L 24.17 177.87 Q 24.17 178.58 24.38 178.88 Q 24.59 179.19 25.07 179.19 Q 26.13 179.19 27.07 177.8 L 27.07 173.67 L 28.22 173.67 L 28.22 180.04 M 27.07 180.04 M 35.75 179.83 Q 34.59 180.18 33.77 180.18 Q 32.36 180.18 31.47 179.25 Q 30.58 178.31 30.58 176.82 Q 30.58 175.38 31.37 174.45 Q 32.15 173.53 33.37 173.53 Q 34.52 173.53 35.15 174.35 Q 35.78 175.17 35.78 176.68 L 35.78 177.04 L 31.76 177.04 Q 32.01 179.3 33.98 179.3 Q 34.7 179.3 35.75 178.92 M 35.75 179.83 M 31.81 176.17 L 34.62 176.17 Q 34.62 174.39 33.3 174.39 Q 31.97 174.39 31.81 176.17 M 31.81 176.17"/></g><line x1="58" y1="328" x2="592" y2="328" style="stroke-width: 0.5;stroke: rgb(192,192,192);stroke-opacity: 1.0;stroke-dasharray: 2.0, 2.0;" transform="matrix(1,0,0,1,0,0)" clip-path="url(#93296883818497clip-2)"/><line x1="58" y1="311.83" x2="592" y2="311.83" style="stroke-width: 0.5;stroke: rgb(192,192,192);stroke-opacity: 1.0;stroke-dasharray: 2.0, 2.0;" transform="matrix(1,0,0,1,0,0)" clip-path="url(#93296883818497clip-2)"/><line x1="58" y1="295.66" x2="592" y2="295.66" style="stroke-width: 0.5;stroke: rgb(192,192,192);stroke-opacity: 1.0;stroke-dasharray: 2.0, 2.0;" transform="matrix(1,0,0,1,0,0)" clip-path="url(#93296883818497clip-2)"/><line x1="58" y1="279.5" x2="592" y2="279.5" style="stroke-width: 0.5;stroke: rgb(192,192,192);stroke-opacity: 1.0;stroke-dasharray: 2.0, 2.0;" transform="matrix(1,0,0,1,0,0)" clip-path="url(#93296883818497clip-2)"/><line x1="58" y1="263.33" x2="592" y2="263.33" style="stroke-width: 0.5;stroke: rgb(192,192,192);stroke-opacity: 1.0;stroke-dasharray: 2.0, 2.0;" transform="matrix(1,0,0,1,0,0)" clip-path="url(#93296883818497clip-2)"/><line x1="58" y1="247.16" x2="592" y2="247.16" style="stroke-width: 0.5;stroke: rgb(192,192,192);stroke-opacity: 1.0;stroke-dasharray: 2.0, 2.0;" transform="matrix(1,0,0,1,0,0)" clip-path="url(#93296883818497clip-2)"/><line x1="58" y1="230.99" x2="592" y2="230.99" style="stroke-width: 0.5;stroke: rgb(192,192,192);stroke-opacity: 1.0;stroke-dasharray: 2.0, 2.0;" transform="matrix(1,0,0,1,0,0)" clip-path="url(#93296883818497clip-2)"/><line x1="58" y1="214.82" x2="592" y2="214.82" style="stroke-width: 0.5;stroke: rgb(192,192,192);stroke-opacity: 1.0;stroke-dasharray: 2.0, 2.0;" transform="matrix(1,0,0,1,0,0)" clip-path="url(#93296883818497clip-2)"/><line x1="58" y1="198.66" x2="592" y2="198.66" style="stroke-width: 0.5;stroke: rgb(192,192,192);stroke-opacity: 1.0;stroke-dasharray: 2.0, 2.0;" transform="matrix(1,0,0,1,0,0)" clip-path="url(#93296883818497clip-2)"/><line x1="58" y1="182.49" x2="592" y2="182.49" style="stroke-width: 0.5;stroke: rgb(192,192,192);stroke-opacity: 1.0;stroke-dasharray: 2.0, 2.0;" transform="matrix(1,0,0,1,0,0)" clip-path="url(#93296883818497clip-2)"/><line x1="58" y1="166.32" x2="592" y2="166.32" style="stroke-width: 0.5;stroke: rgb(192,192,192);stroke-opacity: 1.0;stroke-dasharray: 2.0, 2.0;" transform="matrix(1,0,0,1,0,0)" clip-path="url(#93296883818497clip-2)"/><line x1="58" y1="150.15" x2="592" y2="150.15" style="stroke-width: 0.5;stroke: rgb(192,192,192);stroke-opacity: 1.0;stroke-dasharray: 2.0, 2.0;" transform="matrix(1,0,0,1,0,0)" clip-path="url(#93296883818497clip-2)"/><line x1="58" y1="133.99" x2="592" y2="133.99" style="stroke-width: 0.5;stroke: rgb(192,192,192);stroke-opacity: 1.0;stroke-dasharray: 2.0, 2.0;" transform="matrix(1,0,0,1,0,0)" clip-path="url(#93296883818497clip-2)"/><line x1="58" y1="117.82" x2="592" y2="117.82" style="stroke-width: 0.5;stroke: rgb(192,192,192);stroke-opacity: 1.0;stroke-dasharray: 2.0, 2.0;" transform="matrix(1,0,0,1,0,0)" clip-path="url(#93296883818497clip-2)"/><line x1="58" y1="101.65" x2="592" y2="101.65" style="stroke-width: 0.5;stroke: rgb(192,192,192);stroke-opacity: 1.0;stroke-dasharray: 2.0, 2.0;" transform="matrix(1,0,0,1,0,0)" clip-path="url(#93296883818497clip-2)"/><line x1="58" y1="85.48" x2="592" y2="85.48" style="stroke-width: 0.5;stroke: rgb(192,192,192);stroke-opacity: 1.0;stroke-dasharray: 2.0, 2.0;" transform="matrix(1,0,0,1,0,0)" clip-path="url(#93296883818497clip-2)"/><line x1="58" y1="69.31" x2="592" y2="69.31" style="stroke-width: 0.5;stroke: rgb(192,192,192);stroke-opacity: 1.0;stroke-dasharray: 2.0, 2.0;" transform="matrix(1,0,0,1,0,0)" clip-path="url(#93296883818497clip-2)"/><line x1="58" y1="53.15" x2="592" y2="53.15" style="stroke-width: 0.5;stroke: rgb(192,192,192);stroke-opacity: 1.0;stroke-dasharray: 2.0, 2.0;" transform="matrix(1,0,0,1,0,0)" clip-path="url(#93296883818497clip-2)"/><line x1="58" y1="36.98" x2="592" y2="36.98" style="stroke-width: 0.5;stroke: rgb(192,192,192);stroke-opacity: 1.0;stroke-dasharray: 2.0, 2.0;" transform="matrix(1,0,0,1,0,0)" clip-path="url(#93296883818497clip-2)"/><line x1="94.05" y1="38.99" x2="94.05" y2="38.99" style="stroke-width: 1.0;stroke: rgb(0,0,0);stroke-opacity: 1.0;" transform="matrix(1,0,0,1,0,0)" clip-path="url(#93296883818497clip-2)"/><line x1="84.7" y1="38.99" x2="103.39" y2="38.99" style="stroke-width: 1.0;stroke: rgb(0,0,0);stroke-opacity: 1.0;" transform="matrix(1,0,0,1,0,0)" clip-path="url(#93296883818497clip-2)"/><line x1="94.05" y1="38.99" x2="94.05" y2="38.99" style="stroke-width: 1.0;stroke: rgb(0,0,0);stroke-opacity: 1.0;" transform="matrix(1,0,0,1,0,0)" clip-path="url(#93296883818497clip-2)"/><line x1="84.7" y1="38.99" x2="103.39" y2="38.99" style="stroke-width: 1.0;stroke: rgb(0,0,0);stroke-opacity: 1.0;" transform="matrix(1,0,0,1,0,0)" clip-path="url(#93296883818497clip-2)"/><rect x="84.7" y="38.99" width="18.69" height="0" style="stroke-width: 1.0;stroke: rgb(0,0,0);stroke-opacity: 1.0;; fill: none" transform="matrix(1,0,0,1,0,0)" clip-path="url(#93296883818497clip-2)"/><line x1="84.7" y1="38.99" x2="103.39" y2="38.99" style="stroke-width: 1.0;stroke: rgb(0,0,0);stroke-opacity: 1.0;" transform="matrix(1,0,0,1,0,0)" clip-path="url(#93296883818497clip-2)"/><rect x="109.01" y="38.98" width="18.69" height="0.02" style="fill: rgb(192,192,192); fill-opacity: 1.0" transform="matrix(1,0,0,1,0,0)" clip-path="url(#93296883818497clip-2)"/><line x1="118.36" y1="38.97" x2="118.36" y2="38.98" style="stroke-width: 1.0;stroke: rgb(0,0,0);stroke-opacity: 1.0;" transform="matrix(1,0,0,1,0,0)" clip-path="url(#93296883818497clip-2)"/><line x1="109.01" y1="38.97" x2="127.7" y2="38.97" style="stroke-width: 1.0;stroke: rgb(0,0,0);stroke-opacity: 1.0;" transform="matrix(1,0,0,1,0,0)" clip-path="url(#93296883818497clip-2)"/><line x1="118.36" y1="39.01" x2="118.36" y2="39" style="stroke-width: 1.0;stroke: rgb(0,0,0);stroke-opacity: 1.0;" transform="matrix(1,0,0,1,0,0)" clip-path="url(#93296883818497clip-2)"/><line x1="109.01" y1="39.01" x2="127.7" y2="39.01" style="stroke-width: 1.0;stroke: rgb(0,0,0);stroke-opacity: 1.0;" transform="matrix(1,0,0,1,0,0)" clip-path="url(#93296883818497clip-2)"/><rect x="109.01" y="38.98" width="18.69" height="0.02" style="stroke-width: 1.0;stroke: rgb(0,0,0);stroke-opacity: 1.0;; fill: none" transform="matrix(1,0,0,1,0,0)" clip-path="url(#93296883818497clip-2)"/><line x1="109.01" y1="38.99" x2="127.7" y2="38.99" style="stroke-width: 1.0;stroke: rgb(0,0,0);stroke-opacity: 1.0;" transform="matrix(1,0,0,1,0,0)" clip-path="url(#93296883818497clip-2)"/><rect x="133.32" y="38.92" width="18.69" height="0.09" style="fill: rgb(192,192,192); fill-opacity: 1.0" transform="matrix(1,0,0,1,0,0)" clip-path="url(#93296883818497clip-2)"/><line x1="142.67" y1="38.92" x2="142.67" y2="38.92" style="stroke-width: 1.0;stroke: rgb(0,0,0);stroke-opacity: 1.0;" transform="matrix(1,0,0,1,0,0)" clip-path="url(#93296883818497clip-2)"/><line x1="133.32" y1="38.92" x2="152.01" y2="38.92" style="stroke-width: 1.0;stroke: rgb(0,0,0);stroke-opacity: 1.0;" transform="matrix(1,0,0,1,0,0)" clip-path="url(#93296883818497clip-2)"/><line x1="142.67" y1="39.01" x2="142.67" y2="39.01" style="stroke-width: 1.0;stroke: rgb(0,0,0);stroke-opacity: 1.0;" transform="matrix(1,0,0,1,0,0)" clip-path="url(#93296883818497clip-2)"/><line x1="133.32" y1="39.01" x2="152.01" y2="39.01" style="stroke-width: 1.0;stroke: rgb(0,0,0);stroke-opacity: 1.0;" transform="matrix(1,0,0,1,0,0)" clip-path="url(#93296883818497clip-2)"/><rect x="133.32" y="38.92" width="18.69" height="0.09" style="stroke-width: 1.0;stroke: rgb(0,0,0);stroke-opacity: 1.0;; fill: none" transform="matrix(1,0,0,1,0,0)" clip-path="url(#93296883818497clip-2)"/><line x1="133.32" y1="38.98" x2="152.01" y2="38.98" style="stroke-width: 1.0;stroke: rgb(0,0,0);stroke-opacity: 1.0;" transform="matrix(1,0,0,1,0,0)" clip-path="url(#93296883818497clip-2)"/><line x1="142.67" y1="23" x2="142.67" y2="23" style="stroke-width: 1.0;stroke: rgb(192,192,192);stroke-opacity: 1.0;" transform="matrix(1,0,0,1,0,0)" clip-path="url(#93296883818497clip-2)"/><line x1="142.67" y1="23" x2="142.67" y2="23" style="stroke-width: 1.0;stroke: rgb(192,192,192);stroke-opacity: 1.0;" transform="matrix(1,0,0,1,0,0)" clip-path="url(#93296883818497clip-2)"/><line x1="142.67" y1="23" x2="142.67" y2="23" style="stroke-width: 1.0;stroke: rgb(192,192,192);stroke-opacity: 1.0;" transform="matrix(1,0,0,1,0,0)" clip-path="url(#93296883818497clip-2)"/><line x1="142.67" y1="328" x2="142.67" y2="328" style="stroke-width: 1.0;stroke: rgb(192,192,192);stroke-opacity: 1.0;" transform="matrix(1,0,0,1,0,0)" clip-path="url(#93296883818497clip-2)"/><line x1="142.67" y1="328" x2="142.67" y2="328" style="stroke-width: 1.0;stroke: rgb(192,192,192);stroke-opacity: 1.0;" transform="matrix(1,0,0,1,0,0)" clip-path="url(#93296883818497clip-2)"/><line x1="142.67" y1="328" x2="142.67" y2="328" style="stroke-width: 1.0;stroke: rgb(192,192,192);stroke-opacity: 1.0;" transform="matrix(1,0,0,1,0,0)" clip-path="url(#93296883818497clip-2)"/><rect x="157.63" y="38.87" width="18.69" height="0.19" style="fill: rgb(192,192,192); fill-opacity: 1.0" transform="matrix(1,0,0,1,0,0)" clip-path="url(#93296883818497clip-2)"/><line x1="166.98" y1="38.63" x2="166.98" y2="38.87" style="stroke-width: 1.0;stroke: rgb(0,0,0);stroke-opacity: 1.0;" transform="matrix(1,0,0,1,0,0)" clip-path="url(#93296883818497clip-2)"/><line x1="157.63" y1="38.63" x2="176.32" y2="38.63" style="stroke-width: 1.0;stroke: rgb(0,0,0);stroke-opacity: 1.0;" transform="matrix(1,0,0,1,0,0)" clip-path="url(#93296883818497clip-2)"/><line x1="166.98" y1="39.15" x2="166.98" y2="39.06" style="stroke-width: 1.0;stroke: rgb(0,0,0);stroke-opacity: 1.0;" transform="matrix(1,0,0,1,0,0)" clip-path="url(#93296883818497clip-2)"/><line x1="157.63" y1="39.15" x2="176.32" y2="39.15" style="stroke-width: 1.0;stroke: rgb(0,0,0);stroke-opacity: 1.0;" transform="matrix(1,0,0,1,0,0)" clip-path="url(#93296883818497clip-2)"/><rect x="157.63" y="38.87" width="18.69" height="0.19" style="stroke-width: 1.0;stroke: rgb(0,0,0);stroke-opacity: 1.0;; fill: none" transform="matrix(1,0,0,1,0,0)" clip-path="url(#93296883818497clip-2)"/><line x1="157.63" y1="38.98" x2="176.32" y2="38.98" style="stroke-width: 1.0;stroke: rgb(0,0,0);stroke-opacity: 1.0;" transform="matrix(1,0,0,1,0,0)" clip-path="url(#93296883818497clip-2)"/><g style="stroke-width: 1.0;stroke: rgb(192,192,192);stroke-opacity: 1.0;; fill: none" transform="matrix(1,0,0,1,0,0)" clip-path="url(#93296883818497clip-2)"><path d="M 170.09 36.29 C 170.09 38.01 168.7 39.41 166.98 39.41 C 165.26 39.41 163.86 38.01 163.86 36.29 C 163.86 34.57 165.26 33.18 166.98 33.18 C 168.7 33.18 170.09 34.57 170.09 36.29 M 170.09 36.29"/></g><rect x="181.94" y="38.87" width="18.69" height="0.23" style="fill: rgb(192,192,192); fill-opacity: 1.0" transform="matrix(1,0,0,1,0,0)" clip-path="url(#93296883818497clip-2)"/><line x1="191.29" y1="38.63" x2="191.29" y2="38.87" style="stroke-width: 1.0;stroke: rgb(0,0,0);stroke-opacity: 1.0;" transform="matrix(1,0,0,1,0,0)" clip-path="url(#93296883818497clip-2)"/><line x1="181.94" y1="38.63" x2="200.63" y2="38.63" style="stroke-width: 1.0;stroke: rgb(0,0,0);stroke-opacity: 1.0;" transform="matrix(1,0,0,1,0,0)" clip-path="url(#93296883818497clip-2)"/><line x1="191.29" y1="39.41" x2="191.29" y2="39.09" style="stroke-width: 1.0;stroke: rgb(0,0,0);stroke-opacity: 1.0;" transform="matrix(1,0,0,1,0,0)" clip-path="url(#93296883818497clip-2)"/><line x1="181.94" y1="39.41" x2="200.63" y2="39.41" style="stroke-width: 1.0;stroke: rgb(0,0,0);stroke-opacity: 1.0;" transform="matrix(1,0,0,1,0,0)" clip-path="url(#93296883818497clip-2)"/><rect x="181.94" y="38.87" width="18.69" height="0.23" style="stroke-width: 1.0;stroke: rgb(0,0,0);stroke-opacity: 1.0;; fill: none" transform="matrix(1,0,0,1,0,0)" clip-path="url(#93296883818497clip-2)"/><line x1="181.94" y1="38.97" x2="200.63" y2="38.97" style="stroke-width: 1.0;stroke: rgb(0,0,0);stroke-opacity: 1.0;" transform="matrix(1,0,0,1,0,0)" clip-path="url(#93296883818497clip-2)"/><rect x="206.26" y="38.86" width="18.69" height="0.27" style="fill: rgb(192,192,192); fill-opacity: 1.0" transform="matrix(1,0,0,1,0,0)" clip-path="url(#93296883818497clip-2)"/><line x1="215.6" y1="38.63" x2="215.6" y2="38.86" style="stroke-width: 1.0;stroke: rgb(0,0,0);stroke-opacity: 1.0;" transform="matrix(1,0,0,1,0,0)" clip-path="url(#93296883818497clip-2)"/><line x1="206.26" y1="38.63" x2="224.95" y2="38.63" style="stroke-width: 1.0;stroke: rgb(0,0,0);stroke-opacity: 1.0;" transform="matrix(1,0,0,1,0,0)" clip-path="url(#93296883818497clip-2)"/><line x1="215.6" y1="39.41" x2="215.6" y2="39.13" style="stroke-width: 1.0;stroke: rgb(0,0,0);stroke-opacity: 1.0;" transform="matrix(1,0,0,1,0,0)" clip-path="url(#93296883818497clip-2)"/><line x1="206.26" y1="39.41" x2="224.95" y2="39.41" style="stroke-width: 1.0;stroke: rgb(0,0,0);stroke-opacity: 1.0;" transform="matrix(1,0,0,1,0,0)" clip-path="url(#93296883818497clip-2)"/><rect x="206.26" y="38.86" width="18.69" height="0.27" style="stroke-width: 1.0;stroke: rgb(0,0,0);stroke-opacity: 1.0;; fill: none" transform="matrix(1,0,0,1,0,0)" clip-path="url(#93296883818497clip-2)"/><line x1="206.26" y1="38.97" x2="224.95" y2="38.97" style="stroke-width: 1.0;stroke: rgb(0,0,0);stroke-opacity: 1.0;" transform="matrix(1,0,0,1,0,0)" clip-path="url(#93296883818497clip-2)"/><g style="stroke-width: 1.0;stroke: rgb(192,192,192);stroke-opacity: 1.0;; fill: none" transform="matrix(1,0,0,1,0,0)" clip-path="url(#93296883818497clip-2)"><path d="M 212.49 36.46 C 212.49 38.18 211.09 39.58 209.37 39.58 C 207.65 39.58 206.26 38.18 206.26 36.46 C 206.26 34.74 207.65 33.35 209.37 33.35 C 211.09 33.35 212.49 34.74 212.49 36.46 M 212.49 36.46"/></g><g style="stroke-width: 1.0;stroke: rgb(192,192,192);stroke-opacity: 1.0;; fill: none" transform="matrix(1,0,0,1,0,0)" clip-path="url(#93296883818497clip-2)"><path d="M 224.95 36.46 C 224.95 38.18 223.55 39.58 221.83 39.58 C 220.11 39.58 218.72 38.18 218.72 36.46 C 218.72 34.74 220.11 33.35 221.83 33.35 C 223.55 33.35 224.95 34.74 224.95 36.46 M 224.95 36.46"/></g><rect x="230.57" y="38.83" width="18.69" height="0.35" style="fill: rgb(192,192,192); fill-opacity: 1.0" transform="matrix(1,0,0,1,0,0)" clip-path="url(#93296883818497clip-2)"/><line x1="239.91" y1="38.33" x2="239.91" y2="38.83" style="stroke-width: 1.0;stroke: rgb(0,0,0);stroke-opacity: 1.0;" transform="matrix(1,0,0,1,0,0)" clip-path="url(#93296883818497clip-2)"/><line x1="230.57" y1="38.33" x2="249.26" y2="38.33" style="stroke-width: 1.0;stroke: rgb(0,0,0);stroke-opacity: 1.0;" transform="matrix(1,0,0,1,0,0)" clip-path="url(#93296883818497clip-2)"/><line x1="239.91" y1="39.58" x2="239.91" y2="39.19" style="stroke-width: 1.0;stroke: rgb(0,0,0);stroke-opacity: 1.0;" transform="matrix(1,0,0,1,0,0)" clip-path="url(#93296883818497clip-2)"/><line x1="230.57" y1="39.58" x2="249.26" y2="39.58" style="stroke-width: 1.0;stroke: rgb(0,0,0);stroke-opacity: 1.0;" transform="matrix(1,0,0,1,0,0)" clip-path="url(#93296883818497clip-2)"/><rect x="230.57" y="38.83" width="18.69" height="0.35" style="stroke-width: 1.0;stroke: rgb(0,0,0);stroke-opacity: 1.0;; fill: none" transform="matrix(1,0,0,1,0,0)" clip-path="url(#93296883818497clip-2)"/><line x1="230.57" y1="38.97" x2="249.26" y2="38.97" style="stroke-width: 1.0;stroke: rgb(0,0,0);stroke-opacity: 1.0;" transform="matrix(1,0,0,1,0,0)" clip-path="url(#93296883818497clip-2)"/><rect x="254.88" y="38.83" width="18.69" height="0.35" style="fill: rgb(192,192,192); fill-opacity: 1.0" transform="matrix(1,0,0,1,0,0)" clip-path="url(#93296883818497clip-2)"/><line x1="264.22" y1="38.33" x2="264.22" y2="38.83" style="stroke-width: 1.0;stroke: rgb(0,0,0);stroke-opacity: 1.0;" transform="matrix(1,0,0,1,0,0)" clip-path="url(#93296883818497clip-2)"/><line x1="254.88" y1="38.33" x2="273.57" y2="38.33" style="stroke-width: 1.0;stroke: rgb(0,0,0);stroke-opacity: 1.0;" transform="matrix(1,0,0,1,0,0)" clip-path="url(#93296883818497clip-2)"/><line x1="264.22" y1="39.58" x2="264.22" y2="39.18" style="stroke-width: 1.0;stroke: rgb(0,0,0);stroke-opacity: 1.0;" transform="matrix(1,0,0,1,0,0)" clip-path="url(#93296883818497clip-2)"/><line x1="254.88" y1="39.58" x2="273.57" y2="39.58" style="stroke-width: 1.0;stroke: rgb(0,0,0);stroke-opacity: 1.0;" transform="matrix(1,0,0,1,0,0)" clip-path="url(#93296883818497clip-2)"/><rect x="254.88" y="38.83" width="18.69" height="0.35" style="stroke-width: 1.0;stroke: rgb(0,0,0);stroke-opacity: 1.0;; fill: none" transform="matrix(1,0,0,1,0,0)" clip-path="url(#93296883818497clip-2)"/><line x1="254.88" y1="39" x2="273.57" y2="39" style="stroke-width: 1.0;stroke: rgb(0,0,0);stroke-opacity: 1.0;" transform="matrix(1,0,0,1,0,0)" clip-path="url(#93296883818497clip-2)"/><rect x="279.19" y="38.81" width="18.69" height="0.41" style="fill: rgb(192,192,192); fill-opacity: 1.0" transform="matrix(1,0,0,1,0,0)" clip-path="url(#93296883818497clip-2)"/><line x1="288.53" y1="38.26" x2="288.53" y2="38.81" style="stroke-width: 1.0;stroke: rgb(0,0,0);stroke-opacity: 1.0;" transform="matrix(1,0,0,1,0,0)" clip-path="url(#93296883818497clip-2)"/><line x1="279.19" y1="38.26" x2="297.88" y2="38.26" style="stroke-width: 1.0;stroke: rgb(0,0,0);stroke-opacity: 1.0;" transform="matrix(1,0,0,1,0,0)" clip-path="url(#93296883818497clip-2)"/><line x1="288.53" y1="39.58" x2="288.53" y2="39.22" style="stroke-width: 1.0;stroke: rgb(0,0,0);stroke-opacity: 1.0;" transform="matrix(1,0,0,1,0,0)" clip-path="url(#93296883818497clip-2)"/><line x1="279.19" y1="39.58" x2="297.88" y2="39.58" style="stroke-width: 1.0;stroke: rgb(0,0,0);stroke-opacity: 1.0;" transform="matrix(1,0,0,1,0,0)" clip-path="url(#93296883818497clip-2)"/><rect x="279.19" y="38.81" width="18.69" height="0.41" style="stroke-width: 1.0;stroke: rgb(0,0,0);stroke-opacity: 1.0;; fill: none" transform="matrix(1,0,0,1,0,0)" clip-path="url(#93296883818497clip-2)"/><line x1="279.19" y1="39.01" x2="297.88" y2="39.01" style="stroke-width: 1.0;stroke: rgb(0,0,0);stroke-opacity: 1.0;" transform="matrix(1,0,0,1,0,0)" clip-path="url(#93296883818497clip-2)"/><g style="stroke-width: 1.0;stroke: rgb(192,192,192);stroke-opacity: 1.0;; fill: none" transform="matrix(1,0,0,1,0,0)" clip-path="url(#93296883818497clip-2)"><path d="M 291.65 35.06 C 291.65 36.78 290.25 38.17 288.53 38.17 C 286.81 38.17 285.42 36.78 285.42 35.06 C 285.42 33.34 286.81 31.94 288.53 31.94 C 290.25 31.94 291.65 33.34 291.65 35.06 M 291.65 35.06"/></g><rect x="303.5" y="38.79" width="18.69" height="0.44" style="fill: rgb(192,192,192); fill-opacity: 1.0" transform="matrix(1,0,0,1,0,0)" clip-path="url(#93296883818497clip-2)"/><line x1="312.84" y1="38.17" x2="312.84" y2="38.79" style="stroke-width: 1.0;stroke: rgb(0,0,0);stroke-opacity: 1.0;" transform="matrix(1,0,0,1,0,0)" clip-path="url(#93296883818497clip-2)"/><line x1="303.5" y1="38.17" x2="322.19" y2="38.17" style="stroke-width: 1.0;stroke: rgb(0,0,0);stroke-opacity: 1.0;" transform="matrix(1,0,0,1,0,0)" clip-path="url(#93296883818497clip-2)"/><line x1="312.84" y1="39.58" x2="312.84" y2="39.23" style="stroke-width: 1.0;stroke: rgb(0,0,0);stroke-opacity: 1.0;" transform="matrix(1,0,0,1,0,0)" clip-path="url(#93296883818497clip-2)"/><line x1="303.5" y1="39.58" x2="322.19" y2="39.58" style="stroke-width: 1.0;stroke: rgb(0,0,0);stroke-opacity: 1.0;" transform="matrix(1,0,0,1,0,0)" clip-path="url(#93296883818497clip-2)"/><rect x="303.5" y="38.79" width="18.69" height="0.44" style="stroke-width: 1.0;stroke: rgb(0,0,0);stroke-opacity: 1.0;; fill: none" transform="matrix(1,0,0,1,0,0)" clip-path="url(#93296883818497clip-2)"/><line x1="303.5" y1="39.05" x2="322.19" y2="39.05" style="stroke-width: 1.0;stroke: rgb(0,0,0);stroke-opacity: 1.0;" transform="matrix(1,0,0,1,0,0)" clip-path="url(#93296883818497clip-2)"/><rect x="327.81" y="38.75" width="18.69" height="0.49" style="fill: rgb(192,192,192); fill-opacity: 1.0" transform="matrix(1,0,0,1,0,0)" clip-path="url(#93296883818497clip-2)"/><line x1="337.16" y1="38.17" x2="337.16" y2="38.75" style="stroke-width: 1.0;stroke: rgb(0,0,0);stroke-opacity: 1.0;" transform="matrix(1,0,0,1,0,0)" clip-path="url(#93296883818497clip-2)"/><line x1="327.81" y1="38.17" x2="346.5" y2="38.17" style="stroke-width: 1.0;stroke: rgb(0,0,0);stroke-opacity: 1.0;" transform="matrix(1,0,0,1,0,0)" clip-path="url(#93296883818497clip-2)"/><line x1="337.16" y1="39.62" x2="337.16" y2="39.24" style="stroke-width: 1.0;stroke: rgb(0,0,0);stroke-opacity: 1.0;" transform="matrix(1,0,0,1,0,0)" clip-path="url(#93296883818497clip-2)"/><line x1="327.81" y1="39.62" x2="346.5" y2="39.62" style="stroke-width: 1.0;stroke: rgb(0,0,0);stroke-opacity: 1.0;" transform="matrix(1,0,0,1,0,0)" clip-path="url(#93296883818497clip-2)"/><rect x="327.81" y="38.75" width="18.69" height="0.49" style="stroke-width: 1.0;stroke: rgb(0,0,0);stroke-opacity: 1.0;; fill: none" transform="matrix(1,0,0,1,0,0)" clip-path="url(#93296883818497clip-2)"/><line x1="327.81" y1="39.02" x2="346.5" y2="39.02" style="stroke-width: 1.0;stroke: rgb(0,0,0);stroke-opacity: 1.0;" transform="matrix(1,0,0,1,0,0)" clip-path="url(#93296883818497clip-2)"/><g style="stroke-width: 1.0;stroke: rgb(192,192,192);stroke-opacity: 1.0;; fill: none" transform="matrix(1,0,0,1,0,0)" clip-path="url(#93296883818497clip-2)"><path d="M 340.27 37.04 C 340.27 38.76 338.88 40.15 337.16 40.15 C 335.44 40.15 334.04 38.76 334.04 37.04 C 334.04 35.32 335.44 33.92 337.16 33.92 C 338.88 33.92 340.27 35.32 340.27 37.04 M 340.27 37.04"/></g><rect x="352.12" y="38.65" width="18.69" height="0.61" style="fill: rgb(192,192,192); fill-opacity: 1.0" transform="matrix(1,0,0,1,0,0)" clip-path="url(#93296883818497clip-2)"/><line x1="361.47" y1="38.17" x2="361.47" y2="38.65" style="stroke-width: 1.0;stroke: rgb(0,0,0);stroke-opacity: 1.0;" transform="matrix(1,0,0,1,0,0)" clip-path="url(#93296883818497clip-2)"/><line x1="352.12" y1="38.17" x2="370.81" y2="38.17" style="stroke-width: 1.0;stroke: rgb(0,0,0);stroke-opacity: 1.0;" transform="matrix(1,0,0,1,0,0)" clip-path="url(#93296883818497clip-2)"/><line x1="361.47" y1="40.15" x2="361.47" y2="39.26" style="stroke-width: 1.0;stroke: rgb(0,0,0);stroke-opacity: 1.0;" transform="matrix(1,0,0,1,0,0)" clip-path="url(#93296883818497clip-2)"/><line x1="352.12" y1="40.15" x2="370.81" y2="40.15" style="stroke-width: 1.0;stroke: rgb(0,0,0);stroke-opacity: 1.0;" transform="matrix(1,0,0,1,0,0)" clip-path="url(#93296883818497clip-2)"/><rect x="352.12" y="38.65" width="18.69" height="0.61" style="stroke-width: 1.0;stroke: rgb(0,0,0);stroke-opacity: 1.0;; fill: none" transform="matrix(1,0,0,1,0,0)" clip-path="url(#93296883818497clip-2)"/><line x1="352.12" y1="39.02" x2="370.81" y2="39.02" style="stroke-width: 1.0;stroke: rgb(0,0,0);stroke-opacity: 1.0;" transform="matrix(1,0,0,1,0,0)" clip-path="url(#93296883818497clip-2)"/><rect x="376.43" y="38.65" width="18.69" height="0.67" style="fill: rgb(192,192,192); fill-opacity: 1.0" transform="matrix(1,0,0,1,0,0)" clip-path="url(#93296883818497clip-2)"/><line x1="385.78" y1="38.09" x2="385.78" y2="38.65" style="stroke-width: 1.0;stroke: rgb(0,0,0);stroke-opacity: 1.0;" transform="matrix(1,0,0,1,0,0)" clip-path="url(#93296883818497clip-2)"/><line x1="376.43" y1="38.09" x2="395.12" y2="38.09" style="stroke-width: 1.0;stroke: rgb(0,0,0);stroke-opacity: 1.0;" transform="matrix(1,0,0,1,0,0)" clip-path="url(#93296883818497clip-2)"/><line x1="385.78" y1="40.15" x2="385.78" y2="39.31" style="stroke-width: 1.0;stroke: rgb(0,0,0);stroke-opacity: 1.0;" transform="matrix(1,0,0,1,0,0)" clip-path="url(#93296883818497clip-2)"/><line x1="376.43" y1="40.15" x2="395.12" y2="40.15" style="stroke-width: 1.0;stroke: rgb(0,0,0);stroke-opacity: 1.0;" transform="matrix(1,0,0,1,0,0)" clip-path="url(#93296883818497clip-2)"/><rect x="376.43" y="38.65" width="18.69" height="0.67" style="stroke-width: 1.0;stroke: rgb(0,0,0);stroke-opacity: 1.0;; fill: none" transform="matrix(1,0,0,1,0,0)" clip-path="url(#93296883818497clip-2)"/><line x1="376.43" y1="39.01" x2="395.12" y2="39.01" style="stroke-width: 1.0;stroke: rgb(0,0,0);stroke-opacity: 1.0;" transform="matrix(1,0,0,1,0,0)" clip-path="url(#93296883818497clip-2)"/><rect x="400.74" y="38.64" width="18.69" height="0.68" style="fill: rgb(192,192,192); fill-opacity: 1.0" transform="matrix(1,0,0,1,0,0)" clip-path="url(#93296883818497clip-2)"/><line x1="410.09" y1="38.09" x2="410.09" y2="38.64" style="stroke-width: 1.0;stroke: rgb(0,0,0);stroke-opacity: 1.0;" transform="matrix(1,0,0,1,0,0)" clip-path="url(#93296883818497clip-2)"/><line x1="400.74" y1="38.09" x2="419.43" y2="38.09" style="stroke-width: 1.0;stroke: rgb(0,0,0);stroke-opacity: 1.0;" transform="matrix(1,0,0,1,0,0)" clip-path="url(#93296883818497clip-2)"/><line x1="410.09" y1="40.15" x2="410.09" y2="39.32" style="stroke-width: 1.0;stroke: rgb(0,0,0);stroke-opacity: 1.0;" transform="matrix(1,0,0,1,0,0)" clip-path="url(#93296883818497clip-2)"/><line x1="400.74" y1="40.15" x2="419.43" y2="40.15" style="stroke-width: 1.0;stroke: rgb(0,0,0);stroke-opacity: 1.0;" transform="matrix(1,0,0,1,0,0)" clip-path="url(#93296883818497clip-2)"/><rect x="400.74" y="38.64" width="18.69" height="0.68" style="stroke-width: 1.0;stroke: rgb(0,0,0);stroke-opacity: 1.0;; fill: none" transform="matrix(1,0,0,1,0,0)" clip-path="url(#93296883818497clip-2)"/><line x1="400.74" y1="39.04" x2="419.43" y2="39.04" style="stroke-width: 1.0;stroke: rgb(0,0,0);stroke-opacity: 1.0;" transform="matrix(1,0,0,1,0,0)" clip-path="url(#93296883818497clip-2)"/><g style="stroke-width: 1.0;stroke: rgb(192,192,192);stroke-opacity: 1.0;; fill: none" transform="matrix(1,0,0,1,0,0)" clip-path="url(#93296883818497clip-2)"><path d="M 413.2 34.41 C 413.2 36.13 411.81 37.52 410.09 37.52 C 408.37 37.52 406.97 36.13 406.97 34.41 C 406.97 32.69 408.37 31.29 410.09 31.29 C 411.81 31.29 413.2 32.69 413.2 34.41 M 413.2 34.41"/></g><rect x="425.05" y="38.63" width="18.69" height="0.7" style="fill: rgb(192,192,192); fill-opacity: 1.0" transform="matrix(1,0,0,1,0,0)" clip-path="url(#93296883818497clip-2)"/><line x1="434.4" y1="38.09" x2="434.4" y2="38.63" style="stroke-width: 1.0;stroke: rgb(0,0,0);stroke-opacity: 1.0;" transform="matrix(1,0,0,1,0,0)" clip-path="url(#93296883818497clip-2)"/><line x1="425.05" y1="38.09" x2="443.74" y2="38.09" style="stroke-width: 1.0;stroke: rgb(0,0,0);stroke-opacity: 1.0;" transform="matrix(1,0,0,1,0,0)" clip-path="url(#93296883818497clip-2)"/><line x1="434.4" y1="40.25" x2="434.4" y2="39.33" style="stroke-width: 1.0;stroke: rgb(0,0,0);stroke-opacity: 1.0;" transform="matrix(1,0,0,1,0,0)" clip-path="url(#93296883818497clip-2)"/><line x1="425.05" y1="40.25" x2="443.74" y2="40.25" style="stroke-width: 1.0;stroke: rgb(0,0,0);stroke-opacity: 1.0;" transform="matrix(1,0,0,1,0,0)" clip-path="url(#93296883818497clip-2)"/><rect x="425.05" y="38.63" width="18.69" height="0.7" style="stroke-width: 1.0;stroke: rgb(0,0,0);stroke-opacity: 1.0;; fill: none" transform="matrix(1,0,0,1,0,0)" clip-path="url(#93296883818497clip-2)"/><line x1="425.05" y1="39.02" x2="443.74" y2="39.02" style="stroke-width: 1.0;stroke: rgb(0,0,0);stroke-opacity: 1.0;" transform="matrix(1,0,0,1,0,0)" clip-path="url(#93296883818497clip-2)"/><g style="stroke-width: 1.0;stroke: rgb(192,192,192);stroke-opacity: 1.0;; fill: none" transform="matrix(1,0,0,1,0,0)" clip-path="url(#93296883818497clip-2)"><path d="M 437.51 34.41 C 437.51 36.13 436.12 37.52 434.4 37.52 C 432.68 37.52 431.28 36.13 431.28 34.41 C 431.28 32.69 432.68 31.29 434.4 31.29 C 436.12 31.29 437.51 32.69 437.51 34.41 M 437.51 34.41"/></g><rect x="449.37" y="38.62" width="18.69" height="0.74" style="fill: rgb(192,192,192); fill-opacity: 1.0" transform="matrix(1,0,0,1,0,0)" clip-path="url(#93296883818497clip-2)"/><line x1="458.71" y1="37.52" x2="458.71" y2="38.62" style="stroke-width: 1.0;stroke: rgb(0,0,0);stroke-opacity: 1.0;" transform="matrix(1,0,0,1,0,0)" clip-path="url(#93296883818497clip-2)"/><line x1="449.37" y1="37.52" x2="468.06" y2="37.52" style="stroke-width: 1.0;stroke: rgb(0,0,0);stroke-opacity: 1.0;" transform="matrix(1,0,0,1,0,0)" clip-path="url(#93296883818497clip-2)"/><line x1="458.71" y1="40.37" x2="458.71" y2="39.35" style="stroke-width: 1.0;stroke: rgb(0,0,0);stroke-opacity: 1.0;" transform="matrix(1,0,0,1,0,0)" clip-path="url(#93296883818497clip-2)"/><line x1="449.37" y1="40.37" x2="468.06" y2="40.37" style="stroke-width: 1.0;stroke: rgb(0,0,0);stroke-opacity: 1.0;" transform="matrix(1,0,0,1,0,0)" clip-path="url(#93296883818497clip-2)"/><rect x="449.37" y="38.62" width="18.69" height="0.74" style="stroke-width: 1.0;stroke: rgb(0,0,0);stroke-opacity: 1.0;; fill: none" transform="matrix(1,0,0,1,0,0)" clip-path="url(#93296883818497clip-2)"/><line x1="449.37" y1="39.01" x2="468.06" y2="39.01" style="stroke-width: 1.0;stroke: rgb(0,0,0);stroke-opacity: 1.0;" transform="matrix(1,0,0,1,0,0)" clip-path="url(#93296883818497clip-2)"/><rect x="473.68" y="38.63" width="18.69" height="0.72" style="fill: rgb(192,192,192); fill-opacity: 1.0" transform="matrix(1,0,0,1,0,0)" clip-path="url(#93296883818497clip-2)"/><line x1="483.02" y1="37.92" x2="483.02" y2="38.63" style="stroke-width: 1.0;stroke: rgb(0,0,0);stroke-opacity: 1.0;" transform="matrix(1,0,0,1,0,0)" clip-path="url(#93296883818497clip-2)"/><line x1="473.68" y1="37.92" x2="492.37" y2="37.92" style="stroke-width: 1.0;stroke: rgb(0,0,0);stroke-opacity: 1.0;" transform="matrix(1,0,0,1,0,0)" clip-path="url(#93296883818497clip-2)"/><line x1="483.02" y1="40.37" x2="483.02" y2="39.35" style="stroke-width: 1.0;stroke: rgb(0,0,0);stroke-opacity: 1.0;" transform="matrix(1,0,0,1,0,0)" clip-path="url(#93296883818497clip-2)"/><line x1="473.68" y1="40.37" x2="492.37" y2="40.37" style="stroke-width: 1.0;stroke: rgb(0,0,0);stroke-opacity: 1.0;" transform="matrix(1,0,0,1,0,0)" clip-path="url(#93296883818497clip-2)"/><rect x="473.68" y="38.63" width="18.69" height="0.72" style="stroke-width: 1.0;stroke: rgb(0,0,0);stroke-opacity: 1.0;; fill: none" transform="matrix(1,0,0,1,0,0)" clip-path="url(#93296883818497clip-2)"/><line x1="473.68" y1="39.01" x2="492.37" y2="39.01" style="stroke-width: 1.0;stroke: rgb(0,0,0);stroke-opacity: 1.0;" transform="matrix(1,0,0,1,0,0)" clip-path="url(#93296883818497clip-2)"/><g style="stroke-width: 1.0;stroke: rgb(192,192,192);stroke-opacity: 1.0;; fill: none" transform="matrix(1,0,0,1,0,0)" clip-path="url(#93296883818497clip-2)"><path d="M 486.14 34.41 C 486.14 36.13 484.74 37.52 483.02 37.52 C 481.3 37.52 479.91 36.13 479.91 34.41 C 479.91 32.69 481.3 31.29 483.02 31.29 C 484.74 31.29 486.14 32.69 486.14 34.41 M 486.14 34.41"/></g><rect x="497.99" y="38.63" width="18.69" height="0.73" style="fill: rgb(192,192,192); fill-opacity: 1.0" transform="matrix(1,0,0,1,0,0)" clip-path="url(#93296883818497clip-2)"/><line x1="507.33" y1="37.92" x2="507.33" y2="38.63" style="stroke-width: 1.0;stroke: rgb(0,0,0);stroke-opacity: 1.0;" transform="matrix(1,0,0,1,0,0)" clip-path="url(#93296883818497clip-2)"/><line x1="497.99" y1="37.92" x2="516.68" y2="37.92" style="stroke-width: 1.0;stroke: rgb(0,0,0);stroke-opacity: 1.0;" transform="matrix(1,0,0,1,0,0)" clip-path="url(#93296883818497clip-2)"/><line x1="507.33" y1="40.37" x2="507.33" y2="39.36" style="stroke-width: 1.0;stroke: rgb(0,0,0);stroke-opacity: 1.0;" transform="matrix(1,0,0,1,0,0)" clip-path="url(#93296883818497clip-2)"/><line x1="497.99" y1="40.37" x2="516.68" y2="40.37" style="stroke-width: 1.0;stroke: rgb(0,0,0);stroke-opacity: 1.0;" transform="matrix(1,0,0,1,0,0)" clip-path="url(#93296883818497clip-2)"/><rect x="497.99" y="38.63" width="18.69" height="0.73" style="stroke-width: 1.0;stroke: rgb(0,0,0);stroke-opacity: 1.0;; fill: none" transform="matrix(1,0,0,1,0,0)" clip-path="url(#93296883818497clip-2)"/><line x1="497.99" y1="39.04" x2="516.68" y2="39.04" style="stroke-width: 1.0;stroke: rgb(0,0,0);stroke-opacity: 1.0;" transform="matrix(1,0,0,1,0,0)" clip-path="url(#93296883818497clip-2)"/><g style="stroke-width: 1.0;stroke: rgb(192,192,192);stroke-opacity: 1.0;; fill: none" transform="matrix(1,0,0,1,0,0)" clip-path="url(#93296883818497clip-2)"><path d="M 504.22 34.38 C 504.22 36.1 502.82 37.5 501.1 37.5 C 499.38 37.5 497.99 36.1 497.99 34.38 C 497.99 32.66 499.38 31.27 501.1 31.27 C 502.82 31.27 504.22 32.66 504.22 34.38 M 504.22 34.38"/></g><g style="stroke-width: 1.0;stroke: rgb(192,192,192);stroke-opacity: 1.0;; fill: none" transform="matrix(1,0,0,1,0,0)" clip-path="url(#93296883818497clip-2)"><path d="M 516.68 34.38 C 516.68 36.1 515.28 37.5 513.56 37.5 C 511.84 37.5 510.45 36.1 510.45 34.38 C 510.45 32.66 511.84 31.27 513.56 31.27 C 515.28 31.27 516.68 32.66 516.68 34.38 M 516.68 34.38"/></g><rect x="522.3" y="38.64" width="18.69" height="0.72" style="fill: rgb(192,192,192); fill-opacity: 1.0" transform="matrix(1,0,0,1,0,0)" clip-path="url(#93296883818497clip-2)"/><line x1="531.64" y1="37.92" x2="531.64" y2="38.64" style="stroke-width: 1.0;stroke: rgb(0,0,0);stroke-opacity: 1.0;" transform="matrix(1,0,0,1,0,0)" clip-path="url(#93296883818497clip-2)"/><line x1="522.3" y1="37.92" x2="540.99" y2="37.92" style="stroke-width: 1.0;stroke: rgb(0,0,0);stroke-opacity: 1.0;" transform="matrix(1,0,0,1,0,0)" clip-path="url(#93296883818497clip-2)"/><line x1="531.64" y1="40.37" x2="531.64" y2="39.36" style="stroke-width: 1.0;stroke: rgb(0,0,0);stroke-opacity: 1.0;" transform="matrix(1,0,0,1,0,0)" clip-path="url(#93296883818497clip-2)"/><line x1="522.3" y1="40.37" x2="540.99" y2="40.37" style="stroke-width: 1.0;stroke: rgb(0,0,0);stroke-opacity: 1.0;" transform="matrix(1,0,0,1,0,0)" clip-path="url(#93296883818497clip-2)"/><rect x="522.3" y="38.64" width="18.69" height="0.72" style="stroke-width: 1.0;stroke: rgb(0,0,0);stroke-opacity: 1.0;; fill: none" transform="matrix(1,0,0,1,0,0)" clip-path="url(#93296883818497clip-2)"/><line x1="522.3" y1="39.01" x2="540.99" y2="39.01" style="stroke-width: 1.0;stroke: rgb(0,0,0);stroke-opacity: 1.0;" transform="matrix(1,0,0,1,0,0)" clip-path="url(#93296883818497clip-2)"/><g style="stroke-width: 1.0;stroke: rgb(192,192,192);stroke-opacity: 1.0;; fill: none" transform="matrix(1,0,0,1,0,0)" clip-path="url(#93296883818497clip-2)"><path d="M 528.53 34.38 C 528.53 36.1 527.13 37.5 525.41 37.5 C 523.69 37.5 522.3 36.1 522.3 34.38 C 522.3 32.66 523.69 31.27 525.41 31.27 C 527.13 31.27 528.53 32.66 528.53 34.38 M 528.53 34.38"/></g><g style="stroke-width: 1.0;stroke: rgb(192,192,192);stroke-opacity: 1.0;; fill: none" transform="matrix(1,0,0,1,0,0)" clip-path="url(#93296883818497clip-2)"><path d="M 540.99 34.38 C 540.99 36.1 539.59 37.5 537.87 37.5 C 536.15 37.5 534.76 36.1 534.76 34.38 C 534.76 32.66 536.15 31.27 537.87 31.27 C 539.59 31.27 540.99 32.66 540.99 34.38 M 540.99 34.38"/></g><rect x="546.61" y="38.64" width="18.69" height="0.72" style="fill: rgb(192,192,192); fill-opacity: 1.0" transform="matrix(1,0,0,1,0,0)" clip-path="url(#93296883818497clip-2)"/><line x1="555.96" y1="37.83" x2="555.96" y2="38.64" style="stroke-width: 1.0;stroke: rgb(0,0,0);stroke-opacity: 1.0;" transform="matrix(1,0,0,1,0,0)" clip-path="url(#93296883818497clip-2)"/><line x1="546.61" y1="37.83" x2="565.3" y2="37.83" style="stroke-width: 1.0;stroke: rgb(0,0,0);stroke-opacity: 1.0;" transform="matrix(1,0,0,1,0,0)" clip-path="url(#93296883818497clip-2)"/><line x1="555.96" y1="40.37" x2="555.96" y2="39.36" style="stroke-width: 1.0;stroke: rgb(0,0,0);stroke-opacity: 1.0;" transform="matrix(1,0,0,1,0,0)" clip-path="url(#93296883818497clip-2)"/><line x1="546.61" y1="40.37" x2="565.3" y2="40.37" style="stroke-width: 1.0;stroke: rgb(0,0,0);stroke-opacity: 1.0;" transform="matrix(1,0,0,1,0,0)" clip-path="url(#93296883818497clip-2)"/><rect x="546.61" y="38.64" width="18.69" height="0.72" style="stroke-width: 1.0;stroke: rgb(0,0,0);stroke-opacity: 1.0;; fill: none" transform="matrix(1,0,0,1,0,0)" clip-path="url(#93296883818497clip-2)"/><line x1="546.61" y1="39.01" x2="565.3" y2="39.01" style="stroke-width: 1.0;stroke: rgb(0,0,0);stroke-opacity: 1.0;" transform="matrix(1,0,0,1,0,0)" clip-path="url(#93296883818497clip-2)"/><g style="stroke-width: 1.0;stroke: rgb(192,192,192);stroke-opacity: 1.0;; fill: none" transform="matrix(1,0,0,1,0,0)" clip-path="url(#93296883818497clip-2)"><path d="M 552.84 34.38 C 552.84 36.1 551.45 37.5 549.72 37.5 C 548 37.5 546.61 36.1 546.61 34.38 C 546.61 32.66 548 31.27 549.72 31.27 C 551.45 31.27 552.84 32.66 552.84 34.38 M 552.84 34.38"/></g><g style="stroke-width: 1.0;stroke: rgb(192,192,192);stroke-opacity: 1.0;; fill: none" transform="matrix(1,0,0,1,0,0)" clip-path="url(#93296883818497clip-2)"><path d="M 565.3 34.38 C 565.3 36.1 563.91 37.5 562.18 37.5 C 560.46 37.5 559.07 36.1 559.07 34.38 C 559.07 32.66 560.46 31.27 562.18 31.27 C 563.91 31.27 565.3 32.66 565.3 34.38 M 565.3 34.38"/></g><rect x="58" y="23" width="534" height="305" style="stroke-width: 0.5;stroke: rgb(128,128,128);stroke-opacity: 1.0;; fill: none" transform="matrix(1,0,0,1,0,0)" clip-path="url(#93296883818497clip-0)"/></svg>
