<!DOCTYPE svg PUBLIC "-//W3C//DTD SVG 1.1//EN" "http://www.w3.org/Graphics/SVG/1.1/DTD/svg11.dtd">
<svg xmlns="http://www.w3.org/2000/svg" xmlns:xlink="http://www.w3.org/1999/xlink" xmlns:jfreesvg="http://www.jfree.org/jfreesvg/svg" width="600" height="400" text-rendering="auto" shape-rendering="auto">
<defs><clipPath id="93182043342211clip-0"><path d="M 0 0 L 600 0 L 600 400 L 0 400 L 0 0 M 0 0"/></clipPath>
<clipPath id="93182043342211clip-1"><path d="M 194.43 156.57 L 194.43 756.57 L -205.57 756.57 L -205.57 156.57 L 194.43 156.57 M 194.43 156.57"/></clipPath>
<clipPath id="93182043342211clip-2"><path d="M 64 23 L 64 328 L 592 328 L 592 23 M 64 23"/></clipPath>
</defs>
<rect x="0" y="0" width="600" height="400" style="fill: rgb(238,238,238); fill-opacity: 1.0" transform="matrix(1,0,0,1,0,0)" clip-path="url(#93182043342211clip-0)"/><g style="fill: rgb(0,0,0); fill-opacity: 1.0; stroke: none" transform="matrix(1,0,0,1,0,0)" clip-path="url(#93182043342211clip-0)"><path d="M 282.41 14.13 Q 280.94 14.79 278.9 14.79 Q 276.41 14.79 275.02 13.39 Q 273.64 11.99 273.64 9.48 Q 273.64 6.92 275.03 5.54 Q 276.43 4.17 279.02 4.17 Q 280.68 4.17 282.31 4.55 L 282.31 6.2 Q 280.46 5.55 279.21 5.55 Q 277.61 5.55 276.74 6.57 Q 275.87 7.58 275.87 9.45 Q 275.87 11.28 276.8 12.31 Q 277.74 13.33 279.4 13.33 Q 280.89 13.33 282.41 12.58 M 282.41 14.13 M 297.41 14.13 Q 295.94 14.79 293.9 14.79 Q 291.41 14.79 290.02 13.39 Q 288.64 11.99 288.64 9.48 Q 288.64 6.92 290.03 5.54 Q 291.43 4.17 294.02 4.17 Q 295.68 4.17 297.31 4.55 L 297.31 6.2 Q 295.46 5.55 294.21 5.55 Q 292.61 5.55 291.74 6.57 Q 290.87 7.58 290.87 9.45 Q 290.87 11.28 291.8 12.31 Q 292.74 13.33 294.4 13.33 Q 295.89 13.33 297.41 12.58 M 297.41 14.13 M 299.26 14.54 L 299.26 3.74 L 301.29 3.74 L 301.29 8.44 Q 302.28 6.86 303.84 6.86 Q 304.85 6.86 305.43 7.49 Q 306.01 8.13 306.01 9.23 L 306.01 14.54 L 303.99 14.54 L 303.99 9.73 Q 303.99 8.45 303.14 8.45 Q 302.18 8.45 301.29 9.81 L 301.29 14.54 M 299.26 14.54 M 311.94 13.73 Q 310.93 14.71 309.78 14.71 Q 308.79 14.71 308.18 14.1 Q 307.56 13.5 307.56 12.55 Q 307.56 11.3 308.56 10.63 Q 309.55 9.96 311.4 9.96 L 311.94 9.96 L 311.94 9.27 Q 311.94 8.1 310.61 8.1 Q 309.43 8.1 308.22 8.77 L 308.22 7.38 Q 309.59 6.86 310.94 6.86 Q 313.88 6.86 313.88 9.2 L 313.88 12.53 Q 313.88 13.41 314.45 13.41 Q 314.55 13.41 314.72 13.38 L 314.77 14.51 Q 314.12 14.71 313.63 14.71 Q 312.39 14.71 312.03 13.73 M 311.94 13.73 M 311.94 12.64 L 311.94 11.12 L 311.46 11.12 Q 309.5 11.12 309.5 12.35 Q 309.5 12.76 309.79 13.05 Q 310.07 13.33 310.49 13.33 Q 311.2 13.33 311.94 12.64 M 311.94 12.64 M 316.26 14.54 L 316.26 7.03 L 318.29 7.03 L 318.29 8.44 Q 319.07 6.86 320.68 6.86 Q 320.87 6.86 321.06 6.9 L 321.06 8.7 Q 320.63 8.55 320.26 8.55 Q 319.05 8.55 318.29 9.77 L 318.29 14.54 M 316.26 14.54 M 326.13 14.49 Q 325.41 14.71 324.99 14.71 Q 322.36 14.71 322.36 12.25 L 322.36 8.29 L 321.52 8.29 L 321.52 7.03 L 322.36 7.03 L 322.36 5.76 L 324.38 5.53 L 324.38 7.03 L 325.99 7.03 L 325.99 8.29 L 324.38 8.29 L 324.38 11.98 Q 324.38 13.36 325.51 13.36 Q 325.77 13.36 326.13 13.26 M 326.13 14.49"/></g><rect x="262" y="373.33" width="76" height="25.67" style="fill: rgb(255,255,255); fill-opacity: 1.0" transform="matrix(1,0,0,1,0,0)" clip-path="url(#93182043342211clip-0)"/><line x1="262.5" y1="373.83" x2="337.5" y2="373.83" style="stroke-width: 1.0;stroke: rgb(0,0,0);stroke-opacity: 1.0;" transform="matrix(1,0,0,1,0,0)" clip-path="url(#93182043342211clip-0)"/><line x1="262.5" y1="398.5" x2="337.5" y2="398.5" style="stroke-width: 1.0;stroke: rgb(0,0,0);stroke-opacity: 1.0;" transform="matrix(1,0,0,1,0,0)" clip-path="url(#93182043342211clip-0)"/><line x1="262.5" y1="398.5" x2="262.5" y2="373.83" style="stroke-width: 1.0;stroke: rgb(0,0,0);stroke-opacity: 1.0;" transform="matrix(1,0,0,1,0,0)" clip-path="url(#93182043342211clip-0)"/><line x1="337.5" y1="398.5" x2="337.5" y2="373.83" style="stroke-width: 1.0;stroke: rgb(0,0,0);stroke-opacity: 1.0;" transform="matrix(1,0,0,1,0,0)" clip-path="url(#93182043342211clip-0)"/><g style="fill: rgb(192,192,192); fill-opacity: 1.0; stroke: none" transform="matrix(1,0,0,1,0,0)" clip-path="url(#93182043342211clip-0)"><path d="M 266 382.17 L 274 382.17 L 274 390.17 L 266 390.17 L 266 382.17 M 266 382.17"/></g><g style="stroke-width: 1.0;stroke: rgb(0,0,0);stroke-opacity: 1.0;; fill: none" transform="matrix(1,0,0,1,0,0)" clip-path="url(#93182043342211clip-0)"><path d="M 266 382.17 L 274 382.17 L 274 390.17 L 266 390.17 L 266 382.17 M 266 382.17"/></g><g style="fill: rgb(0,0,0); fill-opacity: 1.0; stroke: none" transform="matrix(1,0,0,1,0,0)" clip-path="url(#93182043342211clip-0)"><path d="M 281.52 392.11 Q 280.43 392.11 278.73 391.63 L 278.73 390.11 Q 280.56 390.96 281.74 390.96 Q 282.65 390.96 283.2 390.48 Q 283.76 390 283.76 389.23 Q 283.76 388.59 283.39 388.14 Q 283.03 387.7 282.06 387.15 L 281.31 386.72 Q 279.93 385.93 279.36 385.23 Q 278.79 384.53 278.79 383.6 Q 278.79 382.34 279.7 381.53 Q 280.61 380.73 282.01 380.73 Q 283.27 380.73 284.66 381.14 L 284.66 382.55 Q 282.94 381.88 282.1 381.88 Q 281.3 381.88 280.78 382.3 Q 280.26 382.72 280.26 383.37 Q 280.26 383.91 280.64 384.33 Q 281.02 384.75 282.04 385.32 L 282.81 385.76 Q 284.22 386.56 284.77 387.27 Q 285.33 387.98 285.33 388.98 Q 285.33 390.39 284.29 391.25 Q 283.24 392.11 281.52 392.11 M 281.52 392.11 M 294.27 391.58 Q 292.82 392.02 291.79 392.02 Q 290.03 392.02 288.92 390.85 Q 287.81 389.68 287.81 387.82 Q 287.81 386.01 288.79 384.86 Q 289.77 383.7 291.29 383.7 Q 292.73 383.7 293.52 384.72 Q 294.31 385.75 294.31 387.64 L 294.3 388.09 L 289.29 388.09 Q 289.6 390.92 292.06 390.92 Q 292.96 390.92 294.27 390.44 M 294.27 391.58 M 289.35 387 L 292.86 387 Q 292.86 384.78 291.2 384.78 Q 289.54 384.78 289.35 387 M 289.35 387 M 297.44 391.84 L 297.44 383.88 L 298.89 383.88 L 298.89 385.38 Q 299.74 383.71 301.38 383.71 Q 301.6 383.71 301.84 383.74 L 301.84 385.09 Q 301.46 384.97 301.18 384.97 Q 299.81 384.97 298.89 386.59 L 298.89 391.84 M 297.44 391.84 M 304.44 391.84 L 304.44 383.88 L 305.89 383.88 L 305.89 391.84 M 304.44 391.84 M 304.44 382.44 L 304.44 381 L 305.89 381 L 305.89 382.44 M 304.44 382.44 M 315.27 391.58 Q 313.82 392.02 312.79 392.02 Q 311.03 392.02 309.92 390.85 Q 308.81 389.68 308.81 387.82 Q 308.81 386.01 309.79 384.86 Q 310.77 383.7 312.29 383.7 Q 313.73 383.7 314.52 384.72 Q 315.31 385.75 315.31 387.64 L 315.3 388.09 L 310.29 388.09 Q 310.6 390.92 313.06 390.92 Q 313.96 390.92 315.27 390.44 M 315.27 391.58 M 310.35 387 L 313.86 387 Q 313.86 384.78 312.2 384.78 Q 310.54 384.78 310.35 387 M 310.35 387 M 320.55 392.02 Q 319.56 392.02 318.15 391.56 L 318.15 390.23 Q 319.56 390.94 320.61 390.94 Q 321.23 390.94 321.64 390.6 Q 322.05 390.26 322.05 389.76 Q 322.05 389.02 320.9 388.53 L 320.06 388.17 Q 318.19 387.4 318.19 385.94 Q 318.19 384.9 318.93 384.3 Q 319.67 383.71 320.95 383.71 Q 321.61 383.71 322.6 383.89 L 322.9 383.95 L 322.9 385.15 Q 321.69 384.79 320.98 384.79 Q 319.59 384.79 319.59 385.8 Q 319.59 386.45 320.64 386.9 L 321.34 387.19 Q 322.52 387.69 323.01 388.24 Q 323.5 388.8 323.5 389.62 Q 323.5 390.67 322.67 391.35 Q 321.84 392.02 320.55 392.02 M 320.55 392.02 M 332.26 391.84 L 332.26 390.75 L 334.42 390.75 L 334.42 382.2 L 332.26 382.74 L 332.26 381.63 L 335.87 380.73 L 335.87 390.75 L 338.04 390.75 L 338.04 391.84 M 332.26 391.84"/></g><rect x="64" y="23" width="528" height="305" style="fill: rgb(255,255,255); fill-opacity: 1.0" transform="matrix(1,0,0,1,0,0)" clip-path="url(#93182043342211clip-0)"/><line x1="64" y1="328" x2="592" y2="328" style="stroke-width: 1.0;stroke: rgb(128,128,128);stroke-opacity: 1.0;" transform="matrix(1,0,0,1,0,0)" clip-path="url(#93182043342211clip-0)"/><line x1="99.64" y1="328" x2="99.64" y2="328" style="stroke-width: 1.0;stroke: rgb(128,128,128);stroke-opacity: 1.0;" transform="matrix(1,0,0,1,0,0)" clip-path="url(#93182043342211clip-0)"/><line x1="99.64" y1="328" x2="99.64" y2="330" style="stroke-width: 1.0;stroke: rgb(128,128,128);stroke-opacity: 1.0;" transform="matrix(1,0,0,1,0,0)" clip-path="url(#93182043342211clip-0)"/><line x1="123.68" y1="328" x2="123.68" y2="328" style="stroke-width: 1.0;stroke: rgb(128,128,128);stroke-opacity: 1.0;" transform="matrix(1,0,0,1,0,0)" clip-path="url(#93182043342211clip-0)"/><line x1="123.68" y1="328" x2="123.68" y2="330" style="stroke-width: 1.0;stroke: rgb(128,128,128);stroke-opacity: 1.0;" transform="matrix(1,0,0,1,0,0)" clip-path="url(#93182043342211clip-0)"/><line x1="147.72" y1="328" x2="147.72" y2="328" style="stroke-width: 1.0;stroke: rgb(128,128,128);stroke-opacity: 1.0;" transform="matrix(1,0,0,1,0,0)" clip-path="url(#93182043342211clip-0)"/><line x1="147.72" y1="328" x2="147.72" y2="330" style="stroke-width: 1.0;stroke: rgb(128,128,128);stroke-opacity: 1.0;" transform="matrix(1,0,0,1,0,0)" clip-path="url(#93182043342211clip-0)"/><line x1="171.75" y1="328" x2="171.75" y2="328" style="stroke-width: 1.0;stroke: rgb(128,128,128);stroke-opacity: 1.0;" transform="matrix(1,0,0,1,0,0)" clip-path="url(#93182043342211clip-0)"/><line x1="171.75" y1="328" x2="171.75" y2="330" style="stroke-width: 1.0;stroke: rgb(128,128,128);stroke-opacity: 1.0;" transform="matrix(1,0,0,1,0,0)" clip-path="url(#93182043342211clip-0)"/><line x1="195.79" y1="328" x2="195.79" y2="328" style="stroke-width: 1.0;stroke: rgb(128,128,128);stroke-opacity: 1.0;" transform="matrix(1,0,0,1,0,0)" clip-path="url(#93182043342211clip-0)"/><line x1="195.79" y1="328" x2="195.79" y2="330" style="stroke-width: 1.0;stroke: rgb(128,128,128);stroke-opacity: 1.0;" transform="matrix(1,0,0,1,0,0)" clip-path="url(#93182043342211clip-0)"/><line x1="219.83" y1="328" x2="219.83" y2="328" style="stroke-width: 1.0;stroke: rgb(128,128,128);stroke-opacity: 1.0;" transform="matrix(1,0,0,1,0,0)" clip-path="url(#93182043342211clip-0)"/><line x1="219.83" y1="328" x2="219.83" y2="330" style="stroke-width: 1.0;stroke: rgb(128,128,128);stroke-opacity: 1.0;" transform="matrix(1,0,0,1,0,0)" clip-path="url(#93182043342211clip-0)"/><line x1="243.87" y1="328" x2="243.87" y2="328" style="stroke-width: 1.0;stroke: rgb(128,128,128);stroke-opacity: 1.0;" transform="matrix(1,0,0,1,0,0)" clip-path="url(#93182043342211clip-0)"/><line x1="243.87" y1="328" x2="243.87" y2="330" style="stroke-width: 1.0;stroke: rgb(128,128,128);stroke-opacity: 1.0;" transform="matrix(1,0,0,1,0,0)" clip-path="url(#93182043342211clip-0)"/><line x1="267.91" y1="328" x2="267.91" y2="328" style="stroke-width: 1.0;stroke: rgb(128,128,128);stroke-opacity: 1.0;" transform="matrix(1,0,0,1,0,0)" clip-path="url(#93182043342211clip-0)"/><line x1="267.91" y1="328" x2="267.91" y2="330" style="stroke-width: 1.0;stroke: rgb(128,128,128);stroke-opacity: 1.0;" transform="matrix(1,0,0,1,0,0)" clip-path="url(#93182043342211clip-0)"/><line x1="291.94" y1="328" x2="291.94" y2="328" style="stroke-width: 1.0;stroke: rgb(128,128,128);stroke-opacity: 1.0;" transform="matrix(1,0,0,1,0,0)" clip-path="url(#93182043342211clip-0)"/><line x1="291.94" y1="328" x2="291.94" y2="330" style="stroke-width: 1.0;stroke: rgb(128,128,128);stroke-opacity: 1.0;" transform="matrix(1,0,0,1,0,0)" clip-path="url(#93182043342211clip-0)"/><line x1="315.98" y1="328" x2="315.98" y2="328" style="stroke-width: 1.0;stroke: rgb(128,128,128);stroke-opacity: 1.0;" transform="matrix(1,0,0,1,0,0)" clip-path="url(#93182043342211clip-0)"/><line x1="315.98" y1="328" x2="315.98" y2="330" style="stroke-width: 1.0;stroke: rgb(128,128,128);stroke-opacity: 1.0;" transform="matrix(1,0,0,1,0,0)" clip-path="url(#93182043342211clip-0)"/><line x1="340.02" y1="328" x2="340.02" y2="328" style="stroke-width: 1.0;stroke: rgb(128,128,128);stroke-opacity: 1.0;" transform="matrix(1,0,0,1,0,0)" clip-path="url(#93182043342211clip-0)"/><line x1="340.02" y1="328" x2="340.02" y2="330" style="stroke-width: 1.0;stroke: rgb(128,128,128);stroke-opacity: 1.0;" transform="matrix(1,0,0,1,0,0)" clip-path="url(#93182043342211clip-0)"/><line x1="364.06" y1="328" x2="364.06" y2="328" style="stroke-width: 1.0;stroke: rgb(128,128,128);stroke-opacity: 1.0;" transform="matrix(1,0,0,1,0,0)" clip-path="url(#93182043342211clip-0)"/><line x1="364.06" y1="328" x2="364.06" y2="330" style="stroke-width: 1.0;stroke: rgb(128,128,128);stroke-opacity: 1.0;" transform="matrix(1,0,0,1,0,0)" clip-path="url(#93182043342211clip-0)"/><line x1="388.09" y1="328" x2="388.09" y2="328" style="stroke-width: 1.0;stroke: rgb(128,128,128);stroke-opacity: 1.0;" transform="matrix(1,0,0,1,0,0)" clip-path="url(#93182043342211clip-0)"/><line x1="388.09" y1="328" x2="388.09" y2="330" style="stroke-width: 1.0;stroke: rgb(128,128,128);stroke-opacity: 1.0;" transform="matrix(1,0,0,1,0,0)" clip-path="url(#93182043342211clip-0)"/><line x1="412.13" y1="328" x2="412.13" y2="328" style="stroke-width: 1.0;stroke: rgb(128,128,128);stroke-opacity: 1.0;" transform="matrix(1,0,0,1,0,0)" clip-path="url(#93182043342211clip-0)"/><line x1="412.13" y1="328" x2="412.13" y2="330" style="stroke-width: 1.0;stroke: rgb(128,128,128);stroke-opacity: 1.0;" transform="matrix(1,0,0,1,0,0)" clip-path="url(#93182043342211clip-0)"/><line x1="436.17" y1="328" x2="436.17" y2="328" style="stroke-width: 1.0;stroke: rgb(128,128,128);stroke-opacity: 1.0;" transform="matrix(1,0,0,1,0,0)" clip-path="url(#93182043342211clip-0)"/><line x1="436.17" y1="328" x2="436.17" y2="330" style="stroke-width: 1.0;stroke: rgb(128,128,128);stroke-opacity: 1.0;" transform="matrix(1,0,0,1,0,0)" clip-path="url(#93182043342211clip-0)"/><line x1="460.21" y1="328" x2="460.21" y2="328" style="stroke-width: 1.0;stroke: rgb(128,128,128);stroke-opacity: 1.0;" transform="matrix(1,0,0,1,0,0)" clip-path="url(#93182043342211clip-0)"/><line x1="460.21" y1="328" x2="460.21" y2="330" style="stroke-width: 1.0;stroke: rgb(128,128,128);stroke-opacity: 1.0;" transform="matrix(1,0,0,1,0,0)" clip-path="url(#93182043342211clip-0)"/><line x1="484.25" y1="328" x2="484.25" y2="328" style="stroke-width: 1.0;stroke: rgb(128,128,128);stroke-opacity: 1.0;" transform="matrix(1,0,0,1,0,0)" clip-path="url(#93182043342211clip-0)"/><line x1="484.25" y1="328" x2="484.25" y2="330" style="stroke-width: 1.0;stroke: rgb(128,128,128);stroke-opacity: 1.0;" transform="matrix(1,0,0,1,0,0)" clip-path="url(#93182043342211clip-0)"/><line x1="508.28" y1="328" x2="508.28" y2="328" style="stroke-width: 1.0;stroke: rgb(128,128,128);stroke-opacity: 1.0;" transform="matrix(1,0,0,1,0,0)" clip-path="url(#93182043342211clip-0)"/><line x1="508.28" y1="328" x2="508.28" y2="330" style="stroke-width: 1.0;stroke: rgb(128,128,128);stroke-opacity: 1.0;" transform="matrix(1,0,0,1,0,0)" clip-path="url(#93182043342211clip-0)"/><line x1="532.32" y1="328" x2="532.32" y2="328" style="stroke-width: 1.0;stroke: rgb(128,128,128);stroke-opacity: 1.0;" transform="matrix(1,0,0,1,0,0)" clip-path="url(#93182043342211clip-0)"/><line x1="532.32" y1="328" x2="532.32" y2="330" style="stroke-width: 1.0;stroke: rgb(128,128,128);stroke-opacity: 1.0;" transform="matrix(1,0,0,1,0,0)" clip-path="url(#93182043342211clip-0)"/><line x1="556.36" y1="328" x2="556.36" y2="328" style="stroke-width: 1.0;stroke: rgb(128,128,128);stroke-opacity: 1.0;" transform="matrix(1,0,0,1,0,0)" clip-path="url(#93182043342211clip-0)"/><line x1="556.36" y1="328" x2="556.36" y2="330" style="stroke-width: 1.0;stroke: rgb(128,128,128);stroke-opacity: 1.0;" transform="matrix(1,0,0,1,0,0)" clip-path="url(#93182043342211clip-0)"/><g style="fill: rgb(0,0,0); fill-opacity: 1.0; stroke: none" transform="matrix(1,0,0,1,0,0)" clip-path="url(#93182043342211clip-0)"><path d="M 98.14 343.67 L 98.14 342.95 L 99.59 342.95 L 99.59 337.24 L 98.14 337.6 L 98.14 336.86 L 100.56 336.26 L 100.56 342.95 L 102 342.95 L 102 343.67 M 98.14 343.67"/></g><g style="fill: rgb(0,0,0); fill-opacity: 1.0; stroke: none" transform="matrix(1,0,0,1,0,0)" clip-path="url(#93182043342211clip-0)"><path d="M 121.51 343.67 L 121.51 342.82 Q 121.93 341.84 123.21 340.68 L 123.76 340.19 Q 124.82 339.23 124.82 338.28 Q 124.82 337.68 124.46 337.33 Q 124.1 336.98 123.46 336.98 Q 122.71 336.98 121.69 337.56 L 121.69 336.71 Q 122.65 336.26 123.6 336.26 Q 124.61 336.26 125.23 336.81 Q 125.84 337.35 125.84 338.26 Q 125.84 338.91 125.53 339.41 Q 125.22 339.91 124.38 340.63 L 124.01 340.95 Q 122.85 341.93 122.67 342.82 L 125.81 342.82 L 125.81 343.67 M 121.51 343.67"/></g><g style="fill: rgb(0,0,0); fill-opacity: 1.0; stroke: none" transform="matrix(1,0,0,1,0,0)" clip-path="url(#93182043342211clip-0)"><path d="M 145.73 343.61 L 145.73 342.72 Q 146.77 343.13 147.36 343.13 Q 148.05 343.13 148.48 342.72 Q 148.92 342.32 148.92 341.68 Q 148.92 340.16 146.78 340.16 L 146.4 340.16 L 146.4 339.51 L 146.74 339.5 Q 148.74 339.5 148.74 338.09 Q 148.74 336.98 147.42 336.98 Q 146.7 336.98 145.83 337.39 L 145.83 336.55 Q 146.68 336.26 147.49 336.26 Q 149.71 336.26 149.71 337.94 Q 149.71 339.21 148.2 339.75 Q 149.95 340.16 149.95 341.67 Q 149.95 342.69 149.27 343.27 Q 148.6 343.85 147.42 343.85 Q 146.75 343.85 145.73 343.61 M 145.73 343.61"/></g><g style="fill: rgb(0,0,0); fill-opacity: 1.0; stroke: none" transform="matrix(1,0,0,1,0,0)" clip-path="url(#93182043342211clip-0)"><path d="M 172.52 343.67 L 172.52 341.62 L 169.27 341.62 L 169.27 340.89 L 172.52 336.44 L 173.42 336.44 L 173.42 340.84 L 174.39 340.84 L 174.39 341.62 L 173.42 341.62 L 173.42 343.67 M 172.52 343.67 M 170.21 340.84 L 172.58 340.84 L 172.58 337.62 M 170.21 340.84"/></g><g style="fill: rgb(0,0,0); fill-opacity: 1.0; stroke: none" transform="matrix(1,0,0,1,0,0)" clip-path="url(#93182043342211clip-0)"><path d="M 194.01 343.7 L 194.01 342.84 Q 194.73 343.13 195.37 343.13 Q 196.09 343.13 196.5 342.71 Q 196.9 342.29 196.9 341.55 Q 196.9 339.92 194.66 339.92 Q 194.41 339.92 194.13 339.96 L 194.13 336.44 L 197.79 336.44 L 197.79 337.28 L 194.97 337.28 L 194.97 339.19 Q 196.37 339.19 197.15 339.83 Q 197.93 340.46 197.93 341.6 Q 197.93 342.65 197.22 343.25 Q 196.51 343.85 195.25 343.85 Q 194.7 343.85 194.01 343.7 M 194.01 343.7"/></g><g style="fill: rgb(0,0,0); fill-opacity: 1.0; stroke: none" transform="matrix(1,0,0,1,0,0)" clip-path="url(#93182043342211clip-0)"><path d="M 218.55 339.92 Q 219.24 339.03 220.28 339.03 Q 221.23 339.03 221.83 339.66 Q 222.43 340.28 222.43 341.27 Q 222.43 342.39 221.76 343.12 Q 221.08 343.85 220.04 343.85 Q 218.85 343.85 218.17 342.89 Q 217.5 341.92 217.5 340.22 Q 217.5 338.34 218.27 337.3 Q 219.05 336.26 220.45 336.26 Q 221.1 336.26 222.06 336.53 L 222.06 337.37 Q 221.04 336.98 220.39 336.98 Q 218.55 336.98 218.55 339.92 M 218.55 339.92 M 221.47 341.48 Q 221.47 340.66 221.1 340.19 Q 220.73 339.72 220.08 339.72 Q 219.47 339.72 219.03 340.13 Q 218.59 340.54 218.59 341.12 Q 218.59 342.03 219 342.58 Q 219.42 343.13 220.11 343.13 Q 220.73 343.13 221.1 342.68 Q 221.47 342.23 221.47 341.48 M 221.47 341.48"/></g><g style="fill: rgb(0,0,0); fill-opacity: 1.0; stroke: none" transform="matrix(1,0,0,1,0,0)" clip-path="url(#93182043342211clip-0)"><path d="M 242.37 343.67 Q 242.51 342.82 242.77 342.21 Q 243.04 341.59 243.7 340.52 L 245.67 337.34 L 241.95 337.34 L 241.95 336.44 L 246.59 336.44 L 246.59 337.34 Q 243.81 341.44 243.48 343.67 M 242.37 343.67"/></g><g style="fill: rgb(0,0,0); fill-opacity: 1.0; stroke: none" transform="matrix(1,0,0,1,0,0)" clip-path="url(#93182043342211clip-0)"><path d="M 267.21 339.73 Q 266.15 339 266.15 338.1 Q 266.15 337.28 266.75 336.77 Q 267.35 336.26 268.31 336.26 Q 269.21 336.26 269.76 336.69 Q 270.32 337.12 270.32 337.82 Q 270.32 338.87 268.97 339.73 Q 270.6 340.53 270.6 341.8 Q 270.6 342.71 269.92 343.28 Q 269.23 343.85 268.15 343.85 Q 267.08 343.85 266.43 343.31 Q 265.77 342.77 265.77 341.89 Q 265.77 340.59 267.21 339.73 M 267.21 339.73 M 268.43 339.43 Q 269.44 338.77 269.44 337.95 Q 269.44 337.52 269.1 337.25 Q 268.77 336.98 268.22 336.98 Q 267.68 336.98 267.35 337.24 Q 267.02 337.51 267.02 337.92 Q 267.02 338.33 267.32 338.65 Q 267.62 338.97 268.43 339.43 M 268.43 339.43 M 267.73 340.12 Q 267.15 340.57 266.94 340.91 Q 266.73 341.24 266.73 341.74 Q 266.73 342.36 267.13 342.74 Q 267.53 343.13 268.19 343.13 Q 268.82 343.13 269.21 342.8 Q 269.61 342.47 269.61 341.95 Q 269.61 341.53 269.37 341.24 Q 269.12 340.95 268.41 340.53 M 267.73 340.12"/></g><g style="fill: rgb(0,0,0); fill-opacity: 1.0; stroke: none" transform="matrix(1,0,0,1,0,0)" clip-path="url(#93182043342211clip-0)"><path d="M 290.08 343.62 L 290.08 342.81 Q 291 343.13 291.64 343.13 Q 292.54 343.13 293.05 342.36 Q 293.55 341.6 293.55 340.24 Q 292.82 341.14 291.89 341.14 Q 290.97 341.14 290.34 340.47 Q 289.7 339.8 289.7 338.83 Q 289.7 337.72 290.38 336.99 Q 291.06 336.26 292.08 336.26 Q 293.26 336.26 293.94 337.21 Q 294.62 338.15 294.62 339.79 Q 294.62 341.66 293.79 342.75 Q 292.96 343.85 291.55 343.85 Q 290.98 343.85 290.08 343.62 M 290.08 343.62 M 290.67 338.64 Q 290.67 339.48 291.04 339.96 Q 291.41 340.45 292.06 340.45 Q 292.67 340.45 293.11 340.03 Q 293.54 339.62 293.54 339.03 Q 293.54 338.11 293.12 337.54 Q 292.7 336.98 292.02 336.98 Q 291.39 336.98 291.03 337.43 Q 290.67 337.87 290.67 338.64 M 290.67 338.64"/></g><g style="fill: rgb(0,0,0); fill-opacity: 1.0; stroke: none" transform="matrix(1,0,0,1,0,0)" clip-path="url(#93182043342211clip-0)"><path d="M 311.48 343.67 L 311.48 342.95 L 312.93 342.95 L 312.93 337.24 L 311.48 337.6 L 311.48 336.86 L 313.9 336.26 L 313.9 342.95 L 315.34 342.95 L 315.34 343.67 M 311.48 343.67 M 319.12 343.85 Q 318 343.85 317.31 342.8 Q 316.62 341.74 316.62 340.05 Q 316.62 338.34 317.31 337.3 Q 318.01 336.26 319.15 336.26 Q 320.28 336.26 320.98 337.3 Q 321.67 338.34 321.67 340.04 Q 321.67 341.77 320.98 342.81 Q 320.28 343.85 319.12 343.85 M 319.12 343.85 M 319.13 343.13 Q 320.65 343.13 320.65 340.02 Q 320.65 336.98 319.15 336.98 Q 317.64 336.98 317.64 340.05 Q 317.64 343.13 319.13 343.13 M 319.13 343.13"/></g><g style="fill: rgb(0,0,0); fill-opacity: 1.0; stroke: none" transform="matrix(1,0,0,1,0,0)" clip-path="url(#93182043342211clip-0)"><path d="M 335.52 343.67 L 335.52 342.95 L 336.97 342.95 L 336.97 337.24 L 335.52 337.6 L 335.52 336.86 L 337.93 336.26 L 337.93 342.95 L 339.38 342.95 L 339.38 343.67 M 335.52 343.67 M 341.52 343.67 L 341.52 342.95 L 342.97 342.95 L 342.97 337.24 L 341.52 337.6 L 341.52 336.86 L 343.93 336.26 L 343.93 342.95 L 345.38 342.95 L 345.38 343.67 M 341.52 343.67"/></g><g style="fill: rgb(0,0,0); fill-opacity: 1.0; stroke: none" transform="matrix(1,0,0,1,0,0)" clip-path="url(#93182043342211clip-0)"><path d="M 359.56 343.67 L 359.56 342.95 L 361.01 342.95 L 361.01 337.24 L 359.56 337.6 L 359.56 336.86 L 361.97 336.26 L 361.97 342.95 L 363.42 342.95 L 363.42 343.67 M 359.56 343.67 M 364.89 343.67 L 364.89 342.82 Q 365.31 341.84 366.59 340.68 L 367.14 340.19 Q 368.2 339.23 368.2 338.28 Q 368.2 337.68 367.84 337.33 Q 367.47 336.98 366.84 336.98 Q 366.09 336.98 365.07 337.56 L 365.07 336.71 Q 366.03 336.26 366.98 336.26 Q 367.99 336.26 368.61 336.81 Q 369.22 337.35 369.22 338.26 Q 369.22 338.91 368.91 339.41 Q 368.6 339.91 367.76 340.63 L 367.39 340.95 Q 366.23 341.93 366.05 342.82 L 369.19 342.82 L 369.19 343.67 M 364.89 343.67"/></g><g style="fill: rgb(0,0,0); fill-opacity: 1.0; stroke: none" transform="matrix(1,0,0,1,0,0)" clip-path="url(#93182043342211clip-0)"><path d="M 383.6 343.67 L 383.6 342.95 L 385.04 342.95 L 385.04 337.24 L 383.6 337.6 L 383.6 336.86 L 386.01 336.26 L 386.01 342.95 L 387.46 342.95 L 387.46 343.67 M 383.6 343.67 M 389.11 343.61 L 389.11 342.72 Q 390.15 343.13 390.74 343.13 Q 391.43 343.13 391.86 342.72 Q 392.29 342.32 392.29 341.68 Q 392.29 340.16 390.16 340.16 L 389.78 340.16 L 389.78 339.51 L 390.12 339.5 Q 392.12 339.5 392.12 338.09 Q 392.12 336.98 390.8 336.98 Q 390.08 336.98 389.21 337.39 L 389.21 336.55 Q 390.06 336.26 390.87 336.26 Q 393.08 336.26 393.08 337.94 Q 393.08 339.21 391.58 339.75 Q 393.32 340.16 393.32 341.67 Q 393.32 342.69 392.65 343.27 Q 391.98 343.85 390.8 343.85 Q 390.13 343.85 389.11 343.61 M 389.11 343.61"/></g><g style="fill: rgb(0,0,0); fill-opacity: 1.0; stroke: none" transform="matrix(1,0,0,1,0,0)" clip-path="url(#93182043342211clip-0)"><path d="M 407.64 343.67 L 407.64 342.95 L 409.08 342.95 L 409.08 337.24 L 407.64 337.6 L 407.64 336.86 L 410.05 336.26 L 410.05 342.95 L 411.49 342.95 L 411.49 343.67 M 407.64 343.67 M 415.9 343.67 L 415.9 341.62 L 412.65 341.62 L 412.65 340.89 L 415.9 336.44 L 416.8 336.44 L 416.8 340.84 L 417.77 340.84 L 417.77 341.62 L 416.8 341.62 L 416.8 343.67 M 415.9 343.67 M 413.59 340.84 L 415.96 340.84 L 415.96 337.62 M 413.59 340.84"/></g><g style="fill: rgb(0,0,0); fill-opacity: 1.0; stroke: none" transform="matrix(1,0,0,1,0,0)" clip-path="url(#93182043342211clip-0)"><path d="M 431.67 343.67 L 431.67 342.95 L 433.12 342.95 L 433.12 337.24 L 431.67 337.6 L 431.67 336.86 L 434.09 336.26 L 434.09 342.95 L 435.53 342.95 L 435.53 343.67 M 431.67 343.67 M 437.39 343.7 L 437.39 342.84 Q 438.1 343.13 438.75 343.13 Q 439.47 343.13 439.87 342.71 Q 440.28 342.29 440.28 341.55 Q 440.28 339.92 438.04 339.92 Q 437.79 339.92 437.51 339.96 L 437.51 336.44 L 441.17 336.44 L 441.17 337.28 L 438.35 337.28 L 438.35 339.19 Q 439.74 339.19 440.53 339.83 Q 441.31 340.46 441.31 341.6 Q 441.31 342.65 440.6 343.25 Q 439.89 343.85 438.63 343.85 Q 438.08 343.85 437.39 343.7 M 437.39 343.7"/></g><g style="fill: rgb(0,0,0); fill-opacity: 1.0; stroke: none" transform="matrix(1,0,0,1,0,0)" clip-path="url(#93182043342211clip-0)"><path d="M 455.71 343.67 L 455.71 342.95 L 457.16 342.95 L 457.16 337.24 L 455.71 337.6 L 455.71 336.86 L 458.12 336.26 L 458.12 342.95 L 459.57 342.95 L 459.57 343.67 M 455.71 343.67 M 461.93 339.92 Q 462.62 339.03 463.66 339.03 Q 464.61 339.03 465.21 339.66 Q 465.81 340.28 465.81 341.27 Q 465.81 342.39 465.14 343.12 Q 464.46 343.85 463.42 343.85 Q 462.23 343.85 461.55 342.89 Q 460.88 341.92 460.88 340.22 Q 460.88 338.34 461.65 337.3 Q 462.43 336.26 463.83 336.26 Q 464.48 336.26 465.44 336.53 L 465.44 337.37 Q 464.42 336.98 463.77 336.98 Q 461.93 336.98 461.93 339.92 M 461.93 339.92 M 464.85 341.48 Q 464.85 340.66 464.48 340.19 Q 464.11 339.72 463.46 339.72 Q 462.85 339.72 462.41 340.13 Q 461.97 340.54 461.97 341.12 Q 461.97 342.03 462.38 342.58 Q 462.8 343.13 463.49 343.13 Q 464.11 343.13 464.48 342.68 Q 464.85 342.23 464.85 341.48 M 464.85 341.48"/></g><g style="fill: rgb(0,0,0); fill-opacity: 1.0; stroke: none" transform="matrix(1,0,0,1,0,0)" clip-path="url(#93182043342211clip-0)"><path d="M 479.75 343.67 L 479.75 342.95 L 481.2 342.95 L 481.2 337.24 L 479.75 337.6 L 479.75 336.86 L 482.16 336.26 L 482.16 342.95 L 483.61 342.95 L 483.61 343.67 M 479.75 343.67 M 485.75 343.67 Q 485.89 342.82 486.15 342.21 Q 486.41 341.59 487.08 340.52 L 489.05 337.34 L 485.33 337.34 L 485.33 336.44 L 489.97 336.44 L 489.97 337.34 Q 487.19 341.44 486.86 343.67 M 485.75 343.67"/></g><g style="fill: rgb(0,0,0); fill-opacity: 1.0; stroke: none" transform="matrix(1,0,0,1,0,0)" clip-path="url(#93182043342211clip-0)"><path d="M 503.79 343.67 L 503.79 342.95 L 505.23 342.95 L 505.23 337.24 L 503.79 337.6 L 503.79 336.86 L 506.2 336.26 L 506.2 342.95 L 507.65 342.95 L 507.65 343.67 M 503.79 343.67 M 510.58 339.73 Q 509.52 339 509.52 338.1 Q 509.52 337.28 510.13 336.77 Q 510.73 336.26 511.69 336.26 Q 512.59 336.26 513.14 336.69 Q 513.69 337.12 513.69 337.82 Q 513.69 338.87 512.35 339.73 Q 513.98 340.53 513.98 341.8 Q 513.98 342.71 513.3 343.28 Q 512.61 343.85 511.53 343.85 Q 510.46 343.85 509.81 343.31 Q 509.15 342.77 509.15 341.89 Q 509.15 340.59 510.58 339.73 M 510.58 339.73 M 511.81 339.43 Q 512.82 338.77 512.82 337.95 Q 512.82 337.52 512.48 337.25 Q 512.15 336.98 511.59 336.98 Q 511.06 336.98 510.73 337.24 Q 510.4 337.51 510.4 337.92 Q 510.4 338.33 510.7 338.65 Q 511 338.97 511.81 339.43 M 511.81 339.43 M 511.11 340.12 Q 510.53 340.57 510.32 340.91 Q 510.11 341.24 510.11 341.74 Q 510.11 342.36 510.51 342.74 Q 510.91 343.13 511.57 343.13 Q 512.2 343.13 512.59 342.8 Q 512.99 342.47 512.99 341.95 Q 512.99 341.53 512.74 341.24 Q 512.5 340.95 511.79 340.53 M 511.11 340.12"/></g><g style="fill: rgb(0,0,0); fill-opacity: 1.0; stroke: none" transform="matrix(1,0,0,1,0,0)" clip-path="url(#93182043342211clip-0)"><path d="M 527.83 343.67 L 527.83 342.95 L 529.27 342.95 L 529.27 337.24 L 527.83 337.6 L 527.83 336.86 L 530.24 336.26 L 530.24 342.95 L 531.68 342.95 L 531.68 343.67 M 527.83 343.67 M 533.46 343.62 L 533.46 342.81 Q 534.38 343.13 535.02 343.13 Q 535.92 343.13 536.43 342.36 Q 536.93 341.6 536.93 340.24 Q 536.2 341.14 535.27 341.14 Q 534.35 341.14 533.72 340.47 Q 533.08 339.8 533.08 338.83 Q 533.08 337.72 533.76 336.99 Q 534.44 336.26 535.46 336.26 Q 536.64 336.26 537.32 337.21 Q 538 338.15 538 339.79 Q 538 341.66 537.17 342.75 Q 536.34 343.85 534.93 343.85 Q 534.36 343.85 533.46 343.62 M 533.46 343.62 M 534.05 338.64 Q 534.05 339.48 534.42 339.96 Q 534.79 340.45 535.44 340.45 Q 536.05 340.45 536.48 340.03 Q 536.92 339.62 536.92 339.03 Q 536.92 338.11 536.5 337.54 Q 536.08 336.98 535.4 336.98 Q 534.77 336.98 534.41 337.43 Q 534.05 337.87 534.05 338.64 M 534.05 338.64"/></g><g style="fill: rgb(0,0,0); fill-opacity: 1.0; stroke: none" transform="matrix(1,0,0,1,0,0)" clip-path="url(#93182043342211clip-0)"><path d="M 551.19 343.67 L 551.19 342.82 Q 551.61 341.84 552.89 340.68 L 553.44 340.19 Q 554.51 339.23 554.51 338.28 Q 554.51 337.68 554.14 337.33 Q 553.78 336.98 553.14 336.98 Q 552.39 336.98 551.37 337.56 L 551.37 336.71 Q 552.33 336.26 553.28 336.26 Q 554.3 336.26 554.91 336.81 Q 555.53 337.35 555.53 338.26 Q 555.53 338.91 555.22 339.41 Q 554.91 339.91 554.06 340.63 L 553.69 340.95 Q 552.53 341.93 552.35 342.82 L 555.49 342.82 L 555.49 343.67 M 551.19 343.67 M 559.49 343.85 Q 558.38 343.85 557.69 342.8 Q 556.99 341.74 556.99 340.05 Q 556.99 338.34 557.69 337.3 Q 558.39 336.26 559.52 336.26 Q 560.66 336.26 561.36 337.3 Q 562.05 338.34 562.05 340.04 Q 562.05 341.77 561.36 342.81 Q 560.66 343.85 559.49 343.85 M 559.49 343.85 M 559.5 343.13 Q 561.03 343.13 561.03 340.02 Q 561.03 336.98 559.52 336.98 Q 558.02 336.98 558.02 340.05 Q 558.02 343.13 559.5 343.13 M 559.5 343.13"/></g><g style="fill: rgb(0,0,0); fill-opacity: 1.0; stroke: none" transform="matrix(1,0,0,1,0,0)" clip-path="url(#93182043342211clip-0)"><path d="M 314.68 364.38 L 314.68 356.63 L 311.61 356.63 L 311.61 355.71 L 318.99 355.71 L 318.99 356.63 L 315.91 356.63 L 315.91 364.38 M 314.68 364.38 M 324.63 364.38 L 324.63 363.18 Q 323.71 364.53 322.4 364.53 Q 321.57 364.53 321.08 364 Q 320.58 363.48 320.58 362.59 L 320.58 358.02 L 321.74 358.02 L 321.74 362.21 Q 321.74 362.93 321.95 363.23 Q 322.15 363.53 322.64 363.53 Q 323.7 363.53 324.63 362.14 L 324.63 358.02 L 325.79 358.02 L 325.79 364.38 M 324.63 364.38 M 328.65 366.69 L 328.65 358.02 L 329.81 358.02 L 329.81 359.21 Q 330.52 357.88 331.94 357.88 Q 333.08 357.88 333.74 358.71 Q 334.4 359.55 334.4 361 Q 334.4 362.59 333.66 363.56 Q 332.91 364.53 331.69 364.53 Q 330.56 364.53 329.81 363.66 L 329.81 366.69 M 328.65 366.69 M 329.81 362.86 Q 330.7 363.66 331.51 363.66 Q 333.17 363.66 333.17 361.12 Q 333.17 358.88 331.7 358.88 Q 330.73 358.88 329.81 359.93 M 329.81 362.86 M 341.32 364.17 Q 340.16 364.53 339.33 364.53 Q 337.93 364.53 337.04 363.59 Q 336.15 362.66 336.15 361.17 Q 336.15 359.72 336.93 358.79 Q 337.71 357.87 338.93 357.87 Q 340.09 357.87 340.72 358.69 Q 341.35 359.51 341.35 361.02 L 341.34 361.38 L 337.33 361.38 Q 337.58 363.65 339.55 363.65 Q 340.27 363.65 341.32 363.26 M 341.32 364.17 M 337.38 360.51 L 340.19 360.51 Q 340.19 358.74 338.86 358.74 Q 337.53 358.74 337.38 360.51 M 337.38 360.51 M 343.65 364.38 L 343.65 355.13 L 344.81 355.13 L 344.81 364.38 M 343.65 364.38"/></g><line x1="64" y1="23" x2="64" y2="328" style="stroke-width: 1.0;stroke: rgb(128,128,128);stroke-opacity: 1.0;" transform="matrix(1,0,0,1,0,0)" clip-path="url(#93182043342211clip-0)"/><g style="fill: rgb(0,0,0); fill-opacity: 1.0; stroke: none" transform="matrix(1,0,0,1,0,0)" clip-path="url(#93182043342211clip-0)"><path d="M 34.13 331.96 Q 33.02 331.96 32.33 330.91 Q 31.63 329.86 31.63 328.16 Q 31.63 326.45 32.33 325.41 Q 33.03 324.37 34.16 324.37 Q 35.3 324.37 36 325.41 Q 36.69 326.45 36.69 328.15 Q 36.69 329.88 36 330.92 Q 35.3 331.96 34.13 331.96 M 34.13 331.96 M 34.14 331.24 Q 35.67 331.24 35.67 328.13 Q 35.67 325.09 34.16 325.09 Q 32.66 325.09 32.66 328.16 Q 32.66 331.24 34.14 331.24 M 34.14 331.24 M 37.98 331.78 L 37.98 330.57 L 39.18 330.57 L 39.18 331.78 M 37.98 331.78 M 43.13 331.96 Q 42.02 331.96 41.33 330.91 Q 40.63 329.86 40.63 328.16 Q 40.63 326.45 41.33 325.41 Q 42.03 324.37 43.16 324.37 Q 44.3 324.37 45 325.41 Q 45.69 326.45 45.69 328.15 Q 45.69 329.88 45 330.92 Q 44.3 331.96 43.13 331.96 M 43.13 331.96 M 43.14 331.24 Q 44.67 331.24 44.67 328.13 Q 44.67 325.09 43.16 325.09 Q 41.66 325.09 41.66 328.16 Q 41.66 331.24 43.14 331.24 M 43.14 331.24 M 49.13 331.96 Q 48.02 331.96 47.33 330.91 Q 46.63 329.86 46.63 328.16 Q 46.63 326.45 47.33 325.41 Q 48.03 324.37 49.16 324.37 Q 50.3 324.37 51 325.41 Q 51.69 326.45 51.69 328.15 Q 51.69 329.88 51 330.92 Q 50.3 331.96 49.13 331.96 M 49.13 331.96 M 49.14 331.24 Q 50.67 331.24 50.67 328.13 Q 50.67 325.09 49.16 325.09 Q 47.66 325.09 47.66 328.16 Q 47.66 331.24 49.14 331.24 M 49.14 331.24 M 55.13 331.96 Q 54.02 331.96 53.33 330.91 Q 52.63 329.86 52.63 328.16 Q 52.63 326.45 53.33 325.41 Q 54.03 324.37 55.16 324.37 Q 56.3 324.37 57 325.41 Q 57.69 326.45 57.69 328.15 Q 57.69 329.88 57 330.92 Q 56.3 331.96 55.13 331.96 M 55.13 331.96 M 55.14 331.24 Q 56.67 331.24 56.67 328.13 Q 56.67 325.09 55.16 325.09 Q 53.66 325.09 53.66 328.16 Q 53.66 331.24 55.14 331.24 M 55.14 331.24"/></g><line x1="62" y1="328" x2="64" y2="328" style="stroke-width: 1.0;stroke: rgb(128,128,128);stroke-opacity: 1.0;" transform="matrix(1,0,0,1,0,0)" clip-path="url(#93182043342211clip-0)"/><g style="fill: rgb(0,0,0); fill-opacity: 1.0; stroke: none" transform="matrix(1,0,0,1,0,0)" clip-path="url(#93182043342211clip-0)"><path d="M 34.13 299.22 Q 33.02 299.22 32.33 298.17 Q 31.63 297.12 31.63 295.42 Q 31.63 293.71 32.33 292.67 Q 33.03 291.63 34.16 291.63 Q 35.3 291.63 36 292.67 Q 36.69 293.71 36.69 295.41 Q 36.69 297.14 36 298.18 Q 35.3 299.22 34.13 299.22 M 34.13 299.22 M 34.14 298.5 Q 35.67 298.5 35.67 295.39 Q 35.67 292.35 34.16 292.35 Q 32.66 292.35 32.66 295.42 Q 32.66 298.5 34.14 298.5 M 34.14 298.5 M 37.98 299.04 L 37.98 297.83 L 39.18 297.83 L 39.18 299.04 M 37.98 299.04 M 43.13 299.22 Q 42.02 299.22 41.33 298.17 Q 40.63 297.12 40.63 295.42 Q 40.63 293.71 41.33 292.67 Q 42.03 291.63 43.16 291.63 Q 44.3 291.63 45 292.67 Q 45.69 293.71 45.69 295.41 Q 45.69 297.14 45 298.18 Q 44.3 299.22 43.13 299.22 M 43.13 299.22 M 43.14 298.5 Q 44.67 298.5 44.67 295.39 Q 44.67 292.35 43.16 292.35 Q 41.66 292.35 41.66 295.42 Q 41.66 298.5 43.14 298.5 M 43.14 298.5 M 46.83 299.04 L 46.83 298.19 Q 47.25 297.21 48.53 296.06 L 49.08 295.56 Q 50.15 294.6 50.15 293.65 Q 50.15 293.05 49.78 292.7 Q 49.42 292.35 48.78 292.35 Q 48.03 292.35 47.01 292.94 L 47.01 292.09 Q 47.97 291.63 48.92 291.63 Q 49.94 291.63 50.55 292.18 Q 51.17 292.73 51.17 293.63 Q 51.17 294.28 50.86 294.78 Q 50.55 295.28 49.7 296 L 49.33 296.32 Q 48.17 297.3 47.99 298.19 L 51.13 298.19 L 51.13 299.04 M 46.83 299.04 M 53.22 299.07 L 53.22 298.21 Q 53.93 298.5 54.58 298.5 Q 55.3 298.5 55.7 298.08 Q 56.11 297.66 56.11 296.92 Q 56.11 295.29 53.87 295.29 Q 53.62 295.29 53.34 295.33 L 53.34 291.81 L 57 291.81 L 57 292.65 L 54.18 292.65 L 54.18 294.56 Q 55.57 294.56 56.36 295.2 Q 57.14 295.84 57.14 296.97 Q 57.14 298.02 56.43 298.62 Q 55.72 299.22 54.46 299.22 Q 53.91 299.22 53.22 299.07 M 53.22 299.07"/></g><line x1="62" y1="295.26" x2="64" y2="295.26" style="stroke-width: 1.0;stroke: rgb(128,128,128);stroke-opacity: 1.0;" transform="matrix(1,0,0,1,0,0)" clip-path="url(#93182043342211clip-0)"/><g style="fill: rgb(0,0,0); fill-opacity: 1.0; stroke: none" transform="matrix(1,0,0,1,0,0)" clip-path="url(#93182043342211clip-0)"><path d="M 34.13 266.48 Q 33.02 266.48 32.33 265.43 Q 31.63 264.38 31.63 262.68 Q 31.63 260.97 32.33 259.93 Q 33.03 258.89 34.16 258.89 Q 35.3 258.89 36 259.93 Q 36.69 260.97 36.69 262.67 Q 36.69 264.41 36 265.44 Q 35.3 266.48 34.13 266.48 M 34.13 266.48 M 34.14 265.76 Q 35.67 265.76 35.67 262.65 Q 35.67 259.61 34.16 259.61 Q 32.66 259.61 32.66 262.68 Q 32.66 265.76 34.14 265.76 M 34.14 265.76 M 37.98 266.3 L 37.98 265.09 L 39.18 265.09 L 39.18 266.3 M 37.98 266.3 M 43.13 266.48 Q 42.02 266.48 41.33 265.43 Q 40.63 264.38 40.63 262.68 Q 40.63 260.97 41.33 259.93 Q 42.03 258.89 43.16 258.89 Q 44.3 258.89 45 259.93 Q 45.69 260.97 45.69 262.67 Q 45.69 264.41 45 265.44 Q 44.3 266.48 43.13 266.48 M 43.13 266.48 M 43.14 265.76 Q 44.67 265.76 44.67 262.65 Q 44.67 259.61 43.16 259.61 Q 41.66 259.61 41.66 262.68 Q 41.66 265.76 43.14 265.76 M 43.14 265.76 M 47.22 266.33 L 47.22 265.47 Q 47.93 265.76 48.58 265.76 Q 49.3 265.76 49.7 265.34 Q 50.11 264.92 50.11 264.18 Q 50.11 262.55 47.87 262.55 Q 47.62 262.55 47.34 262.59 L 47.34 259.07 L 51 259.07 L 51 259.91 L 48.18 259.91 L 48.18 261.82 Q 49.57 261.82 50.36 262.46 Q 51.14 263.1 51.14 264.23 Q 51.14 265.28 50.43 265.88 Q 49.72 266.48 48.46 266.48 Q 47.91 266.48 47.22 266.33 M 47.22 266.33 M 55.13 266.48 Q 54.02 266.48 53.33 265.43 Q 52.63 264.38 52.63 262.68 Q 52.63 260.97 53.33 259.93 Q 54.03 258.89 55.16 258.89 Q 56.3 258.89 57 259.93 Q 57.69 260.97 57.69 262.67 Q 57.69 264.41 57 265.44 Q 56.3 266.48 55.13 266.48 M 55.13 266.48 M 55.14 265.76 Q 56.67 265.76 56.67 262.65 Q 56.67 259.61 55.16 259.61 Q 53.66 259.61 53.66 262.68 Q 53.66 265.76 55.14 265.76 M 55.14 265.76"/></g><line x1="62" y1="262.52" x2="64" y2="262.52" style="stroke-width: 1.0;stroke: rgb(128,128,128);stroke-opacity: 1.0;" transform="matrix(1,0,0,1,0,0)" clip-path="url(#93182043342211clip-0)"/><g style="fill: rgb(0,0,0); fill-opacity: 1.0; stroke: none" transform="matrix(1,0,0,1,0,0)" clip-path="url(#93182043342211clip-0)"><path d="M 34.13 233.74 Q 33.02 233.74 32.33 232.69 Q 31.63 231.64 31.63 229.94 Q 31.63 228.23 32.33 227.19 Q 33.03 226.15 34.16 226.15 Q 35.3 226.15 36 227.19 Q 36.69 228.23 36.69 229.93 Q 36.69 231.67 36 232.7 Q 35.3 233.74 34.13 233.74 M 34.13 233.74 M 34.14 233.02 Q 35.67 233.02 35.67 229.91 Q 35.67 226.88 34.16 226.88 Q 32.66 226.88 32.66 229.94 Q 32.66 233.02 34.14 233.02 M 34.14 233.02 M 37.98 233.56 L 37.98 232.35 L 39.18 232.35 L 39.18 233.56 M 37.98 233.56 M 43.13 233.74 Q 42.02 233.74 41.33 232.69 Q 40.63 231.64 40.63 229.94 Q 40.63 228.23 41.33 227.19 Q 42.03 226.15 43.16 226.15 Q 44.3 226.15 45 227.19 Q 45.69 228.23 45.69 229.93 Q 45.69 231.67 45 232.7 Q 44.3 233.74 43.13 233.74 M 43.13 233.74 M 43.14 233.02 Q 44.67 233.02 44.67 229.91 Q 44.67 226.88 43.16 226.88 Q 41.66 226.88 41.66 229.94 Q 41.66 233.02 43.14 233.02 M 43.14 233.02 M 47.5 233.56 Q 47.65 232.71 47.91 232.1 Q 48.17 231.48 48.83 230.41 L 50.8 227.24 L 47.08 227.24 L 47.08 226.33 L 51.72 226.33 L 51.72 227.24 Q 48.94 231.33 48.61 233.56 M 47.5 233.56 M 53.22 233.59 L 53.22 232.73 Q 53.93 233.02 54.58 233.02 Q 55.3 233.02 55.7 232.6 Q 56.11 232.18 56.11 231.44 Q 56.11 229.81 53.87 229.81 Q 53.62 229.81 53.34 229.85 L 53.34 226.33 L 57 226.33 L 57 227.17 L 54.18 227.17 L 54.18 229.08 Q 55.57 229.08 56.36 229.72 Q 57.14 230.36 57.14 231.49 Q 57.14 232.54 56.43 233.14 Q 55.72 233.74 54.46 233.74 Q 53.91 233.74 53.22 233.59 M 53.22 233.59"/></g><line x1="62" y1="229.78" x2="64" y2="229.78" style="stroke-width: 1.0;stroke: rgb(128,128,128);stroke-opacity: 1.0;" transform="matrix(1,0,0,1,0,0)" clip-path="url(#93182043342211clip-0)"/><g style="fill: rgb(0,0,0); fill-opacity: 1.0; stroke: none" transform="matrix(1,0,0,1,0,0)" clip-path="url(#93182043342211clip-0)"><path d="M 34.13 201 Q 33.02 201 32.33 199.95 Q 31.63 198.9 31.63 197.2 Q 31.63 195.49 32.33 194.45 Q 33.03 193.41 34.16 193.41 Q 35.3 193.41 36 194.45 Q 36.69 195.49 36.69 197.19 Q 36.69 198.93 36 199.96 Q 35.3 201 34.13 201 M 34.13 201 M 34.14 200.28 Q 35.67 200.28 35.67 197.17 Q 35.67 194.14 34.16 194.14 Q 32.66 194.14 32.66 197.2 Q 32.66 200.28 34.14 200.28 M 34.14 200.28 M 37.98 200.82 L 37.98 199.61 L 39.18 199.61 L 39.18 200.82 M 37.98 200.82 M 41.5 200.82 L 41.5 200.1 L 42.95 200.1 L 42.95 194.39 L 41.5 194.76 L 41.5 194.01 L 43.92 193.41 L 43.92 200.1 L 45.36 200.1 L 45.36 200.82 M 41.5 200.82 M 49.13 201 Q 48.02 201 47.33 199.95 Q 46.63 198.9 46.63 197.2 Q 46.63 195.49 47.33 194.45 Q 48.03 193.41 49.16 193.41 Q 50.3 193.41 51 194.45 Q 51.69 195.49 51.69 197.19 Q 51.69 198.93 51 199.96 Q 50.3 201 49.13 201 M 49.13 201 M 49.14 200.28 Q 50.67 200.28 50.67 197.17 Q 50.67 194.14 49.16 194.14 Q 47.66 194.14 47.66 197.2 Q 47.66 200.28 49.14 200.28 M 49.14 200.28 M 55.13 201 Q 54.02 201 53.33 199.95 Q 52.63 198.9 52.63 197.2 Q 52.63 195.49 53.33 194.45 Q 54.03 193.41 55.16 193.41 Q 56.3 193.41 57 194.45 Q 57.69 195.49 57.69 197.19 Q 57.69 198.93 57 199.96 Q 56.3 201 55.13 201 M 55.13 201 M 55.14 200.28 Q 56.67 200.28 56.67 197.17 Q 56.67 194.14 55.16 194.14 Q 53.66 194.14 53.66 197.2 Q 53.66 200.28 55.14 200.28 M 55.14 200.28"/></g><line x1="62" y1="197.04" x2="64" y2="197.04" style="stroke-width: 1.0;stroke: rgb(128,128,128);stroke-opacity: 1.0;" transform="matrix(1,0,0,1,0,0)" clip-path="url(#93182043342211clip-0)"/><g style="fill: rgb(0,0,0); fill-opacity: 1.0; stroke: none" transform="matrix(1,0,0,1,0,0)" clip-path="url(#93182043342211clip-0)"><path d="M 34.13 168.26 Q 33.02 168.26 32.33 167.21 Q 31.63 166.16 31.63 164.46 Q 31.63 162.75 32.33 161.71 Q 33.03 160.67 34.16 160.67 Q 35.3 160.67 36 161.71 Q 36.69 162.75 36.69 164.45 Q 36.69 166.19 36 167.22 Q 35.3 168.26 34.13 168.26 M 34.13 168.26 M 34.14 167.54 Q 35.67 167.54 35.67 164.43 Q 35.67 161.4 34.16 161.4 Q 32.66 161.4 32.66 164.46 Q 32.66 167.54 34.14 167.54 M 34.14 167.54 M 37.98 168.08 L 37.98 166.87 L 39.18 166.87 L 39.18 168.08 M 37.98 168.08 M 41.5 168.08 L 41.5 167.36 L 42.95 167.36 L 42.95 161.65 L 41.5 162.02 L 41.5 161.27 L 43.92 160.67 L 43.92 167.36 L 45.36 167.36 L 45.36 168.08 M 41.5 168.08 M 46.83 168.08 L 46.83 167.24 Q 47.25 166.25 48.53 165.1 L 49.08 164.6 Q 50.15 163.64 50.15 162.69 Q 50.15 162.09 49.78 161.74 Q 49.42 161.4 48.78 161.4 Q 48.03 161.4 47.01 161.98 L 47.01 161.13 Q 47.97 160.67 48.92 160.67 Q 49.94 160.67 50.55 161.22 Q 51.17 161.77 51.17 162.67 Q 51.17 163.32 50.86 163.82 Q 50.55 164.33 49.7 165.04 L 49.33 165.36 Q 48.17 166.34 47.99 167.24 L 51.13 167.24 L 51.13 168.08 M 46.83 168.08 M 53.22 168.11 L 53.22 167.25 Q 53.93 167.54 54.58 167.54 Q 55.3 167.54 55.7 167.12 Q 56.11 166.7 56.11 165.96 Q 56.11 164.33 53.87 164.33 Q 53.62 164.33 53.34 164.37 L 53.34 160.85 L 57 160.85 L 57 161.69 L 54.18 161.69 L 54.18 163.6 Q 55.57 163.6 56.36 164.24 Q 57.14 164.88 57.14 166.01 Q 57.14 167.06 56.43 167.66 Q 55.72 168.26 54.46 168.26 Q 53.91 168.26 53.22 168.11 M 53.22 168.11"/></g><line x1="62" y1="164.3" x2="64" y2="164.3" style="stroke-width: 1.0;stroke: rgb(128,128,128);stroke-opacity: 1.0;" transform="matrix(1,0,0,1,0,0)" clip-path="url(#93182043342211clip-0)"/><g style="fill: rgb(0,0,0); fill-opacity: 1.0; stroke: none" transform="matrix(1,0,0,1,0,0)" clip-path="url(#93182043342211clip-0)"><path d="M 34.13 135.52 Q 33.02 135.52 32.33 134.47 Q 31.63 133.42 31.63 131.72 Q 31.63 130.01 32.33 128.97 Q 33.03 127.93 34.16 127.93 Q 35.3 127.93 36 128.97 Q 36.69 130.01 36.69 131.71 Q 36.69 133.45 36 134.48 Q 35.3 135.52 34.13 135.52 M 34.13 135.52 M 34.14 134.8 Q 35.67 134.8 35.67 131.69 Q 35.67 128.66 34.16 128.66 Q 32.66 128.66 32.66 131.72 Q 32.66 134.8 34.14 134.8 M 34.14 134.8 M 37.98 135.34 L 37.98 134.13 L 39.18 134.13 L 39.18 135.34 M 37.98 135.34 M 41.5 135.34 L 41.5 134.62 L 42.95 134.62 L 42.95 128.91 L 41.5 129.28 L 41.5 128.53 L 43.92 127.93 L 43.92 134.62 L 45.36 134.62 L 45.36 135.34 M 41.5 135.34 M 47.22 135.37 L 47.22 134.51 Q 47.93 134.8 48.58 134.8 Q 49.3 134.8 49.7 134.38 Q 50.11 133.96 50.11 133.22 Q 50.11 131.59 47.87 131.59 Q 47.62 131.59 47.34 131.63 L 47.34 128.11 L 51 128.11 L 51 128.95 L 48.18 128.95 L 48.18 130.86 Q 49.57 130.86 50.36 131.5 Q 51.14 132.14 51.14 133.27 Q 51.14 134.32 50.43 134.92 Q 49.72 135.52 48.46 135.52 Q 47.91 135.52 47.22 135.37 M 47.22 135.37 M 55.13 135.52 Q 54.02 135.52 53.33 134.47 Q 52.63 133.42 52.63 131.72 Q 52.63 130.01 53.33 128.97 Q 54.03 127.93 55.16 127.93 Q 56.3 127.93 57 128.97 Q 57.69 130.01 57.69 131.71 Q 57.69 133.45 57 134.48 Q 56.3 135.52 55.13 135.52 M 55.13 135.52 M 55.14 134.8 Q 56.67 134.8 56.67 131.69 Q 56.67 128.66 55.16 128.66 Q 53.66 128.66 53.66 131.72 Q 53.66 134.8 55.14 134.8 M 55.14 134.8"/></g><line x1="62" y1="131.56" x2="64" y2="131.56" style="stroke-width: 1.0;stroke: rgb(128,128,128);stroke-opacity: 1.0;" transform="matrix(1,0,0,1,0,0)" clip-path="url(#93182043342211clip-0)"/><g style="fill: rgb(0,0,0); fill-opacity: 1.0; stroke: none" transform="matrix(1,0,0,1,0,0)" clip-path="url(#93182043342211clip-0)"><path d="M 34.13 102.78 Q 33.02 102.78 32.33 101.73 Q 31.63 100.68 31.63 98.98 Q 31.63 97.27 32.33 96.23 Q 33.03 95.19 34.16 95.19 Q 35.3 95.19 36 96.23 Q 36.69 97.27 36.69 98.97 Q 36.69 100.71 36 101.74 Q 35.3 102.78 34.13 102.78 M 34.13 102.78 M 34.14 102.06 Q 35.67 102.06 35.67 98.95 Q 35.67 95.92 34.16 95.92 Q 32.66 95.92 32.66 98.98 Q 32.66 102.06 34.14 102.06 M 34.14 102.06 M 37.98 102.6 L 37.98 101.39 L 39.18 101.39 L 39.18 102.6 M 37.98 102.6 M 41.5 102.6 L 41.5 101.88 L 42.95 101.88 L 42.95 96.17 L 41.5 96.54 L 41.5 95.79 L 43.92 95.19 L 43.92 101.88 L 45.36 101.88 L 45.36 102.6 M 41.5 102.6 M 47.5 102.6 Q 47.65 101.76 47.91 101.14 Q 48.17 100.52 48.83 99.45 L 50.8 96.28 L 47.08 96.28 L 47.08 95.37 L 51.72 95.37 L 51.72 96.28 Q 48.94 100.37 48.61 102.6 M 47.5 102.6 M 53.22 102.63 L 53.22 101.77 Q 53.93 102.06 54.58 102.06 Q 55.3 102.06 55.7 101.64 Q 56.11 101.22 56.11 100.48 Q 56.11 98.86 53.87 98.86 Q 53.62 98.86 53.34 98.89 L 53.34 95.37 L 57 95.37 L 57 96.21 L 54.18 96.21 L 54.18 98.12 Q 55.57 98.12 56.36 98.76 Q 57.14 99.4 57.14 100.53 Q 57.14 101.58 56.43 102.18 Q 55.72 102.78 54.46 102.78 Q 53.91 102.78 53.22 102.63 M 53.22 102.63"/></g><line x1="62" y1="98.82" x2="64" y2="98.82" style="stroke-width: 1.0;stroke: rgb(128,128,128);stroke-opacity: 1.0;" transform="matrix(1,0,0,1,0,0)" clip-path="url(#93182043342211clip-0)"/><g style="fill: rgb(0,0,0); fill-opacity: 1.0; stroke: none" transform="matrix(1,0,0,1,0,0)" clip-path="url(#93182043342211clip-0)"><path d="M 34.13 70.04 Q 33.02 70.04 32.33 68.99 Q 31.63 67.94 31.63 66.24 Q 31.63 64.53 32.33 63.49 Q 33.03 62.45 34.16 62.45 Q 35.3 62.45 36 63.49 Q 36.69 64.53 36.69 66.23 Q 36.69 67.97 36 69 Q 35.3 70.04 34.13 70.04 M 34.13 70.04 M 34.14 69.32 Q 35.67 69.32 35.67 66.21 Q 35.67 63.18 34.16 63.18 Q 32.66 63.18 32.66 66.24 Q 32.66 69.32 34.14 69.32 M 34.14 69.32 M 37.98 69.86 L 37.98 68.65 L 39.18 68.65 L 39.18 69.86 M 37.98 69.86 M 40.83 69.86 L 40.83 69.02 Q 41.25 68.03 42.53 66.88 L 43.08 66.38 Q 44.15 65.42 44.15 64.47 Q 44.15 63.87 43.78 63.52 Q 43.42 63.18 42.78 63.18 Q 42.03 63.18 41.01 63.76 L 41.01 62.91 Q 41.97 62.45 42.92 62.45 Q 43.94 62.45 44.55 63 Q 45.17 63.55 45.17 64.45 Q 45.17 65.1 44.86 65.6 Q 44.55 66.11 43.7 66.82 L 43.33 67.14 Q 42.17 68.12 41.99 69.02 L 45.13 69.02 L 45.13 69.86 M 40.83 69.86 M 49.13 70.04 Q 48.02 70.04 47.33 68.99 Q 46.63 67.94 46.63 66.24 Q 46.63 64.53 47.33 63.49 Q 48.03 62.45 49.16 62.45 Q 50.3 62.45 51 63.49 Q 51.69 64.53 51.69 66.23 Q 51.69 67.97 51 69 Q 50.3 70.04 49.13 70.04 M 49.13 70.04 M 49.14 69.32 Q 50.67 69.32 50.67 66.21 Q 50.67 63.18 49.16 63.18 Q 47.66 63.18 47.66 66.24 Q 47.66 69.32 49.14 69.32 M 49.14 69.32 M 55.13 70.04 Q 54.02 70.04 53.33 68.99 Q 52.63 67.94 52.63 66.24 Q 52.63 64.53 53.33 63.49 Q 54.03 62.45 55.16 62.45 Q 56.3 62.45 57 63.49 Q 57.69 64.53 57.69 66.23 Q 57.69 67.97 57 69 Q 56.3 70.04 55.13 70.04 M 55.13 70.04 M 55.14 69.32 Q 56.67 69.32 56.67 66.21 Q 56.67 63.18 55.16 63.18 Q 53.66 63.18 53.66 66.24 Q 53.66 69.32 55.14 69.32 M 55.14 69.32"/></g><line x1="62" y1="66.08" x2="64" y2="66.08" style="stroke-width: 1.0;stroke: rgb(128,128,128);stroke-opacity: 1.0;" transform="matrix(1,0,0,1,0,0)" clip-path="url(#93182043342211clip-0)"/><g style="fill: rgb(0,0,0); fill-opacity: 1.0; stroke: none" transform="matrix(1,0,0,1,0,0)" clip-path="url(#93182043342211clip-0)"><path d="M 34.13 37.3 Q 33.02 37.3 32.33 36.25 Q 31.63 35.2 31.63 33.5 Q 31.63 31.79 32.33 30.75 Q 33.03 29.71 34.16 29.71 Q 35.3 29.71 36 30.75 Q 36.69 31.79 36.69 33.49 Q 36.69 35.23 36 36.26 Q 35.3 37.3 34.13 37.3 M 34.13 37.3 M 34.14 36.58 Q 35.67 36.58 35.67 33.47 Q 35.67 30.44 34.16 30.44 Q 32.66 30.44 32.66 33.5 Q 32.66 36.58 34.14 36.58 M 34.14 36.58 M 37.98 37.12 L 37.98 35.91 L 39.18 35.91 L 39.18 37.12 M 37.98 37.12 M 40.83 37.12 L 40.83 36.28 Q 41.25 35.29 42.53 34.14 L 43.08 33.64 Q 44.15 32.68 44.15 31.73 Q 44.15 31.13 43.78 30.78 Q 43.42 30.44 42.78 30.44 Q 42.03 30.44 41.01 31.02 L 41.01 30.17 Q 41.97 29.71 42.92 29.71 Q 43.94 29.71 44.55 30.26 Q 45.17 30.81 45.17 31.71 Q 45.17 32.36 44.86 32.86 Q 44.55 33.37 43.7 34.08 L 43.33 34.4 Q 42.17 35.38 41.99 36.28 L 45.13 36.28 L 45.13 37.12 M 40.83 37.12 M 46.83 37.12 L 46.83 36.28 Q 47.25 35.29 48.53 34.14 L 49.08 33.64 Q 50.15 32.68 50.15 31.73 Q 50.15 31.13 49.78 30.78 Q 49.42 30.44 48.78 30.44 Q 48.03 30.44 47.01 31.02 L 47.01 30.17 Q 47.97 29.71 48.92 29.71 Q 49.94 29.71 50.55 30.26 Q 51.17 30.81 51.17 31.71 Q 51.17 32.36 50.86 32.86 Q 50.55 33.37 49.7 34.08 L 49.33 34.4 Q 48.17 35.38 47.99 36.28 L 51.13 36.28 L 51.13 37.12 M 46.83 37.12 M 53.22 37.15 L 53.22 36.29 Q 53.93 36.58 54.58 36.58 Q 55.3 36.58 55.7 36.16 Q 56.11 35.74 56.11 35 Q 56.11 33.38 53.87 33.38 Q 53.62 33.38 53.34 33.41 L 53.34 29.89 L 57 29.89 L 57 30.73 L 54.18 30.73 L 54.18 32.64 Q 55.57 32.64 56.36 33.28 Q 57.14 33.92 57.14 35.05 Q 57.14 36.1 56.43 36.7 Q 55.72 37.3 54.46 37.3 Q 53.91 37.3 53.22 37.15 M 53.22 37.15"/></g><line x1="62" y1="33.34" x2="64" y2="33.34" style="stroke-width: 1.0;stroke: rgb(128,128,128);stroke-opacity: 1.0;" transform="matrix(1,0,0,1,0,0)" clip-path="url(#93182043342211clip-0)"/><g style="fill: rgb(0,0,0); fill-opacity: 1.0; stroke: none" transform="matrix(0,-1,1,0,-156.566406,194.433594)" clip-path="url(#93182043342211clip-1)"><path d="M 6.42 180.04 L 3.14 171.36 L 4.38 171.36 L 7.06 178.46 L 9.65 171.36 L 10.73 171.36 L 7.58 180.04 M 6.42 180.04 M 15.37 179.23 Q 14.33 180.18 13.37 180.18 Q 12.58 180.18 12.06 179.69 Q 11.54 179.19 11.54 178.44 Q 11.54 177.39 12.41 176.83 Q 13.29 176.27 14.92 176.27 L 15.2 176.27 L 15.2 175.51 Q 15.2 174.4 14.06 174.4 Q 13.15 174.4 12.09 174.96 L 12.09 174.01 Q 13.25 173.53 14.27 173.53 Q 15.34 173.53 15.85 174.01 Q 16.35 174.49 16.35 175.51 L 16.35 178.39 Q 16.35 179.38 16.96 179.38 Q 17.04 179.38 17.19 179.36 L 17.27 179.99 Q 16.88 180.18 16.4 180.18 Q 15.59 180.18 15.37 179.23 M 15.37 179.23 M 15.2 178.6 L 15.2 176.95 L 14.81 176.94 Q 13.86 176.94 13.28 177.3 Q 12.69 177.66 12.69 178.25 Q 12.69 178.66 12.98 178.95 Q 13.28 179.24 13.7 179.24 Q 14.42 179.24 15.2 178.6 M 15.2 178.6 M 19.09 180.04 L 19.09 170.78 L 20.24 170.78 L 20.24 180.04 M 19.09 180.04 M 27.07 180.04 L 27.07 178.84 Q 26.15 180.18 24.83 180.18 Q 24 180.18 23.51 179.66 Q 23.02 179.13 23.02 178.24 L 23.02 173.67 L 24.17 173.67 L 24.17 177.87 Q 24.17 178.58 24.38 178.88 Q 24.59 179.19 25.07 179.19 Q 26.13 179.19 27.07 177.8 L 27.07 173.67 L 28.22 173.67 L 28.22 180.04 M 27.07 180.04 M 35.75 179.83 Q 34.59 180.18 33.77 180.18 Q 32.36 180.18 31.47 179.25 Q 30.58 178.31 30.58 176.82 Q 30.58 175.38 31.37 174.45 Q 32.15 173.53 33.37 173.53 Q 34.52 173.53 35.15 174.35 Q 35.78 175.17 35.78 176.68 L 35.78 177.04 L 31.76 177.04 Q 32.01 179.3 33.98 179.3 Q 34.7 179.3 35.75 178.92 M 35.75 179.83 M 31.81 176.17 L 34.62 176.17 Q 34.62 174.39 33.3 174.39 Q 31.97 174.39 31.81 176.17 M 31.81 176.17"/></g><line x1="64" y1="328" x2="592" y2="328" style="stroke-width: 0.5;stroke: rgb(192,192,192);stroke-opacity: 1.0;stroke-dasharray: 2.0, 2.0;" transform="matrix(1,0,0,1,0,0)" clip-path="url(#93182043342211clip-2)"/><line x1="64" y1="295.26" x2="592" y2="295.26" style="stroke-width: 0.5;stroke: rgb(192,192,192);stroke-opacity: 1.0;stroke-dasharray: 2.0, 2.0;" transform="matrix(1,0,0,1,0,0)" clip-path="url(#93182043342211clip-2)"/><line x1="64" y1="262.52" x2="592" y2="262.52" style="stroke-width: 0.5;stroke: rgb(192,192,192);stroke-opacity: 1.0;stroke-dasharray: 2.0, 2.0;" transform="matrix(1,0,0,1,0,0)" clip-path="url(#93182043342211clip-2)"/><line x1="64" y1="229.78" x2="592" y2="229.78" style="stroke-width: 0.5;stroke: rgb(192,192,192);stroke-opacity: 1.0;stroke-dasharray: 2.0, 2.0;" transform="matrix(1,0,0,1,0,0)" clip-path="url(#93182043342211clip-2)"/><line x1="64" y1="197.04" x2="592" y2="197.04" style="stroke-width: 0.5;stroke: rgb(192,192,192);stroke-opacity: 1.0;stroke-dasharray: 2.0, 2.0;" transform="matrix(1,0,0,1,0,0)" clip-path="url(#93182043342211clip-2)"/><line x1="64" y1="164.3" x2="592" y2="164.3" style="stroke-width: 0.5;stroke: rgb(192,192,192);stroke-opacity: 1.0;stroke-dasharray: 2.0, 2.0;" transform="matrix(1,0,0,1,0,0)" clip-path="url(#93182043342211clip-2)"/><line x1="64" y1="131.56" x2="592" y2="131.56" style="stroke-width: 0.5;stroke: rgb(192,192,192);stroke-opacity: 1.0;stroke-dasharray: 2.0, 2.0;" transform="matrix(1,0,0,1,0,0)" clip-path="url(#93182043342211clip-2)"/><line x1="64" y1="98.82" x2="592" y2="98.82" style="stroke-width: 0.5;stroke: rgb(192,192,192);stroke-opacity: 1.0;stroke-dasharray: 2.0, 2.0;" transform="matrix(1,0,0,1,0,0)" clip-path="url(#93182043342211clip-2)"/><line x1="64" y1="66.08" x2="592" y2="66.08" style="stroke-width: 0.5;stroke: rgb(192,192,192);stroke-opacity: 1.0;stroke-dasharray: 2.0, 2.0;" transform="matrix(1,0,0,1,0,0)" clip-path="url(#93182043342211clip-2)"/><line x1="64" y1="33.34" x2="592" y2="33.34" style="stroke-width: 0.5;stroke: rgb(192,192,192);stroke-opacity: 1.0;stroke-dasharray: 2.0, 2.0;" transform="matrix(1,0,0,1,0,0)" clip-path="url(#93182043342211clip-2)"/><line x1="99.64" y1="38.32" x2="99.64" y2="38.32" style="stroke-width: 1.0;stroke: rgb(0,0,0);stroke-opacity: 1.0;" transform="matrix(1,0,0,1,0,0)" clip-path="url(#93182043342211clip-2)"/><line x1="90.4" y1="38.32" x2="108.88" y2="38.32" style="stroke-width: 1.0;stroke: rgb(0,0,0);stroke-opacity: 1.0;" transform="matrix(1,0,0,1,0,0)" clip-path="url(#93182043342211clip-2)"/><line x1="99.64" y1="38.32" x2="99.64" y2="38.32" style="stroke-width: 1.0;stroke: rgb(0,0,0);stroke-opacity: 1.0;" transform="matrix(1,0,0,1,0,0)" clip-path="url(#93182043342211clip-2)"/><line x1="90.4" y1="38.32" x2="108.88" y2="38.32" style="stroke-width: 1.0;stroke: rgb(0,0,0);stroke-opacity: 1.0;" transform="matrix(1,0,0,1,0,0)" clip-path="url(#93182043342211clip-2)"/><rect x="90.4" y="38.32" width="18.48" height="0" style="stroke-width: 1.0;stroke: rgb(0,0,0);stroke-opacity: 1.0;; fill: none" transform="matrix(1,0,0,1,0,0)" clip-path="url(#93182043342211clip-2)"/><line x1="90.4" y1="38.32" x2="108.88" y2="38.32" style="stroke-width: 1.0;stroke: rgb(0,0,0);stroke-opacity: 1.0;" transform="matrix(1,0,0,1,0,0)" clip-path="url(#93182043342211clip-2)"/><rect x="114.44" y="38.32" width="18.48" height="0" style="fill: rgb(192,192,192); fill-opacity: 1.0" transform="matrix(1,0,0,1,0,0)" clip-path="url(#93182043342211clip-2)"/><line x1="123.68" y1="38.32" x2="123.68" y2="38.32" style="stroke-width: 1.0;stroke: rgb(0,0,0);stroke-opacity: 1.0;" transform="matrix(1,0,0,1,0,0)" clip-path="url(#93182043342211clip-2)"/><line x1="114.44" y1="38.32" x2="132.92" y2="38.32" style="stroke-width: 1.0;stroke: rgb(0,0,0);stroke-opacity: 1.0;" transform="matrix(1,0,0,1,0,0)" clip-path="url(#93182043342211clip-2)"/><line x1="123.68" y1="38.32" x2="123.68" y2="38.32" style="stroke-width: 1.0;stroke: rgb(0,0,0);stroke-opacity: 1.0;" transform="matrix(1,0,0,1,0,0)" clip-path="url(#93182043342211clip-2)"/><line x1="114.44" y1="38.32" x2="132.92" y2="38.32" style="stroke-width: 1.0;stroke: rgb(0,0,0);stroke-opacity: 1.0;" transform="matrix(1,0,0,1,0,0)" clip-path="url(#93182043342211clip-2)"/><rect x="114.44" y="38.32" width="18.48" height="0" style="stroke-width: 1.0;stroke: rgb(0,0,0);stroke-opacity: 1.0;; fill: none" transform="matrix(1,0,0,1,0,0)" clip-path="url(#93182043342211clip-2)"/><line x1="114.44" y1="38.32" x2="132.92" y2="38.32" style="stroke-width: 1.0;stroke: rgb(0,0,0);stroke-opacity: 1.0;" transform="matrix(1,0,0,1,0,0)" clip-path="url(#93182043342211clip-2)"/><rect x="138.48" y="38.17" width="18.48" height="0.14" style="fill: rgb(192,192,192); fill-opacity: 1.0" transform="matrix(1,0,0,1,0,0)" clip-path="url(#93182043342211clip-2)"/><line x1="147.72" y1="38.17" x2="147.72" y2="38.17" style="stroke-width: 1.0;stroke: rgb(0,0,0);stroke-opacity: 1.0;" transform="matrix(1,0,0,1,0,0)" clip-path="url(#93182043342211clip-2)"/><line x1="138.48" y1="38.17" x2="156.96" y2="38.17" style="stroke-width: 1.0;stroke: rgb(0,0,0);stroke-opacity: 1.0;" transform="matrix(1,0,0,1,0,0)" clip-path="url(#93182043342211clip-2)"/><line x1="147.72" y1="38.32" x2="147.72" y2="38.32" style="stroke-width: 1.0;stroke: rgb(0,0,0);stroke-opacity: 1.0;" transform="matrix(1,0,0,1,0,0)" clip-path="url(#93182043342211clip-2)"/><line x1="138.48" y1="38.32" x2="156.96" y2="38.32" style="stroke-width: 1.0;stroke: rgb(0,0,0);stroke-opacity: 1.0;" transform="matrix(1,0,0,1,0,0)" clip-path="url(#93182043342211clip-2)"/><rect x="138.48" y="38.17" width="18.48" height="0.14" style="stroke-width: 1.0;stroke: rgb(0,0,0);stroke-opacity: 1.0;; fill: none" transform="matrix(1,0,0,1,0,0)" clip-path="url(#93182043342211clip-2)"/><line x1="138.48" y1="38.32" x2="156.96" y2="38.32" style="stroke-width: 1.0;stroke: rgb(0,0,0);stroke-opacity: 1.0;" transform="matrix(1,0,0,1,0,0)" clip-path="url(#93182043342211clip-2)"/><line x1="147.72" y1="328" x2="147.72" y2="328" style="stroke-width: 1.0;stroke: rgb(192,192,192);stroke-opacity: 1.0;" transform="matrix(1,0,0,1,0,0)" clip-path="url(#93182043342211clip-2)"/><line x1="147.72" y1="328" x2="147.72" y2="328" style="stroke-width: 1.0;stroke: rgb(192,192,192);stroke-opacity: 1.0;" transform="matrix(1,0,0,1,0,0)" clip-path="url(#93182043342211clip-2)"/><line x1="147.72" y1="328" x2="147.72" y2="328" style="stroke-width: 1.0;stroke: rgb(192,192,192);stroke-opacity: 1.0;" transform="matrix(1,0,0,1,0,0)" clip-path="url(#93182043342211clip-2)"/><rect x="162.51" y="38.23" width="18.48" height="0.13" style="fill: rgb(192,192,192); fill-opacity: 1.0" transform="matrix(1,0,0,1,0,0)" clip-path="url(#93182043342211clip-2)"/><line x1="171.75" y1="38.17" x2="171.75" y2="38.23" style="stroke-width: 1.0;stroke: rgb(0,0,0);stroke-opacity: 1.0;" transform="matrix(1,0,0,1,0,0)" clip-path="url(#93182043342211clip-2)"/><line x1="162.51" y1="38.17" x2="180.99" y2="38.17" style="stroke-width: 1.0;stroke: rgb(0,0,0);stroke-opacity: 1.0;" transform="matrix(1,0,0,1,0,0)" clip-path="url(#93182043342211clip-2)"/><line x1="171.75" y1="38.41" x2="171.75" y2="38.36" style="stroke-width: 1.0;stroke: rgb(0,0,0);stroke-opacity: 1.0;" transform="matrix(1,0,0,1,0,0)" clip-path="url(#93182043342211clip-2)"/><line x1="162.51" y1="38.41" x2="180.99" y2="38.41" style="stroke-width: 1.0;stroke: rgb(0,0,0);stroke-opacity: 1.0;" transform="matrix(1,0,0,1,0,0)" clip-path="url(#93182043342211clip-2)"/><rect x="162.51" y="38.23" width="18.48" height="0.13" style="stroke-width: 1.0;stroke: rgb(0,0,0);stroke-opacity: 1.0;; fill: none" transform="matrix(1,0,0,1,0,0)" clip-path="url(#93182043342211clip-2)"/><line x1="162.51" y1="38.32" x2="180.99" y2="38.32" style="stroke-width: 1.0;stroke: rgb(0,0,0);stroke-opacity: 1.0;" transform="matrix(1,0,0,1,0,0)" clip-path="url(#93182043342211clip-2)"/><line x1="171.75" y1="328" x2="171.75" y2="328" style="stroke-width: 1.0;stroke: rgb(192,192,192);stroke-opacity: 1.0;" transform="matrix(1,0,0,1,0,0)" clip-path="url(#93182043342211clip-2)"/><line x1="171.75" y1="328" x2="171.75" y2="328" style="stroke-width: 1.0;stroke: rgb(192,192,192);stroke-opacity: 1.0;" transform="matrix(1,0,0,1,0,0)" clip-path="url(#93182043342211clip-2)"/><line x1="171.75" y1="328" x2="171.75" y2="328" style="stroke-width: 1.0;stroke: rgb(192,192,192);stroke-opacity: 1.0;" transform="matrix(1,0,0,1,0,0)" clip-path="url(#93182043342211clip-2)"/><rect x="186.55" y="38.2" width="18.48" height="0.18" style="fill: rgb(192,192,192); fill-opacity: 1.0" transform="matrix(1,0,0,1,0,0)" clip-path="url(#93182043342211clip-2)"/><line x1="195.79" y1="38.03" x2="195.79" y2="38.2" style="stroke-width: 1.0;stroke: rgb(0,0,0);stroke-opacity: 1.0;" transform="matrix(1,0,0,1,0,0)" clip-path="url(#93182043342211clip-2)"/><line x1="186.55" y1="38.03" x2="205.03" y2="38.03" style="stroke-width: 1.0;stroke: rgb(0,0,0);stroke-opacity: 1.0;" transform="matrix(1,0,0,1,0,0)" clip-path="url(#93182043342211clip-2)"/><line x1="195.79" y1="38.61" x2="195.79" y2="38.38" style="stroke-width: 1.0;stroke: rgb(0,0,0);stroke-opacity: 1.0;" transform="matrix(1,0,0,1,0,0)" clip-path="url(#93182043342211clip-2)"/><line x1="186.55" y1="38.61" x2="205.03" y2="38.61" style="stroke-width: 1.0;stroke: rgb(0,0,0);stroke-opacity: 1.0;" transform="matrix(1,0,0,1,0,0)" clip-path="url(#93182043342211clip-2)"/><rect x="186.55" y="38.2" width="18.48" height="0.18" style="stroke-width: 1.0;stroke: rgb(0,0,0);stroke-opacity: 1.0;; fill: none" transform="matrix(1,0,0,1,0,0)" clip-path="url(#93182043342211clip-2)"/><line x1="186.55" y1="38.32" x2="205.03" y2="38.32" style="stroke-width: 1.0;stroke: rgb(0,0,0);stroke-opacity: 1.0;" transform="matrix(1,0,0,1,0,0)" clip-path="url(#93182043342211clip-2)"/><g style="stroke-width: 1.0;stroke: rgb(192,192,192);stroke-opacity: 1.0;; fill: none" transform="matrix(1,0,0,1,0,0)" clip-path="url(#93182043342211clip-2)"><path d="M 198.87 35.65 C 198.87 37.35 197.49 38.73 195.79 38.73 C 194.09 38.73 192.71 37.35 192.71 35.65 C 192.71 33.95 194.09 32.57 195.79 32.57 C 197.49 32.57 198.87 33.95 198.87 35.65 M 198.87 35.65"/></g><rect x="210.59" y="38.17" width="18.48" height="0.23" style="fill: rgb(192,192,192); fill-opacity: 1.0" transform="matrix(1,0,0,1,0,0)" clip-path="url(#93182043342211clip-2)"/><line x1="219.83" y1="38.03" x2="219.83" y2="38.17" style="stroke-width: 1.0;stroke: rgb(0,0,0);stroke-opacity: 1.0;" transform="matrix(1,0,0,1,0,0)" clip-path="url(#93182043342211clip-2)"/><line x1="210.59" y1="38.03" x2="229.07" y2="38.03" style="stroke-width: 1.0;stroke: rgb(0,0,0);stroke-opacity: 1.0;" transform="matrix(1,0,0,1,0,0)" clip-path="url(#93182043342211clip-2)"/><line x1="219.83" y1="38.73" x2="219.83" y2="38.41" style="stroke-width: 1.0;stroke: rgb(0,0,0);stroke-opacity: 1.0;" transform="matrix(1,0,0,1,0,0)" clip-path="url(#93182043342211clip-2)"/><line x1="210.59" y1="38.73" x2="229.07" y2="38.73" style="stroke-width: 1.0;stroke: rgb(0,0,0);stroke-opacity: 1.0;" transform="matrix(1,0,0,1,0,0)" clip-path="url(#93182043342211clip-2)"/><rect x="210.59" y="38.17" width="18.48" height="0.23" style="stroke-width: 1.0;stroke: rgb(0,0,0);stroke-opacity: 1.0;; fill: none" transform="matrix(1,0,0,1,0,0)" clip-path="url(#93182043342211clip-2)"/><line x1="210.59" y1="38.3" x2="229.07" y2="38.3" style="stroke-width: 1.0;stroke: rgb(0,0,0);stroke-opacity: 1.0;" transform="matrix(1,0,0,1,0,0)" clip-path="url(#93182043342211clip-2)"/><rect x="234.63" y="38.18" width="18.48" height="0.27" style="fill: rgb(192,192,192); fill-opacity: 1.0" transform="matrix(1,0,0,1,0,0)" clip-path="url(#93182043342211clip-2)"/><line x1="243.87" y1="37.99" x2="243.87" y2="38.18" style="stroke-width: 1.0;stroke: rgb(0,0,0);stroke-opacity: 1.0;" transform="matrix(1,0,0,1,0,0)" clip-path="url(#93182043342211clip-2)"/><line x1="234.63" y1="37.99" x2="253.11" y2="37.99" style="stroke-width: 1.0;stroke: rgb(0,0,0);stroke-opacity: 1.0;" transform="matrix(1,0,0,1,0,0)" clip-path="url(#93182043342211clip-2)"/><line x1="243.87" y1="38.73" x2="243.87" y2="38.45" style="stroke-width: 1.0;stroke: rgb(0,0,0);stroke-opacity: 1.0;" transform="matrix(1,0,0,1,0,0)" clip-path="url(#93182043342211clip-2)"/><line x1="234.63" y1="38.73" x2="253.11" y2="38.73" style="stroke-width: 1.0;stroke: rgb(0,0,0);stroke-opacity: 1.0;" transform="matrix(1,0,0,1,0,0)" clip-path="url(#93182043342211clip-2)"/><rect x="234.63" y="38.18" width="18.48" height="0.27" style="stroke-width: 1.0;stroke: rgb(0,0,0);stroke-opacity: 1.0;; fill: none" transform="matrix(1,0,0,1,0,0)" clip-path="url(#93182043342211clip-2)"/><line x1="234.63" y1="38.3" x2="253.11" y2="38.3" style="stroke-width: 1.0;stroke: rgb(0,0,0);stroke-opacity: 1.0;" transform="matrix(1,0,0,1,0,0)" clip-path="url(#93182043342211clip-2)"/><rect x="258.67" y="38.18" width="18.48" height="0.31" style="fill: rgb(192,192,192); fill-opacity: 1.0" transform="matrix(1,0,0,1,0,0)" clip-path="url(#93182043342211clip-2)"/><line x1="267.91" y1="37.99" x2="267.91" y2="38.18" style="stroke-width: 1.0;stroke: rgb(0,0,0);stroke-opacity: 1.0;" transform="matrix(1,0,0,1,0,0)" clip-path="url(#93182043342211clip-2)"/><line x1="258.67" y1="37.99" x2="277.15" y2="37.99" style="stroke-width: 1.0;stroke: rgb(0,0,0);stroke-opacity: 1.0;" transform="matrix(1,0,0,1,0,0)" clip-path="url(#93182043342211clip-2)"/><line x1="267.91" y1="38.76" x2="267.91" y2="38.49" style="stroke-width: 1.0;stroke: rgb(0,0,0);stroke-opacity: 1.0;" transform="matrix(1,0,0,1,0,0)" clip-path="url(#93182043342211clip-2)"/><line x1="258.67" y1="38.76" x2="277.15" y2="38.76" style="stroke-width: 1.0;stroke: rgb(0,0,0);stroke-opacity: 1.0;" transform="matrix(1,0,0,1,0,0)" clip-path="url(#93182043342211clip-2)"/><rect x="258.67" y="38.18" width="18.48" height="0.31" style="stroke-width: 1.0;stroke: rgb(0,0,0);stroke-opacity: 1.0;; fill: none" transform="matrix(1,0,0,1,0,0)" clip-path="url(#93182043342211clip-2)"/><line x1="258.67" y1="38.29" x2="277.15" y2="38.29" style="stroke-width: 1.0;stroke: rgb(0,0,0);stroke-opacity: 1.0;" transform="matrix(1,0,0,1,0,0)" clip-path="url(#93182043342211clip-2)"/><rect x="282.7" y="38.17" width="18.48" height="0.32" style="fill: rgb(192,192,192); fill-opacity: 1.0" transform="matrix(1,0,0,1,0,0)" clip-path="url(#93182043342211clip-2)"/><line x1="291.94" y1="37.99" x2="291.94" y2="38.17" style="stroke-width: 1.0;stroke: rgb(0,0,0);stroke-opacity: 1.0;" transform="matrix(1,0,0,1,0,0)" clip-path="url(#93182043342211clip-2)"/><line x1="282.7" y1="37.99" x2="301.18" y2="37.99" style="stroke-width: 1.0;stroke: rgb(0,0,0);stroke-opacity: 1.0;" transform="matrix(1,0,0,1,0,0)" clip-path="url(#93182043342211clip-2)"/><line x1="291.94" y1="38.91" x2="291.94" y2="38.49" style="stroke-width: 1.0;stroke: rgb(0,0,0);stroke-opacity: 1.0;" transform="matrix(1,0,0,1,0,0)" clip-path="url(#93182043342211clip-2)"/><line x1="282.7" y1="38.91" x2="301.18" y2="38.91" style="stroke-width: 1.0;stroke: rgb(0,0,0);stroke-opacity: 1.0;" transform="matrix(1,0,0,1,0,0)" clip-path="url(#93182043342211clip-2)"/><rect x="282.7" y="38.17" width="18.48" height="0.32" style="stroke-width: 1.0;stroke: rgb(0,0,0);stroke-opacity: 1.0;; fill: none" transform="matrix(1,0,0,1,0,0)" clip-path="url(#93182043342211clip-2)"/><line x1="282.7" y1="38.28" x2="301.18" y2="38.28" style="stroke-width: 1.0;stroke: rgb(0,0,0);stroke-opacity: 1.0;" transform="matrix(1,0,0,1,0,0)" clip-path="url(#93182043342211clip-2)"/><g style="stroke-width: 1.0;stroke: rgb(192,192,192);stroke-opacity: 1.0;; fill: none" transform="matrix(1,0,0,1,0,0)" clip-path="url(#93182043342211clip-2)"><path d="M 295.02 34.58 C 295.02 36.28 293.64 37.66 291.94 37.66 C 290.24 37.66 288.86 36.28 288.86 34.58 C 288.86 32.88 290.24 31.5 291.94 31.5 C 293.64 31.5 295.02 32.88 295.02 34.58 M 295.02 34.58"/></g><rect x="306.74" y="38.16" width="18.48" height="0.34" style="fill: rgb(192,192,192); fill-opacity: 1.0" transform="matrix(1,0,0,1,0,0)" clip-path="url(#93182043342211clip-2)"/><line x1="315.98" y1="37.66" x2="315.98" y2="38.16" style="stroke-width: 1.0;stroke: rgb(0,0,0);stroke-opacity: 1.0;" transform="matrix(1,0,0,1,0,0)" clip-path="url(#93182043342211clip-2)"/><line x1="306.74" y1="37.66" x2="325.22" y2="37.66" style="stroke-width: 1.0;stroke: rgb(0,0,0);stroke-opacity: 1.0;" transform="matrix(1,0,0,1,0,0)" clip-path="url(#93182043342211clip-2)"/><line x1="315.98" y1="38.93" x2="315.98" y2="38.49" style="stroke-width: 1.0;stroke: rgb(0,0,0);stroke-opacity: 1.0;" transform="matrix(1,0,0,1,0,0)" clip-path="url(#93182043342211clip-2)"/><line x1="306.74" y1="38.93" x2="325.22" y2="38.93" style="stroke-width: 1.0;stroke: rgb(0,0,0);stroke-opacity: 1.0;" transform="matrix(1,0,0,1,0,0)" clip-path="url(#93182043342211clip-2)"/><rect x="306.74" y="38.16" width="18.48" height="0.34" style="stroke-width: 1.0;stroke: rgb(0,0,0);stroke-opacity: 1.0;; fill: none" transform="matrix(1,0,0,1,0,0)" clip-path="url(#93182043342211clip-2)"/><line x1="306.74" y1="38.28" x2="325.22" y2="38.28" style="stroke-width: 1.0;stroke: rgb(0,0,0);stroke-opacity: 1.0;" transform="matrix(1,0,0,1,0,0)" clip-path="url(#93182043342211clip-2)"/><rect x="330.78" y="38.16" width="18.48" height="0.34" style="fill: rgb(192,192,192); fill-opacity: 1.0" transform="matrix(1,0,0,1,0,0)" clip-path="url(#93182043342211clip-2)"/><line x1="340.02" y1="37.66" x2="340.02" y2="38.16" style="stroke-width: 1.0;stroke: rgb(0,0,0);stroke-opacity: 1.0;" transform="matrix(1,0,0,1,0,0)" clip-path="url(#93182043342211clip-2)"/><line x1="330.78" y1="37.66" x2="349.26" y2="37.66" style="stroke-width: 1.0;stroke: rgb(0,0,0);stroke-opacity: 1.0;" transform="matrix(1,0,0,1,0,0)" clip-path="url(#93182043342211clip-2)"/><line x1="340.02" y1="38.93" x2="340.02" y2="38.5" style="stroke-width: 1.0;stroke: rgb(0,0,0);stroke-opacity: 1.0;" transform="matrix(1,0,0,1,0,0)" clip-path="url(#93182043342211clip-2)"/><line x1="330.78" y1="38.93" x2="349.26" y2="38.93" style="stroke-width: 1.0;stroke: rgb(0,0,0);stroke-opacity: 1.0;" transform="matrix(1,0,0,1,0,0)" clip-path="url(#93182043342211clip-2)"/><rect x="330.78" y="38.16" width="18.48" height="0.34" style="stroke-width: 1.0;stroke: rgb(0,0,0);stroke-opacity: 1.0;; fill: none" transform="matrix(1,0,0,1,0,0)" clip-path="url(#93182043342211clip-2)"/><line x1="330.78" y1="38.3" x2="349.26" y2="38.3" style="stroke-width: 1.0;stroke: rgb(0,0,0);stroke-opacity: 1.0;" transform="matrix(1,0,0,1,0,0)" clip-path="url(#93182043342211clip-2)"/><rect x="354.82" y="38.12" width="18.48" height="0.37" style="fill: rgb(192,192,192); fill-opacity: 1.0" transform="matrix(1,0,0,1,0,0)" clip-path="url(#93182043342211clip-2)"/><line x1="364.06" y1="37.66" x2="364.06" y2="38.12" style="stroke-width: 1.0;stroke: rgb(0,0,0);stroke-opacity: 1.0;" transform="matrix(1,0,0,1,0,0)" clip-path="url(#93182043342211clip-2)"/><line x1="354.82" y1="37.66" x2="373.3" y2="37.66" style="stroke-width: 1.0;stroke: rgb(0,0,0);stroke-opacity: 1.0;" transform="matrix(1,0,0,1,0,0)" clip-path="url(#93182043342211clip-2)"/><line x1="364.06" y1="38.97" x2="364.06" y2="38.5" style="stroke-width: 1.0;stroke: rgb(0,0,0);stroke-opacity: 1.0;" transform="matrix(1,0,0,1,0,0)" clip-path="url(#93182043342211clip-2)"/><line x1="354.82" y1="38.97" x2="373.3" y2="38.97" style="stroke-width: 1.0;stroke: rgb(0,0,0);stroke-opacity: 1.0;" transform="matrix(1,0,0,1,0,0)" clip-path="url(#93182043342211clip-2)"/><rect x="354.82" y="38.12" width="18.48" height="0.37" style="stroke-width: 1.0;stroke: rgb(0,0,0);stroke-opacity: 1.0;; fill: none" transform="matrix(1,0,0,1,0,0)" clip-path="url(#93182043342211clip-2)"/><line x1="354.82" y1="38.3" x2="373.3" y2="38.3" style="stroke-width: 1.0;stroke: rgb(0,0,0);stroke-opacity: 1.0;" transform="matrix(1,0,0,1,0,0)" clip-path="url(#93182043342211clip-2)"/><rect x="378.85" y="38.12" width="18.48" height="0.37" style="fill: rgb(192,192,192); fill-opacity: 1.0" transform="matrix(1,0,0,1,0,0)" clip-path="url(#93182043342211clip-2)"/><line x1="388.09" y1="37.66" x2="388.09" y2="38.12" style="stroke-width: 1.0;stroke: rgb(0,0,0);stroke-opacity: 1.0;" transform="matrix(1,0,0,1,0,0)" clip-path="url(#93182043342211clip-2)"/><line x1="378.85" y1="37.66" x2="397.33" y2="37.66" style="stroke-width: 1.0;stroke: rgb(0,0,0);stroke-opacity: 1.0;" transform="matrix(1,0,0,1,0,0)" clip-path="url(#93182043342211clip-2)"/><line x1="388.09" y1="38.97" x2="388.09" y2="38.49" style="stroke-width: 1.0;stroke: rgb(0,0,0);stroke-opacity: 1.0;" transform="matrix(1,0,0,1,0,0)" clip-path="url(#93182043342211clip-2)"/><line x1="378.85" y1="38.97" x2="397.33" y2="38.97" style="stroke-width: 1.0;stroke: rgb(0,0,0);stroke-opacity: 1.0;" transform="matrix(1,0,0,1,0,0)" clip-path="url(#93182043342211clip-2)"/><rect x="378.85" y="38.12" width="18.48" height="0.37" style="stroke-width: 1.0;stroke: rgb(0,0,0);stroke-opacity: 1.0;; fill: none" transform="matrix(1,0,0,1,0,0)" clip-path="url(#93182043342211clip-2)"/><line x1="378.85" y1="38.3" x2="397.33" y2="38.3" style="stroke-width: 1.0;stroke: rgb(0,0,0);stroke-opacity: 1.0;" transform="matrix(1,0,0,1,0,0)" clip-path="url(#93182043342211clip-2)"/><rect x="402.89" y="38.12" width="18.48" height="0.38" style="fill: rgb(192,192,192); fill-opacity: 1.0" transform="matrix(1,0,0,1,0,0)" clip-path="url(#93182043342211clip-2)"/><line x1="412.13" y1="37.66" x2="412.13" y2="38.12" style="stroke-width: 1.0;stroke: rgb(0,0,0);stroke-opacity: 1.0;" transform="matrix(1,0,0,1,0,0)" clip-path="url(#93182043342211clip-2)"/><line x1="402.89" y1="37.66" x2="421.37" y2="37.66" style="stroke-width: 1.0;stroke: rgb(0,0,0);stroke-opacity: 1.0;" transform="matrix(1,0,0,1,0,0)" clip-path="url(#93182043342211clip-2)"/><line x1="412.13" y1="38.97" x2="412.13" y2="38.5" style="stroke-width: 1.0;stroke: rgb(0,0,0);stroke-opacity: 1.0;" transform="matrix(1,0,0,1,0,0)" clip-path="url(#93182043342211clip-2)"/><line x1="402.89" y1="38.97" x2="421.37" y2="38.97" style="stroke-width: 1.0;stroke: rgb(0,0,0);stroke-opacity: 1.0;" transform="matrix(1,0,0,1,0,0)" clip-path="url(#93182043342211clip-2)"/><rect x="402.89" y="38.12" width="18.48" height="0.38" style="stroke-width: 1.0;stroke: rgb(0,0,0);stroke-opacity: 1.0;; fill: none" transform="matrix(1,0,0,1,0,0)" clip-path="url(#93182043342211clip-2)"/><line x1="402.89" y1="38.3" x2="421.37" y2="38.3" style="stroke-width: 1.0;stroke: rgb(0,0,0);stroke-opacity: 1.0;" transform="matrix(1,0,0,1,0,0)" clip-path="url(#93182043342211clip-2)"/><rect x="426.93" y="38.12" width="18.48" height="0.4" style="fill: rgb(192,192,192); fill-opacity: 1.0" transform="matrix(1,0,0,1,0,0)" clip-path="url(#93182043342211clip-2)"/><line x1="436.17" y1="37.66" x2="436.17" y2="38.12" style="stroke-width: 1.0;stroke: rgb(0,0,0);stroke-opacity: 1.0;" transform="matrix(1,0,0,1,0,0)" clip-path="url(#93182043342211clip-2)"/><line x1="426.93" y1="37.66" x2="445.41" y2="37.66" style="stroke-width: 1.0;stroke: rgb(0,0,0);stroke-opacity: 1.0;" transform="matrix(1,0,0,1,0,0)" clip-path="url(#93182043342211clip-2)"/><line x1="436.17" y1="38.97" x2="436.17" y2="38.51" style="stroke-width: 1.0;stroke: rgb(0,0,0);stroke-opacity: 1.0;" transform="matrix(1,0,0,1,0,0)" clip-path="url(#93182043342211clip-2)"/><line x1="426.93" y1="38.97" x2="445.41" y2="38.97" style="stroke-width: 1.0;stroke: rgb(0,0,0);stroke-opacity: 1.0;" transform="matrix(1,0,0,1,0,0)" clip-path="url(#93182043342211clip-2)"/><rect x="426.93" y="38.12" width="18.48" height="0.4" style="stroke-width: 1.0;stroke: rgb(0,0,0);stroke-opacity: 1.0;; fill: none" transform="matrix(1,0,0,1,0,0)" clip-path="url(#93182043342211clip-2)"/><line x1="426.93" y1="38.3" x2="445.41" y2="38.3" style="stroke-width: 1.0;stroke: rgb(0,0,0);stroke-opacity: 1.0;" transform="matrix(1,0,0,1,0,0)" clip-path="url(#93182043342211clip-2)"/><g style="stroke-width: 1.0;stroke: rgb(192,192,192);stroke-opacity: 1.0;; fill: none" transform="matrix(1,0,0,1,0,0)" clip-path="url(#93182043342211clip-2)"><path d="M 439.25 36.09 C 439.25 37.79 437.87 39.17 436.17 39.17 C 434.47 39.17 433.09 37.79 433.09 36.09 C 433.09 34.38 434.47 33.01 436.17 33.01 C 437.87 33.01 439.25 34.38 439.25 36.09 M 439.25 36.09"/></g><rect x="450.97" y="38.11" width="18.48" height="0.4" style="fill: rgb(192,192,192); fill-opacity: 1.0" transform="matrix(1,0,0,1,0,0)" clip-path="url(#93182043342211clip-2)"/><line x1="460.21" y1="37.66" x2="460.21" y2="38.11" style="stroke-width: 1.0;stroke: rgb(0,0,0);stroke-opacity: 1.0;" transform="matrix(1,0,0,1,0,0)" clip-path="url(#93182043342211clip-2)"/><line x1="450.97" y1="37.66" x2="469.45" y2="37.66" style="stroke-width: 1.0;stroke: rgb(0,0,0);stroke-opacity: 1.0;" transform="matrix(1,0,0,1,0,0)" clip-path="url(#93182043342211clip-2)"/><line x1="460.21" y1="38.97" x2="460.21" y2="38.5" style="stroke-width: 1.0;stroke: rgb(0,0,0);stroke-opacity: 1.0;" transform="matrix(1,0,0,1,0,0)" clip-path="url(#93182043342211clip-2)"/><line x1="450.97" y1="38.97" x2="469.45" y2="38.97" style="stroke-width: 1.0;stroke: rgb(0,0,0);stroke-opacity: 1.0;" transform="matrix(1,0,0,1,0,0)" clip-path="url(#93182043342211clip-2)"/><rect x="450.97" y="38.11" width="18.48" height="0.4" style="stroke-width: 1.0;stroke: rgb(0,0,0);stroke-opacity: 1.0;; fill: none" transform="matrix(1,0,0,1,0,0)" clip-path="url(#93182043342211clip-2)"/><line x1="450.97" y1="38.3" x2="469.45" y2="38.3" style="stroke-width: 1.0;stroke: rgb(0,0,0);stroke-opacity: 1.0;" transform="matrix(1,0,0,1,0,0)" clip-path="url(#93182043342211clip-2)"/><g style="stroke-width: 1.0;stroke: rgb(192,192,192);stroke-opacity: 1.0;; fill: none" transform="matrix(1,0,0,1,0,0)" clip-path="url(#93182043342211clip-2)"><path d="M 463.29 36.09 C 463.29 37.79 461.91 39.17 460.21 39.17 C 458.51 39.17 457.13 37.79 457.13 36.09 C 457.13 34.38 458.51 33.01 460.21 33.01 C 461.91 33.01 463.29 34.38 463.29 36.09 M 463.29 36.09"/></g><line x1="460.21" y1="328" x2="460.21" y2="328" style="stroke-width: 1.0;stroke: rgb(192,192,192);stroke-opacity: 1.0;" transform="matrix(1,0,0,1,0,0)" clip-path="url(#93182043342211clip-2)"/><line x1="460.21" y1="328" x2="460.21" y2="328" style="stroke-width: 1.0;stroke: rgb(192,192,192);stroke-opacity: 1.0;" transform="matrix(1,0,0,1,0,0)" clip-path="url(#93182043342211clip-2)"/><line x1="460.21" y1="328" x2="460.21" y2="328" style="stroke-width: 1.0;stroke: rgb(192,192,192);stroke-opacity: 1.0;" transform="matrix(1,0,0,1,0,0)" clip-path="url(#93182043342211clip-2)"/><rect x="475.01" y="38.11" width="18.48" height="0.37" style="fill: rgb(192,192,192); fill-opacity: 1.0" transform="matrix(1,0,0,1,0,0)" clip-path="url(#93182043342211clip-2)"/><line x1="484.25" y1="37.66" x2="484.25" y2="38.11" style="stroke-width: 1.0;stroke: rgb(0,0,0);stroke-opacity: 1.0;" transform="matrix(1,0,0,1,0,0)" clip-path="url(#93182043342211clip-2)"/><line x1="475.01" y1="37.66" x2="493.49" y2="37.66" style="stroke-width: 1.0;stroke: rgb(0,0,0);stroke-opacity: 1.0;" transform="matrix(1,0,0,1,0,0)" clip-path="url(#93182043342211clip-2)"/><line x1="484.25" y1="38.97" x2="484.25" y2="38.49" style="stroke-width: 1.0;stroke: rgb(0,0,0);stroke-opacity: 1.0;" transform="matrix(1,0,0,1,0,0)" clip-path="url(#93182043342211clip-2)"/><line x1="475.01" y1="38.97" x2="493.49" y2="38.97" style="stroke-width: 1.0;stroke: rgb(0,0,0);stroke-opacity: 1.0;" transform="matrix(1,0,0,1,0,0)" clip-path="url(#93182043342211clip-2)"/><rect x="475.01" y="38.11" width="18.48" height="0.37" style="stroke-width: 1.0;stroke: rgb(0,0,0);stroke-opacity: 1.0;; fill: none" transform="matrix(1,0,0,1,0,0)" clip-path="url(#93182043342211clip-2)"/><line x1="475.01" y1="38.3" x2="493.49" y2="38.3" style="stroke-width: 1.0;stroke: rgb(0,0,0);stroke-opacity: 1.0;" transform="matrix(1,0,0,1,0,0)" clip-path="url(#93182043342211clip-2)"/><g style="stroke-width: 1.0;stroke: rgb(192,192,192);stroke-opacity: 1.0;; fill: none" transform="matrix(1,0,0,1,0,0)" clip-path="url(#93182043342211clip-2)"><path d="M 487.33 36.09 C 487.33 37.79 485.95 39.17 484.25 39.17 C 482.55 39.17 481.17 37.79 481.17 36.09 C 481.17 34.38 482.55 33.01 484.25 33.01 C 485.95 33.01 487.33 34.38 487.33 36.09 M 487.33 36.09"/></g><line x1="484.25" y1="328" x2="484.25" y2="328" style="stroke-width: 1.0;stroke: rgb(192,192,192);stroke-opacity: 1.0;" transform="matrix(1,0,0,1,0,0)" clip-path="url(#93182043342211clip-2)"/><line x1="484.25" y1="328" x2="484.25" y2="328" style="stroke-width: 1.0;stroke: rgb(192,192,192);stroke-opacity: 1.0;" transform="matrix(1,0,0,1,0,0)" clip-path="url(#93182043342211clip-2)"/><line x1="484.25" y1="328" x2="484.25" y2="328" style="stroke-width: 1.0;stroke: rgb(192,192,192);stroke-opacity: 1.0;" transform="matrix(1,0,0,1,0,0)" clip-path="url(#93182043342211clip-2)"/><rect x="499.04" y="38.11" width="18.48" height="0.38" style="fill: rgb(192,192,192); fill-opacity: 1.0" transform="matrix(1,0,0,1,0,0)" clip-path="url(#93182043342211clip-2)"/><line x1="508.28" y1="37.61" x2="508.28" y2="38.11" style="stroke-width: 1.0;stroke: rgb(0,0,0);stroke-opacity: 1.0;" transform="matrix(1,0,0,1,0,0)" clip-path="url(#93182043342211clip-2)"/><line x1="499.04" y1="37.61" x2="517.52" y2="37.61" style="stroke-width: 1.0;stroke: rgb(0,0,0);stroke-opacity: 1.0;" transform="matrix(1,0,0,1,0,0)" clip-path="url(#93182043342211clip-2)"/><line x1="508.28" y1="38.97" x2="508.28" y2="38.5" style="stroke-width: 1.0;stroke: rgb(0,0,0);stroke-opacity: 1.0;" transform="matrix(1,0,0,1,0,0)" clip-path="url(#93182043342211clip-2)"/><line x1="499.04" y1="38.97" x2="517.52" y2="38.97" style="stroke-width: 1.0;stroke: rgb(0,0,0);stroke-opacity: 1.0;" transform="matrix(1,0,0,1,0,0)" clip-path="url(#93182043342211clip-2)"/><rect x="499.04" y="38.11" width="18.48" height="0.38" style="stroke-width: 1.0;stroke: rgb(0,0,0);stroke-opacity: 1.0;; fill: none" transform="matrix(1,0,0,1,0,0)" clip-path="url(#93182043342211clip-2)"/><line x1="499.04" y1="38.3" x2="517.52" y2="38.3" style="stroke-width: 1.0;stroke: rgb(0,0,0);stroke-opacity: 1.0;" transform="matrix(1,0,0,1,0,0)" clip-path="url(#93182043342211clip-2)"/><g style="stroke-width: 1.0;stroke: rgb(192,192,192);stroke-opacity: 1.0;; fill: none" transform="matrix(1,0,0,1,0,0)" clip-path="url(#93182043342211clip-2)"><path d="M 505.2 36.11 C 505.2 37.82 503.83 39.19 502.12 39.19 C 500.42 39.19 499.04 37.82 499.04 36.11 C 499.04 34.41 500.42 33.03 502.12 33.03 C 503.83 33.03 505.2 34.41 505.2 36.11 M 505.2 36.11"/></g><g style="stroke-width: 1.0;stroke: rgb(192,192,192);stroke-opacity: 1.0;; fill: none" transform="matrix(1,0,0,1,0,0)" clip-path="url(#93182043342211clip-2)"><path d="M 517.52 36.11 C 517.52 37.82 516.15 39.19 514.44 39.19 C 512.74 39.19 511.36 37.82 511.36 36.11 C 511.36 34.41 512.74 33.03 514.44 33.03 C 516.15 33.03 517.52 34.41 517.52 36.11 M 517.52 36.11"/></g><line x1="508.28" y1="328" x2="508.28" y2="328" style="stroke-width: 1.0;stroke: rgb(192,192,192);stroke-opacity: 1.0;" transform="matrix(1,0,0,1,0,0)" clip-path="url(#93182043342211clip-2)"/><line x1="508.28" y1="328" x2="508.28" y2="328" style="stroke-width: 1.0;stroke: rgb(192,192,192);stroke-opacity: 1.0;" transform="matrix(1,0,0,1,0,0)" clip-path="url(#93182043342211clip-2)"/><line x1="508.28" y1="328" x2="508.28" y2="328" style="stroke-width: 1.0;stroke: rgb(192,192,192);stroke-opacity: 1.0;" transform="matrix(1,0,0,1,0,0)" clip-path="url(#93182043342211clip-2)"/><rect x="523.08" y="38.1" width="18.48" height="0.4" style="fill: rgb(192,192,192); fill-opacity: 1.0" transform="matrix(1,0,0,1,0,0)" clip-path="url(#93182043342211clip-2)"/><line x1="532.32" y1="37.52" x2="532.32" y2="38.1" style="stroke-width: 1.0;stroke: rgb(0,0,0);stroke-opacity: 1.0;" transform="matrix(1,0,0,1,0,0)" clip-path="url(#93182043342211clip-2)"/><line x1="523.08" y1="37.52" x2="541.56" y2="37.52" style="stroke-width: 1.0;stroke: rgb(0,0,0);stroke-opacity: 1.0;" transform="matrix(1,0,0,1,0,0)" clip-path="url(#93182043342211clip-2)"/><line x1="532.32" y1="39.05" x2="532.32" y2="38.5" style="stroke-width: 1.0;stroke: rgb(0,0,0);stroke-opacity: 1.0;" transform="matrix(1,0,0,1,0,0)" clip-path="url(#93182043342211clip-2)"/><line x1="523.08" y1="39.05" x2="541.56" y2="39.05" style="stroke-width: 1.0;stroke: rgb(0,0,0);stroke-opacity: 1.0;" transform="matrix(1,0,0,1,0,0)" clip-path="url(#93182043342211clip-2)"/><rect x="523.08" y="38.1" width="18.48" height="0.4" style="stroke-width: 1.0;stroke: rgb(0,0,0);stroke-opacity: 1.0;; fill: none" transform="matrix(1,0,0,1,0,0)" clip-path="url(#93182043342211clip-2)"/><line x1="523.08" y1="38.3" x2="541.56" y2="38.3" style="stroke-width: 1.0;stroke: rgb(0,0,0);stroke-opacity: 1.0;" transform="matrix(1,0,0,1,0,0)" clip-path="url(#93182043342211clip-2)"/><g style="stroke-width: 1.0;stroke: rgb(192,192,192);stroke-opacity: 1.0;; fill: none" transform="matrix(1,0,0,1,0,0)" clip-path="url(#93182043342211clip-2)"><path d="M 529.24 36.11 C 529.24 37.82 527.86 39.19 526.16 39.19 C 524.46 39.19 523.08 37.82 523.08 36.11 C 523.08 34.41 524.46 33.03 526.16 33.03 C 527.86 33.03 529.24 34.41 529.24 36.11 M 529.24 36.11"/></g><g style="stroke-width: 1.0;stroke: rgb(192,192,192);stroke-opacity: 1.0;; fill: none" transform="matrix(1,0,0,1,0,0)" clip-path="url(#93182043342211clip-2)"><path d="M 541.56 36.11 C 541.56 37.82 540.18 39.19 538.48 39.19 C 536.78 39.19 535.4 37.82 535.4 36.11 C 535.4 34.41 536.78 33.03 538.48 33.03 C 540.18 33.03 541.56 34.41 541.56 36.11 M 541.56 36.11"/></g><line x1="532.32" y1="328" x2="532.32" y2="328" style="stroke-width: 1.0;stroke: rgb(192,192,192);stroke-opacity: 1.0;" transform="matrix(1,0,0,1,0,0)" clip-path="url(#93182043342211clip-2)"/><line x1="532.32" y1="328" x2="532.32" y2="328" style="stroke-width: 1.0;stroke: rgb(192,192,192);stroke-opacity: 1.0;" transform="matrix(1,0,0,1,0,0)" clip-path="url(#93182043342211clip-2)"/><line x1="532.32" y1="328" x2="532.32" y2="328" style="stroke-width: 1.0;stroke: rgb(192,192,192);stroke-opacity: 1.0;" transform="matrix(1,0,0,1,0,0)" clip-path="url(#93182043342211clip-2)"/><rect x="547.12" y="38.09" width="18.48" height="0.41" style="fill: rgb(192,192,192); fill-opacity: 1.0" transform="matrix(1,0,0,1,0,0)" clip-path="url(#93182043342211clip-2)"/><line x1="556.36" y1="37.52" x2="556.36" y2="38.09" style="stroke-width: 1.0;stroke: rgb(0,0,0);stroke-opacity: 1.0;" transform="matrix(1,0,0,1,0,0)" clip-path="url(#93182043342211clip-2)"/><line x1="547.12" y1="37.52" x2="565.6" y2="37.52" style="stroke-width: 1.0;stroke: rgb(0,0,0);stroke-opacity: 1.0;" transform="matrix(1,0,0,1,0,0)" clip-path="url(#93182043342211clip-2)"/><line x1="556.36" y1="39.05" x2="556.36" y2="38.5" style="stroke-width: 1.0;stroke: rgb(0,0,0);stroke-opacity: 1.0;" transform="matrix(1,0,0,1,0,0)" clip-path="url(#93182043342211clip-2)"/><line x1="547.12" y1="39.05" x2="565.6" y2="39.05" style="stroke-width: 1.0;stroke: rgb(0,0,0);stroke-opacity: 1.0;" transform="matrix(1,0,0,1,0,0)" clip-path="url(#93182043342211clip-2)"/><rect x="547.12" y="38.09" width="18.48" height="0.41" style="stroke-width: 1.0;stroke: rgb(0,0,0);stroke-opacity: 1.0;; fill: none" transform="matrix(1,0,0,1,0,0)" clip-path="url(#93182043342211clip-2)"/><line x1="547.12" y1="38.3" x2="565.6" y2="38.3" style="stroke-width: 1.0;stroke: rgb(0,0,0);stroke-opacity: 1.0;" transform="matrix(1,0,0,1,0,0)" clip-path="url(#93182043342211clip-2)"/><g style="stroke-width: 1.0;stroke: rgb(192,192,192);stroke-opacity: 1.0;; fill: none" transform="matrix(1,0,0,1,0,0)" clip-path="url(#93182043342211clip-2)"><path d="M 553.28 36.11 C 553.28 37.82 551.9 39.19 550.2 39.19 C 548.5 39.19 547.12 37.82 547.12 36.11 C 547.12 34.41 548.5 33.03 550.2 33.03 C 551.9 33.03 553.28 34.41 553.28 36.11 M 553.28 36.11"/></g><g style="stroke-width: 1.0;stroke: rgb(192,192,192);stroke-opacity: 1.0;; fill: none" transform="matrix(1,0,0,1,0,0)" clip-path="url(#93182043342211clip-2)"><path d="M 565.6 36.11 C 565.6 37.82 564.22 39.19 562.52 39.19 C 560.82 39.19 559.44 37.82 559.44 36.11 C 559.44 34.41 560.82 33.03 562.52 33.03 C 564.22 33.03 565.6 34.41 565.6 36.11 M 565.6 36.11"/></g><line x1="556.36" y1="328" x2="556.36" y2="328" style="stroke-width: 1.0;stroke: rgb(192,192,192);stroke-opacity: 1.0;" transform="matrix(1,0,0,1,0,0)" clip-path="url(#93182043342211clip-2)"/><line x1="556.36" y1="328" x2="556.36" y2="328" style="stroke-width: 1.0;stroke: rgb(192,192,192);stroke-opacity: 1.0;" transform="matrix(1,0,0,1,0,0)" clip-path="url(#93182043342211clip-2)"/><line x1="556.36" y1="328" x2="556.36" y2="328" style="stroke-width: 1.0;stroke: rgb(192,192,192);stroke-opacity: 1.0;" transform="matrix(1,0,0,1,0,0)" clip-path="url(#93182043342211clip-2)"/><rect x="64" y="23" width="528" height="305" style="stroke-width: 0.5;stroke: rgb(128,128,128);stroke-opacity: 1.0;; fill: none" transform="matrix(1,0,0,1,0,0)" clip-path="url(#93182043342211clip-0)"/></svg>
