<!DOCTYPE svg PUBLIC "-//W3C//DTD SVG 1.1//EN" "http://www.w3.org/Graphics/SVG/1.1/DTD/svg11.dtd">
<svg xmlns="http://www.w3.org/2000/svg" xmlns:xlink="http://www.w3.org/1999/xlink" xmlns:jfreesvg="http://www.jfree.org/jfreesvg/svg" width="600" height="400" text-rendering="auto" shape-rendering="auto">
<defs><clipPath id="93182013592798clip-0"><path d="M 0 0 L 600 0 L 600 400 L 0 400 L 0 0 M 0 0"/></clipPath>
<clipPath id="93182013592798clip-1"><path d="M 194.43 156.57 L 194.43 756.57 L -205.57 756.57 L -205.57 156.57 L 194.43 156.57 M 194.43 156.57"/></clipPath>
<clipPath id="93182013592798clip-2"><path d="M 64 23 L 64 328 L 592 328 L 592 23 M 64 23"/></clipPath>
</defs>
<rect x="0" y="0" width="600" height="400" style="fill: rgb(238,238,238); fill-opacity: 1.0" transform="matrix(1,0,0,1,0,0)" clip-path="url(#93182013592798clip-0)"/><g style="fill: rgb(0,0,0); fill-opacity: 1.0; stroke: none" transform="matrix(1,0,0,1,0,0)" clip-path="url(#93182013592798clip-0)"><path d="M 276.77 14.54 L 276.77 5.81 L 273.15 5.81 L 273.15 4.42 L 282.51 4.42 L 282.51 5.81 L 278.89 5.81 L 278.89 14.54 M 276.77 14.54 M 297.41 14.13 Q 295.94 14.79 293.9 14.79 Q 291.41 14.79 290.02 13.39 Q 288.64 11.99 288.64 9.48 Q 288.64 6.92 290.03 5.54 Q 291.43 4.17 294.02 4.17 Q 295.68 4.17 297.31 4.55 L 297.31 6.2 Q 295.46 5.55 294.21 5.55 Q 292.61 5.55 291.74 6.57 Q 290.87 7.58 290.87 9.45 Q 290.87 11.28 291.8 12.31 Q 292.74 13.33 294.4 13.33 Q 295.89 13.33 297.41 12.58 M 297.41 14.13 M 299.26 14.54 L 299.26 3.74 L 301.29 3.74 L 301.29 8.44 Q 302.28 6.86 303.84 6.86 Q 304.85 6.86 305.43 7.49 Q 306.01 8.13 306.01 9.23 L 306.01 14.54 L 303.99 14.54 L 303.99 9.73 Q 303.99 8.45 303.14 8.45 Q 302.18 8.45 301.29 9.81 L 301.29 14.54 M 299.26 14.54 M 311.94 13.73 Q 310.93 14.71 309.78 14.71 Q 308.79 14.71 308.18 14.1 Q 307.56 13.5 307.56 12.55 Q 307.56 11.3 308.56 10.63 Q 309.55 9.96 311.4 9.96 L 311.94 9.96 L 311.94 9.27 Q 311.94 8.1 310.61 8.1 Q 309.43 8.1 308.22 8.77 L 308.22 7.38 Q 309.59 6.86 310.94 6.86 Q 313.88 6.86 313.88 9.2 L 313.88 12.53 Q 313.88 13.41 314.45 13.41 Q 314.55 13.41 314.72 13.38 L 314.77 14.51 Q 314.12 14.71 313.63 14.71 Q 312.39 14.71 312.03 13.73 M 311.94 13.73 M 311.94 12.64 L 311.94 11.12 L 311.46 11.12 Q 309.5 11.12 309.5 12.35 Q 309.5 12.76 309.79 13.05 Q 310.07 13.33 310.49 13.33 Q 311.2 13.33 311.94 12.64 M 311.94 12.64 M 316.26 14.54 L 316.26 7.03 L 318.29 7.03 L 318.29 8.44 Q 319.07 6.86 320.68 6.86 Q 320.87 6.86 321.06 6.9 L 321.06 8.7 Q 320.63 8.55 320.26 8.55 Q 319.05 8.55 318.29 9.77 L 318.29 14.54 M 316.26 14.54 M 326.13 14.49 Q 325.41 14.71 324.99 14.71 Q 322.36 14.71 322.36 12.25 L 322.36 8.29 L 321.52 8.29 L 321.52 7.03 L 322.36 7.03 L 322.36 5.76 L 324.38 5.53 L 324.38 7.03 L 325.99 7.03 L 325.99 8.29 L 324.38 8.29 L 324.38 11.98 Q 324.38 13.36 325.51 13.36 Q 325.77 13.36 326.13 13.26 M 326.13 14.49"/></g><rect x="262" y="373.33" width="76" height="25.67" style="fill: rgb(255,255,255); fill-opacity: 1.0" transform="matrix(1,0,0,1,0,0)" clip-path="url(#93182013592798clip-0)"/><line x1="262.5" y1="373.83" x2="337.5" y2="373.83" style="stroke-width: 1.0;stroke: rgb(0,0,0);stroke-opacity: 1.0;" transform="matrix(1,0,0,1,0,0)" clip-path="url(#93182013592798clip-0)"/><line x1="262.5" y1="398.5" x2="337.5" y2="398.5" style="stroke-width: 1.0;stroke: rgb(0,0,0);stroke-opacity: 1.0;" transform="matrix(1,0,0,1,0,0)" clip-path="url(#93182013592798clip-0)"/><line x1="262.5" y1="398.5" x2="262.5" y2="373.83" style="stroke-width: 1.0;stroke: rgb(0,0,0);stroke-opacity: 1.0;" transform="matrix(1,0,0,1,0,0)" clip-path="url(#93182013592798clip-0)"/><line x1="337.5" y1="398.5" x2="337.5" y2="373.83" style="stroke-width: 1.0;stroke: rgb(0,0,0);stroke-opacity: 1.0;" transform="matrix(1,0,0,1,0,0)" clip-path="url(#93182013592798clip-0)"/><g style="fill: rgb(192,192,192); fill-opacity: 1.0; stroke: none" transform="matrix(1,0,0,1,0,0)" clip-path="url(#93182013592798clip-0)"><path d="M 266 382.17 L 274 382.17 L 274 390.17 L 266 390.17 L 266 382.17 M 266 382.17"/></g><g style="stroke-width: 1.0;stroke: rgb(0,0,0);stroke-opacity: 1.0;; fill: none" transform="matrix(1,0,0,1,0,0)" clip-path="url(#93182013592798clip-0)"><path d="M 266 382.17 L 274 382.17 L 274 390.17 L 266 390.17 L 266 382.17 M 266 382.17"/></g><g style="fill: rgb(0,0,0); fill-opacity: 1.0; stroke: none" transform="matrix(1,0,0,1,0,0)" clip-path="url(#93182013592798clip-0)"><path d="M 281.52 392.11 Q 280.43 392.11 278.73 391.63 L 278.73 390.11 Q 280.56 390.96 281.74 390.96 Q 282.65 390.96 283.2 390.48 Q 283.76 390 283.76 389.23 Q 283.76 388.59 283.39 388.14 Q 283.03 387.7 282.06 387.15 L 281.31 386.72 Q 279.93 385.93 279.36 385.23 Q 278.79 384.53 278.79 383.6 Q 278.79 382.34 279.7 381.53 Q 280.61 380.73 282.01 380.73 Q 283.27 380.73 284.66 381.14 L 284.66 382.55 Q 282.94 381.88 282.1 381.88 Q 281.3 381.88 280.78 382.3 Q 280.26 382.72 280.26 383.37 Q 280.26 383.91 280.64 384.33 Q 281.02 384.75 282.04 385.32 L 282.81 385.76 Q 284.22 386.56 284.77 387.27 Q 285.33 387.98 285.33 388.98 Q 285.33 390.39 284.29 391.25 Q 283.24 392.11 281.52 392.11 M 281.52 392.11 M 294.27 391.58 Q 292.82 392.02 291.79 392.02 Q 290.03 392.02 288.92 390.85 Q 287.81 389.68 287.81 387.82 Q 287.81 386.01 288.79 384.86 Q 289.77 383.7 291.29 383.7 Q 292.73 383.7 293.52 384.72 Q 294.31 385.75 294.31 387.64 L 294.3 388.09 L 289.29 388.09 Q 289.6 390.92 292.06 390.92 Q 292.96 390.92 294.27 390.44 M 294.27 391.58 M 289.35 387 L 292.86 387 Q 292.86 384.78 291.2 384.78 Q 289.54 384.78 289.35 387 M 289.35 387 M 297.44 391.84 L 297.44 383.88 L 298.89 383.88 L 298.89 385.38 Q 299.74 383.71 301.38 383.71 Q 301.6 383.71 301.84 383.74 L 301.84 385.09 Q 301.46 384.97 301.18 384.97 Q 299.81 384.97 298.89 386.59 L 298.89 391.84 M 297.44 391.84 M 304.44 391.84 L 304.44 383.88 L 305.89 383.88 L 305.89 391.84 M 304.44 391.84 M 304.44 382.44 L 304.44 381 L 305.89 381 L 305.89 382.44 M 304.44 382.44 M 315.27 391.58 Q 313.82 392.02 312.79 392.02 Q 311.03 392.02 309.92 390.85 Q 308.81 389.68 308.81 387.82 Q 308.81 386.01 309.79 384.86 Q 310.77 383.7 312.29 383.7 Q 313.73 383.7 314.52 384.72 Q 315.31 385.75 315.31 387.64 L 315.3 388.09 L 310.29 388.09 Q 310.6 390.92 313.06 390.92 Q 313.96 390.92 315.27 390.44 M 315.27 391.58 M 310.35 387 L 313.86 387 Q 313.86 384.78 312.2 384.78 Q 310.54 384.78 310.35 387 M 310.35 387 M 320.55 392.02 Q 319.56 392.02 318.15 391.56 L 318.15 390.23 Q 319.56 390.94 320.61 390.94 Q 321.23 390.94 321.64 390.6 Q 322.05 390.26 322.05 389.76 Q 322.05 389.02 320.9 388.53 L 320.06 388.17 Q 318.19 387.4 318.19 385.94 Q 318.19 384.9 318.93 384.3 Q 319.67 383.71 320.95 383.71 Q 321.61 383.71 322.6 383.89 L 322.9 383.95 L 322.9 385.15 Q 321.69 384.79 320.98 384.79 Q 319.59 384.79 319.59 385.8 Q 319.59 386.45 320.64 386.9 L 321.34 387.19 Q 322.52 387.69 323.01 388.24 Q 323.5 388.8 323.5 389.62 Q 323.5 390.67 322.67 391.35 Q 321.84 392.02 320.55 392.02 M 320.55 392.02 M 332.26 391.84 L 332.26 390.75 L 334.42 390.75 L 334.42 382.2 L 332.26 382.74 L 332.26 381.63 L 335.87 380.73 L 335.87 390.75 L 338.04 390.75 L 338.04 391.84 M 332.26 391.84"/></g><rect x="64" y="23" width="528" height="305" style="fill: rgb(255,255,255); fill-opacity: 1.0" transform="matrix(1,0,0,1,0,0)" clip-path="url(#93182013592798clip-0)"/><line x1="64" y1="328" x2="592" y2="328" style="stroke-width: 1.0;stroke: rgb(128,128,128);stroke-opacity: 1.0;" transform="matrix(1,0,0,1,0,0)" clip-path="url(#93182013592798clip-0)"/><line x1="99.64" y1="328" x2="99.64" y2="328" style="stroke-width: 1.0;stroke: rgb(128,128,128);stroke-opacity: 1.0;" transform="matrix(1,0,0,1,0,0)" clip-path="url(#93182013592798clip-0)"/><line x1="99.64" y1="328" x2="99.64" y2="330" style="stroke-width: 1.0;stroke: rgb(128,128,128);stroke-opacity: 1.0;" transform="matrix(1,0,0,1,0,0)" clip-path="url(#93182013592798clip-0)"/><line x1="123.68" y1="328" x2="123.68" y2="328" style="stroke-width: 1.0;stroke: rgb(128,128,128);stroke-opacity: 1.0;" transform="matrix(1,0,0,1,0,0)" clip-path="url(#93182013592798clip-0)"/><line x1="123.68" y1="328" x2="123.68" y2="330" style="stroke-width: 1.0;stroke: rgb(128,128,128);stroke-opacity: 1.0;" transform="matrix(1,0,0,1,0,0)" clip-path="url(#93182013592798clip-0)"/><line x1="147.72" y1="328" x2="147.72" y2="328" style="stroke-width: 1.0;stroke: rgb(128,128,128);stroke-opacity: 1.0;" transform="matrix(1,0,0,1,0,0)" clip-path="url(#93182013592798clip-0)"/><line x1="147.72" y1="328" x2="147.72" y2="330" style="stroke-width: 1.0;stroke: rgb(128,128,128);stroke-opacity: 1.0;" transform="matrix(1,0,0,1,0,0)" clip-path="url(#93182013592798clip-0)"/><line x1="171.75" y1="328" x2="171.75" y2="328" style="stroke-width: 1.0;stroke: rgb(128,128,128);stroke-opacity: 1.0;" transform="matrix(1,0,0,1,0,0)" clip-path="url(#93182013592798clip-0)"/><line x1="171.75" y1="328" x2="171.75" y2="330" style="stroke-width: 1.0;stroke: rgb(128,128,128);stroke-opacity: 1.0;" transform="matrix(1,0,0,1,0,0)" clip-path="url(#93182013592798clip-0)"/><line x1="195.79" y1="328" x2="195.79" y2="328" style="stroke-width: 1.0;stroke: rgb(128,128,128);stroke-opacity: 1.0;" transform="matrix(1,0,0,1,0,0)" clip-path="url(#93182013592798clip-0)"/><line x1="195.79" y1="328" x2="195.79" y2="330" style="stroke-width: 1.0;stroke: rgb(128,128,128);stroke-opacity: 1.0;" transform="matrix(1,0,0,1,0,0)" clip-path="url(#93182013592798clip-0)"/><line x1="219.83" y1="328" x2="219.83" y2="328" style="stroke-width: 1.0;stroke: rgb(128,128,128);stroke-opacity: 1.0;" transform="matrix(1,0,0,1,0,0)" clip-path="url(#93182013592798clip-0)"/><line x1="219.83" y1="328" x2="219.83" y2="330" style="stroke-width: 1.0;stroke: rgb(128,128,128);stroke-opacity: 1.0;" transform="matrix(1,0,0,1,0,0)" clip-path="url(#93182013592798clip-0)"/><line x1="243.87" y1="328" x2="243.87" y2="328" style="stroke-width: 1.0;stroke: rgb(128,128,128);stroke-opacity: 1.0;" transform="matrix(1,0,0,1,0,0)" clip-path="url(#93182013592798clip-0)"/><line x1="243.87" y1="328" x2="243.87" y2="330" style="stroke-width: 1.0;stroke: rgb(128,128,128);stroke-opacity: 1.0;" transform="matrix(1,0,0,1,0,0)" clip-path="url(#93182013592798clip-0)"/><line x1="267.91" y1="328" x2="267.91" y2="328" style="stroke-width: 1.0;stroke: rgb(128,128,128);stroke-opacity: 1.0;" transform="matrix(1,0,0,1,0,0)" clip-path="url(#93182013592798clip-0)"/><line x1="267.91" y1="328" x2="267.91" y2="330" style="stroke-width: 1.0;stroke: rgb(128,128,128);stroke-opacity: 1.0;" transform="matrix(1,0,0,1,0,0)" clip-path="url(#93182013592798clip-0)"/><line x1="291.94" y1="328" x2="291.94" y2="328" style="stroke-width: 1.0;stroke: rgb(128,128,128);stroke-opacity: 1.0;" transform="matrix(1,0,0,1,0,0)" clip-path="url(#93182013592798clip-0)"/><line x1="291.94" y1="328" x2="291.94" y2="330" style="stroke-width: 1.0;stroke: rgb(128,128,128);stroke-opacity: 1.0;" transform="matrix(1,0,0,1,0,0)" clip-path="url(#93182013592798clip-0)"/><line x1="315.98" y1="328" x2="315.98" y2="328" style="stroke-width: 1.0;stroke: rgb(128,128,128);stroke-opacity: 1.0;" transform="matrix(1,0,0,1,0,0)" clip-path="url(#93182013592798clip-0)"/><line x1="315.98" y1="328" x2="315.98" y2="330" style="stroke-width: 1.0;stroke: rgb(128,128,128);stroke-opacity: 1.0;" transform="matrix(1,0,0,1,0,0)" clip-path="url(#93182013592798clip-0)"/><line x1="340.02" y1="328" x2="340.02" y2="328" style="stroke-width: 1.0;stroke: rgb(128,128,128);stroke-opacity: 1.0;" transform="matrix(1,0,0,1,0,0)" clip-path="url(#93182013592798clip-0)"/><line x1="340.02" y1="328" x2="340.02" y2="330" style="stroke-width: 1.0;stroke: rgb(128,128,128);stroke-opacity: 1.0;" transform="matrix(1,0,0,1,0,0)" clip-path="url(#93182013592798clip-0)"/><line x1="364.06" y1="328" x2="364.06" y2="328" style="stroke-width: 1.0;stroke: rgb(128,128,128);stroke-opacity: 1.0;" transform="matrix(1,0,0,1,0,0)" clip-path="url(#93182013592798clip-0)"/><line x1="364.06" y1="328" x2="364.06" y2="330" style="stroke-width: 1.0;stroke: rgb(128,128,128);stroke-opacity: 1.0;" transform="matrix(1,0,0,1,0,0)" clip-path="url(#93182013592798clip-0)"/><line x1="388.09" y1="328" x2="388.09" y2="328" style="stroke-width: 1.0;stroke: rgb(128,128,128);stroke-opacity: 1.0;" transform="matrix(1,0,0,1,0,0)" clip-path="url(#93182013592798clip-0)"/><line x1="388.09" y1="328" x2="388.09" y2="330" style="stroke-width: 1.0;stroke: rgb(128,128,128);stroke-opacity: 1.0;" transform="matrix(1,0,0,1,0,0)" clip-path="url(#93182013592798clip-0)"/><line x1="412.13" y1="328" x2="412.13" y2="328" style="stroke-width: 1.0;stroke: rgb(128,128,128);stroke-opacity: 1.0;" transform="matrix(1,0,0,1,0,0)" clip-path="url(#93182013592798clip-0)"/><line x1="412.13" y1="328" x2="412.13" y2="330" style="stroke-width: 1.0;stroke: rgb(128,128,128);stroke-opacity: 1.0;" transform="matrix(1,0,0,1,0,0)" clip-path="url(#93182013592798clip-0)"/><line x1="436.17" y1="328" x2="436.17" y2="328" style="stroke-width: 1.0;stroke: rgb(128,128,128);stroke-opacity: 1.0;" transform="matrix(1,0,0,1,0,0)" clip-path="url(#93182013592798clip-0)"/><line x1="436.17" y1="328" x2="436.17" y2="330" style="stroke-width: 1.0;stroke: rgb(128,128,128);stroke-opacity: 1.0;" transform="matrix(1,0,0,1,0,0)" clip-path="url(#93182013592798clip-0)"/><line x1="460.21" y1="328" x2="460.21" y2="328" style="stroke-width: 1.0;stroke: rgb(128,128,128);stroke-opacity: 1.0;" transform="matrix(1,0,0,1,0,0)" clip-path="url(#93182013592798clip-0)"/><line x1="460.21" y1="328" x2="460.21" y2="330" style="stroke-width: 1.0;stroke: rgb(128,128,128);stroke-opacity: 1.0;" transform="matrix(1,0,0,1,0,0)" clip-path="url(#93182013592798clip-0)"/><line x1="484.25" y1="328" x2="484.25" y2="328" style="stroke-width: 1.0;stroke: rgb(128,128,128);stroke-opacity: 1.0;" transform="matrix(1,0,0,1,0,0)" clip-path="url(#93182013592798clip-0)"/><line x1="484.25" y1="328" x2="484.25" y2="330" style="stroke-width: 1.0;stroke: rgb(128,128,128);stroke-opacity: 1.0;" transform="matrix(1,0,0,1,0,0)" clip-path="url(#93182013592798clip-0)"/><line x1="508.28" y1="328" x2="508.28" y2="328" style="stroke-width: 1.0;stroke: rgb(128,128,128);stroke-opacity: 1.0;" transform="matrix(1,0,0,1,0,0)" clip-path="url(#93182013592798clip-0)"/><line x1="508.28" y1="328" x2="508.28" y2="330" style="stroke-width: 1.0;stroke: rgb(128,128,128);stroke-opacity: 1.0;" transform="matrix(1,0,0,1,0,0)" clip-path="url(#93182013592798clip-0)"/><line x1="532.32" y1="328" x2="532.32" y2="328" style="stroke-width: 1.0;stroke: rgb(128,128,128);stroke-opacity: 1.0;" transform="matrix(1,0,0,1,0,0)" clip-path="url(#93182013592798clip-0)"/><line x1="532.32" y1="328" x2="532.32" y2="330" style="stroke-width: 1.0;stroke: rgb(128,128,128);stroke-opacity: 1.0;" transform="matrix(1,0,0,1,0,0)" clip-path="url(#93182013592798clip-0)"/><line x1="556.36" y1="328" x2="556.36" y2="328" style="stroke-width: 1.0;stroke: rgb(128,128,128);stroke-opacity: 1.0;" transform="matrix(1,0,0,1,0,0)" clip-path="url(#93182013592798clip-0)"/><line x1="556.36" y1="328" x2="556.36" y2="330" style="stroke-width: 1.0;stroke: rgb(128,128,128);stroke-opacity: 1.0;" transform="matrix(1,0,0,1,0,0)" clip-path="url(#93182013592798clip-0)"/><g style="fill: rgb(0,0,0); fill-opacity: 1.0; stroke: none" transform="matrix(1,0,0,1,0,0)" clip-path="url(#93182013592798clip-0)"><path d="M 98.14 343.67 L 98.14 342.95 L 99.59 342.95 L 99.59 337.24 L 98.14 337.6 L 98.14 336.86 L 100.56 336.26 L 100.56 342.95 L 102 342.95 L 102 343.67 M 98.14 343.67"/></g><g style="fill: rgb(0,0,0); fill-opacity: 1.0; stroke: none" transform="matrix(1,0,0,1,0,0)" clip-path="url(#93182013592798clip-0)"><path d="M 121.51 343.67 L 121.51 342.82 Q 121.93 341.84 123.21 340.68 L 123.76 340.19 Q 124.82 339.23 124.82 338.28 Q 124.82 337.68 124.46 337.33 Q 124.1 336.98 123.46 336.98 Q 122.71 336.98 121.69 337.56 L 121.69 336.71 Q 122.65 336.26 123.6 336.26 Q 124.61 336.26 125.23 336.81 Q 125.84 337.35 125.84 338.26 Q 125.84 338.91 125.53 339.41 Q 125.22 339.91 124.38 340.63 L 124.01 340.95 Q 122.85 341.93 122.67 342.82 L 125.81 342.82 L 125.81 343.67 M 121.51 343.67"/></g><g style="fill: rgb(0,0,0); fill-opacity: 1.0; stroke: none" transform="matrix(1,0,0,1,0,0)" clip-path="url(#93182013592798clip-0)"><path d="M 145.73 343.61 L 145.73 342.72 Q 146.77 343.13 147.36 343.13 Q 148.05 343.13 148.48 342.72 Q 148.92 342.32 148.92 341.68 Q 148.92 340.16 146.78 340.16 L 146.4 340.16 L 146.4 339.51 L 146.74 339.5 Q 148.74 339.5 148.74 338.09 Q 148.74 336.98 147.42 336.98 Q 146.7 336.98 145.83 337.39 L 145.83 336.55 Q 146.68 336.26 147.49 336.26 Q 149.71 336.26 149.71 337.94 Q 149.71 339.21 148.2 339.75 Q 149.95 340.16 149.95 341.67 Q 149.95 342.69 149.27 343.27 Q 148.6 343.85 147.42 343.85 Q 146.75 343.85 145.73 343.61 M 145.73 343.61"/></g><g style="fill: rgb(0,0,0); fill-opacity: 1.0; stroke: none" transform="matrix(1,0,0,1,0,0)" clip-path="url(#93182013592798clip-0)"><path d="M 172.52 343.67 L 172.52 341.62 L 169.27 341.62 L 169.27 340.89 L 172.52 336.44 L 173.42 336.44 L 173.42 340.84 L 174.39 340.84 L 174.39 341.62 L 173.42 341.62 L 173.42 343.67 M 172.52 343.67 M 170.21 340.84 L 172.58 340.84 L 172.58 337.62 M 170.21 340.84"/></g><g style="fill: rgb(0,0,0); fill-opacity: 1.0; stroke: none" transform="matrix(1,0,0,1,0,0)" clip-path="url(#93182013592798clip-0)"><path d="M 194.01 343.7 L 194.01 342.84 Q 194.73 343.13 195.37 343.13 Q 196.09 343.13 196.5 342.71 Q 196.9 342.29 196.9 341.55 Q 196.9 339.92 194.66 339.92 Q 194.41 339.92 194.13 339.96 L 194.13 336.44 L 197.79 336.44 L 197.79 337.28 L 194.97 337.28 L 194.97 339.19 Q 196.37 339.19 197.15 339.83 Q 197.93 340.46 197.93 341.6 Q 197.93 342.65 197.22 343.25 Q 196.51 343.85 195.25 343.85 Q 194.7 343.85 194.01 343.7 M 194.01 343.7"/></g><g style="fill: rgb(0,0,0); fill-opacity: 1.0; stroke: none" transform="matrix(1,0,0,1,0,0)" clip-path="url(#93182013592798clip-0)"><path d="M 218.55 339.92 Q 219.24 339.03 220.28 339.03 Q 221.23 339.03 221.83 339.66 Q 222.43 340.28 222.43 341.27 Q 222.43 342.39 221.76 343.12 Q 221.08 343.85 220.04 343.85 Q 218.85 343.85 218.17 342.89 Q 217.5 341.92 217.5 340.22 Q 217.5 338.34 218.27 337.3 Q 219.05 336.26 220.45 336.26 Q 221.1 336.26 222.06 336.53 L 222.06 337.37 Q 221.04 336.98 220.39 336.98 Q 218.55 336.98 218.55 339.92 M 218.55 339.92 M 221.47 341.48 Q 221.47 340.66 221.1 340.19 Q 220.73 339.72 220.08 339.72 Q 219.47 339.72 219.03 340.13 Q 218.59 340.54 218.59 341.12 Q 218.59 342.03 219 342.58 Q 219.42 343.13 220.11 343.13 Q 220.73 343.13 221.1 342.68 Q 221.47 342.23 221.47 341.48 M 221.47 341.48"/></g><g style="fill: rgb(0,0,0); fill-opacity: 1.0; stroke: none" transform="matrix(1,0,0,1,0,0)" clip-path="url(#93182013592798clip-0)"><path d="M 242.37 343.67 Q 242.51 342.82 242.77 342.21 Q 243.04 341.59 243.7 340.52 L 245.67 337.34 L 241.95 337.34 L 241.95 336.44 L 246.59 336.44 L 246.59 337.34 Q 243.81 341.44 243.48 343.67 M 242.37 343.67"/></g><g style="fill: rgb(0,0,0); fill-opacity: 1.0; stroke: none" transform="matrix(1,0,0,1,0,0)" clip-path="url(#93182013592798clip-0)"><path d="M 267.21 339.73 Q 266.15 339 266.15 338.1 Q 266.15 337.28 266.75 336.77 Q 267.35 336.26 268.31 336.26 Q 269.21 336.26 269.76 336.69 Q 270.32 337.12 270.32 337.82 Q 270.32 338.87 268.97 339.73 Q 270.6 340.53 270.6 341.8 Q 270.6 342.71 269.92 343.28 Q 269.23 343.85 268.15 343.85 Q 267.08 343.85 266.43 343.31 Q 265.77 342.77 265.77 341.89 Q 265.77 340.59 267.21 339.73 M 267.21 339.73 M 268.43 339.43 Q 269.44 338.77 269.44 337.95 Q 269.44 337.52 269.1 337.25 Q 268.77 336.98 268.22 336.98 Q 267.68 336.98 267.35 337.24 Q 267.02 337.51 267.02 337.92 Q 267.02 338.33 267.32 338.65 Q 267.62 338.97 268.43 339.43 M 268.43 339.43 M 267.73 340.12 Q 267.15 340.57 266.94 340.91 Q 266.73 341.24 266.73 341.74 Q 266.73 342.36 267.13 342.74 Q 267.53 343.13 268.19 343.13 Q 268.82 343.13 269.21 342.8 Q 269.61 342.47 269.61 341.95 Q 269.61 341.53 269.37 341.24 Q 269.12 340.95 268.41 340.53 M 267.73 340.12"/></g><g style="fill: rgb(0,0,0); fill-opacity: 1.0; stroke: none" transform="matrix(1,0,0,1,0,0)" clip-path="url(#93182013592798clip-0)"><path d="M 290.08 343.62 L 290.08 342.81 Q 291 343.13 291.64 343.13 Q 292.54 343.13 293.05 342.36 Q 293.55 341.6 293.55 340.24 Q 292.82 341.14 291.89 341.14 Q 290.97 341.14 290.34 340.47 Q 289.7 339.8 289.7 338.83 Q 289.7 337.72 290.38 336.99 Q 291.06 336.26 292.08 336.26 Q 293.26 336.26 293.94 337.21 Q 294.62 338.15 294.62 339.79 Q 294.62 341.66 293.79 342.75 Q 292.96 343.85 291.55 343.85 Q 290.98 343.85 290.08 343.62 M 290.08 343.62 M 290.67 338.64 Q 290.67 339.48 291.04 339.96 Q 291.41 340.45 292.06 340.45 Q 292.67 340.45 293.11 340.03 Q 293.54 339.62 293.54 339.03 Q 293.54 338.11 293.12 337.54 Q 292.7 336.98 292.02 336.98 Q 291.39 336.98 291.03 337.43 Q 290.67 337.87 290.67 338.64 M 290.67 338.64"/></g><g style="fill: rgb(0,0,0); fill-opacity: 1.0; stroke: none" transform="matrix(1,0,0,1,0,0)" clip-path="url(#93182013592798clip-0)"><path d="M 311.48 343.67 L 311.48 342.95 L 312.93 342.95 L 312.93 337.24 L 311.48 337.6 L 311.48 336.86 L 313.9 336.26 L 313.9 342.95 L 315.34 342.95 L 315.34 343.67 M 311.48 343.67 M 319.12 343.85 Q 318 343.85 317.31 342.8 Q 316.62 341.74 316.62 340.05 Q 316.62 338.34 317.31 337.3 Q 318.01 336.26 319.15 336.26 Q 320.28 336.26 320.98 337.3 Q 321.67 338.34 321.67 340.04 Q 321.67 341.77 320.98 342.81 Q 320.28 343.85 319.12 343.85 M 319.12 343.85 M 319.13 343.13 Q 320.65 343.13 320.65 340.02 Q 320.65 336.98 319.15 336.98 Q 317.64 336.98 317.64 340.05 Q 317.64 343.13 319.13 343.13 M 319.13 343.13"/></g><g style="fill: rgb(0,0,0); fill-opacity: 1.0; stroke: none" transform="matrix(1,0,0,1,0,0)" clip-path="url(#93182013592798clip-0)"><path d="M 335.52 343.67 L 335.52 342.95 L 336.97 342.95 L 336.97 337.24 L 335.52 337.6 L 335.52 336.86 L 337.93 336.26 L 337.93 342.95 L 339.38 342.95 L 339.38 343.67 M 335.52 343.67 M 341.52 343.67 L 341.52 342.95 L 342.97 342.95 L 342.97 337.24 L 341.52 337.6 L 341.52 336.86 L 343.93 336.26 L 343.93 342.95 L 345.38 342.95 L 345.38 343.67 M 341.52 343.67"/></g><g style="fill: rgb(0,0,0); fill-opacity: 1.0; stroke: none" transform="matrix(1,0,0,1,0,0)" clip-path="url(#93182013592798clip-0)"><path d="M 359.56 343.67 L 359.56 342.95 L 361.01 342.95 L 361.01 337.24 L 359.56 337.6 L 359.56 336.86 L 361.97 336.26 L 361.97 342.95 L 363.42 342.95 L 363.42 343.67 M 359.56 343.67 M 364.89 343.67 L 364.89 342.82 Q 365.31 341.84 366.59 340.68 L 367.14 340.19 Q 368.2 339.23 368.2 338.28 Q 368.2 337.68 367.84 337.33 Q 367.47 336.98 366.84 336.98 Q 366.09 336.98 365.07 337.56 L 365.07 336.71 Q 366.03 336.26 366.98 336.26 Q 367.99 336.26 368.61 336.81 Q 369.22 337.35 369.22 338.26 Q 369.22 338.91 368.91 339.41 Q 368.6 339.91 367.76 340.63 L 367.39 340.95 Q 366.23 341.93 366.05 342.82 L 369.19 342.82 L 369.19 343.67 M 364.89 343.67"/></g><g style="fill: rgb(0,0,0); fill-opacity: 1.0; stroke: none" transform="matrix(1,0,0,1,0,0)" clip-path="url(#93182013592798clip-0)"><path d="M 383.6 343.67 L 383.6 342.95 L 385.04 342.95 L 385.04 337.24 L 383.6 337.6 L 383.6 336.86 L 386.01 336.26 L 386.01 342.95 L 387.46 342.95 L 387.46 343.67 M 383.6 343.67 M 389.11 343.61 L 389.11 342.72 Q 390.15 343.13 390.74 343.13 Q 391.43 343.13 391.86 342.72 Q 392.29 342.32 392.29 341.68 Q 392.29 340.16 390.16 340.16 L 389.78 340.16 L 389.78 339.51 L 390.12 339.5 Q 392.12 339.5 392.12 338.09 Q 392.12 336.98 390.8 336.98 Q 390.08 336.98 389.21 337.39 L 389.21 336.55 Q 390.06 336.26 390.87 336.26 Q 393.08 336.26 393.08 337.94 Q 393.08 339.21 391.58 339.75 Q 393.32 340.16 393.32 341.67 Q 393.32 342.69 392.65 343.27 Q 391.98 343.85 390.8 343.85 Q 390.13 343.85 389.11 343.61 M 389.11 343.61"/></g><g style="fill: rgb(0,0,0); fill-opacity: 1.0; stroke: none" transform="matrix(1,0,0,1,0,0)" clip-path="url(#93182013592798clip-0)"><path d="M 407.64 343.67 L 407.64 342.95 L 409.08 342.95 L 409.08 337.24 L 407.64 337.6 L 407.64 336.86 L 410.05 336.26 L 410.05 342.95 L 411.49 342.95 L 411.49 343.67 M 407.64 343.67 M 415.9 343.67 L 415.9 341.62 L 412.65 341.62 L 412.65 340.89 L 415.9 336.44 L 416.8 336.44 L 416.8 340.84 L 417.77 340.84 L 417.77 341.62 L 416.8 341.62 L 416.8 343.67 M 415.9 343.67 M 413.59 340.84 L 415.96 340.84 L 415.96 337.62 M 413.59 340.84"/></g><g style="fill: rgb(0,0,0); fill-opacity: 1.0; stroke: none" transform="matrix(1,0,0,1,0,0)" clip-path="url(#93182013592798clip-0)"><path d="M 431.67 343.67 L 431.67 342.95 L 433.12 342.95 L 433.12 337.24 L 431.67 337.6 L 431.67 336.86 L 434.09 336.26 L 434.09 342.95 L 435.53 342.95 L 435.53 343.67 M 431.67 343.67 M 437.39 343.7 L 437.39 342.84 Q 438.1 343.13 438.75 343.13 Q 439.47 343.13 439.87 342.71 Q 440.28 342.29 440.28 341.55 Q 440.28 339.92 438.04 339.92 Q 437.79 339.92 437.51 339.96 L 437.51 336.44 L 441.17 336.44 L 441.17 337.28 L 438.35 337.28 L 438.35 339.19 Q 439.74 339.19 440.53 339.83 Q 441.31 340.46 441.31 341.6 Q 441.31 342.65 440.6 343.25 Q 439.89 343.85 438.63 343.85 Q 438.08 343.85 437.39 343.7 M 437.39 343.7"/></g><g style="fill: rgb(0,0,0); fill-opacity: 1.0; stroke: none" transform="matrix(1,0,0,1,0,0)" clip-path="url(#93182013592798clip-0)"><path d="M 455.71 343.67 L 455.71 342.95 L 457.16 342.95 L 457.16 337.24 L 455.71 337.6 L 455.71 336.86 L 458.12 336.26 L 458.12 342.95 L 459.57 342.95 L 459.57 343.67 M 455.71 343.67 M 461.93 339.92 Q 462.62 339.03 463.66 339.03 Q 464.61 339.03 465.21 339.66 Q 465.81 340.28 465.81 341.27 Q 465.81 342.39 465.14 343.12 Q 464.46 343.85 463.42 343.85 Q 462.23 343.85 461.55 342.89 Q 460.88 341.92 460.88 340.22 Q 460.88 338.34 461.65 337.3 Q 462.43 336.26 463.83 336.26 Q 464.48 336.26 465.44 336.53 L 465.44 337.37 Q 464.42 336.98 463.77 336.98 Q 461.93 336.98 461.93 339.92 M 461.93 339.92 M 464.85 341.48 Q 464.85 340.66 464.48 340.19 Q 464.11 339.72 463.46 339.72 Q 462.85 339.72 462.41 340.13 Q 461.97 340.54 461.97 341.12 Q 461.97 342.03 462.38 342.58 Q 462.8 343.13 463.49 343.13 Q 464.11 343.13 464.48 342.68 Q 464.85 342.23 464.85 341.48 M 464.85 341.48"/></g><g style="fill: rgb(0,0,0); fill-opacity: 1.0; stroke: none" transform="matrix(1,0,0,1,0,0)" clip-path="url(#93182013592798clip-0)"><path d="M 479.75 343.67 L 479.75 342.95 L 481.2 342.95 L 481.2 337.24 L 479.75 337.6 L 479.75 336.86 L 482.16 336.26 L 482.16 342.95 L 483.61 342.95 L 483.61 343.67 M 479.75 343.67 M 485.75 343.67 Q 485.89 342.82 486.15 342.21 Q 486.41 341.59 487.08 340.52 L 489.05 337.34 L 485.33 337.34 L 485.33 336.44 L 489.97 336.44 L 489.97 337.34 Q 487.19 341.44 486.86 343.67 M 485.75 343.67"/></g><g style="fill: rgb(0,0,0); fill-opacity: 1.0; stroke: none" transform="matrix(1,0,0,1,0,0)" clip-path="url(#93182013592798clip-0)"><path d="M 503.79 343.67 L 503.79 342.95 L 505.23 342.95 L 505.23 337.24 L 503.79 337.6 L 503.79 336.86 L 506.2 336.26 L 506.2 342.95 L 507.65 342.95 L 507.65 343.67 M 503.79 343.67 M 510.58 339.73 Q 509.52 339 509.52 338.1 Q 509.52 337.28 510.13 336.77 Q 510.73 336.26 511.69 336.26 Q 512.59 336.26 513.14 336.69 Q 513.69 337.12 513.69 337.82 Q 513.69 338.87 512.35 339.73 Q 513.98 340.53 513.98 341.8 Q 513.98 342.71 513.3 343.28 Q 512.61 343.85 511.53 343.85 Q 510.46 343.85 509.81 343.31 Q 509.15 342.77 509.15 341.89 Q 509.15 340.59 510.58 339.73 M 510.58 339.73 M 511.81 339.43 Q 512.82 338.77 512.82 337.95 Q 512.82 337.52 512.48 337.25 Q 512.15 336.98 511.59 336.98 Q 511.06 336.98 510.73 337.24 Q 510.4 337.51 510.4 337.92 Q 510.4 338.33 510.7 338.65 Q 511 338.97 511.81 339.43 M 511.81 339.43 M 511.11 340.12 Q 510.53 340.57 510.32 340.91 Q 510.11 341.24 510.11 341.74 Q 510.11 342.36 510.51 342.74 Q 510.91 343.13 511.57 343.13 Q 512.2 343.13 512.59 342.8 Q 512.99 342.47 512.99 341.95 Q 512.99 341.53 512.74 341.24 Q 512.5 340.95 511.79 340.53 M 511.11 340.12"/></g><g style="fill: rgb(0,0,0); fill-opacity: 1.0; stroke: none" transform="matrix(1,0,0,1,0,0)" clip-path="url(#93182013592798clip-0)"><path d="M 527.83 343.67 L 527.83 342.95 L 529.27 342.95 L 529.27 337.24 L 527.83 337.6 L 527.83 336.86 L 530.24 336.26 L 530.24 342.95 L 531.68 342.95 L 531.68 343.67 M 527.83 343.67 M 533.46 343.62 L 533.46 342.81 Q 534.38 343.13 535.02 343.13 Q 535.92 343.13 536.43 342.36 Q 536.93 341.6 536.93 340.24 Q 536.2 341.14 535.27 341.14 Q 534.35 341.14 533.72 340.47 Q 533.08 339.8 533.08 338.83 Q 533.08 337.72 533.76 336.99 Q 534.44 336.26 535.46 336.26 Q 536.64 336.26 537.32 337.21 Q 538 338.15 538 339.79 Q 538 341.66 537.17 342.75 Q 536.34 343.85 534.93 343.85 Q 534.36 343.85 533.46 343.62 M 533.46 343.62 M 534.05 338.64 Q 534.05 339.48 534.42 339.96 Q 534.79 340.45 535.44 340.45 Q 536.05 340.45 536.48 340.03 Q 536.92 339.62 536.92 339.03 Q 536.92 338.11 536.5 337.54 Q 536.08 336.98 535.4 336.98 Q 534.77 336.98 534.41 337.43 Q 534.05 337.87 534.05 338.64 M 534.05 338.64"/></g><g style="fill: rgb(0,0,0); fill-opacity: 1.0; stroke: none" transform="matrix(1,0,0,1,0,0)" clip-path="url(#93182013592798clip-0)"><path d="M 551.19 343.67 L 551.19 342.82 Q 551.61 341.84 552.89 340.68 L 553.44 340.19 Q 554.51 339.23 554.51 338.28 Q 554.51 337.68 554.14 337.33 Q 553.78 336.98 553.14 336.98 Q 552.39 336.98 551.37 337.56 L 551.37 336.71 Q 552.33 336.26 553.28 336.26 Q 554.3 336.26 554.91 336.81 Q 555.53 337.35 555.53 338.26 Q 555.53 338.91 555.22 339.41 Q 554.91 339.91 554.06 340.63 L 553.69 340.95 Q 552.53 341.93 552.35 342.82 L 555.49 342.82 L 555.49 343.67 M 551.19 343.67 M 559.49 343.85 Q 558.38 343.85 557.69 342.8 Q 556.99 341.74 556.99 340.05 Q 556.99 338.34 557.69 337.3 Q 558.39 336.26 559.52 336.26 Q 560.66 336.26 561.36 337.3 Q 562.05 338.34 562.05 340.04 Q 562.05 341.77 561.36 342.81 Q 560.66 343.85 559.49 343.85 M 559.49 343.85 M 559.5 343.13 Q 561.03 343.13 561.03 340.02 Q 561.03 336.98 559.52 336.98 Q 558.02 336.98 558.02 340.05 Q 558.02 343.13 559.5 343.13 M 559.5 343.13"/></g><g style="fill: rgb(0,0,0); fill-opacity: 1.0; stroke: none" transform="matrix(1,0,0,1,0,0)" clip-path="url(#93182013592798clip-0)"><path d="M 314.68 364.38 L 314.68 356.63 L 311.61 356.63 L 311.61 355.71 L 318.99 355.71 L 318.99 356.63 L 315.91 356.63 L 315.91 364.38 M 314.68 364.38 M 324.63 364.38 L 324.63 363.18 Q 323.71 364.53 322.4 364.53 Q 321.57 364.53 321.08 364 Q 320.58 363.48 320.58 362.59 L 320.58 358.02 L 321.74 358.02 L 321.74 362.21 Q 321.74 362.93 321.95 363.23 Q 322.15 363.53 322.64 363.53 Q 323.7 363.53 324.63 362.14 L 324.63 358.02 L 325.79 358.02 L 325.79 364.38 M 324.63 364.38 M 328.65 366.69 L 328.65 358.02 L 329.81 358.02 L 329.81 359.21 Q 330.52 357.88 331.94 357.88 Q 333.08 357.88 333.74 358.71 Q 334.4 359.55 334.4 361 Q 334.4 362.59 333.66 363.56 Q 332.91 364.53 331.69 364.53 Q 330.56 364.53 329.81 363.66 L 329.81 366.69 M 328.65 366.69 M 329.81 362.86 Q 330.7 363.66 331.51 363.66 Q 333.17 363.66 333.17 361.12 Q 333.17 358.88 331.7 358.88 Q 330.73 358.88 329.81 359.93 M 329.81 362.86 M 341.32 364.17 Q 340.16 364.53 339.33 364.53 Q 337.93 364.53 337.04 363.59 Q 336.15 362.66 336.15 361.17 Q 336.15 359.72 336.93 358.79 Q 337.71 357.87 338.93 357.87 Q 340.09 357.87 340.72 358.69 Q 341.35 359.51 341.35 361.02 L 341.34 361.38 L 337.33 361.38 Q 337.58 363.65 339.55 363.65 Q 340.27 363.65 341.32 363.26 M 341.32 364.17 M 337.38 360.51 L 340.19 360.51 Q 340.19 358.74 338.86 358.74 Q 337.53 358.74 337.38 360.51 M 337.38 360.51 M 343.65 364.38 L 343.65 355.13 L 344.81 355.13 L 344.81 364.38 M 343.65 364.38"/></g><line x1="64" y1="23" x2="64" y2="328" style="stroke-width: 1.0;stroke: rgb(128,128,128);stroke-opacity: 1.0;" transform="matrix(1,0,0,1,0,0)" clip-path="url(#93182013592798clip-0)"/><g style="fill: rgb(0,0,0); fill-opacity: 1.0; stroke: none" transform="matrix(1,0,0,1,0,0)" clip-path="url(#93182013592798clip-0)"><path d="M 34.13 331.96 Q 33.02 331.96 32.33 330.91 Q 31.63 329.86 31.63 328.16 Q 31.63 326.45 32.33 325.41 Q 33.03 324.37 34.16 324.37 Q 35.3 324.37 36 325.41 Q 36.69 326.45 36.69 328.15 Q 36.69 329.88 36 330.92 Q 35.3 331.96 34.13 331.96 M 34.13 331.96 M 34.14 331.24 Q 35.67 331.24 35.67 328.13 Q 35.67 325.09 34.16 325.09 Q 32.66 325.09 32.66 328.16 Q 32.66 331.24 34.14 331.24 M 34.14 331.24 M 37.98 331.78 L 37.98 330.57 L 39.18 330.57 L 39.18 331.78 M 37.98 331.78 M 43.13 331.96 Q 42.02 331.96 41.33 330.91 Q 40.63 329.86 40.63 328.16 Q 40.63 326.45 41.33 325.41 Q 42.03 324.37 43.16 324.37 Q 44.3 324.37 45 325.41 Q 45.69 326.45 45.69 328.15 Q 45.69 329.88 45 330.92 Q 44.3 331.96 43.13 331.96 M 43.13 331.96 M 43.14 331.24 Q 44.67 331.24 44.67 328.13 Q 44.67 325.09 43.16 325.09 Q 41.66 325.09 41.66 328.16 Q 41.66 331.24 43.14 331.24 M 43.14 331.24 M 49.13 331.96 Q 48.02 331.96 47.33 330.91 Q 46.63 329.86 46.63 328.16 Q 46.63 326.45 47.33 325.41 Q 48.03 324.37 49.16 324.37 Q 50.3 324.37 51 325.41 Q 51.69 326.45 51.69 328.15 Q 51.69 329.88 51 330.92 Q 50.3 331.96 49.13 331.96 M 49.13 331.96 M 49.14 331.24 Q 50.67 331.24 50.67 328.13 Q 50.67 325.09 49.16 325.09 Q 47.66 325.09 47.66 328.16 Q 47.66 331.24 49.14 331.24 M 49.14 331.24 M 55.13 331.96 Q 54.02 331.96 53.33 330.91 Q 52.63 329.86 52.63 328.16 Q 52.63 326.45 53.33 325.41 Q 54.03 324.37 55.16 324.37 Q 56.3 324.37 57 325.41 Q 57.69 326.45 57.69 328.15 Q 57.69 329.88 57 330.92 Q 56.3 331.96 55.13 331.96 M 55.13 331.96 M 55.14 331.24 Q 56.67 331.24 56.67 328.13 Q 56.67 325.09 55.16 325.09 Q 53.66 325.09 53.66 328.16 Q 53.66 331.24 55.14 331.24 M 55.14 331.24"/></g><line x1="62" y1="328" x2="64" y2="328" style="stroke-width: 1.0;stroke: rgb(128,128,128);stroke-opacity: 1.0;" transform="matrix(1,0,0,1,0,0)" clip-path="url(#93182013592798clip-0)"/><g style="fill: rgb(0,0,0); fill-opacity: 1.0; stroke: none" transform="matrix(1,0,0,1,0,0)" clip-path="url(#93182013592798clip-0)"><path d="M 34.13 305.92 Q 33.02 305.92 32.33 304.87 Q 31.63 303.82 31.63 302.12 Q 31.63 300.41 32.33 299.37 Q 33.03 298.33 34.16 298.33 Q 35.3 298.33 36 299.37 Q 36.69 300.41 36.69 302.11 Q 36.69 303.84 36 304.88 Q 35.3 305.92 34.13 305.92 M 34.13 305.92 M 34.14 305.2 Q 35.67 305.2 35.67 302.09 Q 35.67 299.05 34.16 299.05 Q 32.66 299.05 32.66 302.12 Q 32.66 305.2 34.14 305.2 M 34.14 305.2 M 37.98 305.74 L 37.98 304.53 L 39.18 304.53 L 39.18 305.74 M 37.98 305.74 M 43.13 305.92 Q 42.02 305.92 41.33 304.87 Q 40.63 303.82 40.63 302.12 Q 40.63 300.41 41.33 299.37 Q 42.03 298.33 43.16 298.33 Q 44.3 298.33 45 299.37 Q 45.69 300.41 45.69 302.11 Q 45.69 303.84 45 304.88 Q 44.3 305.92 43.13 305.92 M 43.13 305.92 M 43.14 305.2 Q 44.67 305.2 44.67 302.09 Q 44.67 299.05 43.16 299.05 Q 41.66 299.05 41.66 302.12 Q 41.66 305.2 43.14 305.2 M 43.14 305.2 M 46.83 305.74 L 46.83 304.89 Q 47.25 303.91 48.53 302.76 L 49.08 302.26 Q 50.15 301.3 50.15 300.35 Q 50.15 299.75 49.78 299.4 Q 49.42 299.05 48.78 299.05 Q 48.03 299.05 47.01 299.64 L 47.01 298.79 Q 47.97 298.33 48.92 298.33 Q 49.94 298.33 50.55 298.88 Q 51.17 299.43 51.17 300.33 Q 51.17 300.98 50.86 301.48 Q 50.55 301.98 49.7 302.7 L 49.33 303.02 Q 48.17 304 47.99 304.89 L 51.13 304.89 L 51.13 305.74 M 46.83 305.74 M 53.22 305.77 L 53.22 304.91 Q 53.93 305.2 54.58 305.2 Q 55.3 305.2 55.7 304.78 Q 56.11 304.36 56.11 303.62 Q 56.11 301.99 53.87 301.99 Q 53.62 301.99 53.34 302.03 L 53.34 298.51 L 57 298.51 L 57 299.35 L 54.18 299.35 L 54.18 301.26 Q 55.57 301.26 56.36 301.9 Q 57.14 302.54 57.14 303.67 Q 57.14 304.72 56.43 305.32 Q 55.72 305.92 54.46 305.92 Q 53.91 305.92 53.22 305.77 M 53.22 305.77"/></g><line x1="62" y1="301.96" x2="64" y2="301.96" style="stroke-width: 1.0;stroke: rgb(128,128,128);stroke-opacity: 1.0;" transform="matrix(1,0,0,1,0,0)" clip-path="url(#93182013592798clip-0)"/><g style="fill: rgb(0,0,0); fill-opacity: 1.0; stroke: none" transform="matrix(1,0,0,1,0,0)" clip-path="url(#93182013592798clip-0)"><path d="M 34.13 279.88 Q 33.02 279.88 32.33 278.83 Q 31.63 277.78 31.63 276.08 Q 31.63 274.37 32.33 273.33 Q 33.03 272.29 34.16 272.29 Q 35.3 272.29 36 273.33 Q 36.69 274.37 36.69 276.07 Q 36.69 277.8 36 278.84 Q 35.3 279.88 34.13 279.88 M 34.13 279.88 M 34.14 279.16 Q 35.67 279.16 35.67 276.05 Q 35.67 273.01 34.16 273.01 Q 32.66 273.01 32.66 276.08 Q 32.66 279.16 34.14 279.16 M 34.14 279.16 M 37.98 279.7 L 37.98 278.49 L 39.18 278.49 L 39.18 279.7 M 37.98 279.7 M 43.13 279.88 Q 42.02 279.88 41.33 278.83 Q 40.63 277.78 40.63 276.08 Q 40.63 274.37 41.33 273.33 Q 42.03 272.29 43.16 272.29 Q 44.3 272.29 45 273.33 Q 45.69 274.37 45.69 276.07 Q 45.69 277.8 45 278.84 Q 44.3 279.88 43.13 279.88 M 43.13 279.88 M 43.14 279.16 Q 44.67 279.16 44.67 276.05 Q 44.67 273.01 43.16 273.01 Q 41.66 273.01 41.66 276.08 Q 41.66 279.16 43.14 279.16 M 43.14 279.16 M 47.22 279.73 L 47.22 278.87 Q 47.93 279.16 48.58 279.16 Q 49.3 279.16 49.7 278.74 Q 50.11 278.32 50.11 277.58 Q 50.11 275.95 47.87 275.95 Q 47.62 275.95 47.34 275.99 L 47.34 272.47 L 51 272.47 L 51 273.31 L 48.18 273.31 L 48.18 275.22 Q 49.57 275.22 50.36 275.86 Q 51.14 276.5 51.14 277.63 Q 51.14 278.68 50.43 279.28 Q 49.72 279.88 48.46 279.88 Q 47.91 279.88 47.22 279.73 M 47.22 279.73 M 55.13 279.88 Q 54.02 279.88 53.33 278.83 Q 52.63 277.78 52.63 276.08 Q 52.63 274.37 53.33 273.33 Q 54.03 272.29 55.16 272.29 Q 56.3 272.29 57 273.33 Q 57.69 274.37 57.69 276.07 Q 57.69 277.8 57 278.84 Q 56.3 279.88 55.13 279.88 M 55.13 279.88 M 55.14 279.16 Q 56.67 279.16 56.67 276.05 Q 56.67 273.01 55.16 273.01 Q 53.66 273.01 53.66 276.08 Q 53.66 279.16 55.14 279.16 M 55.14 279.16"/></g><line x1="62" y1="275.92" x2="64" y2="275.92" style="stroke-width: 1.0;stroke: rgb(128,128,128);stroke-opacity: 1.0;" transform="matrix(1,0,0,1,0,0)" clip-path="url(#93182013592798clip-0)"/><g style="fill: rgb(0,0,0); fill-opacity: 1.0; stroke: none" transform="matrix(1,0,0,1,0,0)" clip-path="url(#93182013592798clip-0)"><path d="M 34.13 253.84 Q 33.02 253.84 32.33 252.79 Q 31.63 251.74 31.63 250.04 Q 31.63 248.33 32.33 247.29 Q 33.03 246.25 34.16 246.25 Q 35.3 246.25 36 247.29 Q 36.69 248.33 36.69 250.03 Q 36.69 251.76 36 252.8 Q 35.3 253.84 34.13 253.84 M 34.13 253.84 M 34.14 253.12 Q 35.67 253.12 35.67 250.01 Q 35.67 246.97 34.16 246.97 Q 32.66 246.97 32.66 250.04 Q 32.66 253.12 34.14 253.12 M 34.14 253.12 M 37.98 253.66 L 37.98 252.45 L 39.18 252.45 L 39.18 253.66 M 37.98 253.66 M 43.13 253.84 Q 42.02 253.84 41.33 252.79 Q 40.63 251.74 40.63 250.04 Q 40.63 248.33 41.33 247.29 Q 42.03 246.25 43.16 246.25 Q 44.3 246.25 45 247.29 Q 45.69 248.33 45.69 250.03 Q 45.69 251.76 45 252.8 Q 44.3 253.84 43.13 253.84 M 43.13 253.84 M 43.14 253.12 Q 44.67 253.12 44.67 250.01 Q 44.67 246.97 43.16 246.97 Q 41.66 246.97 41.66 250.04 Q 41.66 253.12 43.14 253.12 M 43.14 253.12 M 47.5 253.66 Q 47.65 252.81 47.91 252.2 Q 48.17 251.58 48.83 250.51 L 50.8 247.34 L 47.08 247.34 L 47.08 246.43 L 51.72 246.43 L 51.72 247.34 Q 48.94 251.43 48.61 253.66 M 47.5 253.66 M 53.22 253.69 L 53.22 252.83 Q 53.93 253.12 54.58 253.12 Q 55.3 253.12 55.7 252.7 Q 56.11 252.28 56.11 251.54 Q 56.11 249.91 53.87 249.91 Q 53.62 249.91 53.34 249.95 L 53.34 246.43 L 57 246.43 L 57 247.27 L 54.18 247.27 L 54.18 249.18 Q 55.57 249.18 56.36 249.82 Q 57.14 250.46 57.14 251.59 Q 57.14 252.64 56.43 253.24 Q 55.72 253.84 54.46 253.84 Q 53.91 253.84 53.22 253.69 M 53.22 253.69"/></g><line x1="62" y1="249.88" x2="64" y2="249.88" style="stroke-width: 1.0;stroke: rgb(128,128,128);stroke-opacity: 1.0;" transform="matrix(1,0,0,1,0,0)" clip-path="url(#93182013592798clip-0)"/><g style="fill: rgb(0,0,0); fill-opacity: 1.0; stroke: none" transform="matrix(1,0,0,1,0,0)" clip-path="url(#93182013592798clip-0)"><path d="M 34.13 227.8 Q 33.02 227.8 32.33 226.75 Q 31.63 225.7 31.63 224 Q 31.63 222.29 32.33 221.25 Q 33.03 220.21 34.16 220.21 Q 35.3 220.21 36 221.25 Q 36.69 222.29 36.69 223.99 Q 36.69 225.73 36 226.76 Q 35.3 227.8 34.13 227.8 M 34.13 227.8 M 34.14 227.08 Q 35.67 227.08 35.67 223.97 Q 35.67 220.94 34.16 220.94 Q 32.66 220.94 32.66 224 Q 32.66 227.08 34.14 227.08 M 34.14 227.08 M 37.98 227.62 L 37.98 226.41 L 39.18 226.41 L 39.18 227.62 M 37.98 227.62 M 41.5 227.62 L 41.5 226.9 L 42.95 226.9 L 42.95 221.19 L 41.5 221.56 L 41.5 220.81 L 43.92 220.21 L 43.92 226.9 L 45.36 226.9 L 45.36 227.62 M 41.5 227.62 M 49.13 227.8 Q 48.02 227.8 47.33 226.75 Q 46.63 225.7 46.63 224 Q 46.63 222.29 47.33 221.25 Q 48.03 220.21 49.16 220.21 Q 50.3 220.21 51 221.25 Q 51.69 222.29 51.69 223.99 Q 51.69 225.73 51 226.76 Q 50.3 227.8 49.13 227.8 M 49.13 227.8 M 49.14 227.08 Q 50.67 227.08 50.67 223.97 Q 50.67 220.94 49.16 220.94 Q 47.66 220.94 47.66 224 Q 47.66 227.08 49.14 227.08 M 49.14 227.08 M 55.13 227.8 Q 54.02 227.8 53.33 226.75 Q 52.63 225.7 52.63 224 Q 52.63 222.29 53.33 221.25 Q 54.03 220.21 55.16 220.21 Q 56.3 220.21 57 221.25 Q 57.69 222.29 57.69 223.99 Q 57.69 225.73 57 226.76 Q 56.3 227.8 55.13 227.8 M 55.13 227.8 M 55.14 227.08 Q 56.67 227.08 56.67 223.97 Q 56.67 220.94 55.16 220.94 Q 53.66 220.94 53.66 224 Q 53.66 227.08 55.14 227.08 M 55.14 227.08"/></g><line x1="62" y1="223.84" x2="64" y2="223.84" style="stroke-width: 1.0;stroke: rgb(128,128,128);stroke-opacity: 1.0;" transform="matrix(1,0,0,1,0,0)" clip-path="url(#93182013592798clip-0)"/><g style="fill: rgb(0,0,0); fill-opacity: 1.0; stroke: none" transform="matrix(1,0,0,1,0,0)" clip-path="url(#93182013592798clip-0)"><path d="M 34.13 201.76 Q 33.02 201.76 32.33 200.71 Q 31.63 199.66 31.63 197.96 Q 31.63 196.25 32.33 195.21 Q 33.03 194.17 34.16 194.17 Q 35.3 194.17 36 195.21 Q 36.69 196.25 36.69 197.95 Q 36.69 199.69 36 200.72 Q 35.3 201.76 34.13 201.76 M 34.13 201.76 M 34.14 201.04 Q 35.67 201.04 35.67 197.93 Q 35.67 194.9 34.16 194.9 Q 32.66 194.9 32.66 197.96 Q 32.66 201.04 34.14 201.04 M 34.14 201.04 M 37.98 201.58 L 37.98 200.37 L 39.18 200.37 L 39.18 201.58 M 37.98 201.58 M 41.5 201.58 L 41.5 200.86 L 42.95 200.86 L 42.95 195.15 L 41.5 195.52 L 41.5 194.77 L 43.92 194.17 L 43.92 200.86 L 45.36 200.86 L 45.36 201.58 M 41.5 201.58 M 46.83 201.58 L 46.83 200.73 Q 47.25 199.75 48.53 198.6 L 49.08 198.1 Q 50.15 197.14 50.15 196.19 Q 50.15 195.59 49.78 195.24 Q 49.42 194.9 48.78 194.9 Q 48.03 194.9 47.01 195.48 L 47.01 194.63 Q 47.97 194.17 48.92 194.17 Q 49.94 194.17 50.55 194.72 Q 51.17 195.27 51.17 196.17 Q 51.17 196.82 50.86 197.32 Q 50.55 197.82 49.7 198.54 L 49.33 198.86 Q 48.17 199.84 47.99 200.73 L 51.13 200.73 L 51.13 201.58 M 46.83 201.58 M 53.22 201.61 L 53.22 200.75 Q 53.93 201.04 54.58 201.04 Q 55.3 201.04 55.7 200.62 Q 56.11 200.2 56.11 199.46 Q 56.11 197.83 53.87 197.83 Q 53.62 197.83 53.34 197.87 L 53.34 194.35 L 57 194.35 L 57 195.19 L 54.18 195.19 L 54.18 197.1 Q 55.57 197.1 56.36 197.74 Q 57.14 198.38 57.14 199.51 Q 57.14 200.56 56.43 201.16 Q 55.72 201.76 54.46 201.76 Q 53.91 201.76 53.22 201.61 M 53.22 201.61"/></g><line x1="62" y1="197.8" x2="64" y2="197.8" style="stroke-width: 1.0;stroke: rgb(128,128,128);stroke-opacity: 1.0;" transform="matrix(1,0,0,1,0,0)" clip-path="url(#93182013592798clip-0)"/><g style="fill: rgb(0,0,0); fill-opacity: 1.0; stroke: none" transform="matrix(1,0,0,1,0,0)" clip-path="url(#93182013592798clip-0)"><path d="M 34.13 175.72 Q 33.02 175.72 32.33 174.67 Q 31.63 173.62 31.63 171.92 Q 31.63 170.21 32.33 169.17 Q 33.03 168.13 34.16 168.13 Q 35.3 168.13 36 169.17 Q 36.69 170.21 36.69 171.91 Q 36.69 173.65 36 174.68 Q 35.3 175.72 34.13 175.72 M 34.13 175.72 M 34.14 175 Q 35.67 175 35.67 171.89 Q 35.67 168.86 34.16 168.86 Q 32.66 168.86 32.66 171.92 Q 32.66 175 34.14 175 M 34.14 175 M 37.98 175.54 L 37.98 174.33 L 39.18 174.33 L 39.18 175.54 M 37.98 175.54 M 41.5 175.54 L 41.5 174.82 L 42.95 174.82 L 42.95 169.11 L 41.5 169.48 L 41.5 168.73 L 43.92 168.13 L 43.92 174.82 L 45.36 174.82 L 45.36 175.54 M 41.5 175.54 M 47.22 175.57 L 47.22 174.71 Q 47.93 175 48.58 175 Q 49.3 175 49.7 174.58 Q 50.11 174.16 50.11 173.42 Q 50.11 171.79 47.87 171.79 Q 47.62 171.79 47.34 171.83 L 47.34 168.31 L 51 168.31 L 51 169.15 L 48.18 169.15 L 48.18 171.06 Q 49.57 171.06 50.36 171.7 Q 51.14 172.34 51.14 173.47 Q 51.14 174.52 50.43 175.12 Q 49.72 175.72 48.46 175.72 Q 47.91 175.72 47.22 175.57 M 47.22 175.57 M 55.13 175.72 Q 54.02 175.72 53.33 174.67 Q 52.63 173.62 52.63 171.92 Q 52.63 170.21 53.33 169.17 Q 54.03 168.13 55.16 168.13 Q 56.3 168.13 57 169.17 Q 57.69 170.21 57.69 171.91 Q 57.69 173.65 57 174.68 Q 56.3 175.72 55.13 175.72 M 55.13 175.72 M 55.14 175 Q 56.67 175 56.67 171.89 Q 56.67 168.86 55.16 168.86 Q 53.66 168.86 53.66 171.92 Q 53.66 175 55.14 175 M 55.14 175"/></g><line x1="62" y1="171.76" x2="64" y2="171.76" style="stroke-width: 1.0;stroke: rgb(128,128,128);stroke-opacity: 1.0;" transform="matrix(1,0,0,1,0,0)" clip-path="url(#93182013592798clip-0)"/><g style="fill: rgb(0,0,0); fill-opacity: 1.0; stroke: none" transform="matrix(1,0,0,1,0,0)" clip-path="url(#93182013592798clip-0)"><path d="M 34.13 149.68 Q 33.02 149.68 32.33 148.63 Q 31.63 147.58 31.63 145.88 Q 31.63 144.17 32.33 143.13 Q 33.03 142.09 34.16 142.09 Q 35.3 142.09 36 143.13 Q 36.69 144.17 36.69 145.87 Q 36.69 147.61 36 148.64 Q 35.3 149.68 34.13 149.68 M 34.13 149.68 M 34.14 148.96 Q 35.67 148.96 35.67 145.85 Q 35.67 142.82 34.16 142.82 Q 32.66 142.82 32.66 145.88 Q 32.66 148.96 34.14 148.96 M 34.14 148.96 M 37.98 149.5 L 37.98 148.29 L 39.18 148.29 L 39.18 149.5 M 37.98 149.5 M 41.5 149.5 L 41.5 148.78 L 42.95 148.78 L 42.95 143.07 L 41.5 143.44 L 41.5 142.69 L 43.92 142.09 L 43.92 148.78 L 45.36 148.78 L 45.36 149.5 M 41.5 149.5 M 47.5 149.5 Q 47.65 148.66 47.91 148.04 Q 48.17 147.42 48.83 146.35 L 50.8 143.18 L 47.08 143.18 L 47.08 142.27 L 51.72 142.27 L 51.72 143.18 Q 48.94 147.27 48.61 149.5 M 47.5 149.5 M 53.22 149.53 L 53.22 148.67 Q 53.93 148.96 54.58 148.96 Q 55.3 148.96 55.7 148.54 Q 56.11 148.12 56.11 147.38 Q 56.11 145.75 53.87 145.75 Q 53.62 145.75 53.34 145.79 L 53.34 142.27 L 57 142.27 L 57 143.11 L 54.18 143.11 L 54.18 145.02 Q 55.57 145.02 56.36 145.66 Q 57.14 146.3 57.14 147.43 Q 57.14 148.48 56.43 149.08 Q 55.72 149.68 54.46 149.68 Q 53.91 149.68 53.22 149.53 M 53.22 149.53"/></g><line x1="62" y1="145.72" x2="64" y2="145.72" style="stroke-width: 1.0;stroke: rgb(128,128,128);stroke-opacity: 1.0;" transform="matrix(1,0,0,1,0,0)" clip-path="url(#93182013592798clip-0)"/><g style="fill: rgb(0,0,0); fill-opacity: 1.0; stroke: none" transform="matrix(1,0,0,1,0,0)" clip-path="url(#93182013592798clip-0)"><path d="M 34.13 123.64 Q 33.02 123.64 32.33 122.59 Q 31.63 121.54 31.63 119.84 Q 31.63 118.13 32.33 117.09 Q 33.03 116.05 34.16 116.05 Q 35.3 116.05 36 117.09 Q 36.69 118.13 36.69 119.83 Q 36.69 121.57 36 122.6 Q 35.3 123.64 34.13 123.64 M 34.13 123.64 M 34.14 122.92 Q 35.67 122.92 35.67 119.81 Q 35.67 116.78 34.16 116.78 Q 32.66 116.78 32.66 119.84 Q 32.66 122.92 34.14 122.92 M 34.14 122.92 M 37.98 123.46 L 37.98 122.25 L 39.18 122.25 L 39.18 123.46 M 37.98 123.46 M 40.83 123.46 L 40.83 122.62 Q 41.25 121.63 42.53 120.48 L 43.08 119.98 Q 44.15 119.02 44.15 118.07 Q 44.15 117.47 43.78 117.12 Q 43.42 116.78 42.78 116.78 Q 42.03 116.78 41.01 117.36 L 41.01 116.51 Q 41.97 116.05 42.92 116.05 Q 43.94 116.05 44.55 116.6 Q 45.17 117.15 45.17 118.05 Q 45.17 118.7 44.86 119.2 Q 44.55 119.7 43.7 120.42 L 43.33 120.74 Q 42.17 121.72 41.99 122.62 L 45.13 122.62 L 45.13 123.46 M 40.83 123.46 M 49.13 123.64 Q 48.02 123.64 47.33 122.59 Q 46.63 121.54 46.63 119.84 Q 46.63 118.13 47.33 117.09 Q 48.03 116.05 49.16 116.05 Q 50.3 116.05 51 117.09 Q 51.69 118.13 51.69 119.83 Q 51.69 121.57 51 122.6 Q 50.3 123.64 49.13 123.64 M 49.13 123.64 M 49.14 122.92 Q 50.67 122.92 50.67 119.81 Q 50.67 116.78 49.16 116.78 Q 47.66 116.78 47.66 119.84 Q 47.66 122.92 49.14 122.92 M 49.14 122.92 M 55.13 123.64 Q 54.02 123.64 53.33 122.59 Q 52.63 121.54 52.63 119.84 Q 52.63 118.13 53.33 117.09 Q 54.03 116.05 55.16 116.05 Q 56.3 116.05 57 117.09 Q 57.69 118.13 57.69 119.83 Q 57.69 121.57 57 122.6 Q 56.3 123.64 55.13 123.64 M 55.13 123.64 M 55.14 122.92 Q 56.67 122.92 56.67 119.81 Q 56.67 116.78 55.16 116.78 Q 53.66 116.78 53.66 119.84 Q 53.66 122.92 55.14 122.92 M 55.14 122.92"/></g><line x1="62" y1="119.68" x2="64" y2="119.68" style="stroke-width: 1.0;stroke: rgb(128,128,128);stroke-opacity: 1.0;" transform="matrix(1,0,0,1,0,0)" clip-path="url(#93182013592798clip-0)"/><g style="fill: rgb(0,0,0); fill-opacity: 1.0; stroke: none" transform="matrix(1,0,0,1,0,0)" clip-path="url(#93182013592798clip-0)"><path d="M 34.13 97.6 Q 33.02 97.6 32.33 96.55 Q 31.63 95.5 31.63 93.8 Q 31.63 92.09 32.33 91.05 Q 33.03 90.01 34.16 90.01 Q 35.3 90.01 36 91.05 Q 36.69 92.09 36.69 93.79 Q 36.69 95.53 36 96.56 Q 35.3 97.6 34.13 97.6 M 34.13 97.6 M 34.14 96.88 Q 35.67 96.88 35.67 93.77 Q 35.67 90.74 34.16 90.74 Q 32.66 90.74 32.66 93.8 Q 32.66 96.88 34.14 96.88 M 34.14 96.88 M 37.98 97.42 L 37.98 96.21 L 39.18 96.21 L 39.18 97.42 M 37.98 97.42 M 40.83 97.42 L 40.83 96.58 Q 41.25 95.59 42.53 94.44 L 43.08 93.94 Q 44.15 92.98 44.15 92.03 Q 44.15 91.43 43.78 91.08 Q 43.42 90.74 42.78 90.74 Q 42.03 90.74 41.01 91.32 L 41.01 90.47 Q 41.97 90.01 42.92 90.01 Q 43.94 90.01 44.55 90.56 Q 45.17 91.11 45.17 92.01 Q 45.17 92.66 44.86 93.16 Q 44.55 93.67 43.7 94.38 L 43.33 94.7 Q 42.17 95.68 41.99 96.58 L 45.13 96.58 L 45.13 97.42 M 40.83 97.42 M 46.83 97.42 L 46.83 96.58 Q 47.25 95.59 48.53 94.44 L 49.08 93.94 Q 50.15 92.98 50.15 92.03 Q 50.15 91.43 49.78 91.08 Q 49.42 90.74 48.78 90.74 Q 48.03 90.74 47.01 91.32 L 47.01 90.47 Q 47.97 90.01 48.92 90.01 Q 49.94 90.01 50.55 90.56 Q 51.17 91.11 51.17 92.01 Q 51.17 92.66 50.86 93.16 Q 50.55 93.67 49.7 94.38 L 49.33 94.7 Q 48.17 95.68 47.99 96.58 L 51.13 96.58 L 51.13 97.42 M 46.83 97.42 M 53.22 97.45 L 53.22 96.59 Q 53.93 96.88 54.58 96.88 Q 55.3 96.88 55.7 96.46 Q 56.11 96.04 56.11 95.3 Q 56.11 93.67 53.87 93.67 Q 53.62 93.67 53.34 93.71 L 53.34 90.19 L 57 90.19 L 57 91.03 L 54.18 91.03 L 54.18 92.94 Q 55.57 92.94 56.36 93.58 Q 57.14 94.22 57.14 95.35 Q 57.14 96.4 56.43 97 Q 55.72 97.6 54.46 97.6 Q 53.91 97.6 53.22 97.45 M 53.22 97.45"/></g><line x1="62" y1="93.64" x2="64" y2="93.64" style="stroke-width: 1.0;stroke: rgb(128,128,128);stroke-opacity: 1.0;" transform="matrix(1,0,0,1,0,0)" clip-path="url(#93182013592798clip-0)"/><g style="fill: rgb(0,0,0); fill-opacity: 1.0; stroke: none" transform="matrix(1,0,0,1,0,0)" clip-path="url(#93182013592798clip-0)"><path d="M 34.13 71.56 Q 33.02 71.56 32.33 70.51 Q 31.63 69.46 31.63 67.76 Q 31.63 66.05 32.33 65.01 Q 33.03 63.97 34.16 63.97 Q 35.3 63.97 36 65.01 Q 36.69 66.05 36.69 67.75 Q 36.69 69.49 36 70.52 Q 35.3 71.56 34.13 71.56 M 34.13 71.56 M 34.14 70.84 Q 35.67 70.84 35.67 67.73 Q 35.67 64.7 34.16 64.7 Q 32.66 64.7 32.66 67.76 Q 32.66 70.84 34.14 70.84 M 34.14 70.84 M 37.98 71.38 L 37.98 70.17 L 39.18 70.17 L 39.18 71.38 M 37.98 71.38 M 40.83 71.38 L 40.83 70.54 Q 41.25 69.55 42.53 68.4 L 43.08 67.9 Q 44.15 66.94 44.15 65.99 Q 44.15 65.39 43.78 65.04 Q 43.42 64.7 42.78 64.7 Q 42.03 64.7 41.01 65.28 L 41.01 64.43 Q 41.97 63.97 42.92 63.97 Q 43.94 63.97 44.55 64.52 Q 45.17 65.07 45.17 65.97 Q 45.17 66.62 44.86 67.12 Q 44.55 67.63 43.7 68.34 L 43.33 68.66 Q 42.17 69.64 41.99 70.54 L 45.13 70.54 L 45.13 71.38 M 40.83 71.38 M 47.22 71.41 L 47.22 70.55 Q 47.93 70.84 48.58 70.84 Q 49.3 70.84 49.7 70.42 Q 50.11 70 50.11 69.26 Q 50.11 67.63 47.87 67.63 Q 47.62 67.63 47.34 67.67 L 47.34 64.15 L 51 64.15 L 51 64.99 L 48.18 64.99 L 48.18 66.9 Q 49.57 66.9 50.36 67.54 Q 51.14 68.18 51.14 69.31 Q 51.14 70.36 50.43 70.96 Q 49.72 71.56 48.46 71.56 Q 47.91 71.56 47.22 71.41 M 47.22 71.41 M 55.13 71.56 Q 54.02 71.56 53.33 70.51 Q 52.63 69.46 52.63 67.76 Q 52.63 66.05 53.33 65.01 Q 54.03 63.97 55.16 63.97 Q 56.3 63.97 57 65.01 Q 57.69 66.05 57.69 67.75 Q 57.69 69.49 57 70.52 Q 56.3 71.56 55.13 71.56 M 55.13 71.56 M 55.14 70.84 Q 56.67 70.84 56.67 67.73 Q 56.67 64.7 55.16 64.7 Q 53.66 64.7 53.66 67.76 Q 53.66 70.84 55.14 70.84 M 55.14 70.84"/></g><line x1="62" y1="67.6" x2="64" y2="67.6" style="stroke-width: 1.0;stroke: rgb(128,128,128);stroke-opacity: 1.0;" transform="matrix(1,0,0,1,0,0)" clip-path="url(#93182013592798clip-0)"/><g style="fill: rgb(0,0,0); fill-opacity: 1.0; stroke: none" transform="matrix(1,0,0,1,0,0)" clip-path="url(#93182013592798clip-0)"><path d="M 34.13 45.52 Q 33.02 45.52 32.33 44.47 Q 31.63 43.42 31.63 41.72 Q 31.63 40.01 32.33 38.97 Q 33.03 37.93 34.16 37.93 Q 35.3 37.93 36 38.97 Q 36.69 40.01 36.69 41.71 Q 36.69 43.45 36 44.48 Q 35.3 45.52 34.13 45.52 M 34.13 45.52 M 34.14 44.8 Q 35.67 44.8 35.67 41.69 Q 35.67 38.66 34.16 38.66 Q 32.66 38.66 32.66 41.72 Q 32.66 44.8 34.14 44.8 M 34.14 44.8 M 37.98 45.34 L 37.98 44.13 L 39.18 44.13 L 39.18 45.34 M 37.98 45.34 M 40.83 45.34 L 40.83 44.5 Q 41.25 43.51 42.53 42.36 L 43.08 41.86 Q 44.15 40.9 44.15 39.95 Q 44.15 39.35 43.78 39 Q 43.42 38.66 42.78 38.66 Q 42.03 38.66 41.01 39.24 L 41.01 38.39 Q 41.97 37.93 42.92 37.93 Q 43.94 37.93 44.55 38.48 Q 45.17 39.03 45.17 39.93 Q 45.17 40.58 44.86 41.08 Q 44.55 41.59 43.7 42.3 L 43.33 42.62 Q 42.17 43.6 41.99 44.5 L 45.13 44.5 L 45.13 45.34 M 40.83 45.34 M 47.5 45.34 Q 47.65 44.5 47.91 43.88 Q 48.17 43.26 48.83 42.19 L 50.8 39.02 L 47.08 39.02 L 47.08 38.11 L 51.72 38.11 L 51.72 39.02 Q 48.94 43.11 48.61 45.34 M 47.5 45.34 M 53.22 45.37 L 53.22 44.51 Q 53.93 44.8 54.58 44.8 Q 55.3 44.8 55.7 44.38 Q 56.11 43.96 56.11 43.22 Q 56.11 41.59 53.87 41.59 Q 53.62 41.59 53.34 41.63 L 53.34 38.11 L 57 38.11 L 57 38.95 L 54.18 38.95 L 54.18 40.86 Q 55.57 40.86 56.36 41.5 Q 57.14 42.14 57.14 43.27 Q 57.14 44.32 56.43 44.92 Q 55.72 45.52 54.46 45.52 Q 53.91 45.52 53.22 45.37 M 53.22 45.37"/></g><line x1="62" y1="41.56" x2="64" y2="41.56" style="stroke-width: 1.0;stroke: rgb(128,128,128);stroke-opacity: 1.0;" transform="matrix(1,0,0,1,0,0)" clip-path="url(#93182013592798clip-0)"/><g style="fill: rgb(0,0,0); fill-opacity: 1.0; stroke: none" transform="matrix(0,-1,1,0,-156.566406,194.433594)" clip-path="url(#93182013592798clip-1)"><path d="M 6.42 180.04 L 3.14 171.36 L 4.38 171.36 L 7.06 178.46 L 9.65 171.36 L 10.73 171.36 L 7.58 180.04 M 6.42 180.04 M 15.37 179.23 Q 14.33 180.18 13.37 180.18 Q 12.58 180.18 12.06 179.69 Q 11.54 179.19 11.54 178.44 Q 11.54 177.39 12.41 176.83 Q 13.29 176.27 14.92 176.27 L 15.2 176.27 L 15.2 175.51 Q 15.2 174.4 14.06 174.4 Q 13.15 174.4 12.09 174.96 L 12.09 174.01 Q 13.25 173.53 14.27 173.53 Q 15.34 173.53 15.85 174.01 Q 16.35 174.49 16.35 175.51 L 16.35 178.39 Q 16.35 179.38 16.96 179.38 Q 17.04 179.38 17.19 179.36 L 17.27 179.99 Q 16.88 180.18 16.4 180.18 Q 15.59 180.18 15.37 179.23 M 15.37 179.23 M 15.2 178.6 L 15.2 176.95 L 14.81 176.94 Q 13.86 176.94 13.28 177.3 Q 12.69 177.66 12.69 178.25 Q 12.69 178.66 12.98 178.95 Q 13.28 179.24 13.7 179.24 Q 14.42 179.24 15.2 178.6 M 15.2 178.6 M 19.09 180.04 L 19.09 170.78 L 20.24 170.78 L 20.24 180.04 M 19.09 180.04 M 27.07 180.04 L 27.07 178.84 Q 26.15 180.18 24.83 180.18 Q 24 180.18 23.51 179.66 Q 23.02 179.13 23.02 178.24 L 23.02 173.67 L 24.17 173.67 L 24.17 177.87 Q 24.17 178.58 24.38 178.88 Q 24.59 179.19 25.07 179.19 Q 26.13 179.19 27.07 177.8 L 27.07 173.67 L 28.22 173.67 L 28.22 180.04 M 27.07 180.04 M 35.75 179.83 Q 34.59 180.18 33.77 180.18 Q 32.36 180.18 31.47 179.25 Q 30.58 178.31 30.58 176.82 Q 30.58 175.38 31.37 174.45 Q 32.15 173.53 33.37 173.53 Q 34.52 173.53 35.15 174.35 Q 35.78 175.17 35.78 176.68 L 35.78 177.04 L 31.76 177.04 Q 32.01 179.3 33.98 179.3 Q 34.7 179.3 35.75 178.92 M 35.75 179.83 M 31.81 176.17 L 34.62 176.17 Q 34.62 174.39 33.3 174.39 Q 31.97 174.39 31.81 176.17 M 31.81 176.17"/></g><line x1="64" y1="328" x2="592" y2="328" style="stroke-width: 0.5;stroke: rgb(192,192,192);stroke-opacity: 1.0;stroke-dasharray: 2.0, 2.0;" transform="matrix(1,0,0,1,0,0)" clip-path="url(#93182013592798clip-2)"/><line x1="64" y1="301.96" x2="592" y2="301.96" style="stroke-width: 0.5;stroke: rgb(192,192,192);stroke-opacity: 1.0;stroke-dasharray: 2.0, 2.0;" transform="matrix(1,0,0,1,0,0)" clip-path="url(#93182013592798clip-2)"/><line x1="64" y1="275.92" x2="592" y2="275.92" style="stroke-width: 0.5;stroke: rgb(192,192,192);stroke-opacity: 1.0;stroke-dasharray: 2.0, 2.0;" transform="matrix(1,0,0,1,0,0)" clip-path="url(#93182013592798clip-2)"/><line x1="64" y1="249.88" x2="592" y2="249.88" style="stroke-width: 0.5;stroke: rgb(192,192,192);stroke-opacity: 1.0;stroke-dasharray: 2.0, 2.0;" transform="matrix(1,0,0,1,0,0)" clip-path="url(#93182013592798clip-2)"/><line x1="64" y1="223.84" x2="592" y2="223.84" style="stroke-width: 0.5;stroke: rgb(192,192,192);stroke-opacity: 1.0;stroke-dasharray: 2.0, 2.0;" transform="matrix(1,0,0,1,0,0)" clip-path="url(#93182013592798clip-2)"/><line x1="64" y1="197.8" x2="592" y2="197.8" style="stroke-width: 0.5;stroke: rgb(192,192,192);stroke-opacity: 1.0;stroke-dasharray: 2.0, 2.0;" transform="matrix(1,0,0,1,0,0)" clip-path="url(#93182013592798clip-2)"/><line x1="64" y1="171.76" x2="592" y2="171.76" style="stroke-width: 0.5;stroke: rgb(192,192,192);stroke-opacity: 1.0;stroke-dasharray: 2.0, 2.0;" transform="matrix(1,0,0,1,0,0)" clip-path="url(#93182013592798clip-2)"/><line x1="64" y1="145.72" x2="592" y2="145.72" style="stroke-width: 0.5;stroke: rgb(192,192,192);stroke-opacity: 1.0;stroke-dasharray: 2.0, 2.0;" transform="matrix(1,0,0,1,0,0)" clip-path="url(#93182013592798clip-2)"/><line x1="64" y1="119.68" x2="592" y2="119.68" style="stroke-width: 0.5;stroke: rgb(192,192,192);stroke-opacity: 1.0;stroke-dasharray: 2.0, 2.0;" transform="matrix(1,0,0,1,0,0)" clip-path="url(#93182013592798clip-2)"/><line x1="64" y1="93.64" x2="592" y2="93.64" style="stroke-width: 0.5;stroke: rgb(192,192,192);stroke-opacity: 1.0;stroke-dasharray: 2.0, 2.0;" transform="matrix(1,0,0,1,0,0)" clip-path="url(#93182013592798clip-2)"/><line x1="64" y1="67.6" x2="592" y2="67.6" style="stroke-width: 0.5;stroke: rgb(192,192,192);stroke-opacity: 1.0;stroke-dasharray: 2.0, 2.0;" transform="matrix(1,0,0,1,0,0)" clip-path="url(#93182013592798clip-2)"/><line x1="64" y1="41.56" x2="592" y2="41.56" style="stroke-width: 0.5;stroke: rgb(192,192,192);stroke-opacity: 1.0;stroke-dasharray: 2.0, 2.0;" transform="matrix(1,0,0,1,0,0)" clip-path="url(#93182013592798clip-2)"/><line x1="99.64" y1="38.06" x2="99.64" y2="38.06" style="stroke-width: 1.0;stroke: rgb(0,0,0);stroke-opacity: 1.0;" transform="matrix(1,0,0,1,0,0)" clip-path="url(#93182013592798clip-2)"/><line x1="90.4" y1="38.06" x2="108.88" y2="38.06" style="stroke-width: 1.0;stroke: rgb(0,0,0);stroke-opacity: 1.0;" transform="matrix(1,0,0,1,0,0)" clip-path="url(#93182013592798clip-2)"/><line x1="99.64" y1="38.06" x2="99.64" y2="38.06" style="stroke-width: 1.0;stroke: rgb(0,0,0);stroke-opacity: 1.0;" transform="matrix(1,0,0,1,0,0)" clip-path="url(#93182013592798clip-2)"/><line x1="90.4" y1="38.06" x2="108.88" y2="38.06" style="stroke-width: 1.0;stroke: rgb(0,0,0);stroke-opacity: 1.0;" transform="matrix(1,0,0,1,0,0)" clip-path="url(#93182013592798clip-2)"/><rect x="90.4" y="38.06" width="18.48" height="0" style="stroke-width: 1.0;stroke: rgb(0,0,0);stroke-opacity: 1.0;; fill: none" transform="matrix(1,0,0,1,0,0)" clip-path="url(#93182013592798clip-2)"/><line x1="90.4" y1="38.06" x2="108.88" y2="38.06" style="stroke-width: 1.0;stroke: rgb(0,0,0);stroke-opacity: 1.0;" transform="matrix(1,0,0,1,0,0)" clip-path="url(#93182013592798clip-2)"/><rect x="114.44" y="38.01" width="18.48" height="0.09" style="fill: rgb(192,192,192); fill-opacity: 1.0" transform="matrix(1,0,0,1,0,0)" clip-path="url(#93182013592798clip-2)"/><line x1="123.68" y1="37.97" x2="123.68" y2="38.01" style="stroke-width: 1.0;stroke: rgb(0,0,0);stroke-opacity: 1.0;" transform="matrix(1,0,0,1,0,0)" clip-path="url(#93182013592798clip-2)"/><line x1="114.44" y1="37.97" x2="132.92" y2="37.97" style="stroke-width: 1.0;stroke: rgb(0,0,0);stroke-opacity: 1.0;" transform="matrix(1,0,0,1,0,0)" clip-path="url(#93182013592798clip-2)"/><line x1="123.68" y1="38.14" x2="123.68" y2="38.1" style="stroke-width: 1.0;stroke: rgb(0,0,0);stroke-opacity: 1.0;" transform="matrix(1,0,0,1,0,0)" clip-path="url(#93182013592798clip-2)"/><line x1="114.44" y1="38.14" x2="132.92" y2="38.14" style="stroke-width: 1.0;stroke: rgb(0,0,0);stroke-opacity: 1.0;" transform="matrix(1,0,0,1,0,0)" clip-path="url(#93182013592798clip-2)"/><rect x="114.44" y="38.01" width="18.48" height="0.09" style="stroke-width: 1.0;stroke: rgb(0,0,0);stroke-opacity: 1.0;; fill: none" transform="matrix(1,0,0,1,0,0)" clip-path="url(#93182013592798clip-2)"/><line x1="114.44" y1="38.06" x2="132.92" y2="38.06" style="stroke-width: 1.0;stroke: rgb(0,0,0);stroke-opacity: 1.0;" transform="matrix(1,0,0,1,0,0)" clip-path="url(#93182013592798clip-2)"/><rect x="138.48" y="37.93" width="18.48" height="0.22" style="fill: rgb(192,192,192); fill-opacity: 1.0" transform="matrix(1,0,0,1,0,0)" clip-path="url(#93182013592798clip-2)"/><line x1="147.72" y1="37.89" x2="147.72" y2="37.93" style="stroke-width: 1.0;stroke: rgb(0,0,0);stroke-opacity: 1.0;" transform="matrix(1,0,0,1,0,0)" clip-path="url(#93182013592798clip-2)"/><line x1="138.48" y1="37.89" x2="156.96" y2="37.89" style="stroke-width: 1.0;stroke: rgb(0,0,0);stroke-opacity: 1.0;" transform="matrix(1,0,0,1,0,0)" clip-path="url(#93182013592798clip-2)"/><line x1="147.72" y1="38.35" x2="147.72" y2="38.14" style="stroke-width: 1.0;stroke: rgb(0,0,0);stroke-opacity: 1.0;" transform="matrix(1,0,0,1,0,0)" clip-path="url(#93182013592798clip-2)"/><line x1="138.48" y1="38.35" x2="156.96" y2="38.35" style="stroke-width: 1.0;stroke: rgb(0,0,0);stroke-opacity: 1.0;" transform="matrix(1,0,0,1,0,0)" clip-path="url(#93182013592798clip-2)"/><rect x="138.48" y="37.93" width="18.48" height="0.22" style="stroke-width: 1.0;stroke: rgb(0,0,0);stroke-opacity: 1.0;; fill: none" transform="matrix(1,0,0,1,0,0)" clip-path="url(#93182013592798clip-2)"/><line x1="138.48" y1="38.01" x2="156.96" y2="38.01" style="stroke-width: 1.0;stroke: rgb(0,0,0);stroke-opacity: 1.0;" transform="matrix(1,0,0,1,0,0)" clip-path="url(#93182013592798clip-2)"/><rect x="162.51" y="37.96" width="18.48" height="0.19" style="fill: rgb(192,192,192); fill-opacity: 1.0" transform="matrix(1,0,0,1,0,0)" clip-path="url(#93182013592798clip-2)"/><line x1="171.75" y1="37.89" x2="171.75" y2="37.96" style="stroke-width: 1.0;stroke: rgb(0,0,0);stroke-opacity: 1.0;" transform="matrix(1,0,0,1,0,0)" clip-path="url(#93182013592798clip-2)"/><line x1="162.51" y1="37.89" x2="180.99" y2="37.89" style="stroke-width: 1.0;stroke: rgb(0,0,0);stroke-opacity: 1.0;" transform="matrix(1,0,0,1,0,0)" clip-path="url(#93182013592798clip-2)"/><line x1="171.75" y1="38.35" x2="171.75" y2="38.14" style="stroke-width: 1.0;stroke: rgb(0,0,0);stroke-opacity: 1.0;" transform="matrix(1,0,0,1,0,0)" clip-path="url(#93182013592798clip-2)"/><line x1="162.51" y1="38.35" x2="180.99" y2="38.35" style="stroke-width: 1.0;stroke: rgb(0,0,0);stroke-opacity: 1.0;" transform="matrix(1,0,0,1,0,0)" clip-path="url(#93182013592798clip-2)"/><rect x="162.51" y="37.96" width="18.48" height="0.19" style="stroke-width: 1.0;stroke: rgb(0,0,0);stroke-opacity: 1.0;; fill: none" transform="matrix(1,0,0,1,0,0)" clip-path="url(#93182013592798clip-2)"/><line x1="162.51" y1="38.02" x2="180.99" y2="38.02" style="stroke-width: 1.0;stroke: rgb(0,0,0);stroke-opacity: 1.0;" transform="matrix(1,0,0,1,0,0)" clip-path="url(#93182013592798clip-2)"/><rect x="186.55" y="37.97" width="18.48" height="0.17" style="fill: rgb(192,192,192); fill-opacity: 1.0" transform="matrix(1,0,0,1,0,0)" clip-path="url(#93182013592798clip-2)"/><line x1="195.79" y1="37.89" x2="195.79" y2="37.97" style="stroke-width: 1.0;stroke: rgb(0,0,0);stroke-opacity: 1.0;" transform="matrix(1,0,0,1,0,0)" clip-path="url(#93182013592798clip-2)"/><line x1="186.55" y1="37.89" x2="205.03" y2="37.89" style="stroke-width: 1.0;stroke: rgb(0,0,0);stroke-opacity: 1.0;" transform="matrix(1,0,0,1,0,0)" clip-path="url(#93182013592798clip-2)"/><line x1="195.79" y1="38.35" x2="195.79" y2="38.14" style="stroke-width: 1.0;stroke: rgb(0,0,0);stroke-opacity: 1.0;" transform="matrix(1,0,0,1,0,0)" clip-path="url(#93182013592798clip-2)"/><line x1="186.55" y1="38.35" x2="205.03" y2="38.35" style="stroke-width: 1.0;stroke: rgb(0,0,0);stroke-opacity: 1.0;" transform="matrix(1,0,0,1,0,0)" clip-path="url(#93182013592798clip-2)"/><rect x="186.55" y="37.97" width="18.48" height="0.17" style="stroke-width: 1.0;stroke: rgb(0,0,0);stroke-opacity: 1.0;; fill: none" transform="matrix(1,0,0,1,0,0)" clip-path="url(#93182013592798clip-2)"/><line x1="186.55" y1="38.01" x2="205.03" y2="38.01" style="stroke-width: 1.0;stroke: rgb(0,0,0);stroke-opacity: 1.0;" transform="matrix(1,0,0,1,0,0)" clip-path="url(#93182013592798clip-2)"/><rect x="210.59" y="37.97" width="18.48" height="0.18" style="fill: rgb(192,192,192); fill-opacity: 1.0" transform="matrix(1,0,0,1,0,0)" clip-path="url(#93182013592798clip-2)"/><line x1="219.83" y1="37.89" x2="219.83" y2="37.97" style="stroke-width: 1.0;stroke: rgb(0,0,0);stroke-opacity: 1.0;" transform="matrix(1,0,0,1,0,0)" clip-path="url(#93182013592798clip-2)"/><line x1="210.59" y1="37.89" x2="229.07" y2="37.89" style="stroke-width: 1.0;stroke: rgb(0,0,0);stroke-opacity: 1.0;" transform="matrix(1,0,0,1,0,0)" clip-path="url(#93182013592798clip-2)"/><line x1="219.83" y1="38.36" x2="219.83" y2="38.14" style="stroke-width: 1.0;stroke: rgb(0,0,0);stroke-opacity: 1.0;" transform="matrix(1,0,0,1,0,0)" clip-path="url(#93182013592798clip-2)"/><line x1="210.59" y1="38.36" x2="229.07" y2="38.36" style="stroke-width: 1.0;stroke: rgb(0,0,0);stroke-opacity: 1.0;" transform="matrix(1,0,0,1,0,0)" clip-path="url(#93182013592798clip-2)"/><rect x="210.59" y="37.97" width="18.48" height="0.18" style="stroke-width: 1.0;stroke: rgb(0,0,0);stroke-opacity: 1.0;; fill: none" transform="matrix(1,0,0,1,0,0)" clip-path="url(#93182013592798clip-2)"/><line x1="210.59" y1="38.01" x2="229.07" y2="38.01" style="stroke-width: 1.0;stroke: rgb(0,0,0);stroke-opacity: 1.0;" transform="matrix(1,0,0,1,0,0)" clip-path="url(#93182013592798clip-2)"/><g style="stroke-width: 1.0;stroke: rgb(192,192,192);stroke-opacity: 1.0;; fill: none" transform="matrix(1,0,0,1,0,0)" clip-path="url(#93182013592798clip-2)"><path d="M 222.91 34.57 C 222.91 36.27 221.53 37.65 219.83 37.65 C 218.13 37.65 216.75 36.27 216.75 34.57 C 216.75 32.87 218.13 31.49 219.83 31.49 C 221.53 31.49 222.91 32.87 222.91 34.57 M 222.91 34.57"/></g><rect x="234.63" y="37.95" width="18.48" height="0.22" style="fill: rgb(192,192,192); fill-opacity: 1.0" transform="matrix(1,0,0,1,0,0)" clip-path="url(#93182013592798clip-2)"/><line x1="243.87" y1="37.65" x2="243.87" y2="37.95" style="stroke-width: 1.0;stroke: rgb(0,0,0);stroke-opacity: 1.0;" transform="matrix(1,0,0,1,0,0)" clip-path="url(#93182013592798clip-2)"/><line x1="234.63" y1="37.65" x2="253.11" y2="37.65" style="stroke-width: 1.0;stroke: rgb(0,0,0);stroke-opacity: 1.0;" transform="matrix(1,0,0,1,0,0)" clip-path="url(#93182013592798clip-2)"/><line x1="243.87" y1="38.36" x2="243.87" y2="38.17" style="stroke-width: 1.0;stroke: rgb(0,0,0);stroke-opacity: 1.0;" transform="matrix(1,0,0,1,0,0)" clip-path="url(#93182013592798clip-2)"/><line x1="234.63" y1="38.36" x2="253.11" y2="38.36" style="stroke-width: 1.0;stroke: rgb(0,0,0);stroke-opacity: 1.0;" transform="matrix(1,0,0,1,0,0)" clip-path="url(#93182013592798clip-2)"/><rect x="234.63" y="37.95" width="18.48" height="0.22" style="stroke-width: 1.0;stroke: rgb(0,0,0);stroke-opacity: 1.0;; fill: none" transform="matrix(1,0,0,1,0,0)" clip-path="url(#93182013592798clip-2)"/><line x1="234.63" y1="38.03" x2="253.11" y2="38.03" style="stroke-width: 1.0;stroke: rgb(0,0,0);stroke-opacity: 1.0;" transform="matrix(1,0,0,1,0,0)" clip-path="url(#93182013592798clip-2)"/><rect x="258.67" y="37.95" width="18.48" height="0.22" style="fill: rgb(192,192,192); fill-opacity: 1.0" transform="matrix(1,0,0,1,0,0)" clip-path="url(#93182013592798clip-2)"/><line x1="267.91" y1="37.65" x2="267.91" y2="37.95" style="stroke-width: 1.0;stroke: rgb(0,0,0);stroke-opacity: 1.0;" transform="matrix(1,0,0,1,0,0)" clip-path="url(#93182013592798clip-2)"/><line x1="258.67" y1="37.65" x2="277.15" y2="37.65" style="stroke-width: 1.0;stroke: rgb(0,0,0);stroke-opacity: 1.0;" transform="matrix(1,0,0,1,0,0)" clip-path="url(#93182013592798clip-2)"/><line x1="267.91" y1="38.36" x2="267.91" y2="38.17" style="stroke-width: 1.0;stroke: rgb(0,0,0);stroke-opacity: 1.0;" transform="matrix(1,0,0,1,0,0)" clip-path="url(#93182013592798clip-2)"/><line x1="258.67" y1="38.36" x2="277.15" y2="38.36" style="stroke-width: 1.0;stroke: rgb(0,0,0);stroke-opacity: 1.0;" transform="matrix(1,0,0,1,0,0)" clip-path="url(#93182013592798clip-2)"/><rect x="258.67" y="37.95" width="18.48" height="0.22" style="stroke-width: 1.0;stroke: rgb(0,0,0);stroke-opacity: 1.0;; fill: none" transform="matrix(1,0,0,1,0,0)" clip-path="url(#93182013592798clip-2)"/><line x1="258.67" y1="38.04" x2="277.15" y2="38.04" style="stroke-width: 1.0;stroke: rgb(0,0,0);stroke-opacity: 1.0;" transform="matrix(1,0,0,1,0,0)" clip-path="url(#93182013592798clip-2)"/><rect x="282.7" y="37.93" width="18.48" height="0.26" style="fill: rgb(192,192,192); fill-opacity: 1.0" transform="matrix(1,0,0,1,0,0)" clip-path="url(#93182013592798clip-2)"/><line x1="291.94" y1="37.65" x2="291.94" y2="37.93" style="stroke-width: 1.0;stroke: rgb(0,0,0);stroke-opacity: 1.0;" transform="matrix(1,0,0,1,0,0)" clip-path="url(#93182013592798clip-2)"/><line x1="282.7" y1="37.65" x2="301.18" y2="37.65" style="stroke-width: 1.0;stroke: rgb(0,0,0);stroke-opacity: 1.0;" transform="matrix(1,0,0,1,0,0)" clip-path="url(#93182013592798clip-2)"/><line x1="291.94" y1="38.45" x2="291.94" y2="38.19" style="stroke-width: 1.0;stroke: rgb(0,0,0);stroke-opacity: 1.0;" transform="matrix(1,0,0,1,0,0)" clip-path="url(#93182013592798clip-2)"/><line x1="282.7" y1="38.45" x2="301.18" y2="38.45" style="stroke-width: 1.0;stroke: rgb(0,0,0);stroke-opacity: 1.0;" transform="matrix(1,0,0,1,0,0)" clip-path="url(#93182013592798clip-2)"/><rect x="282.7" y="37.93" width="18.48" height="0.26" style="stroke-width: 1.0;stroke: rgb(0,0,0);stroke-opacity: 1.0;; fill: none" transform="matrix(1,0,0,1,0,0)" clip-path="url(#93182013592798clip-2)"/><line x1="282.7" y1="38.03" x2="301.18" y2="38.03" style="stroke-width: 1.0;stroke: rgb(0,0,0);stroke-opacity: 1.0;" transform="matrix(1,0,0,1,0,0)" clip-path="url(#93182013592798clip-2)"/><rect x="306.74" y="37.94" width="18.48" height="0.23" style="fill: rgb(192,192,192); fill-opacity: 1.0" transform="matrix(1,0,0,1,0,0)" clip-path="url(#93182013592798clip-2)"/><line x1="315.98" y1="37.65" x2="315.98" y2="37.94" style="stroke-width: 1.0;stroke: rgb(0,0,0);stroke-opacity: 1.0;" transform="matrix(1,0,0,1,0,0)" clip-path="url(#93182013592798clip-2)"/><line x1="306.74" y1="37.65" x2="325.22" y2="37.65" style="stroke-width: 1.0;stroke: rgb(0,0,0);stroke-opacity: 1.0;" transform="matrix(1,0,0,1,0,0)" clip-path="url(#93182013592798clip-2)"/><line x1="315.98" y1="38.45" x2="315.98" y2="38.17" style="stroke-width: 1.0;stroke: rgb(0,0,0);stroke-opacity: 1.0;" transform="matrix(1,0,0,1,0,0)" clip-path="url(#93182013592798clip-2)"/><line x1="306.74" y1="38.45" x2="325.22" y2="38.45" style="stroke-width: 1.0;stroke: rgb(0,0,0);stroke-opacity: 1.0;" transform="matrix(1,0,0,1,0,0)" clip-path="url(#93182013592798clip-2)"/><rect x="306.74" y="37.94" width="18.48" height="0.23" style="stroke-width: 1.0;stroke: rgb(0,0,0);stroke-opacity: 1.0;; fill: none" transform="matrix(1,0,0,1,0,0)" clip-path="url(#93182013592798clip-2)"/><line x1="306.74" y1="38.03" x2="325.22" y2="38.03" style="stroke-width: 1.0;stroke: rgb(0,0,0);stroke-opacity: 1.0;" transform="matrix(1,0,0,1,0,0)" clip-path="url(#93182013592798clip-2)"/><rect x="330.78" y="37.94" width="18.48" height="0.25" style="fill: rgb(192,192,192); fill-opacity: 1.0" transform="matrix(1,0,0,1,0,0)" clip-path="url(#93182013592798clip-2)"/><line x1="340.02" y1="37.65" x2="340.02" y2="37.94" style="stroke-width: 1.0;stroke: rgb(0,0,0);stroke-opacity: 1.0;" transform="matrix(1,0,0,1,0,0)" clip-path="url(#93182013592798clip-2)"/><line x1="330.78" y1="37.65" x2="349.26" y2="37.65" style="stroke-width: 1.0;stroke: rgb(0,0,0);stroke-opacity: 1.0;" transform="matrix(1,0,0,1,0,0)" clip-path="url(#93182013592798clip-2)"/><line x1="340.02" y1="38.52" x2="340.02" y2="38.19" style="stroke-width: 1.0;stroke: rgb(0,0,0);stroke-opacity: 1.0;" transform="matrix(1,0,0,1,0,0)" clip-path="url(#93182013592798clip-2)"/><line x1="330.78" y1="38.52" x2="349.26" y2="38.52" style="stroke-width: 1.0;stroke: rgb(0,0,0);stroke-opacity: 1.0;" transform="matrix(1,0,0,1,0,0)" clip-path="url(#93182013592798clip-2)"/><rect x="330.78" y="37.94" width="18.48" height="0.25" style="stroke-width: 1.0;stroke: rgb(0,0,0);stroke-opacity: 1.0;; fill: none" transform="matrix(1,0,0,1,0,0)" clip-path="url(#93182013592798clip-2)"/><line x1="330.78" y1="38.04" x2="349.26" y2="38.04" style="stroke-width: 1.0;stroke: rgb(0,0,0);stroke-opacity: 1.0;" transform="matrix(1,0,0,1,0,0)" clip-path="url(#93182013592798clip-2)"/><rect x="354.82" y="37.93" width="18.48" height="0.27" style="fill: rgb(192,192,192); fill-opacity: 1.0" transform="matrix(1,0,0,1,0,0)" clip-path="url(#93182013592798clip-2)"/><line x1="364.06" y1="37.64" x2="364.06" y2="37.93" style="stroke-width: 1.0;stroke: rgb(0,0,0);stroke-opacity: 1.0;" transform="matrix(1,0,0,1,0,0)" clip-path="url(#93182013592798clip-2)"/><line x1="354.82" y1="37.64" x2="373.3" y2="37.64" style="stroke-width: 1.0;stroke: rgb(0,0,0);stroke-opacity: 1.0;" transform="matrix(1,0,0,1,0,0)" clip-path="url(#93182013592798clip-2)"/><line x1="364.06" y1="38.52" x2="364.06" y2="38.2" style="stroke-width: 1.0;stroke: rgb(0,0,0);stroke-opacity: 1.0;" transform="matrix(1,0,0,1,0,0)" clip-path="url(#93182013592798clip-2)"/><line x1="354.82" y1="38.52" x2="373.3" y2="38.52" style="stroke-width: 1.0;stroke: rgb(0,0,0);stroke-opacity: 1.0;" transform="matrix(1,0,0,1,0,0)" clip-path="url(#93182013592798clip-2)"/><rect x="354.82" y="37.93" width="18.48" height="0.27" style="stroke-width: 1.0;stroke: rgb(0,0,0);stroke-opacity: 1.0;; fill: none" transform="matrix(1,0,0,1,0,0)" clip-path="url(#93182013592798clip-2)"/><line x1="354.82" y1="38.04" x2="373.3" y2="38.04" style="stroke-width: 1.0;stroke: rgb(0,0,0);stroke-opacity: 1.0;" transform="matrix(1,0,0,1,0,0)" clip-path="url(#93182013592798clip-2)"/><rect x="378.85" y="37.94" width="18.48" height="0.27" style="fill: rgb(192,192,192); fill-opacity: 1.0" transform="matrix(1,0,0,1,0,0)" clip-path="url(#93182013592798clip-2)"/><line x1="388.09" y1="37.62" x2="388.09" y2="37.94" style="stroke-width: 1.0;stroke: rgb(0,0,0);stroke-opacity: 1.0;" transform="matrix(1,0,0,1,0,0)" clip-path="url(#93182013592798clip-2)"/><line x1="378.85" y1="37.62" x2="397.33" y2="37.62" style="stroke-width: 1.0;stroke: rgb(0,0,0);stroke-opacity: 1.0;" transform="matrix(1,0,0,1,0,0)" clip-path="url(#93182013592798clip-2)"/><line x1="388.09" y1="38.52" x2="388.09" y2="38.21" style="stroke-width: 1.0;stroke: rgb(0,0,0);stroke-opacity: 1.0;" transform="matrix(1,0,0,1,0,0)" clip-path="url(#93182013592798clip-2)"/><line x1="378.85" y1="38.52" x2="397.33" y2="38.52" style="stroke-width: 1.0;stroke: rgb(0,0,0);stroke-opacity: 1.0;" transform="matrix(1,0,0,1,0,0)" clip-path="url(#93182013592798clip-2)"/><rect x="378.85" y="37.94" width="18.48" height="0.27" style="stroke-width: 1.0;stroke: rgb(0,0,0);stroke-opacity: 1.0;; fill: none" transform="matrix(1,0,0,1,0,0)" clip-path="url(#93182013592798clip-2)"/><line x1="378.85" y1="38.03" x2="397.33" y2="38.03" style="stroke-width: 1.0;stroke: rgb(0,0,0);stroke-opacity: 1.0;" transform="matrix(1,0,0,1,0,0)" clip-path="url(#93182013592798clip-2)"/><rect x="402.89" y="37.93" width="18.48" height="0.29" style="fill: rgb(192,192,192); fill-opacity: 1.0" transform="matrix(1,0,0,1,0,0)" clip-path="url(#93182013592798clip-2)"/><line x1="412.13" y1="37.53" x2="412.13" y2="37.93" style="stroke-width: 1.0;stroke: rgb(0,0,0);stroke-opacity: 1.0;" transform="matrix(1,0,0,1,0,0)" clip-path="url(#93182013592798clip-2)"/><line x1="402.89" y1="37.53" x2="421.37" y2="37.53" style="stroke-width: 1.0;stroke: rgb(0,0,0);stroke-opacity: 1.0;" transform="matrix(1,0,0,1,0,0)" clip-path="url(#93182013592798clip-2)"/><line x1="412.13" y1="38.53" x2="412.13" y2="38.21" style="stroke-width: 1.0;stroke: rgb(0,0,0);stroke-opacity: 1.0;" transform="matrix(1,0,0,1,0,0)" clip-path="url(#93182013592798clip-2)"/><line x1="402.89" y1="38.53" x2="421.37" y2="38.53" style="stroke-width: 1.0;stroke: rgb(0,0,0);stroke-opacity: 1.0;" transform="matrix(1,0,0,1,0,0)" clip-path="url(#93182013592798clip-2)"/><rect x="402.89" y="37.93" width="18.48" height="0.29" style="stroke-width: 1.0;stroke: rgb(0,0,0);stroke-opacity: 1.0;; fill: none" transform="matrix(1,0,0,1,0,0)" clip-path="url(#93182013592798clip-2)"/><line x1="402.89" y1="38.04" x2="421.37" y2="38.04" style="stroke-width: 1.0;stroke: rgb(0,0,0);stroke-opacity: 1.0;" transform="matrix(1,0,0,1,0,0)" clip-path="url(#93182013592798clip-2)"/><rect x="426.93" y="37.93" width="18.48" height="0.29" style="fill: rgb(192,192,192); fill-opacity: 1.0" transform="matrix(1,0,0,1,0,0)" clip-path="url(#93182013592798clip-2)"/><line x1="436.17" y1="37.53" x2="436.17" y2="37.93" style="stroke-width: 1.0;stroke: rgb(0,0,0);stroke-opacity: 1.0;" transform="matrix(1,0,0,1,0,0)" clip-path="url(#93182013592798clip-2)"/><line x1="426.93" y1="37.53" x2="445.41" y2="37.53" style="stroke-width: 1.0;stroke: rgb(0,0,0);stroke-opacity: 1.0;" transform="matrix(1,0,0,1,0,0)" clip-path="url(#93182013592798clip-2)"/><line x1="436.17" y1="38.53" x2="436.17" y2="38.21" style="stroke-width: 1.0;stroke: rgb(0,0,0);stroke-opacity: 1.0;" transform="matrix(1,0,0,1,0,0)" clip-path="url(#93182013592798clip-2)"/><line x1="426.93" y1="38.53" x2="445.41" y2="38.53" style="stroke-width: 1.0;stroke: rgb(0,0,0);stroke-opacity: 1.0;" transform="matrix(1,0,0,1,0,0)" clip-path="url(#93182013592798clip-2)"/><rect x="426.93" y="37.93" width="18.48" height="0.29" style="stroke-width: 1.0;stroke: rgb(0,0,0);stroke-opacity: 1.0;; fill: none" transform="matrix(1,0,0,1,0,0)" clip-path="url(#93182013592798clip-2)"/><line x1="426.93" y1="38.04" x2="445.41" y2="38.04" style="stroke-width: 1.0;stroke: rgb(0,0,0);stroke-opacity: 1.0;" transform="matrix(1,0,0,1,0,0)" clip-path="url(#93182013592798clip-2)"/><g style="stroke-width: 1.0;stroke: rgb(192,192,192);stroke-opacity: 1.0;; fill: none" transform="matrix(1,0,0,1,0,0)" clip-path="url(#93182013592798clip-2)"><path d="M 439.25 35.61 C 439.25 37.32 437.87 38.69 436.17 38.69 C 434.47 38.69 433.09 37.32 433.09 35.61 C 433.09 33.91 434.47 32.53 436.17 32.53 C 437.87 32.53 439.25 33.91 439.25 35.61 M 439.25 35.61"/></g><rect x="450.97" y="37.93" width="18.48" height="0.28" style="fill: rgb(192,192,192); fill-opacity: 1.0" transform="matrix(1,0,0,1,0,0)" clip-path="url(#93182013592798clip-2)"/><line x1="460.21" y1="37.52" x2="460.21" y2="37.93" style="stroke-width: 1.0;stroke: rgb(0,0,0);stroke-opacity: 1.0;" transform="matrix(1,0,0,1,0,0)" clip-path="url(#93182013592798clip-2)"/><line x1="450.97" y1="37.52" x2="469.45" y2="37.52" style="stroke-width: 1.0;stroke: rgb(0,0,0);stroke-opacity: 1.0;" transform="matrix(1,0,0,1,0,0)" clip-path="url(#93182013592798clip-2)"/><line x1="460.21" y1="38.57" x2="460.21" y2="38.21" style="stroke-width: 1.0;stroke: rgb(0,0,0);stroke-opacity: 1.0;" transform="matrix(1,0,0,1,0,0)" clip-path="url(#93182013592798clip-2)"/><line x1="450.97" y1="38.57" x2="469.45" y2="38.57" style="stroke-width: 1.0;stroke: rgb(0,0,0);stroke-opacity: 1.0;" transform="matrix(1,0,0,1,0,0)" clip-path="url(#93182013592798clip-2)"/><rect x="450.97" y="37.93" width="18.48" height="0.28" style="stroke-width: 1.0;stroke: rgb(0,0,0);stroke-opacity: 1.0;; fill: none" transform="matrix(1,0,0,1,0,0)" clip-path="url(#93182013592798clip-2)"/><line x1="450.97" y1="38.04" x2="469.45" y2="38.04" style="stroke-width: 1.0;stroke: rgb(0,0,0);stroke-opacity: 1.0;" transform="matrix(1,0,0,1,0,0)" clip-path="url(#93182013592798clip-2)"/><g style="stroke-width: 1.0;stroke: rgb(192,192,192);stroke-opacity: 1.0;; fill: none" transform="matrix(1,0,0,1,0,0)" clip-path="url(#93182013592798clip-2)"><path d="M 463.29 35.61 C 463.29 37.32 461.91 38.69 460.21 38.69 C 458.51 38.69 457.13 37.32 457.13 35.61 C 457.13 33.91 458.51 32.53 460.21 32.53 C 461.91 32.53 463.29 33.91 463.29 35.61 M 463.29 35.61"/></g><rect x="475.01" y="37.92" width="18.48" height="0.3" style="fill: rgb(192,192,192); fill-opacity: 1.0" transform="matrix(1,0,0,1,0,0)" clip-path="url(#93182013592798clip-2)"/><line x1="484.25" y1="37.52" x2="484.25" y2="37.92" style="stroke-width: 1.0;stroke: rgb(0,0,0);stroke-opacity: 1.0;" transform="matrix(1,0,0,1,0,0)" clip-path="url(#93182013592798clip-2)"/><line x1="475.01" y1="37.52" x2="493.49" y2="37.52" style="stroke-width: 1.0;stroke: rgb(0,0,0);stroke-opacity: 1.0;" transform="matrix(1,0,0,1,0,0)" clip-path="url(#93182013592798clip-2)"/><line x1="484.25" y1="38.57" x2="484.25" y2="38.21" style="stroke-width: 1.0;stroke: rgb(0,0,0);stroke-opacity: 1.0;" transform="matrix(1,0,0,1,0,0)" clip-path="url(#93182013592798clip-2)"/><line x1="475.01" y1="38.57" x2="493.49" y2="38.57" style="stroke-width: 1.0;stroke: rgb(0,0,0);stroke-opacity: 1.0;" transform="matrix(1,0,0,1,0,0)" clip-path="url(#93182013592798clip-2)"/><rect x="475.01" y="37.92" width="18.48" height="0.3" style="stroke-width: 1.0;stroke: rgb(0,0,0);stroke-opacity: 1.0;; fill: none" transform="matrix(1,0,0,1,0,0)" clip-path="url(#93182013592798clip-2)"/><line x1="475.01" y1="38.04" x2="493.49" y2="38.04" style="stroke-width: 1.0;stroke: rgb(0,0,0);stroke-opacity: 1.0;" transform="matrix(1,0,0,1,0,0)" clip-path="url(#93182013592798clip-2)"/><g style="stroke-width: 1.0;stroke: rgb(192,192,192);stroke-opacity: 1.0;; fill: none" transform="matrix(1,0,0,1,0,0)" clip-path="url(#93182013592798clip-2)"><path d="M 487.33 35.61 C 487.33 37.32 485.95 38.69 484.25 38.69 C 482.55 38.69 481.17 37.32 481.17 35.61 C 481.17 33.91 482.55 32.53 484.25 32.53 C 485.95 32.53 487.33 33.91 487.33 35.61 M 487.33 35.61"/></g><rect x="499.04" y="37.9" width="18.48" height="0.31" style="fill: rgb(192,192,192); fill-opacity: 1.0" transform="matrix(1,0,0,1,0,0)" clip-path="url(#93182013592798clip-2)"/><line x1="508.28" y1="37.52" x2="508.28" y2="37.9" style="stroke-width: 1.0;stroke: rgb(0,0,0);stroke-opacity: 1.0;" transform="matrix(1,0,0,1,0,0)" clip-path="url(#93182013592798clip-2)"/><line x1="499.04" y1="37.52" x2="517.52" y2="37.52" style="stroke-width: 1.0;stroke: rgb(0,0,0);stroke-opacity: 1.0;" transform="matrix(1,0,0,1,0,0)" clip-path="url(#93182013592798clip-2)"/><line x1="508.28" y1="38.63" x2="508.28" y2="38.22" style="stroke-width: 1.0;stroke: rgb(0,0,0);stroke-opacity: 1.0;" transform="matrix(1,0,0,1,0,0)" clip-path="url(#93182013592798clip-2)"/><line x1="499.04" y1="38.63" x2="517.52" y2="38.63" style="stroke-width: 1.0;stroke: rgb(0,0,0);stroke-opacity: 1.0;" transform="matrix(1,0,0,1,0,0)" clip-path="url(#93182013592798clip-2)"/><rect x="499.04" y="37.9" width="18.48" height="0.31" style="stroke-width: 1.0;stroke: rgb(0,0,0);stroke-opacity: 1.0;; fill: none" transform="matrix(1,0,0,1,0,0)" clip-path="url(#93182013592798clip-2)"/><line x1="499.04" y1="38.03" x2="517.52" y2="38.03" style="stroke-width: 1.0;stroke: rgb(0,0,0);stroke-opacity: 1.0;" transform="matrix(1,0,0,1,0,0)" clip-path="url(#93182013592798clip-2)"/><g style="stroke-width: 1.0;stroke: rgb(192,192,192);stroke-opacity: 1.0;; fill: none" transform="matrix(1,0,0,1,0,0)" clip-path="url(#93182013592798clip-2)"><path d="M 511.36 35.61 C 511.36 37.32 509.99 38.69 508.28 38.69 C 506.58 38.69 505.2 37.32 505.2 35.61 C 505.2 33.91 506.58 32.53 508.28 32.53 C 509.99 32.53 511.36 33.91 511.36 35.61 M 511.36 35.61"/></g><line x1="508.28" y1="23" x2="508.28" y2="23" style="stroke-width: 1.0;stroke: rgb(192,192,192);stroke-opacity: 1.0;" transform="matrix(1,0,0,1,0,0)" clip-path="url(#93182013592798clip-2)"/><line x1="508.28" y1="23" x2="508.28" y2="23" style="stroke-width: 1.0;stroke: rgb(192,192,192);stroke-opacity: 1.0;" transform="matrix(1,0,0,1,0,0)" clip-path="url(#93182013592798clip-2)"/><line x1="508.28" y1="23" x2="508.28" y2="23" style="stroke-width: 1.0;stroke: rgb(192,192,192);stroke-opacity: 1.0;" transform="matrix(1,0,0,1,0,0)" clip-path="url(#93182013592798clip-2)"/><rect x="523.08" y="37.9" width="18.48" height="0.34" style="fill: rgb(192,192,192); fill-opacity: 1.0" transform="matrix(1,0,0,1,0,0)" clip-path="url(#93182013592798clip-2)"/><line x1="532.32" y1="37.52" x2="532.32" y2="37.9" style="stroke-width: 1.0;stroke: rgb(0,0,0);stroke-opacity: 1.0;" transform="matrix(1,0,0,1,0,0)" clip-path="url(#93182013592798clip-2)"/><line x1="523.08" y1="37.52" x2="541.56" y2="37.52" style="stroke-width: 1.0;stroke: rgb(0,0,0);stroke-opacity: 1.0;" transform="matrix(1,0,0,1,0,0)" clip-path="url(#93182013592798clip-2)"/><line x1="532.32" y1="38.69" x2="532.32" y2="38.24" style="stroke-width: 1.0;stroke: rgb(0,0,0);stroke-opacity: 1.0;" transform="matrix(1,0,0,1,0,0)" clip-path="url(#93182013592798clip-2)"/><line x1="523.08" y1="38.69" x2="541.56" y2="38.69" style="stroke-width: 1.0;stroke: rgb(0,0,0);stroke-opacity: 1.0;" transform="matrix(1,0,0,1,0,0)" clip-path="url(#93182013592798clip-2)"/><rect x="523.08" y="37.9" width="18.48" height="0.34" style="stroke-width: 1.0;stroke: rgb(0,0,0);stroke-opacity: 1.0;; fill: none" transform="matrix(1,0,0,1,0,0)" clip-path="url(#93182013592798clip-2)"/><line x1="523.08" y1="38.03" x2="541.56" y2="38.03" style="stroke-width: 1.0;stroke: rgb(0,0,0);stroke-opacity: 1.0;" transform="matrix(1,0,0,1,0,0)" clip-path="url(#93182013592798clip-2)"/><g style="stroke-width: 1.0;stroke: rgb(192,192,192);stroke-opacity: 1.0;; fill: none" transform="matrix(1,0,0,1,0,0)" clip-path="url(#93182013592798clip-2)"><path d="M 535.4 34.24 C 535.4 35.94 534.02 37.32 532.32 37.32 C 530.62 37.32 529.24 35.94 529.24 34.24 C 529.24 32.54 530.62 31.16 532.32 31.16 C 534.02 31.16 535.4 32.54 535.4 34.24 M 535.4 34.24"/></g><line x1="532.32" y1="23" x2="532.32" y2="23" style="stroke-width: 1.0;stroke: rgb(192,192,192);stroke-opacity: 1.0;" transform="matrix(1,0,0,1,0,0)" clip-path="url(#93182013592798clip-2)"/><line x1="532.32" y1="23" x2="532.32" y2="23" style="stroke-width: 1.0;stroke: rgb(192,192,192);stroke-opacity: 1.0;" transform="matrix(1,0,0,1,0,0)" clip-path="url(#93182013592798clip-2)"/><line x1="532.32" y1="23" x2="532.32" y2="23" style="stroke-width: 1.0;stroke: rgb(192,192,192);stroke-opacity: 1.0;" transform="matrix(1,0,0,1,0,0)" clip-path="url(#93182013592798clip-2)"/><rect x="547.12" y="37.9" width="18.48" height="0.34" style="fill: rgb(192,192,192); fill-opacity: 1.0" transform="matrix(1,0,0,1,0,0)" clip-path="url(#93182013592798clip-2)"/><line x1="556.36" y1="37.52" x2="556.36" y2="37.9" style="stroke-width: 1.0;stroke: rgb(0,0,0);stroke-opacity: 1.0;" transform="matrix(1,0,0,1,0,0)" clip-path="url(#93182013592798clip-2)"/><line x1="547.12" y1="37.52" x2="565.6" y2="37.52" style="stroke-width: 1.0;stroke: rgb(0,0,0);stroke-opacity: 1.0;" transform="matrix(1,0,0,1,0,0)" clip-path="url(#93182013592798clip-2)"/><line x1="556.36" y1="38.69" x2="556.36" y2="38.23" style="stroke-width: 1.0;stroke: rgb(0,0,0);stroke-opacity: 1.0;" transform="matrix(1,0,0,1,0,0)" clip-path="url(#93182013592798clip-2)"/><line x1="547.12" y1="38.69" x2="565.6" y2="38.69" style="stroke-width: 1.0;stroke: rgb(0,0,0);stroke-opacity: 1.0;" transform="matrix(1,0,0,1,0,0)" clip-path="url(#93182013592798clip-2)"/><rect x="547.12" y="37.9" width="18.48" height="0.34" style="stroke-width: 1.0;stroke: rgb(0,0,0);stroke-opacity: 1.0;; fill: none" transform="matrix(1,0,0,1,0,0)" clip-path="url(#93182013592798clip-2)"/><line x1="547.12" y1="38.03" x2="565.6" y2="38.03" style="stroke-width: 1.0;stroke: rgb(0,0,0);stroke-opacity: 1.0;" transform="matrix(1,0,0,1,0,0)" clip-path="url(#93182013592798clip-2)"/><g style="stroke-width: 1.0;stroke: rgb(192,192,192);stroke-opacity: 1.0;; fill: none" transform="matrix(1,0,0,1,0,0)" clip-path="url(#93182013592798clip-2)"><path d="M 559.44 34.24 C 559.44 35.94 558.06 37.32 556.36 37.32 C 554.66 37.32 553.28 35.94 553.28 34.24 C 553.28 32.54 554.66 31.16 556.36 31.16 C 558.06 31.16 559.44 32.54 559.44 34.24 M 559.44 34.24"/></g><line x1="556.36" y1="23" x2="556.36" y2="23" style="stroke-width: 1.0;stroke: rgb(192,192,192);stroke-opacity: 1.0;" transform="matrix(1,0,0,1,0,0)" clip-path="url(#93182013592798clip-2)"/><line x1="556.36" y1="23" x2="556.36" y2="23" style="stroke-width: 1.0;stroke: rgb(192,192,192);stroke-opacity: 1.0;" transform="matrix(1,0,0,1,0,0)" clip-path="url(#93182013592798clip-2)"/><line x1="556.36" y1="23" x2="556.36" y2="23" style="stroke-width: 1.0;stroke: rgb(192,192,192);stroke-opacity: 1.0;" transform="matrix(1,0,0,1,0,0)" clip-path="url(#93182013592798clip-2)"/><rect x="64" y="23" width="528" height="305" style="stroke-width: 0.5;stroke: rgb(128,128,128);stroke-opacity: 1.0;; fill: none" transform="matrix(1,0,0,1,0,0)" clip-path="url(#93182013592798clip-0)"/></svg>
