<!DOCTYPE svg PUBLIC "-//W3C//DTD SVG 1.1//EN" "http://www.w3.org/Graphics/SVG/1.1/DTD/svg11.dtd">
<svg xmlns="http://www.w3.org/2000/svg" xmlns:xlink="http://www.w3.org/1999/xlink" xmlns:jfreesvg="http://www.jfree.org/jfreesvg/svg" width="600" height="400" text-rendering="auto" shape-rendering="auto">
<defs><clipPath id="94503157121104clip-0"><path d="M 0 0 L 600 0 L 600 400 L 0 400 L 0 0 M 0 0"/></clipPath>
<clipPath id="94503157121104clip-1"><path d="M 194.43 156.57 L 194.43 756.57 L -205.57 756.57 L -205.57 156.57 L 194.43 156.57 M 194.43 156.57"/></clipPath>
<clipPath id="94503157121104clip-2"><path d="M 64 23 L 64 328 L 592 328 L 592 23 M 64 23"/></clipPath>
</defs>
<rect x="0" y="0" width="600" height="400" style="fill: rgb(238,238,238); fill-opacity: 1.0" transform="matrix(1,0,0,1,0,0)" clip-path="url(#94503157121104clip-0)"/><g style="fill: rgb(0,0,0); fill-opacity: 1.0; stroke: none" transform="matrix(1,0,0,1,0,0)" clip-path="url(#94503157121104clip-0)"><path d="M 273.16 14.54 L 277.09 4.42 L 279.2 4.42 L 283.14 14.54 L 280.98 14.54 L 279.92 11.83 L 275.74 11.83 L 274.69 14.54 M 273.16 14.54 M 276.26 10.49 L 279.41 10.49 L 277.83 6.46 M 276.26 10.49 M 297.41 14.13 Q 295.94 14.79 293.9 14.79 Q 291.41 14.79 290.02 13.39 Q 288.64 11.99 288.64 9.48 Q 288.64 6.92 290.03 5.54 Q 291.43 4.17 294.02 4.17 Q 295.68 4.17 297.31 4.55 L 297.31 6.2 Q 295.46 5.55 294.21 5.55 Q 292.61 5.55 291.74 6.57 Q 290.87 7.58 290.87 9.45 Q 290.87 11.28 291.8 12.31 Q 292.74 13.33 294.4 13.33 Q 295.89 13.33 297.41 12.58 M 297.41 14.13 M 299.26 14.54 L 299.26 3.74 L 301.29 3.74 L 301.29 8.44 Q 302.28 6.86 303.84 6.86 Q 304.85 6.86 305.43 7.49 Q 306.01 8.13 306.01 9.23 L 306.01 14.54 L 303.99 14.54 L 303.99 9.73 Q 303.99 8.45 303.14 8.45 Q 302.18 8.45 301.29 9.81 L 301.29 14.54 M 299.26 14.54 M 311.94 13.73 Q 310.93 14.71 309.78 14.71 Q 308.79 14.71 308.18 14.1 Q 307.56 13.5 307.56 12.55 Q 307.56 11.3 308.56 10.63 Q 309.55 9.96 311.4 9.96 L 311.94 9.96 L 311.94 9.27 Q 311.94 8.1 310.61 8.1 Q 309.43 8.1 308.22 8.77 L 308.22 7.38 Q 309.59 6.86 310.94 6.86 Q 313.88 6.86 313.88 9.2 L 313.88 12.53 Q 313.88 13.41 314.45 13.41 Q 314.55 13.41 314.72 13.38 L 314.77 14.51 Q 314.12 14.71 313.63 14.71 Q 312.39 14.71 312.03 13.73 M 311.94 13.73 M 311.94 12.64 L 311.94 11.12 L 311.46 11.12 Q 309.5 11.12 309.5 12.35 Q 309.5 12.76 309.79 13.05 Q 310.07 13.33 310.49 13.33 Q 311.2 13.33 311.94 12.64 M 311.94 12.64 M 316.26 14.54 L 316.26 7.03 L 318.29 7.03 L 318.29 8.44 Q 319.07 6.86 320.68 6.86 Q 320.87 6.86 321.06 6.9 L 321.06 8.7 Q 320.63 8.55 320.26 8.55 Q 319.05 8.55 318.29 9.77 L 318.29 14.54 M 316.26 14.54 M 326.13 14.49 Q 325.41 14.71 324.99 14.71 Q 322.36 14.71 322.36 12.25 L 322.36 8.29 L 321.52 8.29 L 321.52 7.03 L 322.36 7.03 L 322.36 5.76 L 324.38 5.53 L 324.38 7.03 L 325.99 7.03 L 325.99 8.29 L 324.38 8.29 L 324.38 11.98 Q 324.38 13.36 325.51 13.36 Q 325.77 13.36 326.13 13.26 M 326.13 14.49"/></g><rect x="262" y="373.33" width="76" height="25.67" style="fill: rgb(255,255,255); fill-opacity: 1.0" transform="matrix(1,0,0,1,0,0)" clip-path="url(#94503157121104clip-0)"/><line x1="262.5" y1="373.83" x2="337.5" y2="373.83" style="stroke-width: 1.0;stroke: rgb(0,0,0);stroke-opacity: 1.0;" transform="matrix(1,0,0,1,0,0)" clip-path="url(#94503157121104clip-0)"/><line x1="262.5" y1="398.5" x2="337.5" y2="398.5" style="stroke-width: 1.0;stroke: rgb(0,0,0);stroke-opacity: 1.0;" transform="matrix(1,0,0,1,0,0)" clip-path="url(#94503157121104clip-0)"/><line x1="262.5" y1="398.5" x2="262.5" y2="373.83" style="stroke-width: 1.0;stroke: rgb(0,0,0);stroke-opacity: 1.0;" transform="matrix(1,0,0,1,0,0)" clip-path="url(#94503157121104clip-0)"/><line x1="337.5" y1="398.5" x2="337.5" y2="373.83" style="stroke-width: 1.0;stroke: rgb(0,0,0);stroke-opacity: 1.0;" transform="matrix(1,0,0,1,0,0)" clip-path="url(#94503157121104clip-0)"/><g style="fill: rgb(192,192,192); fill-opacity: 1.0; stroke: none" transform="matrix(1,0,0,1,0,0)" clip-path="url(#94503157121104clip-0)"><path d="M 266 382.17 L 274 382.17 L 274 390.17 L 266 390.17 L 266 382.17 M 266 382.17"/></g><g style="stroke-width: 1.0;stroke: rgb(0,0,0);stroke-opacity: 1.0;; fill: none" transform="matrix(1,0,0,1,0,0)" clip-path="url(#94503157121104clip-0)"><path d="M 266 382.17 L 274 382.17 L 274 390.17 L 266 390.17 L 266 382.17 M 266 382.17"/></g><g style="fill: rgb(0,0,0); fill-opacity: 1.0; stroke: none" transform="matrix(1,0,0,1,0,0)" clip-path="url(#94503157121104clip-0)"><path d="M 281.52 392.11 Q 280.43 392.11 278.73 391.63 L 278.73 390.11 Q 280.56 390.96 281.74 390.96 Q 282.65 390.96 283.2 390.48 Q 283.76 390 283.76 389.23 Q 283.76 388.59 283.39 388.14 Q 283.03 387.7 282.06 387.15 L 281.31 386.72 Q 279.93 385.93 279.36 385.23 Q 278.79 384.53 278.79 383.6 Q 278.79 382.34 279.7 381.53 Q 280.61 380.73 282.01 380.73 Q 283.27 380.73 284.66 381.14 L 284.66 382.55 Q 282.94 381.88 282.1 381.88 Q 281.3 381.88 280.78 382.3 Q 280.26 382.72 280.26 383.37 Q 280.26 383.91 280.64 384.33 Q 281.02 384.75 282.04 385.32 L 282.81 385.76 Q 284.22 386.56 284.77 387.27 Q 285.33 387.98 285.33 388.98 Q 285.33 390.39 284.29 391.25 Q 283.24 392.11 281.52 392.11 M 281.52 392.11 M 294.27 391.58 Q 292.82 392.02 291.79 392.02 Q 290.03 392.02 288.92 390.85 Q 287.81 389.68 287.81 387.82 Q 287.81 386.01 288.79 384.86 Q 289.77 383.7 291.29 383.7 Q 292.73 383.7 293.52 384.72 Q 294.31 385.75 294.31 387.64 L 294.3 388.09 L 289.29 388.09 Q 289.6 390.92 292.06 390.92 Q 292.96 390.92 294.27 390.44 M 294.27 391.58 M 289.35 387 L 292.86 387 Q 292.86 384.78 291.2 384.78 Q 289.54 384.78 289.35 387 M 289.35 387 M 297.44 391.84 L 297.44 383.88 L 298.89 383.88 L 298.89 385.38 Q 299.74 383.71 301.38 383.71 Q 301.6 383.71 301.84 383.74 L 301.84 385.09 Q 301.46 384.97 301.18 384.97 Q 299.81 384.97 298.89 386.59 L 298.89 391.84 M 297.44 391.84 M 304.44 391.84 L 304.44 383.88 L 305.89 383.88 L 305.89 391.84 M 304.44 391.84 M 304.44 382.44 L 304.44 381 L 305.89 381 L 305.89 382.44 M 304.44 382.44 M 315.27 391.58 Q 313.82 392.02 312.79 392.02 Q 311.03 392.02 309.92 390.85 Q 308.81 389.68 308.81 387.82 Q 308.81 386.01 309.79 384.86 Q 310.77 383.7 312.29 383.7 Q 313.73 383.7 314.52 384.72 Q 315.31 385.75 315.31 387.64 L 315.3 388.09 L 310.29 388.09 Q 310.6 390.92 313.06 390.92 Q 313.96 390.92 315.27 390.44 M 315.27 391.58 M 310.35 387 L 313.86 387 Q 313.86 384.78 312.2 384.78 Q 310.54 384.78 310.35 387 M 310.35 387 M 320.55 392.02 Q 319.56 392.02 318.15 391.56 L 318.15 390.23 Q 319.56 390.94 320.61 390.94 Q 321.23 390.94 321.64 390.6 Q 322.05 390.26 322.05 389.76 Q 322.05 389.02 320.9 388.53 L 320.06 388.17 Q 318.19 387.4 318.19 385.94 Q 318.19 384.9 318.93 384.3 Q 319.67 383.71 320.95 383.71 Q 321.61 383.71 322.6 383.89 L 322.9 383.95 L 322.9 385.15 Q 321.69 384.79 320.98 384.79 Q 319.59 384.79 319.59 385.8 Q 319.59 386.45 320.64 386.9 L 321.34 387.19 Q 322.52 387.69 323.01 388.24 Q 323.5 388.8 323.5 389.62 Q 323.5 390.67 322.67 391.35 Q 321.84 392.02 320.55 392.02 M 320.55 392.02 M 332.26 391.84 L 332.26 390.75 L 334.42 390.75 L 334.42 382.2 L 332.26 382.74 L 332.26 381.63 L 335.87 380.73 L 335.87 390.75 L 338.04 390.75 L 338.04 391.84 M 332.26 391.84"/></g><rect x="64" y="23" width="528" height="305" style="fill: rgb(255,255,255); fill-opacity: 1.0" transform="matrix(1,0,0,1,0,0)" clip-path="url(#94503157121104clip-0)"/><line x1="64" y1="328" x2="592" y2="328" style="stroke-width: 1.0;stroke: rgb(128,128,128);stroke-opacity: 1.0;" transform="matrix(1,0,0,1,0,0)" clip-path="url(#94503157121104clip-0)"/><line x1="99.64" y1="328" x2="99.64" y2="328" style="stroke-width: 1.0;stroke: rgb(128,128,128);stroke-opacity: 1.0;" transform="matrix(1,0,0,1,0,0)" clip-path="url(#94503157121104clip-0)"/><line x1="99.64" y1="328" x2="99.64" y2="330" style="stroke-width: 1.0;stroke: rgb(128,128,128);stroke-opacity: 1.0;" transform="matrix(1,0,0,1,0,0)" clip-path="url(#94503157121104clip-0)"/><line x1="123.68" y1="328" x2="123.68" y2="328" style="stroke-width: 1.0;stroke: rgb(128,128,128);stroke-opacity: 1.0;" transform="matrix(1,0,0,1,0,0)" clip-path="url(#94503157121104clip-0)"/><line x1="123.68" y1="328" x2="123.68" y2="330" style="stroke-width: 1.0;stroke: rgb(128,128,128);stroke-opacity: 1.0;" transform="matrix(1,0,0,1,0,0)" clip-path="url(#94503157121104clip-0)"/><line x1="147.72" y1="328" x2="147.72" y2="328" style="stroke-width: 1.0;stroke: rgb(128,128,128);stroke-opacity: 1.0;" transform="matrix(1,0,0,1,0,0)" clip-path="url(#94503157121104clip-0)"/><line x1="147.72" y1="328" x2="147.72" y2="330" style="stroke-width: 1.0;stroke: rgb(128,128,128);stroke-opacity: 1.0;" transform="matrix(1,0,0,1,0,0)" clip-path="url(#94503157121104clip-0)"/><line x1="171.75" y1="328" x2="171.75" y2="328" style="stroke-width: 1.0;stroke: rgb(128,128,128);stroke-opacity: 1.0;" transform="matrix(1,0,0,1,0,0)" clip-path="url(#94503157121104clip-0)"/><line x1="171.75" y1="328" x2="171.75" y2="330" style="stroke-width: 1.0;stroke: rgb(128,128,128);stroke-opacity: 1.0;" transform="matrix(1,0,0,1,0,0)" clip-path="url(#94503157121104clip-0)"/><line x1="195.79" y1="328" x2="195.79" y2="328" style="stroke-width: 1.0;stroke: rgb(128,128,128);stroke-opacity: 1.0;" transform="matrix(1,0,0,1,0,0)" clip-path="url(#94503157121104clip-0)"/><line x1="195.79" y1="328" x2="195.79" y2="330" style="stroke-width: 1.0;stroke: rgb(128,128,128);stroke-opacity: 1.0;" transform="matrix(1,0,0,1,0,0)" clip-path="url(#94503157121104clip-0)"/><line x1="219.83" y1="328" x2="219.83" y2="328" style="stroke-width: 1.0;stroke: rgb(128,128,128);stroke-opacity: 1.0;" transform="matrix(1,0,0,1,0,0)" clip-path="url(#94503157121104clip-0)"/><line x1="219.83" y1="328" x2="219.83" y2="330" style="stroke-width: 1.0;stroke: rgb(128,128,128);stroke-opacity: 1.0;" transform="matrix(1,0,0,1,0,0)" clip-path="url(#94503157121104clip-0)"/><line x1="243.87" y1="328" x2="243.87" y2="328" style="stroke-width: 1.0;stroke: rgb(128,128,128);stroke-opacity: 1.0;" transform="matrix(1,0,0,1,0,0)" clip-path="url(#94503157121104clip-0)"/><line x1="243.87" y1="328" x2="243.87" y2="330" style="stroke-width: 1.0;stroke: rgb(128,128,128);stroke-opacity: 1.0;" transform="matrix(1,0,0,1,0,0)" clip-path="url(#94503157121104clip-0)"/><line x1="267.91" y1="328" x2="267.91" y2="328" style="stroke-width: 1.0;stroke: rgb(128,128,128);stroke-opacity: 1.0;" transform="matrix(1,0,0,1,0,0)" clip-path="url(#94503157121104clip-0)"/><line x1="267.91" y1="328" x2="267.91" y2="330" style="stroke-width: 1.0;stroke: rgb(128,128,128);stroke-opacity: 1.0;" transform="matrix(1,0,0,1,0,0)" clip-path="url(#94503157121104clip-0)"/><line x1="291.94" y1="328" x2="291.94" y2="328" style="stroke-width: 1.0;stroke: rgb(128,128,128);stroke-opacity: 1.0;" transform="matrix(1,0,0,1,0,0)" clip-path="url(#94503157121104clip-0)"/><line x1="291.94" y1="328" x2="291.94" y2="330" style="stroke-width: 1.0;stroke: rgb(128,128,128);stroke-opacity: 1.0;" transform="matrix(1,0,0,1,0,0)" clip-path="url(#94503157121104clip-0)"/><line x1="315.98" y1="328" x2="315.98" y2="328" style="stroke-width: 1.0;stroke: rgb(128,128,128);stroke-opacity: 1.0;" transform="matrix(1,0,0,1,0,0)" clip-path="url(#94503157121104clip-0)"/><line x1="315.98" y1="328" x2="315.98" y2="330" style="stroke-width: 1.0;stroke: rgb(128,128,128);stroke-opacity: 1.0;" transform="matrix(1,0,0,1,0,0)" clip-path="url(#94503157121104clip-0)"/><line x1="340.02" y1="328" x2="340.02" y2="328" style="stroke-width: 1.0;stroke: rgb(128,128,128);stroke-opacity: 1.0;" transform="matrix(1,0,0,1,0,0)" clip-path="url(#94503157121104clip-0)"/><line x1="340.02" y1="328" x2="340.02" y2="330" style="stroke-width: 1.0;stroke: rgb(128,128,128);stroke-opacity: 1.0;" transform="matrix(1,0,0,1,0,0)" clip-path="url(#94503157121104clip-0)"/><line x1="364.06" y1="328" x2="364.06" y2="328" style="stroke-width: 1.0;stroke: rgb(128,128,128);stroke-opacity: 1.0;" transform="matrix(1,0,0,1,0,0)" clip-path="url(#94503157121104clip-0)"/><line x1="364.06" y1="328" x2="364.06" y2="330" style="stroke-width: 1.0;stroke: rgb(128,128,128);stroke-opacity: 1.0;" transform="matrix(1,0,0,1,0,0)" clip-path="url(#94503157121104clip-0)"/><line x1="388.09" y1="328" x2="388.09" y2="328" style="stroke-width: 1.0;stroke: rgb(128,128,128);stroke-opacity: 1.0;" transform="matrix(1,0,0,1,0,0)" clip-path="url(#94503157121104clip-0)"/><line x1="388.09" y1="328" x2="388.09" y2="330" style="stroke-width: 1.0;stroke: rgb(128,128,128);stroke-opacity: 1.0;" transform="matrix(1,0,0,1,0,0)" clip-path="url(#94503157121104clip-0)"/><line x1="412.13" y1="328" x2="412.13" y2="328" style="stroke-width: 1.0;stroke: rgb(128,128,128);stroke-opacity: 1.0;" transform="matrix(1,0,0,1,0,0)" clip-path="url(#94503157121104clip-0)"/><line x1="412.13" y1="328" x2="412.13" y2="330" style="stroke-width: 1.0;stroke: rgb(128,128,128);stroke-opacity: 1.0;" transform="matrix(1,0,0,1,0,0)" clip-path="url(#94503157121104clip-0)"/><line x1="436.17" y1="328" x2="436.17" y2="328" style="stroke-width: 1.0;stroke: rgb(128,128,128);stroke-opacity: 1.0;" transform="matrix(1,0,0,1,0,0)" clip-path="url(#94503157121104clip-0)"/><line x1="436.17" y1="328" x2="436.17" y2="330" style="stroke-width: 1.0;stroke: rgb(128,128,128);stroke-opacity: 1.0;" transform="matrix(1,0,0,1,0,0)" clip-path="url(#94503157121104clip-0)"/><line x1="460.21" y1="328" x2="460.21" y2="328" style="stroke-width: 1.0;stroke: rgb(128,128,128);stroke-opacity: 1.0;" transform="matrix(1,0,0,1,0,0)" clip-path="url(#94503157121104clip-0)"/><line x1="460.21" y1="328" x2="460.21" y2="330" style="stroke-width: 1.0;stroke: rgb(128,128,128);stroke-opacity: 1.0;" transform="matrix(1,0,0,1,0,0)" clip-path="url(#94503157121104clip-0)"/><line x1="484.25" y1="328" x2="484.25" y2="328" style="stroke-width: 1.0;stroke: rgb(128,128,128);stroke-opacity: 1.0;" transform="matrix(1,0,0,1,0,0)" clip-path="url(#94503157121104clip-0)"/><line x1="484.25" y1="328" x2="484.25" y2="330" style="stroke-width: 1.0;stroke: rgb(128,128,128);stroke-opacity: 1.0;" transform="matrix(1,0,0,1,0,0)" clip-path="url(#94503157121104clip-0)"/><line x1="508.28" y1="328" x2="508.28" y2="328" style="stroke-width: 1.0;stroke: rgb(128,128,128);stroke-opacity: 1.0;" transform="matrix(1,0,0,1,0,0)" clip-path="url(#94503157121104clip-0)"/><line x1="508.28" y1="328" x2="508.28" y2="330" style="stroke-width: 1.0;stroke: rgb(128,128,128);stroke-opacity: 1.0;" transform="matrix(1,0,0,1,0,0)" clip-path="url(#94503157121104clip-0)"/><line x1="532.32" y1="328" x2="532.32" y2="328" style="stroke-width: 1.0;stroke: rgb(128,128,128);stroke-opacity: 1.0;" transform="matrix(1,0,0,1,0,0)" clip-path="url(#94503157121104clip-0)"/><line x1="532.32" y1="328" x2="532.32" y2="330" style="stroke-width: 1.0;stroke: rgb(128,128,128);stroke-opacity: 1.0;" transform="matrix(1,0,0,1,0,0)" clip-path="url(#94503157121104clip-0)"/><line x1="556.36" y1="328" x2="556.36" y2="328" style="stroke-width: 1.0;stroke: rgb(128,128,128);stroke-opacity: 1.0;" transform="matrix(1,0,0,1,0,0)" clip-path="url(#94503157121104clip-0)"/><line x1="556.36" y1="328" x2="556.36" y2="330" style="stroke-width: 1.0;stroke: rgb(128,128,128);stroke-opacity: 1.0;" transform="matrix(1,0,0,1,0,0)" clip-path="url(#94503157121104clip-0)"/><g style="fill: rgb(0,0,0); fill-opacity: 1.0; stroke: none" transform="matrix(1,0,0,1,0,0)" clip-path="url(#94503157121104clip-0)"><path d="M 98.14 343.67 L 98.14 342.95 L 99.59 342.95 L 99.59 337.24 L 98.14 337.6 L 98.14 336.86 L 100.56 336.26 L 100.56 342.95 L 102 342.95 L 102 343.67 M 98.14 343.67"/></g><g style="fill: rgb(0,0,0); fill-opacity: 1.0; stroke: none" transform="matrix(1,0,0,1,0,0)" clip-path="url(#94503157121104clip-0)"><path d="M 121.51 343.67 L 121.51 342.82 Q 121.93 341.84 123.21 340.68 L 123.76 340.19 Q 124.82 339.23 124.82 338.28 Q 124.82 337.68 124.46 337.33 Q 124.1 336.98 123.46 336.98 Q 122.71 336.98 121.69 337.56 L 121.69 336.71 Q 122.65 336.26 123.6 336.26 Q 124.61 336.26 125.23 336.81 Q 125.84 337.35 125.84 338.26 Q 125.84 338.91 125.53 339.41 Q 125.22 339.91 124.38 340.63 L 124.01 340.95 Q 122.85 341.93 122.67 342.82 L 125.81 342.82 L 125.81 343.67 M 121.51 343.67"/></g><g style="fill: rgb(0,0,0); fill-opacity: 1.0; stroke: none" transform="matrix(1,0,0,1,0,0)" clip-path="url(#94503157121104clip-0)"><path d="M 145.73 343.61 L 145.73 342.72 Q 146.77 343.13 147.36 343.13 Q 148.05 343.13 148.48 342.72 Q 148.92 342.32 148.92 341.68 Q 148.92 340.16 146.78 340.16 L 146.4 340.16 L 146.4 339.51 L 146.74 339.5 Q 148.74 339.5 148.74 338.09 Q 148.74 336.98 147.42 336.98 Q 146.7 336.98 145.83 337.39 L 145.83 336.55 Q 146.68 336.26 147.49 336.26 Q 149.71 336.26 149.71 337.94 Q 149.71 339.21 148.2 339.75 Q 149.95 340.16 149.95 341.67 Q 149.95 342.69 149.27 343.27 Q 148.6 343.85 147.42 343.85 Q 146.75 343.85 145.73 343.61 M 145.73 343.61"/></g><g style="fill: rgb(0,0,0); fill-opacity: 1.0; stroke: none" transform="matrix(1,0,0,1,0,0)" clip-path="url(#94503157121104clip-0)"><path d="M 172.52 343.67 L 172.52 341.62 L 169.27 341.62 L 169.27 340.89 L 172.52 336.44 L 173.42 336.44 L 173.42 340.84 L 174.39 340.84 L 174.39 341.62 L 173.42 341.62 L 173.42 343.67 M 172.52 343.67 M 170.21 340.84 L 172.58 340.84 L 172.58 337.62 M 170.21 340.84"/></g><g style="fill: rgb(0,0,0); fill-opacity: 1.0; stroke: none" transform="matrix(1,0,0,1,0,0)" clip-path="url(#94503157121104clip-0)"><path d="M 194.01 343.7 L 194.01 342.84 Q 194.73 343.13 195.37 343.13 Q 196.09 343.13 196.5 342.71 Q 196.9 342.29 196.9 341.55 Q 196.9 339.92 194.66 339.92 Q 194.41 339.92 194.13 339.96 L 194.13 336.44 L 197.79 336.44 L 197.79 337.28 L 194.97 337.28 L 194.97 339.19 Q 196.37 339.19 197.15 339.83 Q 197.93 340.46 197.93 341.6 Q 197.93 342.65 197.22 343.25 Q 196.51 343.85 195.25 343.85 Q 194.7 343.85 194.01 343.7 M 194.01 343.7"/></g><g style="fill: rgb(0,0,0); fill-opacity: 1.0; stroke: none" transform="matrix(1,0,0,1,0,0)" clip-path="url(#94503157121104clip-0)"><path d="M 218.55 339.92 Q 219.24 339.03 220.28 339.03 Q 221.23 339.03 221.83 339.66 Q 222.43 340.28 222.43 341.27 Q 222.43 342.39 221.76 343.12 Q 221.08 343.85 220.04 343.85 Q 218.85 343.85 218.17 342.89 Q 217.5 341.92 217.5 340.22 Q 217.5 338.34 218.27 337.3 Q 219.05 336.26 220.45 336.26 Q 221.1 336.26 222.06 336.53 L 222.06 337.37 Q 221.04 336.98 220.39 336.98 Q 218.55 336.98 218.55 339.92 M 218.55 339.92 M 221.47 341.48 Q 221.47 340.66 221.1 340.19 Q 220.73 339.72 220.08 339.72 Q 219.47 339.72 219.03 340.13 Q 218.59 340.54 218.59 341.12 Q 218.59 342.03 219 342.58 Q 219.42 343.13 220.11 343.13 Q 220.73 343.13 221.1 342.68 Q 221.47 342.23 221.47 341.48 M 221.47 341.48"/></g><g style="fill: rgb(0,0,0); fill-opacity: 1.0; stroke: none" transform="matrix(1,0,0,1,0,0)" clip-path="url(#94503157121104clip-0)"><path d="M 242.37 343.67 Q 242.51 342.82 242.77 342.21 Q 243.04 341.59 243.7 340.52 L 245.67 337.34 L 241.95 337.34 L 241.95 336.44 L 246.59 336.44 L 246.59 337.34 Q 243.81 341.44 243.48 343.67 M 242.37 343.67"/></g><g style="fill: rgb(0,0,0); fill-opacity: 1.0; stroke: none" transform="matrix(1,0,0,1,0,0)" clip-path="url(#94503157121104clip-0)"><path d="M 267.21 339.73 Q 266.15 339 266.15 338.1 Q 266.15 337.28 266.75 336.77 Q 267.35 336.26 268.31 336.26 Q 269.21 336.26 269.76 336.69 Q 270.32 337.12 270.32 337.82 Q 270.32 338.87 268.97 339.73 Q 270.6 340.53 270.6 341.8 Q 270.6 342.71 269.92 343.28 Q 269.23 343.85 268.15 343.85 Q 267.08 343.85 266.43 343.31 Q 265.77 342.77 265.77 341.89 Q 265.77 340.59 267.21 339.73 M 267.21 339.73 M 268.43 339.43 Q 269.44 338.77 269.44 337.95 Q 269.44 337.52 269.1 337.25 Q 268.77 336.98 268.22 336.98 Q 267.68 336.98 267.35 337.24 Q 267.02 337.51 267.02 337.92 Q 267.02 338.33 267.32 338.65 Q 267.62 338.97 268.43 339.43 M 268.43 339.43 M 267.73 340.12 Q 267.15 340.57 266.94 340.91 Q 266.73 341.24 266.73 341.74 Q 266.73 342.36 267.13 342.74 Q 267.53 343.13 268.19 343.13 Q 268.82 343.13 269.21 342.8 Q 269.61 342.47 269.61 341.95 Q 269.61 341.53 269.37 341.24 Q 269.12 340.95 268.41 340.53 M 267.73 340.12"/></g><g style="fill: rgb(0,0,0); fill-opacity: 1.0; stroke: none" transform="matrix(1,0,0,1,0,0)" clip-path="url(#94503157121104clip-0)"><path d="M 290.08 343.62 L 290.08 342.81 Q 291 343.13 291.64 343.13 Q 292.54 343.13 293.05 342.36 Q 293.55 341.6 293.55 340.24 Q 292.82 341.14 291.89 341.14 Q 290.97 341.14 290.34 340.47 Q 289.7 339.8 289.7 338.83 Q 289.7 337.72 290.38 336.99 Q 291.06 336.26 292.08 336.26 Q 293.26 336.26 293.94 337.21 Q 294.62 338.15 294.62 339.79 Q 294.62 341.66 293.79 342.75 Q 292.96 343.85 291.55 343.85 Q 290.98 343.85 290.08 343.62 M 290.08 343.62 M 290.67 338.64 Q 290.67 339.48 291.04 339.96 Q 291.41 340.45 292.06 340.45 Q 292.67 340.45 293.11 340.03 Q 293.54 339.62 293.54 339.03 Q 293.54 338.11 293.12 337.54 Q 292.7 336.98 292.02 336.98 Q 291.39 336.98 291.03 337.43 Q 290.67 337.87 290.67 338.64 M 290.67 338.64"/></g><g style="fill: rgb(0,0,0); fill-opacity: 1.0; stroke: none" transform="matrix(1,0,0,1,0,0)" clip-path="url(#94503157121104clip-0)"><path d="M 311.48 343.67 L 311.48 342.95 L 312.93 342.95 L 312.93 337.24 L 311.48 337.6 L 311.48 336.86 L 313.9 336.26 L 313.9 342.95 L 315.34 342.95 L 315.34 343.67 M 311.48 343.67 M 319.12 343.85 Q 318 343.85 317.31 342.8 Q 316.62 341.74 316.62 340.05 Q 316.62 338.34 317.31 337.3 Q 318.01 336.26 319.15 336.26 Q 320.28 336.26 320.98 337.3 Q 321.67 338.34 321.67 340.04 Q 321.67 341.77 320.98 342.81 Q 320.28 343.85 319.12 343.85 M 319.12 343.85 M 319.13 343.13 Q 320.65 343.13 320.65 340.02 Q 320.65 336.98 319.15 336.98 Q 317.64 336.98 317.64 340.05 Q 317.64 343.13 319.13 343.13 M 319.13 343.13"/></g><g style="fill: rgb(0,0,0); fill-opacity: 1.0; stroke: none" transform="matrix(1,0,0,1,0,0)" clip-path="url(#94503157121104clip-0)"><path d="M 335.52 343.67 L 335.52 342.95 L 336.97 342.95 L 336.97 337.24 L 335.52 337.6 L 335.52 336.86 L 337.93 336.26 L 337.93 342.95 L 339.38 342.95 L 339.38 343.67 M 335.52 343.67 M 341.52 343.67 L 341.52 342.95 L 342.97 342.95 L 342.97 337.24 L 341.52 337.6 L 341.52 336.86 L 343.93 336.26 L 343.93 342.95 L 345.38 342.95 L 345.38 343.67 M 341.52 343.67"/></g><g style="fill: rgb(0,0,0); fill-opacity: 1.0; stroke: none" transform="matrix(1,0,0,1,0,0)" clip-path="url(#94503157121104clip-0)"><path d="M 359.56 343.67 L 359.56 342.95 L 361.01 342.95 L 361.01 337.24 L 359.56 337.6 L 359.56 336.86 L 361.97 336.26 L 361.97 342.95 L 363.42 342.95 L 363.42 343.67 M 359.56 343.67 M 364.89 343.67 L 364.89 342.82 Q 365.31 341.84 366.59 340.68 L 367.14 340.19 Q 368.2 339.23 368.2 338.28 Q 368.2 337.68 367.84 337.33 Q 367.47 336.98 366.84 336.98 Q 366.09 336.98 365.07 337.56 L 365.07 336.71 Q 366.03 336.26 366.98 336.26 Q 367.99 336.26 368.61 336.81 Q 369.22 337.35 369.22 338.26 Q 369.22 338.91 368.91 339.41 Q 368.6 339.91 367.76 340.63 L 367.39 340.95 Q 366.23 341.93 366.05 342.82 L 369.19 342.82 L 369.19 343.67 M 364.89 343.67"/></g><g style="fill: rgb(0,0,0); fill-opacity: 1.0; stroke: none" transform="matrix(1,0,0,1,0,0)" clip-path="url(#94503157121104clip-0)"><path d="M 383.6 343.67 L 383.6 342.95 L 385.04 342.95 L 385.04 337.24 L 383.6 337.6 L 383.6 336.86 L 386.01 336.26 L 386.01 342.95 L 387.46 342.95 L 387.46 343.67 M 383.6 343.67 M 389.11 343.61 L 389.11 342.72 Q 390.15 343.13 390.74 343.13 Q 391.43 343.13 391.86 342.72 Q 392.29 342.32 392.29 341.68 Q 392.29 340.16 390.16 340.16 L 389.78 340.16 L 389.78 339.51 L 390.12 339.5 Q 392.12 339.5 392.12 338.09 Q 392.12 336.98 390.8 336.98 Q 390.08 336.98 389.21 337.39 L 389.21 336.55 Q 390.06 336.26 390.87 336.26 Q 393.08 336.26 393.08 337.94 Q 393.08 339.21 391.58 339.75 Q 393.32 340.16 393.32 341.67 Q 393.32 342.69 392.65 343.27 Q 391.98 343.85 390.8 343.85 Q 390.13 343.85 389.11 343.61 M 389.11 343.61"/></g><g style="fill: rgb(0,0,0); fill-opacity: 1.0; stroke: none" transform="matrix(1,0,0,1,0,0)" clip-path="url(#94503157121104clip-0)"><path d="M 407.64 343.67 L 407.64 342.95 L 409.08 342.95 L 409.08 337.24 L 407.64 337.6 L 407.64 336.86 L 410.05 336.26 L 410.05 342.95 L 411.49 342.95 L 411.49 343.67 M 407.64 343.67 M 415.9 343.67 L 415.9 341.62 L 412.65 341.62 L 412.65 340.89 L 415.9 336.44 L 416.8 336.44 L 416.8 340.84 L 417.77 340.84 L 417.77 341.62 L 416.8 341.62 L 416.8 343.67 M 415.9 343.67 M 413.59 340.84 L 415.96 340.84 L 415.96 337.62 M 413.59 340.84"/></g><g style="fill: rgb(0,0,0); fill-opacity: 1.0; stroke: none" transform="matrix(1,0,0,1,0,0)" clip-path="url(#94503157121104clip-0)"><path d="M 431.67 343.67 L 431.67 342.95 L 433.12 342.95 L 433.12 337.24 L 431.67 337.6 L 431.67 336.86 L 434.09 336.26 L 434.09 342.95 L 435.53 342.95 L 435.53 343.67 M 431.67 343.67 M 437.39 343.7 L 437.39 342.84 Q 438.1 343.13 438.75 343.13 Q 439.47 343.13 439.87 342.71 Q 440.28 342.29 440.28 341.55 Q 440.28 339.92 438.04 339.92 Q 437.79 339.92 437.51 339.96 L 437.51 336.44 L 441.17 336.44 L 441.17 337.28 L 438.35 337.28 L 438.35 339.19 Q 439.74 339.19 440.53 339.83 Q 441.31 340.46 441.31 341.6 Q 441.31 342.65 440.6 343.25 Q 439.89 343.85 438.63 343.85 Q 438.08 343.85 437.39 343.7 M 437.39 343.7"/></g><g style="fill: rgb(0,0,0); fill-opacity: 1.0; stroke: none" transform="matrix(1,0,0,1,0,0)" clip-path="url(#94503157121104clip-0)"><path d="M 455.71 343.67 L 455.71 342.95 L 457.16 342.95 L 457.16 337.24 L 455.71 337.6 L 455.71 336.86 L 458.12 336.26 L 458.12 342.95 L 459.57 342.95 L 459.57 343.67 M 455.71 343.67 M 461.93 339.92 Q 462.62 339.03 463.66 339.03 Q 464.61 339.03 465.21 339.66 Q 465.81 340.28 465.81 341.27 Q 465.81 342.39 465.14 343.12 Q 464.46 343.85 463.42 343.85 Q 462.23 343.85 461.55 342.89 Q 460.88 341.92 460.88 340.22 Q 460.88 338.34 461.65 337.3 Q 462.43 336.26 463.83 336.26 Q 464.48 336.26 465.44 336.53 L 465.44 337.37 Q 464.42 336.98 463.77 336.98 Q 461.93 336.98 461.93 339.92 M 461.93 339.92 M 464.85 341.48 Q 464.85 340.66 464.48 340.19 Q 464.11 339.72 463.46 339.72 Q 462.85 339.72 462.41 340.13 Q 461.97 340.54 461.97 341.12 Q 461.97 342.03 462.38 342.58 Q 462.8 343.13 463.49 343.13 Q 464.11 343.13 464.48 342.68 Q 464.85 342.23 464.85 341.48 M 464.85 341.48"/></g><g style="fill: rgb(0,0,0); fill-opacity: 1.0; stroke: none" transform="matrix(1,0,0,1,0,0)" clip-path="url(#94503157121104clip-0)"><path d="M 479.75 343.67 L 479.75 342.95 L 481.2 342.95 L 481.2 337.24 L 479.75 337.6 L 479.75 336.86 L 482.16 336.26 L 482.16 342.95 L 483.61 342.95 L 483.61 343.67 M 479.75 343.67 M 485.75 343.67 Q 485.89 342.82 486.15 342.21 Q 486.41 341.59 487.08 340.52 L 489.05 337.34 L 485.33 337.34 L 485.33 336.44 L 489.97 336.44 L 489.97 337.34 Q 487.19 341.44 486.86 343.67 M 485.75 343.67"/></g><g style="fill: rgb(0,0,0); fill-opacity: 1.0; stroke: none" transform="matrix(1,0,0,1,0,0)" clip-path="url(#94503157121104clip-0)"><path d="M 503.79 343.67 L 503.79 342.95 L 505.23 342.95 L 505.23 337.24 L 503.79 337.6 L 503.79 336.86 L 506.2 336.26 L 506.2 342.95 L 507.65 342.95 L 507.65 343.67 M 503.79 343.67 M 510.58 339.73 Q 509.52 339 509.52 338.1 Q 509.52 337.28 510.13 336.77 Q 510.73 336.26 511.69 336.26 Q 512.59 336.26 513.14 336.69 Q 513.69 337.12 513.69 337.82 Q 513.69 338.87 512.35 339.73 Q 513.98 340.53 513.98 341.8 Q 513.98 342.71 513.3 343.28 Q 512.61 343.85 511.53 343.85 Q 510.46 343.85 509.81 343.31 Q 509.15 342.77 509.15 341.89 Q 509.15 340.59 510.58 339.73 M 510.58 339.73 M 511.81 339.43 Q 512.82 338.77 512.82 337.95 Q 512.82 337.52 512.48 337.25 Q 512.15 336.98 511.59 336.98 Q 511.06 336.98 510.73 337.24 Q 510.4 337.51 510.4 337.92 Q 510.4 338.33 510.7 338.65 Q 511 338.97 511.81 339.43 M 511.81 339.43 M 511.11 340.12 Q 510.53 340.57 510.32 340.91 Q 510.11 341.24 510.11 341.74 Q 510.11 342.36 510.51 342.74 Q 510.91 343.13 511.57 343.13 Q 512.2 343.13 512.59 342.8 Q 512.99 342.47 512.99 341.95 Q 512.99 341.53 512.74 341.24 Q 512.5 340.95 511.79 340.53 M 511.11 340.12"/></g><g style="fill: rgb(0,0,0); fill-opacity: 1.0; stroke: none" transform="matrix(1,0,0,1,0,0)" clip-path="url(#94503157121104clip-0)"><path d="M 527.83 343.67 L 527.83 342.95 L 529.27 342.95 L 529.27 337.24 L 527.83 337.6 L 527.83 336.86 L 530.24 336.26 L 530.24 342.95 L 531.68 342.95 L 531.68 343.67 M 527.83 343.67 M 533.46 343.62 L 533.46 342.81 Q 534.38 343.13 535.02 343.13 Q 535.92 343.13 536.43 342.36 Q 536.93 341.6 536.93 340.24 Q 536.2 341.14 535.27 341.14 Q 534.35 341.14 533.72 340.47 Q 533.08 339.8 533.08 338.83 Q 533.08 337.72 533.76 336.99 Q 534.44 336.26 535.46 336.26 Q 536.64 336.26 537.32 337.21 Q 538 338.15 538 339.79 Q 538 341.66 537.17 342.75 Q 536.34 343.85 534.93 343.85 Q 534.36 343.85 533.46 343.62 M 533.46 343.62 M 534.05 338.64 Q 534.05 339.48 534.42 339.96 Q 534.79 340.45 535.44 340.45 Q 536.05 340.45 536.48 340.03 Q 536.92 339.62 536.92 339.03 Q 536.92 338.11 536.5 337.54 Q 536.08 336.98 535.4 336.98 Q 534.77 336.98 534.41 337.43 Q 534.05 337.87 534.05 338.64 M 534.05 338.64"/></g><g style="fill: rgb(0,0,0); fill-opacity: 1.0; stroke: none" transform="matrix(1,0,0,1,0,0)" clip-path="url(#94503157121104clip-0)"><path d="M 551.19 343.67 L 551.19 342.82 Q 551.61 341.84 552.89 340.68 L 553.44 340.19 Q 554.51 339.23 554.51 338.28 Q 554.51 337.68 554.14 337.33 Q 553.78 336.98 553.14 336.98 Q 552.39 336.98 551.37 337.56 L 551.37 336.71 Q 552.33 336.26 553.28 336.26 Q 554.3 336.26 554.91 336.81 Q 555.53 337.35 555.53 338.26 Q 555.53 338.91 555.22 339.41 Q 554.91 339.91 554.06 340.63 L 553.69 340.95 Q 552.53 341.93 552.35 342.82 L 555.49 342.82 L 555.49 343.67 M 551.19 343.67 M 559.49 343.85 Q 558.38 343.85 557.69 342.8 Q 556.99 341.74 556.99 340.05 Q 556.99 338.34 557.69 337.3 Q 558.39 336.26 559.52 336.26 Q 560.66 336.26 561.36 337.3 Q 562.05 338.34 562.05 340.04 Q 562.05 341.77 561.36 342.81 Q 560.66 343.85 559.49 343.85 M 559.49 343.85 M 559.5 343.13 Q 561.03 343.13 561.03 340.02 Q 561.03 336.98 559.52 336.98 Q 558.02 336.98 558.02 340.05 Q 558.02 343.13 559.5 343.13 M 559.5 343.13"/></g><g style="fill: rgb(0,0,0); fill-opacity: 1.0; stroke: none" transform="matrix(1,0,0,1,0,0)" clip-path="url(#94503157121104clip-0)"><path d="M 314.68 364.38 L 314.68 356.63 L 311.61 356.63 L 311.61 355.71 L 318.99 355.71 L 318.99 356.63 L 315.91 356.63 L 315.91 364.38 M 314.68 364.38 M 324.63 364.38 L 324.63 363.18 Q 323.71 364.53 322.4 364.53 Q 321.57 364.53 321.08 364 Q 320.58 363.48 320.58 362.59 L 320.58 358.02 L 321.74 358.02 L 321.74 362.21 Q 321.74 362.93 321.95 363.23 Q 322.15 363.53 322.64 363.53 Q 323.7 363.53 324.63 362.14 L 324.63 358.02 L 325.79 358.02 L 325.79 364.38 M 324.63 364.38 M 328.65 366.69 L 328.65 358.02 L 329.81 358.02 L 329.81 359.21 Q 330.52 357.88 331.94 357.88 Q 333.08 357.88 333.74 358.71 Q 334.4 359.55 334.4 361 Q 334.4 362.59 333.66 363.56 Q 332.91 364.53 331.69 364.53 Q 330.56 364.53 329.81 363.66 L 329.81 366.69 M 328.65 366.69 M 329.81 362.86 Q 330.7 363.66 331.51 363.66 Q 333.17 363.66 333.17 361.12 Q 333.17 358.88 331.7 358.88 Q 330.73 358.88 329.81 359.93 M 329.81 362.86 M 341.32 364.17 Q 340.16 364.53 339.33 364.53 Q 337.93 364.53 337.04 363.59 Q 336.15 362.66 336.15 361.17 Q 336.15 359.72 336.93 358.79 Q 337.71 357.87 338.93 357.87 Q 340.09 357.87 340.72 358.69 Q 341.35 359.51 341.35 361.02 L 341.34 361.38 L 337.33 361.38 Q 337.58 363.65 339.55 363.65 Q 340.27 363.65 341.32 363.26 M 341.32 364.17 M 337.38 360.51 L 340.19 360.51 Q 340.19 358.74 338.86 358.74 Q 337.53 358.74 337.38 360.51 M 337.38 360.51 M 343.65 364.38 L 343.65 355.13 L 344.81 355.13 L 344.81 364.38 M 343.65 364.38"/></g><line x1="64" y1="23" x2="64" y2="328" style="stroke-width: 1.0;stroke: rgb(128,128,128);stroke-opacity: 1.0;" transform="matrix(1,0,0,1,0,0)" clip-path="url(#94503157121104clip-0)"/><g style="fill: rgb(0,0,0); fill-opacity: 1.0; stroke: none" transform="matrix(1,0,0,1,0,0)" clip-path="url(#94503157121104clip-0)"><path d="M 34.13 331.96 Q 33.02 331.96 32.33 330.91 Q 31.63 329.86 31.63 328.16 Q 31.63 326.45 32.33 325.41 Q 33.03 324.37 34.16 324.37 Q 35.3 324.37 36 325.41 Q 36.69 326.45 36.69 328.15 Q 36.69 329.88 36 330.92 Q 35.3 331.96 34.13 331.96 M 34.13 331.96 M 34.14 331.24 Q 35.67 331.24 35.67 328.13 Q 35.67 325.09 34.16 325.09 Q 32.66 325.09 32.66 328.16 Q 32.66 331.24 34.14 331.24 M 34.14 331.24 M 37.98 331.78 L 37.98 330.57 L 39.18 330.57 L 39.18 331.78 M 37.98 331.78 M 43.13 331.96 Q 42.02 331.96 41.33 330.91 Q 40.63 329.86 40.63 328.16 Q 40.63 326.45 41.33 325.41 Q 42.03 324.37 43.16 324.37 Q 44.3 324.37 45 325.41 Q 45.69 326.45 45.69 328.15 Q 45.69 329.88 45 330.92 Q 44.3 331.96 43.13 331.96 M 43.13 331.96 M 43.14 331.24 Q 44.67 331.24 44.67 328.13 Q 44.67 325.09 43.16 325.09 Q 41.66 325.09 41.66 328.16 Q 41.66 331.24 43.14 331.24 M 43.14 331.24 M 49.13 331.96 Q 48.02 331.96 47.33 330.91 Q 46.63 329.86 46.63 328.16 Q 46.63 326.45 47.33 325.41 Q 48.03 324.37 49.16 324.37 Q 50.3 324.37 51 325.41 Q 51.69 326.45 51.69 328.15 Q 51.69 329.88 51 330.92 Q 50.3 331.96 49.13 331.96 M 49.13 331.96 M 49.14 331.24 Q 50.67 331.24 50.67 328.13 Q 50.67 325.09 49.16 325.09 Q 47.66 325.09 47.66 328.16 Q 47.66 331.24 49.14 331.24 M 49.14 331.24 M 55.13 331.96 Q 54.02 331.96 53.33 330.91 Q 52.63 329.86 52.63 328.16 Q 52.63 326.45 53.33 325.41 Q 54.03 324.37 55.16 324.37 Q 56.3 324.37 57 325.41 Q 57.69 326.45 57.69 328.15 Q 57.69 329.88 57 330.92 Q 56.3 331.96 55.13 331.96 M 55.13 331.96 M 55.14 331.24 Q 56.67 331.24 56.67 328.13 Q 56.67 325.09 55.16 325.09 Q 53.66 325.09 53.66 328.16 Q 53.66 331.24 55.14 331.24 M 55.14 331.24"/></g><line x1="62" y1="328" x2="64" y2="328" style="stroke-width: 1.0;stroke: rgb(128,128,128);stroke-opacity: 1.0;" transform="matrix(1,0,0,1,0,0)" clip-path="url(#94503157121104clip-0)"/><g style="fill: rgb(0,0,0); fill-opacity: 1.0; stroke: none" transform="matrix(1,0,0,1,0,0)" clip-path="url(#94503157121104clip-0)"><path d="M 34.13 308.48 Q 33.02 308.48 32.33 307.43 Q 31.63 306.38 31.63 304.68 Q 31.63 302.98 32.33 301.94 Q 33.03 300.9 34.16 300.9 Q 35.3 300.9 36 301.94 Q 36.69 302.98 36.69 304.67 Q 36.69 306.41 36 307.45 Q 35.3 308.48 34.13 308.48 M 34.13 308.48 M 34.14 307.76 Q 35.67 307.76 35.67 304.66 Q 35.67 301.62 34.16 301.62 Q 32.66 301.62 32.66 304.68 Q 32.66 307.76 34.14 307.76 M 34.14 307.76 M 37.98 308.3 L 37.98 307.1 L 39.18 307.1 L 39.18 308.3 M 37.98 308.3 M 43.13 308.48 Q 42.02 308.48 41.33 307.43 Q 40.63 306.38 40.63 304.68 Q 40.63 302.98 41.33 301.94 Q 42.03 300.9 43.16 300.9 Q 44.3 300.9 45 301.94 Q 45.69 302.98 45.69 304.67 Q 45.69 306.41 45 307.45 Q 44.3 308.48 43.13 308.48 M 43.13 308.48 M 43.14 307.76 Q 44.67 307.76 44.67 304.66 Q 44.67 301.62 43.16 301.62 Q 41.66 301.62 41.66 304.68 Q 41.66 307.76 43.14 307.76 M 43.14 307.76 M 46.83 308.3 L 46.83 307.46 Q 47.25 306.48 48.53 305.32 L 49.08 304.83 Q 50.15 303.86 50.15 302.92 Q 50.15 302.31 49.78 301.96 Q 49.42 301.62 48.78 301.62 Q 48.03 301.62 47.01 302.2 L 47.01 301.35 Q 47.97 300.9 48.92 300.9 Q 49.94 300.9 50.55 301.44 Q 51.17 301.99 51.17 302.89 Q 51.17 303.54 50.86 304.04 Q 50.55 304.55 49.7 305.27 L 49.33 305.58 Q 48.17 306.56 47.99 307.46 L 51.13 307.46 L 51.13 308.3 M 46.83 308.3 M 53.22 308.33 L 53.22 307.47 Q 53.93 307.76 54.58 307.76 Q 55.3 307.76 55.7 307.34 Q 56.11 306.92 56.11 306.18 Q 56.11 304.56 53.87 304.56 Q 53.62 304.56 53.34 304.59 L 53.34 301.08 L 57 301.08 L 57 301.92 L 54.18 301.92 L 54.18 303.82 Q 55.57 303.82 56.36 304.46 Q 57.14 305.1 57.14 306.23 Q 57.14 307.29 56.43 307.89 Q 55.72 308.48 54.46 308.48 Q 53.91 308.48 53.22 308.33 M 53.22 308.33"/></g><line x1="62" y1="304.52" x2="64" y2="304.52" style="stroke-width: 1.0;stroke: rgb(128,128,128);stroke-opacity: 1.0;" transform="matrix(1,0,0,1,0,0)" clip-path="url(#94503157121104clip-0)"/><g style="fill: rgb(0,0,0); fill-opacity: 1.0; stroke: none" transform="matrix(1,0,0,1,0,0)" clip-path="url(#94503157121104clip-0)"><path d="M 34.13 285.01 Q 33.02 285.01 32.33 283.95 Q 31.63 282.9 31.63 281.21 Q 31.63 279.5 32.33 278.46 Q 33.03 277.42 34.16 277.42 Q 35.3 277.42 36 278.46 Q 36.69 279.5 36.69 281.19 Q 36.69 282.93 36 283.97 Q 35.3 285.01 34.13 285.01 M 34.13 285.01 M 34.14 284.28 Q 35.67 284.28 35.67 281.18 Q 35.67 278.14 34.16 278.14 Q 32.66 278.14 32.66 281.21 Q 32.66 284.28 34.14 284.28 M 34.14 284.28 M 37.98 284.83 L 37.98 283.62 L 39.18 283.62 L 39.18 284.83 M 37.98 284.83 M 43.13 285.01 Q 42.02 285.01 41.33 283.95 Q 40.63 282.9 40.63 281.21 Q 40.63 279.5 41.33 278.46 Q 42.03 277.42 43.16 277.42 Q 44.3 277.42 45 278.46 Q 45.69 279.5 45.69 281.19 Q 45.69 282.93 45 283.97 Q 44.3 285.01 43.13 285.01 M 43.13 285.01 M 43.14 284.28 Q 44.67 284.28 44.67 281.18 Q 44.67 278.14 43.16 278.14 Q 41.66 278.14 41.66 281.21 Q 41.66 284.28 43.14 284.28 M 43.14 284.28 M 47.22 284.86 L 47.22 284 Q 47.93 284.28 48.58 284.28 Q 49.3 284.28 49.7 283.86 Q 50.11 283.44 50.11 282.71 Q 50.11 281.08 47.87 281.08 Q 47.62 281.08 47.34 281.12 L 47.34 277.6 L 51 277.6 L 51 278.44 L 48.18 278.44 L 48.18 280.34 Q 49.57 280.34 50.36 280.98 Q 51.14 281.62 51.14 282.76 Q 51.14 283.81 50.43 284.41 Q 49.72 285.01 48.46 285.01 Q 47.91 285.01 47.22 284.86 M 47.22 284.86 M 55.13 285.01 Q 54.02 285.01 53.33 283.95 Q 52.63 282.9 52.63 281.21 Q 52.63 279.5 53.33 278.46 Q 54.03 277.42 55.16 277.42 Q 56.3 277.42 57 278.46 Q 57.69 279.5 57.69 281.19 Q 57.69 282.93 57 283.97 Q 56.3 285.01 55.13 285.01 M 55.13 285.01 M 55.14 284.28 Q 56.67 284.28 56.67 281.18 Q 56.67 278.14 55.16 278.14 Q 53.66 278.14 53.66 281.21 Q 53.66 284.28 55.14 284.28 M 55.14 284.28"/></g><line x1="62" y1="281.05" x2="64" y2="281.05" style="stroke-width: 1.0;stroke: rgb(128,128,128);stroke-opacity: 1.0;" transform="matrix(1,0,0,1,0,0)" clip-path="url(#94503157121104clip-0)"/><g style="fill: rgb(0,0,0); fill-opacity: 1.0; stroke: none" transform="matrix(1,0,0,1,0,0)" clip-path="url(#94503157121104clip-0)"><path d="M 34.13 261.53 Q 33.02 261.53 32.33 260.48 Q 31.63 259.43 31.63 257.73 Q 31.63 256.02 32.33 254.98 Q 33.03 253.94 34.16 253.94 Q 35.3 253.94 36 254.98 Q 36.69 256.02 36.69 257.72 Q 36.69 259.45 36 260.49 Q 35.3 261.53 34.13 261.53 M 34.13 261.53 M 34.14 260.81 Q 35.67 260.81 35.67 257.7 Q 35.67 254.66 34.16 254.66 Q 32.66 254.66 32.66 257.73 Q 32.66 260.81 34.14 260.81 M 34.14 260.81 M 37.98 261.35 L 37.98 260.14 L 39.18 260.14 L 39.18 261.35 M 37.98 261.35 M 43.13 261.53 Q 42.02 261.53 41.33 260.48 Q 40.63 259.43 40.63 257.73 Q 40.63 256.02 41.33 254.98 Q 42.03 253.94 43.16 253.94 Q 44.3 253.94 45 254.98 Q 45.69 256.02 45.69 257.72 Q 45.69 259.45 45 260.49 Q 44.3 261.53 43.13 261.53 M 43.13 261.53 M 43.14 260.81 Q 44.67 260.81 44.67 257.7 Q 44.67 254.66 43.16 254.66 Q 41.66 254.66 41.66 257.73 Q 41.66 260.81 43.14 260.81 M 43.14 260.81 M 47.5 261.35 Q 47.65 260.5 47.91 259.89 Q 48.17 259.27 48.83 258.2 L 50.8 255.03 L 47.08 255.03 L 47.08 254.12 L 51.72 254.12 L 51.72 255.03 Q 48.94 259.12 48.61 261.35 M 47.5 261.35 M 53.22 261.38 L 53.22 260.52 Q 53.93 260.81 54.58 260.81 Q 55.3 260.81 55.7 260.39 Q 56.11 259.97 56.11 259.23 Q 56.11 257.6 53.87 257.6 Q 53.62 257.6 53.34 257.64 L 53.34 254.12 L 57 254.12 L 57 254.96 L 54.18 254.96 L 54.18 256.87 Q 55.57 256.87 56.36 257.51 Q 57.14 258.15 57.14 259.28 Q 57.14 260.33 56.43 260.93 Q 55.72 261.53 54.46 261.53 Q 53.91 261.53 53.22 261.38 M 53.22 261.38"/></g><line x1="62" y1="257.57" x2="64" y2="257.57" style="stroke-width: 1.0;stroke: rgb(128,128,128);stroke-opacity: 1.0;" transform="matrix(1,0,0,1,0,0)" clip-path="url(#94503157121104clip-0)"/><g style="fill: rgb(0,0,0); fill-opacity: 1.0; stroke: none" transform="matrix(1,0,0,1,0,0)" clip-path="url(#94503157121104clip-0)"><path d="M 34.13 238.05 Q 33.02 238.05 32.33 237 Q 31.63 235.95 31.63 234.25 Q 31.63 232.55 32.33 231.51 Q 33.03 230.47 34.16 230.47 Q 35.3 230.47 36 231.51 Q 36.69 232.55 36.69 234.24 Q 36.69 235.98 36 237.02 Q 35.3 238.05 34.13 238.05 M 34.13 238.05 M 34.14 237.33 Q 35.67 237.33 35.67 234.23 Q 35.67 231.19 34.16 231.19 Q 32.66 231.19 32.66 234.25 Q 32.66 237.33 34.14 237.33 M 34.14 237.33 M 37.98 237.87 L 37.98 236.67 L 39.18 236.67 L 39.18 237.87 M 37.98 237.87 M 41.5 237.87 L 41.5 237.15 L 42.95 237.15 L 42.95 231.45 L 41.5 231.81 L 41.5 231.07 L 43.92 230.47 L 43.92 237.15 L 45.36 237.15 L 45.36 237.87 M 41.5 237.87 M 49.13 238.05 Q 48.02 238.05 47.33 237 Q 46.63 235.95 46.63 234.25 Q 46.63 232.55 47.33 231.51 Q 48.03 230.47 49.16 230.47 Q 50.3 230.47 51 231.51 Q 51.69 232.55 51.69 234.24 Q 51.69 235.98 51 237.02 Q 50.3 238.05 49.13 238.05 M 49.13 238.05 M 49.14 237.33 Q 50.67 237.33 50.67 234.23 Q 50.67 231.19 49.16 231.19 Q 47.66 231.19 47.66 234.25 Q 47.66 237.33 49.14 237.33 M 49.14 237.33 M 55.13 238.05 Q 54.02 238.05 53.33 237 Q 52.63 235.95 52.63 234.25 Q 52.63 232.55 53.33 231.51 Q 54.03 230.47 55.16 230.47 Q 56.3 230.47 57 231.51 Q 57.69 232.55 57.69 234.24 Q 57.69 235.98 57 237.02 Q 56.3 238.05 55.13 238.05 M 55.13 238.05 M 55.14 237.33 Q 56.67 237.33 56.67 234.23 Q 56.67 231.19 55.16 231.19 Q 53.66 231.19 53.66 234.25 Q 53.66 237.33 55.14 237.33 M 55.14 237.33"/></g><line x1="62" y1="234.09" x2="64" y2="234.09" style="stroke-width: 1.0;stroke: rgb(128,128,128);stroke-opacity: 1.0;" transform="matrix(1,0,0,1,0,0)" clip-path="url(#94503157121104clip-0)"/><g style="fill: rgb(0,0,0); fill-opacity: 1.0; stroke: none" transform="matrix(1,0,0,1,0,0)" clip-path="url(#94503157121104clip-0)"><path d="M 34.13 214.58 Q 33.02 214.58 32.33 213.52 Q 31.63 212.47 31.63 210.78 Q 31.63 209.07 32.33 208.03 Q 33.03 206.99 34.16 206.99 Q 35.3 206.99 36 208.03 Q 36.69 209.07 36.69 210.76 Q 36.69 212.5 36 213.54 Q 35.3 214.58 34.13 214.58 M 34.13 214.58 M 34.14 213.85 Q 35.67 213.85 35.67 210.75 Q 35.67 207.71 34.16 207.71 Q 32.66 207.71 32.66 210.78 Q 32.66 213.85 34.14 213.85 M 34.14 213.85 M 37.98 214.4 L 37.98 213.19 L 39.18 213.19 L 39.18 214.4 M 37.98 214.4 M 41.5 214.4 L 41.5 213.67 L 42.95 213.67 L 42.95 207.97 L 41.5 208.33 L 41.5 207.59 L 43.92 206.99 L 43.92 213.67 L 45.36 213.67 L 45.36 214.4 M 41.5 214.4 M 46.83 214.4 L 46.83 213.55 Q 47.25 212.57 48.53 211.41 L 49.08 210.92 Q 50.15 209.96 50.15 209.01 Q 50.15 208.41 49.78 208.06 Q 49.42 207.71 48.78 207.71 Q 48.03 207.71 47.01 208.29 L 47.01 207.44 Q 47.97 206.99 48.92 206.99 Q 49.94 206.99 50.55 207.54 Q 51.17 208.08 51.17 208.99 Q 51.17 209.64 50.86 210.14 Q 50.55 210.64 49.7 211.36 L 49.33 211.68 Q 48.17 212.66 47.99 213.55 L 51.13 213.55 L 51.13 214.4 M 46.83 214.4 M 53.22 214.43 L 53.22 213.57 Q 53.93 213.85 54.58 213.85 Q 55.3 213.85 55.7 213.43 Q 56.11 213.01 56.11 212.28 Q 56.11 210.65 53.87 210.65 Q 53.62 210.65 53.34 210.69 L 53.34 207.17 L 57 207.17 L 57 208.01 L 54.18 208.01 L 54.18 209.91 Q 55.57 209.91 56.36 210.55 Q 57.14 211.19 57.14 212.33 Q 57.14 213.38 56.43 213.98 Q 55.72 214.58 54.46 214.58 Q 53.91 214.58 53.22 214.43 M 53.22 214.43"/></g><line x1="62" y1="210.62" x2="64" y2="210.62" style="stroke-width: 1.0;stroke: rgb(128,128,128);stroke-opacity: 1.0;" transform="matrix(1,0,0,1,0,0)" clip-path="url(#94503157121104clip-0)"/><g style="fill: rgb(0,0,0); fill-opacity: 1.0; stroke: none" transform="matrix(1,0,0,1,0,0)" clip-path="url(#94503157121104clip-0)"><path d="M 34.13 191.1 Q 33.02 191.1 32.33 190.05 Q 31.63 189 31.63 187.3 Q 31.63 185.59 32.33 184.55 Q 33.03 183.51 34.16 183.51 Q 35.3 183.51 36 184.55 Q 36.69 185.59 36.69 187.29 Q 36.69 189.03 36 190.06 Q 35.3 191.1 34.13 191.1 M 34.13 191.1 M 34.14 190.38 Q 35.67 190.38 35.67 187.27 Q 35.67 184.24 34.16 184.24 Q 32.66 184.24 32.66 187.3 Q 32.66 190.38 34.14 190.38 M 34.14 190.38 M 37.98 190.92 L 37.98 189.71 L 39.18 189.71 L 39.18 190.92 M 37.98 190.92 M 41.5 190.92 L 41.5 190.2 L 42.95 190.2 L 42.95 184.49 L 41.5 184.86 L 41.5 184.11 L 43.92 183.51 L 43.92 190.2 L 45.36 190.2 L 45.36 190.92 M 41.5 190.92 M 47.22 190.95 L 47.22 190.09 Q 47.93 190.38 48.58 190.38 Q 49.3 190.38 49.7 189.96 Q 50.11 189.54 50.11 188.8 Q 50.11 187.17 47.87 187.17 Q 47.62 187.17 47.34 187.21 L 47.34 183.69 L 51 183.69 L 51 184.53 L 48.18 184.53 L 48.18 186.44 Q 49.57 186.44 50.36 187.08 Q 51.14 187.72 51.14 188.85 Q 51.14 189.9 50.43 190.5 Q 49.72 191.1 48.46 191.1 Q 47.91 191.1 47.22 190.95 M 47.22 190.95 M 55.13 191.1 Q 54.02 191.1 53.33 190.05 Q 52.63 189 52.63 187.3 Q 52.63 185.59 53.33 184.55 Q 54.03 183.51 55.16 183.51 Q 56.3 183.51 57 184.55 Q 57.69 185.59 57.69 187.29 Q 57.69 189.03 57 190.06 Q 56.3 191.1 55.13 191.1 M 55.13 191.1 M 55.14 190.38 Q 56.67 190.38 56.67 187.27 Q 56.67 184.24 55.16 184.24 Q 53.66 184.24 53.66 187.3 Q 53.66 190.38 55.14 190.38 M 55.14 190.38"/></g><line x1="62" y1="187.14" x2="64" y2="187.14" style="stroke-width: 1.0;stroke: rgb(128,128,128);stroke-opacity: 1.0;" transform="matrix(1,0,0,1,0,0)" clip-path="url(#94503157121104clip-0)"/><g style="fill: rgb(0,0,0); fill-opacity: 1.0; stroke: none" transform="matrix(1,0,0,1,0,0)" clip-path="url(#94503157121104clip-0)"><path d="M 34.13 167.62 Q 33.02 167.62 32.33 166.57 Q 31.63 165.52 31.63 163.82 Q 31.63 162.12 32.33 161.08 Q 33.03 160.04 34.16 160.04 Q 35.3 160.04 36 161.08 Q 36.69 162.12 36.69 163.81 Q 36.69 165.55 36 166.59 Q 35.3 167.62 34.13 167.62 M 34.13 167.62 M 34.14 166.9 Q 35.67 166.9 35.67 163.8 Q 35.67 160.76 34.16 160.76 Q 32.66 160.76 32.66 163.82 Q 32.66 166.9 34.14 166.9 M 34.14 166.9 M 37.98 167.44 L 37.98 166.24 L 39.18 166.24 L 39.18 167.44 M 37.98 167.44 M 41.5 167.44 L 41.5 166.72 L 42.95 166.72 L 42.95 161.02 L 41.5 161.38 L 41.5 160.64 L 43.92 160.04 L 43.92 166.72 L 45.36 166.72 L 45.36 167.44 M 41.5 167.44 M 47.5 167.44 Q 47.65 166.6 47.91 165.98 Q 48.17 165.37 48.83 164.29 L 50.8 161.12 L 47.08 161.12 L 47.08 160.22 L 51.72 160.22 L 51.72 161.12 Q 48.94 165.22 48.61 167.44 M 47.5 167.44 M 53.22 167.47 L 53.22 166.61 Q 53.93 166.9 54.58 166.9 Q 55.3 166.9 55.7 166.48 Q 56.11 166.06 56.11 165.32 Q 56.11 163.7 53.87 163.7 Q 53.62 163.7 53.34 163.73 L 53.34 160.22 L 57 160.22 L 57 161.06 L 54.18 161.06 L 54.18 162.96 Q 55.57 162.96 56.36 163.6 Q 57.14 164.24 57.14 165.37 Q 57.14 166.43 56.43 167.03 Q 55.72 167.62 54.46 167.62 Q 53.91 167.62 53.22 167.47 M 53.22 167.47"/></g><line x1="62" y1="163.66" x2="64" y2="163.66" style="stroke-width: 1.0;stroke: rgb(128,128,128);stroke-opacity: 1.0;" transform="matrix(1,0,0,1,0,0)" clip-path="url(#94503157121104clip-0)"/><g style="fill: rgb(0,0,0); fill-opacity: 1.0; stroke: none" transform="matrix(1,0,0,1,0,0)" clip-path="url(#94503157121104clip-0)"><path d="M 34.13 144.15 Q 33.02 144.15 32.33 143.09 Q 31.63 142.04 31.63 140.35 Q 31.63 138.64 32.33 137.6 Q 33.03 136.56 34.16 136.56 Q 35.3 136.56 36 137.6 Q 36.69 138.64 36.69 140.33 Q 36.69 142.07 36 143.11 Q 35.3 144.15 34.13 144.15 M 34.13 144.15 M 34.14 143.42 Q 35.67 143.42 35.67 140.32 Q 35.67 137.28 34.16 137.28 Q 32.66 137.28 32.66 140.35 Q 32.66 143.42 34.14 143.42 M 34.14 143.42 M 37.98 143.97 L 37.98 142.76 L 39.18 142.76 L 39.18 143.97 M 37.98 143.97 M 40.83 143.97 L 40.83 143.12 Q 41.25 142.14 42.53 140.98 L 43.08 140.49 Q 44.15 139.53 44.15 138.58 Q 44.15 137.98 43.78 137.63 Q 43.42 137.28 42.78 137.28 Q 42.03 137.28 41.01 137.86 L 41.01 137.01 Q 41.97 136.56 42.92 136.56 Q 43.94 136.56 44.55 137.11 Q 45.17 137.65 45.17 138.56 Q 45.17 139.21 44.86 139.71 Q 44.55 140.21 43.7 140.93 L 43.33 141.25 Q 42.17 142.23 41.99 143.12 L 45.13 143.12 L 45.13 143.97 M 40.83 143.97 M 49.13 144.15 Q 48.02 144.15 47.33 143.09 Q 46.63 142.04 46.63 140.35 Q 46.63 138.64 47.33 137.6 Q 48.03 136.56 49.16 136.56 Q 50.3 136.56 51 137.6 Q 51.69 138.64 51.69 140.33 Q 51.69 142.07 51 143.11 Q 50.3 144.15 49.13 144.15 M 49.13 144.15 M 49.14 143.42 Q 50.67 143.42 50.67 140.32 Q 50.67 137.28 49.16 137.28 Q 47.66 137.28 47.66 140.35 Q 47.66 143.42 49.14 143.42 M 49.14 143.42 M 55.13 144.15 Q 54.02 144.15 53.33 143.09 Q 52.63 142.04 52.63 140.35 Q 52.63 138.64 53.33 137.6 Q 54.03 136.56 55.16 136.56 Q 56.3 136.56 57 137.6 Q 57.69 138.64 57.69 140.33 Q 57.69 142.07 57 143.11 Q 56.3 144.15 55.13 144.15 M 55.13 144.15 M 55.14 143.42 Q 56.67 143.42 56.67 140.32 Q 56.67 137.28 55.16 137.28 Q 53.66 137.28 53.66 140.35 Q 53.66 143.42 55.14 143.42 M 55.14 143.42"/></g><line x1="62" y1="140.19" x2="64" y2="140.19" style="stroke-width: 1.0;stroke: rgb(128,128,128);stroke-opacity: 1.0;" transform="matrix(1,0,0,1,0,0)" clip-path="url(#94503157121104clip-0)"/><g style="fill: rgb(0,0,0); fill-opacity: 1.0; stroke: none" transform="matrix(1,0,0,1,0,0)" clip-path="url(#94503157121104clip-0)"><path d="M 34.13 120.67 Q 33.02 120.67 32.33 119.62 Q 31.63 118.57 31.63 116.87 Q 31.63 115.16 32.33 114.12 Q 33.03 113.08 34.16 113.08 Q 35.3 113.08 36 114.12 Q 36.69 115.16 36.69 116.86 Q 36.69 118.6 36 119.63 Q 35.3 120.67 34.13 120.67 M 34.13 120.67 M 34.14 119.95 Q 35.67 119.95 35.67 116.84 Q 35.67 113.81 34.16 113.81 Q 32.66 113.81 32.66 116.87 Q 32.66 119.95 34.14 119.95 M 34.14 119.95 M 37.98 120.49 L 37.98 119.28 L 39.18 119.28 L 39.18 120.49 M 37.98 120.49 M 40.83 120.49 L 40.83 119.65 Q 41.25 118.66 42.53 117.51 L 43.08 117.01 Q 44.15 116.05 44.15 115.1 Q 44.15 114.5 43.78 114.15 Q 43.42 113.81 42.78 113.81 Q 42.03 113.81 41.01 114.39 L 41.01 113.54 Q 41.97 113.08 42.92 113.08 Q 43.94 113.08 44.55 113.63 Q 45.17 114.18 45.17 115.08 Q 45.17 115.73 44.86 116.23 Q 44.55 116.74 43.7 117.45 L 43.33 117.77 Q 42.17 118.75 41.99 119.65 L 45.13 119.65 L 45.13 120.49 M 40.83 120.49 M 46.83 120.49 L 46.83 119.65 Q 47.25 118.66 48.53 117.51 L 49.08 117.01 Q 50.15 116.05 50.15 115.1 Q 50.15 114.5 49.78 114.15 Q 49.42 113.81 48.78 113.81 Q 48.03 113.81 47.01 114.39 L 47.01 113.54 Q 47.97 113.08 48.92 113.08 Q 49.94 113.08 50.55 113.63 Q 51.17 114.18 51.17 115.08 Q 51.17 115.73 50.86 116.23 Q 50.55 116.74 49.7 117.45 L 49.33 117.77 Q 48.17 118.75 47.99 119.65 L 51.13 119.65 L 51.13 120.49 M 46.83 120.49 M 53.22 120.52 L 53.22 119.66 Q 53.93 119.95 54.58 119.95 Q 55.3 119.95 55.7 119.53 Q 56.11 119.11 56.11 118.37 Q 56.11 116.74 53.87 116.74 Q 53.62 116.74 53.34 116.78 L 53.34 113.26 L 57 113.26 L 57 114.1 L 54.18 114.1 L 54.18 116.01 Q 55.57 116.01 56.36 116.65 Q 57.14 117.29 57.14 118.42 Q 57.14 119.47 56.43 120.07 Q 55.72 120.67 54.46 120.67 Q 53.91 120.67 53.22 120.52 M 53.22 120.52"/></g><line x1="62" y1="116.71" x2="64" y2="116.71" style="stroke-width: 1.0;stroke: rgb(128,128,128);stroke-opacity: 1.0;" transform="matrix(1,0,0,1,0,0)" clip-path="url(#94503157121104clip-0)"/><g style="fill: rgb(0,0,0); fill-opacity: 1.0; stroke: none" transform="matrix(1,0,0,1,0,0)" clip-path="url(#94503157121104clip-0)"><path d="M 34.13 97.19 Q 33.02 97.19 32.33 96.14 Q 31.63 95.09 31.63 93.4 Q 31.63 91.69 32.33 90.65 Q 33.03 89.61 34.16 89.61 Q 35.3 89.61 36 90.65 Q 36.69 91.69 36.69 93.38 Q 36.69 95.12 36 96.16 Q 35.3 97.19 34.13 97.19 M 34.13 97.19 M 34.14 96.47 Q 35.67 96.47 35.67 93.37 Q 35.67 90.33 34.16 90.33 Q 32.66 90.33 32.66 93.4 Q 32.66 96.47 34.14 96.47 M 34.14 96.47 M 37.98 97.01 L 37.98 95.81 L 39.18 95.81 L 39.18 97.01 M 37.98 97.01 M 40.83 97.01 L 40.83 96.17 Q 41.25 95.19 42.53 94.03 L 43.08 93.54 Q 44.15 92.57 44.15 91.63 Q 44.15 91.02 43.78 90.68 Q 43.42 90.33 42.78 90.33 Q 42.03 90.33 41.01 90.91 L 41.01 90.06 Q 41.97 89.61 42.92 89.61 Q 43.94 89.61 44.55 90.15 Q 45.17 90.7 45.17 91.6 Q 45.17 92.25 44.86 92.76 Q 44.55 93.26 43.7 93.98 L 43.33 94.29 Q 42.17 95.28 41.99 96.17 L 45.13 96.17 L 45.13 97.01 M 40.83 97.01 M 47.22 97.04 L 47.22 96.18 Q 47.93 96.47 48.58 96.47 Q 49.3 96.47 49.7 96.05 Q 50.11 95.63 50.11 94.89 Q 50.11 93.27 47.87 93.27 Q 47.62 93.27 47.34 93.3 L 47.34 89.79 L 51 89.79 L 51 90.63 L 48.18 90.63 L 48.18 92.53 Q 49.57 92.53 50.36 93.17 Q 51.14 93.81 51.14 94.94 Q 51.14 96 50.43 96.6 Q 49.72 97.19 48.46 97.19 Q 47.91 97.19 47.22 97.04 M 47.22 97.04 M 55.13 97.19 Q 54.02 97.19 53.33 96.14 Q 52.63 95.09 52.63 93.4 Q 52.63 91.69 53.33 90.65 Q 54.03 89.61 55.16 89.61 Q 56.3 89.61 57 90.65 Q 57.69 91.69 57.69 93.38 Q 57.69 95.12 57 96.16 Q 56.3 97.19 55.13 97.19 M 55.13 97.19 M 55.14 96.47 Q 56.67 96.47 56.67 93.37 Q 56.67 90.33 55.16 90.33 Q 53.66 90.33 53.66 93.4 Q 53.66 96.47 55.14 96.47 M 55.14 96.47"/></g><line x1="62" y1="93.23" x2="64" y2="93.23" style="stroke-width: 1.0;stroke: rgb(128,128,128);stroke-opacity: 1.0;" transform="matrix(1,0,0,1,0,0)" clip-path="url(#94503157121104clip-0)"/><g style="fill: rgb(0,0,0); fill-opacity: 1.0; stroke: none" transform="matrix(1,0,0,1,0,0)" clip-path="url(#94503157121104clip-0)"><path d="M 34.13 73.72 Q 33.02 73.72 32.33 72.67 Q 31.63 71.61 31.63 69.92 Q 31.63 68.21 32.33 67.17 Q 33.03 66.13 34.16 66.13 Q 35.3 66.13 36 67.17 Q 36.69 68.21 36.69 69.9 Q 36.69 71.64 36 72.68 Q 35.3 73.72 34.13 73.72 M 34.13 73.72 M 34.14 72.99 Q 35.67 72.99 35.67 69.89 Q 35.67 66.85 34.16 66.85 Q 32.66 66.85 32.66 69.92 Q 32.66 72.99 34.14 72.99 M 34.14 72.99 M 37.98 73.54 L 37.98 72.33 L 39.18 72.33 L 39.18 73.54 M 37.98 73.54 M 40.83 73.54 L 40.83 72.69 Q 41.25 71.71 42.53 70.55 L 43.08 70.06 Q 44.15 69.1 44.15 68.15 Q 44.15 67.55 43.78 67.2 Q 43.42 66.85 42.78 66.85 Q 42.03 66.85 41.01 67.43 L 41.01 66.58 Q 41.97 66.13 42.92 66.13 Q 43.94 66.13 44.55 66.68 Q 45.17 67.22 45.17 68.13 Q 45.17 68.78 44.86 69.28 Q 44.55 69.78 43.7 70.5 L 43.33 70.82 Q 42.17 71.8 41.99 72.69 L 45.13 72.69 L 45.13 73.54 M 40.83 73.54 M 47.5 73.54 Q 47.65 72.69 47.91 72.08 Q 48.17 71.46 48.83 70.39 L 50.8 67.21 L 47.08 67.21 L 47.08 66.31 L 51.72 66.31 L 51.72 67.21 Q 48.94 71.31 48.61 73.54 M 47.5 73.54 M 53.22 73.57 L 53.22 72.71 Q 53.93 72.99 54.58 72.99 Q 55.3 72.99 55.7 72.57 Q 56.11 72.15 56.11 71.42 Q 56.11 69.79 53.87 69.79 Q 53.62 69.79 53.34 69.83 L 53.34 66.31 L 57 66.31 L 57 67.15 L 54.18 67.15 L 54.18 69.05 Q 55.57 69.05 56.36 69.69 Q 57.14 70.33 57.14 71.47 Q 57.14 72.52 56.43 73.12 Q 55.72 73.72 54.46 73.72 Q 53.91 73.72 53.22 73.57 M 53.22 73.57"/></g><line x1="62" y1="69.76" x2="64" y2="69.76" style="stroke-width: 1.0;stroke: rgb(128,128,128);stroke-opacity: 1.0;" transform="matrix(1,0,0,1,0,0)" clip-path="url(#94503157121104clip-0)"/><g style="fill: rgb(0,0,0); fill-opacity: 1.0; stroke: none" transform="matrix(1,0,0,1,0,0)" clip-path="url(#94503157121104clip-0)"><path d="M 34.13 50.24 Q 33.02 50.24 32.33 49.19 Q 31.63 48.14 31.63 46.44 Q 31.63 44.73 32.33 43.69 Q 33.03 42.65 34.16 42.65 Q 35.3 42.65 36 43.69 Q 36.69 44.73 36.69 46.43 Q 36.69 48.17 36 49.2 Q 35.3 50.24 34.13 50.24 M 34.13 50.24 M 34.14 49.52 Q 35.67 49.52 35.67 46.41 Q 35.67 43.38 34.16 43.38 Q 32.66 43.38 32.66 46.44 Q 32.66 49.52 34.14 49.52 M 34.14 49.52 M 37.98 50.06 L 37.98 48.85 L 39.18 48.85 L 39.18 50.06 M 37.98 50.06 M 41.02 50.01 L 41.02 49.11 Q 42.05 49.52 42.65 49.52 Q 43.33 49.52 43.77 49.12 Q 44.2 48.71 44.2 48.07 Q 44.2 46.55 42.07 46.55 L 41.68 46.55 L 41.68 45.9 L 42.02 45.9 Q 44.02 45.9 44.02 44.48 Q 44.02 43.38 42.71 43.38 Q 41.98 43.38 41.11 43.78 L 41.11 42.94 Q 41.97 42.65 42.77 42.65 Q 44.99 42.65 44.99 44.33 Q 44.99 45.6 43.48 46.14 Q 45.23 46.55 45.23 48.06 Q 45.23 49.08 44.56 49.66 Q 43.88 50.24 42.71 50.24 Q 42.04 50.24 41.02 50.01 M 41.02 50.01 M 49.13 50.24 Q 48.02 50.24 47.33 49.19 Q 46.63 48.14 46.63 46.44 Q 46.63 44.73 47.33 43.69 Q 48.03 42.65 49.16 42.65 Q 50.3 42.65 51 43.69 Q 51.69 44.73 51.69 46.43 Q 51.69 48.17 51 49.2 Q 50.3 50.24 49.13 50.24 M 49.13 50.24 M 49.14 49.52 Q 50.67 49.52 50.67 46.41 Q 50.67 43.38 49.16 43.38 Q 47.66 43.38 47.66 46.44 Q 47.66 49.52 49.14 49.52 M 49.14 49.52 M 55.13 50.24 Q 54.02 50.24 53.33 49.19 Q 52.63 48.14 52.63 46.44 Q 52.63 44.73 53.33 43.69 Q 54.03 42.65 55.16 42.65 Q 56.3 42.65 57 43.69 Q 57.69 44.73 57.69 46.43 Q 57.69 48.17 57 49.2 Q 56.3 50.24 55.13 50.24 M 55.13 50.24 M 55.14 49.52 Q 56.67 49.52 56.67 46.41 Q 56.67 43.38 55.16 43.38 Q 53.66 43.38 53.66 46.44 Q 53.66 49.52 55.14 49.52 M 55.14 49.52"/></g><line x1="62" y1="46.28" x2="64" y2="46.28" style="stroke-width: 1.0;stroke: rgb(128,128,128);stroke-opacity: 1.0;" transform="matrix(1,0,0,1,0,0)" clip-path="url(#94503157121104clip-0)"/><g style="fill: rgb(0,0,0); fill-opacity: 1.0; stroke: none" transform="matrix(0,-1,1,0,-156.566406,194.433594)" clip-path="url(#94503157121104clip-1)"><path d="M 6.42 180.04 L 3.14 171.36 L 4.38 171.36 L 7.06 178.46 L 9.65 171.36 L 10.73 171.36 L 7.58 180.04 M 6.42 180.04 M 15.37 179.23 Q 14.33 180.18 13.37 180.18 Q 12.58 180.18 12.06 179.69 Q 11.54 179.19 11.54 178.44 Q 11.54 177.39 12.41 176.83 Q 13.29 176.27 14.92 176.27 L 15.2 176.27 L 15.2 175.51 Q 15.2 174.4 14.06 174.4 Q 13.15 174.4 12.09 174.96 L 12.09 174.01 Q 13.25 173.53 14.27 173.53 Q 15.34 173.53 15.85 174.01 Q 16.35 174.49 16.35 175.51 L 16.35 178.39 Q 16.35 179.38 16.96 179.38 Q 17.04 179.38 17.19 179.36 L 17.27 179.99 Q 16.88 180.18 16.4 180.18 Q 15.59 180.18 15.37 179.23 M 15.37 179.23 M 15.2 178.6 L 15.2 176.95 L 14.81 176.94 Q 13.86 176.94 13.28 177.3 Q 12.69 177.66 12.69 178.25 Q 12.69 178.66 12.98 178.95 Q 13.28 179.24 13.7 179.24 Q 14.42 179.24 15.2 178.6 M 15.2 178.6 M 19.09 180.04 L 19.09 170.78 L 20.24 170.78 L 20.24 180.04 M 19.09 180.04 M 27.07 180.04 L 27.07 178.84 Q 26.15 180.18 24.83 180.18 Q 24 180.18 23.51 179.66 Q 23.02 179.13 23.02 178.24 L 23.02 173.67 L 24.17 173.67 L 24.17 177.87 Q 24.17 178.58 24.38 178.88 Q 24.59 179.19 25.07 179.19 Q 26.13 179.19 27.07 177.8 L 27.07 173.67 L 28.22 173.67 L 28.22 180.04 M 27.07 180.04 M 35.75 179.83 Q 34.59 180.18 33.77 180.18 Q 32.36 180.18 31.47 179.25 Q 30.58 178.31 30.58 176.82 Q 30.58 175.38 31.37 174.45 Q 32.15 173.53 33.37 173.53 Q 34.52 173.53 35.15 174.35 Q 35.78 175.17 35.78 176.68 L 35.78 177.04 L 31.76 177.04 Q 32.01 179.3 33.98 179.3 Q 34.7 179.3 35.75 178.92 M 35.75 179.83 M 31.81 176.17 L 34.62 176.17 Q 34.62 174.39 33.3 174.39 Q 31.97 174.39 31.81 176.17 M 31.81 176.17"/></g><line x1="64" y1="328" x2="592" y2="328" style="stroke-width: 0.5;stroke: rgb(192,192,192);stroke-opacity: 1.0;stroke-dasharray: 2.0, 2.0;" transform="matrix(1,0,0,1,0,0)" clip-path="url(#94503157121104clip-2)"/><line x1="64" y1="304.52" x2="592" y2="304.52" style="stroke-width: 0.5;stroke: rgb(192,192,192);stroke-opacity: 1.0;stroke-dasharray: 2.0, 2.0;" transform="matrix(1,0,0,1,0,0)" clip-path="url(#94503157121104clip-2)"/><line x1="64" y1="281.05" x2="592" y2="281.05" style="stroke-width: 0.5;stroke: rgb(192,192,192);stroke-opacity: 1.0;stroke-dasharray: 2.0, 2.0;" transform="matrix(1,0,0,1,0,0)" clip-path="url(#94503157121104clip-2)"/><line x1="64" y1="257.57" x2="592" y2="257.57" style="stroke-width: 0.5;stroke: rgb(192,192,192);stroke-opacity: 1.0;stroke-dasharray: 2.0, 2.0;" transform="matrix(1,0,0,1,0,0)" clip-path="url(#94503157121104clip-2)"/><line x1="64" y1="234.09" x2="592" y2="234.09" style="stroke-width: 0.5;stroke: rgb(192,192,192);stroke-opacity: 1.0;stroke-dasharray: 2.0, 2.0;" transform="matrix(1,0,0,1,0,0)" clip-path="url(#94503157121104clip-2)"/><line x1="64" y1="210.62" x2="592" y2="210.62" style="stroke-width: 0.5;stroke: rgb(192,192,192);stroke-opacity: 1.0;stroke-dasharray: 2.0, 2.0;" transform="matrix(1,0,0,1,0,0)" clip-path="url(#94503157121104clip-2)"/><line x1="64" y1="187.14" x2="592" y2="187.14" style="stroke-width: 0.5;stroke: rgb(192,192,192);stroke-opacity: 1.0;stroke-dasharray: 2.0, 2.0;" transform="matrix(1,0,0,1,0,0)" clip-path="url(#94503157121104clip-2)"/><line x1="64" y1="163.66" x2="592" y2="163.66" style="stroke-width: 0.5;stroke: rgb(192,192,192);stroke-opacity: 1.0;stroke-dasharray: 2.0, 2.0;" transform="matrix(1,0,0,1,0,0)" clip-path="url(#94503157121104clip-2)"/><line x1="64" y1="140.19" x2="592" y2="140.19" style="stroke-width: 0.5;stroke: rgb(192,192,192);stroke-opacity: 1.0;stroke-dasharray: 2.0, 2.0;" transform="matrix(1,0,0,1,0,0)" clip-path="url(#94503157121104clip-2)"/><line x1="64" y1="116.71" x2="592" y2="116.71" style="stroke-width: 0.5;stroke: rgb(192,192,192);stroke-opacity: 1.0;stroke-dasharray: 2.0, 2.0;" transform="matrix(1,0,0,1,0,0)" clip-path="url(#94503157121104clip-2)"/><line x1="64" y1="93.23" x2="592" y2="93.23" style="stroke-width: 0.5;stroke: rgb(192,192,192);stroke-opacity: 1.0;stroke-dasharray: 2.0, 2.0;" transform="matrix(1,0,0,1,0,0)" clip-path="url(#94503157121104clip-2)"/><line x1="64" y1="69.76" x2="592" y2="69.76" style="stroke-width: 0.5;stroke: rgb(192,192,192);stroke-opacity: 1.0;stroke-dasharray: 2.0, 2.0;" transform="matrix(1,0,0,1,0,0)" clip-path="url(#94503157121104clip-2)"/><line x1="64" y1="46.28" x2="592" y2="46.28" style="stroke-width: 0.5;stroke: rgb(192,192,192);stroke-opacity: 1.0;stroke-dasharray: 2.0, 2.0;" transform="matrix(1,0,0,1,0,0)" clip-path="url(#94503157121104clip-2)"/><line x1="99.64" y1="68.79" x2="99.64" y2="68.79" style="stroke-width: 1.0;stroke: rgb(0,0,0);stroke-opacity: 1.0;" transform="matrix(1,0,0,1,0,0)" clip-path="url(#94503157121104clip-2)"/><line x1="90.4" y1="68.79" x2="108.88" y2="68.79" style="stroke-width: 1.0;stroke: rgb(0,0,0);stroke-opacity: 1.0;" transform="matrix(1,0,0,1,0,0)" clip-path="url(#94503157121104clip-2)"/><line x1="99.64" y1="68.79" x2="99.64" y2="68.79" style="stroke-width: 1.0;stroke: rgb(0,0,0);stroke-opacity: 1.0;" transform="matrix(1,0,0,1,0,0)" clip-path="url(#94503157121104clip-2)"/><line x1="90.4" y1="68.79" x2="108.88" y2="68.79" style="stroke-width: 1.0;stroke: rgb(0,0,0);stroke-opacity: 1.0;" transform="matrix(1,0,0,1,0,0)" clip-path="url(#94503157121104clip-2)"/><rect x="90.4" y="68.79" width="18.48" height="0" style="stroke-width: 1.0;stroke: rgb(0,0,0);stroke-opacity: 1.0;; fill: none" transform="matrix(1,0,0,1,0,0)" clip-path="url(#94503157121104clip-2)"/><line x1="90.4" y1="68.79" x2="108.88" y2="68.79" style="stroke-width: 1.0;stroke: rgb(0,0,0);stroke-opacity: 1.0;" transform="matrix(1,0,0,1,0,0)" clip-path="url(#94503157121104clip-2)"/><rect x="114.44" y="65.97" width="18.48" height="5.64" style="fill: rgb(192,192,192); fill-opacity: 1.0" transform="matrix(1,0,0,1,0,0)" clip-path="url(#94503157121104clip-2)"/><line x1="123.68" y1="63.15" x2="123.68" y2="65.97" style="stroke-width: 1.0;stroke: rgb(0,0,0);stroke-opacity: 1.0;" transform="matrix(1,0,0,1,0,0)" clip-path="url(#94503157121104clip-2)"/><line x1="114.44" y1="63.15" x2="132.92" y2="63.15" style="stroke-width: 1.0;stroke: rgb(0,0,0);stroke-opacity: 1.0;" transform="matrix(1,0,0,1,0,0)" clip-path="url(#94503157121104clip-2)"/><line x1="123.68" y1="74.43" x2="123.68" y2="71.61" style="stroke-width: 1.0;stroke: rgb(0,0,0);stroke-opacity: 1.0;" transform="matrix(1,0,0,1,0,0)" clip-path="url(#94503157121104clip-2)"/><line x1="114.44" y1="74.43" x2="132.92" y2="74.43" style="stroke-width: 1.0;stroke: rgb(0,0,0);stroke-opacity: 1.0;" transform="matrix(1,0,0,1,0,0)" clip-path="url(#94503157121104clip-2)"/><rect x="114.44" y="65.97" width="18.48" height="5.64" style="stroke-width: 1.0;stroke: rgb(0,0,0);stroke-opacity: 1.0;; fill: none" transform="matrix(1,0,0,1,0,0)" clip-path="url(#94503157121104clip-2)"/><line x1="114.44" y1="68.79" x2="132.92" y2="68.79" style="stroke-width: 1.0;stroke: rgb(0,0,0);stroke-opacity: 1.0;" transform="matrix(1,0,0,1,0,0)" clip-path="url(#94503157121104clip-2)"/><rect x="138.48" y="62.09" width="18.48" height="12.34" style="fill: rgb(192,192,192); fill-opacity: 1.0" transform="matrix(1,0,0,1,0,0)" clip-path="url(#94503157121104clip-2)"/><line x1="147.72" y1="60.84" x2="147.72" y2="62.09" style="stroke-width: 1.0;stroke: rgb(0,0,0);stroke-opacity: 1.0;" transform="matrix(1,0,0,1,0,0)" clip-path="url(#94503157121104clip-2)"/><line x1="138.48" y1="60.84" x2="156.96" y2="60.84" style="stroke-width: 1.0;stroke: rgb(0,0,0);stroke-opacity: 1.0;" transform="matrix(1,0,0,1,0,0)" clip-path="url(#94503157121104clip-2)"/><line x1="147.72" y1="83.44" x2="147.72" y2="74.43" style="stroke-width: 1.0;stroke: rgb(0,0,0);stroke-opacity: 1.0;" transform="matrix(1,0,0,1,0,0)" clip-path="url(#94503157121104clip-2)"/><line x1="138.48" y1="83.44" x2="156.96" y2="83.44" style="stroke-width: 1.0;stroke: rgb(0,0,0);stroke-opacity: 1.0;" transform="matrix(1,0,0,1,0,0)" clip-path="url(#94503157121104clip-2)"/><rect x="138.48" y="62.09" width="18.48" height="12.34" style="stroke-width: 1.0;stroke: rgb(0,0,0);stroke-opacity: 1.0;; fill: none" transform="matrix(1,0,0,1,0,0)" clip-path="url(#94503157121104clip-2)"/><line x1="138.48" y1="65.97" x2="156.96" y2="65.97" style="stroke-width: 1.0;stroke: rgb(0,0,0);stroke-opacity: 1.0;" transform="matrix(1,0,0,1,0,0)" clip-path="url(#94503157121104clip-2)"/><rect x="162.51" y="62.09" width="18.48" height="12.34" style="fill: rgb(192,192,192); fill-opacity: 1.0" transform="matrix(1,0,0,1,0,0)" clip-path="url(#94503157121104clip-2)"/><line x1="171.75" y1="54.61" x2="171.75" y2="62.09" style="stroke-width: 1.0;stroke: rgb(0,0,0);stroke-opacity: 1.0;" transform="matrix(1,0,0,1,0,0)" clip-path="url(#94503157121104clip-2)"/><line x1="162.51" y1="54.61" x2="180.99" y2="54.61" style="stroke-width: 1.0;stroke: rgb(0,0,0);stroke-opacity: 1.0;" transform="matrix(1,0,0,1,0,0)" clip-path="url(#94503157121104clip-2)"/><line x1="171.75" y1="83.44" x2="171.75" y2="74.43" style="stroke-width: 1.0;stroke: rgb(0,0,0);stroke-opacity: 1.0;" transform="matrix(1,0,0,1,0,0)" clip-path="url(#94503157121104clip-2)"/><line x1="162.51" y1="83.44" x2="180.99" y2="83.44" style="stroke-width: 1.0;stroke: rgb(0,0,0);stroke-opacity: 1.0;" transform="matrix(1,0,0,1,0,0)" clip-path="url(#94503157121104clip-2)"/><rect x="162.51" y="62.09" width="18.48" height="12.34" style="stroke-width: 1.0;stroke: rgb(0,0,0);stroke-opacity: 1.0;; fill: none" transform="matrix(1,0,0,1,0,0)" clip-path="url(#94503157121104clip-2)"/><line x1="162.51" y1="70.24" x2="180.99" y2="70.24" style="stroke-width: 1.0;stroke: rgb(0,0,0);stroke-opacity: 1.0;" transform="matrix(1,0,0,1,0,0)" clip-path="url(#94503157121104clip-2)"/><rect x="186.55" y="63.1" width="18.48" height="9.88" style="fill: rgb(192,192,192); fill-opacity: 1.0" transform="matrix(1,0,0,1,0,0)" clip-path="url(#94503157121104clip-2)"/><line x1="195.79" y1="54.61" x2="195.79" y2="63.1" style="stroke-width: 1.0;stroke: rgb(0,0,0);stroke-opacity: 1.0;" transform="matrix(1,0,0,1,0,0)" clip-path="url(#94503157121104clip-2)"/><line x1="186.55" y1="54.61" x2="205.03" y2="54.61" style="stroke-width: 1.0;stroke: rgb(0,0,0);stroke-opacity: 1.0;" transform="matrix(1,0,0,1,0,0)" clip-path="url(#94503157121104clip-2)"/><line x1="195.79" y1="83.44" x2="195.79" y2="72.98" style="stroke-width: 1.0;stroke: rgb(0,0,0);stroke-opacity: 1.0;" transform="matrix(1,0,0,1,0,0)" clip-path="url(#94503157121104clip-2)"/><line x1="186.55" y1="83.44" x2="205.03" y2="83.44" style="stroke-width: 1.0;stroke: rgb(0,0,0);stroke-opacity: 1.0;" transform="matrix(1,0,0,1,0,0)" clip-path="url(#94503157121104clip-2)"/><rect x="186.55" y="63.1" width="18.48" height="9.88" style="stroke-width: 1.0;stroke: rgb(0,0,0);stroke-opacity: 1.0;; fill: none" transform="matrix(1,0,0,1,0,0)" clip-path="url(#94503157121104clip-2)"/><line x1="186.55" y1="69.87" x2="205.03" y2="69.87" style="stroke-width: 1.0;stroke: rgb(0,0,0);stroke-opacity: 1.0;" transform="matrix(1,0,0,1,0,0)" clip-path="url(#94503157121104clip-2)"/><rect x="210.59" y="63.04" width="18.48" height="10.38" style="fill: rgb(192,192,192); fill-opacity: 1.0" transform="matrix(1,0,0,1,0,0)" clip-path="url(#94503157121104clip-2)"/><line x1="219.83" y1="51.76" x2="219.83" y2="63.04" style="stroke-width: 1.0;stroke: rgb(0,0,0);stroke-opacity: 1.0;" transform="matrix(1,0,0,1,0,0)" clip-path="url(#94503157121104clip-2)"/><line x1="210.59" y1="51.76" x2="229.07" y2="51.76" style="stroke-width: 1.0;stroke: rgb(0,0,0);stroke-opacity: 1.0;" transform="matrix(1,0,0,1,0,0)" clip-path="url(#94503157121104clip-2)"/><line x1="219.83" y1="83.44" x2="219.83" y2="73.43" style="stroke-width: 1.0;stroke: rgb(0,0,0);stroke-opacity: 1.0;" transform="matrix(1,0,0,1,0,0)" clip-path="url(#94503157121104clip-2)"/><line x1="210.59" y1="83.44" x2="229.07" y2="83.44" style="stroke-width: 1.0;stroke: rgb(0,0,0);stroke-opacity: 1.0;" transform="matrix(1,0,0,1,0,0)" clip-path="url(#94503157121104clip-2)"/><rect x="210.59" y="63.04" width="18.48" height="10.38" style="stroke-width: 1.0;stroke: rgb(0,0,0);stroke-opacity: 1.0;; fill: none" transform="matrix(1,0,0,1,0,0)" clip-path="url(#94503157121104clip-2)"/><line x1="210.59" y1="69.92" x2="229.07" y2="69.92" style="stroke-width: 1.0;stroke: rgb(0,0,0);stroke-opacity: 1.0;" transform="matrix(1,0,0,1,0,0)" clip-path="url(#94503157121104clip-2)"/><rect x="234.63" y="63.03" width="18.48" height="9.95" style="fill: rgb(192,192,192); fill-opacity: 1.0" transform="matrix(1,0,0,1,0,0)" clip-path="url(#94503157121104clip-2)"/><line x1="243.87" y1="51.76" x2="243.87" y2="63.03" style="stroke-width: 1.0;stroke: rgb(0,0,0);stroke-opacity: 1.0;" transform="matrix(1,0,0,1,0,0)" clip-path="url(#94503157121104clip-2)"/><line x1="234.63" y1="51.76" x2="253.11" y2="51.76" style="stroke-width: 1.0;stroke: rgb(0,0,0);stroke-opacity: 1.0;" transform="matrix(1,0,0,1,0,0)" clip-path="url(#94503157121104clip-2)"/><line x1="243.87" y1="83.44" x2="243.87" y2="72.98" style="stroke-width: 1.0;stroke: rgb(0,0,0);stroke-opacity: 1.0;" transform="matrix(1,0,0,1,0,0)" clip-path="url(#94503157121104clip-2)"/><line x1="234.63" y1="83.44" x2="253.11" y2="83.44" style="stroke-width: 1.0;stroke: rgb(0,0,0);stroke-opacity: 1.0;" transform="matrix(1,0,0,1,0,0)" clip-path="url(#94503157121104clip-2)"/><rect x="234.63" y="63.03" width="18.48" height="9.95" style="stroke-width: 1.0;stroke: rgb(0,0,0);stroke-opacity: 1.0;; fill: none" transform="matrix(1,0,0,1,0,0)" clip-path="url(#94503157121104clip-2)"/><line x1="234.63" y1="69.89" x2="253.11" y2="69.89" style="stroke-width: 1.0;stroke: rgb(0,0,0);stroke-opacity: 1.0;" transform="matrix(1,0,0,1,0,0)" clip-path="url(#94503157121104clip-2)"/><rect x="258.67" y="63.03" width="18.48" height="10.95" style="fill: rgb(192,192,192); fill-opacity: 1.0" transform="matrix(1,0,0,1,0,0)" clip-path="url(#94503157121104clip-2)"/><line x1="267.91" y1="48.84" x2="267.91" y2="63.03" style="stroke-width: 1.0;stroke: rgb(0,0,0);stroke-opacity: 1.0;" transform="matrix(1,0,0,1,0,0)" clip-path="url(#94503157121104clip-2)"/><line x1="258.67" y1="48.84" x2="277.15" y2="48.84" style="stroke-width: 1.0;stroke: rgb(0,0,0);stroke-opacity: 1.0;" transform="matrix(1,0,0,1,0,0)" clip-path="url(#94503157121104clip-2)"/><line x1="267.91" y1="83.44" x2="267.91" y2="73.98" style="stroke-width: 1.0;stroke: rgb(0,0,0);stroke-opacity: 1.0;" transform="matrix(1,0,0,1,0,0)" clip-path="url(#94503157121104clip-2)"/><line x1="258.67" y1="83.44" x2="277.15" y2="83.44" style="stroke-width: 1.0;stroke: rgb(0,0,0);stroke-opacity: 1.0;" transform="matrix(1,0,0,1,0,0)" clip-path="url(#94503157121104clip-2)"/><rect x="258.67" y="63.03" width="18.48" height="10.95" style="stroke-width: 1.0;stroke: rgb(0,0,0);stroke-opacity: 1.0;; fill: none" transform="matrix(1,0,0,1,0,0)" clip-path="url(#94503157121104clip-2)"/><line x1="258.67" y1="69.89" x2="277.15" y2="69.89" style="stroke-width: 1.0;stroke: rgb(0,0,0);stroke-opacity: 1.0;" transform="matrix(1,0,0,1,0,0)" clip-path="url(#94503157121104clip-2)"/><rect x="282.7" y="62.09" width="18.48" height="12.18" style="fill: rgb(192,192,192); fill-opacity: 1.0" transform="matrix(1,0,0,1,0,0)" clip-path="url(#94503157121104clip-2)"/><line x1="291.94" y1="48.84" x2="291.94" y2="62.09" style="stroke-width: 1.0;stroke: rgb(0,0,0);stroke-opacity: 1.0;" transform="matrix(1,0,0,1,0,0)" clip-path="url(#94503157121104clip-2)"/><line x1="282.7" y1="48.84" x2="301.18" y2="48.84" style="stroke-width: 1.0;stroke: rgb(0,0,0);stroke-opacity: 1.0;" transform="matrix(1,0,0,1,0,0)" clip-path="url(#94503157121104clip-2)"/><line x1="291.94" y1="86.56" x2="291.94" y2="74.27" style="stroke-width: 1.0;stroke: rgb(0,0,0);stroke-opacity: 1.0;" transform="matrix(1,0,0,1,0,0)" clip-path="url(#94503157121104clip-2)"/><line x1="282.7" y1="86.56" x2="301.18" y2="86.56" style="stroke-width: 1.0;stroke: rgb(0,0,0);stroke-opacity: 1.0;" transform="matrix(1,0,0,1,0,0)" clip-path="url(#94503157121104clip-2)"/><rect x="282.7" y="62.09" width="18.48" height="12.18" style="stroke-width: 1.0;stroke: rgb(0,0,0);stroke-opacity: 1.0;; fill: none" transform="matrix(1,0,0,1,0,0)" clip-path="url(#94503157121104clip-2)"/><line x1="282.7" y1="69.87" x2="301.18" y2="69.87" style="stroke-width: 1.0;stroke: rgb(0,0,0);stroke-opacity: 1.0;" transform="matrix(1,0,0,1,0,0)" clip-path="url(#94503157121104clip-2)"/><g style="stroke-width: 1.0;stroke: rgb(192,192,192);stroke-opacity: 1.0;; fill: none" transform="matrix(1,0,0,1,0,0)" clip-path="url(#94503157121104clip-2)"><path d="M 295.02 90.42 C 295.02 92.12 293.64 93.5 291.94 93.5 C 290.24 93.5 288.86 92.12 288.86 90.42 C 288.86 88.72 290.24 87.34 291.94 87.34 C 293.64 87.34 295.02 88.72 295.02 90.42 M 295.02 90.42"/></g><rect x="306.74" y="62.38" width="18.48" height="11.97" style="fill: rgb(192,192,192); fill-opacity: 1.0" transform="matrix(1,0,0,1,0,0)" clip-path="url(#94503157121104clip-2)"/><line x1="315.98" y1="48.84" x2="315.98" y2="62.38" style="stroke-width: 1.0;stroke: rgb(0,0,0);stroke-opacity: 1.0;" transform="matrix(1,0,0,1,0,0)" clip-path="url(#94503157121104clip-2)"/><line x1="306.74" y1="48.84" x2="325.22" y2="48.84" style="stroke-width: 1.0;stroke: rgb(0,0,0);stroke-opacity: 1.0;" transform="matrix(1,0,0,1,0,0)" clip-path="url(#94503157121104clip-2)"/><line x1="315.98" y1="86.56" x2="315.98" y2="74.35" style="stroke-width: 1.0;stroke: rgb(0,0,0);stroke-opacity: 1.0;" transform="matrix(1,0,0,1,0,0)" clip-path="url(#94503157121104clip-2)"/><line x1="306.74" y1="86.56" x2="325.22" y2="86.56" style="stroke-width: 1.0;stroke: rgb(0,0,0);stroke-opacity: 1.0;" transform="matrix(1,0,0,1,0,0)" clip-path="url(#94503157121104clip-2)"/><rect x="306.74" y="62.38" width="18.48" height="11.97" style="stroke-width: 1.0;stroke: rgb(0,0,0);stroke-opacity: 1.0;; fill: none" transform="matrix(1,0,0,1,0,0)" clip-path="url(#94503157121104clip-2)"/><line x1="306.74" y1="69.66" x2="325.22" y2="69.66" style="stroke-width: 1.0;stroke: rgb(0,0,0);stroke-opacity: 1.0;" transform="matrix(1,0,0,1,0,0)" clip-path="url(#94503157121104clip-2)"/><g style="stroke-width: 1.0;stroke: rgb(192,192,192);stroke-opacity: 1.0;; fill: none" transform="matrix(1,0,0,1,0,0)" clip-path="url(#94503157121104clip-2)"><path d="M 319.06 90.42 C 319.06 92.12 317.68 93.5 315.98 93.5 C 314.28 93.5 312.9 92.12 312.9 90.42 C 312.9 88.72 314.28 87.34 315.98 87.34 C 317.68 87.34 319.06 88.72 319.06 90.42 M 319.06 90.42"/></g><rect x="330.78" y="62.09" width="18.48" height="12.34" style="fill: rgb(192,192,192); fill-opacity: 1.0" transform="matrix(1,0,0,1,0,0)" clip-path="url(#94503157121104clip-2)"/><line x1="340.02" y1="48.84" x2="340.02" y2="62.09" style="stroke-width: 1.0;stroke: rgb(0,0,0);stroke-opacity: 1.0;" transform="matrix(1,0,0,1,0,0)" clip-path="url(#94503157121104clip-2)"/><line x1="330.78" y1="48.84" x2="349.26" y2="48.84" style="stroke-width: 1.0;stroke: rgb(0,0,0);stroke-opacity: 1.0;" transform="matrix(1,0,0,1,0,0)" clip-path="url(#94503157121104clip-2)"/><line x1="340.02" y1="86.56" x2="340.02" y2="74.43" style="stroke-width: 1.0;stroke: rgb(0,0,0);stroke-opacity: 1.0;" transform="matrix(1,0,0,1,0,0)" clip-path="url(#94503157121104clip-2)"/><line x1="330.78" y1="86.56" x2="349.26" y2="86.56" style="stroke-width: 1.0;stroke: rgb(0,0,0);stroke-opacity: 1.0;" transform="matrix(1,0,0,1,0,0)" clip-path="url(#94503157121104clip-2)"/><rect x="330.78" y="62.09" width="18.48" height="12.34" style="stroke-width: 1.0;stroke: rgb(0,0,0);stroke-opacity: 1.0;; fill: none" transform="matrix(1,0,0,1,0,0)" clip-path="url(#94503157121104clip-2)"/><line x1="330.78" y1="69.02" x2="349.26" y2="69.02" style="stroke-width: 1.0;stroke: rgb(0,0,0);stroke-opacity: 1.0;" transform="matrix(1,0,0,1,0,0)" clip-path="url(#94503157121104clip-2)"/><g style="stroke-width: 1.0;stroke: rgb(192,192,192);stroke-opacity: 1.0;; fill: none" transform="matrix(1,0,0,1,0,0)" clip-path="url(#94503157121104clip-2)"><path d="M 336.94 93.09 C 336.94 94.79 335.56 96.17 333.86 96.17 C 332.16 96.17 330.78 94.79 330.78 93.09 C 330.78 91.39 332.16 90.01 333.86 90.01 C 335.56 90.01 336.94 91.39 336.94 93.09 M 336.94 93.09"/></g><g style="stroke-width: 1.0;stroke: rgb(192,192,192);stroke-opacity: 1.0;; fill: none" transform="matrix(1,0,0,1,0,0)" clip-path="url(#94503157121104clip-2)"><path d="M 349.26 93.09 C 349.26 94.79 347.88 96.17 346.18 96.17 C 344.48 96.17 343.1 94.79 343.1 93.09 C 343.1 91.39 344.48 90.01 346.18 90.01 C 347.88 90.01 349.26 91.39 349.26 93.09 M 349.26 93.09"/></g><rect x="354.82" y="61.48" width="18.48" height="13.95" style="fill: rgb(192,192,192); fill-opacity: 1.0" transform="matrix(1,0,0,1,0,0)" clip-path="url(#94503157121104clip-2)"/><line x1="364.06" y1="48.2" x2="364.06" y2="61.48" style="stroke-width: 1.0;stroke: rgb(0,0,0);stroke-opacity: 1.0;" transform="matrix(1,0,0,1,0,0)" clip-path="url(#94503157121104clip-2)"/><line x1="354.82" y1="48.2" x2="373.3" y2="48.2" style="stroke-width: 1.0;stroke: rgb(0,0,0);stroke-opacity: 1.0;" transform="matrix(1,0,0,1,0,0)" clip-path="url(#94503157121104clip-2)"/><line x1="364.06" y1="96.17" x2="364.06" y2="75.43" style="stroke-width: 1.0;stroke: rgb(0,0,0);stroke-opacity: 1.0;" transform="matrix(1,0,0,1,0,0)" clip-path="url(#94503157121104clip-2)"/><line x1="354.82" y1="96.17" x2="373.3" y2="96.17" style="stroke-width: 1.0;stroke: rgb(0,0,0);stroke-opacity: 1.0;" transform="matrix(1,0,0,1,0,0)" clip-path="url(#94503157121104clip-2)"/><rect x="354.82" y="61.48" width="18.48" height="13.95" style="stroke-width: 1.0;stroke: rgb(0,0,0);stroke-opacity: 1.0;; fill: none" transform="matrix(1,0,0,1,0,0)" clip-path="url(#94503157121104clip-2)"/><line x1="354.82" y1="69.33" x2="373.3" y2="69.33" style="stroke-width: 1.0;stroke: rgb(0,0,0);stroke-opacity: 1.0;" transform="matrix(1,0,0,1,0,0)" clip-path="url(#94503157121104clip-2)"/><g style="stroke-width: 1.0;stroke: rgb(192,192,192);stroke-opacity: 1.0;; fill: none" transform="matrix(1,0,0,1,0,0)" clip-path="url(#94503157121104clip-2)"><path d="M 367.14 34.44 C 367.14 36.14 365.76 37.52 364.06 37.52 C 362.36 37.52 360.98 36.14 360.98 34.44 C 360.98 32.74 362.36 31.36 364.06 31.36 C 365.76 31.36 367.14 32.74 367.14 34.44 M 367.14 34.44"/></g><rect x="378.85" y="61.02" width="18.48" height="14.66" style="fill: rgb(192,192,192); fill-opacity: 1.0" transform="matrix(1,0,0,1,0,0)" clip-path="url(#94503157121104clip-2)"/><line x1="388.09" y1="47.9" x2="388.09" y2="61.02" style="stroke-width: 1.0;stroke: rgb(0,0,0);stroke-opacity: 1.0;" transform="matrix(1,0,0,1,0,0)" clip-path="url(#94503157121104clip-2)"/><line x1="378.85" y1="47.9" x2="397.33" y2="47.9" style="stroke-width: 1.0;stroke: rgb(0,0,0);stroke-opacity: 1.0;" transform="matrix(1,0,0,1,0,0)" clip-path="url(#94503157121104clip-2)"/><line x1="388.09" y1="96.17" x2="388.09" y2="75.68" style="stroke-width: 1.0;stroke: rgb(0,0,0);stroke-opacity: 1.0;" transform="matrix(1,0,0,1,0,0)" clip-path="url(#94503157121104clip-2)"/><line x1="378.85" y1="96.17" x2="397.33" y2="96.17" style="stroke-width: 1.0;stroke: rgb(0,0,0);stroke-opacity: 1.0;" transform="matrix(1,0,0,1,0,0)" clip-path="url(#94503157121104clip-2)"/><rect x="378.85" y="61.02" width="18.48" height="14.66" style="stroke-width: 1.0;stroke: rgb(0,0,0);stroke-opacity: 1.0;; fill: none" transform="matrix(1,0,0,1,0,0)" clip-path="url(#94503157121104clip-2)"/><line x1="378.85" y1="69.4" x2="397.33" y2="69.4" style="stroke-width: 1.0;stroke: rgb(0,0,0);stroke-opacity: 1.0;" transform="matrix(1,0,0,1,0,0)" clip-path="url(#94503157121104clip-2)"/><g style="stroke-width: 1.0;stroke: rgb(192,192,192);stroke-opacity: 1.0;; fill: none" transform="matrix(1,0,0,1,0,0)" clip-path="url(#94503157121104clip-2)"><path d="M 391.17 34.44 C 391.17 36.14 389.8 37.52 388.09 37.52 C 386.39 37.52 385.01 36.14 385.01 34.44 C 385.01 32.74 386.39 31.36 388.09 31.36 C 389.8 31.36 391.17 32.74 391.17 34.44 M 391.17 34.44"/></g><rect x="402.89" y="61.02" width="18.48" height="14.41" style="fill: rgb(192,192,192); fill-opacity: 1.0" transform="matrix(1,0,0,1,0,0)" clip-path="url(#94503157121104clip-2)"/><line x1="412.13" y1="42.13" x2="412.13" y2="61.02" style="stroke-width: 1.0;stroke: rgb(0,0,0);stroke-opacity: 1.0;" transform="matrix(1,0,0,1,0,0)" clip-path="url(#94503157121104clip-2)"/><line x1="402.89" y1="42.13" x2="421.37" y2="42.13" style="stroke-width: 1.0;stroke: rgb(0,0,0);stroke-opacity: 1.0;" transform="matrix(1,0,0,1,0,0)" clip-path="url(#94503157121104clip-2)"/><line x1="412.13" y1="96.17" x2="412.13" y2="75.43" style="stroke-width: 1.0;stroke: rgb(0,0,0);stroke-opacity: 1.0;" transform="matrix(1,0,0,1,0,0)" clip-path="url(#94503157121104clip-2)"/><line x1="402.89" y1="96.17" x2="421.37" y2="96.17" style="stroke-width: 1.0;stroke: rgb(0,0,0);stroke-opacity: 1.0;" transform="matrix(1,0,0,1,0,0)" clip-path="url(#94503157121104clip-2)"/><rect x="402.89" y="61.02" width="18.48" height="14.41" style="stroke-width: 1.0;stroke: rgb(0,0,0);stroke-opacity: 1.0;; fill: none" transform="matrix(1,0,0,1,0,0)" clip-path="url(#94503157121104clip-2)"/><line x1="402.89" y1="69.4" x2="421.37" y2="69.4" style="stroke-width: 1.0;stroke: rgb(0,0,0);stroke-opacity: 1.0;" transform="matrix(1,0,0,1,0,0)" clip-path="url(#94503157121104clip-2)"/><g style="stroke-width: 1.0;stroke: rgb(192,192,192);stroke-opacity: 1.0;; fill: none" transform="matrix(1,0,0,1,0,0)" clip-path="url(#94503157121104clip-2)"><path d="M 415.21 34.44 C 415.21 36.14 413.83 37.52 412.13 37.52 C 410.43 37.52 409.05 36.14 409.05 34.44 C 409.05 32.74 410.43 31.36 412.13 31.36 C 413.83 31.36 415.21 32.74 415.21 34.44 M 415.21 34.44"/></g><rect x="426.93" y="61.02" width="18.48" height="14.66" style="fill: rgb(192,192,192); fill-opacity: 1.0" transform="matrix(1,0,0,1,0,0)" clip-path="url(#94503157121104clip-2)"/><line x1="436.17" y1="42.13" x2="436.17" y2="61.02" style="stroke-width: 1.0;stroke: rgb(0,0,0);stroke-opacity: 1.0;" transform="matrix(1,0,0,1,0,0)" clip-path="url(#94503157121104clip-2)"/><line x1="426.93" y1="42.13" x2="445.41" y2="42.13" style="stroke-width: 1.0;stroke: rgb(0,0,0);stroke-opacity: 1.0;" transform="matrix(1,0,0,1,0,0)" clip-path="url(#94503157121104clip-2)"/><line x1="436.17" y1="97.46" x2="436.17" y2="75.68" style="stroke-width: 1.0;stroke: rgb(0,0,0);stroke-opacity: 1.0;" transform="matrix(1,0,0,1,0,0)" clip-path="url(#94503157121104clip-2)"/><line x1="426.93" y1="97.46" x2="445.41" y2="97.46" style="stroke-width: 1.0;stroke: rgb(0,0,0);stroke-opacity: 1.0;" transform="matrix(1,0,0,1,0,0)" clip-path="url(#94503157121104clip-2)"/><rect x="426.93" y="61.02" width="18.48" height="14.66" style="stroke-width: 1.0;stroke: rgb(0,0,0);stroke-opacity: 1.0;; fill: none" transform="matrix(1,0,0,1,0,0)" clip-path="url(#94503157121104clip-2)"/><line x1="426.93" y1="69.53" x2="445.41" y2="69.53" style="stroke-width: 1.0;stroke: rgb(0,0,0);stroke-opacity: 1.0;" transform="matrix(1,0,0,1,0,0)" clip-path="url(#94503157121104clip-2)"/><g style="stroke-width: 1.0;stroke: rgb(192,192,192);stroke-opacity: 1.0;; fill: none" transform="matrix(1,0,0,1,0,0)" clip-path="url(#94503157121104clip-2)"><path d="M 439.25 34.44 C 439.25 36.14 437.87 37.52 436.17 37.52 C 434.47 37.52 433.09 36.14 433.09 34.44 C 433.09 32.74 434.47 31.36 436.17 31.36 C 437.87 31.36 439.25 32.74 439.25 34.44 M 439.25 34.44"/></g><rect x="450.97" y="61.02" width="18.48" height="14.66" style="fill: rgb(192,192,192); fill-opacity: 1.0" transform="matrix(1,0,0,1,0,0)" clip-path="url(#94503157121104clip-2)"/><line x1="460.21" y1="42.13" x2="460.21" y2="61.02" style="stroke-width: 1.0;stroke: rgb(0,0,0);stroke-opacity: 1.0;" transform="matrix(1,0,0,1,0,0)" clip-path="url(#94503157121104clip-2)"/><line x1="450.97" y1="42.13" x2="469.45" y2="42.13" style="stroke-width: 1.0;stroke: rgb(0,0,0);stroke-opacity: 1.0;" transform="matrix(1,0,0,1,0,0)" clip-path="url(#94503157121104clip-2)"/><line x1="460.21" y1="97.46" x2="460.21" y2="75.68" style="stroke-width: 1.0;stroke: rgb(0,0,0);stroke-opacity: 1.0;" transform="matrix(1,0,0,1,0,0)" clip-path="url(#94503157121104clip-2)"/><line x1="450.97" y1="97.46" x2="469.45" y2="97.46" style="stroke-width: 1.0;stroke: rgb(0,0,0);stroke-opacity: 1.0;" transform="matrix(1,0,0,1,0,0)" clip-path="url(#94503157121104clip-2)"/><rect x="450.97" y="61.02" width="18.48" height="14.66" style="stroke-width: 1.0;stroke: rgb(0,0,0);stroke-opacity: 1.0;; fill: none" transform="matrix(1,0,0,1,0,0)" clip-path="url(#94503157121104clip-2)"/><line x1="450.97" y1="69.7" x2="469.45" y2="69.7" style="stroke-width: 1.0;stroke: rgb(0,0,0);stroke-opacity: 1.0;" transform="matrix(1,0,0,1,0,0)" clip-path="url(#94503157121104clip-2)"/><g style="stroke-width: 1.0;stroke: rgb(192,192,192);stroke-opacity: 1.0;; fill: none" transform="matrix(1,0,0,1,0,0)" clip-path="url(#94503157121104clip-2)"><path d="M 463.29 34.44 C 463.29 36.14 461.91 37.52 460.21 37.52 C 458.51 37.52 457.13 36.14 457.13 34.44 C 457.13 32.74 458.51 31.36 460.21 31.36 C 461.91 31.36 463.29 32.74 463.29 34.44 M 463.29 34.44"/></g><rect x="475.01" y="61.48" width="18.48" height="14.97" style="fill: rgb(192,192,192); fill-opacity: 1.0" transform="matrix(1,0,0,1,0,0)" clip-path="url(#94503157121104clip-2)"/><line x1="484.25" y1="42.13" x2="484.25" y2="61.48" style="stroke-width: 1.0;stroke: rgb(0,0,0);stroke-opacity: 1.0;" transform="matrix(1,0,0,1,0,0)" clip-path="url(#94503157121104clip-2)"/><line x1="475.01" y1="42.13" x2="493.49" y2="42.13" style="stroke-width: 1.0;stroke: rgb(0,0,0);stroke-opacity: 1.0;" transform="matrix(1,0,0,1,0,0)" clip-path="url(#94503157121104clip-2)"/><line x1="484.25" y1="97.46" x2="484.25" y2="76.44" style="stroke-width: 1.0;stroke: rgb(0,0,0);stroke-opacity: 1.0;" transform="matrix(1,0,0,1,0,0)" clip-path="url(#94503157121104clip-2)"/><line x1="475.01" y1="97.46" x2="493.49" y2="97.46" style="stroke-width: 1.0;stroke: rgb(0,0,0);stroke-opacity: 1.0;" transform="matrix(1,0,0,1,0,0)" clip-path="url(#94503157121104clip-2)"/><rect x="475.01" y="61.48" width="18.48" height="14.97" style="stroke-width: 1.0;stroke: rgb(0,0,0);stroke-opacity: 1.0;; fill: none" transform="matrix(1,0,0,1,0,0)" clip-path="url(#94503157121104clip-2)"/><line x1="475.01" y1="69.4" x2="493.49" y2="69.4" style="stroke-width: 1.0;stroke: rgb(0,0,0);stroke-opacity: 1.0;" transform="matrix(1,0,0,1,0,0)" clip-path="url(#94503157121104clip-2)"/><g style="stroke-width: 1.0;stroke: rgb(192,192,192);stroke-opacity: 1.0;; fill: none" transform="matrix(1,0,0,1,0,0)" clip-path="url(#94503157121104clip-2)"><path d="M 487.33 34.44 C 487.33 36.14 485.95 37.52 484.25 37.52 C 482.55 37.52 481.17 36.14 481.17 34.44 C 481.17 32.74 482.55 31.36 484.25 31.36 C 485.95 31.36 487.33 32.74 487.33 34.44 M 487.33 34.44"/></g><rect x="499.04" y="60.98" width="18.48" height="15.87" style="fill: rgb(192,192,192); fill-opacity: 1.0" transform="matrix(1,0,0,1,0,0)" clip-path="url(#94503157121104clip-2)"/><line x1="508.28" y1="37.52" x2="508.28" y2="60.98" style="stroke-width: 1.0;stroke: rgb(0,0,0);stroke-opacity: 1.0;" transform="matrix(1,0,0,1,0,0)" clip-path="url(#94503157121104clip-2)"/><line x1="499.04" y1="37.52" x2="517.52" y2="37.52" style="stroke-width: 1.0;stroke: rgb(0,0,0);stroke-opacity: 1.0;" transform="matrix(1,0,0,1,0,0)" clip-path="url(#94503157121104clip-2)"/><line x1="508.28" y1="99.38" x2="508.28" y2="76.85" style="stroke-width: 1.0;stroke: rgb(0,0,0);stroke-opacity: 1.0;" transform="matrix(1,0,0,1,0,0)" clip-path="url(#94503157121104clip-2)"/><line x1="499.04" y1="99.38" x2="517.52" y2="99.38" style="stroke-width: 1.0;stroke: rgb(0,0,0);stroke-opacity: 1.0;" transform="matrix(1,0,0,1,0,0)" clip-path="url(#94503157121104clip-2)"/><rect x="499.04" y="60.98" width="18.48" height="15.87" style="stroke-width: 1.0;stroke: rgb(0,0,0);stroke-opacity: 1.0;; fill: none" transform="matrix(1,0,0,1,0,0)" clip-path="url(#94503157121104clip-2)"/><line x1="499.04" y1="69.4" x2="517.52" y2="69.4" style="stroke-width: 1.0;stroke: rgb(0,0,0);stroke-opacity: 1.0;" transform="matrix(1,0,0,1,0,0)" clip-path="url(#94503157121104clip-2)"/><rect x="523.08" y="60.94" width="18.48" height="15.9" style="fill: rgb(192,192,192); fill-opacity: 1.0" transform="matrix(1,0,0,1,0,0)" clip-path="url(#94503157121104clip-2)"/><line x1="532.32" y1="37.52" x2="532.32" y2="60.94" style="stroke-width: 1.0;stroke: rgb(0,0,0);stroke-opacity: 1.0;" transform="matrix(1,0,0,1,0,0)" clip-path="url(#94503157121104clip-2)"/><line x1="523.08" y1="37.52" x2="541.56" y2="37.52" style="stroke-width: 1.0;stroke: rgb(0,0,0);stroke-opacity: 1.0;" transform="matrix(1,0,0,1,0,0)" clip-path="url(#94503157121104clip-2)"/><line x1="532.32" y1="99.38" x2="532.32" y2="76.84" style="stroke-width: 1.0;stroke: rgb(0,0,0);stroke-opacity: 1.0;" transform="matrix(1,0,0,1,0,0)" clip-path="url(#94503157121104clip-2)"/><line x1="523.08" y1="99.38" x2="541.56" y2="99.38" style="stroke-width: 1.0;stroke: rgb(0,0,0);stroke-opacity: 1.0;" transform="matrix(1,0,0,1,0,0)" clip-path="url(#94503157121104clip-2)"/><rect x="523.08" y="60.94" width="18.48" height="15.9" style="stroke-width: 1.0;stroke: rgb(0,0,0);stroke-opacity: 1.0;; fill: none" transform="matrix(1,0,0,1,0,0)" clip-path="url(#94503157121104clip-2)"/><line x1="523.08" y1="69.79" x2="541.56" y2="69.79" style="stroke-width: 1.0;stroke: rgb(0,0,0);stroke-opacity: 1.0;" transform="matrix(1,0,0,1,0,0)" clip-path="url(#94503157121104clip-2)"/><rect x="547.12" y="60.88" width="18.48" height="15.96" style="fill: rgb(192,192,192); fill-opacity: 1.0" transform="matrix(1,0,0,1,0,0)" clip-path="url(#94503157121104clip-2)"/><line x1="556.36" y1="37.52" x2="556.36" y2="60.88" style="stroke-width: 1.0;stroke: rgb(0,0,0);stroke-opacity: 1.0;" transform="matrix(1,0,0,1,0,0)" clip-path="url(#94503157121104clip-2)"/><line x1="547.12" y1="37.52" x2="565.6" y2="37.52" style="stroke-width: 1.0;stroke: rgb(0,0,0);stroke-opacity: 1.0;" transform="matrix(1,0,0,1,0,0)" clip-path="url(#94503157121104clip-2)"/><line x1="556.36" y1="99.38" x2="556.36" y2="76.84" style="stroke-width: 1.0;stroke: rgb(0,0,0);stroke-opacity: 1.0;" transform="matrix(1,0,0,1,0,0)" clip-path="url(#94503157121104clip-2)"/><line x1="547.12" y1="99.38" x2="565.6" y2="99.38" style="stroke-width: 1.0;stroke: rgb(0,0,0);stroke-opacity: 1.0;" transform="matrix(1,0,0,1,0,0)" clip-path="url(#94503157121104clip-2)"/><rect x="547.12" y="60.88" width="18.48" height="15.96" style="stroke-width: 1.0;stroke: rgb(0,0,0);stroke-opacity: 1.0;; fill: none" transform="matrix(1,0,0,1,0,0)" clip-path="url(#94503157121104clip-2)"/><line x1="547.12" y1="69.84" x2="565.6" y2="69.84" style="stroke-width: 1.0;stroke: rgb(0,0,0);stroke-opacity: 1.0;" transform="matrix(1,0,0,1,0,0)" clip-path="url(#94503157121104clip-2)"/><rect x="64" y="23" width="528" height="305" style="stroke-width: 0.5;stroke: rgb(128,128,128);stroke-opacity: 1.0;; fill: none" transform="matrix(1,0,0,1,0,0)" clip-path="url(#94503157121104clip-0)"/></svg>
