<!DOCTYPE svg PUBLIC "-//W3C//DTD SVG 1.1//EN" "http://www.w3.org/Graphics/SVG/1.1/DTD/svg11.dtd">
<svg xmlns="http://www.w3.org/2000/svg" xmlns:xlink="http://www.w3.org/1999/xlink" xmlns:jfreesvg="http://www.jfree.org/jfreesvg/svg" width="600" height="400" text-rendering="auto" shape-rendering="auto">
<defs><clipPath id="94503193632740clip-0"><path d="M 0 0 L 600 0 L 600 400 L 0 400 L 0 0 M 0 0"/></clipPath>
<clipPath id="94503193632740clip-1"><path d="M 194.43 156.57 L 194.43 756.57 L -205.57 756.57 L -205.57 156.57 L 194.43 156.57 M 194.43 156.57"/></clipPath>
<clipPath id="94503193632740clip-2"><path d="M 64 23 L 64 328 L 592 328 L 592 23 M 64 23"/></clipPath>
</defs>
<rect x="0" y="0" width="600" height="400" style="fill: rgb(238,238,238); fill-opacity: 1.0" transform="matrix(1,0,0,1,0,0)" clip-path="url(#94503193632740clip-0)"/><g style="fill: rgb(0,0,0); fill-opacity: 1.0; stroke: none" transform="matrix(1,0,0,1,0,0)" clip-path="url(#94503193632740clip-0)"><path d="M 282.41 14.13 Q 280.94 14.79 278.9 14.79 Q 276.41 14.79 275.02 13.39 Q 273.64 11.99 273.64 9.48 Q 273.64 6.92 275.03 5.54 Q 276.43 4.17 279.02 4.17 Q 280.68 4.17 282.31 4.55 L 282.31 6.2 Q 280.46 5.55 279.21 5.55 Q 277.61 5.55 276.74 6.57 Q 275.87 7.58 275.87 9.45 Q 275.87 11.28 276.8 12.31 Q 277.74 13.33 279.4 13.33 Q 280.89 13.33 282.41 12.58 M 282.41 14.13 M 297.41 14.13 Q 295.94 14.79 293.9 14.79 Q 291.41 14.79 290.02 13.39 Q 288.64 11.99 288.64 9.48 Q 288.64 6.92 290.03 5.54 Q 291.43 4.17 294.02 4.17 Q 295.68 4.17 297.31 4.55 L 297.31 6.2 Q 295.46 5.55 294.21 5.55 Q 292.61 5.55 291.74 6.57 Q 290.87 7.58 290.87 9.45 Q 290.87 11.28 291.8 12.31 Q 292.74 13.33 294.4 13.33 Q 295.89 13.33 297.41 12.58 M 297.41 14.13 M 299.26 14.54 L 299.26 3.74 L 301.29 3.74 L 301.29 8.44 Q 302.28 6.86 303.84 6.86 Q 304.85 6.86 305.43 7.49 Q 306.01 8.13 306.01 9.23 L 306.01 14.54 L 303.99 14.54 L 303.99 9.73 Q 303.99 8.45 303.14 8.45 Q 302.18 8.45 301.29 9.81 L 301.29 14.54 M 299.26 14.54 M 311.94 13.73 Q 310.93 14.71 309.78 14.71 Q 308.79 14.71 308.18 14.1 Q 307.56 13.5 307.56 12.55 Q 307.56 11.3 308.56 10.63 Q 309.55 9.96 311.4 9.96 L 311.94 9.96 L 311.94 9.27 Q 311.94 8.1 310.61 8.1 Q 309.43 8.1 308.22 8.77 L 308.22 7.38 Q 309.59 6.86 310.94 6.86 Q 313.88 6.86 313.88 9.2 L 313.88 12.53 Q 313.88 13.41 314.45 13.41 Q 314.55 13.41 314.72 13.38 L 314.77 14.51 Q 314.12 14.71 313.63 14.71 Q 312.39 14.71 312.03 13.73 M 311.94 13.73 M 311.94 12.64 L 311.94 11.12 L 311.46 11.12 Q 309.5 11.12 309.5 12.35 Q 309.5 12.76 309.79 13.05 Q 310.07 13.33 310.49 13.33 Q 311.2 13.33 311.94 12.64 M 311.94 12.64 M 316.26 14.54 L 316.26 7.03 L 318.29 7.03 L 318.29 8.44 Q 319.07 6.86 320.68 6.86 Q 320.87 6.86 321.06 6.9 L 321.06 8.7 Q 320.63 8.55 320.26 8.55 Q 319.05 8.55 318.29 9.77 L 318.29 14.54 M 316.26 14.54 M 326.13 14.49 Q 325.41 14.71 324.99 14.71 Q 322.36 14.71 322.36 12.25 L 322.36 8.29 L 321.52 8.29 L 321.52 7.03 L 322.36 7.03 L 322.36 5.76 L 324.38 5.53 L 324.38 7.03 L 325.99 7.03 L 325.99 8.29 L 324.38 8.29 L 324.38 11.98 Q 324.38 13.36 325.51 13.36 Q 325.77 13.36 326.13 13.26 M 326.13 14.49"/></g><rect x="262" y="373.33" width="76" height="25.67" style="fill: rgb(255,255,255); fill-opacity: 1.0" transform="matrix(1,0,0,1,0,0)" clip-path="url(#94503193632740clip-0)"/><line x1="262.5" y1="373.83" x2="337.5" y2="373.83" style="stroke-width: 1.0;stroke: rgb(0,0,0);stroke-opacity: 1.0;" transform="matrix(1,0,0,1,0,0)" clip-path="url(#94503193632740clip-0)"/><line x1="262.5" y1="398.5" x2="337.5" y2="398.5" style="stroke-width: 1.0;stroke: rgb(0,0,0);stroke-opacity: 1.0;" transform="matrix(1,0,0,1,0,0)" clip-path="url(#94503193632740clip-0)"/><line x1="262.5" y1="398.5" x2="262.5" y2="373.83" style="stroke-width: 1.0;stroke: rgb(0,0,0);stroke-opacity: 1.0;" transform="matrix(1,0,0,1,0,0)" clip-path="url(#94503193632740clip-0)"/><line x1="337.5" y1="398.5" x2="337.5" y2="373.83" style="stroke-width: 1.0;stroke: rgb(0,0,0);stroke-opacity: 1.0;" transform="matrix(1,0,0,1,0,0)" clip-path="url(#94503193632740clip-0)"/><g style="fill: rgb(192,192,192); fill-opacity: 1.0; stroke: none" transform="matrix(1,0,0,1,0,0)" clip-path="url(#94503193632740clip-0)"><path d="M 266 382.17 L 274 382.17 L 274 390.17 L 266 390.17 L 266 382.17 M 266 382.17"/></g><g style="stroke-width: 1.0;stroke: rgb(0,0,0);stroke-opacity: 1.0;; fill: none" transform="matrix(1,0,0,1,0,0)" clip-path="url(#94503193632740clip-0)"><path d="M 266 382.17 L 274 382.17 L 274 390.17 L 266 390.17 L 266 382.17 M 266 382.17"/></g><g style="fill: rgb(0,0,0); fill-opacity: 1.0; stroke: none" transform="matrix(1,0,0,1,0,0)" clip-path="url(#94503193632740clip-0)"><path d="M 281.52 392.11 Q 280.43 392.11 278.73 391.63 L 278.73 390.11 Q 280.56 390.96 281.74 390.96 Q 282.65 390.96 283.2 390.48 Q 283.76 390 283.76 389.23 Q 283.76 388.59 283.39 388.14 Q 283.03 387.7 282.06 387.15 L 281.31 386.72 Q 279.93 385.93 279.36 385.23 Q 278.79 384.53 278.79 383.6 Q 278.79 382.34 279.7 381.53 Q 280.61 380.73 282.01 380.73 Q 283.27 380.73 284.66 381.14 L 284.66 382.55 Q 282.94 381.88 282.1 381.88 Q 281.3 381.88 280.78 382.3 Q 280.26 382.72 280.26 383.37 Q 280.26 383.91 280.64 384.33 Q 281.02 384.75 282.04 385.32 L 282.81 385.76 Q 284.22 386.56 284.77 387.27 Q 285.33 387.98 285.33 388.98 Q 285.33 390.39 284.29 391.25 Q 283.24 392.11 281.52 392.11 M 281.52 392.11 M 294.27 391.58 Q 292.82 392.02 291.79 392.02 Q 290.03 392.02 288.92 390.85 Q 287.81 389.68 287.81 387.82 Q 287.81 386.01 288.79 384.86 Q 289.77 383.7 291.29 383.7 Q 292.73 383.7 293.52 384.72 Q 294.31 385.75 294.31 387.64 L 294.3 388.09 L 289.29 388.09 Q 289.6 390.92 292.06 390.92 Q 292.96 390.92 294.27 390.44 M 294.27 391.58 M 289.35 387 L 292.86 387 Q 292.86 384.78 291.2 384.78 Q 289.54 384.78 289.35 387 M 289.35 387 M 297.44 391.84 L 297.44 383.88 L 298.89 383.88 L 298.89 385.38 Q 299.74 383.71 301.38 383.71 Q 301.6 383.71 301.84 383.74 L 301.84 385.09 Q 301.46 384.97 301.18 384.97 Q 299.81 384.97 298.89 386.59 L 298.89 391.84 M 297.44 391.84 M 304.44 391.84 L 304.44 383.88 L 305.89 383.88 L 305.89 391.84 M 304.44 391.84 M 304.44 382.44 L 304.44 381 L 305.89 381 L 305.89 382.44 M 304.44 382.44 M 315.27 391.58 Q 313.82 392.02 312.79 392.02 Q 311.03 392.02 309.92 390.85 Q 308.81 389.68 308.81 387.82 Q 308.81 386.01 309.79 384.86 Q 310.77 383.7 312.29 383.7 Q 313.73 383.7 314.52 384.72 Q 315.31 385.75 315.31 387.64 L 315.3 388.09 L 310.29 388.09 Q 310.6 390.92 313.06 390.92 Q 313.96 390.92 315.27 390.44 M 315.27 391.58 M 310.35 387 L 313.86 387 Q 313.86 384.78 312.2 384.78 Q 310.54 384.78 310.35 387 M 310.35 387 M 320.55 392.02 Q 319.56 392.02 318.15 391.56 L 318.15 390.23 Q 319.56 390.94 320.61 390.94 Q 321.23 390.94 321.64 390.6 Q 322.05 390.26 322.05 389.76 Q 322.05 389.02 320.9 388.53 L 320.06 388.17 Q 318.19 387.4 318.19 385.94 Q 318.19 384.9 318.93 384.3 Q 319.67 383.71 320.95 383.71 Q 321.61 383.71 322.6 383.89 L 322.9 383.95 L 322.9 385.15 Q 321.69 384.79 320.98 384.79 Q 319.59 384.79 319.59 385.8 Q 319.59 386.45 320.64 386.9 L 321.34 387.19 Q 322.52 387.69 323.01 388.24 Q 323.5 388.8 323.5 389.62 Q 323.5 390.67 322.67 391.35 Q 321.84 392.02 320.55 392.02 M 320.55 392.02 M 332.26 391.84 L 332.26 390.75 L 334.42 390.75 L 334.42 382.2 L 332.26 382.74 L 332.26 381.63 L 335.87 380.73 L 335.87 390.75 L 338.04 390.75 L 338.04 391.84 M 332.26 391.84"/></g><rect x="64" y="23" width="528" height="305" style="fill: rgb(255,255,255); fill-opacity: 1.0" transform="matrix(1,0,0,1,0,0)" clip-path="url(#94503193632740clip-0)"/><line x1="64" y1="328" x2="592" y2="328" style="stroke-width: 1.0;stroke: rgb(128,128,128);stroke-opacity: 1.0;" transform="matrix(1,0,0,1,0,0)" clip-path="url(#94503193632740clip-0)"/><line x1="99.64" y1="328" x2="99.64" y2="328" style="stroke-width: 1.0;stroke: rgb(128,128,128);stroke-opacity: 1.0;" transform="matrix(1,0,0,1,0,0)" clip-path="url(#94503193632740clip-0)"/><line x1="99.64" y1="328" x2="99.64" y2="330" style="stroke-width: 1.0;stroke: rgb(128,128,128);stroke-opacity: 1.0;" transform="matrix(1,0,0,1,0,0)" clip-path="url(#94503193632740clip-0)"/><line x1="123.68" y1="328" x2="123.68" y2="328" style="stroke-width: 1.0;stroke: rgb(128,128,128);stroke-opacity: 1.0;" transform="matrix(1,0,0,1,0,0)" clip-path="url(#94503193632740clip-0)"/><line x1="123.68" y1="328" x2="123.68" y2="330" style="stroke-width: 1.0;stroke: rgb(128,128,128);stroke-opacity: 1.0;" transform="matrix(1,0,0,1,0,0)" clip-path="url(#94503193632740clip-0)"/><line x1="147.72" y1="328" x2="147.72" y2="328" style="stroke-width: 1.0;stroke: rgb(128,128,128);stroke-opacity: 1.0;" transform="matrix(1,0,0,1,0,0)" clip-path="url(#94503193632740clip-0)"/><line x1="147.72" y1="328" x2="147.72" y2="330" style="stroke-width: 1.0;stroke: rgb(128,128,128);stroke-opacity: 1.0;" transform="matrix(1,0,0,1,0,0)" clip-path="url(#94503193632740clip-0)"/><line x1="171.75" y1="328" x2="171.75" y2="328" style="stroke-width: 1.0;stroke: rgb(128,128,128);stroke-opacity: 1.0;" transform="matrix(1,0,0,1,0,0)" clip-path="url(#94503193632740clip-0)"/><line x1="171.75" y1="328" x2="171.75" y2="330" style="stroke-width: 1.0;stroke: rgb(128,128,128);stroke-opacity: 1.0;" transform="matrix(1,0,0,1,0,0)" clip-path="url(#94503193632740clip-0)"/><line x1="195.79" y1="328" x2="195.79" y2="328" style="stroke-width: 1.0;stroke: rgb(128,128,128);stroke-opacity: 1.0;" transform="matrix(1,0,0,1,0,0)" clip-path="url(#94503193632740clip-0)"/><line x1="195.79" y1="328" x2="195.79" y2="330" style="stroke-width: 1.0;stroke: rgb(128,128,128);stroke-opacity: 1.0;" transform="matrix(1,0,0,1,0,0)" clip-path="url(#94503193632740clip-0)"/><line x1="219.83" y1="328" x2="219.83" y2="328" style="stroke-width: 1.0;stroke: rgb(128,128,128);stroke-opacity: 1.0;" transform="matrix(1,0,0,1,0,0)" clip-path="url(#94503193632740clip-0)"/><line x1="219.83" y1="328" x2="219.83" y2="330" style="stroke-width: 1.0;stroke: rgb(128,128,128);stroke-opacity: 1.0;" transform="matrix(1,0,0,1,0,0)" clip-path="url(#94503193632740clip-0)"/><line x1="243.87" y1="328" x2="243.87" y2="328" style="stroke-width: 1.0;stroke: rgb(128,128,128);stroke-opacity: 1.0;" transform="matrix(1,0,0,1,0,0)" clip-path="url(#94503193632740clip-0)"/><line x1="243.87" y1="328" x2="243.87" y2="330" style="stroke-width: 1.0;stroke: rgb(128,128,128);stroke-opacity: 1.0;" transform="matrix(1,0,0,1,0,0)" clip-path="url(#94503193632740clip-0)"/><line x1="267.91" y1="328" x2="267.91" y2="328" style="stroke-width: 1.0;stroke: rgb(128,128,128);stroke-opacity: 1.0;" transform="matrix(1,0,0,1,0,0)" clip-path="url(#94503193632740clip-0)"/><line x1="267.91" y1="328" x2="267.91" y2="330" style="stroke-width: 1.0;stroke: rgb(128,128,128);stroke-opacity: 1.0;" transform="matrix(1,0,0,1,0,0)" clip-path="url(#94503193632740clip-0)"/><line x1="291.94" y1="328" x2="291.94" y2="328" style="stroke-width: 1.0;stroke: rgb(128,128,128);stroke-opacity: 1.0;" transform="matrix(1,0,0,1,0,0)" clip-path="url(#94503193632740clip-0)"/><line x1="291.94" y1="328" x2="291.94" y2="330" style="stroke-width: 1.0;stroke: rgb(128,128,128);stroke-opacity: 1.0;" transform="matrix(1,0,0,1,0,0)" clip-path="url(#94503193632740clip-0)"/><line x1="315.98" y1="328" x2="315.98" y2="328" style="stroke-width: 1.0;stroke: rgb(128,128,128);stroke-opacity: 1.0;" transform="matrix(1,0,0,1,0,0)" clip-path="url(#94503193632740clip-0)"/><line x1="315.98" y1="328" x2="315.98" y2="330" style="stroke-width: 1.0;stroke: rgb(128,128,128);stroke-opacity: 1.0;" transform="matrix(1,0,0,1,0,0)" clip-path="url(#94503193632740clip-0)"/><line x1="340.02" y1="328" x2="340.02" y2="328" style="stroke-width: 1.0;stroke: rgb(128,128,128);stroke-opacity: 1.0;" transform="matrix(1,0,0,1,0,0)" clip-path="url(#94503193632740clip-0)"/><line x1="340.02" y1="328" x2="340.02" y2="330" style="stroke-width: 1.0;stroke: rgb(128,128,128);stroke-opacity: 1.0;" transform="matrix(1,0,0,1,0,0)" clip-path="url(#94503193632740clip-0)"/><line x1="364.06" y1="328" x2="364.06" y2="328" style="stroke-width: 1.0;stroke: rgb(128,128,128);stroke-opacity: 1.0;" transform="matrix(1,0,0,1,0,0)" clip-path="url(#94503193632740clip-0)"/><line x1="364.06" y1="328" x2="364.06" y2="330" style="stroke-width: 1.0;stroke: rgb(128,128,128);stroke-opacity: 1.0;" transform="matrix(1,0,0,1,0,0)" clip-path="url(#94503193632740clip-0)"/><line x1="388.09" y1="328" x2="388.09" y2="328" style="stroke-width: 1.0;stroke: rgb(128,128,128);stroke-opacity: 1.0;" transform="matrix(1,0,0,1,0,0)" clip-path="url(#94503193632740clip-0)"/><line x1="388.09" y1="328" x2="388.09" y2="330" style="stroke-width: 1.0;stroke: rgb(128,128,128);stroke-opacity: 1.0;" transform="matrix(1,0,0,1,0,0)" clip-path="url(#94503193632740clip-0)"/><line x1="412.13" y1="328" x2="412.13" y2="328" style="stroke-width: 1.0;stroke: rgb(128,128,128);stroke-opacity: 1.0;" transform="matrix(1,0,0,1,0,0)" clip-path="url(#94503193632740clip-0)"/><line x1="412.13" y1="328" x2="412.13" y2="330" style="stroke-width: 1.0;stroke: rgb(128,128,128);stroke-opacity: 1.0;" transform="matrix(1,0,0,1,0,0)" clip-path="url(#94503193632740clip-0)"/><line x1="436.17" y1="328" x2="436.17" y2="328" style="stroke-width: 1.0;stroke: rgb(128,128,128);stroke-opacity: 1.0;" transform="matrix(1,0,0,1,0,0)" clip-path="url(#94503193632740clip-0)"/><line x1="436.17" y1="328" x2="436.17" y2="330" style="stroke-width: 1.0;stroke: rgb(128,128,128);stroke-opacity: 1.0;" transform="matrix(1,0,0,1,0,0)" clip-path="url(#94503193632740clip-0)"/><line x1="460.21" y1="328" x2="460.21" y2="328" style="stroke-width: 1.0;stroke: rgb(128,128,128);stroke-opacity: 1.0;" transform="matrix(1,0,0,1,0,0)" clip-path="url(#94503193632740clip-0)"/><line x1="460.21" y1="328" x2="460.21" y2="330" style="stroke-width: 1.0;stroke: rgb(128,128,128);stroke-opacity: 1.0;" transform="matrix(1,0,0,1,0,0)" clip-path="url(#94503193632740clip-0)"/><line x1="484.25" y1="328" x2="484.25" y2="328" style="stroke-width: 1.0;stroke: rgb(128,128,128);stroke-opacity: 1.0;" transform="matrix(1,0,0,1,0,0)" clip-path="url(#94503193632740clip-0)"/><line x1="484.25" y1="328" x2="484.25" y2="330" style="stroke-width: 1.0;stroke: rgb(128,128,128);stroke-opacity: 1.0;" transform="matrix(1,0,0,1,0,0)" clip-path="url(#94503193632740clip-0)"/><line x1="508.28" y1="328" x2="508.28" y2="328" style="stroke-width: 1.0;stroke: rgb(128,128,128);stroke-opacity: 1.0;" transform="matrix(1,0,0,1,0,0)" clip-path="url(#94503193632740clip-0)"/><line x1="508.28" y1="328" x2="508.28" y2="330" style="stroke-width: 1.0;stroke: rgb(128,128,128);stroke-opacity: 1.0;" transform="matrix(1,0,0,1,0,0)" clip-path="url(#94503193632740clip-0)"/><line x1="532.32" y1="328" x2="532.32" y2="328" style="stroke-width: 1.0;stroke: rgb(128,128,128);stroke-opacity: 1.0;" transform="matrix(1,0,0,1,0,0)" clip-path="url(#94503193632740clip-0)"/><line x1="532.32" y1="328" x2="532.32" y2="330" style="stroke-width: 1.0;stroke: rgb(128,128,128);stroke-opacity: 1.0;" transform="matrix(1,0,0,1,0,0)" clip-path="url(#94503193632740clip-0)"/><line x1="556.36" y1="328" x2="556.36" y2="328" style="stroke-width: 1.0;stroke: rgb(128,128,128);stroke-opacity: 1.0;" transform="matrix(1,0,0,1,0,0)" clip-path="url(#94503193632740clip-0)"/><line x1="556.36" y1="328" x2="556.36" y2="330" style="stroke-width: 1.0;stroke: rgb(128,128,128);stroke-opacity: 1.0;" transform="matrix(1,0,0,1,0,0)" clip-path="url(#94503193632740clip-0)"/><g style="fill: rgb(0,0,0); fill-opacity: 1.0; stroke: none" transform="matrix(1,0,0,1,0,0)" clip-path="url(#94503193632740clip-0)"><path d="M 98.14 343.67 L 98.14 342.95 L 99.59 342.95 L 99.59 337.24 L 98.14 337.6 L 98.14 336.86 L 100.56 336.26 L 100.56 342.95 L 102 342.95 L 102 343.67 M 98.14 343.67"/></g><g style="fill: rgb(0,0,0); fill-opacity: 1.0; stroke: none" transform="matrix(1,0,0,1,0,0)" clip-path="url(#94503193632740clip-0)"><path d="M 121.51 343.67 L 121.51 342.82 Q 121.93 341.84 123.21 340.68 L 123.76 340.19 Q 124.82 339.23 124.82 338.28 Q 124.82 337.68 124.46 337.33 Q 124.1 336.98 123.46 336.98 Q 122.71 336.98 121.69 337.56 L 121.69 336.71 Q 122.65 336.26 123.6 336.26 Q 124.61 336.26 125.23 336.81 Q 125.84 337.35 125.84 338.26 Q 125.84 338.91 125.53 339.41 Q 125.22 339.91 124.38 340.63 L 124.01 340.95 Q 122.85 341.93 122.67 342.82 L 125.81 342.82 L 125.81 343.67 M 121.51 343.67"/></g><g style="fill: rgb(0,0,0); fill-opacity: 1.0; stroke: none" transform="matrix(1,0,0,1,0,0)" clip-path="url(#94503193632740clip-0)"><path d="M 145.73 343.61 L 145.73 342.72 Q 146.77 343.13 147.36 343.13 Q 148.05 343.13 148.48 342.72 Q 148.92 342.32 148.92 341.68 Q 148.92 340.16 146.78 340.16 L 146.4 340.16 L 146.4 339.51 L 146.74 339.5 Q 148.74 339.5 148.74 338.09 Q 148.74 336.98 147.42 336.98 Q 146.7 336.98 145.83 337.39 L 145.83 336.55 Q 146.68 336.26 147.49 336.26 Q 149.71 336.26 149.71 337.94 Q 149.71 339.21 148.2 339.75 Q 149.95 340.16 149.95 341.67 Q 149.95 342.69 149.27 343.27 Q 148.6 343.85 147.42 343.85 Q 146.75 343.85 145.73 343.61 M 145.73 343.61"/></g><g style="fill: rgb(0,0,0); fill-opacity: 1.0; stroke: none" transform="matrix(1,0,0,1,0,0)" clip-path="url(#94503193632740clip-0)"><path d="M 172.52 343.67 L 172.52 341.62 L 169.27 341.62 L 169.27 340.89 L 172.52 336.44 L 173.42 336.44 L 173.42 340.84 L 174.39 340.84 L 174.39 341.62 L 173.42 341.62 L 173.42 343.67 M 172.52 343.67 M 170.21 340.84 L 172.58 340.84 L 172.58 337.62 M 170.21 340.84"/></g><g style="fill: rgb(0,0,0); fill-opacity: 1.0; stroke: none" transform="matrix(1,0,0,1,0,0)" clip-path="url(#94503193632740clip-0)"><path d="M 194.01 343.7 L 194.01 342.84 Q 194.73 343.13 195.37 343.13 Q 196.09 343.13 196.5 342.71 Q 196.9 342.29 196.9 341.55 Q 196.9 339.92 194.66 339.92 Q 194.41 339.92 194.13 339.96 L 194.13 336.44 L 197.79 336.44 L 197.79 337.28 L 194.97 337.28 L 194.97 339.19 Q 196.37 339.19 197.15 339.83 Q 197.93 340.46 197.93 341.6 Q 197.93 342.65 197.22 343.25 Q 196.51 343.85 195.25 343.85 Q 194.7 343.85 194.01 343.7 M 194.01 343.7"/></g><g style="fill: rgb(0,0,0); fill-opacity: 1.0; stroke: none" transform="matrix(1,0,0,1,0,0)" clip-path="url(#94503193632740clip-0)"><path d="M 218.55 339.92 Q 219.24 339.03 220.28 339.03 Q 221.23 339.03 221.83 339.66 Q 222.43 340.28 222.43 341.27 Q 222.43 342.39 221.76 343.12 Q 221.08 343.85 220.04 343.85 Q 218.85 343.85 218.17 342.89 Q 217.5 341.92 217.5 340.22 Q 217.5 338.34 218.27 337.3 Q 219.05 336.26 220.45 336.26 Q 221.1 336.26 222.06 336.53 L 222.06 337.37 Q 221.04 336.98 220.39 336.98 Q 218.55 336.98 218.55 339.92 M 218.55 339.92 M 221.47 341.48 Q 221.47 340.66 221.1 340.19 Q 220.73 339.72 220.08 339.72 Q 219.47 339.72 219.03 340.13 Q 218.59 340.54 218.59 341.12 Q 218.59 342.03 219 342.58 Q 219.42 343.13 220.11 343.13 Q 220.73 343.13 221.1 342.68 Q 221.47 342.23 221.47 341.48 M 221.47 341.48"/></g><g style="fill: rgb(0,0,0); fill-opacity: 1.0; stroke: none" transform="matrix(1,0,0,1,0,0)" clip-path="url(#94503193632740clip-0)"><path d="M 242.37 343.67 Q 242.51 342.82 242.77 342.21 Q 243.04 341.59 243.7 340.52 L 245.67 337.34 L 241.95 337.34 L 241.95 336.44 L 246.59 336.44 L 246.59 337.34 Q 243.81 341.44 243.48 343.67 M 242.37 343.67"/></g><g style="fill: rgb(0,0,0); fill-opacity: 1.0; stroke: none" transform="matrix(1,0,0,1,0,0)" clip-path="url(#94503193632740clip-0)"><path d="M 267.21 339.73 Q 266.15 339 266.15 338.1 Q 266.15 337.28 266.75 336.77 Q 267.35 336.26 268.31 336.26 Q 269.21 336.26 269.76 336.69 Q 270.32 337.12 270.32 337.82 Q 270.32 338.87 268.97 339.73 Q 270.6 340.53 270.6 341.8 Q 270.6 342.71 269.92 343.28 Q 269.23 343.85 268.15 343.85 Q 267.08 343.85 266.43 343.31 Q 265.77 342.77 265.77 341.89 Q 265.77 340.59 267.21 339.73 M 267.21 339.73 M 268.43 339.43 Q 269.44 338.77 269.44 337.95 Q 269.44 337.52 269.1 337.25 Q 268.77 336.98 268.22 336.98 Q 267.68 336.98 267.35 337.24 Q 267.02 337.51 267.02 337.92 Q 267.02 338.33 267.32 338.65 Q 267.62 338.97 268.43 339.43 M 268.43 339.43 M 267.73 340.12 Q 267.15 340.57 266.94 340.91 Q 266.73 341.24 266.73 341.74 Q 266.73 342.36 267.13 342.74 Q 267.53 343.13 268.19 343.13 Q 268.82 343.13 269.21 342.8 Q 269.61 342.47 269.61 341.95 Q 269.61 341.53 269.37 341.24 Q 269.12 340.95 268.41 340.53 M 267.73 340.12"/></g><g style="fill: rgb(0,0,0); fill-opacity: 1.0; stroke: none" transform="matrix(1,0,0,1,0,0)" clip-path="url(#94503193632740clip-0)"><path d="M 290.08 343.62 L 290.08 342.81 Q 291 343.13 291.64 343.13 Q 292.54 343.13 293.05 342.36 Q 293.55 341.6 293.55 340.24 Q 292.82 341.14 291.89 341.14 Q 290.97 341.14 290.34 340.47 Q 289.7 339.8 289.7 338.83 Q 289.7 337.72 290.38 336.99 Q 291.06 336.26 292.08 336.26 Q 293.26 336.26 293.94 337.21 Q 294.62 338.15 294.62 339.79 Q 294.62 341.66 293.79 342.75 Q 292.96 343.85 291.55 343.85 Q 290.98 343.85 290.08 343.62 M 290.08 343.62 M 290.67 338.64 Q 290.67 339.48 291.04 339.96 Q 291.41 340.45 292.06 340.45 Q 292.67 340.45 293.11 340.03 Q 293.54 339.62 293.54 339.03 Q 293.54 338.11 293.12 337.54 Q 292.7 336.98 292.02 336.98 Q 291.39 336.98 291.03 337.43 Q 290.67 337.87 290.67 338.64 M 290.67 338.64"/></g><g style="fill: rgb(0,0,0); fill-opacity: 1.0; stroke: none" transform="matrix(1,0,0,1,0,0)" clip-path="url(#94503193632740clip-0)"><path d="M 311.48 343.67 L 311.48 342.95 L 312.93 342.95 L 312.93 337.24 L 311.48 337.6 L 311.48 336.86 L 313.9 336.26 L 313.9 342.95 L 315.34 342.95 L 315.34 343.67 M 311.48 343.67 M 319.12 343.85 Q 318 343.85 317.31 342.8 Q 316.62 341.74 316.62 340.05 Q 316.62 338.34 317.31 337.3 Q 318.01 336.26 319.15 336.26 Q 320.28 336.26 320.98 337.3 Q 321.67 338.34 321.67 340.04 Q 321.67 341.77 320.98 342.81 Q 320.28 343.85 319.12 343.85 M 319.12 343.85 M 319.13 343.13 Q 320.65 343.13 320.65 340.02 Q 320.65 336.98 319.15 336.98 Q 317.64 336.98 317.64 340.05 Q 317.64 343.13 319.13 343.13 M 319.13 343.13"/></g><g style="fill: rgb(0,0,0); fill-opacity: 1.0; stroke: none" transform="matrix(1,0,0,1,0,0)" clip-path="url(#94503193632740clip-0)"><path d="M 335.52 343.67 L 335.52 342.95 L 336.97 342.95 L 336.97 337.24 L 335.52 337.6 L 335.52 336.86 L 337.93 336.26 L 337.93 342.95 L 339.38 342.95 L 339.38 343.67 M 335.52 343.67 M 341.52 343.67 L 341.52 342.95 L 342.97 342.95 L 342.97 337.24 L 341.52 337.6 L 341.52 336.86 L 343.93 336.26 L 343.93 342.95 L 345.38 342.95 L 345.38 343.67 M 341.52 343.67"/></g><g style="fill: rgb(0,0,0); fill-opacity: 1.0; stroke: none" transform="matrix(1,0,0,1,0,0)" clip-path="url(#94503193632740clip-0)"><path d="M 359.56 343.67 L 359.56 342.95 L 361.01 342.95 L 361.01 337.24 L 359.56 337.6 L 359.56 336.86 L 361.97 336.26 L 361.97 342.95 L 363.42 342.95 L 363.42 343.67 M 359.56 343.67 M 364.89 343.67 L 364.89 342.82 Q 365.31 341.84 366.59 340.68 L 367.14 340.19 Q 368.2 339.23 368.2 338.28 Q 368.2 337.68 367.84 337.33 Q 367.47 336.98 366.84 336.98 Q 366.09 336.98 365.07 337.56 L 365.07 336.71 Q 366.03 336.26 366.98 336.26 Q 367.99 336.26 368.61 336.81 Q 369.22 337.35 369.22 338.26 Q 369.22 338.91 368.91 339.41 Q 368.6 339.91 367.76 340.63 L 367.39 340.95 Q 366.23 341.93 366.05 342.82 L 369.19 342.82 L 369.19 343.67 M 364.89 343.67"/></g><g style="fill: rgb(0,0,0); fill-opacity: 1.0; stroke: none" transform="matrix(1,0,0,1,0,0)" clip-path="url(#94503193632740clip-0)"><path d="M 383.6 343.67 L 383.6 342.95 L 385.04 342.95 L 385.04 337.24 L 383.6 337.6 L 383.6 336.86 L 386.01 336.26 L 386.01 342.95 L 387.46 342.95 L 387.46 343.67 M 383.6 343.67 M 389.11 343.61 L 389.11 342.72 Q 390.15 343.13 390.74 343.13 Q 391.43 343.13 391.86 342.72 Q 392.29 342.32 392.29 341.68 Q 392.29 340.16 390.16 340.16 L 389.78 340.16 L 389.78 339.51 L 390.12 339.5 Q 392.12 339.5 392.12 338.09 Q 392.12 336.98 390.8 336.98 Q 390.08 336.98 389.21 337.39 L 389.21 336.55 Q 390.06 336.26 390.87 336.26 Q 393.08 336.26 393.08 337.94 Q 393.08 339.21 391.58 339.75 Q 393.32 340.16 393.32 341.67 Q 393.32 342.69 392.65 343.27 Q 391.98 343.85 390.8 343.85 Q 390.13 343.85 389.11 343.61 M 389.11 343.61"/></g><g style="fill: rgb(0,0,0); fill-opacity: 1.0; stroke: none" transform="matrix(1,0,0,1,0,0)" clip-path="url(#94503193632740clip-0)"><path d="M 407.64 343.67 L 407.64 342.95 L 409.08 342.95 L 409.08 337.24 L 407.64 337.6 L 407.64 336.86 L 410.05 336.26 L 410.05 342.95 L 411.49 342.95 L 411.49 343.67 M 407.64 343.67 M 415.9 343.67 L 415.9 341.62 L 412.65 341.62 L 412.65 340.89 L 415.9 336.44 L 416.8 336.44 L 416.8 340.84 L 417.77 340.84 L 417.77 341.62 L 416.8 341.62 L 416.8 343.67 M 415.9 343.67 M 413.59 340.84 L 415.96 340.84 L 415.96 337.62 M 413.59 340.84"/></g><g style="fill: rgb(0,0,0); fill-opacity: 1.0; stroke: none" transform="matrix(1,0,0,1,0,0)" clip-path="url(#94503193632740clip-0)"><path d="M 431.67 343.67 L 431.67 342.95 L 433.12 342.95 L 433.12 337.24 L 431.67 337.6 L 431.67 336.86 L 434.09 336.26 L 434.09 342.95 L 435.53 342.95 L 435.53 343.67 M 431.67 343.67 M 437.39 343.7 L 437.39 342.84 Q 438.1 343.13 438.75 343.13 Q 439.47 343.13 439.87 342.71 Q 440.28 342.29 440.28 341.55 Q 440.28 339.92 438.04 339.92 Q 437.79 339.92 437.51 339.96 L 437.51 336.44 L 441.17 336.44 L 441.17 337.28 L 438.35 337.28 L 438.35 339.19 Q 439.74 339.19 440.53 339.83 Q 441.31 340.46 441.31 341.6 Q 441.31 342.65 440.6 343.25 Q 439.89 343.85 438.63 343.85 Q 438.08 343.85 437.39 343.7 M 437.39 343.7"/></g><g style="fill: rgb(0,0,0); fill-opacity: 1.0; stroke: none" transform="matrix(1,0,0,1,0,0)" clip-path="url(#94503193632740clip-0)"><path d="M 455.71 343.67 L 455.71 342.95 L 457.16 342.95 L 457.16 337.24 L 455.71 337.6 L 455.71 336.86 L 458.12 336.26 L 458.12 342.95 L 459.57 342.95 L 459.57 343.67 M 455.71 343.67 M 461.93 339.92 Q 462.62 339.03 463.66 339.03 Q 464.61 339.03 465.21 339.66 Q 465.81 340.28 465.81 341.27 Q 465.81 342.39 465.14 343.12 Q 464.46 343.85 463.42 343.85 Q 462.23 343.85 461.55 342.89 Q 460.88 341.92 460.88 340.22 Q 460.88 338.34 461.65 337.3 Q 462.43 336.26 463.83 336.26 Q 464.48 336.26 465.44 336.53 L 465.44 337.37 Q 464.42 336.98 463.77 336.98 Q 461.93 336.98 461.93 339.92 M 461.93 339.92 M 464.85 341.48 Q 464.85 340.66 464.48 340.19 Q 464.11 339.72 463.46 339.72 Q 462.85 339.72 462.41 340.13 Q 461.97 340.54 461.97 341.12 Q 461.97 342.03 462.38 342.58 Q 462.8 343.13 463.49 343.13 Q 464.11 343.13 464.48 342.68 Q 464.85 342.23 464.85 341.48 M 464.85 341.48"/></g><g style="fill: rgb(0,0,0); fill-opacity: 1.0; stroke: none" transform="matrix(1,0,0,1,0,0)" clip-path="url(#94503193632740clip-0)"><path d="M 479.75 343.67 L 479.75 342.95 L 481.2 342.95 L 481.2 337.24 L 479.75 337.6 L 479.75 336.86 L 482.16 336.26 L 482.16 342.95 L 483.61 342.95 L 483.61 343.67 M 479.75 343.67 M 485.75 343.67 Q 485.89 342.82 486.15 342.21 Q 486.41 341.59 487.08 340.52 L 489.05 337.34 L 485.33 337.34 L 485.33 336.44 L 489.97 336.44 L 489.97 337.34 Q 487.19 341.44 486.86 343.67 M 485.75 343.67"/></g><g style="fill: rgb(0,0,0); fill-opacity: 1.0; stroke: none" transform="matrix(1,0,0,1,0,0)" clip-path="url(#94503193632740clip-0)"><path d="M 503.79 343.67 L 503.79 342.95 L 505.23 342.95 L 505.23 337.24 L 503.79 337.6 L 503.79 336.86 L 506.2 336.26 L 506.2 342.95 L 507.65 342.95 L 507.65 343.67 M 503.79 343.67 M 510.58 339.73 Q 509.52 339 509.52 338.1 Q 509.52 337.28 510.13 336.77 Q 510.73 336.26 511.69 336.26 Q 512.59 336.26 513.14 336.69 Q 513.69 337.12 513.69 337.82 Q 513.69 338.87 512.35 339.73 Q 513.98 340.53 513.98 341.8 Q 513.98 342.71 513.3 343.28 Q 512.61 343.85 511.53 343.85 Q 510.46 343.85 509.81 343.31 Q 509.15 342.77 509.15 341.89 Q 509.15 340.59 510.58 339.73 M 510.58 339.73 M 511.81 339.43 Q 512.82 338.77 512.82 337.95 Q 512.82 337.52 512.48 337.25 Q 512.15 336.98 511.59 336.98 Q 511.06 336.98 510.73 337.24 Q 510.4 337.51 510.4 337.92 Q 510.4 338.33 510.7 338.65 Q 511 338.97 511.81 339.43 M 511.81 339.43 M 511.11 340.12 Q 510.53 340.57 510.32 340.91 Q 510.11 341.24 510.11 341.74 Q 510.11 342.36 510.51 342.74 Q 510.91 343.13 511.57 343.13 Q 512.2 343.13 512.59 342.8 Q 512.99 342.47 512.99 341.95 Q 512.99 341.53 512.74 341.24 Q 512.5 340.95 511.79 340.53 M 511.11 340.12"/></g><g style="fill: rgb(0,0,0); fill-opacity: 1.0; stroke: none" transform="matrix(1,0,0,1,0,0)" clip-path="url(#94503193632740clip-0)"><path d="M 527.83 343.67 L 527.83 342.95 L 529.27 342.95 L 529.27 337.24 L 527.83 337.6 L 527.83 336.86 L 530.24 336.26 L 530.24 342.95 L 531.68 342.95 L 531.68 343.67 M 527.83 343.67 M 533.46 343.62 L 533.46 342.81 Q 534.38 343.13 535.02 343.13 Q 535.92 343.13 536.43 342.36 Q 536.93 341.6 536.93 340.24 Q 536.2 341.14 535.27 341.14 Q 534.35 341.14 533.72 340.47 Q 533.08 339.8 533.08 338.83 Q 533.08 337.72 533.76 336.99 Q 534.44 336.26 535.46 336.26 Q 536.64 336.26 537.32 337.21 Q 538 338.15 538 339.79 Q 538 341.66 537.17 342.75 Q 536.34 343.85 534.93 343.85 Q 534.36 343.85 533.46 343.62 M 533.46 343.62 M 534.05 338.64 Q 534.05 339.48 534.42 339.96 Q 534.79 340.45 535.44 340.45 Q 536.05 340.45 536.48 340.03 Q 536.92 339.62 536.92 339.03 Q 536.92 338.11 536.5 337.54 Q 536.08 336.98 535.4 336.98 Q 534.77 336.98 534.41 337.43 Q 534.05 337.87 534.05 338.64 M 534.05 338.64"/></g><g style="fill: rgb(0,0,0); fill-opacity: 1.0; stroke: none" transform="matrix(1,0,0,1,0,0)" clip-path="url(#94503193632740clip-0)"><path d="M 551.19 343.67 L 551.19 342.82 Q 551.61 341.84 552.89 340.68 L 553.44 340.19 Q 554.51 339.23 554.51 338.28 Q 554.51 337.68 554.14 337.33 Q 553.78 336.98 553.14 336.98 Q 552.39 336.98 551.37 337.56 L 551.37 336.71 Q 552.33 336.26 553.28 336.26 Q 554.3 336.26 554.91 336.81 Q 555.53 337.35 555.53 338.26 Q 555.53 338.91 555.22 339.41 Q 554.91 339.91 554.06 340.63 L 553.69 340.95 Q 552.53 341.93 552.35 342.82 L 555.49 342.82 L 555.49 343.67 M 551.19 343.67 M 559.49 343.85 Q 558.38 343.85 557.69 342.8 Q 556.99 341.74 556.99 340.05 Q 556.99 338.34 557.69 337.3 Q 558.39 336.26 559.52 336.26 Q 560.66 336.26 561.36 337.3 Q 562.05 338.34 562.05 340.04 Q 562.05 341.77 561.36 342.81 Q 560.66 343.85 559.49 343.85 M 559.49 343.85 M 559.5 343.13 Q 561.03 343.13 561.03 340.02 Q 561.03 336.98 559.52 336.98 Q 558.02 336.98 558.02 340.05 Q 558.02 343.13 559.5 343.13 M 559.5 343.13"/></g><g style="fill: rgb(0,0,0); fill-opacity: 1.0; stroke: none" transform="matrix(1,0,0,1,0,0)" clip-path="url(#94503193632740clip-0)"><path d="M 314.68 364.38 L 314.68 356.63 L 311.61 356.63 L 311.61 355.71 L 318.99 355.71 L 318.99 356.63 L 315.91 356.63 L 315.91 364.38 M 314.68 364.38 M 324.63 364.38 L 324.63 363.18 Q 323.71 364.53 322.4 364.53 Q 321.57 364.53 321.08 364 Q 320.58 363.48 320.58 362.59 L 320.58 358.02 L 321.74 358.02 L 321.74 362.21 Q 321.74 362.93 321.95 363.23 Q 322.15 363.53 322.64 363.53 Q 323.7 363.53 324.63 362.14 L 324.63 358.02 L 325.79 358.02 L 325.79 364.38 M 324.63 364.38 M 328.65 366.69 L 328.65 358.02 L 329.81 358.02 L 329.81 359.21 Q 330.52 357.88 331.94 357.88 Q 333.08 357.88 333.74 358.71 Q 334.4 359.55 334.4 361 Q 334.4 362.59 333.66 363.56 Q 332.91 364.53 331.69 364.53 Q 330.56 364.53 329.81 363.66 L 329.81 366.69 M 328.65 366.69 M 329.81 362.86 Q 330.7 363.66 331.51 363.66 Q 333.17 363.66 333.17 361.12 Q 333.17 358.88 331.7 358.88 Q 330.73 358.88 329.81 359.93 M 329.81 362.86 M 341.32 364.17 Q 340.16 364.53 339.33 364.53 Q 337.93 364.53 337.04 363.59 Q 336.15 362.66 336.15 361.17 Q 336.15 359.72 336.93 358.79 Q 337.71 357.87 338.93 357.87 Q 340.09 357.87 340.72 358.69 Q 341.35 359.51 341.35 361.02 L 341.34 361.38 L 337.33 361.38 Q 337.58 363.65 339.55 363.65 Q 340.27 363.65 341.32 363.26 M 341.32 364.17 M 337.38 360.51 L 340.19 360.51 Q 340.19 358.74 338.86 358.74 Q 337.53 358.74 337.38 360.51 M 337.38 360.51 M 343.65 364.38 L 343.65 355.13 L 344.81 355.13 L 344.81 364.38 M 343.65 364.38"/></g><line x1="64" y1="23" x2="64" y2="328" style="stroke-width: 1.0;stroke: rgb(128,128,128);stroke-opacity: 1.0;" transform="matrix(1,0,0,1,0,0)" clip-path="url(#94503193632740clip-0)"/><g style="fill: rgb(0,0,0); fill-opacity: 1.0; stroke: none" transform="matrix(1,0,0,1,0,0)" clip-path="url(#94503193632740clip-0)"><path d="M 34.13 331.96 Q 33.02 331.96 32.33 330.91 Q 31.63 329.86 31.63 328.16 Q 31.63 326.45 32.33 325.41 Q 33.03 324.37 34.16 324.37 Q 35.3 324.37 36 325.41 Q 36.69 326.45 36.69 328.15 Q 36.69 329.88 36 330.92 Q 35.3 331.96 34.13 331.96 M 34.13 331.96 M 34.14 331.24 Q 35.67 331.24 35.67 328.13 Q 35.67 325.09 34.16 325.09 Q 32.66 325.09 32.66 328.16 Q 32.66 331.24 34.14 331.24 M 34.14 331.24 M 37.98 331.78 L 37.98 330.57 L 39.18 330.57 L 39.18 331.78 M 37.98 331.78 M 43.13 331.96 Q 42.02 331.96 41.33 330.91 Q 40.63 329.86 40.63 328.16 Q 40.63 326.45 41.33 325.41 Q 42.03 324.37 43.16 324.37 Q 44.3 324.37 45 325.41 Q 45.69 326.45 45.69 328.15 Q 45.69 329.88 45 330.92 Q 44.3 331.96 43.13 331.96 M 43.13 331.96 M 43.14 331.24 Q 44.67 331.24 44.67 328.13 Q 44.67 325.09 43.16 325.09 Q 41.66 325.09 41.66 328.16 Q 41.66 331.24 43.14 331.24 M 43.14 331.24 M 49.13 331.96 Q 48.02 331.96 47.33 330.91 Q 46.63 329.86 46.63 328.16 Q 46.63 326.45 47.33 325.41 Q 48.03 324.37 49.16 324.37 Q 50.3 324.37 51 325.41 Q 51.69 326.45 51.69 328.15 Q 51.69 329.88 51 330.92 Q 50.3 331.96 49.13 331.96 M 49.13 331.96 M 49.14 331.24 Q 50.67 331.24 50.67 328.13 Q 50.67 325.09 49.16 325.09 Q 47.66 325.09 47.66 328.16 Q 47.66 331.24 49.14 331.24 M 49.14 331.24 M 55.13 331.96 Q 54.02 331.96 53.33 330.91 Q 52.63 329.86 52.63 328.16 Q 52.63 326.45 53.33 325.41 Q 54.03 324.37 55.16 324.37 Q 56.3 324.37 57 325.41 Q 57.69 326.45 57.69 328.15 Q 57.69 329.88 57 330.92 Q 56.3 331.96 55.13 331.96 M 55.13 331.96 M 55.14 331.24 Q 56.67 331.24 56.67 328.13 Q 56.67 325.09 55.16 325.09 Q 53.66 325.09 53.66 328.16 Q 53.66 331.24 55.14 331.24 M 55.14 331.24"/></g><line x1="62" y1="328" x2="64" y2="328" style="stroke-width: 1.0;stroke: rgb(128,128,128);stroke-opacity: 1.0;" transform="matrix(1,0,0,1,0,0)" clip-path="url(#94503193632740clip-0)"/><g style="fill: rgb(0,0,0); fill-opacity: 1.0; stroke: none" transform="matrix(1,0,0,1,0,0)" clip-path="url(#94503193632740clip-0)"><path d="M 34.13 303.79 Q 33.02 303.79 32.33 302.74 Q 31.63 301.69 31.63 299.99 Q 31.63 298.29 32.33 297.25 Q 33.03 296.21 34.16 296.21 Q 35.3 296.21 36 297.25 Q 36.69 298.29 36.69 299.98 Q 36.69 301.72 36 302.76 Q 35.3 303.79 34.13 303.79 M 34.13 303.79 M 34.14 303.07 Q 35.67 303.07 35.67 299.97 Q 35.67 296.93 34.16 296.93 Q 32.66 296.93 32.66 299.99 Q 32.66 303.07 34.14 303.07 M 34.14 303.07 M 37.98 303.61 L 37.98 302.41 L 39.18 302.41 L 39.18 303.61 M 37.98 303.61 M 43.13 303.79 Q 42.02 303.79 41.33 302.74 Q 40.63 301.69 40.63 299.99 Q 40.63 298.29 41.33 297.25 Q 42.03 296.21 43.16 296.21 Q 44.3 296.21 45 297.25 Q 45.69 298.29 45.69 299.98 Q 45.69 301.72 45 302.76 Q 44.3 303.79 43.13 303.79 M 43.13 303.79 M 43.14 303.07 Q 44.67 303.07 44.67 299.97 Q 44.67 296.93 43.16 296.93 Q 41.66 296.93 41.66 299.99 Q 41.66 303.07 43.14 303.07 M 43.14 303.07 M 46.83 303.61 L 46.83 302.77 Q 47.25 301.79 48.53 300.63 L 49.08 300.14 Q 50.15 299.17 50.15 298.23 Q 50.15 297.62 49.78 297.27 Q 49.42 296.93 48.78 296.93 Q 48.03 296.93 47.01 297.51 L 47.01 296.66 Q 47.97 296.21 48.92 296.21 Q 49.94 296.21 50.55 296.75 Q 51.17 297.3 51.17 298.2 Q 51.17 298.85 50.86 299.35 Q 50.55 299.86 49.7 300.58 L 49.33 300.89 Q 48.17 301.87 47.99 302.77 L 51.13 302.77 L 51.13 303.61 M 46.83 303.61 M 53.22 303.64 L 53.22 302.78 Q 53.93 303.07 54.58 303.07 Q 55.3 303.07 55.7 302.65 Q 56.11 302.23 56.11 301.49 Q 56.11 299.87 53.87 299.87 Q 53.62 299.87 53.34 299.9 L 53.34 296.39 L 57 296.39 L 57 297.23 L 54.18 297.23 L 54.18 299.13 Q 55.57 299.13 56.36 299.77 Q 57.14 300.41 57.14 301.54 Q 57.14 302.6 56.43 303.2 Q 55.72 303.79 54.46 303.79 Q 53.91 303.79 53.22 303.64 M 53.22 303.64"/></g><line x1="62" y1="299.83" x2="64" y2="299.83" style="stroke-width: 1.0;stroke: rgb(128,128,128);stroke-opacity: 1.0;" transform="matrix(1,0,0,1,0,0)" clip-path="url(#94503193632740clip-0)"/><g style="fill: rgb(0,0,0); fill-opacity: 1.0; stroke: none" transform="matrix(1,0,0,1,0,0)" clip-path="url(#94503193632740clip-0)"><path d="M 34.13 275.63 Q 33.02 275.63 32.33 274.57 Q 31.63 273.52 31.63 271.83 Q 31.63 270.12 32.33 269.08 Q 33.03 268.04 34.16 268.04 Q 35.3 268.04 36 269.08 Q 36.69 270.12 36.69 271.81 Q 36.69 273.55 36 274.59 Q 35.3 275.63 34.13 275.63 M 34.13 275.63 M 34.14 274.9 Q 35.67 274.9 35.67 271.8 Q 35.67 268.76 34.16 268.76 Q 32.66 268.76 32.66 271.83 Q 32.66 274.9 34.14 274.9 M 34.14 274.9 M 37.98 275.45 L 37.98 274.24 L 39.18 274.24 L 39.18 275.45 M 37.98 275.45 M 43.13 275.63 Q 42.02 275.63 41.33 274.57 Q 40.63 273.52 40.63 271.83 Q 40.63 270.12 41.33 269.08 Q 42.03 268.04 43.16 268.04 Q 44.3 268.04 45 269.08 Q 45.69 270.12 45.69 271.81 Q 45.69 273.55 45 274.59 Q 44.3 275.63 43.13 275.63 M 43.13 275.63 M 43.14 274.9 Q 44.67 274.9 44.67 271.8 Q 44.67 268.76 43.16 268.76 Q 41.66 268.76 41.66 271.83 Q 41.66 274.9 43.14 274.9 M 43.14 274.9 M 47.22 275.48 L 47.22 274.62 Q 47.93 274.9 48.58 274.9 Q 49.3 274.9 49.7 274.48 Q 50.11 274.06 50.11 273.33 Q 50.11 271.7 47.87 271.7 Q 47.62 271.7 47.34 271.74 L 47.34 268.22 L 51 268.22 L 51 269.06 L 48.18 269.06 L 48.18 270.96 Q 49.57 270.96 50.36 271.6 Q 51.14 272.24 51.14 273.38 Q 51.14 274.43 50.43 275.03 Q 49.72 275.63 48.46 275.63 Q 47.91 275.63 47.22 275.48 M 47.22 275.48 M 55.13 275.63 Q 54.02 275.63 53.33 274.57 Q 52.63 273.52 52.63 271.83 Q 52.63 270.12 53.33 269.08 Q 54.03 268.04 55.16 268.04 Q 56.3 268.04 57 269.08 Q 57.69 270.12 57.69 271.81 Q 57.69 273.55 57 274.59 Q 56.3 275.63 55.13 275.63 M 55.13 275.63 M 55.14 274.9 Q 56.67 274.9 56.67 271.8 Q 56.67 268.76 55.16 268.76 Q 53.66 268.76 53.66 271.83 Q 53.66 274.9 55.14 274.9 M 55.14 274.9"/></g><line x1="62" y1="271.67" x2="64" y2="271.67" style="stroke-width: 1.0;stroke: rgb(128,128,128);stroke-opacity: 1.0;" transform="matrix(1,0,0,1,0,0)" clip-path="url(#94503193632740clip-0)"/><g style="fill: rgb(0,0,0); fill-opacity: 1.0; stroke: none" transform="matrix(1,0,0,1,0,0)" clip-path="url(#94503193632740clip-0)"><path d="M 34.13 247.46 Q 33.02 247.46 32.33 246.41 Q 31.63 245.36 31.63 243.66 Q 31.63 241.95 32.33 240.91 Q 33.03 239.87 34.16 239.87 Q 35.3 239.87 36 240.91 Q 36.69 241.95 36.69 243.65 Q 36.69 245.39 36 246.42 Q 35.3 247.46 34.13 247.46 M 34.13 247.46 M 34.14 246.74 Q 35.67 246.74 35.67 243.63 Q 35.67 240.59 34.16 240.59 Q 32.66 240.59 32.66 243.66 Q 32.66 246.74 34.14 246.74 M 34.14 246.74 M 37.98 247.28 L 37.98 246.07 L 39.18 246.07 L 39.18 247.28 M 37.98 247.28 M 43.13 247.46 Q 42.02 247.46 41.33 246.41 Q 40.63 245.36 40.63 243.66 Q 40.63 241.95 41.33 240.91 Q 42.03 239.87 43.16 239.87 Q 44.3 239.87 45 240.91 Q 45.69 241.95 45.69 243.65 Q 45.69 245.39 45 246.42 Q 44.3 247.46 43.13 247.46 M 43.13 247.46 M 43.14 246.74 Q 44.67 246.74 44.67 243.63 Q 44.67 240.59 43.16 240.59 Q 41.66 240.59 41.66 243.66 Q 41.66 246.74 43.14 246.74 M 43.14 246.74 M 47.5 247.28 Q 47.65 246.43 47.91 245.82 Q 48.17 245.2 48.83 244.13 L 50.8 240.96 L 47.08 240.96 L 47.08 240.05 L 51.72 240.05 L 51.72 240.96 Q 48.94 245.05 48.61 247.28 M 47.5 247.28 M 53.22 247.31 L 53.22 246.45 Q 53.93 246.74 54.58 246.74 Q 55.3 246.74 55.7 246.32 Q 56.11 245.9 56.11 245.16 Q 56.11 243.53 53.87 243.53 Q 53.62 243.53 53.34 243.57 L 53.34 240.05 L 57 240.05 L 57 240.89 L 54.18 240.89 L 54.18 242.8 Q 55.57 242.8 56.36 243.44 Q 57.14 244.08 57.14 245.21 Q 57.14 246.26 56.43 246.86 Q 55.72 247.46 54.46 247.46 Q 53.91 247.46 53.22 247.31 M 53.22 247.31"/></g><line x1="62" y1="243.5" x2="64" y2="243.5" style="stroke-width: 1.0;stroke: rgb(128,128,128);stroke-opacity: 1.0;" transform="matrix(1,0,0,1,0,0)" clip-path="url(#94503193632740clip-0)"/><g style="fill: rgb(0,0,0); fill-opacity: 1.0; stroke: none" transform="matrix(1,0,0,1,0,0)" clip-path="url(#94503193632740clip-0)"><path d="M 34.13 219.29 Q 33.02 219.29 32.33 218.24 Q 31.63 217.19 31.63 215.49 Q 31.63 213.79 32.33 212.75 Q 33.03 211.71 34.16 211.71 Q 35.3 211.71 36 212.75 Q 36.69 213.79 36.69 215.48 Q 36.69 217.22 36 218.26 Q 35.3 219.29 34.13 219.29 M 34.13 219.29 M 34.14 218.57 Q 35.67 218.57 35.67 215.47 Q 35.67 212.43 34.16 212.43 Q 32.66 212.43 32.66 215.49 Q 32.66 218.57 34.14 218.57 M 34.14 218.57 M 37.98 219.11 L 37.98 217.91 L 39.18 217.91 L 39.18 219.11 M 37.98 219.11 M 41.5 219.11 L 41.5 218.39 L 42.95 218.39 L 42.95 212.69 L 41.5 213.05 L 41.5 212.31 L 43.92 211.71 L 43.92 218.39 L 45.36 218.39 L 45.36 219.11 M 41.5 219.11 M 49.13 219.29 Q 48.02 219.29 47.33 218.24 Q 46.63 217.19 46.63 215.49 Q 46.63 213.79 47.33 212.75 Q 48.03 211.71 49.16 211.71 Q 50.3 211.71 51 212.75 Q 51.69 213.79 51.69 215.48 Q 51.69 217.22 51 218.26 Q 50.3 219.29 49.13 219.29 M 49.13 219.29 M 49.14 218.57 Q 50.67 218.57 50.67 215.47 Q 50.67 212.43 49.16 212.43 Q 47.66 212.43 47.66 215.49 Q 47.66 218.57 49.14 218.57 M 49.14 218.57 M 55.13 219.29 Q 54.02 219.29 53.33 218.24 Q 52.63 217.19 52.63 215.49 Q 52.63 213.79 53.33 212.75 Q 54.03 211.71 55.16 211.71 Q 56.3 211.71 57 212.75 Q 57.69 213.79 57.69 215.48 Q 57.69 217.22 57 218.26 Q 56.3 219.29 55.13 219.29 M 55.13 219.29 M 55.14 218.57 Q 56.67 218.57 56.67 215.47 Q 56.67 212.43 55.16 212.43 Q 53.66 212.43 53.66 215.49 Q 53.66 218.57 55.14 218.57 M 55.14 218.57"/></g><line x1="62" y1="215.33" x2="64" y2="215.33" style="stroke-width: 1.0;stroke: rgb(128,128,128);stroke-opacity: 1.0;" transform="matrix(1,0,0,1,0,0)" clip-path="url(#94503193632740clip-0)"/><g style="fill: rgb(0,0,0); fill-opacity: 1.0; stroke: none" transform="matrix(1,0,0,1,0,0)" clip-path="url(#94503193632740clip-0)"><path d="M 34.13 191.13 Q 33.02 191.13 32.33 190.07 Q 31.63 189.02 31.63 187.33 Q 31.63 185.62 32.33 184.58 Q 33.03 183.54 34.16 183.54 Q 35.3 183.54 36 184.58 Q 36.69 185.62 36.69 187.31 Q 36.69 189.05 36 190.09 Q 35.3 191.13 34.13 191.13 M 34.13 191.13 M 34.14 190.4 Q 35.67 190.4 35.67 187.3 Q 35.67 184.26 34.16 184.26 Q 32.66 184.26 32.66 187.33 Q 32.66 190.4 34.14 190.4 M 34.14 190.4 M 37.98 190.95 L 37.98 189.74 L 39.18 189.74 L 39.18 190.95 M 37.98 190.95 M 41.5 190.95 L 41.5 190.22 L 42.95 190.22 L 42.95 184.52 L 41.5 184.88 L 41.5 184.14 L 43.92 183.54 L 43.92 190.22 L 45.36 190.22 L 45.36 190.95 M 41.5 190.95 M 46.83 190.95 L 46.83 190.1 Q 47.25 189.12 48.53 187.96 L 49.08 187.47 Q 50.15 186.51 50.15 185.56 Q 50.15 184.96 49.78 184.61 Q 49.42 184.26 48.78 184.26 Q 48.03 184.26 47.01 184.84 L 47.01 183.99 Q 47.97 183.54 48.92 183.54 Q 49.94 183.54 50.55 184.09 Q 51.17 184.63 51.17 185.54 Q 51.17 186.19 50.86 186.69 Q 50.55 187.19 49.7 187.91 L 49.33 188.23 Q 48.17 189.21 47.99 190.1 L 51.13 190.1 L 51.13 190.95 M 46.83 190.95 M 53.22 190.98 L 53.22 190.12 Q 53.93 190.4 54.58 190.4 Q 55.3 190.4 55.7 189.98 Q 56.11 189.56 56.11 188.83 Q 56.11 187.2 53.87 187.2 Q 53.62 187.2 53.34 187.24 L 53.34 183.72 L 57 183.72 L 57 184.56 L 54.18 184.56 L 54.18 186.46 Q 55.57 186.46 56.36 187.1 Q 57.14 187.74 57.14 188.88 Q 57.14 189.93 56.43 190.53 Q 55.72 191.13 54.46 191.13 Q 53.91 191.13 53.22 190.98 M 53.22 190.98"/></g><line x1="62" y1="187.17" x2="64" y2="187.17" style="stroke-width: 1.0;stroke: rgb(128,128,128);stroke-opacity: 1.0;" transform="matrix(1,0,0,1,0,0)" clip-path="url(#94503193632740clip-0)"/><g style="fill: rgb(0,0,0); fill-opacity: 1.0; stroke: none" transform="matrix(1,0,0,1,0,0)" clip-path="url(#94503193632740clip-0)"><path d="M 34.13 162.96 Q 33.02 162.96 32.33 161.91 Q 31.63 160.86 31.63 159.16 Q 31.63 157.45 32.33 156.41 Q 33.03 155.37 34.16 155.37 Q 35.3 155.37 36 156.41 Q 36.69 157.45 36.69 159.15 Q 36.69 160.89 36 161.92 Q 35.3 162.96 34.13 162.96 M 34.13 162.96 M 34.14 162.24 Q 35.67 162.24 35.67 159.13 Q 35.67 156.1 34.16 156.1 Q 32.66 156.1 32.66 159.16 Q 32.66 162.24 34.14 162.24 M 34.14 162.24 M 37.98 162.78 L 37.98 161.57 L 39.18 161.57 L 39.18 162.78 M 37.98 162.78 M 41.5 162.78 L 41.5 162.06 L 42.95 162.06 L 42.95 156.35 L 41.5 156.72 L 41.5 155.97 L 43.92 155.37 L 43.92 162.06 L 45.36 162.06 L 45.36 162.78 M 41.5 162.78 M 47.22 162.81 L 47.22 161.95 Q 47.93 162.24 48.58 162.24 Q 49.3 162.24 49.7 161.82 Q 50.11 161.4 50.11 160.66 Q 50.11 159.03 47.87 159.03 Q 47.62 159.03 47.34 159.07 L 47.34 155.55 L 51 155.55 L 51 156.39 L 48.18 156.39 L 48.18 158.3 Q 49.57 158.3 50.36 158.94 Q 51.14 159.58 51.14 160.71 Q 51.14 161.76 50.43 162.36 Q 49.72 162.96 48.46 162.96 Q 47.91 162.96 47.22 162.81 M 47.22 162.81 M 55.13 162.96 Q 54.02 162.96 53.33 161.91 Q 52.63 160.86 52.63 159.16 Q 52.63 157.45 53.33 156.41 Q 54.03 155.37 55.16 155.37 Q 56.3 155.37 57 156.41 Q 57.69 157.45 57.69 159.15 Q 57.69 160.89 57 161.92 Q 56.3 162.96 55.13 162.96 M 55.13 162.96 M 55.14 162.24 Q 56.67 162.24 56.67 159.13 Q 56.67 156.1 55.16 156.1 Q 53.66 156.1 53.66 159.16 Q 53.66 162.24 55.14 162.24 M 55.14 162.24"/></g><line x1="62" y1="159" x2="64" y2="159" style="stroke-width: 1.0;stroke: rgb(128,128,128);stroke-opacity: 1.0;" transform="matrix(1,0,0,1,0,0)" clip-path="url(#94503193632740clip-0)"/><g style="fill: rgb(0,0,0); fill-opacity: 1.0; stroke: none" transform="matrix(1,0,0,1,0,0)" clip-path="url(#94503193632740clip-0)"><path d="M 34.13 134.79 Q 33.02 134.79 32.33 133.74 Q 31.63 132.69 31.63 131 Q 31.63 129.29 32.33 128.25 Q 33.03 127.21 34.16 127.21 Q 35.3 127.21 36 128.25 Q 36.69 129.29 36.69 130.98 Q 36.69 132.72 36 133.76 Q 35.3 134.79 34.13 134.79 M 34.13 134.79 M 34.14 134.07 Q 35.67 134.07 35.67 130.97 Q 35.67 127.93 34.16 127.93 Q 32.66 127.93 32.66 131 Q 32.66 134.07 34.14 134.07 M 34.14 134.07 M 37.98 134.61 L 37.98 133.41 L 39.18 133.41 L 39.18 134.61 M 37.98 134.61 M 41.5 134.61 L 41.5 133.89 L 42.95 133.89 L 42.95 128.19 L 41.5 128.55 L 41.5 127.81 L 43.92 127.21 L 43.92 133.89 L 45.36 133.89 L 45.36 134.61 M 41.5 134.61 M 47.5 134.61 Q 47.65 133.77 47.91 133.15 Q 48.17 132.54 48.83 131.46 L 50.8 128.29 L 47.08 128.29 L 47.08 127.39 L 51.72 127.39 L 51.72 128.29 Q 48.94 132.39 48.61 134.61 M 47.5 134.61 M 53.22 134.64 L 53.22 133.78 Q 53.93 134.07 54.58 134.07 Q 55.3 134.07 55.7 133.65 Q 56.11 133.23 56.11 132.49 Q 56.11 130.87 53.87 130.87 Q 53.62 130.87 53.34 130.9 L 53.34 127.39 L 57 127.39 L 57 128.23 L 54.18 128.23 L 54.18 130.13 Q 55.57 130.13 56.36 130.77 Q 57.14 131.41 57.14 132.54 Q 57.14 133.6 56.43 134.2 Q 55.72 134.79 54.46 134.79 Q 53.91 134.79 53.22 134.64 M 53.22 134.64"/></g><line x1="62" y1="130.83" x2="64" y2="130.83" style="stroke-width: 1.0;stroke: rgb(128,128,128);stroke-opacity: 1.0;" transform="matrix(1,0,0,1,0,0)" clip-path="url(#94503193632740clip-0)"/><g style="fill: rgb(0,0,0); fill-opacity: 1.0; stroke: none" transform="matrix(1,0,0,1,0,0)" clip-path="url(#94503193632740clip-0)"><path d="M 34.13 106.63 Q 33.02 106.63 32.33 105.58 Q 31.63 104.52 31.63 102.83 Q 31.63 101.12 32.33 100.08 Q 33.03 99.04 34.16 99.04 Q 35.3 99.04 36 100.08 Q 36.69 101.12 36.69 102.81 Q 36.69 104.55 36 105.59 Q 35.3 106.63 34.13 106.63 M 34.13 106.63 M 34.14 105.9 Q 35.67 105.9 35.67 102.8 Q 35.67 99.76 34.16 99.76 Q 32.66 99.76 32.66 102.83 Q 32.66 105.9 34.14 105.9 M 34.14 105.9 M 37.98 106.45 L 37.98 105.24 L 39.18 105.24 L 39.18 106.45 M 37.98 106.45 M 40.83 106.45 L 40.83 105.6 Q 41.25 104.62 42.53 103.46 L 43.08 102.97 Q 44.15 102.01 44.15 101.06 Q 44.15 100.46 43.78 100.11 Q 43.42 99.76 42.78 99.76 Q 42.03 99.76 41.01 100.34 L 41.01 99.49 Q 41.97 99.04 42.92 99.04 Q 43.94 99.04 44.55 99.59 Q 45.17 100.13 45.17 101.04 Q 45.17 101.69 44.86 102.19 Q 44.55 102.69 43.7 103.41 L 43.33 103.73 Q 42.17 104.71 41.99 105.6 L 45.13 105.6 L 45.13 106.45 M 40.83 106.45 M 49.13 106.63 Q 48.02 106.63 47.33 105.58 Q 46.63 104.52 46.63 102.83 Q 46.63 101.12 47.33 100.08 Q 48.03 99.04 49.16 99.04 Q 50.3 99.04 51 100.08 Q 51.69 101.12 51.69 102.81 Q 51.69 104.55 51 105.59 Q 50.3 106.63 49.13 106.63 M 49.13 106.63 M 49.14 105.9 Q 50.67 105.9 50.67 102.8 Q 50.67 99.76 49.16 99.76 Q 47.66 99.76 47.66 102.83 Q 47.66 105.9 49.14 105.9 M 49.14 105.9 M 55.13 106.63 Q 54.02 106.63 53.33 105.58 Q 52.63 104.52 52.63 102.83 Q 52.63 101.12 53.33 100.08 Q 54.03 99.04 55.16 99.04 Q 56.3 99.04 57 100.08 Q 57.69 101.12 57.69 102.81 Q 57.69 104.55 57 105.59 Q 56.3 106.63 55.13 106.63 M 55.13 106.63 M 55.14 105.9 Q 56.67 105.9 56.67 102.8 Q 56.67 99.76 55.16 99.76 Q 53.66 99.76 53.66 102.83 Q 53.66 105.9 55.14 105.9 M 55.14 105.9"/></g><line x1="62" y1="102.67" x2="64" y2="102.67" style="stroke-width: 1.0;stroke: rgb(128,128,128);stroke-opacity: 1.0;" transform="matrix(1,0,0,1,0,0)" clip-path="url(#94503193632740clip-0)"/><g style="fill: rgb(0,0,0); fill-opacity: 1.0; stroke: none" transform="matrix(1,0,0,1,0,0)" clip-path="url(#94503193632740clip-0)"><path d="M 34.13 78.46 Q 33.02 78.46 32.33 77.41 Q 31.63 76.36 31.63 74.66 Q 31.63 72.95 32.33 71.91 Q 33.03 70.87 34.16 70.87 Q 35.3 70.87 36 71.91 Q 36.69 72.95 36.69 74.65 Q 36.69 76.39 36 77.42 Q 35.3 78.46 34.13 78.46 M 34.13 78.46 M 34.14 77.74 Q 35.67 77.74 35.67 74.63 Q 35.67 71.6 34.16 71.6 Q 32.66 71.6 32.66 74.66 Q 32.66 77.74 34.14 77.74 M 34.14 77.74 M 37.98 78.28 L 37.98 77.07 L 39.18 77.07 L 39.18 78.28 M 37.98 78.28 M 40.83 78.28 L 40.83 77.44 Q 41.25 76.45 42.53 75.3 L 43.08 74.8 Q 44.15 73.84 44.15 72.89 Q 44.15 72.29 43.78 71.94 Q 43.42 71.6 42.78 71.6 Q 42.03 71.6 41.01 72.18 L 41.01 71.33 Q 41.97 70.87 42.92 70.87 Q 43.94 70.87 44.55 71.42 Q 45.17 71.97 45.17 72.87 Q 45.17 73.52 44.86 74.02 Q 44.55 74.53 43.7 75.24 L 43.33 75.56 Q 42.17 76.54 41.99 77.44 L 45.13 77.44 L 45.13 78.28 M 40.83 78.28 M 46.83 78.28 L 46.83 77.44 Q 47.25 76.45 48.53 75.3 L 49.08 74.8 Q 50.15 73.84 50.15 72.89 Q 50.15 72.29 49.78 71.94 Q 49.42 71.6 48.78 71.6 Q 48.03 71.6 47.01 72.18 L 47.01 71.33 Q 47.97 70.87 48.92 70.87 Q 49.94 70.87 50.55 71.42 Q 51.17 71.97 51.17 72.87 Q 51.17 73.52 50.86 74.02 Q 50.55 74.53 49.7 75.24 L 49.33 75.56 Q 48.17 76.54 47.99 77.44 L 51.13 77.44 L 51.13 78.28 M 46.83 78.28 M 53.22 78.31 L 53.22 77.45 Q 53.93 77.74 54.58 77.74 Q 55.3 77.74 55.7 77.32 Q 56.11 76.9 56.11 76.16 Q 56.11 74.53 53.87 74.53 Q 53.62 74.53 53.34 74.57 L 53.34 71.05 L 57 71.05 L 57 71.89 L 54.18 71.89 L 54.18 73.8 Q 55.57 73.8 56.36 74.44 Q 57.14 75.08 57.14 76.21 Q 57.14 77.26 56.43 77.86 Q 55.72 78.46 54.46 78.46 Q 53.91 78.46 53.22 78.31 M 53.22 78.31"/></g><line x1="62" y1="74.5" x2="64" y2="74.5" style="stroke-width: 1.0;stroke: rgb(128,128,128);stroke-opacity: 1.0;" transform="matrix(1,0,0,1,0,0)" clip-path="url(#94503193632740clip-0)"/><g style="fill: rgb(0,0,0); fill-opacity: 1.0; stroke: none" transform="matrix(1,0,0,1,0,0)" clip-path="url(#94503193632740clip-0)"><path d="M 34.13 50.29 Q 33.02 50.29 32.33 49.24 Q 31.63 48.19 31.63 46.5 Q 31.63 44.79 32.33 43.75 Q 33.03 42.71 34.16 42.71 Q 35.3 42.71 36 43.75 Q 36.69 44.79 36.69 46.48 Q 36.69 48.22 36 49.26 Q 35.3 50.29 34.13 50.29 M 34.13 50.29 M 34.14 49.57 Q 35.67 49.57 35.67 46.47 Q 35.67 43.43 34.16 43.43 Q 32.66 43.43 32.66 46.5 Q 32.66 49.57 34.14 49.57 M 34.14 49.57 M 37.98 50.11 L 37.98 48.91 L 39.18 48.91 L 39.18 50.11 M 37.98 50.11 M 40.83 50.11 L 40.83 49.27 Q 41.25 48.29 42.53 47.13 L 43.08 46.64 Q 44.15 45.68 44.15 44.73 Q 44.15 44.12 43.78 43.78 Q 43.42 43.43 42.78 43.43 Q 42.03 43.43 41.01 44.01 L 41.01 43.16 Q 41.97 42.71 42.92 42.71 Q 43.94 42.71 44.55 43.25 Q 45.17 43.8 45.17 44.7 Q 45.17 45.35 44.86 45.86 Q 44.55 46.36 43.7 47.08 L 43.33 47.39 Q 42.17 48.38 41.99 49.27 L 45.13 49.27 L 45.13 50.11 M 40.83 50.11 M 47.22 50.14 L 47.22 49.28 Q 47.93 49.57 48.58 49.57 Q 49.3 49.57 49.7 49.15 Q 50.11 48.73 50.11 47.99 Q 50.11 46.37 47.87 46.37 Q 47.62 46.37 47.34 46.4 L 47.34 42.89 L 51 42.89 L 51 43.73 L 48.18 43.73 L 48.18 45.63 Q 49.57 45.63 50.36 46.27 Q 51.14 46.91 51.14 48.04 Q 51.14 49.1 50.43 49.7 Q 49.72 50.29 48.46 50.29 Q 47.91 50.29 47.22 50.14 M 47.22 50.14 M 55.13 50.29 Q 54.02 50.29 53.33 49.24 Q 52.63 48.19 52.63 46.5 Q 52.63 44.79 53.33 43.75 Q 54.03 42.71 55.16 42.71 Q 56.3 42.71 57 43.75 Q 57.69 44.79 57.69 46.48 Q 57.69 48.22 57 49.26 Q 56.3 50.29 55.13 50.29 M 55.13 50.29 M 55.14 49.57 Q 56.67 49.57 56.67 46.47 Q 56.67 43.43 55.16 43.43 Q 53.66 43.43 53.66 46.5 Q 53.66 49.57 55.14 49.57 M 55.14 49.57"/></g><line x1="62" y1="46.33" x2="64" y2="46.33" style="stroke-width: 1.0;stroke: rgb(128,128,128);stroke-opacity: 1.0;" transform="matrix(1,0,0,1,0,0)" clip-path="url(#94503193632740clip-0)"/><g style="fill: rgb(0,0,0); fill-opacity: 1.0; stroke: none" transform="matrix(0,-1,1,0,-156.566406,194.433594)" clip-path="url(#94503193632740clip-1)"><path d="M 6.42 180.04 L 3.14 171.36 L 4.38 171.36 L 7.06 178.46 L 9.65 171.36 L 10.73 171.36 L 7.58 180.04 M 6.42 180.04 M 15.37 179.23 Q 14.33 180.18 13.37 180.18 Q 12.58 180.18 12.06 179.69 Q 11.54 179.19 11.54 178.44 Q 11.54 177.39 12.41 176.83 Q 13.29 176.27 14.92 176.27 L 15.2 176.27 L 15.2 175.51 Q 15.2 174.4 14.06 174.4 Q 13.15 174.4 12.09 174.96 L 12.09 174.01 Q 13.25 173.53 14.27 173.53 Q 15.34 173.53 15.85 174.01 Q 16.35 174.49 16.35 175.51 L 16.35 178.39 Q 16.35 179.38 16.96 179.38 Q 17.04 179.38 17.19 179.36 L 17.27 179.99 Q 16.88 180.18 16.4 180.18 Q 15.59 180.18 15.37 179.23 M 15.37 179.23 M 15.2 178.6 L 15.2 176.95 L 14.81 176.94 Q 13.86 176.94 13.28 177.3 Q 12.69 177.66 12.69 178.25 Q 12.69 178.66 12.98 178.95 Q 13.28 179.24 13.7 179.24 Q 14.42 179.24 15.2 178.6 M 15.2 178.6 M 19.09 180.04 L 19.09 170.78 L 20.24 170.78 L 20.24 180.04 M 19.09 180.04 M 27.07 180.04 L 27.07 178.84 Q 26.15 180.18 24.83 180.18 Q 24 180.18 23.51 179.66 Q 23.02 179.13 23.02 178.24 L 23.02 173.67 L 24.17 173.67 L 24.17 177.87 Q 24.17 178.58 24.38 178.88 Q 24.59 179.19 25.07 179.19 Q 26.13 179.19 27.07 177.8 L 27.07 173.67 L 28.22 173.67 L 28.22 180.04 M 27.07 180.04 M 35.75 179.83 Q 34.59 180.18 33.77 180.18 Q 32.36 180.18 31.47 179.25 Q 30.58 178.31 30.58 176.82 Q 30.58 175.38 31.37 174.45 Q 32.15 173.53 33.37 173.53 Q 34.52 173.53 35.15 174.35 Q 35.78 175.17 35.78 176.68 L 35.78 177.04 L 31.76 177.04 Q 32.01 179.3 33.98 179.3 Q 34.7 179.3 35.75 178.92 M 35.75 179.83 M 31.81 176.17 L 34.62 176.17 Q 34.62 174.39 33.3 174.39 Q 31.97 174.39 31.81 176.17 M 31.81 176.17"/></g><line x1="64" y1="328" x2="592" y2="328" style="stroke-width: 0.5;stroke: rgb(192,192,192);stroke-opacity: 1.0;stroke-dasharray: 2.0, 2.0;" transform="matrix(1,0,0,1,0,0)" clip-path="url(#94503193632740clip-2)"/><line x1="64" y1="299.83" x2="592" y2="299.83" style="stroke-width: 0.5;stroke: rgb(192,192,192);stroke-opacity: 1.0;stroke-dasharray: 2.0, 2.0;" transform="matrix(1,0,0,1,0,0)" clip-path="url(#94503193632740clip-2)"/><line x1="64" y1="271.67" x2="592" y2="271.67" style="stroke-width: 0.5;stroke: rgb(192,192,192);stroke-opacity: 1.0;stroke-dasharray: 2.0, 2.0;" transform="matrix(1,0,0,1,0,0)" clip-path="url(#94503193632740clip-2)"/><line x1="64" y1="243.5" x2="592" y2="243.5" style="stroke-width: 0.5;stroke: rgb(192,192,192);stroke-opacity: 1.0;stroke-dasharray: 2.0, 2.0;" transform="matrix(1,0,0,1,0,0)" clip-path="url(#94503193632740clip-2)"/><line x1="64" y1="215.33" x2="592" y2="215.33" style="stroke-width: 0.5;stroke: rgb(192,192,192);stroke-opacity: 1.0;stroke-dasharray: 2.0, 2.0;" transform="matrix(1,0,0,1,0,0)" clip-path="url(#94503193632740clip-2)"/><line x1="64" y1="187.17" x2="592" y2="187.17" style="stroke-width: 0.5;stroke: rgb(192,192,192);stroke-opacity: 1.0;stroke-dasharray: 2.0, 2.0;" transform="matrix(1,0,0,1,0,0)" clip-path="url(#94503193632740clip-2)"/><line x1="64" y1="159" x2="592" y2="159" style="stroke-width: 0.5;stroke: rgb(192,192,192);stroke-opacity: 1.0;stroke-dasharray: 2.0, 2.0;" transform="matrix(1,0,0,1,0,0)" clip-path="url(#94503193632740clip-2)"/><line x1="64" y1="130.83" x2="592" y2="130.83" style="stroke-width: 0.5;stroke: rgb(192,192,192);stroke-opacity: 1.0;stroke-dasharray: 2.0, 2.0;" transform="matrix(1,0,0,1,0,0)" clip-path="url(#94503193632740clip-2)"/><line x1="64" y1="102.67" x2="592" y2="102.67" style="stroke-width: 0.5;stroke: rgb(192,192,192);stroke-opacity: 1.0;stroke-dasharray: 2.0, 2.0;" transform="matrix(1,0,0,1,0,0)" clip-path="url(#94503193632740clip-2)"/><line x1="64" y1="74.5" x2="592" y2="74.5" style="stroke-width: 0.5;stroke: rgb(192,192,192);stroke-opacity: 1.0;stroke-dasharray: 2.0, 2.0;" transform="matrix(1,0,0,1,0,0)" clip-path="url(#94503193632740clip-2)"/><line x1="64" y1="46.33" x2="592" y2="46.33" style="stroke-width: 0.5;stroke: rgb(192,192,192);stroke-opacity: 1.0;stroke-dasharray: 2.0, 2.0;" transform="matrix(1,0,0,1,0,0)" clip-path="url(#94503193632740clip-2)"/><line x1="99.64" y1="75.8" x2="99.64" y2="75.8" style="stroke-width: 1.0;stroke: rgb(0,0,0);stroke-opacity: 1.0;" transform="matrix(1,0,0,1,0,0)" clip-path="url(#94503193632740clip-2)"/><line x1="90.4" y1="75.8" x2="108.88" y2="75.8" style="stroke-width: 1.0;stroke: rgb(0,0,0);stroke-opacity: 1.0;" transform="matrix(1,0,0,1,0,0)" clip-path="url(#94503193632740clip-2)"/><line x1="99.64" y1="75.8" x2="99.64" y2="75.8" style="stroke-width: 1.0;stroke: rgb(0,0,0);stroke-opacity: 1.0;" transform="matrix(1,0,0,1,0,0)" clip-path="url(#94503193632740clip-2)"/><line x1="90.4" y1="75.8" x2="108.88" y2="75.8" style="stroke-width: 1.0;stroke: rgb(0,0,0);stroke-opacity: 1.0;" transform="matrix(1,0,0,1,0,0)" clip-path="url(#94503193632740clip-2)"/><rect x="90.4" y="75.8" width="18.48" height="0" style="stroke-width: 1.0;stroke: rgb(0,0,0);stroke-opacity: 1.0;; fill: none" transform="matrix(1,0,0,1,0,0)" clip-path="url(#94503193632740clip-2)"/><line x1="90.4" y1="75.8" x2="108.88" y2="75.8" style="stroke-width: 1.0;stroke: rgb(0,0,0);stroke-opacity: 1.0;" transform="matrix(1,0,0,1,0,0)" clip-path="url(#94503193632740clip-2)"/><rect x="114.44" y="75.41" width="18.48" height="0.78" style="fill: rgb(192,192,192); fill-opacity: 1.0" transform="matrix(1,0,0,1,0,0)" clip-path="url(#94503193632740clip-2)"/><line x1="123.68" y1="75.02" x2="123.68" y2="75.41" style="stroke-width: 1.0;stroke: rgb(0,0,0);stroke-opacity: 1.0;" transform="matrix(1,0,0,1,0,0)" clip-path="url(#94503193632740clip-2)"/><line x1="114.44" y1="75.02" x2="132.92" y2="75.02" style="stroke-width: 1.0;stroke: rgb(0,0,0);stroke-opacity: 1.0;" transform="matrix(1,0,0,1,0,0)" clip-path="url(#94503193632740clip-2)"/><line x1="123.68" y1="76.59" x2="123.68" y2="76.19" style="stroke-width: 1.0;stroke: rgb(0,0,0);stroke-opacity: 1.0;" transform="matrix(1,0,0,1,0,0)" clip-path="url(#94503193632740clip-2)"/><line x1="114.44" y1="76.59" x2="132.92" y2="76.59" style="stroke-width: 1.0;stroke: rgb(0,0,0);stroke-opacity: 1.0;" transform="matrix(1,0,0,1,0,0)" clip-path="url(#94503193632740clip-2)"/><rect x="114.44" y="75.41" width="18.48" height="0.78" style="stroke-width: 1.0;stroke: rgb(0,0,0);stroke-opacity: 1.0;; fill: none" transform="matrix(1,0,0,1,0,0)" clip-path="url(#94503193632740clip-2)"/><line x1="114.44" y1="75.8" x2="132.92" y2="75.8" style="stroke-width: 1.0;stroke: rgb(0,0,0);stroke-opacity: 1.0;" transform="matrix(1,0,0,1,0,0)" clip-path="url(#94503193632740clip-2)"/><rect x="138.48" y="72.6" width="18.48" height="3.99" style="fill: rgb(192,192,192); fill-opacity: 1.0" transform="matrix(1,0,0,1,0,0)" clip-path="url(#94503193632740clip-2)"/><line x1="147.72" y1="72.6" x2="147.72" y2="72.6" style="stroke-width: 1.0;stroke: rgb(0,0,0);stroke-opacity: 1.0;" transform="matrix(1,0,0,1,0,0)" clip-path="url(#94503193632740clip-2)"/><line x1="138.48" y1="72.6" x2="156.96" y2="72.6" style="stroke-width: 1.0;stroke: rgb(0,0,0);stroke-opacity: 1.0;" transform="matrix(1,0,0,1,0,0)" clip-path="url(#94503193632740clip-2)"/><line x1="147.72" y1="76.59" x2="147.72" y2="76.59" style="stroke-width: 1.0;stroke: rgb(0,0,0);stroke-opacity: 1.0;" transform="matrix(1,0,0,1,0,0)" clip-path="url(#94503193632740clip-2)"/><line x1="138.48" y1="76.59" x2="156.96" y2="76.59" style="stroke-width: 1.0;stroke: rgb(0,0,0);stroke-opacity: 1.0;" transform="matrix(1,0,0,1,0,0)" clip-path="url(#94503193632740clip-2)"/><rect x="138.48" y="72.6" width="18.48" height="3.99" style="stroke-width: 1.0;stroke: rgb(0,0,0);stroke-opacity: 1.0;; fill: none" transform="matrix(1,0,0,1,0,0)" clip-path="url(#94503193632740clip-2)"/><line x1="138.48" y1="75.41" x2="156.96" y2="75.41" style="stroke-width: 1.0;stroke: rgb(0,0,0);stroke-opacity: 1.0;" transform="matrix(1,0,0,1,0,0)" clip-path="url(#94503193632740clip-2)"/><line x1="147.72" y1="23" x2="147.72" y2="23" style="stroke-width: 1.0;stroke: rgb(192,192,192);stroke-opacity: 1.0;" transform="matrix(1,0,0,1,0,0)" clip-path="url(#94503193632740clip-2)"/><line x1="147.72" y1="23" x2="147.72" y2="23" style="stroke-width: 1.0;stroke: rgb(192,192,192);stroke-opacity: 1.0;" transform="matrix(1,0,0,1,0,0)" clip-path="url(#94503193632740clip-2)"/><line x1="147.72" y1="23" x2="147.72" y2="23" style="stroke-width: 1.0;stroke: rgb(192,192,192);stroke-opacity: 1.0;" transform="matrix(1,0,0,1,0,0)" clip-path="url(#94503193632740clip-2)"/><line x1="147.72" y1="328" x2="147.72" y2="328" style="stroke-width: 1.0;stroke: rgb(192,192,192);stroke-opacity: 1.0;" transform="matrix(1,0,0,1,0,0)" clip-path="url(#94503193632740clip-2)"/><line x1="147.72" y1="328" x2="147.72" y2="328" style="stroke-width: 1.0;stroke: rgb(192,192,192);stroke-opacity: 1.0;" transform="matrix(1,0,0,1,0,0)" clip-path="url(#94503193632740clip-2)"/><line x1="147.72" y1="328" x2="147.72" y2="328" style="stroke-width: 1.0;stroke: rgb(192,192,192);stroke-opacity: 1.0;" transform="matrix(1,0,0,1,0,0)" clip-path="url(#94503193632740clip-2)"/><rect x="162.51" y="64.34" width="18.48" height="21.35" style="fill: rgb(192,192,192); fill-opacity: 1.0" transform="matrix(1,0,0,1,0,0)" clip-path="url(#94503193632740clip-2)"/><line x1="171.75" y1="62.99" x2="171.75" y2="64.34" style="stroke-width: 1.0;stroke: rgb(0,0,0);stroke-opacity: 1.0;" transform="matrix(1,0,0,1,0,0)" clip-path="url(#94503193632740clip-2)"/><line x1="162.51" y1="62.99" x2="180.99" y2="62.99" style="stroke-width: 1.0;stroke: rgb(0,0,0);stroke-opacity: 1.0;" transform="matrix(1,0,0,1,0,0)" clip-path="url(#94503193632740clip-2)"/><line x1="171.75" y1="91.82" x2="171.75" y2="85.7" style="stroke-width: 1.0;stroke: rgb(0,0,0);stroke-opacity: 1.0;" transform="matrix(1,0,0,1,0,0)" clip-path="url(#94503193632740clip-2)"/><line x1="162.51" y1="91.82" x2="180.99" y2="91.82" style="stroke-width: 1.0;stroke: rgb(0,0,0);stroke-opacity: 1.0;" transform="matrix(1,0,0,1,0,0)" clip-path="url(#94503193632740clip-2)"/><rect x="162.51" y="64.34" width="18.48" height="21.35" style="stroke-width: 1.0;stroke: rgb(0,0,0);stroke-opacity: 1.0;; fill: none" transform="matrix(1,0,0,1,0,0)" clip-path="url(#94503193632740clip-2)"/><line x1="162.51" y1="75.41" x2="180.99" y2="75.41" style="stroke-width: 1.0;stroke: rgb(0,0,0);stroke-opacity: 1.0;" transform="matrix(1,0,0,1,0,0)" clip-path="url(#94503193632740clip-2)"/><rect x="186.55" y="71.7" width="18.48" height="8.72" style="fill: rgb(192,192,192); fill-opacity: 1.0" transform="matrix(1,0,0,1,0,0)" clip-path="url(#94503193632740clip-2)"/><line x1="195.79" y1="62.99" x2="195.79" y2="71.7" style="stroke-width: 1.0;stroke: rgb(0,0,0);stroke-opacity: 1.0;" transform="matrix(1,0,0,1,0,0)" clip-path="url(#94503193632740clip-2)"/><line x1="186.55" y1="62.99" x2="205.03" y2="62.99" style="stroke-width: 1.0;stroke: rgb(0,0,0);stroke-opacity: 1.0;" transform="matrix(1,0,0,1,0,0)" clip-path="url(#94503193632740clip-2)"/><line x1="195.79" y1="91.82" x2="195.79" y2="80.42" style="stroke-width: 1.0;stroke: rgb(0,0,0);stroke-opacity: 1.0;" transform="matrix(1,0,0,1,0,0)" clip-path="url(#94503193632740clip-2)"/><line x1="186.55" y1="91.82" x2="205.03" y2="91.82" style="stroke-width: 1.0;stroke: rgb(0,0,0);stroke-opacity: 1.0;" transform="matrix(1,0,0,1,0,0)" clip-path="url(#94503193632740clip-2)"/><rect x="186.55" y="71.7" width="18.48" height="8.72" style="stroke-width: 1.0;stroke: rgb(0,0,0);stroke-opacity: 1.0;; fill: none" transform="matrix(1,0,0,1,0,0)" clip-path="url(#94503193632740clip-2)"/><line x1="186.55" y1="75.02" x2="205.03" y2="75.02" style="stroke-width: 1.0;stroke: rgb(0,0,0);stroke-opacity: 1.0;" transform="matrix(1,0,0,1,0,0)" clip-path="url(#94503193632740clip-2)"/><rect x="210.59" y="71.34" width="18.48" height="11.75" style="fill: rgb(192,192,192); fill-opacity: 1.0" transform="matrix(1,0,0,1,0,0)" clip-path="url(#94503193632740clip-2)"/><line x1="219.83" y1="60.21" x2="219.83" y2="71.34" style="stroke-width: 1.0;stroke: rgb(0,0,0);stroke-opacity: 1.0;" transform="matrix(1,0,0,1,0,0)" clip-path="url(#94503193632740clip-2)"/><line x1="210.59" y1="60.21" x2="229.07" y2="60.21" style="stroke-width: 1.0;stroke: rgb(0,0,0);stroke-opacity: 1.0;" transform="matrix(1,0,0,1,0,0)" clip-path="url(#94503193632740clip-2)"/><line x1="219.83" y1="93.1" x2="219.83" y2="83.09" style="stroke-width: 1.0;stroke: rgb(0,0,0);stroke-opacity: 1.0;" transform="matrix(1,0,0,1,0,0)" clip-path="url(#94503193632740clip-2)"/><line x1="210.59" y1="93.1" x2="229.07" y2="93.1" style="stroke-width: 1.0;stroke: rgb(0,0,0);stroke-opacity: 1.0;" transform="matrix(1,0,0,1,0,0)" clip-path="url(#94503193632740clip-2)"/><rect x="210.59" y="71.34" width="18.48" height="11.75" style="stroke-width: 1.0;stroke: rgb(0,0,0);stroke-opacity: 1.0;; fill: none" transform="matrix(1,0,0,1,0,0)" clip-path="url(#94503193632740clip-2)"/><line x1="210.59" y1="74.55" x2="229.07" y2="74.55" style="stroke-width: 1.0;stroke: rgb(0,0,0);stroke-opacity: 1.0;" transform="matrix(1,0,0,1,0,0)" clip-path="url(#94503193632740clip-2)"/><rect x="234.63" y="69.86" width="18.48" height="12.35" style="fill: rgb(192,192,192); fill-opacity: 1.0" transform="matrix(1,0,0,1,0,0)" clip-path="url(#94503193632740clip-2)"/><line x1="243.87" y1="60.21" x2="243.87" y2="69.86" style="stroke-width: 1.0;stroke: rgb(0,0,0);stroke-opacity: 1.0;" transform="matrix(1,0,0,1,0,0)" clip-path="url(#94503193632740clip-2)"/><line x1="234.63" y1="60.21" x2="253.11" y2="60.21" style="stroke-width: 1.0;stroke: rgb(0,0,0);stroke-opacity: 1.0;" transform="matrix(1,0,0,1,0,0)" clip-path="url(#94503193632740clip-2)"/><line x1="243.87" y1="93.1" x2="243.87" y2="82.21" style="stroke-width: 1.0;stroke: rgb(0,0,0);stroke-opacity: 1.0;" transform="matrix(1,0,0,1,0,0)" clip-path="url(#94503193632740clip-2)"/><line x1="234.63" y1="93.1" x2="253.11" y2="93.1" style="stroke-width: 1.0;stroke: rgb(0,0,0);stroke-opacity: 1.0;" transform="matrix(1,0,0,1,0,0)" clip-path="url(#94503193632740clip-2)"/><rect x="234.63" y="69.86" width="18.48" height="12.35" style="stroke-width: 1.0;stroke: rgb(0,0,0);stroke-opacity: 1.0;; fill: none" transform="matrix(1,0,0,1,0,0)" clip-path="url(#94503193632740clip-2)"/><line x1="234.63" y1="75.19" x2="253.11" y2="75.19" style="stroke-width: 1.0;stroke: rgb(0,0,0);stroke-opacity: 1.0;" transform="matrix(1,0,0,1,0,0)" clip-path="url(#94503193632740clip-2)"/><rect x="258.67" y="68.89" width="18.48" height="13.33" style="fill: rgb(192,192,192); fill-opacity: 1.0" transform="matrix(1,0,0,1,0,0)" clip-path="url(#94503193632740clip-2)"/><line x1="267.91" y1="52.88" x2="267.91" y2="68.89" style="stroke-width: 1.0;stroke: rgb(0,0,0);stroke-opacity: 1.0;" transform="matrix(1,0,0,1,0,0)" clip-path="url(#94503193632740clip-2)"/><line x1="258.67" y1="52.88" x2="277.15" y2="52.88" style="stroke-width: 1.0;stroke: rgb(0,0,0);stroke-opacity: 1.0;" transform="matrix(1,0,0,1,0,0)" clip-path="url(#94503193632740clip-2)"/><line x1="267.91" y1="96.17" x2="267.91" y2="82.23" style="stroke-width: 1.0;stroke: rgb(0,0,0);stroke-opacity: 1.0;" transform="matrix(1,0,0,1,0,0)" clip-path="url(#94503193632740clip-2)"/><line x1="258.67" y1="96.17" x2="277.15" y2="96.17" style="stroke-width: 1.0;stroke: rgb(0,0,0);stroke-opacity: 1.0;" transform="matrix(1,0,0,1,0,0)" clip-path="url(#94503193632740clip-2)"/><rect x="258.67" y="68.89" width="18.48" height="13.33" style="stroke-width: 1.0;stroke: rgb(0,0,0);stroke-opacity: 1.0;; fill: none" transform="matrix(1,0,0,1,0,0)" clip-path="url(#94503193632740clip-2)"/><line x1="258.67" y1="75.51" x2="277.15" y2="75.51" style="stroke-width: 1.0;stroke: rgb(0,0,0);stroke-opacity: 1.0;" transform="matrix(1,0,0,1,0,0)" clip-path="url(#94503193632740clip-2)"/><rect x="282.7" y="68.38" width="18.48" height="13.52" style="fill: rgb(192,192,192); fill-opacity: 1.0" transform="matrix(1,0,0,1,0,0)" clip-path="url(#94503193632740clip-2)"/><line x1="291.94" y1="50.5" x2="291.94" y2="68.38" style="stroke-width: 1.0;stroke: rgb(0,0,0);stroke-opacity: 1.0;" transform="matrix(1,0,0,1,0,0)" clip-path="url(#94503193632740clip-2)"/><line x1="282.7" y1="50.5" x2="301.18" y2="50.5" style="stroke-width: 1.0;stroke: rgb(0,0,0);stroke-opacity: 1.0;" transform="matrix(1,0,0,1,0,0)" clip-path="url(#94503193632740clip-2)"/><line x1="291.94" y1="99.85" x2="291.94" y2="81.9" style="stroke-width: 1.0;stroke: rgb(0,0,0);stroke-opacity: 1.0;" transform="matrix(1,0,0,1,0,0)" clip-path="url(#94503193632740clip-2)"/><line x1="282.7" y1="99.85" x2="301.18" y2="99.85" style="stroke-width: 1.0;stroke: rgb(0,0,0);stroke-opacity: 1.0;" transform="matrix(1,0,0,1,0,0)" clip-path="url(#94503193632740clip-2)"/><rect x="282.7" y="68.38" width="18.48" height="13.52" style="stroke-width: 1.0;stroke: rgb(0,0,0);stroke-opacity: 1.0;; fill: none" transform="matrix(1,0,0,1,0,0)" clip-path="url(#94503193632740clip-2)"/><line x1="282.7" y1="75.36" x2="301.18" y2="75.36" style="stroke-width: 1.0;stroke: rgb(0,0,0);stroke-opacity: 1.0;" transform="matrix(1,0,0,1,0,0)" clip-path="url(#94503193632740clip-2)"/><rect x="306.74" y="67.51" width="18.48" height="14.13" style="fill: rgb(192,192,192); fill-opacity: 1.0" transform="matrix(1,0,0,1,0,0)" clip-path="url(#94503193632740clip-2)"/><line x1="315.98" y1="50.5" x2="315.98" y2="67.51" style="stroke-width: 1.0;stroke: rgb(0,0,0);stroke-opacity: 1.0;" transform="matrix(1,0,0,1,0,0)" clip-path="url(#94503193632740clip-2)"/><line x1="306.74" y1="50.5" x2="325.22" y2="50.5" style="stroke-width: 1.0;stroke: rgb(0,0,0);stroke-opacity: 1.0;" transform="matrix(1,0,0,1,0,0)" clip-path="url(#94503193632740clip-2)"/><line x1="315.98" y1="99.85" x2="315.98" y2="81.63" style="stroke-width: 1.0;stroke: rgb(0,0,0);stroke-opacity: 1.0;" transform="matrix(1,0,0,1,0,0)" clip-path="url(#94503193632740clip-2)"/><line x1="306.74" y1="99.85" x2="325.22" y2="99.85" style="stroke-width: 1.0;stroke: rgb(0,0,0);stroke-opacity: 1.0;" transform="matrix(1,0,0,1,0,0)" clip-path="url(#94503193632740clip-2)"/><rect x="306.74" y="67.51" width="18.48" height="14.13" style="stroke-width: 1.0;stroke: rgb(0,0,0);stroke-opacity: 1.0;; fill: none" transform="matrix(1,0,0,1,0,0)" clip-path="url(#94503193632740clip-2)"/><line x1="306.74" y1="75.36" x2="325.22" y2="75.36" style="stroke-width: 1.0;stroke: rgb(0,0,0);stroke-opacity: 1.0;" transform="matrix(1,0,0,1,0,0)" clip-path="url(#94503193632740clip-2)"/><rect x="330.78" y="68.38" width="18.48" height="13.52" style="fill: rgb(192,192,192); fill-opacity: 1.0" transform="matrix(1,0,0,1,0,0)" clip-path="url(#94503193632740clip-2)"/><line x1="340.02" y1="49.08" x2="340.02" y2="68.38" style="stroke-width: 1.0;stroke: rgb(0,0,0);stroke-opacity: 1.0;" transform="matrix(1,0,0,1,0,0)" clip-path="url(#94503193632740clip-2)"/><line x1="330.78" y1="49.08" x2="349.26" y2="49.08" style="stroke-width: 1.0;stroke: rgb(0,0,0);stroke-opacity: 1.0;" transform="matrix(1,0,0,1,0,0)" clip-path="url(#94503193632740clip-2)"/><line x1="340.02" y1="99.85" x2="340.02" y2="81.9" style="stroke-width: 1.0;stroke: rgb(0,0,0);stroke-opacity: 1.0;" transform="matrix(1,0,0,1,0,0)" clip-path="url(#94503193632740clip-2)"/><line x1="330.78" y1="99.85" x2="349.26" y2="99.85" style="stroke-width: 1.0;stroke: rgb(0,0,0);stroke-opacity: 1.0;" transform="matrix(1,0,0,1,0,0)" clip-path="url(#94503193632740clip-2)"/><rect x="330.78" y="68.38" width="18.48" height="13.52" style="stroke-width: 1.0;stroke: rgb(0,0,0);stroke-opacity: 1.0;; fill: none" transform="matrix(1,0,0,1,0,0)" clip-path="url(#94503193632740clip-2)"/><line x1="330.78" y1="75.69" x2="349.26" y2="75.69" style="stroke-width: 1.0;stroke: rgb(0,0,0);stroke-opacity: 1.0;" transform="matrix(1,0,0,1,0,0)" clip-path="url(#94503193632740clip-2)"/><rect x="354.82" y="66.63" width="18.48" height="16.46" style="fill: rgb(192,192,192); fill-opacity: 1.0" transform="matrix(1,0,0,1,0,0)" clip-path="url(#94503193632740clip-2)"/><line x1="364.06" y1="49.08" x2="364.06" y2="66.63" style="stroke-width: 1.0;stroke: rgb(0,0,0);stroke-opacity: 1.0;" transform="matrix(1,0,0,1,0,0)" clip-path="url(#94503193632740clip-2)"/><line x1="354.82" y1="49.08" x2="373.3" y2="49.08" style="stroke-width: 1.0;stroke: rgb(0,0,0);stroke-opacity: 1.0;" transform="matrix(1,0,0,1,0,0)" clip-path="url(#94503193632740clip-2)"/><line x1="364.06" y1="105.91" x2="364.06" y2="83.09" style="stroke-width: 1.0;stroke: rgb(0,0,0);stroke-opacity: 1.0;" transform="matrix(1,0,0,1,0,0)" clip-path="url(#94503193632740clip-2)"/><line x1="354.82" y1="105.91" x2="373.3" y2="105.91" style="stroke-width: 1.0;stroke: rgb(0,0,0);stroke-opacity: 1.0;" transform="matrix(1,0,0,1,0,0)" clip-path="url(#94503193632740clip-2)"/><rect x="354.82" y="66.63" width="18.48" height="16.46" style="stroke-width: 1.0;stroke: rgb(0,0,0);stroke-opacity: 1.0;; fill: none" transform="matrix(1,0,0,1,0,0)" clip-path="url(#94503193632740clip-2)"/><line x1="354.82" y1="75.76" x2="373.3" y2="75.76" style="stroke-width: 1.0;stroke: rgb(0,0,0);stroke-opacity: 1.0;" transform="matrix(1,0,0,1,0,0)" clip-path="url(#94503193632740clip-2)"/><g style="stroke-width: 1.0;stroke: rgb(192,192,192);stroke-opacity: 1.0;; fill: none" transform="matrix(1,0,0,1,0,0)" clip-path="url(#94503193632740clip-2)"><path d="M 367.14 38.77 C 367.14 40.47 365.76 41.85 364.06 41.85 C 362.36 41.85 360.98 40.47 360.98 38.77 C 360.98 37.07 362.36 35.69 364.06 35.69 C 365.76 35.69 367.14 37.07 367.14 38.77 M 367.14 38.77"/></g><rect x="378.85" y="66.63" width="18.48" height="18.95" style="fill: rgb(192,192,192); fill-opacity: 1.0" transform="matrix(1,0,0,1,0,0)" clip-path="url(#94503193632740clip-2)"/><line x1="388.09" y1="41.85" x2="388.09" y2="66.63" style="stroke-width: 1.0;stroke: rgb(0,0,0);stroke-opacity: 1.0;" transform="matrix(1,0,0,1,0,0)" clip-path="url(#94503193632740clip-2)"/><line x1="378.85" y1="41.85" x2="397.33" y2="41.85" style="stroke-width: 1.0;stroke: rgb(0,0,0);stroke-opacity: 1.0;" transform="matrix(1,0,0,1,0,0)" clip-path="url(#94503193632740clip-2)"/><line x1="388.09" y1="105.91" x2="388.09" y2="85.57" style="stroke-width: 1.0;stroke: rgb(0,0,0);stroke-opacity: 1.0;" transform="matrix(1,0,0,1,0,0)" clip-path="url(#94503193632740clip-2)"/><line x1="378.85" y1="105.91" x2="397.33" y2="105.91" style="stroke-width: 1.0;stroke: rgb(0,0,0);stroke-opacity: 1.0;" transform="matrix(1,0,0,1,0,0)" clip-path="url(#94503193632740clip-2)"/><rect x="378.85" y="66.63" width="18.48" height="18.95" style="stroke-width: 1.0;stroke: rgb(0,0,0);stroke-opacity: 1.0;; fill: none" transform="matrix(1,0,0,1,0,0)" clip-path="url(#94503193632740clip-2)"/><line x1="378.85" y1="75.8" x2="397.33" y2="75.8" style="stroke-width: 1.0;stroke: rgb(0,0,0);stroke-opacity: 1.0;" transform="matrix(1,0,0,1,0,0)" clip-path="url(#94503193632740clip-2)"/><g style="stroke-width: 1.0;stroke: rgb(192,192,192);stroke-opacity: 1.0;; fill: none" transform="matrix(1,0,0,1,0,0)" clip-path="url(#94503193632740clip-2)"><path d="M 391.17 31.45 C 391.17 33.15 389.8 34.53 388.09 34.53 C 386.39 34.53 385.01 33.15 385.01 31.45 C 385.01 29.75 386.39 28.37 388.09 28.37 C 389.8 28.37 391.17 29.75 391.17 31.45 M 391.17 31.45"/></g><rect x="402.89" y="66.63" width="18.48" height="18.82" style="fill: rgb(192,192,192); fill-opacity: 1.0" transform="matrix(1,0,0,1,0,0)" clip-path="url(#94503193632740clip-2)"/><line x1="412.13" y1="41.85" x2="412.13" y2="66.63" style="stroke-width: 1.0;stroke: rgb(0,0,0);stroke-opacity: 1.0;" transform="matrix(1,0,0,1,0,0)" clip-path="url(#94503193632740clip-2)"/><line x1="402.89" y1="41.85" x2="421.37" y2="41.85" style="stroke-width: 1.0;stroke: rgb(0,0,0);stroke-opacity: 1.0;" transform="matrix(1,0,0,1,0,0)" clip-path="url(#94503193632740clip-2)"/><line x1="412.13" y1="105.91" x2="412.13" y2="85.45" style="stroke-width: 1.0;stroke: rgb(0,0,0);stroke-opacity: 1.0;" transform="matrix(1,0,0,1,0,0)" clip-path="url(#94503193632740clip-2)"/><line x1="402.89" y1="105.91" x2="421.37" y2="105.91" style="stroke-width: 1.0;stroke: rgb(0,0,0);stroke-opacity: 1.0;" transform="matrix(1,0,0,1,0,0)" clip-path="url(#94503193632740clip-2)"/><rect x="402.89" y="66.63" width="18.48" height="18.82" style="stroke-width: 1.0;stroke: rgb(0,0,0);stroke-opacity: 1.0;; fill: none" transform="matrix(1,0,0,1,0,0)" clip-path="url(#94503193632740clip-2)"/><line x1="402.89" y1="75.75" x2="421.37" y2="75.75" style="stroke-width: 1.0;stroke: rgb(0,0,0);stroke-opacity: 1.0;" transform="matrix(1,0,0,1,0,0)" clip-path="url(#94503193632740clip-2)"/><g style="stroke-width: 1.0;stroke: rgb(192,192,192);stroke-opacity: 1.0;; fill: none" transform="matrix(1,0,0,1,0,0)" clip-path="url(#94503193632740clip-2)"><path d="M 415.21 31.45 C 415.21 33.15 413.83 34.53 412.13 34.53 C 410.43 34.53 409.05 33.15 409.05 31.45 C 409.05 29.75 410.43 28.37 412.13 28.37 C 413.83 28.37 415.21 29.75 415.21 31.45 M 415.21 31.45"/></g><rect x="426.93" y="67.03" width="18.48" height="18.06" style="fill: rgb(192,192,192); fill-opacity: 1.0" transform="matrix(1,0,0,1,0,0)" clip-path="url(#94503193632740clip-2)"/><line x1="436.17" y1="41.85" x2="436.17" y2="67.03" style="stroke-width: 1.0;stroke: rgb(0,0,0);stroke-opacity: 1.0;" transform="matrix(1,0,0,1,0,0)" clip-path="url(#94503193632740clip-2)"/><line x1="426.93" y1="41.85" x2="445.41" y2="41.85" style="stroke-width: 1.0;stroke: rgb(0,0,0);stroke-opacity: 1.0;" transform="matrix(1,0,0,1,0,0)" clip-path="url(#94503193632740clip-2)"/><line x1="436.17" y1="106.94" x2="436.17" y2="85.08" style="stroke-width: 1.0;stroke: rgb(0,0,0);stroke-opacity: 1.0;" transform="matrix(1,0,0,1,0,0)" clip-path="url(#94503193632740clip-2)"/><line x1="426.93" y1="106.94" x2="445.41" y2="106.94" style="stroke-width: 1.0;stroke: rgb(0,0,0);stroke-opacity: 1.0;" transform="matrix(1,0,0,1,0,0)" clip-path="url(#94503193632740clip-2)"/><rect x="426.93" y="67.03" width="18.48" height="18.06" style="stroke-width: 1.0;stroke: rgb(0,0,0);stroke-opacity: 1.0;; fill: none" transform="matrix(1,0,0,1,0,0)" clip-path="url(#94503193632740clip-2)"/><line x1="426.93" y1="75.78" x2="445.41" y2="75.78" style="stroke-width: 1.0;stroke: rgb(0,0,0);stroke-opacity: 1.0;" transform="matrix(1,0,0,1,0,0)" clip-path="url(#94503193632740clip-2)"/><g style="stroke-width: 1.0;stroke: rgb(192,192,192);stroke-opacity: 1.0;; fill: none" transform="matrix(1,0,0,1,0,0)" clip-path="url(#94503193632740clip-2)"><path d="M 433.09 34.44 C 433.09 36.14 431.71 37.52 430.01 37.52 C 428.31 37.52 426.93 36.14 426.93 34.44 C 426.93 32.74 428.31 31.36 430.01 31.36 C 431.71 31.36 433.09 32.74 433.09 34.44 M 433.09 34.44"/></g><g style="stroke-width: 1.0;stroke: rgb(192,192,192);stroke-opacity: 1.0;; fill: none" transform="matrix(1,0,0,1,0,0)" clip-path="url(#94503193632740clip-2)"><path d="M 445.41 34.44 C 445.41 36.14 444.03 37.52 442.33 37.52 C 440.63 37.52 439.25 36.14 439.25 34.44 C 439.25 32.74 440.63 31.36 442.33 31.36 C 444.03 31.36 445.41 32.74 445.41 34.44 M 445.41 34.44"/></g><g style="stroke-width: 1.0;stroke: rgb(192,192,192);stroke-opacity: 1.0;; fill: none" transform="matrix(1,0,0,1,0,0)" clip-path="url(#94503193632740clip-2)"><path d="M 439.25 113.47 C 439.25 115.17 437.87 116.55 436.17 116.55 C 434.47 116.55 433.09 115.17 433.09 113.47 C 433.09 111.77 434.47 110.39 436.17 110.39 C 437.87 110.39 439.25 111.77 439.25 113.47 M 439.25 113.47"/></g><rect x="450.97" y="67.28" width="18.48" height="18.12" style="fill: rgb(192,192,192); fill-opacity: 1.0" transform="matrix(1,0,0,1,0,0)" clip-path="url(#94503193632740clip-2)"/><line x1="460.21" y1="41.85" x2="460.21" y2="67.28" style="stroke-width: 1.0;stroke: rgb(0,0,0);stroke-opacity: 1.0;" transform="matrix(1,0,0,1,0,0)" clip-path="url(#94503193632740clip-2)"/><line x1="450.97" y1="41.85" x2="469.45" y2="41.85" style="stroke-width: 1.0;stroke: rgb(0,0,0);stroke-opacity: 1.0;" transform="matrix(1,0,0,1,0,0)" clip-path="url(#94503193632740clip-2)"/><line x1="460.21" y1="106.94" x2="460.21" y2="85.4" style="stroke-width: 1.0;stroke: rgb(0,0,0);stroke-opacity: 1.0;" transform="matrix(1,0,0,1,0,0)" clip-path="url(#94503193632740clip-2)"/><line x1="450.97" y1="106.94" x2="469.45" y2="106.94" style="stroke-width: 1.0;stroke: rgb(0,0,0);stroke-opacity: 1.0;" transform="matrix(1,0,0,1,0,0)" clip-path="url(#94503193632740clip-2)"/><rect x="450.97" y="67.28" width="18.48" height="18.12" style="stroke-width: 1.0;stroke: rgb(0,0,0);stroke-opacity: 1.0;; fill: none" transform="matrix(1,0,0,1,0,0)" clip-path="url(#94503193632740clip-2)"/><line x1="450.97" y1="75.89" x2="469.45" y2="75.89" style="stroke-width: 1.0;stroke: rgb(0,0,0);stroke-opacity: 1.0;" transform="matrix(1,0,0,1,0,0)" clip-path="url(#94503193632740clip-2)"/><g style="stroke-width: 1.0;stroke: rgb(192,192,192);stroke-opacity: 1.0;; fill: none" transform="matrix(1,0,0,1,0,0)" clip-path="url(#94503193632740clip-2)"><path d="M 457.13 35 C 457.13 36.71 455.75 38.08 454.05 38.08 C 452.35 38.08 450.97 36.71 450.97 35 C 450.97 33.3 452.35 31.92 454.05 31.92 C 455.75 31.92 457.13 33.3 457.13 35 M 457.13 35"/></g><g style="stroke-width: 1.0;stroke: rgb(192,192,192);stroke-opacity: 1.0;; fill: none" transform="matrix(1,0,0,1,0,0)" clip-path="url(#94503193632740clip-2)"><path d="M 469.45 35 C 469.45 36.71 468.07 38.08 466.37 38.08 C 464.67 38.08 463.29 36.71 463.29 35 C 463.29 33.3 464.67 31.92 466.37 31.92 C 468.07 31.92 469.45 33.3 469.45 35 M 469.45 35"/></g><g style="stroke-width: 1.0;stroke: rgb(192,192,192);stroke-opacity: 1.0;; fill: none" transform="matrix(1,0,0,1,0,0)" clip-path="url(#94503193632740clip-2)"><path d="M 463.29 113.47 C 463.29 115.17 461.91 116.55 460.21 116.55 C 458.51 116.55 457.13 115.17 457.13 113.47 C 457.13 111.77 458.51 110.39 460.21 110.39 C 461.91 110.39 463.29 111.77 463.29 113.47 M 463.29 113.47"/></g><rect x="475.01" y="67.12" width="18.48" height="18.32" style="fill: rgb(192,192,192); fill-opacity: 1.0" transform="matrix(1,0,0,1,0,0)" clip-path="url(#94503193632740clip-2)"/><line x1="484.25" y1="41.85" x2="484.25" y2="67.12" style="stroke-width: 1.0;stroke: rgb(0,0,0);stroke-opacity: 1.0;" transform="matrix(1,0,0,1,0,0)" clip-path="url(#94503193632740clip-2)"/><line x1="475.01" y1="41.85" x2="493.49" y2="41.85" style="stroke-width: 1.0;stroke: rgb(0,0,0);stroke-opacity: 1.0;" transform="matrix(1,0,0,1,0,0)" clip-path="url(#94503193632740clip-2)"/><line x1="484.25" y1="106.94" x2="484.25" y2="85.45" style="stroke-width: 1.0;stroke: rgb(0,0,0);stroke-opacity: 1.0;" transform="matrix(1,0,0,1,0,0)" clip-path="url(#94503193632740clip-2)"/><line x1="475.01" y1="106.94" x2="493.49" y2="106.94" style="stroke-width: 1.0;stroke: rgb(0,0,0);stroke-opacity: 1.0;" transform="matrix(1,0,0,1,0,0)" clip-path="url(#94503193632740clip-2)"/><rect x="475.01" y="67.12" width="18.48" height="18.32" style="stroke-width: 1.0;stroke: rgb(0,0,0);stroke-opacity: 1.0;; fill: none" transform="matrix(1,0,0,1,0,0)" clip-path="url(#94503193632740clip-2)"/><line x1="475.01" y1="76.19" x2="493.49" y2="76.19" style="stroke-width: 1.0;stroke: rgb(0,0,0);stroke-opacity: 1.0;" transform="matrix(1,0,0,1,0,0)" clip-path="url(#94503193632740clip-2)"/><g style="stroke-width: 1.0;stroke: rgb(192,192,192);stroke-opacity: 1.0;; fill: none" transform="matrix(1,0,0,1,0,0)" clip-path="url(#94503193632740clip-2)"><path d="M 481.17 35 C 481.17 36.71 479.79 38.08 478.09 38.08 C 476.39 38.08 475.01 36.71 475.01 35 C 475.01 33.3 476.39 31.92 478.09 31.92 C 479.79 31.92 481.17 33.3 481.17 35 M 481.17 35"/></g><g style="stroke-width: 1.0;stroke: rgb(192,192,192);stroke-opacity: 1.0;; fill: none" transform="matrix(1,0,0,1,0,0)" clip-path="url(#94503193632740clip-2)"><path d="M 493.49 35 C 493.49 36.71 492.11 38.08 490.41 38.08 C 488.71 38.08 487.33 36.71 487.33 35 C 487.33 33.3 488.71 31.92 490.41 31.92 C 492.11 31.92 493.49 33.3 493.49 35 M 493.49 35"/></g><g style="stroke-width: 1.0;stroke: rgb(192,192,192);stroke-opacity: 1.0;; fill: none" transform="matrix(1,0,0,1,0,0)" clip-path="url(#94503193632740clip-2)"><path d="M 487.33 113.47 C 487.33 115.17 485.95 116.55 484.25 116.55 C 482.55 116.55 481.17 115.17 481.17 113.47 C 481.17 111.77 482.55 110.39 484.25 110.39 C 485.95 110.39 487.33 111.77 487.33 113.47 M 487.33 113.47"/></g><rect x="499.04" y="66.88" width="18.48" height="18.64" style="fill: rgb(192,192,192); fill-opacity: 1.0" transform="matrix(1,0,0,1,0,0)" clip-path="url(#94503193632740clip-2)"/><line x1="508.28" y1="41.85" x2="508.28" y2="66.88" style="stroke-width: 1.0;stroke: rgb(0,0,0);stroke-opacity: 1.0;" transform="matrix(1,0,0,1,0,0)" clip-path="url(#94503193632740clip-2)"/><line x1="499.04" y1="41.85" x2="517.52" y2="41.85" style="stroke-width: 1.0;stroke: rgb(0,0,0);stroke-opacity: 1.0;" transform="matrix(1,0,0,1,0,0)" clip-path="url(#94503193632740clip-2)"/><line x1="508.28" y1="106.94" x2="508.28" y2="85.51" style="stroke-width: 1.0;stroke: rgb(0,0,0);stroke-opacity: 1.0;" transform="matrix(1,0,0,1,0,0)" clip-path="url(#94503193632740clip-2)"/><line x1="499.04" y1="106.94" x2="517.52" y2="106.94" style="stroke-width: 1.0;stroke: rgb(0,0,0);stroke-opacity: 1.0;" transform="matrix(1,0,0,1,0,0)" clip-path="url(#94503193632740clip-2)"/><rect x="499.04" y="66.88" width="18.48" height="18.64" style="stroke-width: 1.0;stroke: rgb(0,0,0);stroke-opacity: 1.0;; fill: none" transform="matrix(1,0,0,1,0,0)" clip-path="url(#94503193632740clip-2)"/><line x1="499.04" y1="76.19" x2="517.52" y2="76.19" style="stroke-width: 1.0;stroke: rgb(0,0,0);stroke-opacity: 1.0;" transform="matrix(1,0,0,1,0,0)" clip-path="url(#94503193632740clip-2)"/><g style="stroke-width: 1.0;stroke: rgb(192,192,192);stroke-opacity: 1.0;; fill: none" transform="matrix(1,0,0,1,0,0)" clip-path="url(#94503193632740clip-2)"><path d="M 505.2 35 C 505.2 36.71 503.83 38.08 502.12 38.08 C 500.42 38.08 499.04 36.71 499.04 35 C 499.04 33.3 500.42 31.92 502.12 31.92 C 503.83 31.92 505.2 33.3 505.2 35 M 505.2 35"/></g><g style="stroke-width: 1.0;stroke: rgb(192,192,192);stroke-opacity: 1.0;; fill: none" transform="matrix(1,0,0,1,0,0)" clip-path="url(#94503193632740clip-2)"><path d="M 517.52 35 C 517.52 36.71 516.15 38.08 514.44 38.08 C 512.74 38.08 511.36 36.71 511.36 35 C 511.36 33.3 512.74 31.92 514.44 31.92 C 516.15 31.92 517.52 33.3 517.52 35 M 517.52 35"/></g><g style="stroke-width: 1.0;stroke: rgb(192,192,192);stroke-opacity: 1.0;; fill: none" transform="matrix(1,0,0,1,0,0)" clip-path="url(#94503193632740clip-2)"><path d="M 511.36 113.47 C 511.36 115.17 509.99 116.55 508.28 116.55 C 506.58 116.55 505.2 115.17 505.2 113.47 C 505.2 111.77 506.58 110.39 508.28 110.39 C 509.99 110.39 511.36 111.77 511.36 113.47 M 511.36 113.47"/></g><rect x="523.08" y="66.62" width="18.48" height="19.13" style="fill: rgb(192,192,192); fill-opacity: 1.0" transform="matrix(1,0,0,1,0,0)" clip-path="url(#94503193632740clip-2)"/><line x1="532.32" y1="38.64" x2="532.32" y2="66.62" style="stroke-width: 1.0;stroke: rgb(0,0,0);stroke-opacity: 1.0;" transform="matrix(1,0,0,1,0,0)" clip-path="url(#94503193632740clip-2)"/><line x1="523.08" y1="38.64" x2="541.56" y2="38.64" style="stroke-width: 1.0;stroke: rgb(0,0,0);stroke-opacity: 1.0;" transform="matrix(1,0,0,1,0,0)" clip-path="url(#94503193632740clip-2)"/><line x1="532.32" y1="107.54" x2="532.32" y2="85.75" style="stroke-width: 1.0;stroke: rgb(0,0,0);stroke-opacity: 1.0;" transform="matrix(1,0,0,1,0,0)" clip-path="url(#94503193632740clip-2)"/><line x1="523.08" y1="107.54" x2="541.56" y2="107.54" style="stroke-width: 1.0;stroke: rgb(0,0,0);stroke-opacity: 1.0;" transform="matrix(1,0,0,1,0,0)" clip-path="url(#94503193632740clip-2)"/><rect x="523.08" y="66.62" width="18.48" height="19.13" style="stroke-width: 1.0;stroke: rgb(0,0,0);stroke-opacity: 1.0;; fill: none" transform="matrix(1,0,0,1,0,0)" clip-path="url(#94503193632740clip-2)"/><line x1="523.08" y1="76.44" x2="541.56" y2="76.44" style="stroke-width: 1.0;stroke: rgb(0,0,0);stroke-opacity: 1.0;" transform="matrix(1,0,0,1,0,0)" clip-path="url(#94503193632740clip-2)"/><g style="stroke-width: 1.0;stroke: rgb(192,192,192);stroke-opacity: 1.0;; fill: none" transform="matrix(1,0,0,1,0,0)" clip-path="url(#94503193632740clip-2)"><path d="M 529.24 32.95 C 529.24 34.65 527.86 36.03 526.16 36.03 C 524.46 36.03 523.08 34.65 523.08 32.95 C 523.08 31.25 524.46 29.87 526.16 29.87 C 527.86 29.87 529.24 31.25 529.24 32.95 M 529.24 32.95"/></g><g style="stroke-width: 1.0;stroke: rgb(192,192,192);stroke-opacity: 1.0;; fill: none" transform="matrix(1,0,0,1,0,0)" clip-path="url(#94503193632740clip-2)"><path d="M 541.56 32.95 C 541.56 34.65 540.18 36.03 538.48 36.03 C 536.78 36.03 535.4 34.65 535.4 32.95 C 535.4 31.25 536.78 29.87 538.48 29.87 C 540.18 29.87 541.56 31.25 541.56 32.95 M 541.56 32.95"/></g><g style="stroke-width: 1.0;stroke: rgb(192,192,192);stroke-opacity: 1.0;; fill: none" transform="matrix(1,0,0,1,0,0)" clip-path="url(#94503193632740clip-2)"><path d="M 535.4 113.47 C 535.4 115.17 534.02 116.55 532.32 116.55 C 530.62 116.55 529.24 115.17 529.24 113.47 C 529.24 111.77 530.62 110.39 532.32 110.39 C 534.02 110.39 535.4 111.77 535.4 113.47 M 535.4 113.47"/></g><rect x="547.12" y="65.92" width="18.48" height="19.83" style="fill: rgb(192,192,192); fill-opacity: 1.0" transform="matrix(1,0,0,1,0,0)" clip-path="url(#94503193632740clip-2)"/><line x1="556.36" y1="37.52" x2="556.36" y2="65.92" style="stroke-width: 1.0;stroke: rgb(0,0,0);stroke-opacity: 1.0;" transform="matrix(1,0,0,1,0,0)" clip-path="url(#94503193632740clip-2)"/><line x1="547.12" y1="37.52" x2="565.6" y2="37.52" style="stroke-width: 1.0;stroke: rgb(0,0,0);stroke-opacity: 1.0;" transform="matrix(1,0,0,1,0,0)" clip-path="url(#94503193632740clip-2)"/><line x1="556.36" y1="107.54" x2="556.36" y2="85.75" style="stroke-width: 1.0;stroke: rgb(0,0,0);stroke-opacity: 1.0;" transform="matrix(1,0,0,1,0,0)" clip-path="url(#94503193632740clip-2)"/><line x1="547.12" y1="107.54" x2="565.6" y2="107.54" style="stroke-width: 1.0;stroke: rgb(0,0,0);stroke-opacity: 1.0;" transform="matrix(1,0,0,1,0,0)" clip-path="url(#94503193632740clip-2)"/><rect x="547.12" y="65.92" width="18.48" height="19.83" style="stroke-width: 1.0;stroke: rgb(0,0,0);stroke-opacity: 1.0;; fill: none" transform="matrix(1,0,0,1,0,0)" clip-path="url(#94503193632740clip-2)"/><line x1="547.12" y1="76.26" x2="565.6" y2="76.26" style="stroke-width: 1.0;stroke: rgb(0,0,0);stroke-opacity: 1.0;" transform="matrix(1,0,0,1,0,0)" clip-path="url(#94503193632740clip-2)"/><g style="stroke-width: 1.0;stroke: rgb(192,192,192);stroke-opacity: 1.0;; fill: none" transform="matrix(1,0,0,1,0,0)" clip-path="url(#94503193632740clip-2)"><path d="M 553.28 31.45 C 553.28 33.15 551.9 34.53 550.2 34.53 C 548.5 34.53 547.12 33.15 547.12 31.45 C 547.12 29.75 548.5 28.37 550.2 28.37 C 551.9 28.37 553.28 29.75 553.28 31.45 M 553.28 31.45"/></g><g style="stroke-width: 1.0;stroke: rgb(192,192,192);stroke-opacity: 1.0;; fill: none" transform="matrix(1,0,0,1,0,0)" clip-path="url(#94503193632740clip-2)"><path d="M 565.6 31.45 C 565.6 33.15 564.22 34.53 562.52 34.53 C 560.82 34.53 559.44 33.15 559.44 31.45 C 559.44 29.75 560.82 28.37 562.52 28.37 C 564.22 28.37 565.6 29.75 565.6 31.45 M 565.6 31.45"/></g><g style="stroke-width: 1.0;stroke: rgb(192,192,192);stroke-opacity: 1.0;; fill: none" transform="matrix(1,0,0,1,0,0)" clip-path="url(#94503193632740clip-2)"><path d="M 559.44 113.47 C 559.44 115.17 558.06 116.55 556.36 116.55 C 554.66 116.55 553.28 115.17 553.28 113.47 C 553.28 111.77 554.66 110.39 556.36 110.39 C 558.06 110.39 559.44 111.77 559.44 113.47 M 559.44 113.47"/></g><rect x="64" y="23" width="528" height="305" style="stroke-width: 0.5;stroke: rgb(128,128,128);stroke-opacity: 1.0;; fill: none" transform="matrix(1,0,0,1,0,0)" clip-path="url(#94503193632740clip-0)"/></svg>
