<!DOCTYPE svg PUBLIC "-//W3C//DTD SVG 1.1//EN" "http://www.w3.org/Graphics/SVG/1.1/DTD/svg11.dtd">
<svg xmlns="http://www.w3.org/2000/svg" xmlns:xlink="http://www.w3.org/1999/xlink" xmlns:jfreesvg="http://www.jfree.org/jfreesvg/svg" width="600" height="400" text-rendering="auto" shape-rendering="auto">
<defs><clipPath id="94503182662914clip-0"><path d="M 0 0 L 600 0 L 600 400 L 0 400 L 0 0 M 0 0"/></clipPath>
<clipPath id="94503182662914clip-1"><path d="M 194.43 156.57 L 194.43 756.57 L -205.57 756.57 L -205.57 156.57 L 194.43 156.57 M 194.43 156.57"/></clipPath>
<clipPath id="94503182662914clip-2"><path d="M 64 23 L 64 328 L 592 328 L 592 23 M 64 23"/></clipPath>
</defs>
<rect x="0" y="0" width="600" height="400" style="fill: rgb(238,238,238); fill-opacity: 1.0" transform="matrix(1,0,0,1,0,0)" clip-path="url(#94503182662914clip-0)"/><g style="fill: rgb(0,0,0); fill-opacity: 1.0; stroke: none" transform="matrix(1,0,0,1,0,0)" clip-path="url(#94503182662914clip-0)"><path d="M 282.34 14.3 Q 280.44 14.79 279.06 14.79 Q 276.45 14.79 275.04 13.41 Q 273.64 12.03 273.64 9.46 Q 273.64 6.91 275.04 5.54 Q 276.45 4.17 279.04 4.17 Q 280.7 4.17 282.34 4.55 L 282.34 6.2 Q 280.44 5.55 279.23 5.55 Q 277.62 5.55 276.75 6.58 Q 275.87 7.6 275.87 9.48 Q 275.87 11.3 276.81 12.34 Q 277.74 13.37 279.39 13.37 Q 279.75 13.37 280.24 13.27 L 280.24 9.94 L 282.34 9.94 M 282.34 14.3 M 297.41 14.13 Q 295.94 14.79 293.9 14.79 Q 291.41 14.79 290.02 13.39 Q 288.64 11.99 288.64 9.48 Q 288.64 6.92 290.03 5.54 Q 291.43 4.17 294.02 4.17 Q 295.68 4.17 297.31 4.55 L 297.31 6.2 Q 295.46 5.55 294.21 5.55 Q 292.61 5.55 291.74 6.57 Q 290.87 7.58 290.87 9.45 Q 290.87 11.28 291.8 12.31 Q 292.74 13.33 294.4 13.33 Q 295.89 13.33 297.41 12.58 M 297.41 14.13 M 299.26 14.54 L 299.26 3.74 L 301.29 3.74 L 301.29 8.44 Q 302.28 6.86 303.84 6.86 Q 304.85 6.86 305.43 7.49 Q 306.01 8.13 306.01 9.23 L 306.01 14.54 L 303.99 14.54 L 303.99 9.73 Q 303.99 8.45 303.14 8.45 Q 302.18 8.45 301.29 9.81 L 301.29 14.54 M 299.26 14.54 M 311.94 13.73 Q 310.93 14.71 309.78 14.71 Q 308.79 14.71 308.18 14.1 Q 307.56 13.5 307.56 12.55 Q 307.56 11.3 308.56 10.63 Q 309.55 9.96 311.4 9.96 L 311.94 9.96 L 311.94 9.27 Q 311.94 8.1 310.61 8.1 Q 309.43 8.1 308.22 8.77 L 308.22 7.38 Q 309.59 6.86 310.94 6.86 Q 313.88 6.86 313.88 9.2 L 313.88 12.53 Q 313.88 13.41 314.45 13.41 Q 314.55 13.41 314.72 13.38 L 314.77 14.51 Q 314.12 14.71 313.63 14.71 Q 312.39 14.71 312.03 13.73 M 311.94 13.73 M 311.94 12.64 L 311.94 11.12 L 311.46 11.12 Q 309.5 11.12 309.5 12.35 Q 309.5 12.76 309.79 13.05 Q 310.07 13.33 310.49 13.33 Q 311.2 13.33 311.94 12.64 M 311.94 12.64 M 316.26 14.54 L 316.26 7.03 L 318.29 7.03 L 318.29 8.44 Q 319.07 6.86 320.68 6.86 Q 320.87 6.86 321.06 6.9 L 321.06 8.7 Q 320.63 8.55 320.26 8.55 Q 319.05 8.55 318.29 9.77 L 318.29 14.54 M 316.26 14.54 M 326.13 14.49 Q 325.41 14.71 324.99 14.71 Q 322.36 14.71 322.36 12.25 L 322.36 8.29 L 321.52 8.29 L 321.52 7.03 L 322.36 7.03 L 322.36 5.76 L 324.38 5.53 L 324.38 7.03 L 325.99 7.03 L 325.99 8.29 L 324.38 8.29 L 324.38 11.98 Q 324.38 13.36 325.51 13.36 Q 325.77 13.36 326.13 13.26 M 326.13 14.49"/></g><rect x="262" y="373.33" width="76" height="25.67" style="fill: rgb(255,255,255); fill-opacity: 1.0" transform="matrix(1,0,0,1,0,0)" clip-path="url(#94503182662914clip-0)"/><line x1="262.5" y1="373.83" x2="337.5" y2="373.83" style="stroke-width: 1.0;stroke: rgb(0,0,0);stroke-opacity: 1.0;" transform="matrix(1,0,0,1,0,0)" clip-path="url(#94503182662914clip-0)"/><line x1="262.5" y1="398.5" x2="337.5" y2="398.5" style="stroke-width: 1.0;stroke: rgb(0,0,0);stroke-opacity: 1.0;" transform="matrix(1,0,0,1,0,0)" clip-path="url(#94503182662914clip-0)"/><line x1="262.5" y1="398.5" x2="262.5" y2="373.83" style="stroke-width: 1.0;stroke: rgb(0,0,0);stroke-opacity: 1.0;" transform="matrix(1,0,0,1,0,0)" clip-path="url(#94503182662914clip-0)"/><line x1="337.5" y1="398.5" x2="337.5" y2="373.83" style="stroke-width: 1.0;stroke: rgb(0,0,0);stroke-opacity: 1.0;" transform="matrix(1,0,0,1,0,0)" clip-path="url(#94503182662914clip-0)"/><g style="fill: rgb(192,192,192); fill-opacity: 1.0; stroke: none" transform="matrix(1,0,0,1,0,0)" clip-path="url(#94503182662914clip-0)"><path d="M 266 382.17 L 274 382.17 L 274 390.17 L 266 390.17 L 266 382.17 M 266 382.17"/></g><g style="stroke-width: 1.0;stroke: rgb(0,0,0);stroke-opacity: 1.0;; fill: none" transform="matrix(1,0,0,1,0,0)" clip-path="url(#94503182662914clip-0)"><path d="M 266 382.17 L 274 382.17 L 274 390.17 L 266 390.17 L 266 382.17 M 266 382.17"/></g><g style="fill: rgb(0,0,0); fill-opacity: 1.0; stroke: none" transform="matrix(1,0,0,1,0,0)" clip-path="url(#94503182662914clip-0)"><path d="M 281.52 392.11 Q 280.43 392.11 278.73 391.63 L 278.73 390.11 Q 280.56 390.96 281.74 390.96 Q 282.65 390.96 283.2 390.48 Q 283.76 390 283.76 389.23 Q 283.76 388.59 283.39 388.14 Q 283.03 387.7 282.06 387.15 L 281.31 386.72 Q 279.93 385.93 279.36 385.23 Q 278.79 384.53 278.79 383.6 Q 278.79 382.34 279.7 381.53 Q 280.61 380.73 282.01 380.73 Q 283.27 380.73 284.66 381.14 L 284.66 382.55 Q 282.94 381.88 282.1 381.88 Q 281.3 381.88 280.78 382.3 Q 280.26 382.72 280.26 383.37 Q 280.26 383.91 280.64 384.33 Q 281.02 384.75 282.04 385.32 L 282.81 385.76 Q 284.22 386.56 284.77 387.27 Q 285.33 387.98 285.33 388.98 Q 285.33 390.39 284.29 391.25 Q 283.24 392.11 281.52 392.11 M 281.52 392.11 M 294.27 391.58 Q 292.82 392.02 291.79 392.02 Q 290.03 392.02 288.92 390.85 Q 287.81 389.68 287.81 387.82 Q 287.81 386.01 288.79 384.86 Q 289.77 383.7 291.29 383.7 Q 292.73 383.7 293.52 384.72 Q 294.31 385.75 294.31 387.64 L 294.3 388.09 L 289.29 388.09 Q 289.6 390.92 292.06 390.92 Q 292.96 390.92 294.27 390.44 M 294.27 391.58 M 289.35 387 L 292.86 387 Q 292.86 384.78 291.2 384.78 Q 289.54 384.78 289.35 387 M 289.35 387 M 297.44 391.84 L 297.44 383.88 L 298.89 383.88 L 298.89 385.38 Q 299.74 383.71 301.38 383.71 Q 301.6 383.71 301.84 383.74 L 301.84 385.09 Q 301.46 384.97 301.18 384.97 Q 299.81 384.97 298.89 386.59 L 298.89 391.84 M 297.44 391.84 M 304.44 391.84 L 304.44 383.88 L 305.89 383.88 L 305.89 391.84 M 304.44 391.84 M 304.44 382.44 L 304.44 381 L 305.89 381 L 305.89 382.44 M 304.44 382.44 M 315.27 391.58 Q 313.82 392.02 312.79 392.02 Q 311.03 392.02 309.92 390.85 Q 308.81 389.68 308.81 387.82 Q 308.81 386.01 309.79 384.86 Q 310.77 383.7 312.29 383.7 Q 313.73 383.7 314.52 384.72 Q 315.31 385.75 315.31 387.64 L 315.3 388.09 L 310.29 388.09 Q 310.6 390.92 313.06 390.92 Q 313.96 390.92 315.27 390.44 M 315.27 391.58 M 310.35 387 L 313.86 387 Q 313.86 384.78 312.2 384.78 Q 310.54 384.78 310.35 387 M 310.35 387 M 320.55 392.02 Q 319.56 392.02 318.15 391.56 L 318.15 390.23 Q 319.56 390.94 320.61 390.94 Q 321.23 390.94 321.64 390.6 Q 322.05 390.26 322.05 389.76 Q 322.05 389.02 320.9 388.53 L 320.06 388.17 Q 318.19 387.4 318.19 385.94 Q 318.19 384.9 318.93 384.3 Q 319.67 383.71 320.95 383.71 Q 321.61 383.71 322.6 383.89 L 322.9 383.95 L 322.9 385.15 Q 321.69 384.79 320.98 384.79 Q 319.59 384.79 319.59 385.8 Q 319.59 386.45 320.64 386.9 L 321.34 387.19 Q 322.52 387.69 323.01 388.24 Q 323.5 388.8 323.5 389.62 Q 323.5 390.67 322.67 391.35 Q 321.84 392.02 320.55 392.02 M 320.55 392.02 M 332.26 391.84 L 332.26 390.75 L 334.42 390.75 L 334.42 382.2 L 332.26 382.74 L 332.26 381.63 L 335.87 380.73 L 335.87 390.75 L 338.04 390.75 L 338.04 391.84 M 332.26 391.84"/></g><rect x="64" y="23" width="528" height="305" style="fill: rgb(255,255,255); fill-opacity: 1.0" transform="matrix(1,0,0,1,0,0)" clip-path="url(#94503182662914clip-0)"/><line x1="64" y1="328" x2="592" y2="328" style="stroke-width: 1.0;stroke: rgb(128,128,128);stroke-opacity: 1.0;" transform="matrix(1,0,0,1,0,0)" clip-path="url(#94503182662914clip-0)"/><line x1="99.64" y1="328" x2="99.64" y2="328" style="stroke-width: 1.0;stroke: rgb(128,128,128);stroke-opacity: 1.0;" transform="matrix(1,0,0,1,0,0)" clip-path="url(#94503182662914clip-0)"/><line x1="99.64" y1="328" x2="99.64" y2="330" style="stroke-width: 1.0;stroke: rgb(128,128,128);stroke-opacity: 1.0;" transform="matrix(1,0,0,1,0,0)" clip-path="url(#94503182662914clip-0)"/><line x1="123.68" y1="328" x2="123.68" y2="328" style="stroke-width: 1.0;stroke: rgb(128,128,128);stroke-opacity: 1.0;" transform="matrix(1,0,0,1,0,0)" clip-path="url(#94503182662914clip-0)"/><line x1="123.68" y1="328" x2="123.68" y2="330" style="stroke-width: 1.0;stroke: rgb(128,128,128);stroke-opacity: 1.0;" transform="matrix(1,0,0,1,0,0)" clip-path="url(#94503182662914clip-0)"/><line x1="147.72" y1="328" x2="147.72" y2="328" style="stroke-width: 1.0;stroke: rgb(128,128,128);stroke-opacity: 1.0;" transform="matrix(1,0,0,1,0,0)" clip-path="url(#94503182662914clip-0)"/><line x1="147.72" y1="328" x2="147.72" y2="330" style="stroke-width: 1.0;stroke: rgb(128,128,128);stroke-opacity: 1.0;" transform="matrix(1,0,0,1,0,0)" clip-path="url(#94503182662914clip-0)"/><line x1="171.75" y1="328" x2="171.75" y2="328" style="stroke-width: 1.0;stroke: rgb(128,128,128);stroke-opacity: 1.0;" transform="matrix(1,0,0,1,0,0)" clip-path="url(#94503182662914clip-0)"/><line x1="171.75" y1="328" x2="171.75" y2="330" style="stroke-width: 1.0;stroke: rgb(128,128,128);stroke-opacity: 1.0;" transform="matrix(1,0,0,1,0,0)" clip-path="url(#94503182662914clip-0)"/><line x1="195.79" y1="328" x2="195.79" y2="328" style="stroke-width: 1.0;stroke: rgb(128,128,128);stroke-opacity: 1.0;" transform="matrix(1,0,0,1,0,0)" clip-path="url(#94503182662914clip-0)"/><line x1="195.79" y1="328" x2="195.79" y2="330" style="stroke-width: 1.0;stroke: rgb(128,128,128);stroke-opacity: 1.0;" transform="matrix(1,0,0,1,0,0)" clip-path="url(#94503182662914clip-0)"/><line x1="219.83" y1="328" x2="219.83" y2="328" style="stroke-width: 1.0;stroke: rgb(128,128,128);stroke-opacity: 1.0;" transform="matrix(1,0,0,1,0,0)" clip-path="url(#94503182662914clip-0)"/><line x1="219.83" y1="328" x2="219.83" y2="330" style="stroke-width: 1.0;stroke: rgb(128,128,128);stroke-opacity: 1.0;" transform="matrix(1,0,0,1,0,0)" clip-path="url(#94503182662914clip-0)"/><line x1="243.87" y1="328" x2="243.87" y2="328" style="stroke-width: 1.0;stroke: rgb(128,128,128);stroke-opacity: 1.0;" transform="matrix(1,0,0,1,0,0)" clip-path="url(#94503182662914clip-0)"/><line x1="243.87" y1="328" x2="243.87" y2="330" style="stroke-width: 1.0;stroke: rgb(128,128,128);stroke-opacity: 1.0;" transform="matrix(1,0,0,1,0,0)" clip-path="url(#94503182662914clip-0)"/><line x1="267.91" y1="328" x2="267.91" y2="328" style="stroke-width: 1.0;stroke: rgb(128,128,128);stroke-opacity: 1.0;" transform="matrix(1,0,0,1,0,0)" clip-path="url(#94503182662914clip-0)"/><line x1="267.91" y1="328" x2="267.91" y2="330" style="stroke-width: 1.0;stroke: rgb(128,128,128);stroke-opacity: 1.0;" transform="matrix(1,0,0,1,0,0)" clip-path="url(#94503182662914clip-0)"/><line x1="291.94" y1="328" x2="291.94" y2="328" style="stroke-width: 1.0;stroke: rgb(128,128,128);stroke-opacity: 1.0;" transform="matrix(1,0,0,1,0,0)" clip-path="url(#94503182662914clip-0)"/><line x1="291.94" y1="328" x2="291.94" y2="330" style="stroke-width: 1.0;stroke: rgb(128,128,128);stroke-opacity: 1.0;" transform="matrix(1,0,0,1,0,0)" clip-path="url(#94503182662914clip-0)"/><line x1="315.98" y1="328" x2="315.98" y2="328" style="stroke-width: 1.0;stroke: rgb(128,128,128);stroke-opacity: 1.0;" transform="matrix(1,0,0,1,0,0)" clip-path="url(#94503182662914clip-0)"/><line x1="315.98" y1="328" x2="315.98" y2="330" style="stroke-width: 1.0;stroke: rgb(128,128,128);stroke-opacity: 1.0;" transform="matrix(1,0,0,1,0,0)" clip-path="url(#94503182662914clip-0)"/><line x1="340.02" y1="328" x2="340.02" y2="328" style="stroke-width: 1.0;stroke: rgb(128,128,128);stroke-opacity: 1.0;" transform="matrix(1,0,0,1,0,0)" clip-path="url(#94503182662914clip-0)"/><line x1="340.02" y1="328" x2="340.02" y2="330" style="stroke-width: 1.0;stroke: rgb(128,128,128);stroke-opacity: 1.0;" transform="matrix(1,0,0,1,0,0)" clip-path="url(#94503182662914clip-0)"/><line x1="364.06" y1="328" x2="364.06" y2="328" style="stroke-width: 1.0;stroke: rgb(128,128,128);stroke-opacity: 1.0;" transform="matrix(1,0,0,1,0,0)" clip-path="url(#94503182662914clip-0)"/><line x1="364.06" y1="328" x2="364.06" y2="330" style="stroke-width: 1.0;stroke: rgb(128,128,128);stroke-opacity: 1.0;" transform="matrix(1,0,0,1,0,0)" clip-path="url(#94503182662914clip-0)"/><line x1="388.09" y1="328" x2="388.09" y2="328" style="stroke-width: 1.0;stroke: rgb(128,128,128);stroke-opacity: 1.0;" transform="matrix(1,0,0,1,0,0)" clip-path="url(#94503182662914clip-0)"/><line x1="388.09" y1="328" x2="388.09" y2="330" style="stroke-width: 1.0;stroke: rgb(128,128,128);stroke-opacity: 1.0;" transform="matrix(1,0,0,1,0,0)" clip-path="url(#94503182662914clip-0)"/><line x1="412.13" y1="328" x2="412.13" y2="328" style="stroke-width: 1.0;stroke: rgb(128,128,128);stroke-opacity: 1.0;" transform="matrix(1,0,0,1,0,0)" clip-path="url(#94503182662914clip-0)"/><line x1="412.13" y1="328" x2="412.13" y2="330" style="stroke-width: 1.0;stroke: rgb(128,128,128);stroke-opacity: 1.0;" transform="matrix(1,0,0,1,0,0)" clip-path="url(#94503182662914clip-0)"/><line x1="436.17" y1="328" x2="436.17" y2="328" style="stroke-width: 1.0;stroke: rgb(128,128,128);stroke-opacity: 1.0;" transform="matrix(1,0,0,1,0,0)" clip-path="url(#94503182662914clip-0)"/><line x1="436.17" y1="328" x2="436.17" y2="330" style="stroke-width: 1.0;stroke: rgb(128,128,128);stroke-opacity: 1.0;" transform="matrix(1,0,0,1,0,0)" clip-path="url(#94503182662914clip-0)"/><line x1="460.21" y1="328" x2="460.21" y2="328" style="stroke-width: 1.0;stroke: rgb(128,128,128);stroke-opacity: 1.0;" transform="matrix(1,0,0,1,0,0)" clip-path="url(#94503182662914clip-0)"/><line x1="460.21" y1="328" x2="460.21" y2="330" style="stroke-width: 1.0;stroke: rgb(128,128,128);stroke-opacity: 1.0;" transform="matrix(1,0,0,1,0,0)" clip-path="url(#94503182662914clip-0)"/><line x1="484.25" y1="328" x2="484.25" y2="328" style="stroke-width: 1.0;stroke: rgb(128,128,128);stroke-opacity: 1.0;" transform="matrix(1,0,0,1,0,0)" clip-path="url(#94503182662914clip-0)"/><line x1="484.25" y1="328" x2="484.25" y2="330" style="stroke-width: 1.0;stroke: rgb(128,128,128);stroke-opacity: 1.0;" transform="matrix(1,0,0,1,0,0)" clip-path="url(#94503182662914clip-0)"/><line x1="508.28" y1="328" x2="508.28" y2="328" style="stroke-width: 1.0;stroke: rgb(128,128,128);stroke-opacity: 1.0;" transform="matrix(1,0,0,1,0,0)" clip-path="url(#94503182662914clip-0)"/><line x1="508.28" y1="328" x2="508.28" y2="330" style="stroke-width: 1.0;stroke: rgb(128,128,128);stroke-opacity: 1.0;" transform="matrix(1,0,0,1,0,0)" clip-path="url(#94503182662914clip-0)"/><line x1="532.32" y1="328" x2="532.32" y2="328" style="stroke-width: 1.0;stroke: rgb(128,128,128);stroke-opacity: 1.0;" transform="matrix(1,0,0,1,0,0)" clip-path="url(#94503182662914clip-0)"/><line x1="532.32" y1="328" x2="532.32" y2="330" style="stroke-width: 1.0;stroke: rgb(128,128,128);stroke-opacity: 1.0;" transform="matrix(1,0,0,1,0,0)" clip-path="url(#94503182662914clip-0)"/><line x1="556.36" y1="328" x2="556.36" y2="328" style="stroke-width: 1.0;stroke: rgb(128,128,128);stroke-opacity: 1.0;" transform="matrix(1,0,0,1,0,0)" clip-path="url(#94503182662914clip-0)"/><line x1="556.36" y1="328" x2="556.36" y2="330" style="stroke-width: 1.0;stroke: rgb(128,128,128);stroke-opacity: 1.0;" transform="matrix(1,0,0,1,0,0)" clip-path="url(#94503182662914clip-0)"/><g style="fill: rgb(0,0,0); fill-opacity: 1.0; stroke: none" transform="matrix(1,0,0,1,0,0)" clip-path="url(#94503182662914clip-0)"><path d="M 98.14 343.67 L 98.14 342.95 L 99.59 342.95 L 99.59 337.24 L 98.14 337.6 L 98.14 336.86 L 100.56 336.26 L 100.56 342.95 L 102 342.95 L 102 343.67 M 98.14 343.67"/></g><g style="fill: rgb(0,0,0); fill-opacity: 1.0; stroke: none" transform="matrix(1,0,0,1,0,0)" clip-path="url(#94503182662914clip-0)"><path d="M 121.51 343.67 L 121.51 342.82 Q 121.93 341.84 123.21 340.68 L 123.76 340.19 Q 124.82 339.23 124.82 338.28 Q 124.82 337.68 124.46 337.33 Q 124.1 336.98 123.46 336.98 Q 122.71 336.98 121.69 337.56 L 121.69 336.71 Q 122.65 336.26 123.6 336.26 Q 124.61 336.26 125.23 336.81 Q 125.84 337.35 125.84 338.26 Q 125.84 338.91 125.53 339.41 Q 125.22 339.91 124.38 340.63 L 124.01 340.95 Q 122.85 341.93 122.67 342.82 L 125.81 342.82 L 125.81 343.67 M 121.51 343.67"/></g><g style="fill: rgb(0,0,0); fill-opacity: 1.0; stroke: none" transform="matrix(1,0,0,1,0,0)" clip-path="url(#94503182662914clip-0)"><path d="M 145.73 343.61 L 145.73 342.72 Q 146.77 343.13 147.36 343.13 Q 148.05 343.13 148.48 342.72 Q 148.92 342.32 148.92 341.68 Q 148.92 340.16 146.78 340.16 L 146.4 340.16 L 146.4 339.51 L 146.74 339.5 Q 148.74 339.5 148.74 338.09 Q 148.74 336.98 147.42 336.98 Q 146.7 336.98 145.83 337.39 L 145.83 336.55 Q 146.68 336.26 147.49 336.26 Q 149.71 336.26 149.71 337.94 Q 149.71 339.21 148.2 339.75 Q 149.95 340.16 149.95 341.67 Q 149.95 342.69 149.27 343.27 Q 148.6 343.85 147.42 343.85 Q 146.75 343.85 145.73 343.61 M 145.73 343.61"/></g><g style="fill: rgb(0,0,0); fill-opacity: 1.0; stroke: none" transform="matrix(1,0,0,1,0,0)" clip-path="url(#94503182662914clip-0)"><path d="M 172.52 343.67 L 172.52 341.62 L 169.27 341.62 L 169.27 340.89 L 172.52 336.44 L 173.42 336.44 L 173.42 340.84 L 174.39 340.84 L 174.39 341.62 L 173.42 341.62 L 173.42 343.67 M 172.52 343.67 M 170.21 340.84 L 172.58 340.84 L 172.58 337.62 M 170.21 340.84"/></g><g style="fill: rgb(0,0,0); fill-opacity: 1.0; stroke: none" transform="matrix(1,0,0,1,0,0)" clip-path="url(#94503182662914clip-0)"><path d="M 194.01 343.7 L 194.01 342.84 Q 194.73 343.13 195.37 343.13 Q 196.09 343.13 196.5 342.71 Q 196.9 342.29 196.9 341.55 Q 196.9 339.92 194.66 339.92 Q 194.41 339.92 194.13 339.96 L 194.13 336.44 L 197.79 336.44 L 197.79 337.28 L 194.97 337.28 L 194.97 339.19 Q 196.37 339.19 197.15 339.83 Q 197.93 340.46 197.93 341.6 Q 197.93 342.65 197.22 343.25 Q 196.51 343.85 195.25 343.85 Q 194.7 343.85 194.01 343.7 M 194.01 343.7"/></g><g style="fill: rgb(0,0,0); fill-opacity: 1.0; stroke: none" transform="matrix(1,0,0,1,0,0)" clip-path="url(#94503182662914clip-0)"><path d="M 218.55 339.92 Q 219.24 339.03 220.28 339.03 Q 221.23 339.03 221.83 339.66 Q 222.43 340.28 222.43 341.27 Q 222.43 342.39 221.76 343.12 Q 221.08 343.85 220.04 343.85 Q 218.85 343.85 218.17 342.89 Q 217.5 341.92 217.5 340.22 Q 217.5 338.34 218.27 337.3 Q 219.05 336.26 220.45 336.26 Q 221.1 336.26 222.06 336.53 L 222.06 337.37 Q 221.04 336.98 220.39 336.98 Q 218.55 336.98 218.55 339.92 M 218.55 339.92 M 221.47 341.48 Q 221.47 340.66 221.1 340.19 Q 220.73 339.72 220.08 339.72 Q 219.47 339.72 219.03 340.13 Q 218.59 340.54 218.59 341.12 Q 218.59 342.03 219 342.58 Q 219.42 343.13 220.11 343.13 Q 220.73 343.13 221.1 342.68 Q 221.47 342.23 221.47 341.48 M 221.47 341.48"/></g><g style="fill: rgb(0,0,0); fill-opacity: 1.0; stroke: none" transform="matrix(1,0,0,1,0,0)" clip-path="url(#94503182662914clip-0)"><path d="M 242.37 343.67 Q 242.51 342.82 242.77 342.21 Q 243.04 341.59 243.7 340.52 L 245.67 337.34 L 241.95 337.34 L 241.95 336.44 L 246.59 336.44 L 246.59 337.34 Q 243.81 341.44 243.48 343.67 M 242.37 343.67"/></g><g style="fill: rgb(0,0,0); fill-opacity: 1.0; stroke: none" transform="matrix(1,0,0,1,0,0)" clip-path="url(#94503182662914clip-0)"><path d="M 267.21 339.73 Q 266.15 339 266.15 338.1 Q 266.15 337.28 266.75 336.77 Q 267.35 336.26 268.31 336.26 Q 269.21 336.26 269.76 336.69 Q 270.32 337.12 270.32 337.82 Q 270.32 338.87 268.97 339.73 Q 270.6 340.53 270.6 341.8 Q 270.6 342.71 269.92 343.28 Q 269.23 343.85 268.15 343.85 Q 267.08 343.85 266.43 343.31 Q 265.77 342.77 265.77 341.89 Q 265.77 340.59 267.21 339.73 M 267.21 339.73 M 268.43 339.43 Q 269.44 338.77 269.44 337.95 Q 269.44 337.52 269.1 337.25 Q 268.77 336.98 268.22 336.98 Q 267.68 336.98 267.35 337.24 Q 267.02 337.51 267.02 337.92 Q 267.02 338.33 267.32 338.65 Q 267.62 338.97 268.43 339.43 M 268.43 339.43 M 267.73 340.12 Q 267.15 340.57 266.94 340.91 Q 266.73 341.24 266.73 341.74 Q 266.73 342.36 267.13 342.74 Q 267.53 343.13 268.19 343.13 Q 268.82 343.13 269.21 342.8 Q 269.61 342.47 269.61 341.95 Q 269.61 341.53 269.37 341.24 Q 269.12 340.95 268.41 340.53 M 267.73 340.12"/></g><g style="fill: rgb(0,0,0); fill-opacity: 1.0; stroke: none" transform="matrix(1,0,0,1,0,0)" clip-path="url(#94503182662914clip-0)"><path d="M 290.08 343.62 L 290.08 342.81 Q 291 343.13 291.64 343.13 Q 292.54 343.13 293.05 342.36 Q 293.55 341.6 293.55 340.24 Q 292.82 341.14 291.89 341.14 Q 290.97 341.14 290.34 340.47 Q 289.7 339.8 289.7 338.83 Q 289.7 337.72 290.38 336.99 Q 291.06 336.26 292.08 336.26 Q 293.26 336.26 293.94 337.21 Q 294.62 338.15 294.62 339.79 Q 294.62 341.66 293.79 342.75 Q 292.96 343.85 291.55 343.85 Q 290.98 343.85 290.08 343.62 M 290.08 343.62 M 290.67 338.64 Q 290.67 339.48 291.04 339.96 Q 291.41 340.45 292.06 340.45 Q 292.67 340.45 293.11 340.03 Q 293.54 339.62 293.54 339.03 Q 293.54 338.11 293.12 337.54 Q 292.7 336.98 292.02 336.98 Q 291.39 336.98 291.03 337.43 Q 290.67 337.87 290.67 338.64 M 290.67 338.64"/></g><g style="fill: rgb(0,0,0); fill-opacity: 1.0; stroke: none" transform="matrix(1,0,0,1,0,0)" clip-path="url(#94503182662914clip-0)"><path d="M 311.48 343.67 L 311.48 342.95 L 312.93 342.95 L 312.93 337.24 L 311.48 337.6 L 311.48 336.86 L 313.9 336.26 L 313.9 342.95 L 315.34 342.95 L 315.34 343.67 M 311.48 343.67 M 319.12 343.85 Q 318 343.85 317.31 342.8 Q 316.62 341.74 316.62 340.05 Q 316.62 338.34 317.31 337.3 Q 318.01 336.26 319.15 336.26 Q 320.28 336.26 320.98 337.3 Q 321.67 338.34 321.67 340.04 Q 321.67 341.77 320.98 342.81 Q 320.28 343.85 319.12 343.85 M 319.12 343.85 M 319.13 343.13 Q 320.65 343.13 320.65 340.02 Q 320.65 336.98 319.15 336.98 Q 317.64 336.98 317.64 340.05 Q 317.64 343.13 319.13 343.13 M 319.13 343.13"/></g><g style="fill: rgb(0,0,0); fill-opacity: 1.0; stroke: none" transform="matrix(1,0,0,1,0,0)" clip-path="url(#94503182662914clip-0)"><path d="M 335.52 343.67 L 335.52 342.95 L 336.97 342.95 L 336.97 337.24 L 335.52 337.6 L 335.52 336.86 L 337.93 336.26 L 337.93 342.95 L 339.38 342.95 L 339.38 343.67 M 335.52 343.67 M 341.52 343.67 L 341.52 342.95 L 342.97 342.95 L 342.97 337.24 L 341.52 337.6 L 341.52 336.86 L 343.93 336.26 L 343.93 342.95 L 345.38 342.95 L 345.38 343.67 M 341.52 343.67"/></g><g style="fill: rgb(0,0,0); fill-opacity: 1.0; stroke: none" transform="matrix(1,0,0,1,0,0)" clip-path="url(#94503182662914clip-0)"><path d="M 359.56 343.67 L 359.56 342.95 L 361.01 342.95 L 361.01 337.24 L 359.56 337.6 L 359.56 336.86 L 361.97 336.26 L 361.97 342.95 L 363.42 342.95 L 363.42 343.67 M 359.56 343.67 M 364.89 343.67 L 364.89 342.82 Q 365.31 341.84 366.59 340.68 L 367.14 340.19 Q 368.2 339.23 368.2 338.28 Q 368.2 337.68 367.84 337.33 Q 367.47 336.98 366.84 336.98 Q 366.09 336.98 365.07 337.56 L 365.07 336.71 Q 366.03 336.26 366.98 336.26 Q 367.99 336.26 368.61 336.81 Q 369.22 337.35 369.22 338.26 Q 369.22 338.91 368.91 339.41 Q 368.6 339.91 367.76 340.63 L 367.39 340.95 Q 366.23 341.93 366.05 342.82 L 369.19 342.82 L 369.19 343.67 M 364.89 343.67"/></g><g style="fill: rgb(0,0,0); fill-opacity: 1.0; stroke: none" transform="matrix(1,0,0,1,0,0)" clip-path="url(#94503182662914clip-0)"><path d="M 383.6 343.67 L 383.6 342.95 L 385.04 342.95 L 385.04 337.24 L 383.6 337.6 L 383.6 336.86 L 386.01 336.26 L 386.01 342.95 L 387.46 342.95 L 387.46 343.67 M 383.6 343.67 M 389.11 343.61 L 389.11 342.72 Q 390.15 343.13 390.74 343.13 Q 391.43 343.13 391.86 342.72 Q 392.29 342.32 392.29 341.68 Q 392.29 340.16 390.16 340.16 L 389.78 340.16 L 389.78 339.51 L 390.12 339.5 Q 392.12 339.5 392.12 338.09 Q 392.12 336.98 390.8 336.98 Q 390.08 336.98 389.21 337.39 L 389.21 336.55 Q 390.06 336.26 390.87 336.26 Q 393.08 336.26 393.08 337.94 Q 393.08 339.21 391.58 339.75 Q 393.32 340.16 393.32 341.67 Q 393.32 342.69 392.65 343.27 Q 391.98 343.85 390.8 343.85 Q 390.13 343.85 389.11 343.61 M 389.11 343.61"/></g><g style="fill: rgb(0,0,0); fill-opacity: 1.0; stroke: none" transform="matrix(1,0,0,1,0,0)" clip-path="url(#94503182662914clip-0)"><path d="M 407.64 343.67 L 407.64 342.95 L 409.08 342.95 L 409.08 337.24 L 407.64 337.6 L 407.64 336.86 L 410.05 336.26 L 410.05 342.95 L 411.49 342.95 L 411.49 343.67 M 407.64 343.67 M 415.9 343.67 L 415.9 341.62 L 412.65 341.62 L 412.65 340.89 L 415.9 336.44 L 416.8 336.44 L 416.8 340.84 L 417.77 340.84 L 417.77 341.62 L 416.8 341.62 L 416.8 343.67 M 415.9 343.67 M 413.59 340.84 L 415.96 340.84 L 415.96 337.62 M 413.59 340.84"/></g><g style="fill: rgb(0,0,0); fill-opacity: 1.0; stroke: none" transform="matrix(1,0,0,1,0,0)" clip-path="url(#94503182662914clip-0)"><path d="M 431.67 343.67 L 431.67 342.95 L 433.12 342.95 L 433.12 337.24 L 431.67 337.6 L 431.67 336.86 L 434.09 336.26 L 434.09 342.95 L 435.53 342.95 L 435.53 343.67 M 431.67 343.67 M 437.39 343.7 L 437.39 342.84 Q 438.1 343.13 438.75 343.13 Q 439.47 343.13 439.87 342.71 Q 440.28 342.29 440.28 341.55 Q 440.28 339.92 438.04 339.92 Q 437.79 339.92 437.51 339.96 L 437.51 336.44 L 441.17 336.44 L 441.17 337.28 L 438.35 337.28 L 438.35 339.19 Q 439.74 339.19 440.53 339.83 Q 441.31 340.46 441.31 341.6 Q 441.31 342.65 440.6 343.25 Q 439.89 343.85 438.63 343.85 Q 438.08 343.85 437.39 343.7 M 437.39 343.7"/></g><g style="fill: rgb(0,0,0); fill-opacity: 1.0; stroke: none" transform="matrix(1,0,0,1,0,0)" clip-path="url(#94503182662914clip-0)"><path d="M 455.71 343.67 L 455.71 342.95 L 457.16 342.95 L 457.16 337.24 L 455.71 337.6 L 455.71 336.86 L 458.12 336.26 L 458.12 342.95 L 459.57 342.95 L 459.57 343.67 M 455.71 343.67 M 461.93 339.92 Q 462.62 339.03 463.66 339.03 Q 464.61 339.03 465.21 339.66 Q 465.81 340.28 465.81 341.27 Q 465.81 342.39 465.14 343.12 Q 464.46 343.85 463.42 343.85 Q 462.23 343.85 461.55 342.89 Q 460.88 341.92 460.88 340.22 Q 460.88 338.34 461.65 337.3 Q 462.43 336.26 463.83 336.26 Q 464.48 336.26 465.44 336.53 L 465.44 337.37 Q 464.42 336.98 463.77 336.98 Q 461.93 336.98 461.93 339.92 M 461.93 339.92 M 464.85 341.48 Q 464.85 340.66 464.48 340.19 Q 464.11 339.72 463.46 339.72 Q 462.85 339.72 462.41 340.13 Q 461.97 340.54 461.97 341.12 Q 461.97 342.03 462.38 342.58 Q 462.8 343.13 463.49 343.13 Q 464.11 343.13 464.48 342.68 Q 464.85 342.23 464.85 341.48 M 464.85 341.48"/></g><g style="fill: rgb(0,0,0); fill-opacity: 1.0; stroke: none" transform="matrix(1,0,0,1,0,0)" clip-path="url(#94503182662914clip-0)"><path d="M 479.75 343.67 L 479.75 342.95 L 481.2 342.95 L 481.2 337.24 L 479.75 337.6 L 479.75 336.86 L 482.16 336.26 L 482.16 342.95 L 483.61 342.95 L 483.61 343.67 M 479.75 343.67 M 485.75 343.67 Q 485.89 342.82 486.15 342.21 Q 486.41 341.59 487.08 340.52 L 489.05 337.34 L 485.33 337.34 L 485.33 336.44 L 489.97 336.44 L 489.97 337.34 Q 487.19 341.44 486.86 343.67 M 485.75 343.67"/></g><g style="fill: rgb(0,0,0); fill-opacity: 1.0; stroke: none" transform="matrix(1,0,0,1,0,0)" clip-path="url(#94503182662914clip-0)"><path d="M 503.79 343.67 L 503.79 342.95 L 505.23 342.95 L 505.23 337.24 L 503.79 337.6 L 503.79 336.86 L 506.2 336.26 L 506.2 342.95 L 507.65 342.95 L 507.65 343.67 M 503.79 343.67 M 510.58 339.73 Q 509.52 339 509.52 338.1 Q 509.52 337.28 510.13 336.77 Q 510.73 336.26 511.69 336.26 Q 512.59 336.26 513.14 336.69 Q 513.69 337.12 513.69 337.82 Q 513.69 338.87 512.35 339.73 Q 513.98 340.53 513.98 341.8 Q 513.98 342.71 513.3 343.28 Q 512.61 343.85 511.53 343.85 Q 510.46 343.85 509.81 343.31 Q 509.15 342.77 509.15 341.89 Q 509.15 340.59 510.58 339.73 M 510.58 339.73 M 511.81 339.43 Q 512.82 338.77 512.82 337.95 Q 512.82 337.52 512.48 337.25 Q 512.15 336.98 511.59 336.98 Q 511.06 336.98 510.73 337.24 Q 510.4 337.51 510.4 337.92 Q 510.4 338.33 510.7 338.65 Q 511 338.97 511.81 339.43 M 511.81 339.43 M 511.11 340.12 Q 510.53 340.57 510.32 340.91 Q 510.11 341.24 510.11 341.74 Q 510.11 342.36 510.51 342.74 Q 510.91 343.13 511.57 343.13 Q 512.2 343.13 512.59 342.8 Q 512.99 342.47 512.99 341.95 Q 512.99 341.53 512.74 341.24 Q 512.5 340.95 511.79 340.53 M 511.11 340.12"/></g><g style="fill: rgb(0,0,0); fill-opacity: 1.0; stroke: none" transform="matrix(1,0,0,1,0,0)" clip-path="url(#94503182662914clip-0)"><path d="M 527.83 343.67 L 527.83 342.95 L 529.27 342.95 L 529.27 337.24 L 527.83 337.6 L 527.83 336.86 L 530.24 336.26 L 530.24 342.95 L 531.68 342.95 L 531.68 343.67 M 527.83 343.67 M 533.46 343.62 L 533.46 342.81 Q 534.38 343.13 535.02 343.13 Q 535.92 343.13 536.43 342.36 Q 536.93 341.6 536.93 340.24 Q 536.2 341.14 535.27 341.14 Q 534.35 341.14 533.72 340.47 Q 533.08 339.8 533.08 338.83 Q 533.08 337.72 533.76 336.99 Q 534.44 336.26 535.46 336.26 Q 536.64 336.26 537.32 337.21 Q 538 338.15 538 339.79 Q 538 341.66 537.17 342.75 Q 536.34 343.85 534.93 343.85 Q 534.36 343.85 533.46 343.62 M 533.46 343.62 M 534.05 338.64 Q 534.05 339.48 534.42 339.96 Q 534.79 340.45 535.44 340.45 Q 536.05 340.45 536.48 340.03 Q 536.92 339.62 536.92 339.03 Q 536.92 338.11 536.5 337.54 Q 536.08 336.98 535.4 336.98 Q 534.77 336.98 534.41 337.43 Q 534.05 337.87 534.05 338.64 M 534.05 338.64"/></g><g style="fill: rgb(0,0,0); fill-opacity: 1.0; stroke: none" transform="matrix(1,0,0,1,0,0)" clip-path="url(#94503182662914clip-0)"><path d="M 551.19 343.67 L 551.19 342.82 Q 551.61 341.84 552.89 340.68 L 553.44 340.19 Q 554.51 339.23 554.51 338.28 Q 554.51 337.68 554.14 337.33 Q 553.78 336.98 553.14 336.98 Q 552.39 336.98 551.37 337.56 L 551.37 336.71 Q 552.33 336.26 553.28 336.26 Q 554.3 336.26 554.91 336.81 Q 555.53 337.35 555.53 338.26 Q 555.53 338.91 555.22 339.41 Q 554.91 339.91 554.06 340.63 L 553.69 340.95 Q 552.53 341.93 552.35 342.82 L 555.49 342.82 L 555.49 343.67 M 551.19 343.67 M 559.49 343.85 Q 558.38 343.85 557.69 342.8 Q 556.99 341.74 556.99 340.05 Q 556.99 338.34 557.69 337.3 Q 558.39 336.26 559.52 336.26 Q 560.66 336.26 561.36 337.3 Q 562.05 338.34 562.05 340.04 Q 562.05 341.77 561.36 342.81 Q 560.66 343.85 559.49 343.85 M 559.49 343.85 M 559.5 343.13 Q 561.03 343.13 561.03 340.02 Q 561.03 336.98 559.52 336.98 Q 558.02 336.98 558.02 340.05 Q 558.02 343.13 559.5 343.13 M 559.5 343.13"/></g><g style="fill: rgb(0,0,0); fill-opacity: 1.0; stroke: none" transform="matrix(1,0,0,1,0,0)" clip-path="url(#94503182662914clip-0)"><path d="M 314.68 364.38 L 314.68 356.63 L 311.61 356.63 L 311.61 355.71 L 318.99 355.71 L 318.99 356.63 L 315.91 356.63 L 315.91 364.38 M 314.68 364.38 M 324.63 364.38 L 324.63 363.18 Q 323.71 364.53 322.4 364.53 Q 321.57 364.53 321.08 364 Q 320.58 363.48 320.58 362.59 L 320.58 358.02 L 321.74 358.02 L 321.74 362.21 Q 321.74 362.93 321.95 363.23 Q 322.15 363.53 322.64 363.53 Q 323.7 363.53 324.63 362.14 L 324.63 358.02 L 325.79 358.02 L 325.79 364.38 M 324.63 364.38 M 328.65 366.69 L 328.65 358.02 L 329.81 358.02 L 329.81 359.21 Q 330.52 357.88 331.94 357.88 Q 333.08 357.88 333.74 358.71 Q 334.4 359.55 334.4 361 Q 334.4 362.59 333.66 363.56 Q 332.91 364.53 331.69 364.53 Q 330.56 364.53 329.81 363.66 L 329.81 366.69 M 328.65 366.69 M 329.81 362.86 Q 330.7 363.66 331.51 363.66 Q 333.17 363.66 333.17 361.12 Q 333.17 358.88 331.7 358.88 Q 330.73 358.88 329.81 359.93 M 329.81 362.86 M 341.32 364.17 Q 340.16 364.53 339.33 364.53 Q 337.93 364.53 337.04 363.59 Q 336.15 362.66 336.15 361.17 Q 336.15 359.72 336.93 358.79 Q 337.71 357.87 338.93 357.87 Q 340.09 357.87 340.72 358.69 Q 341.35 359.51 341.35 361.02 L 341.34 361.38 L 337.33 361.38 Q 337.58 363.65 339.55 363.65 Q 340.27 363.65 341.32 363.26 M 341.32 364.17 M 337.38 360.51 L 340.19 360.51 Q 340.19 358.74 338.86 358.74 Q 337.53 358.74 337.38 360.51 M 337.38 360.51 M 343.65 364.38 L 343.65 355.13 L 344.81 355.13 L 344.81 364.38 M 343.65 364.38"/></g><line x1="64" y1="23" x2="64" y2="328" style="stroke-width: 1.0;stroke: rgb(128,128,128);stroke-opacity: 1.0;" transform="matrix(1,0,0,1,0,0)" clip-path="url(#94503182662914clip-0)"/><g style="fill: rgb(0,0,0); fill-opacity: 1.0; stroke: none" transform="matrix(1,0,0,1,0,0)" clip-path="url(#94503182662914clip-0)"><path d="M 34.13 331.96 Q 33.02 331.96 32.33 330.91 Q 31.63 329.86 31.63 328.16 Q 31.63 326.45 32.33 325.41 Q 33.03 324.37 34.16 324.37 Q 35.3 324.37 36 325.41 Q 36.69 326.45 36.69 328.15 Q 36.69 329.88 36 330.92 Q 35.3 331.96 34.13 331.96 M 34.13 331.96 M 34.14 331.24 Q 35.67 331.24 35.67 328.13 Q 35.67 325.09 34.16 325.09 Q 32.66 325.09 32.66 328.16 Q 32.66 331.24 34.14 331.24 M 34.14 331.24 M 37.98 331.78 L 37.98 330.57 L 39.18 330.57 L 39.18 331.78 M 37.98 331.78 M 43.13 331.96 Q 42.02 331.96 41.33 330.91 Q 40.63 329.86 40.63 328.16 Q 40.63 326.45 41.33 325.41 Q 42.03 324.37 43.16 324.37 Q 44.3 324.37 45 325.41 Q 45.69 326.45 45.69 328.15 Q 45.69 329.88 45 330.92 Q 44.3 331.96 43.13 331.96 M 43.13 331.96 M 43.14 331.24 Q 44.67 331.24 44.67 328.13 Q 44.67 325.09 43.16 325.09 Q 41.66 325.09 41.66 328.16 Q 41.66 331.24 43.14 331.24 M 43.14 331.24 M 49.13 331.96 Q 48.02 331.96 47.33 330.91 Q 46.63 329.86 46.63 328.16 Q 46.63 326.45 47.33 325.41 Q 48.03 324.37 49.16 324.37 Q 50.3 324.37 51 325.41 Q 51.69 326.45 51.69 328.15 Q 51.69 329.88 51 330.92 Q 50.3 331.96 49.13 331.96 M 49.13 331.96 M 49.14 331.24 Q 50.67 331.24 50.67 328.13 Q 50.67 325.09 49.16 325.09 Q 47.66 325.09 47.66 328.16 Q 47.66 331.24 49.14 331.24 M 49.14 331.24 M 55.13 331.96 Q 54.02 331.96 53.33 330.91 Q 52.63 329.86 52.63 328.16 Q 52.63 326.45 53.33 325.41 Q 54.03 324.37 55.16 324.37 Q 56.3 324.37 57 325.41 Q 57.69 326.45 57.69 328.15 Q 57.69 329.88 57 330.92 Q 56.3 331.96 55.13 331.96 M 55.13 331.96 M 55.14 331.24 Q 56.67 331.24 56.67 328.13 Q 56.67 325.09 55.16 325.09 Q 53.66 325.09 53.66 328.16 Q 53.66 331.24 55.14 331.24 M 55.14 331.24"/></g><line x1="62" y1="328" x2="64" y2="328" style="stroke-width: 1.0;stroke: rgb(128,128,128);stroke-opacity: 1.0;" transform="matrix(1,0,0,1,0,0)" clip-path="url(#94503182662914clip-0)"/><g style="fill: rgb(0,0,0); fill-opacity: 1.0; stroke: none" transform="matrix(1,0,0,1,0,0)" clip-path="url(#94503182662914clip-0)"><path d="M 34.13 304.09 Q 33.02 304.09 32.33 303.03 Q 31.63 301.98 31.63 300.29 Q 31.63 298.58 32.33 297.54 Q 33.03 296.5 34.16 296.5 Q 35.3 296.5 36 297.54 Q 36.69 298.58 36.69 300.27 Q 36.69 302.01 36 303.05 Q 35.3 304.09 34.13 304.09 M 34.13 304.09 M 34.14 303.36 Q 35.67 303.36 35.67 300.26 Q 35.67 297.22 34.16 297.22 Q 32.66 297.22 32.66 300.29 Q 32.66 303.36 34.14 303.36 M 34.14 303.36 M 37.98 303.9 L 37.98 302.7 L 39.18 302.7 L 39.18 303.9 M 37.98 303.9 M 43.13 304.09 Q 42.02 304.09 41.33 303.03 Q 40.63 301.98 40.63 300.29 Q 40.63 298.58 41.33 297.54 Q 42.03 296.5 43.16 296.5 Q 44.3 296.5 45 297.54 Q 45.69 298.58 45.69 300.27 Q 45.69 302.01 45 303.05 Q 44.3 304.09 43.13 304.09 M 43.13 304.09 M 43.14 303.36 Q 44.67 303.36 44.67 300.26 Q 44.67 297.22 43.16 297.22 Q 41.66 297.22 41.66 300.29 Q 41.66 303.36 43.14 303.36 M 43.14 303.36 M 46.83 303.9 L 46.83 303.06 Q 47.25 302.08 48.53 300.92 L 49.08 300.43 Q 50.15 299.47 50.15 298.52 Q 50.15 297.91 49.78 297.57 Q 49.42 297.22 48.78 297.22 Q 48.03 297.22 47.01 297.8 L 47.01 296.95 Q 47.97 296.5 48.92 296.5 Q 49.94 296.5 50.55 297.04 Q 51.17 297.59 51.17 298.49 Q 51.17 299.14 50.86 299.65 Q 50.55 300.15 49.7 300.87 L 49.33 301.19 Q 48.17 302.17 47.99 303.06 L 51.13 303.06 L 51.13 303.9 M 46.83 303.9 M 53.22 303.93 L 53.22 303.07 Q 53.93 303.36 54.58 303.36 Q 55.3 303.36 55.7 302.94 Q 56.11 302.52 56.11 301.79 Q 56.11 300.16 53.87 300.16 Q 53.62 300.16 53.34 300.19 L 53.34 296.68 L 57 296.68 L 57 297.52 L 54.18 297.52 L 54.18 299.42 Q 55.57 299.42 56.36 300.06 Q 57.14 300.7 57.14 301.83 Q 57.14 302.89 56.43 303.49 Q 55.72 304.09 54.46 304.09 Q 53.91 304.09 53.22 303.93 M 53.22 303.93"/></g><line x1="62" y1="300.13" x2="64" y2="300.13" style="stroke-width: 1.0;stroke: rgb(128,128,128);stroke-opacity: 1.0;" transform="matrix(1,0,0,1,0,0)" clip-path="url(#94503182662914clip-0)"/><g style="fill: rgb(0,0,0); fill-opacity: 1.0; stroke: none" transform="matrix(1,0,0,1,0,0)" clip-path="url(#94503182662914clip-0)"><path d="M 34.13 276.21 Q 33.02 276.21 32.33 275.16 Q 31.63 274.11 31.63 272.41 Q 31.63 270.7 32.33 269.66 Q 33.03 268.62 34.16 268.62 Q 35.3 268.62 36 269.66 Q 36.69 270.7 36.69 272.4 Q 36.69 274.14 36 275.17 Q 35.3 276.21 34.13 276.21 M 34.13 276.21 M 34.14 275.49 Q 35.67 275.49 35.67 272.38 Q 35.67 269.35 34.16 269.35 Q 32.66 269.35 32.66 272.41 Q 32.66 275.49 34.14 275.49 M 34.14 275.49 M 37.98 276.03 L 37.98 274.82 L 39.18 274.82 L 39.18 276.03 M 37.98 276.03 M 43.13 276.21 Q 42.02 276.21 41.33 275.16 Q 40.63 274.11 40.63 272.41 Q 40.63 270.7 41.33 269.66 Q 42.03 268.62 43.16 268.62 Q 44.3 268.62 45 269.66 Q 45.69 270.7 45.69 272.4 Q 45.69 274.14 45 275.17 Q 44.3 276.21 43.13 276.21 M 43.13 276.21 M 43.14 275.49 Q 44.67 275.49 44.67 272.38 Q 44.67 269.35 43.16 269.35 Q 41.66 269.35 41.66 272.41 Q 41.66 275.49 43.14 275.49 M 43.14 275.49 M 47.22 276.06 L 47.22 275.2 Q 47.93 275.49 48.58 275.49 Q 49.3 275.49 49.7 275.07 Q 50.11 274.65 50.11 273.91 Q 50.11 272.29 47.87 272.29 Q 47.62 272.29 47.34 272.32 L 47.34 268.8 L 51 268.8 L 51 269.64 L 48.18 269.64 L 48.18 271.55 Q 49.57 271.55 50.36 272.19 Q 51.14 272.83 51.14 273.96 Q 51.14 275.02 50.43 275.61 Q 49.72 276.21 48.46 276.21 Q 47.91 276.21 47.22 276.06 M 47.22 276.06 M 55.13 276.21 Q 54.02 276.21 53.33 275.16 Q 52.63 274.11 52.63 272.41 Q 52.63 270.7 53.33 269.66 Q 54.03 268.62 55.16 268.62 Q 56.3 268.62 57 269.66 Q 57.69 270.7 57.69 272.4 Q 57.69 274.14 57 275.17 Q 56.3 276.21 55.13 276.21 M 55.13 276.21 M 55.14 275.49 Q 56.67 275.49 56.67 272.38 Q 56.67 269.35 55.16 269.35 Q 53.66 269.35 53.66 272.41 Q 53.66 275.49 55.14 275.49 M 55.14 275.49"/></g><line x1="62" y1="272.25" x2="64" y2="272.25" style="stroke-width: 1.0;stroke: rgb(128,128,128);stroke-opacity: 1.0;" transform="matrix(1,0,0,1,0,0)" clip-path="url(#94503182662914clip-0)"/><g style="fill: rgb(0,0,0); fill-opacity: 1.0; stroke: none" transform="matrix(1,0,0,1,0,0)" clip-path="url(#94503182662914clip-0)"><path d="M 34.13 248.34 Q 33.02 248.34 32.33 247.28 Q 31.63 246.23 31.63 244.54 Q 31.63 242.83 32.33 241.79 Q 33.03 240.75 34.16 240.75 Q 35.3 240.75 36 241.79 Q 36.69 242.83 36.69 244.52 Q 36.69 246.26 36 247.3 Q 35.3 248.34 34.13 248.34 M 34.13 248.34 M 34.14 247.61 Q 35.67 247.61 35.67 244.51 Q 35.67 241.47 34.16 241.47 Q 32.66 241.47 32.66 244.54 Q 32.66 247.61 34.14 247.61 M 34.14 247.61 M 37.98 248.16 L 37.98 246.95 L 39.18 246.95 L 39.18 248.16 M 37.98 248.16 M 43.13 248.34 Q 42.02 248.34 41.33 247.28 Q 40.63 246.23 40.63 244.54 Q 40.63 242.83 41.33 241.79 Q 42.03 240.75 43.16 240.75 Q 44.3 240.75 45 241.79 Q 45.69 242.83 45.69 244.52 Q 45.69 246.26 45 247.3 Q 44.3 248.34 43.13 248.34 M 43.13 248.34 M 43.14 247.61 Q 44.67 247.61 44.67 244.51 Q 44.67 241.47 43.16 241.47 Q 41.66 241.47 41.66 244.54 Q 41.66 247.61 43.14 247.61 M 43.14 247.61 M 47.5 248.16 Q 47.65 247.31 47.91 246.7 Q 48.17 246.08 48.83 245.01 L 50.8 241.83 L 47.08 241.83 L 47.08 240.93 L 51.72 240.93 L 51.72 241.83 Q 48.94 245.93 48.61 248.16 M 47.5 248.16 M 53.22 248.19 L 53.22 247.33 Q 53.93 247.61 54.58 247.61 Q 55.3 247.61 55.7 247.19 Q 56.11 246.77 56.11 246.04 Q 56.11 244.41 53.87 244.41 Q 53.62 244.41 53.34 244.45 L 53.34 240.93 L 57 240.93 L 57 241.77 L 54.18 241.77 L 54.18 243.67 Q 55.57 243.67 56.36 244.31 Q 57.14 244.95 57.14 246.09 Q 57.14 247.14 56.43 247.74 Q 55.72 248.34 54.46 248.34 Q 53.91 248.34 53.22 248.19 M 53.22 248.19"/></g><line x1="62" y1="244.38" x2="64" y2="244.38" style="stroke-width: 1.0;stroke: rgb(128,128,128);stroke-opacity: 1.0;" transform="matrix(1,0,0,1,0,0)" clip-path="url(#94503182662914clip-0)"/><g style="fill: rgb(0,0,0); fill-opacity: 1.0; stroke: none" transform="matrix(1,0,0,1,0,0)" clip-path="url(#94503182662914clip-0)"><path d="M 34.13 220.46 Q 33.02 220.46 32.33 219.41 Q 31.63 218.36 31.63 216.66 Q 31.63 214.95 32.33 213.91 Q 33.03 212.87 34.16 212.87 Q 35.3 212.87 36 213.91 Q 36.69 214.95 36.69 216.65 Q 36.69 218.39 36 219.43 Q 35.3 220.46 34.13 220.46 M 34.13 220.46 M 34.14 219.74 Q 35.67 219.74 35.67 216.63 Q 35.67 213.6 34.16 213.6 Q 32.66 213.6 32.66 216.66 Q 32.66 219.74 34.14 219.74 M 34.14 219.74 M 37.98 220.28 L 37.98 219.08 L 39.18 219.08 L 39.18 220.28 M 37.98 220.28 M 41.5 220.28 L 41.5 219.56 L 42.95 219.56 L 42.95 213.86 L 41.5 214.22 L 41.5 213.48 L 43.92 212.87 L 43.92 219.56 L 45.36 219.56 L 45.36 220.28 M 41.5 220.28 M 49.13 220.46 Q 48.02 220.46 47.33 219.41 Q 46.63 218.36 46.63 216.66 Q 46.63 214.95 47.33 213.91 Q 48.03 212.87 49.16 212.87 Q 50.3 212.87 51 213.91 Q 51.69 214.95 51.69 216.65 Q 51.69 218.39 51 219.43 Q 50.3 220.46 49.13 220.46 M 49.13 220.46 M 49.14 219.74 Q 50.67 219.74 50.67 216.63 Q 50.67 213.6 49.16 213.6 Q 47.66 213.6 47.66 216.66 Q 47.66 219.74 49.14 219.74 M 49.14 219.74 M 55.13 220.46 Q 54.02 220.46 53.33 219.41 Q 52.63 218.36 52.63 216.66 Q 52.63 214.95 53.33 213.91 Q 54.03 212.87 55.16 212.87 Q 56.3 212.87 57 213.91 Q 57.69 214.95 57.69 216.65 Q 57.69 218.39 57 219.43 Q 56.3 220.46 55.13 220.46 M 55.13 220.46 M 55.14 219.74 Q 56.67 219.74 56.67 216.63 Q 56.67 213.6 55.16 213.6 Q 53.66 213.6 53.66 216.66 Q 53.66 219.74 55.14 219.74 M 55.14 219.74"/></g><line x1="62" y1="216.5" x2="64" y2="216.5" style="stroke-width: 1.0;stroke: rgb(128,128,128);stroke-opacity: 1.0;" transform="matrix(1,0,0,1,0,0)" clip-path="url(#94503182662914clip-0)"/><g style="fill: rgb(0,0,0); fill-opacity: 1.0; stroke: none" transform="matrix(1,0,0,1,0,0)" clip-path="url(#94503182662914clip-0)"><path d="M 34.13 192.59 Q 33.02 192.59 32.33 191.54 Q 31.63 190.48 31.63 188.79 Q 31.63 187.08 32.33 186.04 Q 33.03 185 34.16 185 Q 35.3 185 36 186.04 Q 36.69 187.08 36.69 188.77 Q 36.69 190.51 36 191.55 Q 35.3 192.59 34.13 192.59 M 34.13 192.59 M 34.14 191.87 Q 35.67 191.87 35.67 188.76 Q 35.67 185.72 34.16 185.72 Q 32.66 185.72 32.66 188.79 Q 32.66 191.87 34.14 191.87 M 34.14 191.87 M 37.98 192.41 L 37.98 191.2 L 39.18 191.2 L 39.18 192.41 M 37.98 192.41 M 41.5 192.41 L 41.5 191.69 L 42.95 191.69 L 42.95 185.98 L 41.5 186.34 L 41.5 185.6 L 43.92 185 L 43.92 191.69 L 45.36 191.69 L 45.36 192.41 M 41.5 192.41 M 46.83 192.41 L 46.83 191.56 Q 47.25 190.58 48.53 189.42 L 49.08 188.93 Q 50.15 187.97 50.15 187.02 Q 50.15 186.42 49.78 186.07 Q 49.42 185.72 48.78 185.72 Q 48.03 185.72 47.01 186.3 L 47.01 185.45 Q 47.97 185 48.92 185 Q 49.94 185 50.55 185.55 Q 51.17 186.09 51.17 187 Q 51.17 187.65 50.86 188.15 Q 50.55 188.65 49.7 189.37 L 49.33 189.69 Q 48.17 190.67 47.99 191.56 L 51.13 191.56 L 51.13 192.41 M 46.83 192.41 M 53.22 192.44 L 53.22 191.58 Q 53.93 191.87 54.58 191.87 Q 55.3 191.87 55.7 191.45 Q 56.11 191.03 56.11 190.29 Q 56.11 188.66 53.87 188.66 Q 53.62 188.66 53.34 188.7 L 53.34 185.18 L 57 185.18 L 57 186.02 L 54.18 186.02 L 54.18 187.93 Q 55.57 187.93 56.36 188.57 Q 57.14 189.2 57.14 190.34 Q 57.14 191.39 56.43 191.99 Q 55.72 192.59 54.46 192.59 Q 53.91 192.59 53.22 192.44 M 53.22 192.44"/></g><line x1="62" y1="188.63" x2="64" y2="188.63" style="stroke-width: 1.0;stroke: rgb(128,128,128);stroke-opacity: 1.0;" transform="matrix(1,0,0,1,0,0)" clip-path="url(#94503182662914clip-0)"/><g style="fill: rgb(0,0,0); fill-opacity: 1.0; stroke: none" transform="matrix(1,0,0,1,0,0)" clip-path="url(#94503182662914clip-0)"><path d="M 34.13 164.71 Q 33.02 164.71 32.33 163.66 Q 31.63 162.61 31.63 160.92 Q 31.63 159.21 32.33 158.17 Q 33.03 157.13 34.16 157.13 Q 35.3 157.13 36 158.17 Q 36.69 159.21 36.69 160.9 Q 36.69 162.64 36 163.68 Q 35.3 164.71 34.13 164.71 M 34.13 164.71 M 34.14 163.99 Q 35.67 163.99 35.67 160.89 Q 35.67 157.85 34.16 157.85 Q 32.66 157.85 32.66 160.92 Q 32.66 163.99 34.14 163.99 M 34.14 163.99 M 37.98 164.53 L 37.98 163.33 L 39.18 163.33 L 39.18 164.53 M 37.98 164.53 M 41.5 164.53 L 41.5 163.81 L 42.95 163.81 L 42.95 158.11 L 41.5 158.47 L 41.5 157.73 L 43.92 157.13 L 43.92 163.81 L 45.36 163.81 L 45.36 164.53 M 41.5 164.53 M 47.22 164.56 L 47.22 163.7 Q 47.93 163.99 48.58 163.99 Q 49.3 163.99 49.7 163.57 Q 50.11 163.15 50.11 162.41 Q 50.11 160.79 47.87 160.79 Q 47.62 160.79 47.34 160.82 L 47.34 157.31 L 51 157.31 L 51 158.15 L 48.18 158.15 L 48.18 160.05 Q 49.57 160.05 50.36 160.69 Q 51.14 161.33 51.14 162.46 Q 51.14 163.52 50.43 164.12 Q 49.72 164.71 48.46 164.71 Q 47.91 164.71 47.22 164.56 M 47.22 164.56 M 55.13 164.71 Q 54.02 164.71 53.33 163.66 Q 52.63 162.61 52.63 160.92 Q 52.63 159.21 53.33 158.17 Q 54.03 157.13 55.16 157.13 Q 56.3 157.13 57 158.17 Q 57.69 159.21 57.69 160.9 Q 57.69 162.64 57 163.68 Q 56.3 164.71 55.13 164.71 M 55.13 164.71 M 55.14 163.99 Q 56.67 163.99 56.67 160.89 Q 56.67 157.85 55.16 157.85 Q 53.66 157.85 53.66 160.92 Q 53.66 163.99 55.14 163.99 M 55.14 163.99"/></g><line x1="62" y1="160.75" x2="64" y2="160.75" style="stroke-width: 1.0;stroke: rgb(128,128,128);stroke-opacity: 1.0;" transform="matrix(1,0,0,1,0,0)" clip-path="url(#94503182662914clip-0)"/><g style="fill: rgb(0,0,0); fill-opacity: 1.0; stroke: none" transform="matrix(1,0,0,1,0,0)" clip-path="url(#94503182662914clip-0)"><path d="M 34.13 136.84 Q 33.02 136.84 32.33 135.79 Q 31.63 134.74 31.63 133.04 Q 31.63 131.33 32.33 130.29 Q 33.03 129.25 34.16 129.25 Q 35.3 129.25 36 130.29 Q 36.69 131.33 36.69 133.03 Q 36.69 134.76 36 135.8 Q 35.3 136.84 34.13 136.84 M 34.13 136.84 M 34.14 136.12 Q 35.67 136.12 35.67 133.01 Q 35.67 129.97 34.16 129.97 Q 32.66 129.97 32.66 133.04 Q 32.66 136.12 34.14 136.12 M 34.14 136.12 M 37.98 136.66 L 37.98 135.45 L 39.18 135.45 L 39.18 136.66 M 37.98 136.66 M 41.5 136.66 L 41.5 135.94 L 42.95 135.94 L 42.95 130.23 L 41.5 130.59 L 41.5 129.85 L 43.92 129.25 L 43.92 135.94 L 45.36 135.94 L 45.36 136.66 M 41.5 136.66 M 47.5 136.66 Q 47.65 135.81 47.91 135.2 Q 48.17 134.58 48.83 133.51 L 50.8 130.34 L 47.08 130.34 L 47.08 129.43 L 51.72 129.43 L 51.72 130.34 Q 48.94 134.43 48.61 136.66 M 47.5 136.66 M 53.22 136.69 L 53.22 135.83 Q 53.93 136.12 54.58 136.12 Q 55.3 136.12 55.7 135.7 Q 56.11 135.28 56.11 134.54 Q 56.11 132.91 53.87 132.91 Q 53.62 132.91 53.34 132.95 L 53.34 129.43 L 57 129.43 L 57 130.27 L 54.18 130.27 L 54.18 132.18 Q 55.57 132.18 56.36 132.82 Q 57.14 133.46 57.14 134.59 Q 57.14 135.64 56.43 136.24 Q 55.72 136.84 54.46 136.84 Q 53.91 136.84 53.22 136.69 M 53.22 136.69"/></g><line x1="62" y1="132.88" x2="64" y2="132.88" style="stroke-width: 1.0;stroke: rgb(128,128,128);stroke-opacity: 1.0;" transform="matrix(1,0,0,1,0,0)" clip-path="url(#94503182662914clip-0)"/><g style="fill: rgb(0,0,0); fill-opacity: 1.0; stroke: none" transform="matrix(1,0,0,1,0,0)" clip-path="url(#94503182662914clip-0)"><path d="M 34.13 108.97 Q 33.02 108.97 32.33 107.91 Q 31.63 106.86 31.63 105.17 Q 31.63 103.46 32.33 102.42 Q 33.03 101.38 34.16 101.38 Q 35.3 101.38 36 102.42 Q 36.69 103.46 36.69 105.15 Q 36.69 106.89 36 107.93 Q 35.3 108.97 34.13 108.97 M 34.13 108.97 M 34.14 108.24 Q 35.67 108.24 35.67 105.14 Q 35.67 102.1 34.16 102.1 Q 32.66 102.1 32.66 105.17 Q 32.66 108.24 34.14 108.24 M 34.14 108.24 M 37.98 108.78 L 37.98 107.58 L 39.18 107.58 L 39.18 108.78 M 37.98 108.78 M 40.83 108.78 L 40.83 107.94 Q 41.25 106.96 42.53 105.8 L 43.08 105.31 Q 44.15 104.35 44.15 103.4 Q 44.15 102.79 43.78 102.45 Q 43.42 102.1 42.78 102.1 Q 42.03 102.1 41.01 102.68 L 41.01 101.83 Q 41.97 101.38 42.92 101.38 Q 43.94 101.38 44.55 101.92 Q 45.17 102.47 45.17 103.37 Q 45.17 104.02 44.86 104.53 Q 44.55 105.03 43.7 105.75 L 43.33 106.07 Q 42.17 107.05 41.99 107.94 L 45.13 107.94 L 45.13 108.78 M 40.83 108.78 M 49.13 108.97 Q 48.02 108.97 47.33 107.91 Q 46.63 106.86 46.63 105.17 Q 46.63 103.46 47.33 102.42 Q 48.03 101.38 49.16 101.38 Q 50.3 101.38 51 102.42 Q 51.69 103.46 51.69 105.15 Q 51.69 106.89 51 107.93 Q 50.3 108.97 49.13 108.97 M 49.13 108.97 M 49.14 108.24 Q 50.67 108.24 50.67 105.14 Q 50.67 102.1 49.16 102.1 Q 47.66 102.1 47.66 105.17 Q 47.66 108.24 49.14 108.24 M 49.14 108.24 M 55.13 108.97 Q 54.02 108.97 53.33 107.91 Q 52.63 106.86 52.63 105.17 Q 52.63 103.46 53.33 102.42 Q 54.03 101.38 55.16 101.38 Q 56.3 101.38 57 102.42 Q 57.69 103.46 57.69 105.15 Q 57.69 106.89 57 107.93 Q 56.3 108.97 55.13 108.97 M 55.13 108.97 M 55.14 108.24 Q 56.67 108.24 56.67 105.14 Q 56.67 102.1 55.16 102.1 Q 53.66 102.1 53.66 105.17 Q 53.66 108.24 55.14 108.24 M 55.14 108.24"/></g><line x1="62" y1="105.01" x2="64" y2="105.01" style="stroke-width: 1.0;stroke: rgb(128,128,128);stroke-opacity: 1.0;" transform="matrix(1,0,0,1,0,0)" clip-path="url(#94503182662914clip-0)"/><g style="fill: rgb(0,0,0); fill-opacity: 1.0; stroke: none" transform="matrix(1,0,0,1,0,0)" clip-path="url(#94503182662914clip-0)"><path d="M 34.13 81.09 Q 33.02 81.09 32.33 80.04 Q 31.63 78.99 31.63 77.29 Q 31.63 75.58 32.33 74.54 Q 33.03 73.5 34.16 73.5 Q 35.3 73.5 36 74.54 Q 36.69 75.58 36.69 77.28 Q 36.69 79.02 36 80.05 Q 35.3 81.09 34.13 81.09 M 34.13 81.09 M 34.14 80.37 Q 35.67 80.37 35.67 77.26 Q 35.67 74.23 34.16 74.23 Q 32.66 74.23 32.66 77.29 Q 32.66 80.37 34.14 80.37 M 34.14 80.37 M 37.98 80.91 L 37.98 79.7 L 39.18 79.7 L 39.18 80.91 M 37.98 80.91 M 40.83 80.91 L 40.83 80.07 Q 41.25 79.08 42.53 77.93 L 43.08 77.43 Q 44.15 76.47 44.15 75.52 Q 44.15 74.92 43.78 74.57 Q 43.42 74.23 42.78 74.23 Q 42.03 74.23 41.01 74.81 L 41.01 73.96 Q 41.97 73.5 42.92 73.5 Q 43.94 73.5 44.55 74.05 Q 45.17 74.6 45.17 75.5 Q 45.17 76.15 44.86 76.65 Q 44.55 77.16 43.7 77.87 L 43.33 78.19 Q 42.17 79.17 41.99 80.07 L 45.13 80.07 L 45.13 80.91 M 40.83 80.91 M 46.83 80.91 L 46.83 80.07 Q 47.25 79.08 48.53 77.93 L 49.08 77.43 Q 50.15 76.47 50.15 75.52 Q 50.15 74.92 49.78 74.57 Q 49.42 74.23 48.78 74.23 Q 48.03 74.23 47.01 74.81 L 47.01 73.96 Q 47.97 73.5 48.92 73.5 Q 49.94 73.5 50.55 74.05 Q 51.17 74.6 51.17 75.5 Q 51.17 76.15 50.86 76.65 Q 50.55 77.16 49.7 77.87 L 49.33 78.19 Q 48.17 79.17 47.99 80.07 L 51.13 80.07 L 51.13 80.91 M 46.83 80.91 M 53.22 80.94 L 53.22 80.08 Q 53.93 80.37 54.58 80.37 Q 55.3 80.37 55.7 79.95 Q 56.11 79.53 56.11 78.79 Q 56.11 77.17 53.87 77.17 Q 53.62 77.17 53.34 77.2 L 53.34 73.68 L 57 73.68 L 57 74.52 L 54.18 74.52 L 54.18 76.43 Q 55.57 76.43 56.36 77.07 Q 57.14 77.71 57.14 78.84 Q 57.14 79.89 56.43 80.49 Q 55.72 81.09 54.46 81.09 Q 53.91 81.09 53.22 80.94 M 53.22 80.94"/></g><line x1="62" y1="77.13" x2="64" y2="77.13" style="stroke-width: 1.0;stroke: rgb(128,128,128);stroke-opacity: 1.0;" transform="matrix(1,0,0,1,0,0)" clip-path="url(#94503182662914clip-0)"/><g style="fill: rgb(0,0,0); fill-opacity: 1.0; stroke: none" transform="matrix(1,0,0,1,0,0)" clip-path="url(#94503182662914clip-0)"><path d="M 34.13 53.22 Q 33.02 53.22 32.33 52.16 Q 31.63 51.11 31.63 49.42 Q 31.63 47.71 32.33 46.67 Q 33.03 45.63 34.16 45.63 Q 35.3 45.63 36 46.67 Q 36.69 47.71 36.69 49.4 Q 36.69 51.14 36 52.18 Q 35.3 53.22 34.13 53.22 M 34.13 53.22 M 34.14 52.49 Q 35.67 52.49 35.67 49.39 Q 35.67 46.35 34.16 46.35 Q 32.66 46.35 32.66 49.42 Q 32.66 52.49 34.14 52.49 M 34.14 52.49 M 37.98 53.04 L 37.98 51.83 L 39.18 51.83 L 39.18 53.04 M 37.98 53.04 M 40.83 53.04 L 40.83 52.19 Q 41.25 51.21 42.53 50.05 L 43.08 49.56 Q 44.15 48.6 44.15 47.65 Q 44.15 47.05 43.78 46.7 Q 43.42 46.35 42.78 46.35 Q 42.03 46.35 41.01 46.93 L 41.01 46.08 Q 41.97 45.63 42.92 45.63 Q 43.94 45.63 44.55 46.18 Q 45.17 46.72 45.17 47.63 Q 45.17 48.28 44.86 48.78 Q 44.55 49.28 43.7 50 L 43.33 50.32 Q 42.17 51.3 41.99 52.19 L 45.13 52.19 L 45.13 53.04 M 40.83 53.04 M 47.22 53.07 L 47.22 52.21 Q 47.93 52.49 48.58 52.49 Q 49.3 52.49 49.7 52.07 Q 50.11 51.65 50.11 50.92 Q 50.11 49.29 47.87 49.29 Q 47.62 49.29 47.34 49.33 L 47.34 45.81 L 51 45.81 L 51 46.65 L 48.18 46.65 L 48.18 48.55 Q 49.57 48.55 50.36 49.19 Q 51.14 49.83 51.14 50.97 Q 51.14 52.02 50.43 52.62 Q 49.72 53.22 48.46 53.22 Q 47.91 53.22 47.22 53.07 M 47.22 53.07 M 55.13 53.22 Q 54.02 53.22 53.33 52.16 Q 52.63 51.11 52.63 49.42 Q 52.63 47.71 53.33 46.67 Q 54.03 45.63 55.16 45.63 Q 56.3 45.63 57 46.67 Q 57.69 47.71 57.69 49.4 Q 57.69 51.14 57 52.18 Q 56.3 53.22 55.13 53.22 M 55.13 53.22 M 55.14 52.49 Q 56.67 52.49 56.67 49.39 Q 56.67 46.35 55.16 46.35 Q 53.66 46.35 53.66 49.42 Q 53.66 52.49 55.14 52.49 M 55.14 52.49"/></g><line x1="62" y1="49.26" x2="64" y2="49.26" style="stroke-width: 1.0;stroke: rgb(128,128,128);stroke-opacity: 1.0;" transform="matrix(1,0,0,1,0,0)" clip-path="url(#94503182662914clip-0)"/><g style="fill: rgb(0,0,0); fill-opacity: 1.0; stroke: none" transform="matrix(0,-1,1,0,-156.566406,194.433594)" clip-path="url(#94503182662914clip-1)"><path d="M 6.42 180.04 L 3.14 171.36 L 4.38 171.36 L 7.06 178.46 L 9.65 171.36 L 10.73 171.36 L 7.58 180.04 M 6.42 180.04 M 15.37 179.23 Q 14.33 180.18 13.37 180.18 Q 12.58 180.18 12.06 179.69 Q 11.54 179.19 11.54 178.44 Q 11.54 177.39 12.41 176.83 Q 13.29 176.27 14.92 176.27 L 15.2 176.27 L 15.2 175.51 Q 15.2 174.4 14.06 174.4 Q 13.15 174.4 12.09 174.96 L 12.09 174.01 Q 13.25 173.53 14.27 173.53 Q 15.34 173.53 15.85 174.01 Q 16.35 174.49 16.35 175.51 L 16.35 178.39 Q 16.35 179.38 16.96 179.38 Q 17.04 179.38 17.19 179.36 L 17.27 179.99 Q 16.88 180.18 16.4 180.18 Q 15.59 180.18 15.37 179.23 M 15.37 179.23 M 15.2 178.6 L 15.2 176.95 L 14.81 176.94 Q 13.86 176.94 13.28 177.3 Q 12.69 177.66 12.69 178.25 Q 12.69 178.66 12.98 178.95 Q 13.28 179.24 13.7 179.24 Q 14.42 179.24 15.2 178.6 M 15.2 178.6 M 19.09 180.04 L 19.09 170.78 L 20.24 170.78 L 20.24 180.04 M 19.09 180.04 M 27.07 180.04 L 27.07 178.84 Q 26.15 180.18 24.83 180.18 Q 24 180.18 23.51 179.66 Q 23.02 179.13 23.02 178.24 L 23.02 173.67 L 24.17 173.67 L 24.17 177.87 Q 24.17 178.58 24.38 178.88 Q 24.59 179.19 25.07 179.19 Q 26.13 179.19 27.07 177.8 L 27.07 173.67 L 28.22 173.67 L 28.22 180.04 M 27.07 180.04 M 35.75 179.83 Q 34.59 180.18 33.77 180.18 Q 32.36 180.18 31.47 179.25 Q 30.58 178.31 30.58 176.82 Q 30.58 175.38 31.37 174.45 Q 32.15 173.53 33.37 173.53 Q 34.52 173.53 35.15 174.35 Q 35.78 175.17 35.78 176.68 L 35.78 177.04 L 31.76 177.04 Q 32.01 179.3 33.98 179.3 Q 34.7 179.3 35.75 178.92 M 35.75 179.83 M 31.81 176.17 L 34.62 176.17 Q 34.62 174.39 33.3 174.39 Q 31.97 174.39 31.81 176.17 M 31.81 176.17"/></g><line x1="64" y1="328" x2="592" y2="328" style="stroke-width: 0.5;stroke: rgb(192,192,192);stroke-opacity: 1.0;stroke-dasharray: 2.0, 2.0;" transform="matrix(1,0,0,1,0,0)" clip-path="url(#94503182662914clip-2)"/><line x1="64" y1="300.13" x2="592" y2="300.13" style="stroke-width: 0.5;stroke: rgb(192,192,192);stroke-opacity: 1.0;stroke-dasharray: 2.0, 2.0;" transform="matrix(1,0,0,1,0,0)" clip-path="url(#94503182662914clip-2)"/><line x1="64" y1="272.25" x2="592" y2="272.25" style="stroke-width: 0.5;stroke: rgb(192,192,192);stroke-opacity: 1.0;stroke-dasharray: 2.0, 2.0;" transform="matrix(1,0,0,1,0,0)" clip-path="url(#94503182662914clip-2)"/><line x1="64" y1="244.38" x2="592" y2="244.38" style="stroke-width: 0.5;stroke: rgb(192,192,192);stroke-opacity: 1.0;stroke-dasharray: 2.0, 2.0;" transform="matrix(1,0,0,1,0,0)" clip-path="url(#94503182662914clip-2)"/><line x1="64" y1="216.5" x2="592" y2="216.5" style="stroke-width: 0.5;stroke: rgb(192,192,192);stroke-opacity: 1.0;stroke-dasharray: 2.0, 2.0;" transform="matrix(1,0,0,1,0,0)" clip-path="url(#94503182662914clip-2)"/><line x1="64" y1="188.63" x2="592" y2="188.63" style="stroke-width: 0.5;stroke: rgb(192,192,192);stroke-opacity: 1.0;stroke-dasharray: 2.0, 2.0;" transform="matrix(1,0,0,1,0,0)" clip-path="url(#94503182662914clip-2)"/><line x1="64" y1="160.75" x2="592" y2="160.75" style="stroke-width: 0.5;stroke: rgb(192,192,192);stroke-opacity: 1.0;stroke-dasharray: 2.0, 2.0;" transform="matrix(1,0,0,1,0,0)" clip-path="url(#94503182662914clip-2)"/><line x1="64" y1="132.88" x2="592" y2="132.88" style="stroke-width: 0.5;stroke: rgb(192,192,192);stroke-opacity: 1.0;stroke-dasharray: 2.0, 2.0;" transform="matrix(1,0,0,1,0,0)" clip-path="url(#94503182662914clip-2)"/><line x1="64" y1="105.01" x2="592" y2="105.01" style="stroke-width: 0.5;stroke: rgb(192,192,192);stroke-opacity: 1.0;stroke-dasharray: 2.0, 2.0;" transform="matrix(1,0,0,1,0,0)" clip-path="url(#94503182662914clip-2)"/><line x1="64" y1="77.13" x2="592" y2="77.13" style="stroke-width: 0.5;stroke: rgb(192,192,192);stroke-opacity: 1.0;stroke-dasharray: 2.0, 2.0;" transform="matrix(1,0,0,1,0,0)" clip-path="url(#94503182662914clip-2)"/><line x1="64" y1="49.26" x2="592" y2="49.26" style="stroke-width: 0.5;stroke: rgb(192,192,192);stroke-opacity: 1.0;stroke-dasharray: 2.0, 2.0;" transform="matrix(1,0,0,1,0,0)" clip-path="url(#94503182662914clip-2)"/><line x1="99.64" y1="73.35" x2="99.64" y2="73.35" style="stroke-width: 1.0;stroke: rgb(0,0,0);stroke-opacity: 1.0;" transform="matrix(1,0,0,1,0,0)" clip-path="url(#94503182662914clip-2)"/><line x1="90.4" y1="73.35" x2="108.88" y2="73.35" style="stroke-width: 1.0;stroke: rgb(0,0,0);stroke-opacity: 1.0;" transform="matrix(1,0,0,1,0,0)" clip-path="url(#94503182662914clip-2)"/><line x1="99.64" y1="73.35" x2="99.64" y2="73.35" style="stroke-width: 1.0;stroke: rgb(0,0,0);stroke-opacity: 1.0;" transform="matrix(1,0,0,1,0,0)" clip-path="url(#94503182662914clip-2)"/><line x1="90.4" y1="73.35" x2="108.88" y2="73.35" style="stroke-width: 1.0;stroke: rgb(0,0,0);stroke-opacity: 1.0;" transform="matrix(1,0,0,1,0,0)" clip-path="url(#94503182662914clip-2)"/><rect x="90.4" y="73.35" width="18.48" height="0" style="stroke-width: 1.0;stroke: rgb(0,0,0);stroke-opacity: 1.0;; fill: none" transform="matrix(1,0,0,1,0,0)" clip-path="url(#94503182662914clip-2)"/><line x1="90.4" y1="73.35" x2="108.88" y2="73.35" style="stroke-width: 1.0;stroke: rgb(0,0,0);stroke-opacity: 1.0;" transform="matrix(1,0,0,1,0,0)" clip-path="url(#94503182662914clip-2)"/><rect x="114.44" y="73.24" width="18.48" height="0.21" style="fill: rgb(192,192,192); fill-opacity: 1.0" transform="matrix(1,0,0,1,0,0)" clip-path="url(#94503182662914clip-2)"/><line x1="123.68" y1="73.14" x2="123.68" y2="73.24" style="stroke-width: 1.0;stroke: rgb(0,0,0);stroke-opacity: 1.0;" transform="matrix(1,0,0,1,0,0)" clip-path="url(#94503182662914clip-2)"/><line x1="114.44" y1="73.14" x2="132.92" y2="73.14" style="stroke-width: 1.0;stroke: rgb(0,0,0);stroke-opacity: 1.0;" transform="matrix(1,0,0,1,0,0)" clip-path="url(#94503182662914clip-2)"/><line x1="123.68" y1="73.56" x2="123.68" y2="73.45" style="stroke-width: 1.0;stroke: rgb(0,0,0);stroke-opacity: 1.0;" transform="matrix(1,0,0,1,0,0)" clip-path="url(#94503182662914clip-2)"/><line x1="114.44" y1="73.56" x2="132.92" y2="73.56" style="stroke-width: 1.0;stroke: rgb(0,0,0);stroke-opacity: 1.0;" transform="matrix(1,0,0,1,0,0)" clip-path="url(#94503182662914clip-2)"/><rect x="114.44" y="73.24" width="18.48" height="0.21" style="stroke-width: 1.0;stroke: rgb(0,0,0);stroke-opacity: 1.0;; fill: none" transform="matrix(1,0,0,1,0,0)" clip-path="url(#94503182662914clip-2)"/><line x1="114.44" y1="73.35" x2="132.92" y2="73.35" style="stroke-width: 1.0;stroke: rgb(0,0,0);stroke-opacity: 1.0;" transform="matrix(1,0,0,1,0,0)" clip-path="url(#94503182662914clip-2)"/><rect x="138.48" y="73.14" width="18.48" height="8.45" style="fill: rgb(192,192,192); fill-opacity: 1.0" transform="matrix(1,0,0,1,0,0)" clip-path="url(#94503182662914clip-2)"/><line x1="147.72" y1="73.14" x2="147.72" y2="73.14" style="stroke-width: 1.0;stroke: rgb(0,0,0);stroke-opacity: 1.0;" transform="matrix(1,0,0,1,0,0)" clip-path="url(#94503182662914clip-2)"/><line x1="138.48" y1="73.14" x2="156.96" y2="73.14" style="stroke-width: 1.0;stroke: rgb(0,0,0);stroke-opacity: 1.0;" transform="matrix(1,0,0,1,0,0)" clip-path="url(#94503182662914clip-2)"/><line x1="147.72" y1="90.47" x2="147.72" y2="81.59" style="stroke-width: 1.0;stroke: rgb(0,0,0);stroke-opacity: 1.0;" transform="matrix(1,0,0,1,0,0)" clip-path="url(#94503182662914clip-2)"/><line x1="138.48" y1="90.47" x2="156.96" y2="90.47" style="stroke-width: 1.0;stroke: rgb(0,0,0);stroke-opacity: 1.0;" transform="matrix(1,0,0,1,0,0)" clip-path="url(#94503182662914clip-2)"/><rect x="138.48" y="73.14" width="18.48" height="8.45" style="stroke-width: 1.0;stroke: rgb(0,0,0);stroke-opacity: 1.0;; fill: none" transform="matrix(1,0,0,1,0,0)" clip-path="url(#94503182662914clip-2)"/><line x1="138.48" y1="73.45" x2="156.96" y2="73.45" style="stroke-width: 1.0;stroke: rgb(0,0,0);stroke-opacity: 1.0;" transform="matrix(1,0,0,1,0,0)" clip-path="url(#94503182662914clip-2)"/><line x1="147.72" y1="23" x2="147.72" y2="23" style="stroke-width: 1.0;stroke: rgb(192,192,192);stroke-opacity: 1.0;" transform="matrix(1,0,0,1,0,0)" clip-path="url(#94503182662914clip-2)"/><line x1="147.72" y1="23" x2="147.72" y2="23" style="stroke-width: 1.0;stroke: rgb(192,192,192);stroke-opacity: 1.0;" transform="matrix(1,0,0,1,0,0)" clip-path="url(#94503182662914clip-2)"/><line x1="147.72" y1="23" x2="147.72" y2="23" style="stroke-width: 1.0;stroke: rgb(192,192,192);stroke-opacity: 1.0;" transform="matrix(1,0,0,1,0,0)" clip-path="url(#94503182662914clip-2)"/><rect x="162.51" y="70.18" width="18.48" height="11.41" style="fill: rgb(192,192,192); fill-opacity: 1.0" transform="matrix(1,0,0,1,0,0)" clip-path="url(#94503182662914clip-2)"/><line x1="171.75" y1="62.29" x2="171.75" y2="70.18" style="stroke-width: 1.0;stroke: rgb(0,0,0);stroke-opacity: 1.0;" transform="matrix(1,0,0,1,0,0)" clip-path="url(#94503182662914clip-2)"/><line x1="162.51" y1="62.29" x2="180.99" y2="62.29" style="stroke-width: 1.0;stroke: rgb(0,0,0);stroke-opacity: 1.0;" transform="matrix(1,0,0,1,0,0)" clip-path="url(#94503182662914clip-2)"/><line x1="171.75" y1="90.47" x2="171.75" y2="81.59" style="stroke-width: 1.0;stroke: rgb(0,0,0);stroke-opacity: 1.0;" transform="matrix(1,0,0,1,0,0)" clip-path="url(#94503182662914clip-2)"/><line x1="162.51" y1="90.47" x2="180.99" y2="90.47" style="stroke-width: 1.0;stroke: rgb(0,0,0);stroke-opacity: 1.0;" transform="matrix(1,0,0,1,0,0)" clip-path="url(#94503182662914clip-2)"/><rect x="162.51" y="70.18" width="18.48" height="11.41" style="stroke-width: 1.0;stroke: rgb(0,0,0);stroke-opacity: 1.0;; fill: none" transform="matrix(1,0,0,1,0,0)" clip-path="url(#94503182662914clip-2)"/><line x1="162.51" y1="73.45" x2="180.99" y2="73.45" style="stroke-width: 1.0;stroke: rgb(0,0,0);stroke-opacity: 1.0;" transform="matrix(1,0,0,1,0,0)" clip-path="url(#94503182662914clip-2)"/><g style="stroke-width: 1.0;stroke: rgb(192,192,192);stroke-opacity: 1.0;; fill: none" transform="matrix(1,0,0,1,0,0)" clip-path="url(#94503182662914clip-2)"><path d="M 174.83 44.91 C 174.83 46.61 173.45 47.99 171.75 47.99 C 170.05 47.99 168.67 46.61 168.67 44.91 C 168.67 43.21 170.05 41.83 171.75 41.83 C 173.45 41.83 174.83 43.21 174.83 44.91 M 174.83 44.91"/></g><rect x="186.55" y="70.33" width="18.48" height="9.05" style="fill: rgb(192,192,192); fill-opacity: 1.0" transform="matrix(1,0,0,1,0,0)" clip-path="url(#94503182662914clip-2)"/><line x1="195.79" y1="62.29" x2="195.79" y2="70.33" style="stroke-width: 1.0;stroke: rgb(0,0,0);stroke-opacity: 1.0;" transform="matrix(1,0,0,1,0,0)" clip-path="url(#94503182662914clip-2)"/><line x1="186.55" y1="62.29" x2="205.03" y2="62.29" style="stroke-width: 1.0;stroke: rgb(0,0,0);stroke-opacity: 1.0;" transform="matrix(1,0,0,1,0,0)" clip-path="url(#94503182662914clip-2)"/><line x1="195.79" y1="90.47" x2="195.79" y2="79.38" style="stroke-width: 1.0;stroke: rgb(0,0,0);stroke-opacity: 1.0;" transform="matrix(1,0,0,1,0,0)" clip-path="url(#94503182662914clip-2)"/><line x1="186.55" y1="90.47" x2="205.03" y2="90.47" style="stroke-width: 1.0;stroke: rgb(0,0,0);stroke-opacity: 1.0;" transform="matrix(1,0,0,1,0,0)" clip-path="url(#94503182662914clip-2)"/><rect x="186.55" y="70.33" width="18.48" height="9.05" style="stroke-width: 1.0;stroke: rgb(0,0,0);stroke-opacity: 1.0;; fill: none" transform="matrix(1,0,0,1,0,0)" clip-path="url(#94503182662914clip-2)"/><line x1="186.55" y1="73.35" x2="205.03" y2="73.35" style="stroke-width: 1.0;stroke: rgb(0,0,0);stroke-opacity: 1.0;" transform="matrix(1,0,0,1,0,0)" clip-path="url(#94503182662914clip-2)"/><line x1="195.79" y1="23" x2="195.79" y2="23" style="stroke-width: 1.0;stroke: rgb(192,192,192);stroke-opacity: 1.0;" transform="matrix(1,0,0,1,0,0)" clip-path="url(#94503182662914clip-2)"/><line x1="195.79" y1="23" x2="195.79" y2="23" style="stroke-width: 1.0;stroke: rgb(192,192,192);stroke-opacity: 1.0;" transform="matrix(1,0,0,1,0,0)" clip-path="url(#94503182662914clip-2)"/><line x1="195.79" y1="23" x2="195.79" y2="23" style="stroke-width: 1.0;stroke: rgb(192,192,192);stroke-opacity: 1.0;" transform="matrix(1,0,0,1,0,0)" clip-path="url(#94503182662914clip-2)"/><rect x="210.59" y="70.18" width="18.48" height="11.41" style="fill: rgb(192,192,192); fill-opacity: 1.0" transform="matrix(1,0,0,1,0,0)" clip-path="url(#94503182662914clip-2)"/><line x1="219.83" y1="62.29" x2="219.83" y2="70.18" style="stroke-width: 1.0;stroke: rgb(0,0,0);stroke-opacity: 1.0;" transform="matrix(1,0,0,1,0,0)" clip-path="url(#94503182662914clip-2)"/><line x1="210.59" y1="62.29" x2="229.07" y2="62.29" style="stroke-width: 1.0;stroke: rgb(0,0,0);stroke-opacity: 1.0;" transform="matrix(1,0,0,1,0,0)" clip-path="url(#94503182662914clip-2)"/><line x1="219.83" y1="93.42" x2="219.83" y2="81.59" style="stroke-width: 1.0;stroke: rgb(0,0,0);stroke-opacity: 1.0;" transform="matrix(1,0,0,1,0,0)" clip-path="url(#94503182662914clip-2)"/><line x1="210.59" y1="93.42" x2="229.07" y2="93.42" style="stroke-width: 1.0;stroke: rgb(0,0,0);stroke-opacity: 1.0;" transform="matrix(1,0,0,1,0,0)" clip-path="url(#94503182662914clip-2)"/><rect x="210.59" y="70.18" width="18.48" height="11.41" style="stroke-width: 1.0;stroke: rgb(0,0,0);stroke-opacity: 1.0;; fill: none" transform="matrix(1,0,0,1,0,0)" clip-path="url(#94503182662914clip-2)"/><line x1="210.59" y1="73.56" x2="229.07" y2="73.56" style="stroke-width: 1.0;stroke: rgb(0,0,0);stroke-opacity: 1.0;" transform="matrix(1,0,0,1,0,0)" clip-path="url(#94503182662914clip-2)"/><g style="stroke-width: 1.0;stroke: rgb(192,192,192);stroke-opacity: 1.0;; fill: none" transform="matrix(1,0,0,1,0,0)" clip-path="url(#94503182662914clip-2)"><path d="M 216.75 47.23 C 216.75 48.93 215.37 50.31 213.67 50.31 C 211.97 50.31 210.59 48.93 210.59 47.23 C 210.59 45.53 211.97 44.15 213.67 44.15 C 215.37 44.15 216.75 45.53 216.75 47.23 M 216.75 47.23"/></g><g style="stroke-width: 1.0;stroke: rgb(192,192,192);stroke-opacity: 1.0;; fill: none" transform="matrix(1,0,0,1,0,0)" clip-path="url(#94503182662914clip-2)"><path d="M 229.07 47.23 C 229.07 48.93 227.69 50.31 225.99 50.31 C 224.29 50.31 222.91 48.93 222.91 47.23 C 222.91 45.53 224.29 44.15 225.99 44.15 C 227.69 44.15 229.07 45.53 229.07 47.23 M 229.07 47.23"/></g><line x1="219.83" y1="23" x2="219.83" y2="23" style="stroke-width: 1.0;stroke: rgb(192,192,192);stroke-opacity: 1.0;" transform="matrix(1,0,0,1,0,0)" clip-path="url(#94503182662914clip-2)"/><line x1="219.83" y1="23" x2="219.83" y2="23" style="stroke-width: 1.0;stroke: rgb(192,192,192);stroke-opacity: 1.0;" transform="matrix(1,0,0,1,0,0)" clip-path="url(#94503182662914clip-2)"/><line x1="219.83" y1="23" x2="219.83" y2="23" style="stroke-width: 1.0;stroke: rgb(192,192,192);stroke-opacity: 1.0;" transform="matrix(1,0,0,1,0,0)" clip-path="url(#94503182662914clip-2)"/><rect x="234.63" y="68.9" width="18.48" height="13.12" style="fill: rgb(192,192,192); fill-opacity: 1.0" transform="matrix(1,0,0,1,0,0)" clip-path="url(#94503182662914clip-2)"/><line x1="243.87" y1="50.31" x2="243.87" y2="68.9" style="stroke-width: 1.0;stroke: rgb(0,0,0);stroke-opacity: 1.0;" transform="matrix(1,0,0,1,0,0)" clip-path="url(#94503182662914clip-2)"/><line x1="234.63" y1="50.31" x2="253.11" y2="50.31" style="stroke-width: 1.0;stroke: rgb(0,0,0);stroke-opacity: 1.0;" transform="matrix(1,0,0,1,0,0)" clip-path="url(#94503182662914clip-2)"/><line x1="243.87" y1="93.42" x2="243.87" y2="82.02" style="stroke-width: 1.0;stroke: rgb(0,0,0);stroke-opacity: 1.0;" transform="matrix(1,0,0,1,0,0)" clip-path="url(#94503182662914clip-2)"/><line x1="234.63" y1="93.42" x2="253.11" y2="93.42" style="stroke-width: 1.0;stroke: rgb(0,0,0);stroke-opacity: 1.0;" transform="matrix(1,0,0,1,0,0)" clip-path="url(#94503182662914clip-2)"/><rect x="234.63" y="68.9" width="18.48" height="13.12" style="stroke-width: 1.0;stroke: rgb(0,0,0);stroke-opacity: 1.0;; fill: none" transform="matrix(1,0,0,1,0,0)" clip-path="url(#94503182662914clip-2)"/><line x1="234.63" y1="73.45" x2="253.11" y2="73.45" style="stroke-width: 1.0;stroke: rgb(0,0,0);stroke-opacity: 1.0;" transform="matrix(1,0,0,1,0,0)" clip-path="url(#94503182662914clip-2)"/><g style="stroke-width: 1.0;stroke: rgb(192,192,192);stroke-opacity: 1.0;; fill: none" transform="matrix(1,0,0,1,0,0)" clip-path="url(#94503182662914clip-2)"><path d="M 240.79 44.91 C 240.79 46.61 239.41 47.99 237.71 47.99 C 236.01 47.99 234.63 46.61 234.63 44.91 C 234.63 43.21 236.01 41.83 237.71 41.83 C 239.41 41.83 240.79 43.21 240.79 44.91 M 240.79 44.91"/></g><g style="stroke-width: 1.0;stroke: rgb(192,192,192);stroke-opacity: 1.0;; fill: none" transform="matrix(1,0,0,1,0,0)" clip-path="url(#94503182662914clip-2)"><path d="M 253.11 44.91 C 253.11 46.61 251.73 47.99 250.03 47.99 C 248.33 47.99 246.95 46.61 246.95 44.91 C 246.95 43.21 248.33 41.83 250.03 41.83 C 251.73 41.83 253.11 43.21 253.11 44.91 M 253.11 44.91"/></g><rect x="258.67" y="68.73" width="18.48" height="13.3" style="fill: rgb(192,192,192); fill-opacity: 1.0" transform="matrix(1,0,0,1,0,0)" clip-path="url(#94503182662914clip-2)"/><line x1="267.91" y1="50.31" x2="267.91" y2="68.73" style="stroke-width: 1.0;stroke: rgb(0,0,0);stroke-opacity: 1.0;" transform="matrix(1,0,0,1,0,0)" clip-path="url(#94503182662914clip-2)"/><line x1="258.67" y1="50.31" x2="277.15" y2="50.31" style="stroke-width: 1.0;stroke: rgb(0,0,0);stroke-opacity: 1.0;" transform="matrix(1,0,0,1,0,0)" clip-path="url(#94503182662914clip-2)"/><line x1="267.91" y1="93.42" x2="267.91" y2="82.02" style="stroke-width: 1.0;stroke: rgb(0,0,0);stroke-opacity: 1.0;" transform="matrix(1,0,0,1,0,0)" clip-path="url(#94503182662914clip-2)"/><line x1="258.67" y1="93.42" x2="277.15" y2="93.42" style="stroke-width: 1.0;stroke: rgb(0,0,0);stroke-opacity: 1.0;" transform="matrix(1,0,0,1,0,0)" clip-path="url(#94503182662914clip-2)"/><rect x="258.67" y="68.73" width="18.48" height="13.3" style="stroke-width: 1.0;stroke: rgb(0,0,0);stroke-opacity: 1.0;; fill: none" transform="matrix(1,0,0,1,0,0)" clip-path="url(#94503182662914clip-2)"/><line x1="258.67" y1="73.24" x2="277.15" y2="73.24" style="stroke-width: 1.0;stroke: rgb(0,0,0);stroke-opacity: 1.0;" transform="matrix(1,0,0,1,0,0)" clip-path="url(#94503182662914clip-2)"/><g style="stroke-width: 1.0;stroke: rgb(192,192,192);stroke-opacity: 1.0;; fill: none" transform="matrix(1,0,0,1,0,0)" clip-path="url(#94503182662914clip-2)"><path d="M 264.83 44.91 C 264.83 46.61 263.45 47.99 261.75 47.99 C 260.04 47.99 258.67 46.61 258.67 44.91 C 258.67 43.21 260.04 41.83 261.75 41.83 C 263.45 41.83 264.83 43.21 264.83 44.91 M 264.83 44.91"/></g><g style="stroke-width: 1.0;stroke: rgb(192,192,192);stroke-opacity: 1.0;; fill: none" transform="matrix(1,0,0,1,0,0)" clip-path="url(#94503182662914clip-2)"><path d="M 277.15 44.91 C 277.15 46.61 275.77 47.99 274.07 47.99 C 272.36 47.99 270.99 46.61 270.99 44.91 C 270.99 43.21 272.36 41.83 274.07 41.83 C 275.77 41.83 277.15 43.21 277.15 44.91 M 277.15 44.91"/></g><rect x="282.7" y="67.63" width="18.48" height="14.83" style="fill: rgb(192,192,192); fill-opacity: 1.0" transform="matrix(1,0,0,1,0,0)" clip-path="url(#94503182662914clip-2)"/><line x1="291.94" y1="45.66" x2="291.94" y2="67.63" style="stroke-width: 1.0;stroke: rgb(0,0,0);stroke-opacity: 1.0;" transform="matrix(1,0,0,1,0,0)" clip-path="url(#94503182662914clip-2)"/><line x1="282.7" y1="45.66" x2="301.18" y2="45.66" style="stroke-width: 1.0;stroke: rgb(0,0,0);stroke-opacity: 1.0;" transform="matrix(1,0,0,1,0,0)" clip-path="url(#94503182662914clip-2)"/><line x1="291.94" y1="100.31" x2="291.94" y2="82.46" style="stroke-width: 1.0;stroke: rgb(0,0,0);stroke-opacity: 1.0;" transform="matrix(1,0,0,1,0,0)" clip-path="url(#94503182662914clip-2)"/><line x1="282.7" y1="100.31" x2="301.18" y2="100.31" style="stroke-width: 1.0;stroke: rgb(0,0,0);stroke-opacity: 1.0;" transform="matrix(1,0,0,1,0,0)" clip-path="url(#94503182662914clip-2)"/><rect x="282.7" y="67.63" width="18.48" height="14.83" style="stroke-width: 1.0;stroke: rgb(0,0,0);stroke-opacity: 1.0;; fill: none" transform="matrix(1,0,0,1,0,0)" clip-path="url(#94503182662914clip-2)"/><line x1="282.7" y1="73.35" x2="301.18" y2="73.35" style="stroke-width: 1.0;stroke: rgb(0,0,0);stroke-opacity: 1.0;" transform="matrix(1,0,0,1,0,0)" clip-path="url(#94503182662914clip-2)"/><line x1="291.94" y1="23" x2="291.94" y2="23" style="stroke-width: 1.0;stroke: rgb(192,192,192);stroke-opacity: 1.0;" transform="matrix(1,0,0,1,0,0)" clip-path="url(#94503182662914clip-2)"/><line x1="291.94" y1="23" x2="291.94" y2="23" style="stroke-width: 1.0;stroke: rgb(192,192,192);stroke-opacity: 1.0;" transform="matrix(1,0,0,1,0,0)" clip-path="url(#94503182662914clip-2)"/><line x1="291.94" y1="23" x2="291.94" y2="23" style="stroke-width: 1.0;stroke: rgb(192,192,192);stroke-opacity: 1.0;" transform="matrix(1,0,0,1,0,0)" clip-path="url(#94503182662914clip-2)"/><rect x="306.74" y="67.08" width="18.48" height="14.95" style="fill: rgb(192,192,192); fill-opacity: 1.0" transform="matrix(1,0,0,1,0,0)" clip-path="url(#94503182662914clip-2)"/><line x1="315.98" y1="45.66" x2="315.98" y2="67.08" style="stroke-width: 1.0;stroke: rgb(0,0,0);stroke-opacity: 1.0;" transform="matrix(1,0,0,1,0,0)" clip-path="url(#94503182662914clip-2)"/><line x1="306.74" y1="45.66" x2="325.22" y2="45.66" style="stroke-width: 1.0;stroke: rgb(0,0,0);stroke-opacity: 1.0;" transform="matrix(1,0,0,1,0,0)" clip-path="url(#94503182662914clip-2)"/><line x1="315.98" y1="100.31" x2="315.98" y2="82.02" style="stroke-width: 1.0;stroke: rgb(0,0,0);stroke-opacity: 1.0;" transform="matrix(1,0,0,1,0,0)" clip-path="url(#94503182662914clip-2)"/><line x1="306.74" y1="100.31" x2="325.22" y2="100.31" style="stroke-width: 1.0;stroke: rgb(0,0,0);stroke-opacity: 1.0;" transform="matrix(1,0,0,1,0,0)" clip-path="url(#94503182662914clip-2)"/><rect x="306.74" y="67.08" width="18.48" height="14.95" style="stroke-width: 1.0;stroke: rgb(0,0,0);stroke-opacity: 1.0;; fill: none" transform="matrix(1,0,0,1,0,0)" clip-path="url(#94503182662914clip-2)"/><line x1="306.74" y1="73.14" x2="325.22" y2="73.14" style="stroke-width: 1.0;stroke: rgb(0,0,0);stroke-opacity: 1.0;" transform="matrix(1,0,0,1,0,0)" clip-path="url(#94503182662914clip-2)"/><g style="stroke-width: 1.0;stroke: rgb(192,192,192);stroke-opacity: 1.0;; fill: none" transform="matrix(1,0,0,1,0,0)" clip-path="url(#94503182662914clip-2)"><path d="M 319.06 34.44 C 319.06 36.14 317.68 37.52 315.98 37.52 C 314.28 37.52 312.9 36.14 312.9 34.44 C 312.9 32.74 314.28 31.36 315.98 31.36 C 317.68 31.36 319.06 32.74 319.06 34.44 M 319.06 34.44"/></g><rect x="330.78" y="67.48" width="18.48" height="14.11" style="fill: rgb(192,192,192); fill-opacity: 1.0" transform="matrix(1,0,0,1,0,0)" clip-path="url(#94503182662914clip-2)"/><line x1="340.02" y1="47.99" x2="340.02" y2="67.48" style="stroke-width: 1.0;stroke: rgb(0,0,0);stroke-opacity: 1.0;" transform="matrix(1,0,0,1,0,0)" clip-path="url(#94503182662914clip-2)"/><line x1="330.78" y1="47.99" x2="349.26" y2="47.99" style="stroke-width: 1.0;stroke: rgb(0,0,0);stroke-opacity: 1.0;" transform="matrix(1,0,0,1,0,0)" clip-path="url(#94503182662914clip-2)"/><line x1="340.02" y1="100.31" x2="340.02" y2="81.59" style="stroke-width: 1.0;stroke: rgb(0,0,0);stroke-opacity: 1.0;" transform="matrix(1,0,0,1,0,0)" clip-path="url(#94503182662914clip-2)"/><line x1="330.78" y1="100.31" x2="349.26" y2="100.31" style="stroke-width: 1.0;stroke: rgb(0,0,0);stroke-opacity: 1.0;" transform="matrix(1,0,0,1,0,0)" clip-path="url(#94503182662914clip-2)"/><rect x="330.78" y="67.48" width="18.48" height="14.11" style="stroke-width: 1.0;stroke: rgb(0,0,0);stroke-opacity: 1.0;; fill: none" transform="matrix(1,0,0,1,0,0)" clip-path="url(#94503182662914clip-2)"/><line x1="330.78" y1="72.48" x2="349.26" y2="72.48" style="stroke-width: 1.0;stroke: rgb(0,0,0);stroke-opacity: 1.0;" transform="matrix(1,0,0,1,0,0)" clip-path="url(#94503182662914clip-2)"/><g style="stroke-width: 1.0;stroke: rgb(192,192,192);stroke-opacity: 1.0;; fill: none" transform="matrix(1,0,0,1,0,0)" clip-path="url(#94503182662914clip-2)"><path d="M 343.1 42.58 C 343.1 44.29 341.72 45.66 340.02 45.66 C 338.32 45.66 336.94 44.29 336.94 42.58 C 336.94 40.88 338.32 39.5 340.02 39.5 C 341.72 39.5 343.1 40.88 343.1 42.58 M 343.1 42.58"/></g><line x1="340.02" y1="23" x2="340.02" y2="23" style="stroke-width: 1.0;stroke: rgb(192,192,192);stroke-opacity: 1.0;" transform="matrix(1,0,0,1,0,0)" clip-path="url(#94503182662914clip-2)"/><line x1="340.02" y1="23" x2="340.02" y2="23" style="stroke-width: 1.0;stroke: rgb(192,192,192);stroke-opacity: 1.0;" transform="matrix(1,0,0,1,0,0)" clip-path="url(#94503182662914clip-2)"/><line x1="340.02" y1="23" x2="340.02" y2="23" style="stroke-width: 1.0;stroke: rgb(192,192,192);stroke-opacity: 1.0;" transform="matrix(1,0,0,1,0,0)" clip-path="url(#94503182662914clip-2)"/><rect x="354.82" y="66.45" width="18.48" height="16.41" style="fill: rgb(192,192,192); fill-opacity: 1.0" transform="matrix(1,0,0,1,0,0)" clip-path="url(#94503182662914clip-2)"/><line x1="364.06" y1="43.13" x2="364.06" y2="66.45" style="stroke-width: 1.0;stroke: rgb(0,0,0);stroke-opacity: 1.0;" transform="matrix(1,0,0,1,0,0)" clip-path="url(#94503182662914clip-2)"/><line x1="354.82" y1="43.13" x2="373.3" y2="43.13" style="stroke-width: 1.0;stroke: rgb(0,0,0);stroke-opacity: 1.0;" transform="matrix(1,0,0,1,0,0)" clip-path="url(#94503182662914clip-2)"/><line x1="364.06" y1="100.31" x2="364.06" y2="82.86" style="stroke-width: 1.0;stroke: rgb(0,0,0);stroke-opacity: 1.0;" transform="matrix(1,0,0,1,0,0)" clip-path="url(#94503182662914clip-2)"/><line x1="354.82" y1="100.31" x2="373.3" y2="100.31" style="stroke-width: 1.0;stroke: rgb(0,0,0);stroke-opacity: 1.0;" transform="matrix(1,0,0,1,0,0)" clip-path="url(#94503182662914clip-2)"/><rect x="354.82" y="66.45" width="18.48" height="16.41" style="stroke-width: 1.0;stroke: rgb(0,0,0);stroke-opacity: 1.0;; fill: none" transform="matrix(1,0,0,1,0,0)" clip-path="url(#94503182662914clip-2)"/><line x1="354.82" y1="72.85" x2="373.3" y2="72.85" style="stroke-width: 1.0;stroke: rgb(0,0,0);stroke-opacity: 1.0;" transform="matrix(1,0,0,1,0,0)" clip-path="url(#94503182662914clip-2)"/><g style="stroke-width: 1.0;stroke: rgb(192,192,192);stroke-opacity: 1.0;; fill: none" transform="matrix(1,0,0,1,0,0)" clip-path="url(#94503182662914clip-2)"><path d="M 367.14 34.44 C 367.14 36.14 365.76 37.52 364.06 37.52 C 362.36 37.52 360.98 36.14 360.98 34.44 C 360.98 32.74 362.36 31.36 364.06 31.36 C 365.76 31.36 367.14 32.74 367.14 34.44 M 367.14 34.44"/></g><g style="stroke-width: 1.0;stroke: rgb(192,192,192);stroke-opacity: 1.0;; fill: none" transform="matrix(1,0,0,1,0,0)" clip-path="url(#94503182662914clip-2)"><path d="M 367.14 108.52 C 367.14 110.22 365.76 111.6 364.06 111.6 C 362.36 111.6 360.98 110.22 360.98 108.52 C 360.98 106.82 362.36 105.44 364.06 105.44 C 365.76 105.44 367.14 106.82 367.14 108.52 M 367.14 108.52"/></g><rect x="378.85" y="65.8" width="18.48" height="17.58" style="fill: rgb(192,192,192); fill-opacity: 1.0" transform="matrix(1,0,0,1,0,0)" clip-path="url(#94503182662914clip-2)"/><line x1="388.09" y1="43.13" x2="388.09" y2="65.8" style="stroke-width: 1.0;stroke: rgb(0,0,0);stroke-opacity: 1.0;" transform="matrix(1,0,0,1,0,0)" clip-path="url(#94503182662914clip-2)"/><line x1="378.85" y1="43.13" x2="397.33" y2="43.13" style="stroke-width: 1.0;stroke: rgb(0,0,0);stroke-opacity: 1.0;" transform="matrix(1,0,0,1,0,0)" clip-path="url(#94503182662914clip-2)"/><line x1="388.09" y1="100.31" x2="388.09" y2="83.38" style="stroke-width: 1.0;stroke: rgb(0,0,0);stroke-opacity: 1.0;" transform="matrix(1,0,0,1,0,0)" clip-path="url(#94503182662914clip-2)"/><line x1="378.85" y1="100.31" x2="397.33" y2="100.31" style="stroke-width: 1.0;stroke: rgb(0,0,0);stroke-opacity: 1.0;" transform="matrix(1,0,0,1,0,0)" clip-path="url(#94503182662914clip-2)"/><rect x="378.85" y="65.8" width="18.48" height="17.58" style="stroke-width: 1.0;stroke: rgb(0,0,0);stroke-opacity: 1.0;; fill: none" transform="matrix(1,0,0,1,0,0)" clip-path="url(#94503182662914clip-2)"/><line x1="378.85" y1="73.14" x2="397.33" y2="73.14" style="stroke-width: 1.0;stroke: rgb(0,0,0);stroke-opacity: 1.0;" transform="matrix(1,0,0,1,0,0)" clip-path="url(#94503182662914clip-2)"/><g style="stroke-width: 1.0;stroke: rgb(192,192,192);stroke-opacity: 1.0;; fill: none" transform="matrix(1,0,0,1,0,0)" clip-path="url(#94503182662914clip-2)"><path d="M 391.17 34.44 C 391.17 36.14 389.8 37.52 388.09 37.52 C 386.39 37.52 385.01 36.14 385.01 34.44 C 385.01 32.74 386.39 31.36 388.09 31.36 C 389.8 31.36 391.17 32.74 391.17 34.44 M 391.17 34.44"/></g><g style="stroke-width: 1.0;stroke: rgb(192,192,192);stroke-opacity: 1.0;; fill: none" transform="matrix(1,0,0,1,0,0)" clip-path="url(#94503182662914clip-2)"><path d="M 391.17 108.52 C 391.17 110.22 389.8 111.6 388.09 111.6 C 386.39 111.6 385.01 110.22 385.01 108.52 C 385.01 106.82 386.39 105.44 388.09 105.44 C 389.8 105.44 391.17 106.82 391.17 108.52 M 391.17 108.52"/></g><rect x="402.89" y="65.15" width="18.48" height="18.23" style="fill: rgb(192,192,192); fill-opacity: 1.0" transform="matrix(1,0,0,1,0,0)" clip-path="url(#94503182662914clip-2)"/><line x1="412.13" y1="43.13" x2="412.13" y2="65.15" style="stroke-width: 1.0;stroke: rgb(0,0,0);stroke-opacity: 1.0;" transform="matrix(1,0,0,1,0,0)" clip-path="url(#94503182662914clip-2)"/><line x1="402.89" y1="43.13" x2="421.37" y2="43.13" style="stroke-width: 1.0;stroke: rgb(0,0,0);stroke-opacity: 1.0;" transform="matrix(1,0,0,1,0,0)" clip-path="url(#94503182662914clip-2)"/><line x1="412.13" y1="100.31" x2="412.13" y2="83.38" style="stroke-width: 1.0;stroke: rgb(0,0,0);stroke-opacity: 1.0;" transform="matrix(1,0,0,1,0,0)" clip-path="url(#94503182662914clip-2)"/><line x1="402.89" y1="100.31" x2="421.37" y2="100.31" style="stroke-width: 1.0;stroke: rgb(0,0,0);stroke-opacity: 1.0;" transform="matrix(1,0,0,1,0,0)" clip-path="url(#94503182662914clip-2)"/><rect x="402.89" y="65.15" width="18.48" height="18.23" style="stroke-width: 1.0;stroke: rgb(0,0,0);stroke-opacity: 1.0;; fill: none" transform="matrix(1,0,0,1,0,0)" clip-path="url(#94503182662914clip-2)"/><line x1="402.89" y1="72.56" x2="421.37" y2="72.56" style="stroke-width: 1.0;stroke: rgb(0,0,0);stroke-opacity: 1.0;" transform="matrix(1,0,0,1,0,0)" clip-path="url(#94503182662914clip-2)"/><g style="stroke-width: 1.0;stroke: rgb(192,192,192);stroke-opacity: 1.0;; fill: none" transform="matrix(1,0,0,1,0,0)" clip-path="url(#94503182662914clip-2)"><path d="M 415.21 34.44 C 415.21 36.14 413.83 37.52 412.13 37.52 C 410.43 37.52 409.05 36.14 409.05 34.44 C 409.05 32.74 410.43 31.36 412.13 31.36 C 413.83 31.36 415.21 32.74 415.21 34.44 M 415.21 34.44"/></g><g style="stroke-width: 1.0;stroke: rgb(192,192,192);stroke-opacity: 1.0;; fill: none" transform="matrix(1,0,0,1,0,0)" clip-path="url(#94503182662914clip-2)"><path d="M 415.21 108.52 C 415.21 110.22 413.83 111.6 412.13 111.6 C 410.43 111.6 409.05 110.22 409.05 108.52 C 409.05 106.82 410.43 105.44 412.13 105.44 C 413.83 105.44 415.21 106.82 415.21 108.52 M 415.21 108.52"/></g><rect x="426.93" y="64.32" width="18.48" height="19.09" style="fill: rgb(192,192,192); fill-opacity: 1.0" transform="matrix(1,0,0,1,0,0)" clip-path="url(#94503182662914clip-2)"/><line x1="436.17" y1="37.52" x2="436.17" y2="64.32" style="stroke-width: 1.0;stroke: rgb(0,0,0);stroke-opacity: 1.0;" transform="matrix(1,0,0,1,0,0)" clip-path="url(#94503182662914clip-2)"/><line x1="426.93" y1="37.52" x2="445.41" y2="37.52" style="stroke-width: 1.0;stroke: rgb(0,0,0);stroke-opacity: 1.0;" transform="matrix(1,0,0,1,0,0)" clip-path="url(#94503182662914clip-2)"/><line x1="436.17" y1="111.6" x2="436.17" y2="83.41" style="stroke-width: 1.0;stroke: rgb(0,0,0);stroke-opacity: 1.0;" transform="matrix(1,0,0,1,0,0)" clip-path="url(#94503182662914clip-2)"/><line x1="426.93" y1="111.6" x2="445.41" y2="111.6" style="stroke-width: 1.0;stroke: rgb(0,0,0);stroke-opacity: 1.0;" transform="matrix(1,0,0,1,0,0)" clip-path="url(#94503182662914clip-2)"/><rect x="426.93" y="64.32" width="18.48" height="19.09" style="stroke-width: 1.0;stroke: rgb(0,0,0);stroke-opacity: 1.0;; fill: none" transform="matrix(1,0,0,1,0,0)" clip-path="url(#94503182662914clip-2)"/><line x1="426.93" y1="72.5" x2="445.41" y2="72.5" style="stroke-width: 1.0;stroke: rgb(0,0,0);stroke-opacity: 1.0;" transform="matrix(1,0,0,1,0,0)" clip-path="url(#94503182662914clip-2)"/><g style="stroke-width: 1.0;stroke: rgb(192,192,192);stroke-opacity: 1.0;; fill: none" transform="matrix(1,0,0,1,0,0)" clip-path="url(#94503182662914clip-2)"><path d="M 439.25 27.95 C 439.25 29.65 437.87 31.03 436.17 31.03 C 434.47 31.03 433.09 29.65 433.09 27.95 C 433.09 26.25 434.47 24.87 436.17 24.87 C 437.87 24.87 439.25 26.25 439.25 27.95 M 439.25 27.95"/></g><g style="stroke-width: 1.0;stroke: rgb(192,192,192);stroke-opacity: 1.0;; fill: none" transform="matrix(1,0,0,1,0,0)" clip-path="url(#94503182662914clip-2)"><path d="M 439.25 113.55 C 439.25 115.25 437.87 116.63 436.17 116.63 C 434.47 116.63 433.09 115.25 433.09 113.55 C 433.09 111.85 434.47 110.47 436.17 110.47 C 437.87 110.47 439.25 111.85 439.25 113.55 M 439.25 113.55"/></g><rect x="450.97" y="64.52" width="18.48" height="18.86" style="fill: rgb(192,192,192); fill-opacity: 1.0" transform="matrix(1,0,0,1,0,0)" clip-path="url(#94503182662914clip-2)"/><line x1="460.21" y1="37.52" x2="460.21" y2="64.52" style="stroke-width: 1.0;stroke: rgb(0,0,0);stroke-opacity: 1.0;" transform="matrix(1,0,0,1,0,0)" clip-path="url(#94503182662914clip-2)"/><line x1="450.97" y1="37.52" x2="469.45" y2="37.52" style="stroke-width: 1.0;stroke: rgb(0,0,0);stroke-opacity: 1.0;" transform="matrix(1,0,0,1,0,0)" clip-path="url(#94503182662914clip-2)"/><line x1="460.21" y1="111.6" x2="460.21" y2="83.38" style="stroke-width: 1.0;stroke: rgb(0,0,0);stroke-opacity: 1.0;" transform="matrix(1,0,0,1,0,0)" clip-path="url(#94503182662914clip-2)"/><line x1="450.97" y1="111.6" x2="469.45" y2="111.6" style="stroke-width: 1.0;stroke: rgb(0,0,0);stroke-opacity: 1.0;" transform="matrix(1,0,0,1,0,0)" clip-path="url(#94503182662914clip-2)"/><rect x="450.97" y="64.52" width="18.48" height="18.86" style="stroke-width: 1.0;stroke: rgb(0,0,0);stroke-opacity: 1.0;; fill: none" transform="matrix(1,0,0,1,0,0)" clip-path="url(#94503182662914clip-2)"/><line x1="450.97" y1="72.85" x2="469.45" y2="72.85" style="stroke-width: 1.0;stroke: rgb(0,0,0);stroke-opacity: 1.0;" transform="matrix(1,0,0,1,0,0)" clip-path="url(#94503182662914clip-2)"/><g style="stroke-width: 1.0;stroke: rgb(192,192,192);stroke-opacity: 1.0;; fill: none" transform="matrix(1,0,0,1,0,0)" clip-path="url(#94503182662914clip-2)"><path d="M 463.29 27.95 C 463.29 29.65 461.91 31.03 460.21 31.03 C 458.51 31.03 457.13 29.65 457.13 27.95 C 457.13 26.25 458.51 24.87 460.21 24.87 C 461.91 24.87 463.29 26.25 463.29 27.95 M 463.29 27.95"/></g><g style="stroke-width: 1.0;stroke: rgb(192,192,192);stroke-opacity: 1.0;; fill: none" transform="matrix(1,0,0,1,0,0)" clip-path="url(#94503182662914clip-2)"><path d="M 463.29 113.55 C 463.29 115.25 461.91 116.63 460.21 116.63 C 458.51 116.63 457.13 115.25 457.13 113.55 C 457.13 111.85 458.51 110.47 460.21 110.47 C 461.91 110.47 463.29 111.85 463.29 113.55 M 463.29 113.55"/></g><rect x="475.01" y="64.85" width="18.48" height="18.45" style="fill: rgb(192,192,192); fill-opacity: 1.0" transform="matrix(1,0,0,1,0,0)" clip-path="url(#94503182662914clip-2)"/><line x1="484.25" y1="37.52" x2="484.25" y2="64.85" style="stroke-width: 1.0;stroke: rgb(0,0,0);stroke-opacity: 1.0;" transform="matrix(1,0,0,1,0,0)" clip-path="url(#94503182662914clip-2)"/><line x1="475.01" y1="37.52" x2="493.49" y2="37.52" style="stroke-width: 1.0;stroke: rgb(0,0,0);stroke-opacity: 1.0;" transform="matrix(1,0,0,1,0,0)" clip-path="url(#94503182662914clip-2)"/><line x1="484.25" y1="102.53" x2="484.25" y2="83.3" style="stroke-width: 1.0;stroke: rgb(0,0,0);stroke-opacity: 1.0;" transform="matrix(1,0,0,1,0,0)" clip-path="url(#94503182662914clip-2)"/><line x1="475.01" y1="102.53" x2="493.49" y2="102.53" style="stroke-width: 1.0;stroke: rgb(0,0,0);stroke-opacity: 1.0;" transform="matrix(1,0,0,1,0,0)" clip-path="url(#94503182662914clip-2)"/><rect x="475.01" y="64.85" width="18.48" height="18.45" style="stroke-width: 1.0;stroke: rgb(0,0,0);stroke-opacity: 1.0;; fill: none" transform="matrix(1,0,0,1,0,0)" clip-path="url(#94503182662914clip-2)"/><line x1="475.01" y1="72.91" x2="493.49" y2="72.91" style="stroke-width: 1.0;stroke: rgb(0,0,0);stroke-opacity: 1.0;" transform="matrix(1,0,0,1,0,0)" clip-path="url(#94503182662914clip-2)"/><g style="stroke-width: 1.0;stroke: rgb(192,192,192);stroke-opacity: 1.0;; fill: none" transform="matrix(1,0,0,1,0,0)" clip-path="url(#94503182662914clip-2)"><path d="M 487.33 27.95 C 487.33 29.65 485.95 31.03 484.25 31.03 C 482.55 31.03 481.17 29.65 481.17 27.95 C 481.17 26.25 482.55 24.87 484.25 24.87 C 485.95 24.87 487.33 26.25 487.33 27.95 M 487.33 27.95"/></g><g style="stroke-width: 1.0;stroke: rgb(192,192,192);stroke-opacity: 1.0;; fill: none" transform="matrix(1,0,0,1,0,0)" clip-path="url(#94503182662914clip-2)"><path d="M 481.17 113.55 C 481.17 115.25 479.79 116.63 478.09 116.63 C 476.39 116.63 475.01 115.25 475.01 113.55 C 475.01 111.85 476.39 110.47 478.09 110.47 C 479.79 110.47 481.17 111.85 481.17 113.55 M 481.17 113.55"/></g><g style="stroke-width: 1.0;stroke: rgb(192,192,192);stroke-opacity: 1.0;; fill: none" transform="matrix(1,0,0,1,0,0)" clip-path="url(#94503182662914clip-2)"><path d="M 493.49 113.55 C 493.49 115.25 492.11 116.63 490.41 116.63 C 488.71 116.63 487.33 115.25 487.33 113.55 C 487.33 111.85 488.71 110.47 490.41 110.47 C 492.11 110.47 493.49 111.85 493.49 113.55 M 493.49 113.55"/></g><rect x="499.04" y="63.99" width="18.48" height="19.35" style="fill: rgb(192,192,192); fill-opacity: 1.0" transform="matrix(1,0,0,1,0,0)" clip-path="url(#94503182662914clip-2)"/><line x1="508.28" y1="37.52" x2="508.28" y2="63.99" style="stroke-width: 1.0;stroke: rgb(0,0,0);stroke-opacity: 1.0;" transform="matrix(1,0,0,1,0,0)" clip-path="url(#94503182662914clip-2)"/><line x1="499.04" y1="37.52" x2="517.52" y2="37.52" style="stroke-width: 1.0;stroke: rgb(0,0,0);stroke-opacity: 1.0;" transform="matrix(1,0,0,1,0,0)" clip-path="url(#94503182662914clip-2)"/><line x1="508.28" y1="111.6" x2="508.28" y2="83.34" style="stroke-width: 1.0;stroke: rgb(0,0,0);stroke-opacity: 1.0;" transform="matrix(1,0,0,1,0,0)" clip-path="url(#94503182662914clip-2)"/><line x1="499.04" y1="111.6" x2="517.52" y2="111.6" style="stroke-width: 1.0;stroke: rgb(0,0,0);stroke-opacity: 1.0;" transform="matrix(1,0,0,1,0,0)" clip-path="url(#94503182662914clip-2)"/><rect x="499.04" y="63.99" width="18.48" height="19.35" style="stroke-width: 1.0;stroke: rgb(0,0,0);stroke-opacity: 1.0;; fill: none" transform="matrix(1,0,0,1,0,0)" clip-path="url(#94503182662914clip-2)"/><line x1="499.04" y1="72.91" x2="517.52" y2="72.91" style="stroke-width: 1.0;stroke: rgb(0,0,0);stroke-opacity: 1.0;" transform="matrix(1,0,0,1,0,0)" clip-path="url(#94503182662914clip-2)"/><g style="stroke-width: 1.0;stroke: rgb(192,192,192);stroke-opacity: 1.0;; fill: none" transform="matrix(1,0,0,1,0,0)" clip-path="url(#94503182662914clip-2)"><path d="M 505.2 29.37 C 505.2 31.07 503.83 32.45 502.12 32.45 C 500.42 32.45 499.04 31.07 499.04 29.37 C 499.04 27.67 500.42 26.29 502.12 26.29 C 503.83 26.29 505.2 27.67 505.2 29.37 M 505.2 29.37"/></g><g style="stroke-width: 1.0;stroke: rgb(192,192,192);stroke-opacity: 1.0;; fill: none" transform="matrix(1,0,0,1,0,0)" clip-path="url(#94503182662914clip-2)"><path d="M 517.52 29.37 C 517.52 31.07 516.15 32.45 514.44 32.45 C 512.74 32.45 511.36 31.07 511.36 29.37 C 511.36 27.67 512.74 26.29 514.44 26.29 C 516.15 26.29 517.52 27.67 517.52 29.37 M 517.52 29.37"/></g><g style="stroke-width: 1.0;stroke: rgb(192,192,192);stroke-opacity: 1.0;; fill: none" transform="matrix(1,0,0,1,0,0)" clip-path="url(#94503182662914clip-2)"><path d="M 511.36 113.55 C 511.36 115.25 509.99 116.63 508.28 116.63 C 506.58 116.63 505.2 115.25 505.2 113.55 C 505.2 111.85 506.58 110.47 508.28 110.47 C 509.99 110.47 511.36 111.85 511.36 113.55 M 511.36 113.55"/></g><rect x="523.08" y="63.6" width="18.48" height="19.78" style="fill: rgb(192,192,192); fill-opacity: 1.0" transform="matrix(1,0,0,1,0,0)" clip-path="url(#94503182662914clip-2)"/><line x1="532.32" y1="37.52" x2="532.32" y2="63.6" style="stroke-width: 1.0;stroke: rgb(0,0,0);stroke-opacity: 1.0;" transform="matrix(1,0,0,1,0,0)" clip-path="url(#94503182662914clip-2)"/><line x1="523.08" y1="37.52" x2="541.56" y2="37.52" style="stroke-width: 1.0;stroke: rgb(0,0,0);stroke-opacity: 1.0;" transform="matrix(1,0,0,1,0,0)" clip-path="url(#94503182662914clip-2)"/><line x1="532.32" y1="111.6" x2="532.32" y2="83.38" style="stroke-width: 1.0;stroke: rgb(0,0,0);stroke-opacity: 1.0;" transform="matrix(1,0,0,1,0,0)" clip-path="url(#94503182662914clip-2)"/><line x1="523.08" y1="111.6" x2="541.56" y2="111.6" style="stroke-width: 1.0;stroke: rgb(0,0,0);stroke-opacity: 1.0;" transform="matrix(1,0,0,1,0,0)" clip-path="url(#94503182662914clip-2)"/><rect x="523.08" y="63.6" width="18.48" height="19.78" style="stroke-width: 1.0;stroke: rgb(0,0,0);stroke-opacity: 1.0;; fill: none" transform="matrix(1,0,0,1,0,0)" clip-path="url(#94503182662914clip-2)"/><line x1="523.08" y1="72.91" x2="541.56" y2="72.91" style="stroke-width: 1.0;stroke: rgb(0,0,0);stroke-opacity: 1.0;" transform="matrix(1,0,0,1,0,0)" clip-path="url(#94503182662914clip-2)"/><g style="stroke-width: 1.0;stroke: rgb(192,192,192);stroke-opacity: 1.0;; fill: none" transform="matrix(1,0,0,1,0,0)" clip-path="url(#94503182662914clip-2)"><path d="M 529.24 29.37 C 529.24 31.07 527.86 32.45 526.16 32.45 C 524.46 32.45 523.08 31.07 523.08 29.37 C 523.08 27.67 524.46 26.29 526.16 26.29 C 527.86 26.29 529.24 27.67 529.24 29.37 M 529.24 29.37"/></g><g style="stroke-width: 1.0;stroke: rgb(192,192,192);stroke-opacity: 1.0;; fill: none" transform="matrix(1,0,0,1,0,0)" clip-path="url(#94503182662914clip-2)"><path d="M 541.56 29.37 C 541.56 31.07 540.18 32.45 538.48 32.45 C 536.78 32.45 535.4 31.07 535.4 29.37 C 535.4 27.67 536.78 26.29 538.48 26.29 C 540.18 26.29 541.56 27.67 541.56 29.37 M 541.56 29.37"/></g><g style="stroke-width: 1.0;stroke: rgb(192,192,192);stroke-opacity: 1.0;; fill: none" transform="matrix(1,0,0,1,0,0)" clip-path="url(#94503182662914clip-2)"><path d="M 535.4 113.55 C 535.4 115.25 534.02 116.63 532.32 116.63 C 530.62 116.63 529.24 115.25 529.24 113.55 C 529.24 111.85 530.62 110.47 532.32 110.47 C 534.02 110.47 535.4 111.85 535.4 113.55 M 535.4 113.55"/></g><rect x="547.12" y="63.56" width="18.48" height="19.82" style="fill: rgb(192,192,192); fill-opacity: 1.0" transform="matrix(1,0,0,1,0,0)" clip-path="url(#94503182662914clip-2)"/><line x1="556.36" y1="37.52" x2="556.36" y2="63.56" style="stroke-width: 1.0;stroke: rgb(0,0,0);stroke-opacity: 1.0;" transform="matrix(1,0,0,1,0,0)" clip-path="url(#94503182662914clip-2)"/><line x1="547.12" y1="37.52" x2="565.6" y2="37.52" style="stroke-width: 1.0;stroke: rgb(0,0,0);stroke-opacity: 1.0;" transform="matrix(1,0,0,1,0,0)" clip-path="url(#94503182662914clip-2)"/><line x1="556.36" y1="112.34" x2="556.36" y2="83.38" style="stroke-width: 1.0;stroke: rgb(0,0,0);stroke-opacity: 1.0;" transform="matrix(1,0,0,1,0,0)" clip-path="url(#94503182662914clip-2)"/><line x1="547.12" y1="112.34" x2="565.6" y2="112.34" style="stroke-width: 1.0;stroke: rgb(0,0,0);stroke-opacity: 1.0;" transform="matrix(1,0,0,1,0,0)" clip-path="url(#94503182662914clip-2)"/><rect x="547.12" y="63.56" width="18.48" height="19.82" style="stroke-width: 1.0;stroke: rgb(0,0,0);stroke-opacity: 1.0;; fill: none" transform="matrix(1,0,0,1,0,0)" clip-path="url(#94503182662914clip-2)"/><line x1="547.12" y1="72.5" x2="565.6" y2="72.5" style="stroke-width: 1.0;stroke: rgb(0,0,0);stroke-opacity: 1.0;" transform="matrix(1,0,0,1,0,0)" clip-path="url(#94503182662914clip-2)"/><g style="stroke-width: 1.0;stroke: rgb(192,192,192);stroke-opacity: 1.0;; fill: none" transform="matrix(1,0,0,1,0,0)" clip-path="url(#94503182662914clip-2)"><path d="M 553.28 29.37 C 553.28 31.07 551.9 32.45 550.2 32.45 C 548.5 32.45 547.12 31.07 547.12 29.37 C 547.12 27.67 548.5 26.29 550.2 26.29 C 551.9 26.29 553.28 27.67 553.28 29.37 M 553.28 29.37"/></g><g style="stroke-width: 1.0;stroke: rgb(192,192,192);stroke-opacity: 1.0;; fill: none" transform="matrix(1,0,0,1,0,0)" clip-path="url(#94503182662914clip-2)"><path d="M 565.6 29.37 C 565.6 31.07 564.22 32.45 562.52 32.45 C 560.82 32.45 559.44 31.07 559.44 29.37 C 559.44 27.67 560.82 26.29 562.52 26.29 C 564.22 26.29 565.6 27.67 565.6 29.37 M 565.6 29.37"/></g><g style="stroke-width: 1.0;stroke: rgb(192,192,192);stroke-opacity: 1.0;; fill: none" transform="matrix(1,0,0,1,0,0)" clip-path="url(#94503182662914clip-2)"><path d="M 559.44 113.55 C 559.44 115.25 558.06 116.63 556.36 116.63 C 554.66 116.63 553.28 115.25 553.28 113.55 C 553.28 111.85 554.66 110.47 556.36 110.47 C 558.06 110.47 559.44 111.85 559.44 113.55 M 559.44 113.55"/></g><rect x="64" y="23" width="528" height="305" style="stroke-width: 0.5;stroke: rgb(128,128,128);stroke-opacity: 1.0;; fill: none" transform="matrix(1,0,0,1,0,0)" clip-path="url(#94503182662914clip-0)"/></svg>
