<!DOCTYPE svg PUBLIC "-//W3C//DTD SVG 1.1//EN" "http://www.w3.org/Graphics/SVG/1.1/DTD/svg11.dtd">
<svg xmlns="http://www.w3.org/2000/svg" xmlns:xlink="http://www.w3.org/1999/xlink" xmlns:jfreesvg="http://www.jfree.org/jfreesvg/svg" width="600" height="400" text-rendering="auto" shape-rendering="auto">
<defs><clipPath id="94503168940199clip-0"><path d="M 0 0 L 600 0 L 600 400 L 0 400 L 0 0 M 0 0"/></clipPath>
<clipPath id="94503168940199clip-1"><path d="M 194.43 156.57 L 194.43 756.57 L -205.57 756.57 L -205.57 156.57 L 194.43 156.57 M 194.43 156.57"/></clipPath>
<clipPath id="94503168940199clip-2"><path d="M 64 23 L 64 328 L 592 328 L 592 23 M 64 23"/></clipPath>
</defs>
<rect x="0" y="0" width="600" height="400" style="fill: rgb(238,238,238); fill-opacity: 1.0" transform="matrix(1,0,0,1,0,0)" clip-path="url(#94503168940199clip-0)"/><g style="fill: rgb(0,0,0); fill-opacity: 1.0; stroke: none" transform="matrix(1,0,0,1,0,0)" clip-path="url(#94503168940199clip-0)"><path d="M 276.77 14.54 L 276.77 5.81 L 273.15 5.81 L 273.15 4.42 L 282.51 4.42 L 282.51 5.81 L 278.89 5.81 L 278.89 14.54 M 276.77 14.54 M 297.41 14.13 Q 295.94 14.79 293.9 14.79 Q 291.41 14.79 290.02 13.39 Q 288.64 11.99 288.64 9.48 Q 288.64 6.92 290.03 5.54 Q 291.43 4.17 294.02 4.17 Q 295.68 4.17 297.31 4.55 L 297.31 6.2 Q 295.46 5.55 294.21 5.55 Q 292.61 5.55 291.74 6.57 Q 290.87 7.58 290.87 9.45 Q 290.87 11.28 291.8 12.31 Q 292.74 13.33 294.4 13.33 Q 295.89 13.33 297.41 12.58 M 297.41 14.13 M 299.26 14.54 L 299.26 3.74 L 301.29 3.74 L 301.29 8.44 Q 302.28 6.86 303.84 6.86 Q 304.85 6.86 305.43 7.49 Q 306.01 8.13 306.01 9.23 L 306.01 14.54 L 303.99 14.54 L 303.99 9.73 Q 303.99 8.45 303.14 8.45 Q 302.18 8.45 301.29 9.81 L 301.29 14.54 M 299.26 14.54 M 311.94 13.73 Q 310.93 14.71 309.78 14.71 Q 308.79 14.71 308.18 14.1 Q 307.56 13.5 307.56 12.55 Q 307.56 11.3 308.56 10.63 Q 309.55 9.96 311.4 9.96 L 311.94 9.96 L 311.94 9.27 Q 311.94 8.1 310.61 8.1 Q 309.43 8.1 308.22 8.77 L 308.22 7.38 Q 309.59 6.86 310.94 6.86 Q 313.88 6.86 313.88 9.2 L 313.88 12.53 Q 313.88 13.41 314.45 13.41 Q 314.55 13.41 314.72 13.38 L 314.77 14.51 Q 314.12 14.71 313.63 14.71 Q 312.39 14.71 312.03 13.73 M 311.94 13.73 M 311.94 12.64 L 311.94 11.12 L 311.46 11.12 Q 309.5 11.12 309.5 12.35 Q 309.5 12.76 309.79 13.05 Q 310.07 13.33 310.49 13.33 Q 311.2 13.33 311.94 12.64 M 311.94 12.64 M 316.26 14.54 L 316.26 7.03 L 318.29 7.03 L 318.29 8.44 Q 319.07 6.86 320.68 6.86 Q 320.87 6.86 321.06 6.9 L 321.06 8.7 Q 320.63 8.55 320.26 8.55 Q 319.05 8.55 318.29 9.77 L 318.29 14.54 M 316.26 14.54 M 326.13 14.49 Q 325.41 14.71 324.99 14.71 Q 322.36 14.71 322.36 12.25 L 322.36 8.29 L 321.52 8.29 L 321.52 7.03 L 322.36 7.03 L 322.36 5.76 L 324.38 5.53 L 324.38 7.03 L 325.99 7.03 L 325.99 8.29 L 324.38 8.29 L 324.38 11.98 Q 324.38 13.36 325.51 13.36 Q 325.77 13.36 326.13 13.26 M 326.13 14.49"/></g><rect x="262" y="373.33" width="76" height="25.67" style="fill: rgb(255,255,255); fill-opacity: 1.0" transform="matrix(1,0,0,1,0,0)" clip-path="url(#94503168940199clip-0)"/><line x1="262.5" y1="373.83" x2="337.5" y2="373.83" style="stroke-width: 1.0;stroke: rgb(0,0,0);stroke-opacity: 1.0;" transform="matrix(1,0,0,1,0,0)" clip-path="url(#94503168940199clip-0)"/><line x1="262.5" y1="398.5" x2="337.5" y2="398.5" style="stroke-width: 1.0;stroke: rgb(0,0,0);stroke-opacity: 1.0;" transform="matrix(1,0,0,1,0,0)" clip-path="url(#94503168940199clip-0)"/><line x1="262.5" y1="398.5" x2="262.5" y2="373.83" style="stroke-width: 1.0;stroke: rgb(0,0,0);stroke-opacity: 1.0;" transform="matrix(1,0,0,1,0,0)" clip-path="url(#94503168940199clip-0)"/><line x1="337.5" y1="398.5" x2="337.5" y2="373.83" style="stroke-width: 1.0;stroke: rgb(0,0,0);stroke-opacity: 1.0;" transform="matrix(1,0,0,1,0,0)" clip-path="url(#94503168940199clip-0)"/><g style="fill: rgb(192,192,192); fill-opacity: 1.0; stroke: none" transform="matrix(1,0,0,1,0,0)" clip-path="url(#94503168940199clip-0)"><path d="M 266 382.17 L 274 382.17 L 274 390.17 L 266 390.17 L 266 382.17 M 266 382.17"/></g><g style="stroke-width: 1.0;stroke: rgb(0,0,0);stroke-opacity: 1.0;; fill: none" transform="matrix(1,0,0,1,0,0)" clip-path="url(#94503168940199clip-0)"><path d="M 266 382.17 L 274 382.17 L 274 390.17 L 266 390.17 L 266 382.17 M 266 382.17"/></g><g style="fill: rgb(0,0,0); fill-opacity: 1.0; stroke: none" transform="matrix(1,0,0,1,0,0)" clip-path="url(#94503168940199clip-0)"><path d="M 281.52 392.11 Q 280.43 392.11 278.73 391.63 L 278.73 390.11 Q 280.56 390.96 281.74 390.96 Q 282.65 390.96 283.2 390.48 Q 283.76 390 283.76 389.23 Q 283.76 388.59 283.39 388.14 Q 283.03 387.7 282.06 387.15 L 281.31 386.72 Q 279.93 385.93 279.36 385.23 Q 278.79 384.53 278.79 383.6 Q 278.79 382.34 279.7 381.53 Q 280.61 380.73 282.01 380.73 Q 283.27 380.73 284.66 381.14 L 284.66 382.55 Q 282.94 381.88 282.1 381.88 Q 281.3 381.88 280.78 382.3 Q 280.26 382.72 280.26 383.37 Q 280.26 383.91 280.64 384.33 Q 281.02 384.75 282.04 385.32 L 282.81 385.76 Q 284.22 386.56 284.77 387.27 Q 285.33 387.98 285.33 388.98 Q 285.33 390.39 284.29 391.25 Q 283.24 392.11 281.52 392.11 M 281.52 392.11 M 294.27 391.58 Q 292.82 392.02 291.79 392.02 Q 290.03 392.02 288.92 390.85 Q 287.81 389.68 287.81 387.82 Q 287.81 386.01 288.79 384.86 Q 289.77 383.7 291.29 383.7 Q 292.73 383.7 293.52 384.72 Q 294.31 385.75 294.31 387.64 L 294.3 388.09 L 289.29 388.09 Q 289.6 390.92 292.06 390.92 Q 292.96 390.92 294.27 390.44 M 294.27 391.58 M 289.35 387 L 292.86 387 Q 292.86 384.78 291.2 384.78 Q 289.54 384.78 289.35 387 M 289.35 387 M 297.44 391.84 L 297.44 383.88 L 298.89 383.88 L 298.89 385.38 Q 299.74 383.71 301.38 383.71 Q 301.6 383.71 301.84 383.74 L 301.84 385.09 Q 301.46 384.97 301.18 384.97 Q 299.81 384.97 298.89 386.59 L 298.89 391.84 M 297.44 391.84 M 304.44 391.84 L 304.44 383.88 L 305.89 383.88 L 305.89 391.84 M 304.44 391.84 M 304.44 382.44 L 304.44 381 L 305.89 381 L 305.89 382.44 M 304.44 382.44 M 315.27 391.58 Q 313.82 392.02 312.79 392.02 Q 311.03 392.02 309.92 390.85 Q 308.81 389.68 308.81 387.82 Q 308.81 386.01 309.79 384.86 Q 310.77 383.7 312.29 383.7 Q 313.73 383.7 314.52 384.72 Q 315.31 385.75 315.31 387.64 L 315.3 388.09 L 310.29 388.09 Q 310.6 390.92 313.06 390.92 Q 313.96 390.92 315.27 390.44 M 315.27 391.58 M 310.35 387 L 313.86 387 Q 313.86 384.78 312.2 384.78 Q 310.54 384.78 310.35 387 M 310.35 387 M 320.55 392.02 Q 319.56 392.02 318.15 391.56 L 318.15 390.23 Q 319.56 390.94 320.61 390.94 Q 321.23 390.94 321.64 390.6 Q 322.05 390.26 322.05 389.76 Q 322.05 389.02 320.9 388.53 L 320.06 388.17 Q 318.19 387.4 318.19 385.94 Q 318.19 384.9 318.93 384.3 Q 319.67 383.71 320.95 383.71 Q 321.61 383.71 322.6 383.89 L 322.9 383.95 L 322.9 385.15 Q 321.69 384.79 320.98 384.79 Q 319.59 384.79 319.59 385.8 Q 319.59 386.45 320.64 386.9 L 321.34 387.19 Q 322.52 387.69 323.01 388.24 Q 323.5 388.8 323.5 389.62 Q 323.5 390.67 322.67 391.35 Q 321.84 392.02 320.55 392.02 M 320.55 392.02 M 332.26 391.84 L 332.26 390.75 L 334.42 390.75 L 334.42 382.2 L 332.26 382.74 L 332.26 381.63 L 335.87 380.73 L 335.87 390.75 L 338.04 390.75 L 338.04 391.84 M 332.26 391.84"/></g><rect x="64" y="23" width="528" height="305" style="fill: rgb(255,255,255); fill-opacity: 1.0" transform="matrix(1,0,0,1,0,0)" clip-path="url(#94503168940199clip-0)"/><line x1="64" y1="328" x2="592" y2="328" style="stroke-width: 1.0;stroke: rgb(128,128,128);stroke-opacity: 1.0;" transform="matrix(1,0,0,1,0,0)" clip-path="url(#94503168940199clip-0)"/><line x1="99.64" y1="328" x2="99.64" y2="328" style="stroke-width: 1.0;stroke: rgb(128,128,128);stroke-opacity: 1.0;" transform="matrix(1,0,0,1,0,0)" clip-path="url(#94503168940199clip-0)"/><line x1="99.64" y1="328" x2="99.64" y2="330" style="stroke-width: 1.0;stroke: rgb(128,128,128);stroke-opacity: 1.0;" transform="matrix(1,0,0,1,0,0)" clip-path="url(#94503168940199clip-0)"/><line x1="123.68" y1="328" x2="123.68" y2="328" style="stroke-width: 1.0;stroke: rgb(128,128,128);stroke-opacity: 1.0;" transform="matrix(1,0,0,1,0,0)" clip-path="url(#94503168940199clip-0)"/><line x1="123.68" y1="328" x2="123.68" y2="330" style="stroke-width: 1.0;stroke: rgb(128,128,128);stroke-opacity: 1.0;" transform="matrix(1,0,0,1,0,0)" clip-path="url(#94503168940199clip-0)"/><line x1="147.72" y1="328" x2="147.72" y2="328" style="stroke-width: 1.0;stroke: rgb(128,128,128);stroke-opacity: 1.0;" transform="matrix(1,0,0,1,0,0)" clip-path="url(#94503168940199clip-0)"/><line x1="147.72" y1="328" x2="147.72" y2="330" style="stroke-width: 1.0;stroke: rgb(128,128,128);stroke-opacity: 1.0;" transform="matrix(1,0,0,1,0,0)" clip-path="url(#94503168940199clip-0)"/><line x1="171.75" y1="328" x2="171.75" y2="328" style="stroke-width: 1.0;stroke: rgb(128,128,128);stroke-opacity: 1.0;" transform="matrix(1,0,0,1,0,0)" clip-path="url(#94503168940199clip-0)"/><line x1="171.75" y1="328" x2="171.75" y2="330" style="stroke-width: 1.0;stroke: rgb(128,128,128);stroke-opacity: 1.0;" transform="matrix(1,0,0,1,0,0)" clip-path="url(#94503168940199clip-0)"/><line x1="195.79" y1="328" x2="195.79" y2="328" style="stroke-width: 1.0;stroke: rgb(128,128,128);stroke-opacity: 1.0;" transform="matrix(1,0,0,1,0,0)" clip-path="url(#94503168940199clip-0)"/><line x1="195.79" y1="328" x2="195.79" y2="330" style="stroke-width: 1.0;stroke: rgb(128,128,128);stroke-opacity: 1.0;" transform="matrix(1,0,0,1,0,0)" clip-path="url(#94503168940199clip-0)"/><line x1="219.83" y1="328" x2="219.83" y2="328" style="stroke-width: 1.0;stroke: rgb(128,128,128);stroke-opacity: 1.0;" transform="matrix(1,0,0,1,0,0)" clip-path="url(#94503168940199clip-0)"/><line x1="219.83" y1="328" x2="219.83" y2="330" style="stroke-width: 1.0;stroke: rgb(128,128,128);stroke-opacity: 1.0;" transform="matrix(1,0,0,1,0,0)" clip-path="url(#94503168940199clip-0)"/><line x1="243.87" y1="328" x2="243.87" y2="328" style="stroke-width: 1.0;stroke: rgb(128,128,128);stroke-opacity: 1.0;" transform="matrix(1,0,0,1,0,0)" clip-path="url(#94503168940199clip-0)"/><line x1="243.87" y1="328" x2="243.87" y2="330" style="stroke-width: 1.0;stroke: rgb(128,128,128);stroke-opacity: 1.0;" transform="matrix(1,0,0,1,0,0)" clip-path="url(#94503168940199clip-0)"/><line x1="267.91" y1="328" x2="267.91" y2="328" style="stroke-width: 1.0;stroke: rgb(128,128,128);stroke-opacity: 1.0;" transform="matrix(1,0,0,1,0,0)" clip-path="url(#94503168940199clip-0)"/><line x1="267.91" y1="328" x2="267.91" y2="330" style="stroke-width: 1.0;stroke: rgb(128,128,128);stroke-opacity: 1.0;" transform="matrix(1,0,0,1,0,0)" clip-path="url(#94503168940199clip-0)"/><line x1="291.94" y1="328" x2="291.94" y2="328" style="stroke-width: 1.0;stroke: rgb(128,128,128);stroke-opacity: 1.0;" transform="matrix(1,0,0,1,0,0)" clip-path="url(#94503168940199clip-0)"/><line x1="291.94" y1="328" x2="291.94" y2="330" style="stroke-width: 1.0;stroke: rgb(128,128,128);stroke-opacity: 1.0;" transform="matrix(1,0,0,1,0,0)" clip-path="url(#94503168940199clip-0)"/><line x1="315.98" y1="328" x2="315.98" y2="328" style="stroke-width: 1.0;stroke: rgb(128,128,128);stroke-opacity: 1.0;" transform="matrix(1,0,0,1,0,0)" clip-path="url(#94503168940199clip-0)"/><line x1="315.98" y1="328" x2="315.98" y2="330" style="stroke-width: 1.0;stroke: rgb(128,128,128);stroke-opacity: 1.0;" transform="matrix(1,0,0,1,0,0)" clip-path="url(#94503168940199clip-0)"/><line x1="340.02" y1="328" x2="340.02" y2="328" style="stroke-width: 1.0;stroke: rgb(128,128,128);stroke-opacity: 1.0;" transform="matrix(1,0,0,1,0,0)" clip-path="url(#94503168940199clip-0)"/><line x1="340.02" y1="328" x2="340.02" y2="330" style="stroke-width: 1.0;stroke: rgb(128,128,128);stroke-opacity: 1.0;" transform="matrix(1,0,0,1,0,0)" clip-path="url(#94503168940199clip-0)"/><line x1="364.06" y1="328" x2="364.06" y2="328" style="stroke-width: 1.0;stroke: rgb(128,128,128);stroke-opacity: 1.0;" transform="matrix(1,0,0,1,0,0)" clip-path="url(#94503168940199clip-0)"/><line x1="364.06" y1="328" x2="364.06" y2="330" style="stroke-width: 1.0;stroke: rgb(128,128,128);stroke-opacity: 1.0;" transform="matrix(1,0,0,1,0,0)" clip-path="url(#94503168940199clip-0)"/><line x1="388.09" y1="328" x2="388.09" y2="328" style="stroke-width: 1.0;stroke: rgb(128,128,128);stroke-opacity: 1.0;" transform="matrix(1,0,0,1,0,0)" clip-path="url(#94503168940199clip-0)"/><line x1="388.09" y1="328" x2="388.09" y2="330" style="stroke-width: 1.0;stroke: rgb(128,128,128);stroke-opacity: 1.0;" transform="matrix(1,0,0,1,0,0)" clip-path="url(#94503168940199clip-0)"/><line x1="412.13" y1="328" x2="412.13" y2="328" style="stroke-width: 1.0;stroke: rgb(128,128,128);stroke-opacity: 1.0;" transform="matrix(1,0,0,1,0,0)" clip-path="url(#94503168940199clip-0)"/><line x1="412.13" y1="328" x2="412.13" y2="330" style="stroke-width: 1.0;stroke: rgb(128,128,128);stroke-opacity: 1.0;" transform="matrix(1,0,0,1,0,0)" clip-path="url(#94503168940199clip-0)"/><line x1="436.17" y1="328" x2="436.17" y2="328" style="stroke-width: 1.0;stroke: rgb(128,128,128);stroke-opacity: 1.0;" transform="matrix(1,0,0,1,0,0)" clip-path="url(#94503168940199clip-0)"/><line x1="436.17" y1="328" x2="436.17" y2="330" style="stroke-width: 1.0;stroke: rgb(128,128,128);stroke-opacity: 1.0;" transform="matrix(1,0,0,1,0,0)" clip-path="url(#94503168940199clip-0)"/><line x1="460.21" y1="328" x2="460.21" y2="328" style="stroke-width: 1.0;stroke: rgb(128,128,128);stroke-opacity: 1.0;" transform="matrix(1,0,0,1,0,0)" clip-path="url(#94503168940199clip-0)"/><line x1="460.21" y1="328" x2="460.21" y2="330" style="stroke-width: 1.0;stroke: rgb(128,128,128);stroke-opacity: 1.0;" transform="matrix(1,0,0,1,0,0)" clip-path="url(#94503168940199clip-0)"/><line x1="484.25" y1="328" x2="484.25" y2="328" style="stroke-width: 1.0;stroke: rgb(128,128,128);stroke-opacity: 1.0;" transform="matrix(1,0,0,1,0,0)" clip-path="url(#94503168940199clip-0)"/><line x1="484.25" y1="328" x2="484.25" y2="330" style="stroke-width: 1.0;stroke: rgb(128,128,128);stroke-opacity: 1.0;" transform="matrix(1,0,0,1,0,0)" clip-path="url(#94503168940199clip-0)"/><line x1="508.28" y1="328" x2="508.28" y2="328" style="stroke-width: 1.0;stroke: rgb(128,128,128);stroke-opacity: 1.0;" transform="matrix(1,0,0,1,0,0)" clip-path="url(#94503168940199clip-0)"/><line x1="508.28" y1="328" x2="508.28" y2="330" style="stroke-width: 1.0;stroke: rgb(128,128,128);stroke-opacity: 1.0;" transform="matrix(1,0,0,1,0,0)" clip-path="url(#94503168940199clip-0)"/><line x1="532.32" y1="328" x2="532.32" y2="328" style="stroke-width: 1.0;stroke: rgb(128,128,128);stroke-opacity: 1.0;" transform="matrix(1,0,0,1,0,0)" clip-path="url(#94503168940199clip-0)"/><line x1="532.32" y1="328" x2="532.32" y2="330" style="stroke-width: 1.0;stroke: rgb(128,128,128);stroke-opacity: 1.0;" transform="matrix(1,0,0,1,0,0)" clip-path="url(#94503168940199clip-0)"/><line x1="556.36" y1="328" x2="556.36" y2="328" style="stroke-width: 1.0;stroke: rgb(128,128,128);stroke-opacity: 1.0;" transform="matrix(1,0,0,1,0,0)" clip-path="url(#94503168940199clip-0)"/><line x1="556.36" y1="328" x2="556.36" y2="330" style="stroke-width: 1.0;stroke: rgb(128,128,128);stroke-opacity: 1.0;" transform="matrix(1,0,0,1,0,0)" clip-path="url(#94503168940199clip-0)"/><g style="fill: rgb(0,0,0); fill-opacity: 1.0; stroke: none" transform="matrix(1,0,0,1,0,0)" clip-path="url(#94503168940199clip-0)"><path d="M 98.14 343.67 L 98.14 342.95 L 99.59 342.95 L 99.59 337.24 L 98.14 337.6 L 98.14 336.86 L 100.56 336.26 L 100.56 342.95 L 102 342.95 L 102 343.67 M 98.14 343.67"/></g><g style="fill: rgb(0,0,0); fill-opacity: 1.0; stroke: none" transform="matrix(1,0,0,1,0,0)" clip-path="url(#94503168940199clip-0)"><path d="M 121.51 343.67 L 121.51 342.82 Q 121.93 341.84 123.21 340.68 L 123.76 340.19 Q 124.82 339.23 124.82 338.28 Q 124.82 337.68 124.46 337.33 Q 124.1 336.98 123.46 336.98 Q 122.71 336.98 121.69 337.56 L 121.69 336.71 Q 122.65 336.26 123.6 336.26 Q 124.61 336.26 125.23 336.81 Q 125.84 337.35 125.84 338.26 Q 125.84 338.91 125.53 339.41 Q 125.22 339.91 124.38 340.63 L 124.01 340.95 Q 122.85 341.93 122.67 342.82 L 125.81 342.82 L 125.81 343.67 M 121.51 343.67"/></g><g style="fill: rgb(0,0,0); fill-opacity: 1.0; stroke: none" transform="matrix(1,0,0,1,0,0)" clip-path="url(#94503168940199clip-0)"><path d="M 145.73 343.61 L 145.73 342.72 Q 146.77 343.13 147.36 343.13 Q 148.05 343.13 148.48 342.72 Q 148.92 342.32 148.92 341.68 Q 148.92 340.16 146.78 340.16 L 146.4 340.16 L 146.4 339.51 L 146.74 339.5 Q 148.74 339.5 148.74 338.09 Q 148.74 336.98 147.42 336.98 Q 146.7 336.98 145.83 337.39 L 145.83 336.55 Q 146.68 336.26 147.49 336.26 Q 149.71 336.26 149.71 337.94 Q 149.71 339.21 148.2 339.75 Q 149.95 340.16 149.95 341.67 Q 149.95 342.69 149.27 343.27 Q 148.6 343.85 147.42 343.85 Q 146.75 343.85 145.73 343.61 M 145.73 343.61"/></g><g style="fill: rgb(0,0,0); fill-opacity: 1.0; stroke: none" transform="matrix(1,0,0,1,0,0)" clip-path="url(#94503168940199clip-0)"><path d="M 172.52 343.67 L 172.52 341.62 L 169.27 341.62 L 169.27 340.89 L 172.52 336.44 L 173.42 336.44 L 173.42 340.84 L 174.39 340.84 L 174.39 341.62 L 173.42 341.62 L 173.42 343.67 M 172.52 343.67 M 170.21 340.84 L 172.58 340.84 L 172.58 337.62 M 170.21 340.84"/></g><g style="fill: rgb(0,0,0); fill-opacity: 1.0; stroke: none" transform="matrix(1,0,0,1,0,0)" clip-path="url(#94503168940199clip-0)"><path d="M 194.01 343.7 L 194.01 342.84 Q 194.73 343.13 195.37 343.13 Q 196.09 343.13 196.5 342.71 Q 196.9 342.29 196.9 341.55 Q 196.9 339.92 194.66 339.92 Q 194.41 339.92 194.13 339.96 L 194.13 336.44 L 197.79 336.44 L 197.79 337.28 L 194.97 337.28 L 194.97 339.19 Q 196.37 339.19 197.15 339.83 Q 197.93 340.46 197.93 341.6 Q 197.93 342.65 197.22 343.25 Q 196.51 343.85 195.25 343.85 Q 194.7 343.85 194.01 343.7 M 194.01 343.7"/></g><g style="fill: rgb(0,0,0); fill-opacity: 1.0; stroke: none" transform="matrix(1,0,0,1,0,0)" clip-path="url(#94503168940199clip-0)"><path d="M 218.55 339.92 Q 219.24 339.03 220.28 339.03 Q 221.23 339.03 221.83 339.66 Q 222.43 340.28 222.43 341.27 Q 222.43 342.39 221.76 343.12 Q 221.08 343.85 220.04 343.85 Q 218.85 343.85 218.17 342.89 Q 217.5 341.92 217.5 340.22 Q 217.5 338.34 218.27 337.3 Q 219.05 336.26 220.45 336.26 Q 221.1 336.26 222.06 336.53 L 222.06 337.37 Q 221.04 336.98 220.39 336.98 Q 218.55 336.98 218.55 339.92 M 218.55 339.92 M 221.47 341.48 Q 221.47 340.66 221.1 340.19 Q 220.73 339.72 220.08 339.72 Q 219.47 339.72 219.03 340.13 Q 218.59 340.54 218.59 341.12 Q 218.59 342.03 219 342.58 Q 219.42 343.13 220.11 343.13 Q 220.73 343.13 221.1 342.68 Q 221.47 342.23 221.47 341.48 M 221.47 341.48"/></g><g style="fill: rgb(0,0,0); fill-opacity: 1.0; stroke: none" transform="matrix(1,0,0,1,0,0)" clip-path="url(#94503168940199clip-0)"><path d="M 242.37 343.67 Q 242.51 342.82 242.77 342.21 Q 243.04 341.59 243.7 340.52 L 245.67 337.34 L 241.95 337.34 L 241.95 336.44 L 246.59 336.44 L 246.59 337.34 Q 243.81 341.44 243.48 343.67 M 242.37 343.67"/></g><g style="fill: rgb(0,0,0); fill-opacity: 1.0; stroke: none" transform="matrix(1,0,0,1,0,0)" clip-path="url(#94503168940199clip-0)"><path d="M 267.21 339.73 Q 266.15 339 266.15 338.1 Q 266.15 337.28 266.75 336.77 Q 267.35 336.26 268.31 336.26 Q 269.21 336.26 269.76 336.69 Q 270.32 337.12 270.32 337.82 Q 270.32 338.87 268.97 339.73 Q 270.6 340.53 270.6 341.8 Q 270.6 342.71 269.92 343.28 Q 269.23 343.85 268.15 343.85 Q 267.08 343.85 266.43 343.31 Q 265.77 342.77 265.77 341.89 Q 265.77 340.59 267.21 339.73 M 267.21 339.73 M 268.43 339.43 Q 269.44 338.77 269.44 337.95 Q 269.44 337.52 269.1 337.25 Q 268.77 336.98 268.22 336.98 Q 267.68 336.98 267.35 337.24 Q 267.02 337.51 267.02 337.92 Q 267.02 338.33 267.32 338.65 Q 267.62 338.97 268.43 339.43 M 268.43 339.43 M 267.73 340.12 Q 267.15 340.57 266.94 340.91 Q 266.73 341.24 266.73 341.74 Q 266.73 342.36 267.13 342.74 Q 267.53 343.13 268.19 343.13 Q 268.82 343.13 269.21 342.8 Q 269.61 342.47 269.61 341.95 Q 269.61 341.53 269.37 341.24 Q 269.12 340.95 268.41 340.53 M 267.73 340.12"/></g><g style="fill: rgb(0,0,0); fill-opacity: 1.0; stroke: none" transform="matrix(1,0,0,1,0,0)" clip-path="url(#94503168940199clip-0)"><path d="M 290.08 343.62 L 290.08 342.81 Q 291 343.13 291.64 343.13 Q 292.54 343.13 293.05 342.36 Q 293.55 341.6 293.55 340.24 Q 292.82 341.14 291.89 341.14 Q 290.97 341.14 290.34 340.47 Q 289.7 339.8 289.7 338.83 Q 289.7 337.72 290.38 336.99 Q 291.06 336.26 292.08 336.26 Q 293.26 336.26 293.94 337.21 Q 294.62 338.15 294.62 339.79 Q 294.62 341.66 293.79 342.75 Q 292.96 343.85 291.55 343.85 Q 290.98 343.85 290.08 343.62 M 290.08 343.62 M 290.67 338.64 Q 290.67 339.48 291.04 339.96 Q 291.41 340.45 292.06 340.45 Q 292.67 340.45 293.11 340.03 Q 293.54 339.62 293.54 339.03 Q 293.54 338.11 293.12 337.54 Q 292.7 336.98 292.02 336.98 Q 291.39 336.98 291.03 337.43 Q 290.67 337.87 290.67 338.64 M 290.67 338.64"/></g><g style="fill: rgb(0,0,0); fill-opacity: 1.0; stroke: none" transform="matrix(1,0,0,1,0,0)" clip-path="url(#94503168940199clip-0)"><path d="M 311.48 343.67 L 311.48 342.95 L 312.93 342.95 L 312.93 337.24 L 311.48 337.6 L 311.48 336.86 L 313.9 336.26 L 313.9 342.95 L 315.34 342.95 L 315.34 343.67 M 311.48 343.67 M 319.12 343.85 Q 318 343.85 317.31 342.8 Q 316.62 341.74 316.62 340.05 Q 316.62 338.34 317.31 337.3 Q 318.01 336.26 319.15 336.26 Q 320.28 336.26 320.98 337.3 Q 321.67 338.34 321.67 340.04 Q 321.67 341.77 320.98 342.81 Q 320.28 343.85 319.12 343.85 M 319.12 343.85 M 319.13 343.13 Q 320.65 343.13 320.65 340.02 Q 320.65 336.98 319.15 336.98 Q 317.64 336.98 317.64 340.05 Q 317.64 343.13 319.13 343.13 M 319.13 343.13"/></g><g style="fill: rgb(0,0,0); fill-opacity: 1.0; stroke: none" transform="matrix(1,0,0,1,0,0)" clip-path="url(#94503168940199clip-0)"><path d="M 335.52 343.67 L 335.52 342.95 L 336.97 342.95 L 336.97 337.24 L 335.52 337.6 L 335.52 336.86 L 337.93 336.26 L 337.93 342.95 L 339.38 342.95 L 339.38 343.67 M 335.52 343.67 M 341.52 343.67 L 341.52 342.95 L 342.97 342.95 L 342.97 337.24 L 341.52 337.6 L 341.52 336.86 L 343.93 336.26 L 343.93 342.95 L 345.38 342.95 L 345.38 343.67 M 341.52 343.67"/></g><g style="fill: rgb(0,0,0); fill-opacity: 1.0; stroke: none" transform="matrix(1,0,0,1,0,0)" clip-path="url(#94503168940199clip-0)"><path d="M 359.56 343.67 L 359.56 342.95 L 361.01 342.95 L 361.01 337.24 L 359.56 337.6 L 359.56 336.86 L 361.97 336.26 L 361.97 342.95 L 363.42 342.95 L 363.42 343.67 M 359.56 343.67 M 364.89 343.67 L 364.89 342.82 Q 365.31 341.84 366.59 340.68 L 367.14 340.19 Q 368.2 339.23 368.2 338.28 Q 368.2 337.68 367.84 337.33 Q 367.47 336.98 366.84 336.98 Q 366.09 336.98 365.07 337.56 L 365.07 336.71 Q 366.03 336.26 366.98 336.26 Q 367.99 336.26 368.61 336.81 Q 369.22 337.35 369.22 338.26 Q 369.22 338.91 368.91 339.41 Q 368.6 339.91 367.76 340.63 L 367.39 340.95 Q 366.23 341.93 366.05 342.82 L 369.19 342.82 L 369.19 343.67 M 364.89 343.67"/></g><g style="fill: rgb(0,0,0); fill-opacity: 1.0; stroke: none" transform="matrix(1,0,0,1,0,0)" clip-path="url(#94503168940199clip-0)"><path d="M 383.6 343.67 L 383.6 342.95 L 385.04 342.95 L 385.04 337.24 L 383.6 337.6 L 383.6 336.86 L 386.01 336.26 L 386.01 342.95 L 387.46 342.95 L 387.46 343.67 M 383.6 343.67 M 389.11 343.61 L 389.11 342.72 Q 390.15 343.13 390.74 343.13 Q 391.43 343.13 391.86 342.72 Q 392.29 342.32 392.29 341.68 Q 392.29 340.16 390.16 340.16 L 389.78 340.16 L 389.78 339.51 L 390.12 339.5 Q 392.12 339.5 392.12 338.09 Q 392.12 336.98 390.8 336.98 Q 390.08 336.98 389.21 337.39 L 389.21 336.55 Q 390.06 336.26 390.87 336.26 Q 393.08 336.26 393.08 337.94 Q 393.08 339.21 391.58 339.75 Q 393.32 340.16 393.32 341.67 Q 393.32 342.69 392.65 343.27 Q 391.98 343.85 390.8 343.85 Q 390.13 343.85 389.11 343.61 M 389.11 343.61"/></g><g style="fill: rgb(0,0,0); fill-opacity: 1.0; stroke: none" transform="matrix(1,0,0,1,0,0)" clip-path="url(#94503168940199clip-0)"><path d="M 407.64 343.67 L 407.64 342.95 L 409.08 342.95 L 409.08 337.24 L 407.64 337.6 L 407.64 336.86 L 410.05 336.26 L 410.05 342.95 L 411.49 342.95 L 411.49 343.67 M 407.64 343.67 M 415.9 343.67 L 415.9 341.62 L 412.65 341.62 L 412.65 340.89 L 415.9 336.44 L 416.8 336.44 L 416.8 340.84 L 417.77 340.84 L 417.77 341.62 L 416.8 341.62 L 416.8 343.67 M 415.9 343.67 M 413.59 340.84 L 415.96 340.84 L 415.96 337.62 M 413.59 340.84"/></g><g style="fill: rgb(0,0,0); fill-opacity: 1.0; stroke: none" transform="matrix(1,0,0,1,0,0)" clip-path="url(#94503168940199clip-0)"><path d="M 431.67 343.67 L 431.67 342.95 L 433.12 342.95 L 433.12 337.24 L 431.67 337.6 L 431.67 336.86 L 434.09 336.26 L 434.09 342.95 L 435.53 342.95 L 435.53 343.67 M 431.67 343.67 M 437.39 343.7 L 437.39 342.84 Q 438.1 343.13 438.75 343.13 Q 439.47 343.13 439.87 342.71 Q 440.28 342.29 440.28 341.55 Q 440.28 339.92 438.04 339.92 Q 437.79 339.92 437.51 339.96 L 437.51 336.44 L 441.17 336.44 L 441.17 337.28 L 438.35 337.28 L 438.35 339.19 Q 439.74 339.19 440.53 339.83 Q 441.31 340.46 441.31 341.6 Q 441.31 342.65 440.6 343.25 Q 439.89 343.85 438.63 343.85 Q 438.08 343.85 437.39 343.7 M 437.39 343.7"/></g><g style="fill: rgb(0,0,0); fill-opacity: 1.0; stroke: none" transform="matrix(1,0,0,1,0,0)" clip-path="url(#94503168940199clip-0)"><path d="M 455.71 343.67 L 455.71 342.95 L 457.16 342.95 L 457.16 337.24 L 455.71 337.6 L 455.71 336.86 L 458.12 336.26 L 458.12 342.95 L 459.57 342.95 L 459.57 343.67 M 455.71 343.67 M 461.93 339.92 Q 462.62 339.03 463.66 339.03 Q 464.61 339.03 465.21 339.66 Q 465.81 340.28 465.81 341.27 Q 465.81 342.39 465.14 343.12 Q 464.46 343.85 463.42 343.85 Q 462.23 343.85 461.55 342.89 Q 460.88 341.92 460.88 340.22 Q 460.88 338.34 461.65 337.3 Q 462.43 336.26 463.83 336.26 Q 464.48 336.26 465.44 336.53 L 465.44 337.37 Q 464.42 336.98 463.77 336.98 Q 461.93 336.98 461.93 339.92 M 461.93 339.92 M 464.85 341.48 Q 464.85 340.66 464.48 340.19 Q 464.11 339.72 463.46 339.72 Q 462.85 339.72 462.41 340.13 Q 461.97 340.54 461.97 341.12 Q 461.97 342.03 462.38 342.58 Q 462.8 343.13 463.49 343.13 Q 464.11 343.13 464.48 342.68 Q 464.85 342.23 464.85 341.48 M 464.85 341.48"/></g><g style="fill: rgb(0,0,0); fill-opacity: 1.0; stroke: none" transform="matrix(1,0,0,1,0,0)" clip-path="url(#94503168940199clip-0)"><path d="M 479.75 343.67 L 479.75 342.95 L 481.2 342.95 L 481.2 337.24 L 479.75 337.6 L 479.75 336.86 L 482.16 336.26 L 482.16 342.95 L 483.61 342.95 L 483.61 343.67 M 479.75 343.67 M 485.75 343.67 Q 485.89 342.82 486.15 342.21 Q 486.41 341.59 487.08 340.52 L 489.05 337.34 L 485.33 337.34 L 485.33 336.44 L 489.97 336.44 L 489.97 337.34 Q 487.19 341.44 486.86 343.67 M 485.75 343.67"/></g><g style="fill: rgb(0,0,0); fill-opacity: 1.0; stroke: none" transform="matrix(1,0,0,1,0,0)" clip-path="url(#94503168940199clip-0)"><path d="M 503.79 343.67 L 503.79 342.95 L 505.23 342.95 L 505.23 337.24 L 503.79 337.6 L 503.79 336.86 L 506.2 336.26 L 506.2 342.95 L 507.65 342.95 L 507.65 343.67 M 503.79 343.67 M 510.58 339.73 Q 509.52 339 509.52 338.1 Q 509.52 337.28 510.13 336.77 Q 510.73 336.26 511.69 336.26 Q 512.59 336.26 513.14 336.69 Q 513.69 337.12 513.69 337.82 Q 513.69 338.87 512.35 339.73 Q 513.98 340.53 513.98 341.8 Q 513.98 342.71 513.3 343.28 Q 512.61 343.85 511.53 343.85 Q 510.46 343.85 509.81 343.31 Q 509.15 342.77 509.15 341.89 Q 509.15 340.59 510.58 339.73 M 510.58 339.73 M 511.81 339.43 Q 512.82 338.77 512.82 337.95 Q 512.82 337.52 512.48 337.25 Q 512.15 336.98 511.59 336.98 Q 511.06 336.98 510.73 337.24 Q 510.4 337.51 510.4 337.92 Q 510.4 338.33 510.7 338.65 Q 511 338.97 511.81 339.43 M 511.81 339.43 M 511.11 340.12 Q 510.53 340.57 510.32 340.91 Q 510.11 341.24 510.11 341.74 Q 510.11 342.36 510.51 342.74 Q 510.91 343.13 511.57 343.13 Q 512.2 343.13 512.59 342.8 Q 512.99 342.47 512.99 341.95 Q 512.99 341.53 512.74 341.24 Q 512.5 340.95 511.79 340.53 M 511.11 340.12"/></g><g style="fill: rgb(0,0,0); fill-opacity: 1.0; stroke: none" transform="matrix(1,0,0,1,0,0)" clip-path="url(#94503168940199clip-0)"><path d="M 527.83 343.67 L 527.83 342.95 L 529.27 342.95 L 529.27 337.24 L 527.83 337.6 L 527.83 336.86 L 530.24 336.26 L 530.24 342.95 L 531.68 342.95 L 531.68 343.67 M 527.83 343.67 M 533.46 343.62 L 533.46 342.81 Q 534.38 343.13 535.02 343.13 Q 535.92 343.13 536.43 342.36 Q 536.93 341.6 536.93 340.24 Q 536.2 341.14 535.27 341.14 Q 534.35 341.14 533.72 340.47 Q 533.08 339.8 533.08 338.83 Q 533.08 337.72 533.76 336.99 Q 534.44 336.26 535.46 336.26 Q 536.64 336.26 537.32 337.21 Q 538 338.15 538 339.79 Q 538 341.66 537.17 342.75 Q 536.34 343.85 534.93 343.85 Q 534.36 343.85 533.46 343.62 M 533.46 343.62 M 534.05 338.64 Q 534.05 339.48 534.42 339.96 Q 534.79 340.45 535.44 340.45 Q 536.05 340.45 536.48 340.03 Q 536.92 339.62 536.92 339.03 Q 536.92 338.11 536.5 337.54 Q 536.08 336.98 535.4 336.98 Q 534.77 336.98 534.41 337.43 Q 534.05 337.87 534.05 338.64 M 534.05 338.64"/></g><g style="fill: rgb(0,0,0); fill-opacity: 1.0; stroke: none" transform="matrix(1,0,0,1,0,0)" clip-path="url(#94503168940199clip-0)"><path d="M 551.19 343.67 L 551.19 342.82 Q 551.61 341.84 552.89 340.68 L 553.44 340.19 Q 554.51 339.23 554.51 338.28 Q 554.51 337.68 554.14 337.33 Q 553.78 336.98 553.14 336.98 Q 552.39 336.98 551.37 337.56 L 551.37 336.71 Q 552.33 336.26 553.28 336.26 Q 554.3 336.26 554.91 336.81 Q 555.53 337.35 555.53 338.26 Q 555.53 338.91 555.22 339.41 Q 554.91 339.91 554.06 340.63 L 553.69 340.95 Q 552.53 341.93 552.35 342.82 L 555.49 342.82 L 555.49 343.67 M 551.19 343.67 M 559.49 343.85 Q 558.38 343.85 557.69 342.8 Q 556.99 341.74 556.99 340.05 Q 556.99 338.34 557.69 337.3 Q 558.39 336.26 559.52 336.26 Q 560.66 336.26 561.36 337.3 Q 562.05 338.34 562.05 340.04 Q 562.05 341.77 561.36 342.81 Q 560.66 343.85 559.49 343.85 M 559.49 343.85 M 559.5 343.13 Q 561.03 343.13 561.03 340.02 Q 561.03 336.98 559.52 336.98 Q 558.02 336.98 558.02 340.05 Q 558.02 343.13 559.5 343.13 M 559.5 343.13"/></g><g style="fill: rgb(0,0,0); fill-opacity: 1.0; stroke: none" transform="matrix(1,0,0,1,0,0)" clip-path="url(#94503168940199clip-0)"><path d="M 314.68 364.38 L 314.68 356.63 L 311.61 356.63 L 311.61 355.71 L 318.99 355.71 L 318.99 356.63 L 315.91 356.63 L 315.91 364.38 M 314.68 364.38 M 324.63 364.38 L 324.63 363.18 Q 323.71 364.53 322.4 364.53 Q 321.57 364.53 321.08 364 Q 320.58 363.48 320.58 362.59 L 320.58 358.02 L 321.74 358.02 L 321.74 362.21 Q 321.74 362.93 321.95 363.23 Q 322.15 363.53 322.64 363.53 Q 323.7 363.53 324.63 362.14 L 324.63 358.02 L 325.79 358.02 L 325.79 364.38 M 324.63 364.38 M 328.65 366.69 L 328.65 358.02 L 329.81 358.02 L 329.81 359.21 Q 330.52 357.88 331.94 357.88 Q 333.08 357.88 333.74 358.71 Q 334.4 359.55 334.4 361 Q 334.4 362.59 333.66 363.56 Q 332.91 364.53 331.69 364.53 Q 330.56 364.53 329.81 363.66 L 329.81 366.69 M 328.65 366.69 M 329.81 362.86 Q 330.7 363.66 331.51 363.66 Q 333.17 363.66 333.17 361.12 Q 333.17 358.88 331.7 358.88 Q 330.73 358.88 329.81 359.93 M 329.81 362.86 M 341.32 364.17 Q 340.16 364.53 339.33 364.53 Q 337.93 364.53 337.04 363.59 Q 336.15 362.66 336.15 361.17 Q 336.15 359.72 336.93 358.79 Q 337.71 357.87 338.93 357.87 Q 340.09 357.87 340.72 358.69 Q 341.35 359.51 341.35 361.02 L 341.34 361.38 L 337.33 361.38 Q 337.58 363.65 339.55 363.65 Q 340.27 363.65 341.32 363.26 M 341.32 364.17 M 337.38 360.51 L 340.19 360.51 Q 340.19 358.74 338.86 358.74 Q 337.53 358.74 337.38 360.51 M 337.38 360.51 M 343.65 364.38 L 343.65 355.13 L 344.81 355.13 L 344.81 364.38 M 343.65 364.38"/></g><line x1="64" y1="23" x2="64" y2="328" style="stroke-width: 1.0;stroke: rgb(128,128,128);stroke-opacity: 1.0;" transform="matrix(1,0,0,1,0,0)" clip-path="url(#94503168940199clip-0)"/><g style="fill: rgb(0,0,0); fill-opacity: 1.0; stroke: none" transform="matrix(1,0,0,1,0,0)" clip-path="url(#94503168940199clip-0)"><path d="M 34.13 331.96 Q 33.02 331.96 32.33 330.91 Q 31.63 329.86 31.63 328.16 Q 31.63 326.45 32.33 325.41 Q 33.03 324.37 34.16 324.37 Q 35.3 324.37 36 325.41 Q 36.69 326.45 36.69 328.15 Q 36.69 329.88 36 330.92 Q 35.3 331.96 34.13 331.96 M 34.13 331.96 M 34.14 331.24 Q 35.67 331.24 35.67 328.13 Q 35.67 325.09 34.16 325.09 Q 32.66 325.09 32.66 328.16 Q 32.66 331.24 34.14 331.24 M 34.14 331.24 M 37.98 331.78 L 37.98 330.57 L 39.18 330.57 L 39.18 331.78 M 37.98 331.78 M 43.13 331.96 Q 42.02 331.96 41.33 330.91 Q 40.63 329.86 40.63 328.16 Q 40.63 326.45 41.33 325.41 Q 42.03 324.37 43.16 324.37 Q 44.3 324.37 45 325.41 Q 45.69 326.45 45.69 328.15 Q 45.69 329.88 45 330.92 Q 44.3 331.96 43.13 331.96 M 43.13 331.96 M 43.14 331.24 Q 44.67 331.24 44.67 328.13 Q 44.67 325.09 43.16 325.09 Q 41.66 325.09 41.66 328.16 Q 41.66 331.24 43.14 331.24 M 43.14 331.24 M 49.13 331.96 Q 48.02 331.96 47.33 330.91 Q 46.63 329.86 46.63 328.16 Q 46.63 326.45 47.33 325.41 Q 48.03 324.37 49.16 324.37 Q 50.3 324.37 51 325.41 Q 51.69 326.45 51.69 328.15 Q 51.69 329.88 51 330.92 Q 50.3 331.96 49.13 331.96 M 49.13 331.96 M 49.14 331.24 Q 50.67 331.24 50.67 328.13 Q 50.67 325.09 49.16 325.09 Q 47.66 325.09 47.66 328.16 Q 47.66 331.24 49.14 331.24 M 49.14 331.24 M 55.13 331.96 Q 54.02 331.96 53.33 330.91 Q 52.63 329.86 52.63 328.16 Q 52.63 326.45 53.33 325.41 Q 54.03 324.37 55.16 324.37 Q 56.3 324.37 57 325.41 Q 57.69 326.45 57.69 328.15 Q 57.69 329.88 57 330.92 Q 56.3 331.96 55.13 331.96 M 55.13 331.96 M 55.14 331.24 Q 56.67 331.24 56.67 328.13 Q 56.67 325.09 55.16 325.09 Q 53.66 325.09 53.66 328.16 Q 53.66 331.24 55.14 331.24 M 55.14 331.24"/></g><line x1="62" y1="328" x2="64" y2="328" style="stroke-width: 1.0;stroke: rgb(128,128,128);stroke-opacity: 1.0;" transform="matrix(1,0,0,1,0,0)" clip-path="url(#94503168940199clip-0)"/><g style="fill: rgb(0,0,0); fill-opacity: 1.0; stroke: none" transform="matrix(1,0,0,1,0,0)" clip-path="url(#94503168940199clip-0)"><path d="M 34.13 308.61 Q 33.02 308.61 32.33 307.56 Q 31.63 306.51 31.63 304.81 Q 31.63 303.1 32.33 302.06 Q 33.03 301.02 34.16 301.02 Q 35.3 301.02 36 302.06 Q 36.69 303.1 36.69 304.8 Q 36.69 306.53 36 307.57 Q 35.3 308.61 34.13 308.61 M 34.13 308.61 M 34.14 307.89 Q 35.67 307.89 35.67 304.78 Q 35.67 301.74 34.16 301.74 Q 32.66 301.74 32.66 304.81 Q 32.66 307.89 34.14 307.89 M 34.14 307.89 M 37.98 308.43 L 37.98 307.22 L 39.18 307.22 L 39.18 308.43 M 37.98 308.43 M 43.13 308.61 Q 42.02 308.61 41.33 307.56 Q 40.63 306.51 40.63 304.81 Q 40.63 303.1 41.33 302.06 Q 42.03 301.02 43.16 301.02 Q 44.3 301.02 45 302.06 Q 45.69 303.1 45.69 304.8 Q 45.69 306.53 45 307.57 Q 44.3 308.61 43.13 308.61 M 43.13 308.61 M 43.14 307.89 Q 44.67 307.89 44.67 304.78 Q 44.67 301.74 43.16 301.74 Q 41.66 301.74 41.66 304.81 Q 41.66 307.89 43.14 307.89 M 43.14 307.89 M 46.83 308.43 L 46.83 307.58 Q 47.25 306.6 48.53 305.45 L 49.08 304.95 Q 50.15 303.99 50.15 303.04 Q 50.15 302.44 49.78 302.09 Q 49.42 301.74 48.78 301.74 Q 48.03 301.74 47.01 302.33 L 47.01 301.48 Q 47.97 301.02 48.92 301.02 Q 49.94 301.02 50.55 301.57 Q 51.17 302.12 51.17 303.02 Q 51.17 303.67 50.86 304.17 Q 50.55 304.67 49.7 305.39 L 49.33 305.71 Q 48.17 306.69 47.99 307.58 L 51.13 307.58 L 51.13 308.43 M 46.83 308.43 M 53.22 308.46 L 53.22 307.6 Q 53.93 307.89 54.58 307.89 Q 55.3 307.89 55.7 307.47 Q 56.11 307.05 56.11 306.31 Q 56.11 304.68 53.87 304.68 Q 53.62 304.68 53.34 304.72 L 53.34 301.2 L 57 301.2 L 57 302.04 L 54.18 302.04 L 54.18 303.95 Q 55.57 303.95 56.36 304.59 Q 57.14 305.23 57.14 306.36 Q 57.14 307.41 56.43 308.01 Q 55.72 308.61 54.46 308.61 Q 53.91 308.61 53.22 308.46 M 53.22 308.46"/></g><line x1="62" y1="304.65" x2="64" y2="304.65" style="stroke-width: 1.0;stroke: rgb(128,128,128);stroke-opacity: 1.0;" transform="matrix(1,0,0,1,0,0)" clip-path="url(#94503168940199clip-0)"/><g style="fill: rgb(0,0,0); fill-opacity: 1.0; stroke: none" transform="matrix(1,0,0,1,0,0)" clip-path="url(#94503168940199clip-0)"><path d="M 34.13 285.26 Q 33.02 285.26 32.33 284.21 Q 31.63 283.15 31.63 281.46 Q 31.63 279.75 32.33 278.71 Q 33.03 277.67 34.16 277.67 Q 35.3 277.67 36 278.71 Q 36.69 279.75 36.69 281.45 Q 36.69 283.18 36 284.22 Q 35.3 285.26 34.13 285.26 M 34.13 285.26 M 34.14 284.54 Q 35.67 284.54 35.67 281.43 Q 35.67 278.39 34.16 278.39 Q 32.66 278.39 32.66 281.46 Q 32.66 284.54 34.14 284.54 M 34.14 284.54 M 37.98 285.08 L 37.98 283.87 L 39.18 283.87 L 39.18 285.08 M 37.98 285.08 M 43.13 285.26 Q 42.02 285.26 41.33 284.21 Q 40.63 283.15 40.63 281.46 Q 40.63 279.75 41.33 278.71 Q 42.03 277.67 43.16 277.67 Q 44.3 277.67 45 278.71 Q 45.69 279.75 45.69 281.45 Q 45.69 283.18 45 284.22 Q 44.3 285.26 43.13 285.26 M 43.13 285.26 M 43.14 284.54 Q 44.67 284.54 44.67 281.43 Q 44.67 278.39 43.16 278.39 Q 41.66 278.39 41.66 281.46 Q 41.66 284.54 43.14 284.54 M 43.14 284.54 M 47.22 285.11 L 47.22 284.25 Q 47.93 284.54 48.58 284.54 Q 49.3 284.54 49.7 284.12 Q 50.11 283.7 50.11 282.96 Q 50.11 281.33 47.87 281.33 Q 47.62 281.33 47.34 281.37 L 47.34 277.85 L 51 277.85 L 51 278.69 L 48.18 278.69 L 48.18 280.6 Q 49.57 280.6 50.36 281.24 Q 51.14 281.88 51.14 283.01 Q 51.14 284.06 50.43 284.66 Q 49.72 285.26 48.46 285.26 Q 47.91 285.26 47.22 285.11 M 47.22 285.11 M 55.13 285.26 Q 54.02 285.26 53.33 284.21 Q 52.63 283.15 52.63 281.46 Q 52.63 279.75 53.33 278.71 Q 54.03 277.67 55.16 277.67 Q 56.3 277.67 57 278.71 Q 57.69 279.75 57.69 281.45 Q 57.69 283.18 57 284.22 Q 56.3 285.26 55.13 285.26 M 55.13 285.26 M 55.14 284.54 Q 56.67 284.54 56.67 281.43 Q 56.67 278.39 55.16 278.39 Q 53.66 278.39 53.66 281.46 Q 53.66 284.54 55.14 284.54 M 55.14 284.54"/></g><line x1="62" y1="281.3" x2="64" y2="281.3" style="stroke-width: 1.0;stroke: rgb(128,128,128);stroke-opacity: 1.0;" transform="matrix(1,0,0,1,0,0)" clip-path="url(#94503168940199clip-0)"/><g style="fill: rgb(0,0,0); fill-opacity: 1.0; stroke: none" transform="matrix(1,0,0,1,0,0)" clip-path="url(#94503168940199clip-0)"><path d="M 34.13 261.91 Q 33.02 261.91 32.33 260.86 Q 31.63 259.8 31.63 258.11 Q 31.63 256.4 32.33 255.36 Q 33.03 254.32 34.16 254.32 Q 35.3 254.32 36 255.36 Q 36.69 256.4 36.69 258.1 Q 36.69 259.83 36 260.87 Q 35.3 261.91 34.13 261.91 M 34.13 261.91 M 34.14 261.19 Q 35.67 261.19 35.67 258.08 Q 35.67 255.04 34.16 255.04 Q 32.66 255.04 32.66 258.11 Q 32.66 261.19 34.14 261.19 M 34.14 261.19 M 37.98 261.73 L 37.98 260.52 L 39.18 260.52 L 39.18 261.73 M 37.98 261.73 M 43.13 261.91 Q 42.02 261.91 41.33 260.86 Q 40.63 259.8 40.63 258.11 Q 40.63 256.4 41.33 255.36 Q 42.03 254.32 43.16 254.32 Q 44.3 254.32 45 255.36 Q 45.69 256.4 45.69 258.1 Q 45.69 259.83 45 260.87 Q 44.3 261.91 43.13 261.91 M 43.13 261.91 M 43.14 261.19 Q 44.67 261.19 44.67 258.08 Q 44.67 255.04 43.16 255.04 Q 41.66 255.04 41.66 258.11 Q 41.66 261.19 43.14 261.19 M 43.14 261.19 M 47.5 261.73 Q 47.65 260.88 47.91 260.27 Q 48.17 259.65 48.83 258.58 L 50.8 255.41 L 47.08 255.41 L 47.08 254.5 L 51.72 254.5 L 51.72 255.41 Q 48.94 259.5 48.61 261.73 M 47.5 261.73 M 53.22 261.76 L 53.22 260.9 Q 53.93 261.19 54.58 261.19 Q 55.3 261.19 55.7 260.77 Q 56.11 260.35 56.11 259.61 Q 56.11 257.98 53.87 257.98 Q 53.62 257.98 53.34 258.02 L 53.34 254.5 L 57 254.5 L 57 255.34 L 54.18 255.34 L 54.18 257.25 Q 55.57 257.25 56.36 257.89 Q 57.14 258.53 57.14 259.66 Q 57.14 260.71 56.43 261.31 Q 55.72 261.91 54.46 261.91 Q 53.91 261.91 53.22 261.76 M 53.22 261.76"/></g><line x1="62" y1="257.95" x2="64" y2="257.95" style="stroke-width: 1.0;stroke: rgb(128,128,128);stroke-opacity: 1.0;" transform="matrix(1,0,0,1,0,0)" clip-path="url(#94503168940199clip-0)"/><g style="fill: rgb(0,0,0); fill-opacity: 1.0; stroke: none" transform="matrix(1,0,0,1,0,0)" clip-path="url(#94503168940199clip-0)"><path d="M 34.13 238.56 Q 33.02 238.56 32.33 237.51 Q 31.63 236.45 31.63 234.76 Q 31.63 233.05 32.33 232.01 Q 33.03 230.97 34.16 230.97 Q 35.3 230.97 36 232.01 Q 36.69 233.05 36.69 234.75 Q 36.69 236.48 36 237.52 Q 35.3 238.56 34.13 238.56 M 34.13 238.56 M 34.14 237.84 Q 35.67 237.84 35.67 234.73 Q 35.67 231.69 34.16 231.69 Q 32.66 231.69 32.66 234.76 Q 32.66 237.84 34.14 237.84 M 34.14 237.84 M 37.98 238.38 L 37.98 237.17 L 39.18 237.17 L 39.18 238.38 M 37.98 238.38 M 41.5 238.38 L 41.5 237.66 L 42.95 237.66 L 42.95 231.95 L 41.5 232.31 L 41.5 231.57 L 43.92 230.97 L 43.92 237.66 L 45.36 237.66 L 45.36 238.38 M 41.5 238.38 M 49.13 238.56 Q 48.02 238.56 47.33 237.51 Q 46.63 236.45 46.63 234.76 Q 46.63 233.05 47.33 232.01 Q 48.03 230.97 49.16 230.97 Q 50.3 230.97 51 232.01 Q 51.69 233.05 51.69 234.75 Q 51.69 236.48 51 237.52 Q 50.3 238.56 49.13 238.56 M 49.13 238.56 M 49.14 237.84 Q 50.67 237.84 50.67 234.73 Q 50.67 231.69 49.16 231.69 Q 47.66 231.69 47.66 234.76 Q 47.66 237.84 49.14 237.84 M 49.14 237.84 M 55.13 238.56 Q 54.02 238.56 53.33 237.51 Q 52.63 236.45 52.63 234.76 Q 52.63 233.05 53.33 232.01 Q 54.03 230.97 55.16 230.97 Q 56.3 230.97 57 232.01 Q 57.69 233.05 57.69 234.75 Q 57.69 236.48 57 237.52 Q 56.3 238.56 55.13 238.56 M 55.13 238.56 M 55.14 237.84 Q 56.67 237.84 56.67 234.73 Q 56.67 231.69 55.16 231.69 Q 53.66 231.69 53.66 234.76 Q 53.66 237.84 55.14 237.84 M 55.14 237.84"/></g><line x1="62" y1="234.6" x2="64" y2="234.6" style="stroke-width: 1.0;stroke: rgb(128,128,128);stroke-opacity: 1.0;" transform="matrix(1,0,0,1,0,0)" clip-path="url(#94503168940199clip-0)"/><g style="fill: rgb(0,0,0); fill-opacity: 1.0; stroke: none" transform="matrix(1,0,0,1,0,0)" clip-path="url(#94503168940199clip-0)"><path d="M 34.13 215.21 Q 33.02 215.21 32.33 214.16 Q 31.63 213.1 31.63 211.41 Q 31.63 209.7 32.33 208.66 Q 33.03 207.62 34.16 207.62 Q 35.3 207.62 36 208.66 Q 36.69 209.7 36.69 211.4 Q 36.69 213.13 36 214.17 Q 35.3 215.21 34.13 215.21 M 34.13 215.21 M 34.14 214.49 Q 35.67 214.49 35.67 211.38 Q 35.67 208.34 34.16 208.34 Q 32.66 208.34 32.66 211.41 Q 32.66 214.49 34.14 214.49 M 34.14 214.49 M 37.98 215.03 L 37.98 213.82 L 39.18 213.82 L 39.18 215.03 M 37.98 215.03 M 41.5 215.03 L 41.5 214.31 L 42.95 214.31 L 42.95 208.6 L 41.5 208.96 L 41.5 208.22 L 43.92 207.62 L 43.92 214.31 L 45.36 214.31 L 45.36 215.03 M 41.5 215.03 M 46.83 215.03 L 46.83 214.18 Q 47.25 213.2 48.53 212.04 L 49.08 211.55 Q 50.15 210.59 50.15 209.64 Q 50.15 209.04 49.78 208.69 Q 49.42 208.34 48.78 208.34 Q 48.03 208.34 47.01 208.92 L 47.01 208.07 Q 47.97 207.62 48.92 207.62 Q 49.94 207.62 50.55 208.17 Q 51.17 208.71 51.17 209.62 Q 51.17 210.27 50.86 210.77 Q 50.55 211.27 49.7 211.99 L 49.33 212.31 Q 48.17 213.29 47.99 214.18 L 51.13 214.18 L 51.13 215.03 M 46.83 215.03 M 53.22 215.06 L 53.22 214.2 Q 53.93 214.49 54.58 214.49 Q 55.3 214.49 55.7 214.07 Q 56.11 213.65 56.11 212.91 Q 56.11 211.28 53.87 211.28 Q 53.62 211.28 53.34 211.32 L 53.34 207.8 L 57 207.8 L 57 208.64 L 54.18 208.64 L 54.18 210.55 Q 55.57 210.55 56.36 211.19 Q 57.14 211.82 57.14 212.96 Q 57.14 214.01 56.43 214.61 Q 55.72 215.21 54.46 215.21 Q 53.91 215.21 53.22 215.06 M 53.22 215.06"/></g><line x1="62" y1="211.25" x2="64" y2="211.25" style="stroke-width: 1.0;stroke: rgb(128,128,128);stroke-opacity: 1.0;" transform="matrix(1,0,0,1,0,0)" clip-path="url(#94503168940199clip-0)"/><g style="fill: rgb(0,0,0); fill-opacity: 1.0; stroke: none" transform="matrix(1,0,0,1,0,0)" clip-path="url(#94503168940199clip-0)"><path d="M 34.13 191.86 Q 33.02 191.86 32.33 190.81 Q 31.63 189.75 31.63 188.06 Q 31.63 186.35 32.33 185.31 Q 33.03 184.27 34.16 184.27 Q 35.3 184.27 36 185.31 Q 36.69 186.35 36.69 188.04 Q 36.69 189.78 36 190.82 Q 35.3 191.86 34.13 191.86 M 34.13 191.86 M 34.14 191.14 Q 35.67 191.14 35.67 188.03 Q 35.67 184.99 34.16 184.99 Q 32.66 184.99 32.66 188.06 Q 32.66 191.14 34.14 191.14 M 34.14 191.14 M 37.98 191.68 L 37.98 190.47 L 39.18 190.47 L 39.18 191.68 M 37.98 191.68 M 41.5 191.68 L 41.5 190.96 L 42.95 190.96 L 42.95 185.25 L 41.5 185.61 L 41.5 184.87 L 43.92 184.27 L 43.92 190.96 L 45.36 190.96 L 45.36 191.68 M 41.5 191.68 M 47.22 191.71 L 47.22 190.85 Q 47.93 191.14 48.58 191.14 Q 49.3 191.14 49.7 190.72 Q 50.11 190.3 50.11 189.56 Q 50.11 187.93 47.87 187.93 Q 47.62 187.93 47.34 187.97 L 47.34 184.45 L 51 184.45 L 51 185.29 L 48.18 185.29 L 48.18 187.2 Q 49.57 187.2 50.36 187.83 Q 51.14 188.47 51.14 189.61 Q 51.14 190.66 50.43 191.26 Q 49.72 191.86 48.46 191.86 Q 47.91 191.86 47.22 191.71 M 47.22 191.71 M 55.13 191.86 Q 54.02 191.86 53.33 190.81 Q 52.63 189.75 52.63 188.06 Q 52.63 186.35 53.33 185.31 Q 54.03 184.27 55.16 184.27 Q 56.3 184.27 57 185.31 Q 57.69 186.35 57.69 188.04 Q 57.69 189.78 57 190.82 Q 56.3 191.86 55.13 191.86 M 55.13 191.86 M 55.14 191.14 Q 56.67 191.14 56.67 188.03 Q 56.67 184.99 55.16 184.99 Q 53.66 184.99 53.66 188.06 Q 53.66 191.14 55.14 191.14 M 55.14 191.14"/></g><line x1="62" y1="187.9" x2="64" y2="187.9" style="stroke-width: 1.0;stroke: rgb(128,128,128);stroke-opacity: 1.0;" transform="matrix(1,0,0,1,0,0)" clip-path="url(#94503168940199clip-0)"/><g style="fill: rgb(0,0,0); fill-opacity: 1.0; stroke: none" transform="matrix(1,0,0,1,0,0)" clip-path="url(#94503168940199clip-0)"><path d="M 34.13 168.51 Q 33.02 168.51 32.33 167.46 Q 31.63 166.4 31.63 164.71 Q 31.63 163 32.33 161.96 Q 33.03 160.92 34.16 160.92 Q 35.3 160.92 36 161.96 Q 36.69 163 36.69 164.69 Q 36.69 166.43 36 167.47 Q 35.3 168.51 34.13 168.51 M 34.13 168.51 M 34.14 167.79 Q 35.67 167.79 35.67 164.68 Q 35.67 161.64 34.16 161.64 Q 32.66 161.64 32.66 164.71 Q 32.66 167.79 34.14 167.79 M 34.14 167.79 M 37.98 168.33 L 37.98 167.12 L 39.18 167.12 L 39.18 168.33 M 37.98 168.33 M 41.5 168.33 L 41.5 167.6 L 42.95 167.6 L 42.95 161.9 L 41.5 162.26 L 41.5 161.52 L 43.92 160.92 L 43.92 167.6 L 45.36 167.6 L 45.36 168.33 M 41.5 168.33 M 47.5 168.33 Q 47.65 167.48 47.91 166.87 Q 48.17 166.25 48.83 165.18 L 50.8 162 L 47.08 162 L 47.08 161.1 L 51.72 161.1 L 51.72 162 Q 48.94 166.1 48.61 168.33 M 47.5 168.33 M 53.22 168.36 L 53.22 167.5 Q 53.93 167.79 54.58 167.79 Q 55.3 167.79 55.7 167.37 Q 56.11 166.95 56.11 166.21 Q 56.11 164.58 53.87 164.58 Q 53.62 164.58 53.34 164.62 L 53.34 161.1 L 57 161.1 L 57 161.94 L 54.18 161.94 L 54.18 163.84 Q 55.57 163.84 56.36 164.48 Q 57.14 165.12 57.14 166.26 Q 57.14 167.31 56.43 167.91 Q 55.72 168.51 54.46 168.51 Q 53.91 168.51 53.22 168.36 M 53.22 168.36"/></g><line x1="62" y1="164.55" x2="64" y2="164.55" style="stroke-width: 1.0;stroke: rgb(128,128,128);stroke-opacity: 1.0;" transform="matrix(1,0,0,1,0,0)" clip-path="url(#94503168940199clip-0)"/><g style="fill: rgb(0,0,0); fill-opacity: 1.0; stroke: none" transform="matrix(1,0,0,1,0,0)" clip-path="url(#94503168940199clip-0)"><path d="M 34.13 145.16 Q 33.02 145.16 32.33 144.11 Q 31.63 143.05 31.63 141.36 Q 31.63 139.65 32.33 138.61 Q 33.03 137.57 34.16 137.57 Q 35.3 137.57 36 138.61 Q 36.69 139.65 36.69 141.34 Q 36.69 143.08 36 144.12 Q 35.3 145.16 34.13 145.16 M 34.13 145.16 M 34.14 144.44 Q 35.67 144.44 35.67 141.33 Q 35.67 138.29 34.16 138.29 Q 32.66 138.29 32.66 141.36 Q 32.66 144.44 34.14 144.44 M 34.14 144.44 M 37.98 144.98 L 37.98 143.77 L 39.18 143.77 L 39.18 144.98 M 37.98 144.98 M 40.83 144.98 L 40.83 144.13 Q 41.25 143.15 42.53 141.99 L 43.08 141.5 Q 44.15 140.54 44.15 139.59 Q 44.15 138.99 43.78 138.64 Q 43.42 138.29 42.78 138.29 Q 42.03 138.29 41.01 138.87 L 41.01 138.02 Q 41.97 137.57 42.92 137.57 Q 43.94 137.57 44.55 138.12 Q 45.17 138.66 45.17 139.57 Q 45.17 140.22 44.86 140.72 Q 44.55 141.22 43.7 141.94 L 43.33 142.26 Q 42.17 143.24 41.99 144.13 L 45.13 144.13 L 45.13 144.98 M 40.83 144.98 M 49.13 145.16 Q 48.02 145.16 47.33 144.11 Q 46.63 143.05 46.63 141.36 Q 46.63 139.65 47.33 138.61 Q 48.03 137.57 49.16 137.57 Q 50.3 137.57 51 138.61 Q 51.69 139.65 51.69 141.34 Q 51.69 143.08 51 144.12 Q 50.3 145.16 49.13 145.16 M 49.13 145.16 M 49.14 144.44 Q 50.67 144.44 50.67 141.33 Q 50.67 138.29 49.16 138.29 Q 47.66 138.29 47.66 141.36 Q 47.66 144.44 49.14 144.44 M 49.14 144.44 M 55.13 145.16 Q 54.02 145.16 53.33 144.11 Q 52.63 143.05 52.63 141.36 Q 52.63 139.65 53.33 138.61 Q 54.03 137.57 55.16 137.57 Q 56.3 137.57 57 138.61 Q 57.69 139.65 57.69 141.34 Q 57.69 143.08 57 144.12 Q 56.3 145.16 55.13 145.16 M 55.13 145.16 M 55.14 144.44 Q 56.67 144.44 56.67 141.33 Q 56.67 138.29 55.16 138.29 Q 53.66 138.29 53.66 141.36 Q 53.66 144.44 55.14 144.44 M 55.14 144.44"/></g><line x1="62" y1="141.2" x2="64" y2="141.2" style="stroke-width: 1.0;stroke: rgb(128,128,128);stroke-opacity: 1.0;" transform="matrix(1,0,0,1,0,0)" clip-path="url(#94503168940199clip-0)"/><g style="fill: rgb(0,0,0); fill-opacity: 1.0; stroke: none" transform="matrix(1,0,0,1,0,0)" clip-path="url(#94503168940199clip-0)"><path d="M 34.13 121.81 Q 33.02 121.81 32.33 120.76 Q 31.63 119.7 31.63 118.01 Q 31.63 116.3 32.33 115.26 Q 33.03 114.22 34.16 114.22 Q 35.3 114.22 36 115.26 Q 36.69 116.3 36.69 117.99 Q 36.69 119.73 36 120.77 Q 35.3 121.81 34.13 121.81 M 34.13 121.81 M 34.14 121.08 Q 35.67 121.08 35.67 117.98 Q 35.67 114.94 34.16 114.94 Q 32.66 114.94 32.66 118.01 Q 32.66 121.08 34.14 121.08 M 34.14 121.08 M 37.98 121.63 L 37.98 120.42 L 39.18 120.42 L 39.18 121.63 M 37.98 121.63 M 40.83 121.63 L 40.83 120.78 Q 41.25 119.8 42.53 118.64 L 43.08 118.15 Q 44.15 117.19 44.15 116.24 Q 44.15 115.64 43.78 115.29 Q 43.42 114.94 42.78 114.94 Q 42.03 114.94 41.01 115.52 L 41.01 114.67 Q 41.97 114.22 42.92 114.22 Q 43.94 114.22 44.55 114.77 Q 45.17 115.31 45.17 116.22 Q 45.17 116.87 44.86 117.37 Q 44.55 117.87 43.7 118.59 L 43.33 118.91 Q 42.17 119.89 41.99 120.78 L 45.13 120.78 L 45.13 121.63 M 40.83 121.63 M 46.83 121.63 L 46.83 120.78 Q 47.25 119.8 48.53 118.64 L 49.08 118.15 Q 50.15 117.19 50.15 116.24 Q 50.15 115.64 49.78 115.29 Q 49.42 114.94 48.78 114.94 Q 48.03 114.94 47.01 115.52 L 47.01 114.67 Q 47.97 114.22 48.92 114.22 Q 49.94 114.22 50.55 114.77 Q 51.17 115.31 51.17 116.22 Q 51.17 116.87 50.86 117.37 Q 50.55 117.87 49.7 118.59 L 49.33 118.91 Q 48.17 119.89 47.99 120.78 L 51.13 120.78 L 51.13 121.63 M 46.83 121.63 M 53.22 121.66 L 53.22 120.8 Q 53.93 121.08 54.58 121.08 Q 55.3 121.08 55.7 120.66 Q 56.11 120.25 56.11 119.51 Q 56.11 117.88 53.87 117.88 Q 53.62 117.88 53.34 117.92 L 53.34 114.4 L 57 114.4 L 57 115.24 L 54.18 115.24 L 54.18 117.14 Q 55.57 117.14 56.36 117.78 Q 57.14 118.42 57.14 119.56 Q 57.14 120.61 56.43 121.21 Q 55.72 121.81 54.46 121.81 Q 53.91 121.81 53.22 121.66 M 53.22 121.66"/></g><line x1="62" y1="117.85" x2="64" y2="117.85" style="stroke-width: 1.0;stroke: rgb(128,128,128);stroke-opacity: 1.0;" transform="matrix(1,0,0,1,0,0)" clip-path="url(#94503168940199clip-0)"/><g style="fill: rgb(0,0,0); fill-opacity: 1.0; stroke: none" transform="matrix(1,0,0,1,0,0)" clip-path="url(#94503168940199clip-0)"><path d="M 34.13 98.46 Q 33.02 98.46 32.33 97.41 Q 31.63 96.35 31.63 94.66 Q 31.63 92.95 32.33 91.91 Q 33.03 90.87 34.16 90.87 Q 35.3 90.87 36 91.91 Q 36.69 92.95 36.69 94.64 Q 36.69 96.38 36 97.42 Q 35.3 98.46 34.13 98.46 M 34.13 98.46 M 34.14 97.73 Q 35.67 97.73 35.67 94.63 Q 35.67 91.59 34.16 91.59 Q 32.66 91.59 32.66 94.66 Q 32.66 97.73 34.14 97.73 M 34.14 97.73 M 37.98 98.28 L 37.98 97.07 L 39.18 97.07 L 39.18 98.28 M 37.98 98.28 M 40.83 98.28 L 40.83 97.43 Q 41.25 96.45 42.53 95.29 L 43.08 94.8 Q 44.15 93.84 44.15 92.89 Q 44.15 92.29 43.78 91.94 Q 43.42 91.59 42.78 91.59 Q 42.03 91.59 41.01 92.17 L 41.01 91.32 Q 41.97 90.87 42.92 90.87 Q 43.94 90.87 44.55 91.42 Q 45.17 91.96 45.17 92.87 Q 45.17 93.52 44.86 94.02 Q 44.55 94.52 43.7 95.24 L 43.33 95.56 Q 42.17 96.54 41.99 97.43 L 45.13 97.43 L 45.13 98.28 M 40.83 98.28 M 47.22 98.31 L 47.22 97.45 Q 47.93 97.73 48.58 97.73 Q 49.3 97.73 49.7 97.31 Q 50.11 96.89 50.11 96.16 Q 50.11 94.53 47.87 94.53 Q 47.62 94.53 47.34 94.57 L 47.34 91.05 L 51 91.05 L 51 91.89 L 48.18 91.89 L 48.18 93.79 Q 49.57 93.79 50.36 94.43 Q 51.14 95.07 51.14 96.21 Q 51.14 97.26 50.43 97.86 Q 49.72 98.46 48.46 98.46 Q 47.91 98.46 47.22 98.31 M 47.22 98.31 M 55.13 98.46 Q 54.02 98.46 53.33 97.41 Q 52.63 96.35 52.63 94.66 Q 52.63 92.95 53.33 91.91 Q 54.03 90.87 55.16 90.87 Q 56.3 90.87 57 91.91 Q 57.69 92.95 57.69 94.64 Q 57.69 96.38 57 97.42 Q 56.3 98.46 55.13 98.46 M 55.13 98.46 M 55.14 97.73 Q 56.67 97.73 56.67 94.63 Q 56.67 91.59 55.16 91.59 Q 53.66 91.59 53.66 94.66 Q 53.66 97.73 55.14 97.73 M 55.14 97.73"/></g><line x1="62" y1="94.5" x2="64" y2="94.5" style="stroke-width: 1.0;stroke: rgb(128,128,128);stroke-opacity: 1.0;" transform="matrix(1,0,0,1,0,0)" clip-path="url(#94503168940199clip-0)"/><g style="fill: rgb(0,0,0); fill-opacity: 1.0; stroke: none" transform="matrix(1,0,0,1,0,0)" clip-path="url(#94503168940199clip-0)"><path d="M 34.13 75.11 Q 33.02 75.11 32.33 74.05 Q 31.63 73 31.63 71.31 Q 31.63 69.6 32.33 68.56 Q 33.03 67.52 34.16 67.52 Q 35.3 67.52 36 68.56 Q 36.69 69.6 36.69 71.29 Q 36.69 73.03 36 74.07 Q 35.3 75.11 34.13 75.11 M 34.13 75.11 M 34.14 74.38 Q 35.67 74.38 35.67 71.28 Q 35.67 68.24 34.16 68.24 Q 32.66 68.24 32.66 71.31 Q 32.66 74.38 34.14 74.38 M 34.14 74.38 M 37.98 74.93 L 37.98 73.72 L 39.18 73.72 L 39.18 74.93 M 37.98 74.93 M 40.83 74.93 L 40.83 74.08 Q 41.25 73.1 42.53 71.94 L 43.08 71.45 Q 44.15 70.49 44.15 69.54 Q 44.15 68.94 43.78 68.59 Q 43.42 68.24 42.78 68.24 Q 42.03 68.24 41.01 68.82 L 41.01 67.97 Q 41.97 67.52 42.92 67.52 Q 43.94 67.52 44.55 68.07 Q 45.17 68.61 45.17 69.52 Q 45.17 70.17 44.86 70.67 Q 44.55 71.17 43.7 71.89 L 43.33 72.21 Q 42.17 73.19 41.99 74.08 L 45.13 74.08 L 45.13 74.93 M 40.83 74.93 M 47.5 74.93 Q 47.65 74.08 47.91 73.47 Q 48.17 72.85 48.83 71.78 L 50.8 68.6 L 47.08 68.6 L 47.08 67.7 L 51.72 67.7 L 51.72 68.6 Q 48.94 72.7 48.61 74.93 M 47.5 74.93 M 53.22 74.96 L 53.22 74.1 Q 53.93 74.38 54.58 74.38 Q 55.3 74.38 55.7 73.96 Q 56.11 73.54 56.11 72.81 Q 56.11 71.18 53.87 71.18 Q 53.62 71.18 53.34 71.22 L 53.34 67.7 L 57 67.7 L 57 68.54 L 54.18 68.54 L 54.18 70.44 Q 55.57 70.44 56.36 71.08 Q 57.14 71.72 57.14 72.86 Q 57.14 73.91 56.43 74.51 Q 55.72 75.11 54.46 75.11 Q 53.91 75.11 53.22 74.96 M 53.22 74.96"/></g><line x1="62" y1="71.15" x2="64" y2="71.15" style="stroke-width: 1.0;stroke: rgb(128,128,128);stroke-opacity: 1.0;" transform="matrix(1,0,0,1,0,0)" clip-path="url(#94503168940199clip-0)"/><g style="fill: rgb(0,0,0); fill-opacity: 1.0; stroke: none" transform="matrix(1,0,0,1,0,0)" clip-path="url(#94503168940199clip-0)"><path d="M 34.13 51.76 Q 33.02 51.76 32.33 50.7 Q 31.63 49.65 31.63 47.96 Q 31.63 46.25 32.33 45.21 Q 33.03 44.17 34.16 44.17 Q 35.3 44.17 36 45.21 Q 36.69 46.25 36.69 47.94 Q 36.69 49.68 36 50.72 Q 35.3 51.76 34.13 51.76 M 34.13 51.76 M 34.14 51.03 Q 35.67 51.03 35.67 47.93 Q 35.67 44.89 34.16 44.89 Q 32.66 44.89 32.66 47.96 Q 32.66 51.03 34.14 51.03 M 34.14 51.03 M 37.98 51.58 L 37.98 50.37 L 39.18 50.37 L 39.18 51.58 M 37.98 51.58 M 41.02 51.52 L 41.02 50.62 Q 42.05 51.03 42.65 51.03 Q 43.33 51.03 43.77 50.63 Q 44.2 50.23 44.2 49.59 Q 44.2 48.07 42.07 48.07 L 41.68 48.07 L 41.68 47.42 L 42.02 47.41 Q 44.02 47.41 44.02 46 Q 44.02 44.89 42.71 44.89 Q 41.98 44.89 41.11 45.3 L 41.11 44.46 Q 41.97 44.17 42.77 44.17 Q 44.99 44.17 44.99 45.84 Q 44.99 47.12 43.48 47.66 Q 45.23 48.07 45.23 49.57 Q 45.23 50.59 44.56 51.18 Q 43.88 51.76 42.71 51.76 Q 42.04 51.76 41.02 51.52 M 41.02 51.52 M 49.13 51.76 Q 48.02 51.76 47.33 50.7 Q 46.63 49.65 46.63 47.96 Q 46.63 46.25 47.33 45.21 Q 48.03 44.17 49.16 44.17 Q 50.3 44.17 51 45.21 Q 51.69 46.25 51.69 47.94 Q 51.69 49.68 51 50.72 Q 50.3 51.76 49.13 51.76 M 49.13 51.76 M 49.14 51.03 Q 50.67 51.03 50.67 47.93 Q 50.67 44.89 49.16 44.89 Q 47.66 44.89 47.66 47.96 Q 47.66 51.03 49.14 51.03 M 49.14 51.03 M 55.13 51.76 Q 54.02 51.76 53.33 50.7 Q 52.63 49.65 52.63 47.96 Q 52.63 46.25 53.33 45.21 Q 54.03 44.17 55.16 44.17 Q 56.3 44.17 57 45.21 Q 57.69 46.25 57.69 47.94 Q 57.69 49.68 57 50.72 Q 56.3 51.76 55.13 51.76 M 55.13 51.76 M 55.14 51.03 Q 56.67 51.03 56.67 47.93 Q 56.67 44.89 55.16 44.89 Q 53.66 44.89 53.66 47.96 Q 53.66 51.03 55.14 51.03 M 55.14 51.03"/></g><line x1="62" y1="47.8" x2="64" y2="47.8" style="stroke-width: 1.0;stroke: rgb(128,128,128);stroke-opacity: 1.0;" transform="matrix(1,0,0,1,0,0)" clip-path="url(#94503168940199clip-0)"/><g style="fill: rgb(0,0,0); fill-opacity: 1.0; stroke: none" transform="matrix(1,0,0,1,0,0)" clip-path="url(#94503168940199clip-0)"><path d="M 34.13 28.41 Q 33.02 28.41 32.33 27.35 Q 31.63 26.3 31.63 24.61 Q 31.63 22.9 32.33 21.86 Q 33.03 20.82 34.16 20.82 Q 35.3 20.82 36 21.86 Q 36.69 22.9 36.69 24.59 Q 36.69 26.33 36 27.37 Q 35.3 28.41 34.13 28.41 M 34.13 28.41 M 34.14 27.68 Q 35.67 27.68 35.67 24.58 Q 35.67 21.54 34.16 21.54 Q 32.66 21.54 32.66 24.61 Q 32.66 27.68 34.14 27.68 M 34.14 27.68 M 37.98 28.23 L 37.98 27.02 L 39.18 27.02 L 39.18 28.23 M 37.98 28.23 M 41.02 28.17 L 41.02 27.27 Q 42.05 27.68 42.65 27.68 Q 43.33 27.68 43.77 27.28 Q 44.2 26.88 44.2 26.24 Q 44.2 24.72 42.07 24.72 L 41.68 24.72 L 41.68 24.07 L 42.02 24.06 Q 44.02 24.06 44.02 22.65 Q 44.02 21.54 42.71 21.54 Q 41.98 21.54 41.11 21.95 L 41.11 21.11 Q 41.97 20.82 42.77 20.82 Q 44.99 20.82 44.99 22.49 Q 44.99 23.77 43.48 24.31 Q 45.23 24.72 45.23 26.22 Q 45.23 27.24 44.56 27.83 Q 43.88 28.41 42.71 28.41 Q 42.04 28.41 41.02 28.17 M 41.02 28.17 M 46.83 28.23 L 46.83 27.38 Q 47.25 26.4 48.53 25.24 L 49.08 24.75 Q 50.15 23.79 50.15 22.84 Q 50.15 22.23 49.78 21.89 Q 49.42 21.54 48.78 21.54 Q 48.03 21.54 47.01 22.12 L 47.01 21.27 Q 47.97 20.82 48.92 20.82 Q 49.94 20.82 50.55 21.37 Q 51.17 21.91 51.17 22.82 Q 51.17 23.47 50.86 23.97 Q 50.55 24.47 49.7 25.19 L 49.33 25.51 Q 48.17 26.49 47.99 27.38 L 51.13 27.38 L 51.13 28.23 M 46.83 28.23 M 53.22 28.26 L 53.22 27.4 Q 53.93 27.68 54.58 27.68 Q 55.3 27.68 55.7 27.26 Q 56.11 26.84 56.11 26.11 Q 56.11 24.48 53.87 24.48 Q 53.62 24.48 53.34 24.51 L 53.34 21 L 57 21 L 57 21.84 L 54.18 21.84 L 54.18 23.74 Q 55.57 23.74 56.36 24.38 Q 57.14 25.02 57.14 26.16 Q 57.14 27.21 56.43 27.81 Q 55.72 28.41 54.46 28.41 Q 53.91 28.41 53.22 28.26 M 53.22 28.26"/></g><line x1="62" y1="24.45" x2="64" y2="24.45" style="stroke-width: 1.0;stroke: rgb(128,128,128);stroke-opacity: 1.0;" transform="matrix(1,0,0,1,0,0)" clip-path="url(#94503168940199clip-0)"/><g style="fill: rgb(0,0,0); fill-opacity: 1.0; stroke: none" transform="matrix(0,-1,1,0,-156.566406,194.433594)" clip-path="url(#94503168940199clip-1)"><path d="M 6.42 180.04 L 3.14 171.36 L 4.38 171.36 L 7.06 178.46 L 9.65 171.36 L 10.73 171.36 L 7.58 180.04 M 6.42 180.04 M 15.37 179.23 Q 14.33 180.18 13.37 180.18 Q 12.58 180.18 12.06 179.69 Q 11.54 179.19 11.54 178.44 Q 11.54 177.39 12.41 176.83 Q 13.29 176.27 14.92 176.27 L 15.2 176.27 L 15.2 175.51 Q 15.2 174.4 14.06 174.4 Q 13.15 174.4 12.09 174.96 L 12.09 174.01 Q 13.25 173.53 14.27 173.53 Q 15.34 173.53 15.85 174.01 Q 16.35 174.49 16.35 175.51 L 16.35 178.39 Q 16.35 179.38 16.96 179.38 Q 17.04 179.38 17.19 179.36 L 17.27 179.99 Q 16.88 180.18 16.4 180.18 Q 15.59 180.18 15.37 179.23 M 15.37 179.23 M 15.2 178.6 L 15.2 176.95 L 14.81 176.94 Q 13.86 176.94 13.28 177.3 Q 12.69 177.66 12.69 178.25 Q 12.69 178.66 12.98 178.95 Q 13.28 179.24 13.7 179.24 Q 14.42 179.24 15.2 178.6 M 15.2 178.6 M 19.09 180.04 L 19.09 170.78 L 20.24 170.78 L 20.24 180.04 M 19.09 180.04 M 27.07 180.04 L 27.07 178.84 Q 26.15 180.18 24.83 180.18 Q 24 180.18 23.51 179.66 Q 23.02 179.13 23.02 178.24 L 23.02 173.67 L 24.17 173.67 L 24.17 177.87 Q 24.17 178.58 24.38 178.88 Q 24.59 179.19 25.07 179.19 Q 26.13 179.19 27.07 177.8 L 27.07 173.67 L 28.22 173.67 L 28.22 180.04 M 27.07 180.04 M 35.75 179.83 Q 34.59 180.18 33.77 180.18 Q 32.36 180.18 31.47 179.25 Q 30.58 178.31 30.58 176.82 Q 30.58 175.38 31.37 174.45 Q 32.15 173.53 33.37 173.53 Q 34.52 173.53 35.15 174.35 Q 35.78 175.17 35.78 176.68 L 35.78 177.04 L 31.76 177.04 Q 32.01 179.3 33.98 179.3 Q 34.7 179.3 35.75 178.92 M 35.75 179.83 M 31.81 176.17 L 34.62 176.17 Q 34.62 174.39 33.3 174.39 Q 31.97 174.39 31.81 176.17 M 31.81 176.17"/></g><line x1="64" y1="328" x2="592" y2="328" style="stroke-width: 0.5;stroke: rgb(192,192,192);stroke-opacity: 1.0;stroke-dasharray: 2.0, 2.0;" transform="matrix(1,0,0,1,0,0)" clip-path="url(#94503168940199clip-2)"/><line x1="64" y1="304.65" x2="592" y2="304.65" style="stroke-width: 0.5;stroke: rgb(192,192,192);stroke-opacity: 1.0;stroke-dasharray: 2.0, 2.0;" transform="matrix(1,0,0,1,0,0)" clip-path="url(#94503168940199clip-2)"/><line x1="64" y1="281.3" x2="592" y2="281.3" style="stroke-width: 0.5;stroke: rgb(192,192,192);stroke-opacity: 1.0;stroke-dasharray: 2.0, 2.0;" transform="matrix(1,0,0,1,0,0)" clip-path="url(#94503168940199clip-2)"/><line x1="64" y1="257.95" x2="592" y2="257.95" style="stroke-width: 0.5;stroke: rgb(192,192,192);stroke-opacity: 1.0;stroke-dasharray: 2.0, 2.0;" transform="matrix(1,0,0,1,0,0)" clip-path="url(#94503168940199clip-2)"/><line x1="64" y1="234.6" x2="592" y2="234.6" style="stroke-width: 0.5;stroke: rgb(192,192,192);stroke-opacity: 1.0;stroke-dasharray: 2.0, 2.0;" transform="matrix(1,0,0,1,0,0)" clip-path="url(#94503168940199clip-2)"/><line x1="64" y1="211.25" x2="592" y2="211.25" style="stroke-width: 0.5;stroke: rgb(192,192,192);stroke-opacity: 1.0;stroke-dasharray: 2.0, 2.0;" transform="matrix(1,0,0,1,0,0)" clip-path="url(#94503168940199clip-2)"/><line x1="64" y1="187.9" x2="592" y2="187.9" style="stroke-width: 0.5;stroke: rgb(192,192,192);stroke-opacity: 1.0;stroke-dasharray: 2.0, 2.0;" transform="matrix(1,0,0,1,0,0)" clip-path="url(#94503168940199clip-2)"/><line x1="64" y1="164.55" x2="592" y2="164.55" style="stroke-width: 0.5;stroke: rgb(192,192,192);stroke-opacity: 1.0;stroke-dasharray: 2.0, 2.0;" transform="matrix(1,0,0,1,0,0)" clip-path="url(#94503168940199clip-2)"/><line x1="64" y1="141.2" x2="592" y2="141.2" style="stroke-width: 0.5;stroke: rgb(192,192,192);stroke-opacity: 1.0;stroke-dasharray: 2.0, 2.0;" transform="matrix(1,0,0,1,0,0)" clip-path="url(#94503168940199clip-2)"/><line x1="64" y1="117.85" x2="592" y2="117.85" style="stroke-width: 0.5;stroke: rgb(192,192,192);stroke-opacity: 1.0;stroke-dasharray: 2.0, 2.0;" transform="matrix(1,0,0,1,0,0)" clip-path="url(#94503168940199clip-2)"/><line x1="64" y1="94.5" x2="592" y2="94.5" style="stroke-width: 0.5;stroke: rgb(192,192,192);stroke-opacity: 1.0;stroke-dasharray: 2.0, 2.0;" transform="matrix(1,0,0,1,0,0)" clip-path="url(#94503168940199clip-2)"/><line x1="64" y1="71.15" x2="592" y2="71.15" style="stroke-width: 0.5;stroke: rgb(192,192,192);stroke-opacity: 1.0;stroke-dasharray: 2.0, 2.0;" transform="matrix(1,0,0,1,0,0)" clip-path="url(#94503168940199clip-2)"/><line x1="64" y1="47.8" x2="592" y2="47.8" style="stroke-width: 0.5;stroke: rgb(192,192,192);stroke-opacity: 1.0;stroke-dasharray: 2.0, 2.0;" transform="matrix(1,0,0,1,0,0)" clip-path="url(#94503168940199clip-2)"/><line x1="64" y1="24.45" x2="592" y2="24.45" style="stroke-width: 0.5;stroke: rgb(192,192,192);stroke-opacity: 1.0;stroke-dasharray: 2.0, 2.0;" transform="matrix(1,0,0,1,0,0)" clip-path="url(#94503168940199clip-2)"/><line x1="99.64" y1="74.2" x2="99.64" y2="74.2" style="stroke-width: 1.0;stroke: rgb(0,0,0);stroke-opacity: 1.0;" transform="matrix(1,0,0,1,0,0)" clip-path="url(#94503168940199clip-2)"/><line x1="90.4" y1="74.2" x2="108.88" y2="74.2" style="stroke-width: 1.0;stroke: rgb(0,0,0);stroke-opacity: 1.0;" transform="matrix(1,0,0,1,0,0)" clip-path="url(#94503168940199clip-2)"/><line x1="99.64" y1="74.2" x2="99.64" y2="74.2" style="stroke-width: 1.0;stroke: rgb(0,0,0);stroke-opacity: 1.0;" transform="matrix(1,0,0,1,0,0)" clip-path="url(#94503168940199clip-2)"/><line x1="90.4" y1="74.2" x2="108.88" y2="74.2" style="stroke-width: 1.0;stroke: rgb(0,0,0);stroke-opacity: 1.0;" transform="matrix(1,0,0,1,0,0)" clip-path="url(#94503168940199clip-2)"/><rect x="90.4" y="74.2" width="18.48" height="0" style="stroke-width: 1.0;stroke: rgb(0,0,0);stroke-opacity: 1.0;; fill: none" transform="matrix(1,0,0,1,0,0)" clip-path="url(#94503168940199clip-2)"/><line x1="90.4" y1="74.2" x2="108.88" y2="74.2" style="stroke-width: 1.0;stroke: rgb(0,0,0);stroke-opacity: 1.0;" transform="matrix(1,0,0,1,0,0)" clip-path="url(#94503168940199clip-2)"/><rect x="114.44" y="71.63" width="18.48" height="5.13" style="fill: rgb(192,192,192); fill-opacity: 1.0" transform="matrix(1,0,0,1,0,0)" clip-path="url(#94503168940199clip-2)"/><line x1="123.68" y1="69.06" x2="123.68" y2="71.63" style="stroke-width: 1.0;stroke: rgb(0,0,0);stroke-opacity: 1.0;" transform="matrix(1,0,0,1,0,0)" clip-path="url(#94503168940199clip-2)"/><line x1="114.44" y1="69.06" x2="132.92" y2="69.06" style="stroke-width: 1.0;stroke: rgb(0,0,0);stroke-opacity: 1.0;" transform="matrix(1,0,0,1,0,0)" clip-path="url(#94503168940199clip-2)"/><line x1="123.68" y1="79.33" x2="123.68" y2="76.76" style="stroke-width: 1.0;stroke: rgb(0,0,0);stroke-opacity: 1.0;" transform="matrix(1,0,0,1,0,0)" clip-path="url(#94503168940199clip-2)"/><line x1="114.44" y1="79.33" x2="132.92" y2="79.33" style="stroke-width: 1.0;stroke: rgb(0,0,0);stroke-opacity: 1.0;" transform="matrix(1,0,0,1,0,0)" clip-path="url(#94503168940199clip-2)"/><rect x="114.44" y="71.63" width="18.48" height="5.13" style="stroke-width: 1.0;stroke: rgb(0,0,0);stroke-opacity: 1.0;; fill: none" transform="matrix(1,0,0,1,0,0)" clip-path="url(#94503168940199clip-2)"/><line x1="114.44" y1="74.2" x2="132.92" y2="74.2" style="stroke-width: 1.0;stroke: rgb(0,0,0);stroke-opacity: 1.0;" transform="matrix(1,0,0,1,0,0)" clip-path="url(#94503168940199clip-2)"/><rect x="138.48" y="69.06" width="18.48" height="10.27" style="fill: rgb(192,192,192); fill-opacity: 1.0" transform="matrix(1,0,0,1,0,0)" clip-path="url(#94503168940199clip-2)"/><line x1="147.72" y1="55.9" x2="147.72" y2="69.06" style="stroke-width: 1.0;stroke: rgb(0,0,0);stroke-opacity: 1.0;" transform="matrix(1,0,0,1,0,0)" clip-path="url(#94503168940199clip-2)"/><line x1="138.48" y1="55.9" x2="156.96" y2="55.9" style="stroke-width: 1.0;stroke: rgb(0,0,0);stroke-opacity: 1.0;" transform="matrix(1,0,0,1,0,0)" clip-path="url(#94503168940199clip-2)"/><line x1="147.72" y1="88.83" x2="147.72" y2="79.33" style="stroke-width: 1.0;stroke: rgb(0,0,0);stroke-opacity: 1.0;" transform="matrix(1,0,0,1,0,0)" clip-path="url(#94503168940199clip-2)"/><line x1="138.48" y1="88.83" x2="156.96" y2="88.83" style="stroke-width: 1.0;stroke: rgb(0,0,0);stroke-opacity: 1.0;" transform="matrix(1,0,0,1,0,0)" clip-path="url(#94503168940199clip-2)"/><rect x="138.48" y="69.06" width="18.48" height="10.27" style="stroke-width: 1.0;stroke: rgb(0,0,0);stroke-opacity: 1.0;; fill: none" transform="matrix(1,0,0,1,0,0)" clip-path="url(#94503168940199clip-2)"/><line x1="138.48" y1="76.03" x2="156.96" y2="76.03" style="stroke-width: 1.0;stroke: rgb(0,0,0);stroke-opacity: 1.0;" transform="matrix(1,0,0,1,0,0)" clip-path="url(#94503168940199clip-2)"/><rect x="162.51" y="69.06" width="18.48" height="10.27" style="fill: rgb(192,192,192); fill-opacity: 1.0" transform="matrix(1,0,0,1,0,0)" clip-path="url(#94503168940199clip-2)"/><line x1="171.75" y1="55.9" x2="171.75" y2="69.06" style="stroke-width: 1.0;stroke: rgb(0,0,0);stroke-opacity: 1.0;" transform="matrix(1,0,0,1,0,0)" clip-path="url(#94503168940199clip-2)"/><line x1="162.51" y1="55.9" x2="180.99" y2="55.9" style="stroke-width: 1.0;stroke: rgb(0,0,0);stroke-opacity: 1.0;" transform="matrix(1,0,0,1,0,0)" clip-path="url(#94503168940199clip-2)"/><line x1="171.75" y1="88.83" x2="171.75" y2="79.33" style="stroke-width: 1.0;stroke: rgb(0,0,0);stroke-opacity: 1.0;" transform="matrix(1,0,0,1,0,0)" clip-path="url(#94503168940199clip-2)"/><line x1="162.51" y1="88.83" x2="180.99" y2="88.83" style="stroke-width: 1.0;stroke: rgb(0,0,0);stroke-opacity: 1.0;" transform="matrix(1,0,0,1,0,0)" clip-path="url(#94503168940199clip-2)"/><rect x="162.51" y="69.06" width="18.48" height="10.27" style="stroke-width: 1.0;stroke: rgb(0,0,0);stroke-opacity: 1.0;; fill: none" transform="matrix(1,0,0,1,0,0)" clip-path="url(#94503168940199clip-2)"/><line x1="162.51" y1="74.7" x2="180.99" y2="74.7" style="stroke-width: 1.0;stroke: rgb(0,0,0);stroke-opacity: 1.0;" transform="matrix(1,0,0,1,0,0)" clip-path="url(#94503168940199clip-2)"/><rect x="186.55" y="69.77" width="18.48" height="8.82" style="fill: rgb(192,192,192); fill-opacity: 1.0" transform="matrix(1,0,0,1,0,0)" clip-path="url(#94503168940199clip-2)"/><line x1="195.79" y1="67.65" x2="195.79" y2="69.77" style="stroke-width: 1.0;stroke: rgb(0,0,0);stroke-opacity: 1.0;" transform="matrix(1,0,0,1,0,0)" clip-path="url(#94503168940199clip-2)"/><line x1="186.55" y1="67.65" x2="205.03" y2="67.65" style="stroke-width: 1.0;stroke: rgb(0,0,0);stroke-opacity: 1.0;" transform="matrix(1,0,0,1,0,0)" clip-path="url(#94503168940199clip-2)"/><line x1="195.79" y1="88.83" x2="195.79" y2="78.59" style="stroke-width: 1.0;stroke: rgb(0,0,0);stroke-opacity: 1.0;" transform="matrix(1,0,0,1,0,0)" clip-path="url(#94503168940199clip-2)"/><line x1="186.55" y1="88.83" x2="205.03" y2="88.83" style="stroke-width: 1.0;stroke: rgb(0,0,0);stroke-opacity: 1.0;" transform="matrix(1,0,0,1,0,0)" clip-path="url(#94503168940199clip-2)"/><rect x="186.55" y="69.77" width="18.48" height="8.82" style="stroke-width: 1.0;stroke: rgb(0,0,0);stroke-opacity: 1.0;; fill: none" transform="matrix(1,0,0,1,0,0)" clip-path="url(#94503168940199clip-2)"/><line x1="186.55" y1="74.2" x2="205.03" y2="74.2" style="stroke-width: 1.0;stroke: rgb(0,0,0);stroke-opacity: 1.0;" transform="matrix(1,0,0,1,0,0)" clip-path="url(#94503168940199clip-2)"/><g style="stroke-width: 1.0;stroke: rgb(192,192,192);stroke-opacity: 1.0;; fill: none" transform="matrix(1,0,0,1,0,0)" clip-path="url(#94503168940199clip-2)"><path d="M 198.87 52.82 C 198.87 54.53 197.49 55.9 195.79 55.9 C 194.09 55.9 192.71 54.53 192.71 52.82 C 192.71 51.12 194.09 49.74 195.79 49.74 C 197.49 49.74 198.87 51.12 198.87 52.82 M 198.87 52.82"/></g><rect x="210.59" y="69.06" width="18.48" height="11.64" style="fill: rgb(192,192,192); fill-opacity: 1.0" transform="matrix(1,0,0,1,0,0)" clip-path="url(#94503168940199clip-2)"/><line x1="219.83" y1="55.73" x2="219.83" y2="69.06" style="stroke-width: 1.0;stroke: rgb(0,0,0);stroke-opacity: 1.0;" transform="matrix(1,0,0,1,0,0)" clip-path="url(#94503168940199clip-2)"/><line x1="210.59" y1="55.73" x2="229.07" y2="55.73" style="stroke-width: 1.0;stroke: rgb(0,0,0);stroke-opacity: 1.0;" transform="matrix(1,0,0,1,0,0)" clip-path="url(#94503168940199clip-2)"/><line x1="219.83" y1="95.74" x2="219.83" y2="80.7" style="stroke-width: 1.0;stroke: rgb(0,0,0);stroke-opacity: 1.0;" transform="matrix(1,0,0,1,0,0)" clip-path="url(#94503168940199clip-2)"/><line x1="210.59" y1="95.74" x2="229.07" y2="95.74" style="stroke-width: 1.0;stroke: rgb(0,0,0);stroke-opacity: 1.0;" transform="matrix(1,0,0,1,0,0)" clip-path="url(#94503168940199clip-2)"/><rect x="210.59" y="69.06" width="18.48" height="11.64" style="stroke-width: 1.0;stroke: rgb(0,0,0);stroke-opacity: 1.0;; fill: none" transform="matrix(1,0,0,1,0,0)" clip-path="url(#94503168940199clip-2)"/><line x1="210.59" y1="74.2" x2="229.07" y2="74.2" style="stroke-width: 1.0;stroke: rgb(0,0,0);stroke-opacity: 1.0;" transform="matrix(1,0,0,1,0,0)" clip-path="url(#94503168940199clip-2)"/><rect x="234.63" y="69.3" width="18.48" height="10.72" style="fill: rgb(192,192,192); fill-opacity: 1.0" transform="matrix(1,0,0,1,0,0)" clip-path="url(#94503168940199clip-2)"/><line x1="243.87" y1="55.73" x2="243.87" y2="69.3" style="stroke-width: 1.0;stroke: rgb(0,0,0);stroke-opacity: 1.0;" transform="matrix(1,0,0,1,0,0)" clip-path="url(#94503168940199clip-2)"/><line x1="234.63" y1="55.73" x2="253.11" y2="55.73" style="stroke-width: 1.0;stroke: rgb(0,0,0);stroke-opacity: 1.0;" transform="matrix(1,0,0,1,0,0)" clip-path="url(#94503168940199clip-2)"/><line x1="243.87" y1="95.74" x2="243.87" y2="80.02" style="stroke-width: 1.0;stroke: rgb(0,0,0);stroke-opacity: 1.0;" transform="matrix(1,0,0,1,0,0)" clip-path="url(#94503168940199clip-2)"/><line x1="234.63" y1="95.74" x2="253.11" y2="95.74" style="stroke-width: 1.0;stroke: rgb(0,0,0);stroke-opacity: 1.0;" transform="matrix(1,0,0,1,0,0)" clip-path="url(#94503168940199clip-2)"/><rect x="234.63" y="69.3" width="18.48" height="10.72" style="stroke-width: 1.0;stroke: rgb(0,0,0);stroke-opacity: 1.0;; fill: none" transform="matrix(1,0,0,1,0,0)" clip-path="url(#94503168940199clip-2)"/><line x1="234.63" y1="73.18" x2="253.11" y2="73.18" style="stroke-width: 1.0;stroke: rgb(0,0,0);stroke-opacity: 1.0;" transform="matrix(1,0,0,1,0,0)" clip-path="url(#94503168940199clip-2)"/><rect x="258.67" y="69.3" width="18.48" height="10.72" style="fill: rgb(192,192,192); fill-opacity: 1.0" transform="matrix(1,0,0,1,0,0)" clip-path="url(#94503168940199clip-2)"/><line x1="267.91" y1="55.73" x2="267.91" y2="69.3" style="stroke-width: 1.0;stroke: rgb(0,0,0);stroke-opacity: 1.0;" transform="matrix(1,0,0,1,0,0)" clip-path="url(#94503168940199clip-2)"/><line x1="258.67" y1="55.73" x2="277.15" y2="55.73" style="stroke-width: 1.0;stroke: rgb(0,0,0);stroke-opacity: 1.0;" transform="matrix(1,0,0,1,0,0)" clip-path="url(#94503168940199clip-2)"/><line x1="267.91" y1="95.74" x2="267.91" y2="80.02" style="stroke-width: 1.0;stroke: rgb(0,0,0);stroke-opacity: 1.0;" transform="matrix(1,0,0,1,0,0)" clip-path="url(#94503168940199clip-2)"/><line x1="258.67" y1="95.74" x2="277.15" y2="95.74" style="stroke-width: 1.0;stroke: rgb(0,0,0);stroke-opacity: 1.0;" transform="matrix(1,0,0,1,0,0)" clip-path="url(#94503168940199clip-2)"/><rect x="258.67" y="69.3" width="18.48" height="10.72" style="stroke-width: 1.0;stroke: rgb(0,0,0);stroke-opacity: 1.0;; fill: none" transform="matrix(1,0,0,1,0,0)" clip-path="url(#94503168940199clip-2)"/><line x1="258.67" y1="73.79" x2="277.15" y2="73.79" style="stroke-width: 1.0;stroke: rgb(0,0,0);stroke-opacity: 1.0;" transform="matrix(1,0,0,1,0,0)" clip-path="url(#94503168940199clip-2)"/><rect x="282.7" y="69.54" width="18.48" height="11.17" style="fill: rgb(192,192,192); fill-opacity: 1.0" transform="matrix(1,0,0,1,0,0)" clip-path="url(#94503168940199clip-2)"/><line x1="291.94" y1="55.73" x2="291.94" y2="69.54" style="stroke-width: 1.0;stroke: rgb(0,0,0);stroke-opacity: 1.0;" transform="matrix(1,0,0,1,0,0)" clip-path="url(#94503168940199clip-2)"/><line x1="282.7" y1="55.73" x2="301.18" y2="55.73" style="stroke-width: 1.0;stroke: rgb(0,0,0);stroke-opacity: 1.0;" transform="matrix(1,0,0,1,0,0)" clip-path="url(#94503168940199clip-2)"/><line x1="291.94" y1="95.74" x2="291.94" y2="80.7" style="stroke-width: 1.0;stroke: rgb(0,0,0);stroke-opacity: 1.0;" transform="matrix(1,0,0,1,0,0)" clip-path="url(#94503168940199clip-2)"/><line x1="282.7" y1="95.74" x2="301.18" y2="95.74" style="stroke-width: 1.0;stroke: rgb(0,0,0);stroke-opacity: 1.0;" transform="matrix(1,0,0,1,0,0)" clip-path="url(#94503168940199clip-2)"/><rect x="282.7" y="69.54" width="18.48" height="11.17" style="stroke-width: 1.0;stroke: rgb(0,0,0);stroke-opacity: 1.0;; fill: none" transform="matrix(1,0,0,1,0,0)" clip-path="url(#94503168940199clip-2)"/><line x1="282.7" y1="74.04" x2="301.18" y2="74.04" style="stroke-width: 1.0;stroke: rgb(0,0,0);stroke-opacity: 1.0;" transform="matrix(1,0,0,1,0,0)" clip-path="url(#94503168940199clip-2)"/><g style="stroke-width: 1.0;stroke: rgb(192,192,192);stroke-opacity: 1.0;; fill: none" transform="matrix(1,0,0,1,0,0)" clip-path="url(#94503168940199clip-2)"><path d="M 295.02 49.18 C 295.02 50.88 293.64 52.26 291.94 52.26 C 290.24 52.26 288.86 50.88 288.86 49.18 C 288.86 47.48 290.24 46.1 291.94 46.1 C 293.64 46.1 295.02 47.48 295.02 49.18 M 295.02 49.18"/></g><line x1="291.94" y1="23" x2="291.94" y2="23" style="stroke-width: 1.0;stroke: rgb(192,192,192);stroke-opacity: 1.0;" transform="matrix(1,0,0,1,0,0)" clip-path="url(#94503168940199clip-2)"/><line x1="291.94" y1="23" x2="291.94" y2="23" style="stroke-width: 1.0;stroke: rgb(192,192,192);stroke-opacity: 1.0;" transform="matrix(1,0,0,1,0,0)" clip-path="url(#94503168940199clip-2)"/><line x1="291.94" y1="23" x2="291.94" y2="23" style="stroke-width: 1.0;stroke: rgb(192,192,192);stroke-opacity: 1.0;" transform="matrix(1,0,0,1,0,0)" clip-path="url(#94503168940199clip-2)"/><rect x="306.74" y="69.47" width="18.48" height="10.6" style="fill: rgb(192,192,192); fill-opacity: 1.0" transform="matrix(1,0,0,1,0,0)" clip-path="url(#94503168940199clip-2)"/><line x1="315.98" y1="55.73" x2="315.98" y2="69.47" style="stroke-width: 1.0;stroke: rgb(0,0,0);stroke-opacity: 1.0;" transform="matrix(1,0,0,1,0,0)" clip-path="url(#94503168940199clip-2)"/><line x1="306.74" y1="55.73" x2="325.22" y2="55.73" style="stroke-width: 1.0;stroke: rgb(0,0,0);stroke-opacity: 1.0;" transform="matrix(1,0,0,1,0,0)" clip-path="url(#94503168940199clip-2)"/><line x1="315.98" y1="95.74" x2="315.98" y2="80.07" style="stroke-width: 1.0;stroke: rgb(0,0,0);stroke-opacity: 1.0;" transform="matrix(1,0,0,1,0,0)" clip-path="url(#94503168940199clip-2)"/><line x1="306.74" y1="95.74" x2="325.22" y2="95.74" style="stroke-width: 1.0;stroke: rgb(0,0,0);stroke-opacity: 1.0;" transform="matrix(1,0,0,1,0,0)" clip-path="url(#94503168940199clip-2)"/><rect x="306.74" y="69.47" width="18.48" height="10.6" style="stroke-width: 1.0;stroke: rgb(0,0,0);stroke-opacity: 1.0;; fill: none" transform="matrix(1,0,0,1,0,0)" clip-path="url(#94503168940199clip-2)"/><line x1="306.74" y1="74.04" x2="325.22" y2="74.04" style="stroke-width: 1.0;stroke: rgb(0,0,0);stroke-opacity: 1.0;" transform="matrix(1,0,0,1,0,0)" clip-path="url(#94503168940199clip-2)"/><g style="stroke-width: 1.0;stroke: rgb(192,192,192);stroke-opacity: 1.0;; fill: none" transform="matrix(1,0,0,1,0,0)" clip-path="url(#94503168940199clip-2)"><path d="M 319.06 49.18 C 319.06 50.88 317.68 52.26 315.98 52.26 C 314.28 52.26 312.9 50.88 312.9 49.18 C 312.9 47.48 314.28 46.1 315.98 46.1 C 317.68 46.1 319.06 47.48 319.06 49.18 M 319.06 49.18"/></g><line x1="315.98" y1="23" x2="315.98" y2="23" style="stroke-width: 1.0;stroke: rgb(192,192,192);stroke-opacity: 1.0;" transform="matrix(1,0,0,1,0,0)" clip-path="url(#94503168940199clip-2)"/><line x1="315.98" y1="23" x2="315.98" y2="23" style="stroke-width: 1.0;stroke: rgb(192,192,192);stroke-opacity: 1.0;" transform="matrix(1,0,0,1,0,0)" clip-path="url(#94503168940199clip-2)"/><line x1="315.98" y1="23" x2="315.98" y2="23" style="stroke-width: 1.0;stroke: rgb(192,192,192);stroke-opacity: 1.0;" transform="matrix(1,0,0,1,0,0)" clip-path="url(#94503168940199clip-2)"/><rect x="330.78" y="69.41" width="18.48" height="11.13" style="fill: rgb(192,192,192); fill-opacity: 1.0" transform="matrix(1,0,0,1,0,0)" clip-path="url(#94503168940199clip-2)"/><line x1="340.02" y1="55.73" x2="340.02" y2="69.41" style="stroke-width: 1.0;stroke: rgb(0,0,0);stroke-opacity: 1.0;" transform="matrix(1,0,0,1,0,0)" clip-path="url(#94503168940199clip-2)"/><line x1="330.78" y1="55.73" x2="349.26" y2="55.73" style="stroke-width: 1.0;stroke: rgb(0,0,0);stroke-opacity: 1.0;" transform="matrix(1,0,0,1,0,0)" clip-path="url(#94503168940199clip-2)"/><line x1="340.02" y1="95.74" x2="340.02" y2="80.53" style="stroke-width: 1.0;stroke: rgb(0,0,0);stroke-opacity: 1.0;" transform="matrix(1,0,0,1,0,0)" clip-path="url(#94503168940199clip-2)"/><line x1="330.78" y1="95.74" x2="349.26" y2="95.74" style="stroke-width: 1.0;stroke: rgb(0,0,0);stroke-opacity: 1.0;" transform="matrix(1,0,0,1,0,0)" clip-path="url(#94503168940199clip-2)"/><rect x="330.78" y="69.41" width="18.48" height="11.13" style="stroke-width: 1.0;stroke: rgb(0,0,0);stroke-opacity: 1.0;; fill: none" transform="matrix(1,0,0,1,0,0)" clip-path="url(#94503168940199clip-2)"/><line x1="330.78" y1="74.12" x2="349.26" y2="74.12" style="stroke-width: 1.0;stroke: rgb(0,0,0);stroke-opacity: 1.0;" transform="matrix(1,0,0,1,0,0)" clip-path="url(#94503168940199clip-2)"/><g style="stroke-width: 1.0;stroke: rgb(192,192,192);stroke-opacity: 1.0;; fill: none" transform="matrix(1,0,0,1,0,0)" clip-path="url(#94503168940199clip-2)"><path d="M 343.1 49.18 C 343.1 50.88 341.72 52.26 340.02 52.26 C 338.32 52.26 336.94 50.88 336.94 49.18 C 336.94 47.48 338.32 46.1 340.02 46.1 C 341.72 46.1 343.1 47.48 343.1 49.18 M 343.1 49.18"/></g><line x1="340.02" y1="23" x2="340.02" y2="23" style="stroke-width: 1.0;stroke: rgb(192,192,192);stroke-opacity: 1.0;" transform="matrix(1,0,0,1,0,0)" clip-path="url(#94503168940199clip-2)"/><line x1="340.02" y1="23" x2="340.02" y2="23" style="stroke-width: 1.0;stroke: rgb(192,192,192);stroke-opacity: 1.0;" transform="matrix(1,0,0,1,0,0)" clip-path="url(#94503168940199clip-2)"/><line x1="340.02" y1="23" x2="340.02" y2="23" style="stroke-width: 1.0;stroke: rgb(192,192,192);stroke-opacity: 1.0;" transform="matrix(1,0,0,1,0,0)" clip-path="url(#94503168940199clip-2)"/><rect x="354.82" y="68.84" width="18.48" height="12.37" style="fill: rgb(192,192,192); fill-opacity: 1.0" transform="matrix(1,0,0,1,0,0)" clip-path="url(#94503168940199clip-2)"/><line x1="364.06" y1="51.83" x2="364.06" y2="68.84" style="stroke-width: 1.0;stroke: rgb(0,0,0);stroke-opacity: 1.0;" transform="matrix(1,0,0,1,0,0)" clip-path="url(#94503168940199clip-2)"/><line x1="354.82" y1="51.83" x2="373.3" y2="51.83" style="stroke-width: 1.0;stroke: rgb(0,0,0);stroke-opacity: 1.0;" transform="matrix(1,0,0,1,0,0)" clip-path="url(#94503168940199clip-2)"/><line x1="364.06" y1="96.44" x2="364.06" y2="81.21" style="stroke-width: 1.0;stroke: rgb(0,0,0);stroke-opacity: 1.0;" transform="matrix(1,0,0,1,0,0)" clip-path="url(#94503168940199clip-2)"/><line x1="354.82" y1="96.44" x2="373.3" y2="96.44" style="stroke-width: 1.0;stroke: rgb(0,0,0);stroke-opacity: 1.0;" transform="matrix(1,0,0,1,0,0)" clip-path="url(#94503168940199clip-2)"/><rect x="354.82" y="68.84" width="18.48" height="12.37" style="stroke-width: 1.0;stroke: rgb(0,0,0);stroke-opacity: 1.0;; fill: none" transform="matrix(1,0,0,1,0,0)" clip-path="url(#94503168940199clip-2)"/><line x1="354.82" y1="74.12" x2="373.3" y2="74.12" style="stroke-width: 1.0;stroke: rgb(0,0,0);stroke-opacity: 1.0;" transform="matrix(1,0,0,1,0,0)" clip-path="url(#94503168940199clip-2)"/><g style="stroke-width: 1.0;stroke: rgb(192,192,192);stroke-opacity: 1.0;; fill: none" transform="matrix(1,0,0,1,0,0)" clip-path="url(#94503168940199clip-2)"><path d="M 360.98 41.21 C 360.98 42.91 359.6 44.29 357.9 44.29 C 356.2 44.29 354.82 42.91 354.82 41.21 C 354.82 39.51 356.2 38.13 357.9 38.13 C 359.6 38.13 360.98 39.51 360.98 41.21 M 360.98 41.21"/></g><g style="stroke-width: 1.0;stroke: rgb(192,192,192);stroke-opacity: 1.0;; fill: none" transform="matrix(1,0,0,1,0,0)" clip-path="url(#94503168940199clip-2)"><path d="M 373.3 41.21 C 373.3 42.91 371.92 44.29 370.22 44.29 C 368.52 44.29 367.14 42.91 367.14 41.21 C 367.14 39.51 368.52 38.13 370.22 38.13 C 371.92 38.13 373.3 39.51 373.3 41.21 M 373.3 41.21"/></g><rect x="378.85" y="68.6" width="18.48" height="12.76" style="fill: rgb(192,192,192); fill-opacity: 1.0" transform="matrix(1,0,0,1,0,0)" clip-path="url(#94503168940199clip-2)"/><line x1="388.09" y1="51.83" x2="388.09" y2="68.6" style="stroke-width: 1.0;stroke: rgb(0,0,0);stroke-opacity: 1.0;" transform="matrix(1,0,0,1,0,0)" clip-path="url(#94503168940199clip-2)"/><line x1="378.85" y1="51.83" x2="397.33" y2="51.83" style="stroke-width: 1.0;stroke: rgb(0,0,0);stroke-opacity: 1.0;" transform="matrix(1,0,0,1,0,0)" clip-path="url(#94503168940199clip-2)"/><line x1="388.09" y1="96.44" x2="388.09" y2="81.36" style="stroke-width: 1.0;stroke: rgb(0,0,0);stroke-opacity: 1.0;" transform="matrix(1,0,0,1,0,0)" clip-path="url(#94503168940199clip-2)"/><line x1="378.85" y1="96.44" x2="397.33" y2="96.44" style="stroke-width: 1.0;stroke: rgb(0,0,0);stroke-opacity: 1.0;" transform="matrix(1,0,0,1,0,0)" clip-path="url(#94503168940199clip-2)"/><rect x="378.85" y="68.6" width="18.48" height="12.76" style="stroke-width: 1.0;stroke: rgb(0,0,0);stroke-opacity: 1.0;; fill: none" transform="matrix(1,0,0,1,0,0)" clip-path="url(#94503168940199clip-2)"/><line x1="378.85" y1="74.04" x2="397.33" y2="74.04" style="stroke-width: 1.0;stroke: rgb(0,0,0);stroke-opacity: 1.0;" transform="matrix(1,0,0,1,0,0)" clip-path="url(#94503168940199clip-2)"/><g style="stroke-width: 1.0;stroke: rgb(192,192,192);stroke-opacity: 1.0;; fill: none" transform="matrix(1,0,0,1,0,0)" clip-path="url(#94503168940199clip-2)"><path d="M 385.01 41.21 C 385.01 42.91 383.64 44.29 381.93 44.29 C 380.23 44.29 378.85 42.91 378.85 41.21 C 378.85 39.51 380.23 38.13 381.93 38.13 C 383.64 38.13 385.01 39.51 385.01 41.21 M 385.01 41.21"/></g><g style="stroke-width: 1.0;stroke: rgb(192,192,192);stroke-opacity: 1.0;; fill: none" transform="matrix(1,0,0,1,0,0)" clip-path="url(#94503168940199clip-2)"><path d="M 397.33 41.21 C 397.33 42.91 395.96 44.29 394.25 44.29 C 392.55 44.29 391.17 42.91 391.17 41.21 C 391.17 39.51 392.55 38.13 394.25 38.13 C 395.96 38.13 397.33 39.51 397.33 41.21 M 397.33 41.21"/></g><rect x="402.89" y="68.6" width="18.48" height="12.92" style="fill: rgb(192,192,192); fill-opacity: 1.0" transform="matrix(1,0,0,1,0,0)" clip-path="url(#94503168940199clip-2)"/><line x1="412.13" y1="51.83" x2="412.13" y2="68.6" style="stroke-width: 1.0;stroke: rgb(0,0,0);stroke-opacity: 1.0;" transform="matrix(1,0,0,1,0,0)" clip-path="url(#94503168940199clip-2)"/><line x1="402.89" y1="51.83" x2="421.37" y2="51.83" style="stroke-width: 1.0;stroke: rgb(0,0,0);stroke-opacity: 1.0;" transform="matrix(1,0,0,1,0,0)" clip-path="url(#94503168940199clip-2)"/><line x1="412.13" y1="96.44" x2="412.13" y2="81.51" style="stroke-width: 1.0;stroke: rgb(0,0,0);stroke-opacity: 1.0;" transform="matrix(1,0,0,1,0,0)" clip-path="url(#94503168940199clip-2)"/><line x1="402.89" y1="96.44" x2="421.37" y2="96.44" style="stroke-width: 1.0;stroke: rgb(0,0,0);stroke-opacity: 1.0;" transform="matrix(1,0,0,1,0,0)" clip-path="url(#94503168940199clip-2)"/><rect x="402.89" y="68.6" width="18.48" height="12.92" style="stroke-width: 1.0;stroke: rgb(0,0,0);stroke-opacity: 1.0;; fill: none" transform="matrix(1,0,0,1,0,0)" clip-path="url(#94503168940199clip-2)"/><line x1="402.89" y1="74.2" x2="421.37" y2="74.2" style="stroke-width: 1.0;stroke: rgb(0,0,0);stroke-opacity: 1.0;" transform="matrix(1,0,0,1,0,0)" clip-path="url(#94503168940199clip-2)"/><g style="stroke-width: 1.0;stroke: rgb(192,192,192);stroke-opacity: 1.0;; fill: none" transform="matrix(1,0,0,1,0,0)" clip-path="url(#94503168940199clip-2)"><path d="M 409.05 41.21 C 409.05 42.91 407.67 44.29 405.97 44.29 C 404.27 44.29 402.89 42.91 402.89 41.21 C 402.89 39.51 404.27 38.13 405.97 38.13 C 407.67 38.13 409.05 39.51 409.05 41.21 M 409.05 41.21"/></g><g style="stroke-width: 1.0;stroke: rgb(192,192,192);stroke-opacity: 1.0;; fill: none" transform="matrix(1,0,0,1,0,0)" clip-path="url(#94503168940199clip-2)"><path d="M 421.37 41.21 C 421.37 42.91 419.99 44.29 418.29 44.29 C 416.59 44.29 415.21 42.91 415.21 41.21 C 415.21 39.51 416.59 38.13 418.29 38.13 C 419.99 38.13 421.37 39.51 421.37 41.21 M 421.37 41.21"/></g><rect x="426.93" y="68.53" width="18.48" height="13.93" style="fill: rgb(192,192,192); fill-opacity: 1.0" transform="matrix(1,0,0,1,0,0)" clip-path="url(#94503168940199clip-2)"/><line x1="436.17" y1="51.83" x2="436.17" y2="68.53" style="stroke-width: 1.0;stroke: rgb(0,0,0);stroke-opacity: 1.0;" transform="matrix(1,0,0,1,0,0)" clip-path="url(#94503168940199clip-2)"/><line x1="426.93" y1="51.83" x2="445.41" y2="51.83" style="stroke-width: 1.0;stroke: rgb(0,0,0);stroke-opacity: 1.0;" transform="matrix(1,0,0,1,0,0)" clip-path="url(#94503168940199clip-2)"/><line x1="436.17" y1="98.7" x2="436.17" y2="82.46" style="stroke-width: 1.0;stroke: rgb(0,0,0);stroke-opacity: 1.0;" transform="matrix(1,0,0,1,0,0)" clip-path="url(#94503168940199clip-2)"/><line x1="426.93" y1="98.7" x2="445.41" y2="98.7" style="stroke-width: 1.0;stroke: rgb(0,0,0);stroke-opacity: 1.0;" transform="matrix(1,0,0,1,0,0)" clip-path="url(#94503168940199clip-2)"/><rect x="426.93" y="68.53" width="18.48" height="13.93" style="stroke-width: 1.0;stroke: rgb(0,0,0);stroke-opacity: 1.0;; fill: none" transform="matrix(1,0,0,1,0,0)" clip-path="url(#94503168940199clip-2)"/><line x1="426.93" y1="74.12" x2="445.41" y2="74.12" style="stroke-width: 1.0;stroke: rgb(0,0,0);stroke-opacity: 1.0;" transform="matrix(1,0,0,1,0,0)" clip-path="url(#94503168940199clip-2)"/><g style="stroke-width: 1.0;stroke: rgb(192,192,192);stroke-opacity: 1.0;; fill: none" transform="matrix(1,0,0,1,0,0)" clip-path="url(#94503168940199clip-2)"><path d="M 433.09 41.21 C 433.09 42.91 431.71 44.29 430.01 44.29 C 428.31 44.29 426.93 42.91 426.93 41.21 C 426.93 39.51 428.31 38.13 430.01 38.13 C 431.71 38.13 433.09 39.51 433.09 41.21 M 433.09 41.21"/></g><g style="stroke-width: 1.0;stroke: rgb(192,192,192);stroke-opacity: 1.0;; fill: none" transform="matrix(1,0,0,1,0,0)" clip-path="url(#94503168940199clip-2)"><path d="M 445.41 41.21 C 445.41 42.91 444.03 44.29 442.33 44.29 C 440.63 44.29 439.25 42.91 439.25 41.21 C 439.25 39.51 440.63 38.13 442.33 38.13 C 444.03 38.13 445.41 39.51 445.41 41.21 M 445.41 41.21"/></g><line x1="436.17" y1="23" x2="436.17" y2="23" style="stroke-width: 1.0;stroke: rgb(192,192,192);stroke-opacity: 1.0;" transform="matrix(1,0,0,1,0,0)" clip-path="url(#94503168940199clip-2)"/><line x1="436.17" y1="23" x2="436.17" y2="23" style="stroke-width: 1.0;stroke: rgb(192,192,192);stroke-opacity: 1.0;" transform="matrix(1,0,0,1,0,0)" clip-path="url(#94503168940199clip-2)"/><line x1="436.17" y1="23" x2="436.17" y2="23" style="stroke-width: 1.0;stroke: rgb(192,192,192);stroke-opacity: 1.0;" transform="matrix(1,0,0,1,0,0)" clip-path="url(#94503168940199clip-2)"/><rect x="450.97" y="67.91" width="18.48" height="15.04" style="fill: rgb(192,192,192); fill-opacity: 1.0" transform="matrix(1,0,0,1,0,0)" clip-path="url(#94503168940199clip-2)"/><line x1="460.21" y1="51.83" x2="460.21" y2="67.91" style="stroke-width: 1.0;stroke: rgb(0,0,0);stroke-opacity: 1.0;" transform="matrix(1,0,0,1,0,0)" clip-path="url(#94503168940199clip-2)"/><line x1="450.97" y1="51.83" x2="469.45" y2="51.83" style="stroke-width: 1.0;stroke: rgb(0,0,0);stroke-opacity: 1.0;" transform="matrix(1,0,0,1,0,0)" clip-path="url(#94503168940199clip-2)"/><line x1="460.21" y1="98.7" x2="460.21" y2="82.95" style="stroke-width: 1.0;stroke: rgb(0,0,0);stroke-opacity: 1.0;" transform="matrix(1,0,0,1,0,0)" clip-path="url(#94503168940199clip-2)"/><line x1="450.97" y1="98.7" x2="469.45" y2="98.7" style="stroke-width: 1.0;stroke: rgb(0,0,0);stroke-opacity: 1.0;" transform="matrix(1,0,0,1,0,0)" clip-path="url(#94503168940199clip-2)"/><rect x="450.97" y="67.91" width="18.48" height="15.04" style="stroke-width: 1.0;stroke: rgb(0,0,0);stroke-opacity: 1.0;; fill: none" transform="matrix(1,0,0,1,0,0)" clip-path="url(#94503168940199clip-2)"/><line x1="450.97" y1="74.22" x2="469.45" y2="74.22" style="stroke-width: 1.0;stroke: rgb(0,0,0);stroke-opacity: 1.0;" transform="matrix(1,0,0,1,0,0)" clip-path="url(#94503168940199clip-2)"/><g style="stroke-width: 1.0;stroke: rgb(192,192,192);stroke-opacity: 1.0;; fill: none" transform="matrix(1,0,0,1,0,0)" clip-path="url(#94503168940199clip-2)"><path d="M 457.13 41.21 C 457.13 42.91 455.75 44.29 454.05 44.29 C 452.35 44.29 450.97 42.91 450.97 41.21 C 450.97 39.51 452.35 38.13 454.05 38.13 C 455.75 38.13 457.13 39.51 457.13 41.21 M 457.13 41.21"/></g><g style="stroke-width: 1.0;stroke: rgb(192,192,192);stroke-opacity: 1.0;; fill: none" transform="matrix(1,0,0,1,0,0)" clip-path="url(#94503168940199clip-2)"><path d="M 469.45 41.21 C 469.45 42.91 468.07 44.29 466.37 44.29 C 464.67 44.29 463.29 42.91 463.29 41.21 C 463.29 39.51 464.67 38.13 466.37 38.13 C 468.07 38.13 469.45 39.51 469.45 41.21 M 469.45 41.21"/></g><line x1="460.21" y1="23" x2="460.21" y2="23" style="stroke-width: 1.0;stroke: rgb(192,192,192);stroke-opacity: 1.0;" transform="matrix(1,0,0,1,0,0)" clip-path="url(#94503168940199clip-2)"/><line x1="460.21" y1="23" x2="460.21" y2="23" style="stroke-width: 1.0;stroke: rgb(192,192,192);stroke-opacity: 1.0;" transform="matrix(1,0,0,1,0,0)" clip-path="url(#94503168940199clip-2)"/><line x1="460.21" y1="23" x2="460.21" y2="23" style="stroke-width: 1.0;stroke: rgb(192,192,192);stroke-opacity: 1.0;" transform="matrix(1,0,0,1,0,0)" clip-path="url(#94503168940199clip-2)"/><rect x="475.01" y="66.16" width="18.48" height="16.97" style="fill: rgb(192,192,192); fill-opacity: 1.0" transform="matrix(1,0,0,1,0,0)" clip-path="url(#94503168940199clip-2)"/><line x1="484.25" y1="44.16" x2="484.25" y2="66.16" style="stroke-width: 1.0;stroke: rgb(0,0,0);stroke-opacity: 1.0;" transform="matrix(1,0,0,1,0,0)" clip-path="url(#94503168940199clip-2)"/><line x1="475.01" y1="44.16" x2="493.49" y2="44.16" style="stroke-width: 1.0;stroke: rgb(0,0,0);stroke-opacity: 1.0;" transform="matrix(1,0,0,1,0,0)" clip-path="url(#94503168940199clip-2)"/><line x1="484.25" y1="98.7" x2="484.25" y2="83.13" style="stroke-width: 1.0;stroke: rgb(0,0,0);stroke-opacity: 1.0;" transform="matrix(1,0,0,1,0,0)" clip-path="url(#94503168940199clip-2)"/><line x1="475.01" y1="98.7" x2="493.49" y2="98.7" style="stroke-width: 1.0;stroke: rgb(0,0,0);stroke-opacity: 1.0;" transform="matrix(1,0,0,1,0,0)" clip-path="url(#94503168940199clip-2)"/><rect x="475.01" y="66.16" width="18.48" height="16.97" style="stroke-width: 1.0;stroke: rgb(0,0,0);stroke-opacity: 1.0;; fill: none" transform="matrix(1,0,0,1,0,0)" clip-path="url(#94503168940199clip-2)"/><line x1="475.01" y1="74.25" x2="493.49" y2="74.25" style="stroke-width: 1.0;stroke: rgb(0,0,0);stroke-opacity: 1.0;" transform="matrix(1,0,0,1,0,0)" clip-path="url(#94503168940199clip-2)"/><g style="stroke-width: 1.0;stroke: rgb(192,192,192);stroke-opacity: 1.0;; fill: none" transform="matrix(1,0,0,1,0,0)" clip-path="url(#94503168940199clip-2)"><path d="M 487.33 32.16 C 487.33 33.86 485.95 35.24 484.25 35.24 C 482.55 35.24 481.17 33.86 481.17 32.16 C 481.17 30.46 482.55 29.08 484.25 29.08 C 485.95 29.08 487.33 30.46 487.33 32.16 M 487.33 32.16"/></g><line x1="484.25" y1="23" x2="484.25" y2="23" style="stroke-width: 1.0;stroke: rgb(192,192,192);stroke-opacity: 1.0;" transform="matrix(1,0,0,1,0,0)" clip-path="url(#94503168940199clip-2)"/><line x1="484.25" y1="23" x2="484.25" y2="23" style="stroke-width: 1.0;stroke: rgb(192,192,192);stroke-opacity: 1.0;" transform="matrix(1,0,0,1,0,0)" clip-path="url(#94503168940199clip-2)"/><line x1="484.25" y1="23" x2="484.25" y2="23" style="stroke-width: 1.0;stroke: rgb(192,192,192);stroke-opacity: 1.0;" transform="matrix(1,0,0,1,0,0)" clip-path="url(#94503168940199clip-2)"/><rect x="499.04" y="65.53" width="18.48" height="17.9" style="fill: rgb(192,192,192); fill-opacity: 1.0" transform="matrix(1,0,0,1,0,0)" clip-path="url(#94503168940199clip-2)"/><line x1="508.28" y1="42.17" x2="508.28" y2="65.53" style="stroke-width: 1.0;stroke: rgb(0,0,0);stroke-opacity: 1.0;" transform="matrix(1,0,0,1,0,0)" clip-path="url(#94503168940199clip-2)"/><line x1="499.04" y1="42.17" x2="517.52" y2="42.17" style="stroke-width: 1.0;stroke: rgb(0,0,0);stroke-opacity: 1.0;" transform="matrix(1,0,0,1,0,0)" clip-path="url(#94503168940199clip-2)"/><line x1="508.28" y1="109.11" x2="508.28" y2="83.43" style="stroke-width: 1.0;stroke: rgb(0,0,0);stroke-opacity: 1.0;" transform="matrix(1,0,0,1,0,0)" clip-path="url(#94503168940199clip-2)"/><line x1="499.04" y1="109.11" x2="517.52" y2="109.11" style="stroke-width: 1.0;stroke: rgb(0,0,0);stroke-opacity: 1.0;" transform="matrix(1,0,0,1,0,0)" clip-path="url(#94503168940199clip-2)"/><rect x="499.04" y="65.53" width="18.48" height="17.9" style="stroke-width: 1.0;stroke: rgb(0,0,0);stroke-opacity: 1.0;; fill: none" transform="matrix(1,0,0,1,0,0)" clip-path="url(#94503168940199clip-2)"/><line x1="499.04" y1="74.25" x2="517.52" y2="74.25" style="stroke-width: 1.0;stroke: rgb(0,0,0);stroke-opacity: 1.0;" transform="matrix(1,0,0,1,0,0)" clip-path="url(#94503168940199clip-2)"/><g style="stroke-width: 1.0;stroke: rgb(192,192,192);stroke-opacity: 1.0;; fill: none" transform="matrix(1,0,0,1,0,0)" clip-path="url(#94503168940199clip-2)"><path d="M 505.2 32.16 C 505.2 33.86 503.83 35.24 502.12 35.24 C 500.42 35.24 499.04 33.86 499.04 32.16 C 499.04 30.46 500.42 29.08 502.12 29.08 C 503.83 29.08 505.2 30.46 505.2 32.16 M 505.2 32.16"/></g><g style="stroke-width: 1.0;stroke: rgb(192,192,192);stroke-opacity: 1.0;; fill: none" transform="matrix(1,0,0,1,0,0)" clip-path="url(#94503168940199clip-2)"><path d="M 517.52 32.16 C 517.52 33.86 516.15 35.24 514.44 35.24 C 512.74 35.24 511.36 33.86 511.36 32.16 C 511.36 30.46 512.74 29.08 514.44 29.08 C 516.15 29.08 517.52 30.46 517.52 32.16 M 517.52 32.16"/></g><rect x="523.08" y="65.53" width="18.48" height="17.94" style="fill: rgb(192,192,192); fill-opacity: 1.0" transform="matrix(1,0,0,1,0,0)" clip-path="url(#94503168940199clip-2)"/><line x1="532.32" y1="42.17" x2="532.32" y2="65.53" style="stroke-width: 1.0;stroke: rgb(0,0,0);stroke-opacity: 1.0;" transform="matrix(1,0,0,1,0,0)" clip-path="url(#94503168940199clip-2)"/><line x1="523.08" y1="42.17" x2="541.56" y2="42.17" style="stroke-width: 1.0;stroke: rgb(0,0,0);stroke-opacity: 1.0;" transform="matrix(1,0,0,1,0,0)" clip-path="url(#94503168940199clip-2)"/><line x1="532.32" y1="109.11" x2="532.32" y2="83.46" style="stroke-width: 1.0;stroke: rgb(0,0,0);stroke-opacity: 1.0;" transform="matrix(1,0,0,1,0,0)" clip-path="url(#94503168940199clip-2)"/><line x1="523.08" y1="109.11" x2="541.56" y2="109.11" style="stroke-width: 1.0;stroke: rgb(0,0,0);stroke-opacity: 1.0;" transform="matrix(1,0,0,1,0,0)" clip-path="url(#94503168940199clip-2)"/><rect x="523.08" y="65.53" width="18.48" height="17.94" style="stroke-width: 1.0;stroke: rgb(0,0,0);stroke-opacity: 1.0;; fill: none" transform="matrix(1,0,0,1,0,0)" clip-path="url(#94503168940199clip-2)"/><line x1="523.08" y1="74.58" x2="541.56" y2="74.58" style="stroke-width: 1.0;stroke: rgb(0,0,0);stroke-opacity: 1.0;" transform="matrix(1,0,0,1,0,0)" clip-path="url(#94503168940199clip-2)"/><g style="stroke-width: 1.0;stroke: rgb(192,192,192);stroke-opacity: 1.0;; fill: none" transform="matrix(1,0,0,1,0,0)" clip-path="url(#94503168940199clip-2)"><path d="M 529.24 32.16 C 529.24 33.86 527.86 35.24 526.16 35.24 C 524.46 35.24 523.08 33.86 523.08 32.16 C 523.08 30.46 524.46 29.08 526.16 29.08 C 527.86 29.08 529.24 30.46 529.24 32.16 M 529.24 32.16"/></g><g style="stroke-width: 1.0;stroke: rgb(192,192,192);stroke-opacity: 1.0;; fill: none" transform="matrix(1,0,0,1,0,0)" clip-path="url(#94503168940199clip-2)"><path d="M 541.56 32.16 C 541.56 33.86 540.18 35.24 538.48 35.24 C 536.78 35.24 535.4 33.86 535.4 32.16 C 535.4 30.46 536.78 29.08 538.48 29.08 C 540.18 29.08 541.56 30.46 541.56 32.16 M 541.56 32.16"/></g><rect x="547.12" y="64.68" width="18.48" height="18.88" style="fill: rgb(192,192,192); fill-opacity: 1.0" transform="matrix(1,0,0,1,0,0)" clip-path="url(#94503168940199clip-2)"/><line x1="556.36" y1="37.52" x2="556.36" y2="64.68" style="stroke-width: 1.0;stroke: rgb(0,0,0);stroke-opacity: 1.0;" transform="matrix(1,0,0,1,0,0)" clip-path="url(#94503168940199clip-2)"/><line x1="547.12" y1="37.52" x2="565.6" y2="37.52" style="stroke-width: 1.0;stroke: rgb(0,0,0);stroke-opacity: 1.0;" transform="matrix(1,0,0,1,0,0)" clip-path="url(#94503168940199clip-2)"/><line x1="556.36" y1="109.11" x2="556.36" y2="83.56" style="stroke-width: 1.0;stroke: rgb(0,0,0);stroke-opacity: 1.0;" transform="matrix(1,0,0,1,0,0)" clip-path="url(#94503168940199clip-2)"/><line x1="547.12" y1="109.11" x2="565.6" y2="109.11" style="stroke-width: 1.0;stroke: rgb(0,0,0);stroke-opacity: 1.0;" transform="matrix(1,0,0,1,0,0)" clip-path="url(#94503168940199clip-2)"/><rect x="547.12" y="64.68" width="18.48" height="18.88" style="stroke-width: 1.0;stroke: rgb(0,0,0);stroke-opacity: 1.0;; fill: none" transform="matrix(1,0,0,1,0,0)" clip-path="url(#94503168940199clip-2)"/><line x1="547.12" y1="74.58" x2="565.6" y2="74.58" style="stroke-width: 1.0;stroke: rgb(0,0,0);stroke-opacity: 1.0;" transform="matrix(1,0,0,1,0,0)" clip-path="url(#94503168940199clip-2)"/><g style="stroke-width: 1.0;stroke: rgb(192,192,192);stroke-opacity: 1.0;; fill: none" transform="matrix(1,0,0,1,0,0)" clip-path="url(#94503168940199clip-2)"><path d="M 553.28 32.16 C 553.28 33.86 551.9 35.24 550.2 35.24 C 548.5 35.24 547.12 33.86 547.12 32.16 C 547.12 30.46 548.5 29.08 550.2 29.08 C 551.9 29.08 553.28 30.46 553.28 32.16 M 553.28 32.16"/></g><g style="stroke-width: 1.0;stroke: rgb(192,192,192);stroke-opacity: 1.0;; fill: none" transform="matrix(1,0,0,1,0,0)" clip-path="url(#94503168940199clip-2)"><path d="M 565.6 32.16 C 565.6 33.86 564.22 35.24 562.52 35.24 C 560.82 35.24 559.44 33.86 559.44 32.16 C 559.44 30.46 560.82 29.08 562.52 29.08 C 564.22 29.08 565.6 30.46 565.6 32.16 M 565.6 32.16"/></g><rect x="64" y="23" width="528" height="305" style="stroke-width: 0.5;stroke: rgb(128,128,128);stroke-opacity: 1.0;; fill: none" transform="matrix(1,0,0,1,0,0)" clip-path="url(#94503168940199clip-0)"/></svg>
